<svg id="color8" xmlns="http://www.w3.org/2000/svg" width="358.322" height="191.025" viewBox="0 0 358.322 191.025">
  <rect id="Rectángulo_5411" data-name="Rectángulo 5411" width="44.787" height="45.779" transform="translate(0 145.247)" fill="#754c24"/>
  <g id="Grupo_57730" data-name="Grupo 57730">
    <rect id="Rectángulo_5412" data-name="Rectángulo 5412" width="179.161" height="145.247" fill="#754c24"/>
    <rect id="Rectángulo_5413" data-name="Rectángulo 5413" width="179.161" height="191.025" transform="translate(179.161)" fill="#f2f2f2"/>
    <g id="Grupo_57722" data-name="Grupo 57722" transform="translate(44.787 145.247)" opacity="0.75">
      <rect id="Rectángulo_5414" data-name="Rectángulo 5414" width="44.787" height="45.779" fill="#754c24"/>
    </g>
    <g id="Grupo_57723" data-name="Grupo 57723" transform="translate(89.58 145.247)" opacity="0.5">
      <rect id="Rectángulo_5415" data-name="Rectángulo 5415" width="44.787" height="45.779" fill="#754c24"/>
    </g>
    <g id="Grupo_57724" data-name="Grupo 57724" transform="translate(134.367 145.247)" opacity="0.25">
      <rect id="Rectángulo_5416" data-name="Rectángulo 5416" width="44.787" height="45.779" fill="#754c24"/>
    </g>
    <g id="Grupo_57725" data-name="Grupo 57725" transform="translate(201.287 34.271)">
      <path id="Trazado_102825" data-name="Trazado 102825" d="M336.825,72.636H333.3l-1.119-12.846-4.317,12.846h-2.289l-4.317-12.846-1.132,12.846H316.58l1.427-17.043h5.054l3.63,10.7,3.682-10.7h5.048Z" transform="translate(-316.58 -54.516)"/>
      <path id="Trazado_102826" data-name="Trazado 102826" d="M362.875,72.009a11.266,11.266,0,0,0,.3,2.957V75.3h-3.179l-.267-1.322a3.936,3.936,0,0,1-1.7,1.17,6.275,6.275,0,0,1-2.194.388,5.877,5.877,0,0,1-1.138-.1,3.968,3.968,0,0,1-1.018-.363,3.022,3.022,0,0,1-.845-.636,2.786,2.786,0,0,1-.566-.96,3.918,3.918,0,0,1-.21-1.316,3.574,3.574,0,0,1,.222-1.316,2.97,2.97,0,0,1,.588-.986,3.472,3.472,0,0,1,.954-.719,7.08,7.08,0,0,1,1.2-.521,13.758,13.758,0,0,1,1.443-.375l1.99-.452a2.206,2.206,0,0,0,.9-.381.763.763,0,0,0,.267-.636,1.272,1.272,0,0,0-.6-1.164,2.714,2.714,0,0,0-1.443-.356,2.081,2.081,0,0,0-2.372,1.847l-3.007-.541a4.063,4.063,0,0,1,1.755-2.766,6.994,6.994,0,0,1,3.815-.89q5.087,0,5.087,4.374ZM356.9,73.225a2.746,2.746,0,0,0,2.1-.877,3.707,3.707,0,0,0,.814-2.6l-2.881.84a3.434,3.434,0,0,0-1.208.5,1.018,1.018,0,0,0-.42.871,1.139,1.139,0,0,0,.445.966,1.907,1.907,0,0,0,1.151.306Z" transform="translate(-329.5 -57.175)"/>
      <path id="Trazado_102827" data-name="Trazado 102827" d="M377.525,65.152a3.961,3.961,0,0,1,1.589-1.456,4.858,4.858,0,0,1,2.372-.636v3.022a4.618,4.618,0,0,0-2.9.751,3.2,3.2,0,0,0-.9,2.6v5.92h-3.42V63.231h3.255Z" transform="translate(-337.59 -57.236)"/>
      <path id="Trazado_102828" data-name="Trazado 102828" d="M392.015,65.152A3.962,3.962,0,0,1,393.6,63.7a4.858,4.858,0,0,1,2.372-.636v3.022a4.618,4.618,0,0,0-2.9.751,3.2,3.2,0,0,0-.9,2.6v5.92h-3.42V63.231h3.255Z" transform="translate(-342.866 -57.236)"/>
      <path id="Trazado_102829" data-name="Trazado 102829" d="M408.19,72.256a7.629,7.629,0,0,1-3.433-.744A5.576,5.576,0,0,1,402.4,69.33a6.535,6.535,0,0,1-.852-3.383,5.932,5.932,0,0,1,1.838-4.6,7.707,7.707,0,0,1,9.62,0,6.7,6.7,0,0,1,0,9.221,6.823,6.823,0,0,1-4.813,1.691Zm0-2.7a3.134,3.134,0,0,0,2.384-.966,4.228,4.228,0,0,0,0-5.239,3.116,3.116,0,0,0-2.384-1.007,2.975,2.975,0,0,0-2.327,1,4.235,4.235,0,0,0,0,5.226A2.988,2.988,0,0,0,408.19,69.554Zm-1.018-11.312,3.1-4.342,1.672,1.183-2.677,3.183Z" transform="translate(-347.52 -53.9)"/>
      <path id="Trazado_102830" data-name="Trazado 102830" d="M433.608,62.992a4.731,4.731,0,0,1,3.358,1.062,4.043,4.043,0,0,1,1.17,3.106v8.164h-3.408v-7.43a2.091,2.091,0,0,0-.636-1.672,2.267,2.267,0,0,0-1.564-.534,3.179,3.179,0,0,0-1.007.153,2.778,2.778,0,0,0-.852.484,2.117,2.117,0,0,0-.6.909,4.2,4.2,0,0,0-.229,1.405v6.689H426.43V63.2h3.4v1.343a4.68,4.68,0,0,1,3.778-1.552Z" transform="translate(-356.586 -57.206)"/>
    </g>
    <g id="Grupo_57726" data-name="Grupo 57726" transform="translate(203.227 95.513)">
      <path id="Trazado_102831" data-name="Trazado 102831" d="M324.145,152.051h-2.836v2.289h2.5v.8h-2.5v2.315h2.836v.808H320.4v-6.994h3.745Z" transform="translate(-319.91 -150.602)"/>
      <path id="Trazado_102832" data-name="Trazado 102832" d="M329.927,159.47a2.308,2.308,0,0,1-1.316-.35,1.469,1.469,0,0,1-.635-1.007l.751-.216a1.081,1.081,0,0,0,.4.68,1.315,1.315,0,0,0,.8.242,1.794,1.794,0,0,0,.47-.064.815.815,0,0,0,.363-.242.692.692,0,0,0,.146-.445.681.681,0,0,0-.044-.2.743.743,0,0,0-.076-.159.407.407,0,0,0-.14-.133,1.445,1.445,0,0,0-.168-.108,1.322,1.322,0,0,0-.217-.089l-.242-.084-.274-.076-.28-.084c-.2-.064-.375-.121-.509-.178a2.325,2.325,0,0,1-.413-.235.947.947,0,0,1-.318-.388,1.31,1.31,0,0,1-.108-.547,1.272,1.272,0,0,1,.242-.776,1.322,1.322,0,0,1,.636-.464,2.441,2.441,0,0,1,.865-.14,2.124,2.124,0,0,1,1.189.318,1.361,1.361,0,0,1,.6.954l-.706.178a.936.936,0,0,0-.375-.636,1.157,1.157,0,0,0-.7-.21,1.215,1.215,0,0,0-.636.168.578.578,0,0,0-.274.528.541.541,0,0,0,.07.267,1.049,1.049,0,0,0,.146.191.8.8,0,0,0,.274.146,2.3,2.3,0,0,0,.286.108l.356.089h.076l.47.133a3.4,3.4,0,0,1,.42.178,1.542,1.542,0,0,1,.381.267,1.333,1.333,0,0,1,.336.9,1.469,1.469,0,0,1-.146.636,1.145,1.145,0,0,1-.4.452,1.907,1.907,0,0,1-.566.242,2.6,2.6,0,0,1-.731.155Z" transform="translate(-322.67 -151.744)"/>
      <path id="Trazado_102833" data-name="Trazado 102833" d="M337.141,158.5a1.272,1.272,0,0,1-.954-.35,1.316,1.316,0,0,1-.349-.973V154.3h-1v-.687h.369a.719.719,0,0,0,.541-.168.858.858,0,0,0,.153-.573V152h.8v1.628h1.125v.687H336.7v2.771a.744.744,0,0,0,.185.534.636.636,0,0,0,.49.191h.452v.687Z" transform="translate(-325.169 -150.868)"/>
      <path id="Trazado_102834" data-name="Trazado 102834" d="M342.315,159.47a1.653,1.653,0,0,1-1.068-.336,1.2,1.2,0,0,1-.42-1,1.4,1.4,0,0,1,.133-.636,1.062,1.062,0,0,1,.394-.445,2.392,2.392,0,0,1,.573-.28,5.423,5.423,0,0,1,.744-.168l.788-.133c.292-.051.432-.2.432-.452a.845.845,0,0,0-.306-.725,1.207,1.207,0,0,0-.769-.235,1.309,1.309,0,0,0-.769.222.96.96,0,0,0-.363.687l-.769-.159a1.481,1.481,0,0,1,.635-1.049,2.251,2.251,0,0,1,1.329-.35,2.676,2.676,0,0,1,.706.089,1.792,1.792,0,0,1,.588.274,1.2,1.2,0,0,1,.426.521,1.962,1.962,0,0,1,.153.808v2.015a.826.826,0,0,0,.108.509.484.484,0,0,0,.388.133h.076v.636H344.9a.808.808,0,0,1-.924-.636h-.045a1.847,1.847,0,0,1-1.617.707Zm.2-.693a1.3,1.3,0,0,0,1.049-.477,1.908,1.908,0,0,0,.395-1.272l-1.272.252a1.736,1.736,0,0,0-.756.274.718.718,0,0,0-.007,1.068.966.966,0,0,0,.592.155Z" transform="translate(-327.348 -151.745)"/>
      <path id="Trazado_102835" data-name="Trazado 102835" d="M352.375,152.871a2.137,2.137,0,0,1,1.615.706,2.587,2.587,0,0,1,.636,1.838,2.62,2.62,0,0,1-.636,1.838,2.13,2.13,0,0,1-1.621.706,1.946,1.946,0,0,1-1.043-.286,1.819,1.819,0,0,1-.7-.769v.947H349.8V150.22h.852V153.9a1.806,1.806,0,0,1,.7-.751,1.952,1.952,0,0,1,1.023-.275Zm-.191,4.336a1.511,1.511,0,0,0,1.144-.5,1.837,1.837,0,0,0,.464-1.272,1.869,1.869,0,0,0-.464-1.272,1.511,1.511,0,0,0-1.144-.5,1.463,1.463,0,0,0-1.132.515,2.009,2.009,0,0,0,0,2.543,1.468,1.468,0,0,0,1.132.477Z" transform="translate(-330.618 -150.22)"/>
      <path id="Trazado_102836" data-name="Trazado 102836" d="M359.55,157.85v-7.63h.871v7.63Z" transform="translate(-334.168 -150.22)"/>
      <path id="Trazado_102837" data-name="Trazado 102837" d="M367.738,156.846v.235h-3.815a1.71,1.71,0,0,0,.47,1.272,1.526,1.526,0,0,0,1.112.439,1.475,1.475,0,0,0,1.361-.884l.776.168a2.168,2.168,0,0,1-.833,1.049,2.283,2.283,0,0,1-1.272.381,2.358,2.358,0,0,1-1.755-.68,2.893,2.893,0,0,1,0-3.713,2.34,2.34,0,0,1,1.729-.68,2.206,2.206,0,0,1,1.647.636,2.493,2.493,0,0,1,.578,1.777Zm-2.267-1.78a1.494,1.494,0,0,0-1.008.35,1.583,1.583,0,0,0-.515,1.007h2.906a1.456,1.456,0,0,0-.426-1.007,1.373,1.373,0,0,0-.955-.35Z" transform="translate(-335.465 -151.753)"/>
      <path id="Trazado_102838" data-name="Trazado 102838" d="M324.832,170.42h.89v6.994h-.89v-3.106H321.29v3.106h-.89V170.42h.89v3.09h3.541Z" transform="translate(-319.91 -157.576)"/>
      <path id="Trazado_102839" data-name="Trazado 102839" d="M333.578,178.663a2.543,2.543,0,0,1-1.272-.306,2.149,2.149,0,0,1-.884-.884,2.727,2.727,0,0,1-.324-1.348,2.493,2.493,0,0,1,.693-1.847,2.6,2.6,0,0,1,3.536,0,2.543,2.543,0,0,1,.687,1.847,2.486,2.486,0,0,1-.693,1.847A2.372,2.372,0,0,1,333.578,178.663Zm0-.712a1.526,1.526,0,0,0,1.157-.5,2.13,2.13,0,0,0,0-2.639,1.5,1.5,0,0,0-1.157-.5,1.468,1.468,0,0,0-1.144.5,2.13,2.13,0,0,0,0,2.639A1.488,1.488,0,0,0,333.578,177.951Z" transform="translate(-323.805 -158.731)"/>
      <path id="Trazado_102840" data-name="Trazado 102840" d="M343.3,173.589a1.71,1.71,0,0,1,1.227.445,1.653,1.653,0,0,1,.458,1.272v3.287h-.858V175.5a1.17,1.17,0,0,0-.3-.877,1.05,1.05,0,0,0-.763-.28,1.189,1.189,0,0,0-.871.331,1.392,1.392,0,0,0-.343,1v2.918H341V173.71h.858v.636a1.628,1.628,0,0,1,1.437-.756Z" transform="translate(-327.413 -158.73)"/>
      <path id="Trazado_102841" data-name="Trazado 102841" d="M353.931,176.053v.235h-3.815a1.71,1.71,0,0,0,.464,1.272,1.526,1.526,0,0,0,1.112.439,1.481,1.481,0,0,0,.808-.235,1.552,1.552,0,0,0,.56-.636l.776.168a2.212,2.212,0,0,1-.84,1.049,2.267,2.267,0,0,1-1.272.381,2.359,2.359,0,0,1-1.763-.68,2.893,2.893,0,0,1,0-3.713,2.351,2.351,0,0,1,1.735-.68,2.2,2.2,0,0,1,1.641.636,2.473,2.473,0,0,1,.594,1.764Zm-2.258-1.78a1.532,1.532,0,0,0-1.018.35,1.583,1.583,0,0,0-.515,1.007h2.925a1.428,1.428,0,0,0-.426-1.007,1.386,1.386,0,0,0-.992-.35Z" transform="translate(-330.431 -158.753)"/>
      <path id="Trazado_102842" data-name="Trazado 102842" d="M360.022,178.67a2.308,2.308,0,0,1-1.316-.35,1.45,1.45,0,0,1-.636-1.007l.751-.216a1.03,1.03,0,0,0,.4.68,1.272,1.272,0,0,0,.8.242,1.792,1.792,0,0,0,.47-.064.763.763,0,0,0,.356-.242.636.636,0,0,0,.146-.445.676.676,0,0,0-.038-.2.925.925,0,0,0-.084-.159.407.407,0,0,0-.14-.134,1.033,1.033,0,0,0-.168-.108,1.448,1.448,0,0,0-.223-.089l-.235-.084-.274-.076-.28-.084a5,5,0,0,1-.509-.178,2.123,2.123,0,0,1-.413-.235.947.947,0,0,1-.318-.388,1.213,1.213,0,0,1-.108-.547,1.272,1.272,0,0,1,.235-.776,1.335,1.335,0,0,1,.636-.464,2.417,2.417,0,0,1,.865-.14,2.136,2.136,0,0,1,1.189.318,1.335,1.335,0,0,1,.588.954l-.706.178a.924.924,0,0,0-.369-.636,1.183,1.183,0,0,0-.7-.21,1.2,1.2,0,0,0-.635.168.579.579,0,0,0-.274.528.484.484,0,0,0,.07.267.681.681,0,0,0,.146.191.82.82,0,0,0,.267.153l.286.1.363.089h.07c.2.044.349.089.47.127a3.923,3.923,0,0,1,.426.178,1.388,1.388,0,0,1,.375.267,1.126,1.126,0,0,1,.242.381,1.361,1.361,0,0,1,.1.521,1.469,1.469,0,0,1-.146.636,1.272,1.272,0,0,1-.4.452,1.91,1.91,0,0,1-.573.242A2.6,2.6,0,0,1,360.022,178.67Z" transform="translate(-333.63 -158.736)"/>
      <path id="Trazado_102843" data-name="Trazado 102843" d="M367.225,177.691a1.272,1.272,0,0,1-.954-.35,1.336,1.336,0,0,1-.343-.973v-2.874h-1v-.687h.363a.7.7,0,0,0,.541-.168.82.82,0,0,0,.159-.573v-.887h.8v1.628h1.119v.687h-1.119v2.785a.719.719,0,0,0,.185.534.636.636,0,0,0,.489.191h.445v.687Z" transform="translate(-336.127 -157.853)"/>
      <path id="Trazado_102844" data-name="Trazado 102844" d="M373.3,178.663a2.543,2.543,0,0,1-1.272-.306,2.149,2.149,0,0,1-.884-.884,2.726,2.726,0,0,1-.324-1.348,2.492,2.492,0,0,1,.693-1.847,2.6,2.6,0,0,1,3.535,0,2.544,2.544,0,0,1,.687,1.847,2.486,2.486,0,0,1-.694,1.847,2.372,2.372,0,0,1-1.742.693Zm0-.712a1.5,1.5,0,0,0,1.151-.5,2.1,2.1,0,0,0,0-2.639,1.481,1.481,0,0,0-1.151-.5,1.456,1.456,0,0,0-1.144.5,2.13,2.13,0,0,0,0,2.639,1.482,1.482,0,0,0,1.138.5Z" transform="translate(-338.271 -158.731)"/>
      <path id="Trazado_102845" data-name="Trazado 102845" d="M323.114,196.652a3.771,3.771,0,0,1-1.379-.252,3.572,3.572,0,0,1-1.107-.706,3.177,3.177,0,0,1-.731-1.138,4.074,4.074,0,0,1-.267-1.507,4.03,4.03,0,0,1,.267-1.494,3.234,3.234,0,0,1,.737-1.138,3.363,3.363,0,0,1,1.1-.706,3.771,3.771,0,0,1,1.379-.252,3.526,3.526,0,0,1,1.856.5,3.065,3.065,0,0,1,1.253,1.367l-.82.336a2.359,2.359,0,0,0-.916-1,2.62,2.62,0,0,0-1.354-.349,2.842,2.842,0,0,0-1.023.185,2.422,2.422,0,0,0-.82.528,2.351,2.351,0,0,0-.553.865,3.18,3.18,0,0,0-.2,1.157,3.25,3.25,0,0,0,.2,1.17,2.351,2.351,0,0,0,.553.865,2.422,2.422,0,0,0,.82.528,2.715,2.715,0,0,0,1.023.185,2.62,2.62,0,0,0,1.354-.35,2.308,2.308,0,0,0,.916-.992l.82.336a3.052,3.052,0,0,1-1.272,1.367,3.593,3.593,0,0,1-1.836.5Z" transform="translate(-319.63 -164.512)"/>
      <path id="Trazado_102846" data-name="Trazado 102846" d="M332.933,197.873a1.672,1.672,0,0,1-1.075-.336,1.2,1.2,0,0,1-.42-1,1.45,1.45,0,0,1,.133-.636,1.107,1.107,0,0,1,.4-.439,2.173,2.173,0,0,1,.573-.28,6.452,6.452,0,0,1,.744-.178l.788-.128c.286-.051.432-.2.432-.452a.845.845,0,0,0-.306-.725,1.221,1.221,0,0,0-.769-.235,1.272,1.272,0,0,0-.769.222.961.961,0,0,0-.363.687l-.776-.168a1.526,1.526,0,0,1,.636-1.043,2.289,2.289,0,0,1,1.335-.35,2.715,2.715,0,0,1,.706.089,1.793,1.793,0,0,1,.588.274,1.19,1.19,0,0,1,.42.521,1.967,1.967,0,0,1,.153.808v2.015a.82.82,0,0,0,.114.509.477.477,0,0,0,.381.133h.084v.636h-.424c-.528,0-.84-.216-.929-.636h-.038a1.847,1.847,0,0,1-1.621.706Zm.2-.693a1.3,1.3,0,0,0,1.049-.477,1.959,1.959,0,0,0,.394-1.272l-1.272.252a1.7,1.7,0,0,0-.756.274.712.712,0,0,0,0,1.068.986.986,0,0,0,.584.154Z" transform="translate(-323.93 -165.733)"/>
      <path id="Trazado_102847" data-name="Trazado 102847" d="M340.4,196.25v-7.63h.865v7.63Z" transform="translate(-327.194 -164.204)"/>
      <path id="Trazado_102848" data-name="Trazado 102848" d="M344.869,190.479a.553.553,0,0,1-.407-.168.566.566,0,0,1-.168-.413.554.554,0,0,1,.168-.407.573.573,0,0,1,.407-.168.588.588,0,0,1,.407.168.553.553,0,0,1,.168.407.588.588,0,0,1-.579.588Zm-.438,6.027v-4.883h.865v4.883Z" transform="translate(-328.611 -164.46)"/>
      <path id="Trazado_102849" data-name="Trazado 102849" d="M352.008,188.62h.865v7.63h-.833V195.3a1.847,1.847,0,0,1-.693.769,1.94,1.94,0,0,1-1.036.286,2.2,2.2,0,0,1-.884-.185,2.079,2.079,0,0,1-.725-.509,2.285,2.285,0,0,1-.5-.808,2.918,2.918,0,0,1-.178-1.043,2.543,2.543,0,0,1,.635-1.838,2.149,2.149,0,0,1,1.621-.706,1.965,1.965,0,0,1,1.023.28,1.818,1.818,0,0,1,.693.744Zm-1.539,6.994a1.488,1.488,0,0,0,1.138-.509,1.869,1.869,0,0,0,.458-1.272,1.847,1.847,0,0,0-.464-1.272,1.449,1.449,0,0,0-1.132-.515,1.488,1.488,0,0,0-1.138.5,1.838,1.838,0,0,0-.464,1.272,1.813,1.813,0,0,0,.464,1.272,1.488,1.488,0,0,0,1.138.521Z" transform="translate(-329.97 -164.204)"/>
      <path id="Trazado_102850" data-name="Trazado 102850" d="M360.209,197.863a2.544,2.544,0,0,1-1.272-.306,2.23,2.23,0,0,1-.884-.884,2.727,2.727,0,0,1-.324-1.348,2.543,2.543,0,0,1,.693-1.847,2.6,2.6,0,0,1,3.535,0,2.8,2.8,0,0,1,0,3.687,2.4,2.4,0,0,1-1.749.7Zm0-.712a1.511,1.511,0,0,0,1.157-.5,2.13,2.13,0,0,0,0-2.639,1.494,1.494,0,0,0-1.157-.5,1.475,1.475,0,0,0-1.144.5,2.155,2.155,0,0,0,0,2.639,1.5,1.5,0,0,0,1.138.5Z" transform="translate(-333.504 -165.722)"/>
      <path id="Trazado_102851" data-name="Trazado 102851" d="M323.114,215.884a3.771,3.771,0,0,1-1.379-.252,3.575,3.575,0,0,1-1.107-.706,3.18,3.18,0,0,1-.731-1.138,4.348,4.348,0,0,1,0-3,3.236,3.236,0,0,1,.737-1.138,3.178,3.178,0,0,1,1.1-.7,3.649,3.649,0,0,1,1.379-.252,3.526,3.526,0,0,1,1.856.5,3.064,3.064,0,0,1,1.253,1.348l-.82.336a2.359,2.359,0,0,0-.916-1,2.619,2.619,0,0,0-1.354-.35,2.842,2.842,0,0,0-1.023.185,2.424,2.424,0,0,0-.82.528,2.351,2.351,0,0,0-.553.865,3.179,3.179,0,0,0-.2,1.164,3.235,3.235,0,0,0,.2,1.164,2.351,2.351,0,0,0,.553.865,2.423,2.423,0,0,0,.82.528,2.715,2.715,0,0,0,1.023.191,2.625,2.625,0,0,0,1.354-.356,2.327,2.327,0,0,0,.916-.986l.82.331a3.052,3.052,0,0,1-1.272,1.367A3.592,3.592,0,0,1,323.114,215.884Z" transform="translate(-319.63 -171.516)"/>
      <path id="Trazado_102852" data-name="Trazado 102852" d="M333.826,217.093a2.543,2.543,0,0,1-1.272-.3,2.149,2.149,0,0,1-.884-.884,2.728,2.728,0,0,1-.324-1.348,2.493,2.493,0,0,1,.693-1.847,2.6,2.6,0,0,1,3.535,0,2.543,2.543,0,0,1,.687,1.847,2.486,2.486,0,0,1-.693,1.847,2.372,2.372,0,0,1-1.741.689Zm0-.712a1.526,1.526,0,0,0,1.157-.5,1.907,1.907,0,0,0,.458-1.322,1.863,1.863,0,0,0-.458-1.316,1.5,1.5,0,0,0-1.157-.5,1.468,1.468,0,0,0-1.144.5,1.863,1.863,0,0,0-.458,1.316,1.907,1.907,0,0,0,.458,1.322,1.488,1.488,0,0,0,1.138.484Z" transform="translate(-323.896 -172.726)"/>
      <path id="Trazado_102853" data-name="Trazado 102853" d="M343.538,212a1.71,1.71,0,0,1,1.227.445,1.653,1.653,0,0,1,.458,1.272V217h-.858v-3.1a1.17,1.17,0,0,0-.3-.877,1.05,1.05,0,0,0-.763-.28,1.189,1.189,0,0,0-.871.331,1.392,1.392,0,0,0-.343,1V217h-.858v-4.883h.858v.636a1.628,1.628,0,0,1,1.45-.751Z" transform="translate(-327.497 -172.718)"/>
      <path id="Trazado_102854" data-name="Trazado 102854" d="M351.956,208.578h-.369a.829.829,0,0,0-.178,0l-.153.051a.357.357,0,0,0-.146.084,1.207,1.207,0,0,0-.114.127.438.438,0,0,0-.1.178,1.125,1.125,0,0,0-.057.242,2.137,2.137,0,0,0,0,.306v1.007h1.138v.687h-1.135v4.2h-.852v-4.2H349v-.687h.941v-1.028a3.013,3.013,0,0,1,.051-.566,2.163,2.163,0,0,1,.14-.432.986.986,0,0,1,.229-.3,1.576,1.576,0,0,1,.306-.216,1.323,1.323,0,0,1,.369-.121,3.2,3.2,0,0,1,.42-.064h.477Z" transform="translate(-330.326 -171.204)"/>
      <path id="Trazado_102855" data-name="Trazado 102855" d="M356.943,217.082a2.543,2.543,0,0,1-1.272-.306,2.187,2.187,0,0,1-.858-.9,2.728,2.728,0,0,1-.324-1.348,2.493,2.493,0,0,1,.693-1.847,2.6,2.6,0,0,1,3.535,0,2.8,2.8,0,0,1,0,3.687,2.4,2.4,0,0,1-1.775.715Zm0-.712a1.526,1.526,0,0,0,1.157-.5,1.908,1.908,0,0,0,.458-1.322,1.863,1.863,0,0,0-.458-1.316,1.5,1.5,0,0,0-1.157-.5,1.475,1.475,0,0,0-1.144.5,1.863,1.863,0,0,0-.452,1.316,1.908,1.908,0,0,0,.452,1.322,1.5,1.5,0,0,0,1.138.484Z" transform="translate(-332.324 -172.715)"/>
      <path id="Trazado_102856" data-name="Trazado 102856" d="M365.184,212.98a1.511,1.511,0,0,1,.635-.636,1.806,1.806,0,0,1,.934-.252v.808a1.6,1.6,0,0,0-1.132.363,1.511,1.511,0,0,0-.394,1.157v2.6h-.858V212.14h.84Z" transform="translate(-335.923 -172.752)"/>
      <path id="Trazado_102857" data-name="Trazado 102857" d="M371.267,216.091a1.272,1.272,0,0,1-.954-.35,1.315,1.315,0,0,1-.35-.973v-2.874H369v-.687h.369a.719.719,0,0,0,.541-.168.859.859,0,0,0,.153-.573v-.887h.8v1.628h1.125v.687h-1.125v2.785a.744.744,0,0,0,.185.534.636.636,0,0,0,.49.191h.452v.687Z" transform="translate(-337.61 -171.838)"/>
      <path id="Trazado_102858" data-name="Trazado 102858" d="M376.423,217.1a1.646,1.646,0,0,1-1.075-.336,1.2,1.2,0,0,1-.42-1,1.323,1.323,0,0,1,.14-.636,1.061,1.061,0,0,1,.394-.445,2.392,2.392,0,0,1,.573-.28,5.423,5.423,0,0,1,.744-.168l.788-.133c.292-.051.432-.2.432-.452a.845.845,0,0,0-.306-.725,1.208,1.208,0,0,0-.769-.235,1.272,1.272,0,0,0-.769.229.935.935,0,0,0-.363.68l-.769-.159a1.482,1.482,0,0,1,.636-1.049,2.251,2.251,0,0,1,1.329-.349,2.678,2.678,0,0,1,.706.089,1.794,1.794,0,0,1,.588.274,1.2,1.2,0,0,1,.426.521,1.965,1.965,0,0,1,.153.808v2.015a.826.826,0,0,0,.108.509.483.483,0,0,0,.388.133h.064v.636H379a.808.808,0,0,1-.924-.636h-.045a1.863,1.863,0,0,1-1.609.712Zm.2-.693a1.316,1.316,0,0,0,1.049-.47,1.952,1.952,0,0,0,.395-1.272l-1.272.252a1.818,1.818,0,0,0-.756.274.705.705,0,0,0-.007,1.068.953.953,0,0,0,.588.134Z" transform="translate(-339.767 -172.733)"/>
      <path id="Trazado_102859" data-name="Trazado 102859" d="M386.529,210.481a2.137,2.137,0,0,1,1.615.706,2.886,2.886,0,0,1,0,3.675,2.1,2.1,0,0,1-1.615.706,1.946,1.946,0,0,1-1.043-.286,1.819,1.819,0,0,1-.7-.769v.947h-.826v-7.63h.852v3.682a1.767,1.767,0,0,1,.7-.751A1.953,1.953,0,0,1,386.529,210.481Zm-.191,4.342a1.52,1.52,0,0,0,1.144-.5,2.073,2.073,0,0,0,0-2.6,1.511,1.511,0,0,0-1.144-.5,1.463,1.463,0,0,0-1.132.515,2.009,2.009,0,0,0,0,2.543,1.45,1.45,0,0,0,1.107.534Z" transform="translate(-343.058 -171.2)"/>
      <path id="Trazado_102860" data-name="Trazado 102860" d="M393.66,215.45v-7.63h.852v7.63Z" transform="translate(-346.59 -171.197)"/>
      <path id="Trazado_102861" data-name="Trazado 102861" d="M401.849,214.446v.235h-3.815a1.71,1.71,0,0,0,.47,1.272,1.511,1.511,0,0,0,1.112.439,1.475,1.475,0,0,0,1.361-.884l.776.168a2.169,2.169,0,0,1-.833,1.049,2.282,2.282,0,0,1-1.272.381,2.359,2.359,0,0,1-1.755-.68,2.887,2.887,0,0,1,0-3.707,2.308,2.308,0,0,1,1.729-.687,2.187,2.187,0,0,1,1.641.636A2.48,2.48,0,0,1,401.849,214.446Zm-2.267-1.78a1.511,1.511,0,0,0-1.018.349,1.608,1.608,0,0,0-.509,1.007h2.926a1.456,1.456,0,0,0-.426-1.008,1.374,1.374,0,0,0-.973-.369Z" transform="translate(-347.887 -172.73)"/>
      <path id="Trazado_102862" data-name="Trazado 102862" d="M325.1,228h.884v6.994h-.941l-3.771-5.659v5.659H320.4V228h.929l3.773,5.634Z" transform="translate(-319.91 -178.546)"/>
      <path id="Trazado_102863" data-name="Trazado 102863" d="M336.238,233.616v.235h-3.815a1.71,1.71,0,0,0,.47,1.272,1.525,1.525,0,0,0,1.112.439,1.475,1.475,0,0,0,1.361-.884l.776.168a2.169,2.169,0,0,1-.833,1.049,2.283,2.283,0,0,1-1.272.381,2.359,2.359,0,0,1-1.755-.68,2.893,2.893,0,0,1,0-3.713,2.34,2.34,0,0,1,1.729-.68,2.207,2.207,0,0,1,1.646.636,2.493,2.493,0,0,1,.579,1.777Zm-2.267-1.78a1.494,1.494,0,0,0-1.008.35,1.583,1.583,0,0,0-.515,1.007h2.925a1.456,1.456,0,0,0-.426-1.007,1.373,1.373,0,0,0-.973-.331Z" transform="translate(-323.993 -179.711)"/>
      <path id="Trazado_102864" data-name="Trazado 102864" d="M344,231.325h.858v4.87h-.827v-.636a1.565,1.565,0,0,1-.6.547,1.908,1.908,0,0,1-.858.191,1.7,1.7,0,0,1-1.227-.439,1.666,1.666,0,0,1-.458-1.272V231.3h.858v3.1a1.164,1.164,0,0,0,.3.871,1.055,1.055,0,0,0,.769.292,1.175,1.175,0,0,0,.865-.336,1.405,1.405,0,0,0,.343-1Z" transform="translate(-327.37 -179.748)"/>
      <path id="Trazado_102865" data-name="Trazado 102865" d="M351.021,235.271a1.272,1.272,0,0,1-.954-.35,1.343,1.343,0,0,1-.35-.973v-2.874h-1v-.685h.369a.705.705,0,0,0,.541-.168.852.852,0,0,0,.159-.573v-.888h.8v1.629h1.125v.687h-1.125v2.785a.725.725,0,0,0,.191.534.636.636,0,0,0,.489.191h.445v.687Z" transform="translate(-330.224 -178.823)"/>
      <path id="Trazado_102866" data-name="Trazado 102866" d="M356.224,232.18a1.468,1.468,0,0,1,.636-.636,1.806,1.806,0,0,1,.934-.252v.808a1.6,1.6,0,0,0-1.132.363,1.511,1.511,0,0,0-.395,1.157V236.2h-.857v-4.883h.84Z" transform="translate(-332.66 -179.745)"/>
      <path id="Trazado_102867" data-name="Trazado 102867" d="M361.533,236.269a1.685,1.685,0,0,1-1.075-.336,1.2,1.2,0,0,1-.42-1,1.4,1.4,0,0,1,.134-.636,1.125,1.125,0,0,1,.4-.445,2.392,2.392,0,0,1,.573-.28,6.445,6.445,0,0,1,.744-.178l.788-.127c.292-.051.432-.2.432-.452a.845.845,0,0,0-.306-.725,1.208,1.208,0,0,0-.769-.235,1.31,1.31,0,0,0-.769.222.959.959,0,0,0-.363.687l-.776-.168a1.511,1.511,0,0,1,.636-1.043,2.251,2.251,0,0,1,1.329-.35,2.677,2.677,0,0,1,.706.089,1.793,1.793,0,0,1,.588.274,1.2,1.2,0,0,1,.426.521,2.079,2.079,0,0,1,.146.808v1.99a.82.82,0,0,0,.114.509.483.483,0,0,0,.388.133h.076v.636h-.426a.808.808,0,0,1-.924-.636h-.045a1.847,1.847,0,0,1-1.615.737Zm.2-.693a1.3,1.3,0,0,0,1.049-.477,1.958,1.958,0,0,0,.395-1.272l-1.272.252a1.735,1.735,0,0,0-.756.274.705.705,0,0,0-.007,1.068.954.954,0,0,0,.59.156Z" transform="translate(-334.344 -179.713)"/>
      <path id="Trazado_102868" data-name="Trazado 102868" d="M369,234.63V227h.865v7.63Z" transform="translate(-337.61 -178.182)"/>
    </g>
    <g id="Grupo_57727" data-name="Grupo 57727" transform="translate(203.545 74.12)">
      <path id="Trazado_102869" data-name="Trazado 102869" d="M323.118,117.108a2.168,2.168,0,0,1,1.653.636,2.346,2.346,0,0,1,.635,1.653,2.232,2.232,0,0,1-.635,1.641,2.183,2.183,0,0,1-1.653.636h-1.5v2.543H320.13v-7.109Zm-.252,3.358a1.068,1.068,0,0,0,.82-.28,1.049,1.049,0,0,0,.274-.776,1.068,1.068,0,0,0-.274-.769,1.091,1.091,0,0,0-.82-.286h-1.272v2.111Z" transform="translate(-320.13 -116.768)"/>
      <path id="Trazado_102870" data-name="Trazado 102870" d="M331.947,125.537a3.274,3.274,0,0,1-1.443-.311,2.351,2.351,0,0,1-.992-.924,2.707,2.707,0,0,1-.363-1.427,2.543,2.543,0,0,1,.776-1.908,3.237,3.237,0,0,1,4.05,0,2.824,2.824,0,0,1,0,3.885,2.874,2.874,0,0,1-2.028.685Zm0-1.138a1.316,1.316,0,0,0,1.007-.42,1.552,1.552,0,0,0,.381-1.1,1.583,1.583,0,0,0-.381-1.107,1.335,1.335,0,0,0-1.007-.413,1.271,1.271,0,0,0-.979.42,1.774,1.774,0,0,0,0,2.2,1.272,1.272,0,0,0,.966.42Z" transform="translate(-323.415 -117.916)"/>
      <path id="Trazado_102871" data-name="Trazado 102871" d="M341.189,125.519a2.906,2.906,0,0,1-1.494-.356,1.526,1.526,0,0,1-.725-1.068l1.2-.336a.96.96,0,0,0,1.023.763,1.007,1.007,0,0,0,.521-.121.4.4,0,0,0,.2-.395.439.439,0,0,0-.084-.261.712.712,0,0,0-.26-.191l-.35-.133-.458-.133a4.737,4.737,0,0,1-.47-.146,3.02,3.02,0,0,1-.452-.191,1.7,1.7,0,0,1-.369-.26,1.06,1.06,0,0,1-.28-.4,1.469,1.469,0,0,1-.1-.547,1.31,1.31,0,0,1,.553-1.144,2.505,2.505,0,0,1,1.45-.388,2.543,2.543,0,0,1,1.335.331,1.475,1.475,0,0,1,.687,1.023l-1.112.252a.858.858,0,0,0-.9-.636,1.049,1.049,0,0,0-.5.114.375.375,0,0,0-.2.343.405.405,0,0,0,0,.153.305.305,0,0,0,.1.121l.146.1a.944.944,0,0,0,.2.084,1.835,1.835,0,0,0,.222.064l.26.07.267.07a4.451,4.451,0,0,1,.484.146,3.358,3.358,0,0,1,.439.21,1.692,1.692,0,0,1,.381.3,1.456,1.456,0,0,1,.252.426,1.575,1.575,0,0,1,.1.566,1.52,1.52,0,0,1-.168.737,1.271,1.271,0,0,1-.47.5,2.256,2.256,0,0,1-.636.267A3.459,3.459,0,0,1,341.189,125.519Z" transform="translate(-326.991 -117.898)"/>
      <path id="Trazado_102872" data-name="Trazado 102872" d="M348.052,118.226a.827.827,0,1,1,.757-.824.819.819,0,0,1-.757.824Zm-.731,5.869v-5.087h1.443v5.087Z" transform="translate(-329.996 -116.576)"/>
      <path id="Trazado_102873" data-name="Trazado 102873" d="M353.529,124.534a1.532,1.532,0,0,1-1.157-.413,1.628,1.628,0,0,1-.407-1.183v-2.41h-1.007v-1.1h.324a.82.82,0,0,0,.636-.216,1.068,1.068,0,0,0,.2-.756v-.672h1.272v1.646h1.055v1.1h-1.055v2.257c0,.445.2.636.588.636h.464v1.091Z" transform="translate(-331.357 -117.014)"/>
      <path id="Trazado_102874" data-name="Trazado 102874" d="M358.865,118.226a.8.8,0,0,1-.588-.242.776.776,0,0,1-.242-.588.8.8,0,0,1,.242-.578.82.82,0,0,1,.588-.242.808.808,0,0,1,.579.242.82.82,0,0,1,0,1.164.808.808,0,0,1-.578.244Zm-.731,5.869v-5.086h1.443v5.086Z" transform="translate(-333.935 -116.576)"/>
      <path id="Trazado_102875" data-name="Trazado 102875" d="M365.662,120.37h1.52L365,125.456h-1.269l-2.149-5.086h1.539l1.272,3.491Z" transform="translate(-335.226 -117.957)"/>
      <path id="Trazado_102876" data-name="Trazado 102876" d="M373.4,125.536a3.287,3.287,0,0,1-1.45-.311,2.3,2.3,0,0,1-.986-.924,2.709,2.709,0,0,1-.363-1.427,2.486,2.486,0,0,1,.776-1.908,3.224,3.224,0,0,1,4.044,0,2.823,2.823,0,0,1,0,3.885A2.855,2.855,0,0,1,373.4,125.536Zm0-1.138a1.271,1.271,0,0,0,1.008-.42,1.532,1.532,0,0,0,.388-1.1,1.557,1.557,0,0,0-.388-1.107,1.316,1.316,0,0,0-1.008-.407,1.272,1.272,0,0,0-.979.42,1.774,1.774,0,0,0,0,2.2,1.272,1.272,0,0,0,.979.415Z" transform="translate(-338.509 -117.916)"/>
    </g>
    <g id="Grupo_57728" data-name="Grupo 57728" transform="translate(274.858 95.513)">
      <path id="Trazado_102877" data-name="Trazado 102877" d="M437.6,158.214l-.6-1.672h-3.179l-.6,1.672H432.3l2.582-6.994h1.062l2.575,6.994Zm-3.478-2.454h2.6l-1.3-3.643Z" transform="translate(-432.293 -150.584)"/>
      <path id="Trazado_102878" data-name="Trazado 102878" d="M446.543,152.871a2.137,2.137,0,0,1,1.615.706,2.887,2.887,0,0,1,0,3.675,2.1,2.1,0,0,1-1.615.706,1.946,1.946,0,0,1-1.043-.286,1.818,1.818,0,0,1-.7-.769v.947H444v-7.63h.852V153.9a1.807,1.807,0,0,1,.7-.751A1.951,1.951,0,0,1,446.543,152.871Zm-.191,4.336a1.511,1.511,0,0,0,1.144-.5,1.837,1.837,0,0,0,.458-1.272,1.863,1.863,0,0,0-.458-1.272,1.511,1.511,0,0,0-1.144-.5,1.462,1.462,0,0,0-1.132.515,2.009,2.009,0,0,0,0,2.543,1.468,1.468,0,0,0,1.144.477Z" transform="translate(-436.555 -150.22)"/>
      <path id="Trazado_102879" data-name="Trazado 102879" d="M456.7,154.533h.858v4.883h-.82v-.636a1.539,1.539,0,0,1-.636.547,1.847,1.847,0,0,1-.852.191,1.7,1.7,0,0,1-1.227-.438,1.647,1.647,0,0,1-.464-1.272V154.52h.858v3.1a1.144,1.144,0,0,0,.306.871,1.03,1.03,0,0,0,.763.292,1.182,1.182,0,0,0,.871-.336,1.374,1.374,0,0,0,.336-1Z" transform="translate(-440.033 -151.786)"/>
      <path id="Trazado_102880" data-name="Trazado 102880" d="M463.44,155.38a1.512,1.512,0,0,1,.636-.636,1.806,1.806,0,0,1,.934-.252v.808a1.6,1.6,0,0,0-1.132.363,1.511,1.511,0,0,0-.388,1.157v2.6h-.89V154.54h.84Z" transform="translate(-443.328 -151.775)"/>
      <path id="Trazado_102881" data-name="Trazado 102881" d="M468.78,155.38a1.488,1.488,0,0,1,.6-.636,1.847,1.847,0,0,1,.941-.252v.808a1.621,1.621,0,0,0-1.138.363,1.538,1.538,0,0,0-.388,1.157v2.6h-.858V154.54h.84Z" transform="translate(-445.273 -151.775)"/>
      <path id="Trazado_102882" data-name="Trazado 102882" d="M473.669,152.08a.553.553,0,0,1-.407-.168.566.566,0,0,1-.168-.413.554.554,0,0,1,.168-.407.588.588,0,0,1,.814,0,.553.553,0,0,1,.168.407.566.566,0,0,1-.168.413.553.553,0,0,1-.407.168Zm-.432,6.027v-4.883h.858v4.883Z" transform="translate(-447.149 -150.476)"/>
      <path id="Trazado_102883" data-name="Trazado 102883" d="M480.774,150.22h.858v7.63H480.8V156.9a1.8,1.8,0,0,1-.693.769,1.939,1.939,0,0,1-1.036.286,2.2,2.2,0,0,1-.884-.185,2.142,2.142,0,0,1-.725-.509,2.267,2.267,0,0,1-.489-.808,2.792,2.792,0,0,1-.185-1.043,2.588,2.588,0,0,1,.636-1.838,2.149,2.149,0,0,1,1.621-.706,1.945,1.945,0,0,1,1.023.28,1.831,1.831,0,0,1,.7.744Zm-1.545,6.994a1.482,1.482,0,0,0,1.138-.509,2.028,2.028,0,0,0,0-2.543,1.534,1.534,0,0,0-2.276-.019,1.838,1.838,0,0,0-.464,1.272,1.813,1.813,0,0,0,.464,1.272,1.488,1.488,0,0,0,1.138.521Z" transform="translate(-448.494 -150.22)"/>
      <path id="Trazado_102884" data-name="Trazado 102884" d="M488.968,159.464a2.544,2.544,0,0,1-1.272-.3,2.174,2.174,0,0,1-.884-.884,2.728,2.728,0,0,1-.324-1.348,2.493,2.493,0,0,1,.693-1.847,2.594,2.594,0,0,1,3.526,0,2.8,2.8,0,0,1,0,3.687A2.384,2.384,0,0,1,488.968,159.464Zm0-.712a1.511,1.511,0,0,0,1.157-.5,1.908,1.908,0,0,0,.458-1.322,1.863,1.863,0,0,0-.458-1.316,1.494,1.494,0,0,0-1.157-.5,1.475,1.475,0,0,0-1.144.5,2.154,2.154,0,0,0,0,2.639,1.5,1.5,0,0,0,1.138.5Z" transform="translate(-452.027 -151.738)"/>
      <path id="Trazado_102885" data-name="Trazado 102885" d="M436.232,170.42a2.06,2.06,0,0,1,1.1.292,1.953,1.953,0,0,1,.731.776,2.283,2.283,0,0,1,.261,1.081,2.136,2.136,0,0,1-.578,1.52,1.99,1.99,0,0,1-1.511.636H434.49v2.715h-.89v-6.994Zm-.127,3.5a1.272,1.272,0,0,0,.973-.375,1.551,1.551,0,0,0,0-1.977,1.272,1.272,0,0,0-.973-.381H434.49v2.734Z" transform="translate(-432.767 -157.576)"/>
      <path id="Trazado_102886" data-name="Trazado 102886" d="M446.508,176.053v.235h-3.815a1.71,1.71,0,0,0,.47,1.272,1.525,1.525,0,0,0,1.112.439,1.482,1.482,0,0,0,.808-.235,1.551,1.551,0,0,0,.559-.636l.769.168a2.168,2.168,0,0,1-.833,1.049,2.283,2.283,0,0,1-1.272.381,2.359,2.359,0,0,1-1.755-.68,2.893,2.893,0,0,1,0-3.713,2.34,2.34,0,0,1,1.73-.68,2.206,2.206,0,0,1,1.646.636,2.5,2.5,0,0,1,.58,1.764Zm-2.267-1.78a1.494,1.494,0,0,0-1.008.349,1.584,1.584,0,0,0-.516,1.007h2.925a1.456,1.456,0,0,0-.426-1.008,1.373,1.373,0,0,0-.971-.35Z" transform="translate(-435.782 -158.752)"/>
      <path id="Trazado_102887" data-name="Trazado 102887" d="M452.589,178.67a2.339,2.339,0,0,1-1.322-.35,1.462,1.462,0,0,1-.636-1.007l.751-.216a1.029,1.029,0,0,0,.4.68,1.271,1.271,0,0,0,.8.242,1.831,1.831,0,0,0,.47-.064.762.762,0,0,0,.356-.242.635.635,0,0,0,.146-.445.962.962,0,0,0-.038-.2.747.747,0,0,0-.084-.159.407.407,0,0,0-.14-.133l-.168-.108-.223-.089-.235-.084-.274-.076-.286-.084a4.812,4.812,0,0,1-.5-.178,2.125,2.125,0,0,1-.413-.235.96.96,0,0,1-.324-.388,1.31,1.31,0,0,1-.1-.547,1.272,1.272,0,0,1,.235-.776,1.354,1.354,0,0,1,.636-.464,2.48,2.48,0,0,1,.871-.14,2.136,2.136,0,0,1,1.189.318,1.335,1.335,0,0,1,.588.954l-.706.178a.928.928,0,0,0-.369-.636,1.189,1.189,0,0,0-.706-.21,1.214,1.214,0,0,0-.636.168.588.588,0,0,0-.274.528.484.484,0,0,0,.076.267.681.681,0,0,0,.146.191.955.955,0,0,0,.267.153l.286.1.356.089h.076c.191.044.35.089.47.127a3.412,3.412,0,0,1,.42.178,1.334,1.334,0,0,1,.381.267,1.226,1.226,0,0,1,.242.381,1.361,1.361,0,0,1,.095.521,1.386,1.386,0,0,1-.146.636,1.145,1.145,0,0,1-.4.452,1.811,1.811,0,0,1-.566.242,2.6,2.6,0,0,1-.709.162Z" transform="translate(-438.969 -158.736)"/>
      <path id="Trazado_102888" data-name="Trazado 102888" d="M459.576,178.674a1.628,1.628,0,0,1-1.068-.336,1.2,1.2,0,0,1-.42-1,1.4,1.4,0,0,1,.133-.636,1.106,1.106,0,0,1,.395-.445,2.322,2.322,0,0,1,.578-.28,5.083,5.083,0,0,1,.738-.168l.8-.133c.286-.051.432-.2.432-.452a.845.845,0,0,0-.3-.725,1.393,1.393,0,0,0-1.539,0,.9.9,0,0,0-.363.68l-.776-.159a1.481,1.481,0,0,1,.636-1.049,2.267,2.267,0,0,1,1.329-.35,2.766,2.766,0,0,1,.712.089,1.907,1.907,0,0,1,.588.274,1.233,1.233,0,0,1,.42.521,1.966,1.966,0,0,1,.153.808v2.015a.871.871,0,0,0,.108.509.484.484,0,0,0,.388.133h.076v.636h-.426a.808.808,0,0,1-.923-.636h-.032a1.856,1.856,0,0,1-1.634.706Zm.2-.693a1.272,1.272,0,0,0,1.049-.47,1.952,1.952,0,0,0,.4-1.272l-1.272.252a1.672,1.672,0,0,0-.756.274.711.711,0,0,0-.013,1.068.979.979,0,0,0,.594.149Z" transform="translate(-441.684 -158.741)"/>
      <path id="Trazado_102889" data-name="Trazado 102889" d="M470.274,169.42h.858v7.63H470.3V176.1a1.8,1.8,0,0,1-.693.769,1.94,1.94,0,0,1-1.036.286,2.2,2.2,0,0,1-.884-.185,2.141,2.141,0,0,1-.725-.509,2.3,2.3,0,0,1-.489-.8,2.855,2.855,0,0,1-.185-1.049,2.588,2.588,0,0,1,.636-1.838,2.149,2.149,0,0,1,1.621-.706,1.945,1.945,0,0,1,1.023.28,1.831,1.831,0,0,1,.7.744Zm-1.545,6.994a1.456,1.456,0,0,0,1.138-.509,2.028,2.028,0,0,0,0-2.543,1.534,1.534,0,0,0-2.276-.019,1.837,1.837,0,0,0-.464,1.3,1.812,1.812,0,0,0,.464,1.272,1.488,1.488,0,0,0,1.138.489Z" transform="translate(-444.67 -157.213)"/>
      <path id="Trazado_102890" data-name="Trazado 102890" d="M478.472,178.664a2.544,2.544,0,0,1-1.272-.3,2.175,2.175,0,0,1-.877-.884,2.728,2.728,0,0,1-.324-1.348,2.493,2.493,0,0,1,.693-1.847,2.594,2.594,0,0,1,3.526,0,2.8,2.8,0,0,1,0,3.687A2.384,2.384,0,0,1,478.472,178.664Zm0-.712a1.511,1.511,0,0,0,1.157-.5,1.908,1.908,0,0,0,.458-1.322,1.863,1.863,0,0,0-.458-1.316,1.494,1.494,0,0,0-1.157-.5,1.475,1.475,0,0,0-1.144.5,2.154,2.154,0,0,0,0,2.639,1.5,1.5,0,0,0,1.138.5Z" transform="translate(-448.207 -158.731)"/>
      <path id="Trazado_102891" data-name="Trazado 102891" d="M437.6,196.618l-.6-1.666h-3.179l-.6,1.672H432.3l2.582-6.994h1.062l2.575,6.994Zm-3.478-2.461h2.6l-1.3-3.656Z" transform="translate(-432.293 -164.572)"/>
      <path id="Trazado_102892" data-name="Trazado 102892" d="M446.267,192.789a1.723,1.723,0,0,1,1.233.445,1.653,1.653,0,0,1,.458,1.272v3.287h-.851v-3.1a1.164,1.164,0,0,0-.3-.871,1.062,1.062,0,0,0-.763-.286,1.183,1.183,0,0,0-.872.336,1.343,1.343,0,0,0-.343,1v2.918H444v-4.883h.858v.636a1.628,1.628,0,0,1,1.409-.755Z" transform="translate(-436.555 -165.722)"/>
      <path id="Trazado_102893" data-name="Trazado 102893" d="M453.971,196.884a1.271,1.271,0,0,1-.954-.35,1.343,1.343,0,0,1-.35-.973v-2.886h-1v-.685h.369a.706.706,0,0,0,.541-.168.852.852,0,0,0,.159-.573v-.888h.8v1.629h1.125v.687h-1.125v2.785a.725.725,0,0,0,.191.534.636.636,0,0,0,.489.191h.445v.687Z" transform="translate(-439.348 -164.839)"/>
      <path id="Trazado_102894" data-name="Trazado 102894" d="M458.669,190.479a.553.553,0,0,1-.407-.168.566.566,0,0,1-.168-.413.553.553,0,0,1,.168-.407.572.572,0,0,1,.407-.168.588.588,0,0,1,.407.168.553.553,0,0,1,.168.407.588.588,0,0,1-.579.588Zm-.439,6.027v-4.883h.865v4.883Z" transform="translate(-441.686 -164.46)"/>
      <path id="Trazado_102895" data-name="Trazado 102895" d="M464.22,197.856a2.334,2.334,0,0,1-1.749-.7,2.5,2.5,0,0,1-.693-1.831,2.473,2.473,0,0,1,.693-1.831,2.327,2.327,0,0,1,1.749-.706,2.365,2.365,0,0,1,1.411.432,2.117,2.117,0,0,1,.82,1.183l-.8.133a1.463,1.463,0,0,0-1.437-1.03,1.443,1.443,0,0,0-1.132.5,2.162,2.162,0,0,0,0,2.626,1.443,1.443,0,0,0,1.132.5,1.463,1.463,0,0,0,1.437-1.03l.8.133a2.111,2.111,0,0,1-.826,1.189,2.359,2.359,0,0,1-1.405.423Z" transform="translate(-443.028 -165.723)"/>
      <path id="Trazado_102896" data-name="Trazado 102896" d="M474.138,192.929H475v4.883h-.8v-.636a1.564,1.564,0,0,1-.6.547,1.907,1.907,0,0,1-.858.191,1.685,1.685,0,0,1-1.227-.445,1.641,1.641,0,0,1-.458-1.272V192.91h.858v3.1a1.164,1.164,0,0,0,.3.871,1.055,1.055,0,0,0,.769.292,1.17,1.17,0,0,0,.865-.336,1.405,1.405,0,0,0,.343-1Z" transform="translate(-446.404 -165.767)"/>
      <path id="Trazado_102897" data-name="Trazado 102897" d="M480.926,197.873a1.666,1.666,0,0,1-1.068-.336,1.2,1.2,0,0,1-.42-1,1.449,1.449,0,0,1,.133-.636,1.106,1.106,0,0,1,.4-.439,2.176,2.176,0,0,1,.573-.28,5.865,5.865,0,0,1,.744-.178l.788-.127c.286-.051.432-.2.432-.452a.845.845,0,0,0-.306-.725,1.227,1.227,0,0,0-.776-.235,1.271,1.271,0,0,0-.763.222.961.961,0,0,0-.363.687l-.776-.168a1.481,1.481,0,0,1,.636-1.043,2.267,2.267,0,0,1,1.329-.35,2.765,2.765,0,0,1,.712.089,1.907,1.907,0,0,1,.588.274,1.234,1.234,0,0,1,.42.521,1.966,1.966,0,0,1,.153.808v2.015a.82.82,0,0,0,.114.509.471.471,0,0,0,.381.133h.084v.636h-.432a.814.814,0,0,1-.924-.636h-.038A1.87,1.87,0,0,1,480.926,197.873Zm.2-.693a1.272,1.272,0,0,0,1.043-.477,1.907,1.907,0,0,0,.4-1.272l-1.272.252a1.672,1.672,0,0,0-.756.274.711.711,0,0,0-.013,1.068.986.986,0,0,0,.6.159Z" transform="translate(-449.46 -165.733)"/>
      <path id="Trazado_102898" data-name="Trazado 102898" d="M491.644,188.62h.858v7.63h-.8V195.3a1.8,1.8,0,0,1-.693.769,1.907,1.907,0,0,1-1.03.286,2.231,2.231,0,0,1-.89-.185,2.207,2.207,0,0,1-.725-.509,2.268,2.268,0,0,1-.489-.808,2.917,2.917,0,0,1-.185-1.043,2.587,2.587,0,0,1,.636-1.838,2.155,2.155,0,0,1,1.628-.706,1.945,1.945,0,0,1,1.018.28,1.83,1.83,0,0,1,.7.744Zm-1.539,6.994a1.475,1.475,0,0,0,1.132-.509,2.028,2.028,0,0,0,0-2.543,1.469,1.469,0,0,0-1.132-.515,1.494,1.494,0,0,0-1.144.5,2.054,2.054,0,0,0,0,2.6,1.494,1.494,0,0,0,1.144.464Z" transform="translate(-452.464 -164.204)"/>
      <path id="Trazado_102899" data-name="Trazado 102899" d="M499.818,197.863a2.543,2.543,0,0,1-1.272-.306,2.15,2.15,0,0,1-.884-.884,2.727,2.727,0,0,1-.324-1.348,2.486,2.486,0,0,1,.693-1.847,2.4,2.4,0,0,1,1.763-.693,2.422,2.422,0,0,1,1.774.693,2.81,2.81,0,0,1,0,3.687,2.378,2.378,0,0,1-1.749.693Zm0-.712a1.5,1.5,0,0,0,1.151-.5,1.907,1.907,0,0,0,.464-1.322,1.869,1.869,0,0,0-.464-1.316,1.481,1.481,0,0,0-1.151-.5,1.457,1.457,0,0,0-1.144.5,1.863,1.863,0,0,0-.458,1.316,1.908,1.908,0,0,0,.458,1.322A1.482,1.482,0,0,0,499.818,197.151Z" transform="translate(-455.978 -165.722)"/>
      <path id="Trazado_102900" data-name="Trazado 102900" d="M435.431,215.906a3.179,3.179,0,0,1-1.824-.5,2.085,2.085,0,0,1-.915-1.354l.9-.216a1.462,1.462,0,0,0,.636.954,2.111,2.111,0,0,0,1.24.35,2.149,2.149,0,0,0,.458-.045,1.907,1.907,0,0,0,.42-.127,1.511,1.511,0,0,0,.349-.229.871.871,0,0,0,.222-.343,1.207,1.207,0,0,0,.084-.464,1.091,1.091,0,0,0-.064-.331.924.924,0,0,0-.14-.261.769.769,0,0,0-.235-.21,2.081,2.081,0,0,0-.636-.311l-.375-.114-.4-.114h-.076l-.464-.127-.439-.153a2.862,2.862,0,0,1-.413-.191,3.149,3.149,0,0,1-.343-.242,1.269,1.269,0,0,1-.28-.312,1.812,1.812,0,0,1-.235-.89,1.781,1.781,0,0,1,.324-1.075,1.908,1.908,0,0,1,.84-.636,3.052,3.052,0,0,1,1.157-.21,3.179,3.179,0,0,1,1.685.432,1.907,1.907,0,0,1,.89,1.272l-.865.216a1.31,1.31,0,0,0-.588-.858,1.984,1.984,0,0,0-1.091-.292,2.133,2.133,0,0,0-.541.07,1.505,1.505,0,0,0-.464.2.974.974,0,0,0-.336.363,1.12,1.12,0,0,0-.121.534.774.774,0,0,0,.051.3.908.908,0,0,0,.121.235.942.942,0,0,0,.217.191,2.393,2.393,0,0,0,.261.159,3.326,3.326,0,0,0,.324.121l.35.114.381.1a8.2,8.2,0,0,1,1.348.445,1.71,1.71,0,0,1,1.036,1.272,2.308,2.308,0,0,1,0,.3,1.946,1.946,0,0,1-.2.9,1.7,1.7,0,0,1-.547.636,2.86,2.86,0,0,1-.788.349A3.655,3.655,0,0,1,435.431,215.906Z" transform="translate(-432.436 -171.539)"/>
      <path id="Trazado_102901" data-name="Trazado 102901" d="M446.158,212.133h.858v4.883H446.2v-.636a1.519,1.519,0,0,1-.6.547,1.864,1.864,0,0,1-.852.191,1.71,1.71,0,0,1-1.233-.439,1.665,1.665,0,0,1-.458-1.272V212.12h.858v3.106a1.164,1.164,0,0,0,.3.871,1.055,1.055,0,0,0,.769.292,1.17,1.17,0,0,0,.865-.336,1.373,1.373,0,0,0,.343-1Z" transform="translate(-436.207 -172.763)"/>
      <path id="Trazado_102902" data-name="Trazado 102902" d="M453.834,217.1a2.333,2.333,0,0,1-1.749-.7,2.771,2.771,0,0,1,0-3.662,2.543,2.543,0,0,1,3.18-.274,2.118,2.118,0,0,1,.82,1.183l-.8.133a1.463,1.463,0,0,0-1.437-1.03,1.443,1.443,0,0,0-1.132.5,2.162,2.162,0,0,0,0,2.626,1.443,1.443,0,0,0,1.132.5,1.463,1.463,0,0,0,1.437-1.03l.8.133a2.111,2.111,0,0,1-.826,1.189,2.359,2.359,0,0,1-1.427.426Z" transform="translate(-439.247 -172.729)"/>
      <path id="Trazado_102903" data-name="Trazado 102903" d="M461.09,209.68a.553.553,0,0,1-.407-.168.566.566,0,0,1-.168-.413.553.553,0,0,1,.168-.407.588.588,0,0,1,.814,0,.553.553,0,0,1,.168.407.566.566,0,0,1-.168.413.553.553,0,0,1-.407.168Zm-.432,6.027v-4.883h.865v4.883Z" transform="translate(-442.568 -171.453)"/>
      <path id="Trazado_102904" data-name="Trazado 102904" d="M466.659,217.093a2.543,2.543,0,0,1-1.272-.3,2.232,2.232,0,0,1-.884-.884,2.727,2.727,0,0,1-.324-1.348,2.543,2.543,0,0,1,.693-1.847,2.6,2.6,0,0,1,3.535,0,2.8,2.8,0,0,1,0,3.687,2.384,2.384,0,0,1-1.748.7Zm0-.712a1.511,1.511,0,0,0,1.157-.5,1.907,1.907,0,0,0,.458-1.322,1.863,1.863,0,0,0-.458-1.316,1.5,1.5,0,0,0-1.157-.5,1.475,1.475,0,0,0-1.144.5,2.154,2.154,0,0,0,0,2.639,1.5,1.5,0,0,0,1.138.484Z" transform="translate(-443.903 -172.726)"/>
      <path id="Trazado_102905" data-name="Trazado 102905" d="M436.766,228v.814h-1.793v6.18h-.884v-6.168h-1.8V228Z" transform="translate(-432.29 -178.546)"/>
      <path id="Trazado_102906" data-name="Trazado 102906" d="M441.034,232.18a1.468,1.468,0,0,1,.636-.636,1.806,1.806,0,0,1,.934-.252v.808a1.6,1.6,0,0,0-1.132.363,1.511,1.511,0,0,0-.395,1.157V236.2h-.857v-4.883h.84Z" transform="translate(-435.178 -179.745)"/>
      <path id="Trazado_102907" data-name="Trazado 102907" d="M445.875,228.878a.588.588,0,0,1-.588-.588.553.553,0,0,1,.168-.407.588.588,0,0,1,.413-.168.566.566,0,0,1,.4.168.553.553,0,0,1,.168.407.566.566,0,0,1-.168.413.547.547,0,0,1-.4.168Zm-.439,6.027v-4.883h.865v4.87Z" transform="translate(-437.024 -178.444)"/>
      <path id="Trazado_102908" data-name="Trazado 102908" d="M450.942,236.27a2.307,2.307,0,0,1-1.316-.35,1.449,1.449,0,0,1-.636-1.007l.751-.216a1.03,1.03,0,0,0,.4.68,1.272,1.272,0,0,0,.8.242,1.79,1.79,0,0,0,.47-.064.763.763,0,0,0,.356-.242.636.636,0,0,0,.146-.445.681.681,0,0,0-.038-.2.744.744,0,0,0-.084-.159.356.356,0,0,0-.14-.133,1.041,1.041,0,0,0-.168-.108l-.223-.089-.235-.084-.274-.076-.286-.084c-.2-.064-.369-.121-.5-.178a2.126,2.126,0,0,1-.413-.235.947.947,0,0,1-.318-.388,1.214,1.214,0,0,1-.108-.547,1.272,1.272,0,0,1,.235-.782,1.367,1.367,0,0,1,.636-.458,2.417,2.417,0,0,1,.865-.14,2.137,2.137,0,0,1,1.189.318,1.335,1.335,0,0,1,.588.954l-.706.178a.909.909,0,0,0-.369-.636,1.182,1.182,0,0,0-.7-.21,1.221,1.221,0,0,0-.635.168.588.588,0,0,0-.267.528.484.484,0,0,0,.07.267.68.68,0,0,0,.146.191.828.828,0,0,0,.267.146,2.738,2.738,0,0,0,.286.108l.363.089h.07l.47.134a2.952,2.952,0,0,1,.426.178,1.385,1.385,0,0,1,.375.267,1.271,1.271,0,0,1,.242.375,1.417,1.417,0,0,1,.1.528,1.385,1.385,0,0,1-.146.636,1.118,1.118,0,0,1-.394.445,1.78,1.78,0,0,1-.573.252A2.6,2.6,0,0,1,450.942,236.27Z" transform="translate(-438.372 -179.713)"/>
      <path id="Trazado_102909" data-name="Trazado 102909" d="M458.145,235.271a1.272,1.272,0,0,1-.954-.35,1.335,1.335,0,0,1-.343-.973v-2.874h-1v-.685h.363a.7.7,0,0,0,.541-.168.82.82,0,0,0,.159-.573v-.888h.8v1.629h1.117v.687h-1.119v2.785a.719.719,0,0,0,.185.534.637.637,0,0,0,.49.191h.445v.687Z" transform="translate(-440.87 -178.823)"/>
      <path id="Trazado_102910" data-name="Trazado 102910" d="M466.467,233.623v.235h-3.815a1.71,1.71,0,0,0,.47,1.272,1.526,1.526,0,0,0,1.112.438,1.481,1.481,0,0,0,.808-.235,1.551,1.551,0,0,0,.559-.636l.776.168a2.212,2.212,0,0,1-.84,1.049,2.283,2.283,0,0,1-1.272.381,2.359,2.359,0,0,1-1.755-.68,2.894,2.894,0,0,1,0-3.713,2.351,2.351,0,0,1,1.73-.68,2.206,2.206,0,0,1,1.646.636,2.455,2.455,0,0,1,.58,1.765Zm-2.267-1.78a1.494,1.494,0,0,0-1.008.349,1.583,1.583,0,0,0-.516,1.008H465.6a1.456,1.456,0,0,0-.426-1.008,1.373,1.373,0,0,0-.973-.331Z" transform="translate(-443.05 -179.718)"/>
    </g>
    <g id="Grupo_57729" data-name="Grupo 57729" transform="translate(275.487 74.123)">
      <path id="Trazado_102911" data-name="Trazado 102911" d="M438.188,117.11h1.482v7.178h-1.723l-3.179-5.131v5.131H433.28V117.11h1.73l3.179,5.086Z" transform="translate(-433.28 -116.773)"/>
      <path id="Trazado_102912" data-name="Trazado 102912" d="M450.494,122.781v.343h-3.814a1.31,1.31,0,0,0,.407.934,1.418,1.418,0,0,0,1.57.146,1.113,1.113,0,0,0,.432-.515l1.31.191a2.267,2.267,0,0,1-.9,1.2,2.686,2.686,0,0,1-1.507.426,2.76,2.76,0,0,1-1.99-.706,2.543,2.543,0,0,1-.738-1.945,2.6,2.6,0,0,1,.738-1.952,2.687,2.687,0,0,1,1.945-.712,2.333,2.333,0,0,1,2.543,2.588Zm-2.543-1.577a1.132,1.132,0,0,0-1.24.986h2.347a1.075,1.075,0,0,0-.356-.731,1.125,1.125,0,0,0-.725-.252Z" transform="translate(-437.644 -117.892)"/>
      <path id="Trazado_102913" data-name="Trazado 102913" d="M458.461,120.3h1.361v4.724a3.817,3.817,0,0,1-.191,1.272,2.1,2.1,0,0,1-.553.871,2.321,2.321,0,0,1-.852.489,3.51,3.51,0,0,1-1.112.159,2.519,2.519,0,0,1-2.632-1.583l1.189-.509a1.724,1.724,0,0,0,.547.744,1.4,1.4,0,0,0,.84.235c.884,0,1.329-.521,1.329-1.577v-.61a1.608,1.608,0,0,1-.636.5,2.155,2.155,0,0,1-.909.191,2.276,2.276,0,0,1-.9-.178,2.383,2.383,0,0,1-.744-.509,2.421,2.421,0,0,1-.5-.8,3.007,3.007,0,0,1,0-2.073,2.284,2.284,0,0,1,.509-.788,2.124,2.124,0,0,1,.744-.5,2.267,2.267,0,0,1,.9-.185,2.1,2.1,0,0,1,.947.216,1.468,1.468,0,0,1,.636.559Zm-2.194,3.376a1.233,1.233,0,0,0,.934.395,1.272,1.272,0,0,0,.941-.395,1.427,1.427,0,0,0,0-1.945,1.329,1.329,0,0,0-1.908,0,1.361,1.361,0,0,0-.375.979A1.335,1.335,0,0,0,456.267,123.677Z" transform="translate(-441.001 -117.891)"/>
      <path id="Trazado_102914" data-name="Trazado 102914" d="M469.189,124.045a4.775,4.775,0,0,0,.121,1.272v.14h-1.335l-.114-.553a1.647,1.647,0,0,1-.712.489,2.7,2.7,0,0,1-.929.168,2.887,2.887,0,0,1-.477-.044,1.7,1.7,0,0,1-.426-.153,1.27,1.27,0,0,1-.356-.267,1.058,1.058,0,0,1-.235-.407,1.481,1.481,0,0,1-.1-.553,1.532,1.532,0,0,1,.1-.553,1.321,1.321,0,0,1,.252-.413,1.582,1.582,0,0,1,.407-.306,3.179,3.179,0,0,1,.5-.216,5.953,5.953,0,0,1,.635-.159l.84-.191a.833.833,0,0,0,.375-.159.318.318,0,0,0,.114-.252.541.541,0,0,0-.252-.5,1.272,1.272,0,0,0-.636-.146.877.877,0,0,0-1,.782L464.7,121.8a1.717,1.717,0,0,1,.737-1.17,2.956,2.956,0,0,1,1.6-.375q2.149,0,2.149,1.847Zm-2.543.515a1.144,1.144,0,0,0,.884-.369,1.545,1.545,0,0,0,.343-1.091l-1.214.343a1.361,1.361,0,0,0-.509.21.432.432,0,0,0-.178.369.471.471,0,0,0,.191.4.776.776,0,0,0,.509.121Z" transform="translate(-444.697 -117.915)"/>
      <path id="Trazado_102915" data-name="Trazado 102915" d="M475.4,124.534a1.52,1.52,0,0,1-1.151-.413,1.6,1.6,0,0,1-.407-1.183v-2.41h-1.007v-1.1h.324a.84.84,0,0,0,.636-.216,1.1,1.1,0,0,0,.2-.756v-.672h1.272v1.646h1.049v1.1h-1.03v2.257c0,.445.2.636.588.636h.458v1.091Z" transform="translate(-447.687 -117.017)"/>
      <path id="Trazado_102916" data-name="Trazado 102916" d="M480.766,118.226a.814.814,0,0,1-.588-.242.8.8,0,0,1-.242-.588.783.783,0,0,1,.252-.578.82.82,0,0,1,1.157,1.164A.8.8,0,0,1,480.766,118.226Zm-.725,5.869v-5.086h1.437V124.1Z" transform="translate(-450.272 -116.58)"/>
      <path id="Trazado_102917" data-name="Trazado 102917" d="M487.582,120.37h1.511l-2.174,5.086h-1.269L483.5,120.37h1.507l1.272,3.491Z" transform="translate(-451.569 -117.96)"/>
      <path id="Trazado_102918" data-name="Trazado 102918" d="M495.3,125.537a3.274,3.274,0,0,1-1.443-.311,2.351,2.351,0,0,1-.992-.924,2.709,2.709,0,0,1-.363-1.427,2.543,2.543,0,0,1,.776-1.908,3.237,3.237,0,0,1,4.05,0,2.823,2.823,0,0,1,0,3.885,2.874,2.874,0,0,1-2.028.68Zm0-1.138a1.316,1.316,0,0,0,1.007-.42,1.552,1.552,0,0,0,.381-1.1,1.584,1.584,0,0,0-.381-1.107,1.336,1.336,0,0,0-1.008-.413,1.272,1.272,0,0,0-.986.42,1.8,1.8,0,0,0,0,2.2,1.272,1.272,0,0,0,.973.42Z" transform="translate(-454.846 -117.919)"/>
    </g>
  </g>
</svg>
