<svg id="color1" xmlns="http://www.w3.org/2000/svg" width="358.322" height="191.025" viewBox="0 0 358.322 191.025">
  <rect id="Rectángulo_5369" data-name="Rectángulo 5369" width="179.161" height="145.247" fill="red"/>
  <rect id="Rectángulo_5370" data-name="Rectángulo 5370" width="179.161" height="191.025" transform="translate(179.161)" fill="#f2f2f2"/>
  <rect id="Rectángulo_5371" data-name="Rectángulo 5371" width="44.787" height="45.779" transform="translate(0 145.247)" fill="red"/>
  <g id="Grupo_57664" data-name="Grupo 57664" transform="translate(44.787 145.247)" opacity="0.75">
    <rect id="Rectángulo_5372" data-name="Rectángulo 5372" width="44.787" height="45.779" fill="red"/>
  </g>
  <g id="Grupo_57665" data-name="Grupo 57665" transform="translate(89.58 145.247)" opacity="0.5">
    <rect id="Rectángulo_5373" data-name="Rectángulo 5373" width="44.787" height="45.779" fill="red"/>
  </g>
  <g id="Grupo_57666" data-name="Grupo 57666" transform="translate(134.367 145.247)" opacity="0.25">
    <rect id="Rectángulo_5374" data-name="Rectángulo 5374" width="44.787" height="45.779" fill="red"/>
  </g>
  <g id="Grupo_57667" data-name="Grupo 57667" transform="translate(201.974 34.544)">
    <path id="Trazado_102055" data-name="Trazado 102055" d="M326.682,72.636l-4.45-7.5H321.2v7.5H317.66V55.59h6.187a7.185,7.185,0,0,1,2.473.395,4.26,4.26,0,0,1,1.717,1.1A4.609,4.609,0,0,1,329,58.693a5.891,5.891,0,0,1,.324,2,4.139,4.139,0,0,1-.929,2.8,4.66,4.66,0,0,1-2.677,1.468l5.131,7.68Zm-5.461-14.1V62.6h2.086q2.658,0,2.658-2.028a1.856,1.856,0,0,0-.636-1.5,3.122,3.122,0,0,0-2.009-.541Z" transform="translate(-317.66 -54.788)"/>
    <path id="Trazado_102056" data-name="Trazado 102056" d="M345.761,75.555a7.629,7.629,0,0,1-3.433-.744,5.525,5.525,0,0,1-2.351-2.183,6.48,6.48,0,0,1-.858-3.383,5.938,5.938,0,0,1,1.847-4.6,7.7,7.7,0,0,1,9.614,0,6.678,6.678,0,0,1,0,9.221A6.81,6.81,0,0,1,345.761,75.555Zm-.032-2.7a3.128,3.128,0,0,0,2.4-.966,4.2,4.2,0,0,0,0-5.239,3.116,3.116,0,0,0-2.4-.992,3,3,0,0,0-2.333,1,4.235,4.235,0,0,0,0,5.226,3.014,3.014,0,0,0,2.333.973Z" transform="translate(-325.471 -57.472)"/>
    <path id="Trazado_102057" data-name="Trazado 102057" d="M360.11,77.868V75.21a3.862,3.862,0,0,0,1.272-.168,1.427,1.427,0,0,0,.756-.636,2.734,2.734,0,0,0,.363-1.049,11.949,11.949,0,0,0,.089-1.621V60.053h3.442V71.768a6.573,6.573,0,0,1-1.379,4.635C363.734,77.379,362.215,77.868,360.11,77.868Zm4.222-19.634a1.965,1.965,0,0,1-1.971-1.959,1.863,1.863,0,0,1,.588-1.374,1.951,1.951,0,1,1,2.76,2.76,1.907,1.907,0,0,1-1.377.573Z" transform="translate(-333.119 -54.33)"/>
    <path id="Trazado_102058" data-name="Trazado 102058" d="M380.051,75.555a7.629,7.629,0,0,1-3.433-.744,5.526,5.526,0,0,1-2.351-2.183,6.478,6.478,0,0,1-.858-3.383,5.938,5.938,0,0,1,1.847-4.6,7.7,7.7,0,0,1,9.614,0,6.678,6.678,0,0,1,0,9.221A6.81,6.81,0,0,1,380.051,75.555Zm-.038-2.7a3.135,3.135,0,0,0,2.4-.966,4.2,4.2,0,0,0,0-5.239,3.116,3.116,0,0,0-2.4-.992,3,3,0,0,0-2.331,1,4.235,4.235,0,0,0,0,5.226,3.007,3.007,0,0,0,2.331.973Z" transform="translate(-337.959 -57.472)"/>
  </g>
  <g id="Grupo_57668" data-name="Grupo 57668" transform="translate(202.915 95.804)">
    <path id="Trazado_102059" data-name="Trazado 102059" d="M324.145,152.051h-2.836v2.289h2.5v.8h-2.5v2.321h2.836v.808H320.4v-6.994h3.745Z" transform="translate(-319.599 -150.894)"/>
    <path id="Trazado_102060" data-name="Trazado 102060" d="M330.928,154.389a1.71,1.71,0,0,1,1.228.445,1.653,1.653,0,0,1,.458,1.272v3.287h-.858v-3.1a1.138,1.138,0,0,0-.3-.871,1.05,1.05,0,0,0-.763-.286,1.2,1.2,0,0,0-.871.336,1.393,1.393,0,0,0-.343,1v2.918h-.858v-4.883h.877v.636a1.628,1.628,0,0,1,1.431-.755Z" transform="translate(-322.593 -152.03)"/>
    <path id="Trazado_102061" data-name="Trazado 102061" d="M341.58,156.834v.235h-3.815a1.71,1.71,0,0,0,.464,1.272,1.526,1.526,0,0,0,1.112.439,1.481,1.481,0,0,0,.808-.235,1.512,1.512,0,0,0,.559-.636l.776.168a2.212,2.212,0,0,1-.84,1.049,2.251,2.251,0,0,1-1.272.381,2.372,2.372,0,0,1-1.755-.719,2.918,2.918,0,0,1,0-3.713,2.351,2.351,0,0,1,1.735-.68,2.2,2.2,0,0,1,1.641.636,2.467,2.467,0,0,1,.586,1.8Zm-2.257-1.78a1.5,1.5,0,0,0-1.018.35,1.583,1.583,0,0,0-.515,1.007h2.925a1.427,1.427,0,0,0-.426-1.007,1.36,1.36,0,0,0-.968-.353Z" transform="translate(-325.627 -152.031)"/>
    <path id="Trazado_102062" data-name="Trazado 102062" d="M347.19,155.38a1.488,1.488,0,0,1,.6-.636,1.831,1.831,0,0,1,.941-.252v.808a1.621,1.621,0,0,0-1.138.363,1.511,1.511,0,0,0-.388,1.157v2.6h-.858V154.54h.84Z" transform="translate(-329.05 -152.067)"/>
    <path id="Trazado_102063" data-name="Trazado 102063" d="M354.874,154.489h.84v4.635a2.651,2.651,0,0,1-.636,1.908,2.619,2.619,0,0,1-4.114-.826l.706-.349a1.621,1.621,0,0,0,1.634,1.132,1.418,1.418,0,0,0,1.151-.477,2.054,2.054,0,0,0,.394-1.335v-.9a1.735,1.735,0,0,1-.7.706,2.143,2.143,0,0,1-2.594-.426,2.619,2.619,0,0,1,0-3.465,2.117,2.117,0,0,1,1.589-.687,2.041,2.041,0,0,1,1.023.274,1.787,1.787,0,0,1,.687.725Zm-1.545,4.012a1.494,1.494,0,0,0,1.125-.5,1.774,1.774,0,0,0,0-2.39,1.532,1.532,0,0,0-2.251,0,1.7,1.7,0,0,0-.464,1.214,1.717,1.717,0,0,0,.464,1.208,1.5,1.5,0,0,0,1.126.464Z" transform="translate(-330.707 -152.035)"/>
    <path id="Trazado_102064" data-name="Trazado 102064" d="M361.22,158.017v-4.885h.865v4.883Zm.108-5.723,1.272-1.615.458.331-1.112,1.272Z" transform="translate(-334.464 -150.679)"/>
    <path id="Trazado_102065" data-name="Trazado 102065" d="M366.242,159.469a1.653,1.653,0,0,1-1.068-.336,1.183,1.183,0,0,1-.426-1,1.4,1.4,0,0,1,.14-.636,1.061,1.061,0,0,1,.394-.445,2.392,2.392,0,0,1,.573-.28,6.447,6.447,0,0,1,.744-.178l.788-.127c.292-.051.432-.2.432-.452a.845.845,0,0,0-.306-.725,1.208,1.208,0,0,0-.769-.235,1.31,1.31,0,0,0-.769.223.96.96,0,0,0-.363.687l-.769-.168a1.482,1.482,0,0,1,.635-1.043,2.25,2.25,0,0,1,1.329-.35,2.676,2.676,0,0,1,.706.089,1.793,1.793,0,0,1,.588.274,1.2,1.2,0,0,1,.426.521,1.965,1.965,0,0,1,.153.808v2.015a.827.827,0,0,0,.108.509.484.484,0,0,0,.388.134h.076v.636h-.426a.808.808,0,0,1-.924-.636h-.044a1.847,1.847,0,0,1-1.621.712Zm.2-.693a1.3,1.3,0,0,0,1.049-.477,1.908,1.908,0,0,0,.395-1.272l-1.272.252a1.736,1.736,0,0,0-.756.274.717.717,0,0,0-.007,1.068.955.955,0,0,0,.588.159Z" transform="translate(-335.749 -152.036)"/>
    <path id="Trazado_102066" data-name="Trazado 102066" d="M324.145,171.234h-2.836v2.289h2.5v.8h-2.5v2.283h2.836v.808H320.4V170.42h3.745Z" transform="translate(-319.599 -157.868)"/>
    <path id="Trazado_102067" data-name="Trazado 102067" d="M327.54,178.623l1.876-2.441-1.876-2.441H328.6l1.354,1.869,1.348-1.869h1.043l-1.908,2.441,1.908,2.441h-1.049l-1.343-1.856-1.354,1.856Z" transform="translate(-322.199 -159.077)"/>
    <path id="Trazado_102068" data-name="Trazado 102068" d="M338.243,178.656a2.333,2.333,0,0,1-1.749-.7,2.771,2.771,0,0,1,0-3.662,2.34,2.34,0,0,1,1.755-.706,2.365,2.365,0,0,1,1.411.432,2.117,2.117,0,0,1,.82,1.183l-.8.133a1.463,1.463,0,0,0-1.437-1.03,1.443,1.443,0,0,0-1.132.5,2.169,2.169,0,0,0,0,2.632,1.526,1.526,0,0,0,2.569-.534l.8.134a2.111,2.111,0,0,1-.826,1.189,2.359,2.359,0,0,1-1.411.426Z" transform="translate(-325.208 -159.022)"/>
    <path id="Trazado_102069" data-name="Trazado 102069" d="M345.5,171.28a.553.553,0,0,1-.407-.168.566.566,0,0,1-.168-.413.553.553,0,0,1,.168-.407.588.588,0,0,1,.814,0,.554.554,0,0,1,.168.407.566.566,0,0,1-.168.413A.553.553,0,0,1,345.5,171.28Zm-.432,6.027v-4.883h.858v4.883Z" transform="translate(-328.53 -157.76)"/>
    <path id="Trazado_102070" data-name="Trazado 102070" d="M350.391,177.691a1.272,1.272,0,0,1-.954-.35,1.316,1.316,0,0,1-.35-.973v-2.874h-1v-.687h.369a.719.719,0,0,0,.541-.168.859.859,0,0,0,.153-.573v-.887h.788v1.628h1.125v.687H349.94v2.785a.744.744,0,0,0,.185.534.636.636,0,0,0,.49.191h.452v.687Z" transform="translate(-329.683 -158.145)"/>
    <path id="Trazado_102071" data-name="Trazado 102071" d="M355.566,178.678a1.615,1.615,0,0,1-1.068-.336,1.175,1.175,0,0,1-.42-1,1.4,1.4,0,0,1,.133-.636,1.062,1.062,0,0,1,.395-.445,2.394,2.394,0,0,1,.573-.28,5.423,5.423,0,0,1,.744-.168l.788-.133c.292-.051.432-.2.432-.452a.845.845,0,0,0-.306-.725,1.207,1.207,0,0,0-.769-.235,1.31,1.31,0,0,0-.769.235.96.96,0,0,0-.363.687l-.769-.159a1.482,1.482,0,0,1,.636-1.049,2.251,2.251,0,0,1,1.329-.35,2.679,2.679,0,0,1,.706.089,1.792,1.792,0,0,1,.588.274,1.2,1.2,0,0,1,.426.521,1.964,1.964,0,0,1,.153.808v2.015a.826.826,0,0,0,.108.509.483.483,0,0,0,.388.133h.076v.636h-.426a.808.808,0,0,1-.924-.636h-.044a1.847,1.847,0,0,1-1.621.7Zm.2-.693a1.3,1.3,0,0,0,1.049-.477,1.908,1.908,0,0,0,.394-1.272l-1.272.252a1.736,1.736,0,0,0-.756.274.718.718,0,0,0-.007,1.068.954.954,0,0,0,.588.159Z" transform="translate(-331.862 -159.037)"/>
    <path id="Trazado_102072" data-name="Trazado 102072" d="M364.661,178.656a2.333,2.333,0,0,1-1.749-.7,2.765,2.765,0,0,1,0-3.662,2.327,2.327,0,0,1,1.749-.706,2.365,2.365,0,0,1,1.411.432,2.161,2.161,0,0,1,.826,1.183l-.808.133a1.462,1.462,0,0,0-1.436-1.03,1.443,1.443,0,0,0-1.132.5,2.193,2.193,0,0,0,0,2.632,1.526,1.526,0,0,0,2.569-.534l.808.134a2.156,2.156,0,0,1-.833,1.189,2.359,2.359,0,0,1-1.406.426Z" transform="translate(-334.829 -159.022)"/>
    <path id="Trazado_102073" data-name="Trazado 102073" d="M371.919,171.28a.553.553,0,0,1-.407-.168.566.566,0,0,1-.168-.413.553.553,0,0,1,.168-.407.588.588,0,0,1,.814,0,.553.553,0,0,1,.168.407.566.566,0,0,1-.168.413.554.554,0,0,1-.406.168Zm-.432,6.027v-4.883h.865v4.883Z" transform="translate(-338.151 -157.76)"/>
    <path id="Trazado_102074" data-name="Trazado 102074" d="M377.489,177.323a2.544,2.544,0,0,1-1.272-.306,2.175,2.175,0,0,1-.877-.884,2.664,2.664,0,0,1-.331-1.348,2.543,2.543,0,0,1,.693-1.847,2.6,2.6,0,0,1,3.535,0,2.8,2.8,0,0,1,0,3.687,2.384,2.384,0,0,1-1.749.693Zm0-.712a1.511,1.511,0,0,0,1.157-.5,1.907,1.907,0,0,0,.458-1.322,1.863,1.863,0,0,0-.458-1.316,1.494,1.494,0,0,0-1.157-.5,1.475,1.475,0,0,0-1.144.5,2.154,2.154,0,0,0,0,2.639,1.5,1.5,0,0,0,1.138.5Zm-.318-5.086,1.272-1.615.458.331-1.112,1.272Z" transform="translate(-339.485 -157.682)"/>
    <path id="Trazado_102075" data-name="Trazado 102075" d="M387.2,173.589a1.7,1.7,0,0,1,1.227.445,1.628,1.628,0,0,1,.464,1.272v3.287h-.858V175.5a1.169,1.169,0,0,0-.3-.877,1.075,1.075,0,0,0-.769-.286,1.175,1.175,0,0,0-.865.336,1.343,1.343,0,0,0-.343,1v2.918H384.9v-4.883h.858v.636a1.621,1.621,0,0,1,1.443-.756Z" transform="translate(-343.088 -159.021)"/>
    <path id="Trazado_102076" data-name="Trazado 102076" d="M323.045,189.62a2.027,2.027,0,0,1,1.091.292,1.965,1.965,0,0,1,.738.776,2.275,2.275,0,0,1,.252,1.081,2.1,2.1,0,0,1-.578,1.52,1.99,1.99,0,0,1-1.507.636h-1.763v2.715H320.4v-6.994Zm-.127,3.5a1.272,1.272,0,0,0,.973-.375,1.572,1.572,0,0,0,0-1.977,1.272,1.272,0,0,0-.973-.381h-1.634v2.734Z" transform="translate(-319.599 -164.86)"/>
    <path id="Trazado_102077" data-name="Trazado 102077" d="M330.143,197.869a1.685,1.685,0,0,1-1.075-.336,1.2,1.2,0,0,1-.42-1,1.323,1.323,0,0,1,.14-.636,1.062,1.062,0,0,1,.394-.445,2.392,2.392,0,0,1,.573-.28A6.445,6.445,0,0,1,330.5,195l.788-.127c.292-.051.432-.2.432-.452a.845.845,0,0,0-.306-.725,1.208,1.208,0,0,0-.769-.235,1.31,1.31,0,0,0-.769.222.96.96,0,0,0-.363.687l-.769-.168a1.482,1.482,0,0,1,.636-1.043,2.251,2.251,0,0,1,1.329-.349,2.676,2.676,0,0,1,.706.121,1.8,1.8,0,0,1,.588.274,1.2,1.2,0,0,1,.426.521,1.963,1.963,0,0,1,.153.808v2.015a.827.827,0,0,0,.108.509.483.483,0,0,0,.388.133h.076v.636h-.426a.808.808,0,0,1-.924-.636h-.045A1.847,1.847,0,0,1,330.143,197.869Zm.2-.693a1.3,1.3,0,0,0,1.049-.477,1.908,1.908,0,0,0,.395-1.272l-1.272.252a1.734,1.734,0,0,0-.756.274.705.705,0,0,0-.007,1.068.954.954,0,0,0,.61.159Z" transform="translate(-322.602 -166.02)"/>
    <path id="Trazado_102078" data-name="Trazado 102078" d="M338.952,197.87a2.308,2.308,0,0,1-1.316-.35,1.449,1.449,0,0,1-.636-1.007l.751-.216a1.03,1.03,0,0,0,.4.68,1.272,1.272,0,0,0,.8.242,1.794,1.794,0,0,0,.47-.064.763.763,0,0,0,.356-.242.636.636,0,0,0,.146-.445.959.959,0,0,0-.038-.2.739.739,0,0,0-.084-.159.355.355,0,0,0-.14-.133,1.426,1.426,0,0,0-.168-.108l-.222-.089-.235-.084-.274-.076-.28-.084a4.994,4.994,0,0,1-.509-.178,2.124,2.124,0,0,1-.413-.235.948.948,0,0,1-.318-.388,1.214,1.214,0,0,1-.108-.547,1.272,1.272,0,0,1,.235-.783,1.368,1.368,0,0,1,.636-.458,2.415,2.415,0,0,1,.865-.14,2.136,2.136,0,0,1,1.189.318,1.335,1.335,0,0,1,.588.954l-.706.178a.928.928,0,0,0-.369-.636,1.278,1.278,0,0,0-1.335-.042.578.578,0,0,0-.274.528.483.483,0,0,0,.07.267.68.68,0,0,0,.146.191.827.827,0,0,0,.267.146,2.279,2.279,0,0,0,.286.108l.363.089h.07l.47.133a3.913,3.913,0,0,1,.426.178,1.386,1.386,0,0,1,.375.267,1.274,1.274,0,0,1,.242.375,1.418,1.418,0,0,1,.1.528,1.467,1.467,0,0,1-.146.636,1.183,1.183,0,0,1-.4.445,1.78,1.78,0,0,1-.573.252A2.6,2.6,0,0,1,338.952,197.87Z" transform="translate(-325.644 -166.02)"/>
    <path id="Trazado_102079" data-name="Trazado 102079" d="M345.375,190.478a.588.588,0,0,1-.588-.588.553.553,0,0,1,.168-.407.588.588,0,0,1,.413-.168.573.573,0,0,1,.573.573.566.566,0,0,1-.168.413.541.541,0,0,1-.4.177Zm-.439,6.027v-4.883h.865v4.883Z" transform="translate(-328.481 -164.751)"/>
    <path id="Trazado_102080" data-name="Trazado 102080" d="M350.949,196.523a2.543,2.543,0,0,1-1.272-.3,2.149,2.149,0,0,1-.865-.884,2.729,2.729,0,0,1-.324-1.348,2.493,2.493,0,0,1,.693-1.847,2.4,2.4,0,0,1,1.763-.693,2.422,2.422,0,0,1,1.774.693,2.543,2.543,0,0,1,.687,1.847,2.486,2.486,0,0,1-.693,1.847A2.378,2.378,0,0,1,350.949,196.523Zm0-.712a1.511,1.511,0,0,0,1.151-.5,1.907,1.907,0,0,0,.464-1.322,1.87,1.87,0,0,0-.464-1.316,1.488,1.488,0,0,0-1.151-.5,1.456,1.456,0,0,0-1.144.5,1.863,1.863,0,0,0-.458,1.316,1.907,1.907,0,0,0,.458,1.322A1.481,1.481,0,0,0,350.949,195.811Zm-.324-5.086,1.272-1.615.458.331-1.112,1.272Z" transform="translate(-329.827 -164.675)"/>
    <path id="Trazado_102081" data-name="Trazado 102081" d="M360.681,192.789a1.723,1.723,0,0,1,1.233.445,1.653,1.653,0,0,1,.458,1.272v3.287h-.858v-3.1a1.163,1.163,0,0,0-.3-.871,1.049,1.049,0,0,0-.763-.286,1.183,1.183,0,0,0-.871.336,1.367,1.367,0,0,0-.343,1v2.918h-.858v-4.883h.856v.636a1.628,1.628,0,0,1,1.445-.755Z" transform="translate(-333.43 -166.014)"/>
    <path id="Trazado_102082" data-name="Trazado 102082" d="M323.114,215.882a3.771,3.771,0,0,1-1.379-.252,3.575,3.575,0,0,1-1.107-.706,3.18,3.18,0,0,1-.731-1.138,4.348,4.348,0,0,1,0-3,3.235,3.235,0,0,1,.737-1.138,3.363,3.363,0,0,1,1.1-.706,3.77,3.77,0,0,1,1.379-.252,3.526,3.526,0,0,1,1.856.5,3.064,3.064,0,0,1,1.253,1.348l-.82.336a2.359,2.359,0,0,0-.916-1,2.619,2.619,0,0,0-1.354-.35,2.842,2.842,0,0,0-1.023.185,2.422,2.422,0,0,0-.82.528,2.35,2.35,0,0,0-.553.865,3.18,3.18,0,0,0-.2,1.157,3.249,3.249,0,0,0,.2,1.17,2.351,2.351,0,0,0,.553.865,2.424,2.424,0,0,0,.82.528,2.714,2.714,0,0,0,1.023.185,2.619,2.619,0,0,0,1.354-.35,2.327,2.327,0,0,0,.916-.986l.82.331a3.052,3.052,0,0,1-1.272,1.367,3.592,3.592,0,0,1-1.836.52Z" transform="translate(-319.318 -171.807)"/>
    <path id="Trazado_102083" data-name="Trazado 102083" d="M333.826,217.093a2.543,2.543,0,0,1-1.272-.3,2.149,2.149,0,0,1-.884-.884,2.728,2.728,0,0,1-.324-1.348,2.493,2.493,0,0,1,.693-1.847,2.6,2.6,0,0,1,3.535,0,2.543,2.543,0,0,1,.687,1.847,2.486,2.486,0,0,1-.693,1.847,2.372,2.372,0,0,1-1.741.689Zm0-.712a1.526,1.526,0,0,0,1.157-.5,1.907,1.907,0,0,0,.458-1.322,1.863,1.863,0,0,0-.458-1.316,1.5,1.5,0,0,0-1.157-.5,1.468,1.468,0,0,0-1.144.5,1.863,1.863,0,0,0-.458,1.316,1.907,1.907,0,0,0,.458,1.322,1.488,1.488,0,0,0,1.138.484Z" transform="translate(-323.584 -173.018)"/>
    <path id="Trazado_102084" data-name="Trazado 102084" d="M342.07,212.98a1.488,1.488,0,0,1,.6-.636,1.847,1.847,0,0,1,.941-.252v.808a1.589,1.589,0,0,0-1.132.363,1.511,1.511,0,0,0-.395,1.157v2.6h-.858V212.14h.84Z" transform="translate(-327.185 -173.044)"/>
    <path id="Trazado_102085" data-name="Trazado 102085" d="M347.392,217.079a1.672,1.672,0,0,1-1.075-.336,1.2,1.2,0,0,1-.42-1,1.4,1.4,0,0,1,.133-.636,1.081,1.081,0,0,1,.4-.445,2.28,2.28,0,0,1,.573-.28,5.416,5.416,0,0,1,.744-.168l.788-.133c.286-.051.432-.2.432-.452a.845.845,0,0,0-.3-.725,1.208,1.208,0,0,0-.8-.274,1.31,1.31,0,0,0-.769.223.959.959,0,0,0-.363.687l-.776-.159a1.526,1.526,0,0,1,.635-1.049,2.29,2.29,0,0,1,1.335-.349,2.713,2.713,0,0,1,.706.089,1.793,1.793,0,0,1,.588.274,1.272,1.272,0,0,1,.426.521,2.081,2.081,0,0,1,.146.808v2.015a.82.82,0,0,0,.114.509.483.483,0,0,0,.388.133h.108v.636h-.426a.808.808,0,0,1-.923-.636h-.045a1.847,1.847,0,0,1-1.628.751Zm.2-.693a1.3,1.3,0,0,0,1.049-.477,1.959,1.959,0,0,0,.395-1.272l-1.272.252a1.7,1.7,0,0,0-.756.274.711.711,0,0,0-.013,1.068.986.986,0,0,0,.6.14Z" transform="translate(-328.883 -173.003)"/>
    <path id="Trazado_102086" data-name="Trazado 102086" d="M353.09,217.991v-.731a1.428,1.428,0,0,0,.7-.14.769.769,0,0,0,.331-.477,4,4,0,0,0,.1-1.008v-4.813h.865v4.813a2.816,2.816,0,0,1-.452,1.824,1.908,1.908,0,0,1-1.539.534Zm1.564-8.317a.553.553,0,0,1-.407-.168.566.566,0,0,1-.168-.413.553.553,0,0,1,.168-.407.588.588,0,0,1,.814,0,.553.553,0,0,1,.168.407.566.566,0,0,1-.168.413.553.553,0,0,1-.406.173Z" transform="translate(-331.504 -171.744)"/>
    <path id="Trazado_102087" data-name="Trazado 102087" d="M363.049,214.453v.235h-3.815a1.736,1.736,0,0,0,.47,1.272,1.526,1.526,0,0,0,1.112.439,1.482,1.482,0,0,0,.808-.235,1.551,1.551,0,0,0,.56-.636l.776.168a2.212,2.212,0,0,1-.84,1.049,2.282,2.282,0,0,1-1.271.381,2.359,2.359,0,0,1-1.755-.68,2.893,2.893,0,0,1,0-3.713,2.351,2.351,0,0,1,1.735-.68,2.2,2.2,0,0,1,1.641.636,2.467,2.467,0,0,1,.578,1.764Zm-2.257-1.78a1.5,1.5,0,0,0-1.018.35,1.583,1.583,0,0,0-.515,1.007h2.922a1.456,1.456,0,0,0-.426-1.007,1.367,1.367,0,0,0-.966-.369Z" transform="translate(-333.445 -173.028)"/>
    <path id="Trazado_102088" data-name="Trazado 102088" d="M324.43,234.994l-.6-1.672h-3.179l-.578,1.672h-.929L321.715,228h1.062l2.582,6.994Zm-3.472-2.448h2.6l-1.335-3.637Z" transform="translate(-319.14 -178.838)"/>
    <path id="Trazado_102089" data-name="Trazado 102089" d="M331.9,235.271a1.272,1.272,0,0,1-.954-.35,1.317,1.317,0,0,1-.349-.973v-2.874h-1v-.685h.369a.687.687,0,0,0,.534-.168.82.82,0,0,0,.159-.573v-.888h.8v1.629h1.119v.687h-1.119v2.785a.744.744,0,0,0,.185.534.635.635,0,0,0,.49.191h.445v.687Z" transform="translate(-322.95 -179.114)"/>
    <path id="Trazado_102090" data-name="Trazado 102090" d="M340.216,233.623v.235H336.4a1.71,1.71,0,0,0,.464,1.272,1.525,1.525,0,0,0,1.112.439,1.482,1.482,0,0,0,.808-.235,1.511,1.511,0,0,0,.559-.636l.776.168a2.244,2.244,0,0,1-.833,1.049,2.282,2.282,0,0,1-1.272.381,2.372,2.372,0,0,1-1.763-.68,2.918,2.918,0,0,1,0-3.713,2.351,2.351,0,0,1,1.736-.68,2.2,2.2,0,0,1,1.641.636,2.467,2.467,0,0,1,.588,1.767Zm-2.257-1.78a1.5,1.5,0,0,0-1.018.349,1.583,1.583,0,0,0-.515,1.007h2.925a1.427,1.427,0,0,0-.426-1.008,1.361,1.361,0,0,0-.966-.331Z" transform="translate(-325.131 -180.01)"/>
    <path id="Trazado_102091" data-name="Trazado 102091" d="M347.3,231.189a1.717,1.717,0,0,1,1.233.445,1.653,1.653,0,0,1,.458,1.272v3.249h-.858v-3.1a1.163,1.163,0,0,0-.3-.871,1.049,1.049,0,0,0-.763-.286,1.183,1.183,0,0,0-.871.336,1.393,1.393,0,0,0-.343,1v2.917H345v-4.883h.858v.636a1.628,1.628,0,0,1,1.437-.715Z" transform="translate(-328.558 -179.998)"/>
    <path id="Trazado_102092" data-name="Trazado 102092" d="M355.673,236.256a2.333,2.333,0,0,1-1.749-.7,2.771,2.771,0,0,1,0-3.662,2.34,2.34,0,0,1,1.755-.706,2.366,2.366,0,0,1,1.411.432,2.117,2.117,0,0,1,.82,1.183l-.8.133a1.494,1.494,0,0,0-.553-.763,1.511,1.511,0,0,0-.884-.267,1.443,1.443,0,0,0-1.132.5,2.162,2.162,0,0,0,0,2.626,1.443,1.443,0,0,0,1.132.5,1.511,1.511,0,0,0,.884-.267,1.5,1.5,0,0,0,.553-.763l.8.134a2.111,2.111,0,0,1-.826,1.189,2.359,2.359,0,0,1-1.411.423Z" transform="translate(-331.556 -179.999)"/>
    <path id="Trazado_102093" data-name="Trazado 102093" d="M362.929,228.88a.553.553,0,0,1-.407-.168.566.566,0,0,1-.168-.413.554.554,0,0,1,.168-.407.588.588,0,0,1,.814,0,.553.553,0,0,1,.168.407.566.566,0,0,1-.168.413.553.553,0,0,1-.406.168Zm-.432,6.027v-4.883h.858v4.87Z" transform="translate(-334.877 -178.737)"/>
    <path id="Trazado_102094" data-name="Trazado 102094" d="M368.5,234.923a2.543,2.543,0,0,1-1.272-.306,2.183,2.183,0,0,1-.884-.884,2.727,2.727,0,0,1-.324-1.348,2.543,2.543,0,0,1,.693-1.847,2.6,2.6,0,0,1,3.535,0,2.8,2.8,0,0,1,0,3.687A2.4,2.4,0,0,1,368.5,234.923Zm0-.712a1.511,1.511,0,0,0,1.157-.5,1.907,1.907,0,0,0,.458-1.322,1.863,1.863,0,0,0-.458-1.316,1.494,1.494,0,0,0-1.157-.5,1.475,1.475,0,0,0-1.144.5,1.862,1.862,0,0,0-.452,1.316,1.907,1.907,0,0,0,.452,1.322,1.5,1.5,0,0,0,1.138.5Zm-.324-5.087,1.272-1.615.458.331-1.112,1.272Z" transform="translate(-336.212 -178.659)"/>
    <path id="Trazado_102095" data-name="Trazado 102095" d="M378.208,231.188a1.71,1.71,0,0,1,1.227.445,1.653,1.653,0,0,1,.458,1.272v3.249h-.858v-3.1a1.138,1.138,0,0,0-.3-.871,1.049,1.049,0,0,0-.763-.286,1.2,1.2,0,0,0-.871.336,1.392,1.392,0,0,0-.343,1v2.916H375.9v-4.883h.858v.636a1.627,1.627,0,0,1,1.45-.715Z" transform="translate(-339.811 -179.998)"/>
  </g>
  <g id="Grupo_57669" data-name="Grupo 57669" transform="translate(203.545 74.12)">
    <path id="Trazado_102096" data-name="Trazado 102096" d="M323.118,117.108a2.168,2.168,0,0,1,1.653.636,2.346,2.346,0,0,1,.635,1.653,2.257,2.257,0,0,1-.636,1.641,2.183,2.183,0,0,1-1.653.636h-1.5v2.543H320.13v-7.109Zm-.252,3.358a1.068,1.068,0,0,0,.82-.28,1.049,1.049,0,0,0,.274-.776,1.068,1.068,0,0,0-.274-.769,1.091,1.091,0,0,0-.82-.286h-1.272v2.111Z" transform="translate(-320.13 -116.768)"/>
    <path id="Trazado_102097" data-name="Trazado 102097" d="M331.947,125.537a3.274,3.274,0,0,1-1.443-.311,2.351,2.351,0,0,1-.992-.924,2.707,2.707,0,0,1-.363-1.427,2.543,2.543,0,0,1,.776-1.908,3.237,3.237,0,0,1,4.05,0,2.824,2.824,0,0,1,0,3.885,2.874,2.874,0,0,1-2.028.685Zm0-1.138a1.316,1.316,0,0,0,1.007-.42,1.552,1.552,0,0,0,.381-1.1,1.583,1.583,0,0,0-.381-1.107,1.335,1.335,0,0,0-1.007-.413,1.271,1.271,0,0,0-.979.42,1.774,1.774,0,0,0,0,2.2,1.272,1.272,0,0,0,.966.42Z" transform="translate(-323.415 -117.916)"/>
    <path id="Trazado_102098" data-name="Trazado 102098" d="M341.189,125.519a2.906,2.906,0,0,1-1.494-.356,1.526,1.526,0,0,1-.725-1.068l1.2-.336a.96.96,0,0,0,1.023.763,1.007,1.007,0,0,0,.521-.121.4.4,0,0,0,.2-.395.439.439,0,0,0-.084-.261.789.789,0,0,0-.26-.191l-.35-.133-.458-.133a4.737,4.737,0,0,1-.47-.146,2.754,2.754,0,0,1-.452-.191,1.7,1.7,0,0,1-.369-.26,1.06,1.06,0,0,1-.28-.4,1.469,1.469,0,0,1-.1-.547,1.31,1.31,0,0,1,.553-1.144,2.505,2.505,0,0,1,1.45-.388,2.543,2.543,0,0,1,1.335.331,1.475,1.475,0,0,1,.687,1.023l-1.112.252a.858.858,0,0,0-.9-.636.979.979,0,0,0-.5.114.375.375,0,0,0-.2.343.405.405,0,0,0,0,.153.305.305,0,0,0,.1.121l.146.1a.944.944,0,0,0,.2.084,1.835,1.835,0,0,0,.222.064l.26.07.267.07c.185.051.343.1.484.146a3.357,3.357,0,0,1,.439.21,1.693,1.693,0,0,1,.381.3,1.456,1.456,0,0,1,.252.426,1.576,1.576,0,0,1,.1.566,1.52,1.52,0,0,1-.168.737,1.271,1.271,0,0,1-.47.5,2.256,2.256,0,0,1-.636.267A3.459,3.459,0,0,1,341.189,125.519Z" transform="translate(-326.991 -117.898)"/>
    <path id="Trazado_102099" data-name="Trazado 102099" d="M348.052,118.226a.827.827,0,1,1,.757-.824.819.819,0,0,1-.757.824Zm-.731,5.869v-5.087h1.443v5.087Z" transform="translate(-329.996 -116.576)"/>
    <path id="Trazado_102100" data-name="Trazado 102100" d="M353.529,124.533a1.532,1.532,0,0,1-1.157-.413,1.628,1.628,0,0,1-.407-1.183v-2.41h-1.007v-1.1h.324a.84.84,0,0,0,.636-.21,1.1,1.1,0,0,0,.2-.763v-.672h1.272v1.646h1.055v1.1h-1.055v2.257c0,.445.2.636.588.636h.464v1.091Z" transform="translate(-331.357 -117.014)"/>
    <path id="Trazado_102101" data-name="Trazado 102101" d="M358.865,118.226a.8.8,0,0,1-.588-.242.776.776,0,0,1-.242-.588.8.8,0,0,1,.242-.578.82.82,0,0,1,.588-.242.808.808,0,0,1,.579.242.82.82,0,0,1,0,1.164.808.808,0,0,1-.578.244Zm-.731,5.869v-5.086h1.443v5.086Z" transform="translate(-333.935 -116.576)"/>
    <path id="Trazado_102102" data-name="Trazado 102102" d="M365.662,120.37h1.52L365,125.456h-1.269l-2.149-5.086h1.539l1.272,3.491Z" transform="translate(-335.226 -117.957)"/>
    <path id="Trazado_102103" data-name="Trazado 102103" d="M373.4,125.536a3.287,3.287,0,0,1-1.45-.311,2.3,2.3,0,0,1-.986-.924,2.709,2.709,0,0,1-.363-1.427,2.486,2.486,0,0,1,.776-1.908,3.224,3.224,0,0,1,4.044,0,2.823,2.823,0,0,1,0,3.885A2.855,2.855,0,0,1,373.4,125.536Zm0-1.138a1.271,1.271,0,0,0,1.008-.42,1.532,1.532,0,0,0,.388-1.1,1.557,1.557,0,0,0-.388-1.107,1.316,1.316,0,0,0-1.008-.407,1.272,1.272,0,0,0-.979.42,1.774,1.774,0,0,0,0,2.2,1.272,1.272,0,0,0,.979.415Z" transform="translate(-338.509 -117.916)"/>
  </g>
  <g id="Grupo_57670" data-name="Grupo 57670" transform="translate(282.488 95.96)">
    <path id="Trazado_102104" data-name="Trazado 102104" d="M449.328,152.051h-2.849v2.289h2.543v.8h-2.543v2.321h2.842v.808H445.57v-6.994h3.751Z" transform="translate(-444.756 -151.049)"/>
    <path id="Trazado_102105" data-name="Trazado 102105" d="M456.111,154.389a1.723,1.723,0,0,1,1.233.445,1.653,1.653,0,0,1,.458,1.272v3.287h-.858v-3.1a1.164,1.164,0,0,0-.3-.871,1.068,1.068,0,0,0-.769-.286,1.175,1.175,0,0,0-.865.336,1.343,1.343,0,0,0-.343,1v2.918h-.858v-4.883h.858v.636a1.628,1.628,0,0,1,1.443-.755Z" transform="translate(-447.757 -152.184)"/>
    <path id="Trazado_102106" data-name="Trazado 102106" d="M464.509,159.463a2.544,2.544,0,0,1-1.272-.3,2.175,2.175,0,0,1-.877-.884,2.735,2.735,0,0,1-.331-1.348,2.543,2.543,0,0,1,.693-1.847,2.6,2.6,0,0,1,3.535,0,2.8,2.8,0,0,1,0,3.687A2.384,2.384,0,0,1,464.509,159.463Zm0-.712a1.511,1.511,0,0,0,1.157-.5,1.907,1.907,0,0,0,.458-1.322,1.863,1.863,0,0,0-.458-1.316,1.5,1.5,0,0,0-1.157-.5,1.475,1.475,0,0,0-1.144.5,2.153,2.153,0,0,0,0,2.639,1.5,1.5,0,0,0,1.138.5Z" transform="translate(-450.75 -152.185)"/>
    <path id="Trazado_102107" data-name="Trazado 102107" d="M470.15,160.391v-.731a1.427,1.427,0,0,0,.7-.14.77.77,0,0,0,.331-.477,4,4,0,0,0,.1-1.007v-4.813h.865v4.813a2.817,2.817,0,0,1-.452,1.825,1.908,1.908,0,0,1-1.539.534Zm1.564-8.317a.553.553,0,0,1-.407-.168.566.566,0,0,1-.168-.413.553.553,0,0,1,.168-.407.588.588,0,0,1,.814,0,.553.553,0,0,1,.168.407.566.566,0,0,1-.168.413.553.553,0,0,1-.406.173Z" transform="translate(-453.708 -150.922)"/>
    <path id="Trazado_102108" data-name="Trazado 102108" d="M477.858,159.463a2.543,2.543,0,0,1-1.272-.3,2.148,2.148,0,0,1-.884-.884,2.728,2.728,0,0,1-.324-1.348,2.493,2.493,0,0,1,.693-1.847,2.6,2.6,0,0,1,3.536,0,2.543,2.543,0,0,1,.687,1.847,2.486,2.486,0,0,1-.693,1.847,2.372,2.372,0,0,1-1.742.693Zm0-.712a1.5,1.5,0,0,0,1.151-.5,1.863,1.863,0,0,0,.464-1.322,1.838,1.838,0,0,0-.464-1.316,1.481,1.481,0,0,0-1.151-.5,1.456,1.456,0,0,0-1.144.5,1.863,1.863,0,0,0-.458,1.316,1.908,1.908,0,0,0,.458,1.322,1.482,1.482,0,0,0,1.138.5Z" transform="translate(-455.611 -152.185)"/>
    <path id="Trazado_102109" data-name="Trazado 102109" d="M448.232,170.42a2.059,2.059,0,0,1,1.1.292,1.951,1.951,0,0,1,.731.776,2.281,2.281,0,0,1,.26,1.081,2.136,2.136,0,0,1-.578,1.52,1.99,1.99,0,0,1-1.511.636H446.49v2.715h-.89v-6.994Zm-.127,3.5a1.272,1.272,0,0,0,.973-.375,1.551,1.551,0,0,0,0-1.977,1.271,1.271,0,0,0-.973-.381H446.49v2.734Z" transform="translate(-444.767 -158.023)"/>
    <path id="Trazado_102110" data-name="Trazado 102110" d="M458.507,176.053v.235h-3.815a1.71,1.71,0,0,0,.47,1.272,1.525,1.525,0,0,0,1.112.439,1.482,1.482,0,0,0,.808-.235,1.551,1.551,0,0,0,.559-.636l.769.168a2.168,2.168,0,0,1-.833,1.049,2.283,2.283,0,0,1-1.272.381,2.359,2.359,0,0,1-1.755-.68,2.9,2.9,0,0,1,0-3.713,2.34,2.34,0,0,1,1.73-.68,2.206,2.206,0,0,1,1.646.636A2.493,2.493,0,0,1,458.507,176.053Zm-2.267-1.78a1.494,1.494,0,0,0-1.007.349,1.583,1.583,0,0,0-.515,1.007h2.925a1.456,1.456,0,0,0-.426-1.007,1.374,1.374,0,0,0-.97-.35Z" transform="translate(-447.781 -159.199)"/>
    <path id="Trazado_102111" data-name="Trazado 102111" d="M463.28,177.05v-7.63h.865v7.63Z" transform="translate(-451.206 -157.659)"/>
    <path id="Trazado_102112" data-name="Trazado 102112" d="M467.749,171.28a.553.553,0,0,1-.407-.168.566.566,0,0,1-.168-.413.553.553,0,0,1,.168-.407.588.588,0,0,1,.814,0,.553.553,0,0,1,.168.407.567.567,0,0,1-.168.413A.553.553,0,0,1,467.749,171.28Zm-.438,6.027v-4.883h.865v4.883Z" transform="translate(-452.623 -157.916)"/>
    <path id="Trazado_102113" data-name="Trazado 102113" d="M474.794,173.7h.84v4.618a2.485,2.485,0,0,1-4.756,1.081l.712-.35a1.615,1.615,0,0,0,1.641,1.175,1.411,1.411,0,0,0,1.144-.477,2.054,2.054,0,0,0,.394-1.335v-.9a1.736,1.736,0,0,1-.7.706,2.143,2.143,0,0,1-2.594-.426,2.435,2.435,0,0,1-.636-1.735,2.4,2.4,0,0,1,.636-1.729,2.117,2.117,0,0,1,1.589-.687,2.021,2.021,0,0,1,1.055.229,1.787,1.787,0,0,1,.687.725Zm-1.545,4.018a1.494,1.494,0,0,0,1.125-.5,1.723,1.723,0,0,0,.464-1.2,1.679,1.679,0,0,0-.464-1.2,1.456,1.456,0,0,0-1.125-.5,1.481,1.481,0,0,0-1.125.484,1.717,1.717,0,0,0-.458,1.215,1.691,1.691,0,0,0,.464,1.208,1.482,1.482,0,0,0,1.117.492Z" transform="translate(-453.958 -159.194)"/>
    <path id="Trazado_102114" data-name="Trazado 102114" d="M481.97,174.58a1.488,1.488,0,0,1,.6-.636,1.831,1.831,0,0,1,.941-.252v.808a1.621,1.621,0,0,0-1.138.363,1.511,1.511,0,0,0-.388,1.157v2.6h-.858V173.74h.84Z" transform="translate(-457.707 -159.215)"/>
    <path id="Trazado_102115" data-name="Trazado 102115" d="M488.179,178.663a2.543,2.543,0,0,1-1.272-.3,2.15,2.15,0,0,1-.884-.884,2.728,2.728,0,0,1-.324-1.348,2.493,2.493,0,0,1,.693-1.847,2.4,2.4,0,0,1,1.763-.693,2.422,2.422,0,0,1,1.774.693,2.543,2.543,0,0,1,.687,1.847,2.486,2.486,0,0,1-.694,1.847,2.384,2.384,0,0,1-1.742.693Zm0-.712a1.5,1.5,0,0,0,1.151-.5,1.908,1.908,0,0,0,.464-1.322,1.87,1.87,0,0,0-.464-1.316,1.482,1.482,0,0,0-1.151-.5,1.456,1.456,0,0,0-1.144.5,1.863,1.863,0,0,0-.458,1.316,1.908,1.908,0,0,0,.458,1.322,1.481,1.481,0,0,0,1.144.5Z" transform="translate(-459.369 -159.176)"/>
    <path id="Trazado_102116" data-name="Trazado 102116" d="M445.58,196.613V189.62h2.257a3.383,3.383,0,0,1,1.781.452,2.817,2.817,0,0,1,1.091,1.233,4.318,4.318,0,0,1,.356,1.806,4.517,4.517,0,0,1-.21,1.418,3.107,3.107,0,0,1-.6,1.107,2.67,2.67,0,0,1-1.018.725,3.586,3.586,0,0,1-1.4.252Zm.89-.808H447.8a2.143,2.143,0,0,0,1.749-.719,3.039,3.039,0,0,0,.588-1.977,3,3,0,0,0-.588-1.965,2.124,2.124,0,0,0-1.742-.712h-1.322Z" transform="translate(-444.76 -165.015)"/>
    <path id="Trazado_102117" data-name="Trazado 102117" d="M460.617,195.234v.235H456.8a1.71,1.71,0,0,0,.464,1.272,1.526,1.526,0,0,0,1.112.439,1.481,1.481,0,0,0,.808-.235,1.507,1.507,0,0,0,.559-.636l.776.168a2.213,2.213,0,0,1-.84,1.049,2.251,2.251,0,0,1-1.272.381,2.372,2.372,0,0,1-1.793-.719,2.918,2.918,0,0,1,0-3.713,2.351,2.351,0,0,1,1.735-.68,2.2,2.2,0,0,1,1.64.636,2.467,2.467,0,0,1,.625,1.8Zm-2.257-1.78a1.5,1.5,0,0,0-1.018.35,1.583,1.583,0,0,0-.515,1.007h2.925a1.427,1.427,0,0,0-.426-1.008,1.36,1.36,0,0,0-.967-.353Z" transform="translate(-448.537 -166.169)"/>
    <path id="Trazado_102118" data-name="Trazado 102118" d="M466.722,197.877a2.308,2.308,0,0,1-1.316-.35,1.468,1.468,0,0,1-.636-1.007l.751-.216a1.029,1.029,0,0,0,.4.68,1.3,1.3,0,0,0,.8.242,1.794,1.794,0,0,0,.47-.064.814.814,0,0,0,.363-.242.636.636,0,0,0,.14-.445.527.527,0,0,0-.038-.2.743.743,0,0,0-.084-.159.381.381,0,0,0-.133-.134,1.221,1.221,0,0,0-.394-.2l-.235-.084-.274-.076-.28-.084a4.981,4.981,0,0,1-.509-.178,2.121,2.121,0,0,1-.413-.235.947.947,0,0,1-.318-.388,1.215,1.215,0,0,1-.1-.534,1.272,1.272,0,0,1,.235-.782,1.367,1.367,0,0,1,.636-.458,2.444,2.444,0,0,1,.865-.14,2.136,2.136,0,0,1,1.189.318,1.336,1.336,0,0,1,.588.954l-.7.178a.935.935,0,0,0-.375-.636,1.182,1.182,0,0,0-.7-.21,1.2,1.2,0,0,0-.636.168.578.578,0,0,0-.274.528.484.484,0,0,0,.07.267.636.636,0,0,0,.413.336,2.718,2.718,0,0,0,.292.108l.356.089h.076l.464.133a3.916,3.916,0,0,1,.426.178,1.545,1.545,0,0,1,.381.267,1.27,1.27,0,0,1,.235.375,1.422,1.422,0,0,1,.1.528,1.469,1.469,0,0,1-.146.636,1.182,1.182,0,0,1-.4.445,1.778,1.778,0,0,1-.573.252,2.6,2.6,0,0,1-.719.139Z" transform="translate(-451.748 -166.183)"/>
    <path id="Trazado_102119" data-name="Trazado 102119" d="M473.706,197.869a1.666,1.666,0,0,1-1.068-.336,1.2,1.2,0,0,1-.42-1,1.4,1.4,0,0,1,.133-.636,1.08,1.08,0,0,1,.4-.445,2.172,2.172,0,0,1,.573-.28,5.85,5.85,0,0,1,.744-.178l.788-.127c.286-.051.432-.2.432-.452a.845.845,0,0,0-.306-.725,1.226,1.226,0,0,0-.776-.235,1.271,1.271,0,0,0-.763.222.96.96,0,0,0-.363.687l-.776-.168a1.526,1.526,0,0,1,.636-1.043,2.289,2.289,0,0,1,1.335-.35,2.745,2.745,0,0,1,.706.089,1.792,1.792,0,0,1,.588.274,1.233,1.233,0,0,1,.42.521,1.965,1.965,0,0,1,.153.808v2.015a.82.82,0,0,0,.114.509.47.47,0,0,0,.381.134h.084v.636H476.3c-.528,0-.84-.216-.929-.636h-.038A1.847,1.847,0,0,1,473.706,197.869Zm.2-.693a1.3,1.3,0,0,0,1.049-.477,1.958,1.958,0,0,0,.395-1.272l-1.272.252a1.7,1.7,0,0,0-.756.274.711.711,0,0,0-.013,1.068.985.985,0,0,0,.6.159Z" transform="translate(-454.46 -166.175)"/>
    <path id="Trazado_102120" data-name="Trazado 102120" d="M483.032,189.342h-.369a.9.9,0,0,0-.178,0l-.153.051a.356.356,0,0,0-.146.084l-.114.127a.44.44,0,0,0-.095.178,1.7,1.7,0,0,0-.057.242,2.2,2.2,0,0,0,0,.3v1.007h1.132v.712h-1.132v4.2h-.858v-4.2h-.943v-.687h.941v-1.027a3.021,3.021,0,0,1,.051-.566,2.161,2.161,0,0,1,.14-.432,1.117,1.117,0,0,1,.235-.311,1.817,1.817,0,0,1,.3-.21,1.393,1.393,0,0,1,.369-.121,3.553,3.553,0,0,1,.42-.064h.477Z" transform="translate(-457.339 -164.655)"/>
    <path id="Trazado_102121" data-name="Trazado 102121" d="M486.26,196.417v-4.885h.865v4.883Zm.108-5.723,1.272-1.615.458.331-1.112,1.272Z" transform="translate(-459.575 -164.819)"/>
    <path id="Trazado_102122" data-name="Trazado 102122" d="M492.178,197.863a2.543,2.543,0,0,1-1.272-.3,2.149,2.149,0,0,1-.884-.884,2.727,2.727,0,0,1-.324-1.348,2.492,2.492,0,0,1,.693-1.847,2.4,2.4,0,0,1,1.763-.693,2.422,2.422,0,0,1,1.774.693,2.544,2.544,0,0,1,.687,1.847,2.486,2.486,0,0,1-.693,1.847,2.383,2.383,0,0,1-1.743.69Zm0-.712a1.5,1.5,0,0,0,1.151-.5,1.907,1.907,0,0,0,.464-1.322,1.87,1.87,0,0,0-.464-1.316,1.481,1.481,0,0,0-1.151-.5,1.456,1.456,0,0,0-1.144.5,1.863,1.863,0,0,0-.458,1.316,1.908,1.908,0,0,0,.458,1.322,1.481,1.481,0,0,0,1.144.5Z" transform="translate(-460.825 -166.169)"/>
    <path id="Trazado_102123" data-name="Trazado 102123" d="M449.6,215.814l-.6-1.672h-3.179l-.6,1.672H444.3l2.582-6.994h1.062l2.575,6.994Zm-3.478-2.429h2.6l-1.3-3.643Z" transform="translate(-444.293 -172.007)"/>
    <path id="Trazado_102124" data-name="Trazado 102124" d="M459.126,212.089h.833v4.635A2.485,2.485,0,0,1,455.2,217.8l.712-.349a1.615,1.615,0,0,0,1.634,1.132,1.392,1.392,0,0,0,1.144-.477,2.015,2.015,0,0,0,.395-1.335v-.9a1.723,1.723,0,0,1-.693.706,2.073,2.073,0,0,1-1.018.26,2.1,2.1,0,0,1-1.583-.687,2.429,2.429,0,0,1-.636-1.735,2.378,2.378,0,0,1,.635-1.73,2.091,2.091,0,0,1,1.582-.688,2,2,0,0,1,1.023.274,1.763,1.763,0,0,1,.693.725Zm-1.526,4.018a1.475,1.475,0,0,0,1.125-.5,1.781,1.781,0,0,0,0-2.39,1.481,1.481,0,0,0-1.132-.5,1.5,1.5,0,0,0-1.125.483,1.717,1.717,0,0,0-.458,1.214,1.691,1.691,0,0,0,.464,1.208,1.511,1.511,0,0,0,1.125.493Z" transform="translate(-448.247 -173.166)"/>
    <path id="Trazado_102125" data-name="Trazado 102125" d="M466.314,212.98a1.511,1.511,0,0,1,.636-.636,1.806,1.806,0,0,1,.934-.252v.808a1.6,1.6,0,0,0-1.132.363,1.511,1.511,0,0,0-.395,1.157v2.6H465.5V212.14h.84Z" transform="translate(-452.014 -173.199)"/>
    <path id="Trazado_102126" data-name="Trazado 102126" d="M474.767,214.446v.235h-3.815a1.71,1.71,0,0,0,.464,1.272,1.526,1.526,0,0,0,1.112.439,1.475,1.475,0,0,0,1.367-.884l.776.168a2.205,2.205,0,0,1-.833,1.049,2.283,2.283,0,0,1-1.272.381,2.384,2.384,0,0,1-1.763-.68,2.906,2.906,0,0,1,0-3.713,2.327,2.327,0,0,1,1.73-.68,2.2,2.2,0,0,1,1.641.636,2.467,2.467,0,0,1,.594,1.777Zm-2.257-1.781a1.5,1.5,0,0,0-1.018.35,1.583,1.583,0,0,0-.516,1.007H473.9a1.427,1.427,0,0,0-.426-1.008,1.347,1.347,0,0,0-.966-.369Z" transform="translate(-453.702 -173.176)"/>
    <path id="Trazado_102127" data-name="Trazado 102127" d="M480.882,217.107a2.308,2.308,0,0,1-1.316-.35,1.469,1.469,0,0,1-.635-1.008l.751-.216a1.08,1.08,0,0,0,.4.68,1.315,1.315,0,0,0,.8.252,1.79,1.79,0,0,0,.47-.064.814.814,0,0,0,.363-.242.636.636,0,0,0,.14-.445.53.53,0,0,0-.038-.2.745.745,0,0,0-.076-.159.407.407,0,0,0-.14-.133,1.453,1.453,0,0,0-.168-.108,1.612,1.612,0,0,0-.217-.089l-.242-.084-.274-.076-.28-.084c-.2-.064-.375-.121-.509-.178a2.331,2.331,0,0,1-.413-.235.946.946,0,0,1-.318-.388,1.31,1.31,0,0,1-.108-.547,1.272,1.272,0,0,1,.242-.776,1.322,1.322,0,0,1,.636-.464,2.441,2.441,0,0,1,.865-.14,2.123,2.123,0,0,1,1.189.318,1.36,1.36,0,0,1,.6.954l-.706.178a.934.934,0,0,0-.375-.636,1.17,1.17,0,0,0-.7-.21,1.215,1.215,0,0,0-.636.168.579.579,0,0,0-.274.528.54.54,0,0,0,.07.267,1.05,1.05,0,0,0,.146.191.8.8,0,0,0,.274.146,2.3,2.3,0,0,0,.286.108l.356.089h.076l.47.133a3.409,3.409,0,0,1,.42.178,1.545,1.545,0,0,1,.381.267,1.334,1.334,0,0,1,.336.9,1.469,1.469,0,0,1-.146.636,1.144,1.144,0,0,1-.4.452,1.908,1.908,0,0,1-.566.242,2.64,2.64,0,0,1-.732.145Z" transform="translate(-456.905 -173.185)"/>
    <path id="Trazado_102128" data-name="Trazado 102128" d="M487.279,209.68a.553.553,0,0,1-.407-.168.566.566,0,0,1-.168-.413.553.553,0,0,1,.168-.407.588.588,0,0,1,.814,0,.553.553,0,0,1,.168.407.566.566,0,0,1-.168.413.553.553,0,0,1-.407.168Zm-.438,6.027v-4.883h.865v4.883Z" transform="translate(-459.735 -171.9)"/>
    <path id="Trazado_102129" data-name="Trazado 102129" d="M492.848,215.753a2.543,2.543,0,0,1-1.272-.3,2.187,2.187,0,0,1-.884-.884,2.728,2.728,0,0,1-.324-1.348,2.493,2.493,0,0,1,.693-1.847,2.6,2.6,0,0,1,3.535,0,2.8,2.8,0,0,1,0,3.687,2.4,2.4,0,0,1-1.749.693Zm0-.712a1.525,1.525,0,0,0,1.157-.5,1.907,1.907,0,0,0,.458-1.322A1.862,1.862,0,0,0,494,211.9a1.5,1.5,0,0,0-1.157-.5,1.475,1.475,0,0,0-1.144.5,1.863,1.863,0,0,0-.458,1.316,1.908,1.908,0,0,0,.458,1.322,1.5,1.5,0,0,0,1.138.484Zm-.324-5.086,1.272-1.615.458.331-1.112,1.272Z" transform="translate(-461.07 -171.833)"/>
    <path id="Trazado_102130" data-name="Trazado 102130" d="M502.559,212a1.71,1.71,0,0,1,1.227.445,1.653,1.653,0,0,1,.458,1.272V217h-.858v-3.1a1.144,1.144,0,0,0-.3-.877,1.049,1.049,0,0,0-.763-.286,1.2,1.2,0,0,0-.871.336,1.392,1.392,0,0,0-.343,1V217h-.859v-4.883h.858v.636a1.628,1.628,0,0,1,1.451-.749Z" transform="translate(-464.67 -173.164)"/>
    <path id="Trazado_102131" data-name="Trazado 102131" d="M448.766,228v.814h-1.793v6.18h-.884v-6.168h-1.8V228Z" transform="translate(-444.29 -178.992)"/>
    <path id="Trazado_102132" data-name="Trazado 102132" d="M455.928,233.623v.235h-3.815a1.735,1.735,0,0,0,.47,1.272,1.526,1.526,0,0,0,1.113.439,1.482,1.482,0,0,0,.808-.235,1.552,1.552,0,0,0,.559-.636l.776.168a2.212,2.212,0,0,1-.84,1.049,2.267,2.267,0,0,1-1.272.381,2.358,2.358,0,0,1-1.755-.68,2.893,2.893,0,0,1,0-3.713,2.351,2.351,0,0,1,1.735-.68,2.2,2.2,0,0,1,1.641.636,2.468,2.468,0,0,1,.58,1.764Zm-2.257-1.78a1.5,1.5,0,0,0-1.018.349,1.583,1.583,0,0,0-.515,1.007h2.925a1.456,1.456,0,0,0-.426-1.007,1.361,1.361,0,0,0-.986-.331Z" transform="translate(-446.842 -180.165)"/>
    <path id="Trazado_102133" data-name="Trazado 102133" d="M463,231.188a1.723,1.723,0,0,1,1.233.445,1.653,1.653,0,0,1,.458,1.272v3.249h-.858v-3.1a1.164,1.164,0,0,0-.3-.871,1.062,1.062,0,0,0-.763-.286,1.183,1.183,0,0,0-.871.336,1.343,1.343,0,0,0-.343,1v2.917H460.7v-4.883h.858v.636a1.628,1.628,0,0,1,1.443-.715Z" transform="translate(-450.267 -180.153)"/>
    <path id="Trazado_102134" data-name="Trazado 102134" d="M470.882,236.27a2.308,2.308,0,0,1-1.316-.35,1.468,1.468,0,0,1-.636-1.007l.751-.216a1.03,1.03,0,0,0,.4.68,1.272,1.272,0,0,0,.8.242,1.79,1.79,0,0,0,.47-.064.763.763,0,0,0,.356-.242.636.636,0,0,0,.146-.445.527.527,0,0,0-.038-.2.741.741,0,0,0-.084-.159.381.381,0,0,0-.134-.133,1.468,1.468,0,0,0-.168-.108,1.442,1.442,0,0,0-.223-.089l-.235-.084-.274-.076-.28-.084a4.988,4.988,0,0,1-.509-.178,2.121,2.121,0,0,1-.413-.235.947.947,0,0,1-.318-.388,1.213,1.213,0,0,1-.108-.547,1.271,1.271,0,0,1,.235-.783,1.367,1.367,0,0,1,.636-.458,2.416,2.416,0,0,1,.865-.14,2.136,2.136,0,0,1,1.189.318,1.335,1.335,0,0,1,.588.954l-.706.178a.909.909,0,0,0-.369-.636,1.278,1.278,0,0,0-1.335-.042.578.578,0,0,0-.274.528.483.483,0,0,0,.07.267.679.679,0,0,0,.146.191.824.824,0,0,0,.267.146,2.714,2.714,0,0,0,.292.108l.356.089h.07l.47.133a3.889,3.889,0,0,1,.426.178,1.386,1.386,0,0,1,.375.267,1.158,1.158,0,0,1,.242.375,1.418,1.418,0,0,1,.1.528,1.469,1.469,0,0,1-.146.636,1.182,1.182,0,0,1-.4.445,1.78,1.78,0,0,1-.573.252A2.592,2.592,0,0,1,470.882,236.27Z" transform="translate(-453.264 -180.16)"/>
    <path id="Trazado_102135" data-name="Trazado 102135" d="M477.325,228.881a.588.588,0,0,1-.588-.588.553.553,0,0,1,.168-.394.588.588,0,0,1,.82,0,.546.546,0,0,1,.168.407.572.572,0,0,1-.573.588Zm-.42,6.015v-4.883h.865V234.9Z" transform="translate(-456.107 -178.897)"/>
    <path id="Trazado_102136" data-name="Trazado 102136" d="M482.917,234.923a2.543,2.543,0,0,1-1.272-.306,2.149,2.149,0,0,1-.833-.884,2.728,2.728,0,0,1-.324-1.348,2.492,2.492,0,0,1,.693-1.847,2.4,2.4,0,0,1,1.763-.693,2.422,2.422,0,0,1,1.774.693,2.543,2.543,0,0,1,.687,1.847,2.486,2.486,0,0,1-.694,1.847,2.378,2.378,0,0,1-1.793.693Zm0-.712a1.5,1.5,0,0,0,1.151-.5,1.907,1.907,0,0,0,.464-1.322,1.87,1.87,0,0,0-.464-1.316,1.481,1.481,0,0,0-1.151-.5,1.456,1.456,0,0,0-1.144.5,1.863,1.863,0,0,0-.458,1.316,1.907,1.907,0,0,0,.458,1.322A1.481,1.481,0,0,0,482.917,234.211Zm-.321-5.086,1.272-1.615.458.331-1.112,1.272Z" transform="translate(-457.471 -178.814)"/>
    <path id="Trazado_102137" data-name="Trazado 102137" d="M492.6,231.188a1.717,1.717,0,0,1,1.233.445,1.653,1.653,0,0,1,.458,1.272v3.249h-.858v-3.1a1.164,1.164,0,0,0-.3-.871,1.049,1.049,0,0,0-.763-.286,1.183,1.183,0,0,0-.871.336,1.393,1.393,0,0,0-.343,1v2.917H490.3v-4.883h.858v.636a1.628,1.628,0,0,1,1.444-.715Z" transform="translate(-461.046 -180.153)"/>
  </g>
  <g id="Grupo_57671" data-name="Grupo 57671" transform="translate(283.118 74.123)">
    <path id="Trazado_102138" data-name="Trazado 102138" d="M450.188,117.11h1.482v7.178h-1.723l-3.179-5.131v5.131H445.28V117.11h1.73l3.179,5.086Z" transform="translate(-445.28 -116.773)"/>
    <path id="Trazado_102139" data-name="Trazado 102139" d="M462.494,122.781v.343H458.68a1.31,1.31,0,0,0,.407.934,1.386,1.386,0,0,0,1.571.146,1.112,1.112,0,0,0,.432-.515l1.31.191a2.232,2.232,0,0,1-.9,1.2,2.687,2.687,0,0,1-1.507.426,2.759,2.759,0,0,1-1.99-.706,2.543,2.543,0,0,1-.738-1.945,2.6,2.6,0,0,1,.738-1.952,2.687,2.687,0,0,1,1.945-.712,2.333,2.333,0,0,1,2.543,2.588Zm-2.543-1.577a1.132,1.132,0,0,0-1.24.986h2.347a1.075,1.075,0,0,0-.356-.731,1.126,1.126,0,0,0-.725-.252Z" transform="translate(-449.644 -117.892)"/>
    <path id="Trazado_102140" data-name="Trazado 102140" d="M470.461,120.3h1.361v4.724a3.815,3.815,0,0,1-.191,1.272,2.053,2.053,0,0,1-.553.871,2.321,2.321,0,0,1-.852.489,3.509,3.509,0,0,1-1.112.159,2.519,2.519,0,0,1-2.632-1.583l1.189-.509a1.723,1.723,0,0,0,.547.744,1.405,1.405,0,0,0,.84.235c.884,0,1.329-.521,1.329-1.577v-.61a1.608,1.608,0,0,1-.636.5,2.156,2.156,0,0,1-.909.191,2.276,2.276,0,0,1-.9-.178,2.384,2.384,0,0,1-.744-.509,2.42,2.42,0,0,1-.5-.8,3.008,3.008,0,0,1,0-2.073,2.282,2.282,0,0,1,.509-.788,2.122,2.122,0,0,1,.744-.5,2.3,2.3,0,0,1,.9-.185,2.1,2.1,0,0,1,.947.216,1.468,1.468,0,0,1,.636.559Zm-2.194,3.376a1.234,1.234,0,0,0,.934.395,1.271,1.271,0,0,0,.941-.395,1.427,1.427,0,0,0,0-1.945,1.329,1.329,0,0,0-1.908,0,1.361,1.361,0,0,0-.375.979,1.335,1.335,0,0,0,.407.966Z" transform="translate(-453.001 -117.891)"/>
    <path id="Trazado_102141" data-name="Trazado 102141" d="M481.192,124.045a4.774,4.774,0,0,0,.121,1.272v.14h-1.335l-.114-.553a1.647,1.647,0,0,1-.712.489,2.686,2.686,0,0,1-.923.168,2.25,2.25,0,0,1-.477-.045,1.751,1.751,0,0,1-.432-.153,1.273,1.273,0,0,1-.356-.267,1.081,1.081,0,0,1-.235-.4,1.78,1.78,0,0,1,0-1.112,1.4,1.4,0,0,1,.252-.413,1.583,1.583,0,0,1,.407-.306,3.183,3.183,0,0,1,.5-.216,5.958,5.958,0,0,1,.636-.159l.84-.191a.9.9,0,0,0,.381-.159.336.336,0,0,0,.108-.252.54.54,0,0,0-.252-.5,1.271,1.271,0,0,0-.636-.146.877.877,0,0,0-1,.783L476.7,121.8a1.716,1.716,0,0,1,.738-1.17,2.956,2.956,0,0,1,1.6-.375q2.149,0,2.149,1.847Zm-2.543.521a1.151,1.151,0,0,0,.884-.375,1.545,1.545,0,0,0,.343-1.091l-1.214.343a1.361,1.361,0,0,0-.509.21.432.432,0,0,0-.178.369.471.471,0,0,0,.191.4.782.782,0,0,0,.509.121Z" transform="translate(-456.701 -117.915)"/>
    <path id="Trazado_102142" data-name="Trazado 102142" d="M487.4,124.533a1.52,1.52,0,0,1-1.151-.413,1.6,1.6,0,0,1-.407-1.183v-2.41h-1.008v-1.1h.324a.858.858,0,0,0,.636-.21,1.132,1.132,0,0,0,.2-.763v-.672h1.272v1.646h1.049v1.1h-1.03v2.257c0,.445.2.636.588.636h.458v1.091Z" transform="translate(-459.687 -117.017)"/>
    <path id="Trazado_102143" data-name="Trazado 102143" d="M492.766,118.226a.82.82,0,0,1-.588-.242.8.8,0,0,1-.242-.588.782.782,0,0,1,.252-.578.82.82,0,1,1,1.157,1.164.8.8,0,0,1-.579.244Zm-.725,5.869v-5.086h1.437V124.1Z" transform="translate(-462.272 -116.58)"/>
    <path id="Trazado_102144" data-name="Trazado 102144" d="M499.582,120.37h1.511l-2.174,5.086h-1.269L495.5,120.37h1.507l1.272,3.491Z" transform="translate(-463.569 -117.96)"/>
    <path id="Trazado_102145" data-name="Trazado 102145" d="M507.3,125.537a3.274,3.274,0,0,1-1.443-.311,2.351,2.351,0,0,1-.991-.924,2.709,2.709,0,0,1-.363-1.427,2.544,2.544,0,0,1,.776-1.908,3.237,3.237,0,0,1,4.05,0,2.823,2.823,0,0,1,0,3.885,2.874,2.874,0,0,1-2.028.68Zm0-1.138a1.316,1.316,0,0,0,1.008-.42,1.552,1.552,0,0,0,.381-1.1,1.584,1.584,0,0,0-.381-1.107,1.335,1.335,0,0,0-1.007-.413,1.272,1.272,0,0,0-.986.42,1.8,1.8,0,0,0,0,2.2,1.272,1.272,0,0,0,.973.42Z" transform="translate(-466.846 -117.919)"/>
  </g>
</svg>
