<svg id="color9" xmlns="http://www.w3.org/2000/svg" width="358.322" height="191.025" viewBox="0 0 358.322 191.025">
  <rect id="Rectángulo_5417" data-name="Rectángulo 5417" width="44.787" height="45.779" transform="translate(0 145.247)" fill="#999"/>
  <rect id="Rectángulo_5418" data-name="Rectángulo 5418" width="179.161" height="145.247" fill="#999"/>
  <rect id="Rectángulo_5419" data-name="Rectángulo 5419" width="179.161" height="191.025" transform="translate(179.161)" fill="#f2f2f2"/>
  <g id="Grupo_57731" data-name="Grupo 57731" transform="translate(44.787 145.247)" opacity="0.75">
    <rect id="Rectángulo_5420" data-name="Rectángulo 5420" width="44.787" height="45.779" fill="#999"/>
  </g>
  <g id="Grupo_57732" data-name="Grupo 57732" transform="translate(89.58 145.247)" opacity="0.5">
    <rect id="Rectángulo_5421" data-name="Rectángulo 5421" width="44.787" height="45.779" fill="#999"/>
  </g>
  <g id="Grupo_57733" data-name="Grupo 57733" transform="translate(134.367 145.247)" opacity="0.25">
    <rect id="Rectángulo_5422" data-name="Rectángulo 5422" width="44.787" height="45.779" fill="#999"/>
  </g>
  <g id="Grupo_57734" data-name="Grupo 57734" transform="translate(200.821 34.543)">
    <path id="Trazado_102919" data-name="Trazado 102919" d="M324.394,72.744a9.187,9.187,0,0,1-3.4-.636,7.935,7.935,0,0,1-2.715-1.742,7.775,7.775,0,0,1-1.78-2.76,10.37,10.37,0,0,1,0-7.235,7.892,7.892,0,0,1,1.831-2.74,8.265,8.265,0,0,1,2.769-1.752,9.6,9.6,0,0,1,3.478-.636,9.34,9.34,0,0,1,4.45,1.043,7.585,7.585,0,0,1,3.071,2.97l-3.106,1.653a4.559,4.559,0,0,0-1.8-1.908,5.157,5.157,0,0,0-2.6-.636,4.959,4.959,0,0,0-3.726,1.5A5.723,5.723,0,0,0,319.417,64a5.881,5.881,0,0,0,1.443,4.164,4.991,4.991,0,0,0,3.853,1.557,5.755,5.755,0,0,0,2.079-.363,4.229,4.229,0,0,0,1.653-1.189,4.324,4.324,0,0,0,.941-2.022h-4.66v-2.9h8.011v9.257h-2.81V70.151A6.189,6.189,0,0,1,324.394,72.744Z" transform="translate(-315.845 -54.66)"/>
    <path id="Trazado_102920" data-name="Trazado 102920" d="M350.715,65.152A3.923,3.923,0,0,1,352.3,63.7a4.838,4.838,0,0,1,2.372-.636v3.022a4.618,4.618,0,0,0-2.9.751,3.2,3.2,0,0,0-.9,2.6v5.92h-3.42V63.231h3.255Z" transform="translate(-327.359 -57.509)"/>
    <path id="Trazado_102921" data-name="Trazado 102921" d="M363.545,58.234a1.954,1.954,0,0,1-1.965-1.959,1.857,1.857,0,0,1,.578-1.374,1.907,1.907,0,0,1,1.386-.573,1.952,1.952,0,1,1,0,3.9Zm-1.7,13.944V60.052h3.42V72.178Z" transform="translate(-332.501 -54.329)"/>
    <path id="Trazado_102922" data-name="Trazado 102922" d="M376.548,75.565a6.771,6.771,0,0,1-3.541-.845,3.58,3.58,0,0,1-1.735-2.543l2.842-.808a2.283,2.283,0,0,0,2.435,1.8,2.543,2.543,0,0,0,1.24-.274.966.966,0,0,0,.484-.941.986.986,0,0,0-.2-.636,1.628,1.628,0,0,0-.636-.452c-.28-.121-.553-.229-.827-.318s-.636-.191-1.075-.311a11.709,11.709,0,0,1-1.125-.35,7.827,7.827,0,0,1-1.068-.452,4.587,4.587,0,0,1-.884-.636,2.62,2.62,0,0,1-.636-.954,3.421,3.421,0,0,1-.229-1.272,3.106,3.106,0,0,1,1.316-2.715,5.9,5.9,0,0,1,3.426-.86,6,6,0,0,1,3.179.776,3.526,3.526,0,0,1,1.621,2.4l-2.632.588a2.054,2.054,0,0,0-2.155-1.532,2.34,2.34,0,0,0-1.2.274.871.871,0,0,0-.47.8.939.939,0,0,0,.07.363.781.781,0,0,0,.252.3c.121.084.235.159.343.222a2.739,2.739,0,0,0,.484.2l.534.153L377,67.7l.636.168c.432.114.814.235,1.138.35a7.293,7.293,0,0,1,1.049.5,3.662,3.662,0,0,1,.909.719,3.179,3.179,0,0,1,.6,1,3.694,3.694,0,0,1,.235,1.354,3.61,3.61,0,0,1-.407,1.755,3.039,3.039,0,0,1-1.157,1.189,5.507,5.507,0,0,1-1.577.636,8.06,8.06,0,0,1-1.881.2Z" transform="translate(-336.03 -57.481)"/>
  </g>
  <g id="Grupo_57735" data-name="Grupo 57735" transform="translate(202.896 95.513)">
    <path id="Trazado_102923" data-name="Trazado 102923" d="M325.1,151.22h.884v6.994h-.941l-3.771-5.659v5.659H320.4V151.22h.929l3.773,5.634Z" transform="translate(-319.58 -150.584)"/>
    <path id="Trazado_102924" data-name="Trazado 102924" d="M336.238,156.846v.235h-3.815a1.71,1.71,0,0,0,.47,1.272,1.526,1.526,0,0,0,1.112.439,1.475,1.475,0,0,0,1.361-.884l.776.168a2.169,2.169,0,0,1-.833,1.049,2.283,2.283,0,0,1-1.272.381,2.359,2.359,0,0,1-1.755-.68,2.893,2.893,0,0,1,0-3.713,2.34,2.34,0,0,1,1.729-.68,2.206,2.206,0,0,1,1.646.636A2.493,2.493,0,0,1,336.238,156.846Zm-2.267-1.78a1.494,1.494,0,0,0-1.008.35,1.583,1.583,0,0,0-.515,1.007h2.925a1.456,1.456,0,0,0-.426-1.007,1.373,1.373,0,0,0-.974-.35Z" transform="translate(-323.662 -151.753)"/>
    <path id="Trazado_102925" data-name="Trazado 102925" d="M344,154.533h.858v4.883h-.827v-.636a1.564,1.564,0,0,1-.6.547,1.907,1.907,0,0,1-.858.191,1.7,1.7,0,0,1-1.227-.439,1.666,1.666,0,0,1-.458-1.272V154.52h.858v3.1a1.164,1.164,0,0,0,.3.871,1.055,1.055,0,0,0,.769.292,1.175,1.175,0,0,0,.865-.336,1.405,1.405,0,0,0,.343-1Z" transform="translate(-327.039 -151.786)"/>
    <path id="Trazado_102926" data-name="Trazado 102926" d="M351.021,158.5a1.272,1.272,0,0,1-.954-.35,1.343,1.343,0,0,1-.35-.973V154.3h-1v-.687h.369a.706.706,0,0,0,.541-.168.852.852,0,0,0,.159-.573V152h.8v1.628h1.125v.687h-1.125v2.771a.725.725,0,0,0,.191.534.636.636,0,0,0,.489.191h.445v.687Z" transform="translate(-329.893 -150.868)"/>
    <path id="Trazado_102927" data-name="Trazado 102927" d="M356.224,155.38a1.47,1.47,0,0,1,.636-.636,1.807,1.807,0,0,1,.934-.252v.808a1.6,1.6,0,0,0-1.132.363,1.511,1.511,0,0,0-.394,1.157v2.6h-.858V154.54h.84Z" transform="translate(-332.33 -151.775)"/>
    <path id="Trazado_102928" data-name="Trazado 102928" d="M361.533,159.47a1.685,1.685,0,0,1-1.075-.336,1.2,1.2,0,0,1-.42-1,1.4,1.4,0,0,1,.133-.636,1.125,1.125,0,0,1,.4-.445,2.39,2.39,0,0,1,.573-.28,5.421,5.421,0,0,1,.744-.168l.788-.133c.292-.051.432-.2.432-.452a.845.845,0,0,0-.306-.725,1.208,1.208,0,0,0-.769-.235,1.31,1.31,0,0,0-.769.223.96.96,0,0,0-.363.687l-.776-.159a1.511,1.511,0,0,1,.636-1.049,2.251,2.251,0,0,1,1.329-.35,2.678,2.678,0,0,1,.706.089,1.792,1.792,0,0,1,.588.274,1.2,1.2,0,0,1,.426.521,2.079,2.079,0,0,1,.146.808v2.015a.82.82,0,0,0,.114.509.483.483,0,0,0,.388.133h.076v.636h-.426a.808.808,0,0,1-.924-.636h-.045A1.847,1.847,0,0,1,361.533,159.47Zm.2-.693a1.3,1.3,0,0,0,1.049-.477,1.907,1.907,0,0,0,.395-1.272l-1.272.252a1.735,1.735,0,0,0-.756.274.705.705,0,0,0-.007,1.068.954.954,0,0,0,.59.155Z" transform="translate(-334.014 -151.745)"/>
    <path id="Trazado_102929" data-name="Trazado 102929" d="M369,157.85v-7.63h.865v7.63Z" transform="translate(-337.279 -150.22)"/>
    <path id="Trazado_102930" data-name="Trazado 102930" d="M323.045,170.42a2.028,2.028,0,0,1,1.091.292,1.965,1.965,0,0,1,.738.776,2.277,2.277,0,0,1,.252,1.081,2.1,2.1,0,0,1-.578,1.52,1.99,1.99,0,0,1-1.507.636h-1.763v2.715H320.4v-6.994Zm-.127,3.5a1.272,1.272,0,0,0,.973-.375,1.572,1.572,0,0,0,0-1.977,1.272,1.272,0,0,0-.973-.381h-1.634v2.734Z" transform="translate(-319.58 -157.576)"/>
    <path id="Trazado_102931" data-name="Trazado 102931" d="M330.794,174.58a1.511,1.511,0,0,1,.636-.636,1.807,1.807,0,0,1,.934-.252v.808a1.6,1.6,0,0,0-1.132.363,1.511,1.511,0,0,0-.395,1.157v2.6h-.857V173.74h.84Z" transform="translate(-323.069 -158.768)"/>
    <path id="Trazado_102932" data-name="Trazado 102932" d="M336.142,178.67a1.646,1.646,0,0,1-1.075-.336,1.2,1.2,0,0,1-.42-1,1.324,1.324,0,0,1,.14-.636,1.062,1.062,0,0,1,.394-.445,2.391,2.391,0,0,1,.573-.28,5.42,5.42,0,0,1,.744-.168l.788-.134c.292-.051.432-.2.432-.452a.846.846,0,0,0-.3-.725,1.208,1.208,0,0,0-.769-.235,1.31,1.31,0,0,0-.769.222.96.96,0,0,0-.363.687l-.776-.159a1.511,1.511,0,0,1,.636-1.049,2.251,2.251,0,0,1,1.329-.35,2.677,2.677,0,0,1,.706.089,1.792,1.792,0,0,1,.588.274,1.2,1.2,0,0,1,.426.521,1.97,1.97,0,0,1,.146.808v2.015a.821.821,0,0,0,.114.509.483.483,0,0,0,.388.133h.076v.636h-.464a.808.808,0,0,1-.923-.636h-.045a1.847,1.847,0,0,1-1.572.707Zm.2-.693a1.3,1.3,0,0,0,1.049-.477,1.908,1.908,0,0,0,.395-1.272l-1.272.252a1.735,1.735,0,0,0-.756.274.705.705,0,0,0-.007,1.068.954.954,0,0,0,.566.159Z" transform="translate(-324.767 -158.737)"/>
    <path id="Trazado_102933" data-name="Trazado 102933" d="M345.2,178.656a2.333,2.333,0,0,1-1.749-.7,2.771,2.771,0,0,1,0-3.662,2.543,2.543,0,0,1,3.179-.274,2.118,2.118,0,0,1,.82,1.183l-.8.133a1.463,1.463,0,0,0-1.437-1.03,1.443,1.443,0,0,0-1.132.5,2.169,2.169,0,0,0,0,2.632,1.525,1.525,0,0,0,2.569-.534l.8.134a2.11,2.11,0,0,1-.826,1.189,2.358,2.358,0,0,1-1.426.425Z" transform="translate(-327.724 -158.73)"/>
    <path id="Trazado_102934" data-name="Trazado 102934" d="M353.241,177.691a1.271,1.271,0,0,1-.954-.35,1.316,1.316,0,0,1-.35-.973v-2.874h-1v-.687h.369a.719.719,0,0,0,.541-.168.858.858,0,0,0,.153-.573v-.887h.8v1.628h1.125v.687H352.8v2.785a.725.725,0,0,0,.191.534.636.636,0,0,0,.484.191h.452v.687Z" transform="translate(-330.702 -157.853)"/>
    <path id="Trazado_102935" data-name="Trazado 102935" d="M357.945,171.278a.588.588,0,0,1-.588-.588.553.553,0,0,1,.168-.407.588.588,0,0,1,.82,0,.573.573,0,0,1,.168.407.587.587,0,0,1-.168.413.566.566,0,0,1-.4.175Zm-.438,6.027v-4.883h.894v4.883Z" transform="translate(-333.04 -157.467)"/>
    <path id="Trazado_102936" data-name="Trazado 102936" d="M363.493,178.656a2.334,2.334,0,0,1-1.749-.7,2.771,2.771,0,0,1,0-3.662,2.34,2.34,0,0,1,1.755-.706,2.365,2.365,0,0,1,1.411.432,2.117,2.117,0,0,1,.82,1.183l-.8.133a1.463,1.463,0,0,0-1.437-1.03,1.443,1.443,0,0,0-1.132.5,2.168,2.168,0,0,0,0,2.632,1.526,1.526,0,0,0,2.568-.534l.8.134a2.111,2.111,0,0,1-.826,1.189,2.359,2.359,0,0,1-1.411.426Z" transform="translate(-334.385 -158.73)"/>
    <path id="Trazado_102937" data-name="Trazado 102937" d="M372.209,178.663a2.543,2.543,0,0,1-1.272-.3,2.232,2.232,0,0,1-.884-.884,2.728,2.728,0,0,1-.324-1.348,2.543,2.543,0,0,1,.693-1.847,2.6,2.6,0,0,1,3.535,0,2.8,2.8,0,0,1,0,3.687,2.4,2.4,0,0,1-1.749.693Zm0-.712a1.511,1.511,0,0,0,1.157-.5,2.13,2.13,0,0,0,0-2.639,1.494,1.494,0,0,0-1.157-.5,1.475,1.475,0,0,0-1.144.5,2.155,2.155,0,0,0,0,2.639,1.5,1.5,0,0,0,1.138.5Z" transform="translate(-337.544 -158.731)"/>
    <path id="Trazado_102938" data-name="Trazado 102938" d="M323.114,196.652a3.771,3.771,0,0,1-1.379-.252,3.574,3.574,0,0,1-1.107-.706,3.179,3.179,0,0,1-.731-1.138,4.348,4.348,0,0,1,0-3,3.235,3.235,0,0,1,.737-1.138,3.363,3.363,0,0,1,1.1-.706,3.77,3.77,0,0,1,1.379-.252,3.526,3.526,0,0,1,1.856.5,3.065,3.065,0,0,1,1.253,1.367l-.82.336a2.358,2.358,0,0,0-.916-1,2.619,2.619,0,0,0-1.354-.349,2.842,2.842,0,0,0-1.023.185,2.424,2.424,0,0,0-.82.528,2.352,2.352,0,0,0-.553.865,3.18,3.18,0,0,0-.2,1.157,3.249,3.249,0,0,0,.2,1.17,2.351,2.351,0,0,0,.553.865,2.423,2.423,0,0,0,.82.528,2.715,2.715,0,0,0,1.023.191,2.626,2.626,0,0,0,1.354-.356,2.326,2.326,0,0,0,.916-.986l.82.331a3.052,3.052,0,0,1-1.272,1.367,3.593,3.593,0,0,1-1.836.5Z" transform="translate(-319.299 -164.512)"/>
    <path id="Trazado_102939" data-name="Trazado 102939" d="M333.826,197.863a2.543,2.543,0,0,1-1.272-.306,2.149,2.149,0,0,1-.884-.884,2.728,2.728,0,0,1-.324-1.348,2.493,2.493,0,0,1,.693-1.847,2.6,2.6,0,0,1,3.535,0,2.543,2.543,0,0,1,.687,1.847,2.486,2.486,0,0,1-.693,1.847,2.372,2.372,0,0,1-1.741.69Zm0-.712a1.526,1.526,0,0,0,1.157-.5,1.908,1.908,0,0,0,.458-1.322,1.863,1.863,0,0,0-.458-1.316,1.5,1.5,0,0,0-1.157-.5,1.475,1.475,0,0,0-1.144.5,1.863,1.863,0,0,0-.458,1.316,1.907,1.907,0,0,0,.458,1.322,1.5,1.5,0,0,0,1.138.5Z" transform="translate(-323.565 -165.722)"/>
    <path id="Trazado_102940" data-name="Trazado 102940" d="M343.538,192.789a1.71,1.71,0,0,1,1.227.445,1.653,1.653,0,0,1,.458,1.272v3.287h-.858V194.7a1.169,1.169,0,0,0-.3-.877,1.05,1.05,0,0,0-.763-.28,1.189,1.189,0,0,0-.871.331,1.392,1.392,0,0,0-.343,1v2.918h-.858V192.91h.858v.636a1.628,1.628,0,0,1,1.45-.756Z" transform="translate(-327.165 -165.722)"/>
    <path id="Trazado_102941" data-name="Trazado 102941" d="M351.427,197.87a2.308,2.308,0,0,1-1.316-.35,1.468,1.468,0,0,1-.636-1.007l.751-.216a1.081,1.081,0,0,0,.4.68,1.316,1.316,0,0,0,.8.242,1.793,1.793,0,0,0,.47-.064.815.815,0,0,0,.363-.242.693.693,0,0,0,.146-.445.682.682,0,0,0-.045-.2.744.744,0,0,0-.076-.159.407.407,0,0,0-.14-.133,1.468,1.468,0,0,0-.168-.108,1.322,1.322,0,0,0-.217-.089l-.242-.084-.274-.076-.28-.084c-.2-.064-.375-.121-.509-.178a2.327,2.327,0,0,1-.413-.235.947.947,0,0,1-.318-.388,1.31,1.31,0,0,1-.108-.547,1.271,1.271,0,0,1,.242-.776,1.322,1.322,0,0,1,.635-.464,2.441,2.441,0,0,1,.865-.14,2.123,2.123,0,0,1,1.189.318,1.361,1.361,0,0,1,.6.954l-.706.178a.916.916,0,0,0-.375-.636,1.157,1.157,0,0,0-.7-.21,1.214,1.214,0,0,0-.636.168.578.578,0,0,0-.274.528.54.54,0,0,0,.07.267,1.046,1.046,0,0,0,.146.191.914.914,0,0,0,.274.153l.286.1.356.089h.076c.191.044.35.089.47.127a3.4,3.4,0,0,1,.42.178,1.543,1.543,0,0,1,.381.267,1.221,1.221,0,0,1,.235.381,1.273,1.273,0,0,1,.1.521,1.468,1.468,0,0,1-.146.636,1.143,1.143,0,0,1-.4.452,1.906,1.906,0,0,1-.566.242,2.639,2.639,0,0,1-.731.153Z" transform="translate(-330.169 -165.729)"/>
    <path id="Trazado_102942" data-name="Trazado 102942" d="M361.567,195.246v.235h-3.815a1.71,1.71,0,0,0,.464,1.272,1.526,1.526,0,0,0,1.112.439,1.475,1.475,0,0,0,1.367-.884l.776.168a2.206,2.206,0,0,1-.833,1.049,2.283,2.283,0,0,1-1.272.381,2.385,2.385,0,0,1-1.763-.68,2.906,2.906,0,0,1,0-3.713,2.328,2.328,0,0,1,1.73-.68,2.2,2.2,0,0,1,1.641.636,2.474,2.474,0,0,1,.594,1.777Zm-2.258-1.78a1.5,1.5,0,0,0-1.018.35,1.583,1.583,0,0,0-.515,1.007H360.7a1.427,1.427,0,0,0-.426-1.007,1.347,1.347,0,0,0-.966-.35Z" transform="translate(-332.885 -165.737)"/>
    <path id="Trazado_102943" data-name="Trazado 102943" d="M367.18,193.78a1.489,1.489,0,0,1,.6-.636,1.847,1.847,0,0,1,.941-.252v.808a1.589,1.589,0,0,0-1.132.363,1.511,1.511,0,0,0-.395,1.157v2.6h-.858V192.94h.84Z" transform="translate(-336.31 -165.76)"/>
    <path id="Trazado_102944" data-name="Trazado 102944" d="M374.457,192.94h.924l-1.99,4.883h-.731l-1.977-4.883h.916l1.427,3.885Z" transform="translate(-337.892 -165.778)"/>
    <path id="Trazado_102945" data-name="Trazado 102945" d="M380.282,197.87a1.646,1.646,0,0,1-1.075-.336,1.2,1.2,0,0,1-.42-1,1.4,1.4,0,0,1,.133-.636,1.126,1.126,0,0,1,.4-.445,2.391,2.391,0,0,1,.573-.28,5.416,5.416,0,0,1,.744-.168l.788-.134c.292-.051.432-.2.432-.452a.845.845,0,0,0-.306-.725,1.208,1.208,0,0,0-.769-.235,1.272,1.272,0,0,0-.769.229.935.935,0,0,0-.363.68l-.776-.159a1.511,1.511,0,0,1,.636-1.049,2.251,2.251,0,0,1,1.329-.35,2.677,2.677,0,0,1,.706.089,1.793,1.793,0,0,1,.588.274,1.2,1.2,0,0,1,.426.521,2.078,2.078,0,0,1,.146.808v2.015a.821.821,0,0,0,.114.509.484.484,0,0,0,.388.133h.076v.636h-.426a.808.808,0,0,1-.924-.636h-.045A1.847,1.847,0,0,1,380.282,197.87Zm.2-.693a1.316,1.316,0,0,0,1.049-.47,1.952,1.952,0,0,0,.394-1.272l-1.272.252a1.736,1.736,0,0,0-.756.274.705.705,0,0,0-.007,1.068.954.954,0,0,0,.588.153Z" transform="translate(-340.843 -165.73)"/>
    <path id="Trazado_102946" data-name="Trazado 102946" d="M390.978,188.62h.858v7.63h-.826V195.3a1.818,1.818,0,0,1-.7.769,1.906,1.906,0,0,1-1.03.286,2.2,2.2,0,0,1-.884-.185,2.168,2.168,0,0,1-.731-.509,2.4,2.4,0,0,1-.489-.8,2.982,2.982,0,0,1-.178-1.049,2.543,2.543,0,0,1,.636-1.838,2.13,2.13,0,0,1,1.621-.706,1.964,1.964,0,0,1,1.023.28,1.818,1.818,0,0,1,.693.744Zm-1.539,6.994a1.468,1.468,0,0,0,1.138-.509,1.869,1.869,0,0,0,.458-1.272,1.831,1.831,0,0,0-.464-1.272,1.463,1.463,0,0,0-1.132-.515,1.511,1.511,0,0,0-1.144.5,1.863,1.863,0,0,0-.458,1.272,1.837,1.837,0,0,0,.458,1.272,1.511,1.511,0,0,0,1.144.521Z" transform="translate(-343.832 -164.204)"/>
    <path id="Trazado_102947" data-name="Trazado 102947" d="M399.178,197.863a2.543,2.543,0,0,1-1.272-.306,2.183,2.183,0,0,1-.884-.884,2.727,2.727,0,0,1-.324-1.348,2.492,2.492,0,0,1,.694-1.847,2.6,2.6,0,0,1,3.535,0,2.8,2.8,0,0,1,0,3.687,2.4,2.4,0,0,1-1.749.7Zm0-.712a1.511,1.511,0,0,0,1.157-.5,1.908,1.908,0,0,0,.458-1.322,1.863,1.863,0,0,0-.458-1.316,1.494,1.494,0,0,0-1.157-.5,1.475,1.475,0,0,0-1.144.5,1.863,1.863,0,0,0-.452,1.316,1.907,1.907,0,0,0,.452,1.322,1.5,1.5,0,0,0,1.138.5Z" transform="translate(-347.365 -165.722)"/>
    <path id="Trazado_102948" data-name="Trazado 102948" d="M407.434,193.78a1.511,1.511,0,0,1,.636-.636,1.806,1.806,0,0,1,.934-.252v.808a1.6,1.6,0,0,0-1.132.363,1.511,1.511,0,0,0-.394,1.157v2.6h-.858V192.94h.84Z" transform="translate(-350.98 -165.76)"/>
    <path id="Trazado_102949" data-name="Trazado 102949" d="M324.178,209.65h-2.867v2.283h2.5v.833h-2.5v3.09H320.4v-6.994h3.778Z" transform="translate(-319.58 -171.576)"/>
    <path id="Trazado_102950" data-name="Trazado 102950" d="M329.842,217.094a2.543,2.543,0,0,1-1.272-.3,2.174,2.174,0,0,1-.877-.884,2.727,2.727,0,0,1-.324-1.348,2.493,2.493,0,0,1,.693-1.847,2.594,2.594,0,0,1,3.526,0,2.8,2.8,0,0,1,0,3.687,2.384,2.384,0,0,1-1.746.7Zm0-.712a1.511,1.511,0,0,0,1.157-.5,2.13,2.13,0,0,0,0-2.639,1.494,1.494,0,0,0-1.157-.5,1.475,1.475,0,0,0-1.144.5,2.155,2.155,0,0,0,0,2.639,1.5,1.5,0,0,0,1.138.484Z" transform="translate(-322.117 -172.727)"/>
    <path id="Trazado_102951" data-name="Trazado 102951" d="M338.09,212.98a1.487,1.487,0,0,1,.6-.636,1.831,1.831,0,0,1,.941-.252v.808a1.621,1.621,0,0,0-1.138.363,1.511,1.511,0,0,0-.388,1.157v2.6h-.858V212.14h.84Z" transform="translate(-325.716 -172.752)"/>
    <path id="Trazado_102952" data-name="Trazado 102952" d="M347.571,212a1.564,1.564,0,0,1,1.138.42,1.511,1.511,0,0,1,.432,1.164v3.4h-.858V213.8a1.113,1.113,0,0,0-.267-.808.923.923,0,0,0-.68-.267.966.966,0,0,0-.744.306,1.31,1.31,0,0,0-.286.924v3.022h-.872v-3.135a1.133,1.133,0,0,0-.274-.833.909.909,0,0,0-.693-.28.954.954,0,0,0-.744.311,1.374,1.374,0,0,0-.286.947v2.988h-.858v-4.883h.856v.636a1.519,1.519,0,0,1,.559-.541,1.6,1.6,0,0,1,.756-.185,1.641,1.641,0,0,1,.833.21,1.271,1.271,0,0,1,.541.588,1.538,1.538,0,0,1,.588-.588,1.653,1.653,0,0,1,.858-.21Z" transform="translate(-327.657 -172.718)"/>
    <path id="Trazado_102953" data-name="Trazado 102953" d="M356.436,217.1a1.628,1.628,0,0,1-1.068-.336,1.2,1.2,0,0,1-.42-1,1.4,1.4,0,0,1,.133-.636,1.081,1.081,0,0,1,.4-.445,2.177,2.177,0,0,1,.573-.28,5.017,5.017,0,0,1,.744-.168l.788-.133c.286-.051.432-.2.432-.452a.845.845,0,0,0-.306-.725,1.392,1.392,0,0,0-1.539,0,.935.935,0,0,0-.363.68l-.776-.159a1.525,1.525,0,0,1,.635-1.049,2.289,2.289,0,0,1,1.335-.35,2.747,2.747,0,0,1,.706.089,1.907,1.907,0,0,1,.588.274,1.234,1.234,0,0,1,.42.521,1.964,1.964,0,0,1,.153.808v2.015a.82.82,0,0,0,.114.509.47.47,0,0,0,.381.133h.057v.636H359c-.528,0-.84-.216-.929-.636h-.038A1.847,1.847,0,0,1,356.436,217.1Zm.2-.693a1.272,1.272,0,0,0,1.043-.47,1.952,1.952,0,0,0,.4-1.272l-1.272.252a1.787,1.787,0,0,0-.756.274.711.711,0,0,0-.013,1.068.986.986,0,0,0,.6.133Z" transform="translate(-332.161 -172.736)"/>
    <path id="Trazado_102954" data-name="Trazado 102954" d="M363.9,215.45v-7.63h.871v7.63Z" transform="translate(-335.422 -171.197)"/>
    <path id="Trazado_102955" data-name="Trazado 102955" d="M323.586,228v.814h-1.793v6.18h-.89v-6.168H319.11V228Z" transform="translate(-319.11 -178.546)"/>
    <path id="Trazado_102956" data-name="Trazado 102956" d="M327.84,232.18a1.487,1.487,0,0,1,.6-.636,1.832,1.832,0,0,1,.941-.252v.808a1.621,1.621,0,0,0-1.138.363,1.511,1.511,0,0,0-.388,1.157V236.2H327v-4.883h.84Z" transform="translate(-321.984 -179.745)"/>
    <path id="Trazado_102957" data-name="Trazado 102957" d="M333.146,236.273a1.666,1.666,0,0,1-1.068-.336,1.2,1.2,0,0,1-.42-1,1.45,1.45,0,0,1,.133-.636,1.131,1.131,0,0,1,.394-.439,2.32,2.32,0,0,1,.578-.28,5.858,5.858,0,0,1,.744-.178l.788-.127c.286-.051.432-.2.432-.452a.845.845,0,0,0-.306-.725,1.227,1.227,0,0,0-.776-.235,1.272,1.272,0,0,0-.763.223.96.96,0,0,0-.363.687l-.776-.168a1.482,1.482,0,0,1,.636-1.043,2.267,2.267,0,0,1,1.329-.35,2.771,2.771,0,0,1,.712.089,1.908,1.908,0,0,1,.588.274,1.233,1.233,0,0,1,.42.521,1.963,1.963,0,0,1,.153.808V234.9a.82.82,0,0,0,.114.509.464.464,0,0,0,.381.134h.084v.636h-.477a.814.814,0,0,1-.924-.636h-.038a1.908,1.908,0,0,1-1.583.737Zm.2-.693a1.272,1.272,0,0,0,1.043-.477,1.907,1.907,0,0,0,.4-1.272l-1.272.252a1.672,1.672,0,0,0-.756.274.711.711,0,0,0-.013,1.068.986.986,0,0,0,.6.159Z" transform="translate(-323.679 -179.717)"/>
    <path id="Trazado_102958" data-name="Trazado 102958" d="M342.928,231.189a1.71,1.71,0,0,1,1.227.445,1.653,1.653,0,0,1,.458,1.272v3.249h-.858v-3.1a1.138,1.138,0,0,0-.3-.871,1.049,1.049,0,0,0-.763-.286,1.2,1.2,0,0,0-.871.336,1.392,1.392,0,0,0-.343,1v2.917h-.859v-4.883h.877v.636a1.628,1.628,0,0,1,1.431-.715Z" transform="translate(-326.943 -179.707)"/>
    <path id="Trazado_102959" data-name="Trazado 102959" d="M352.923,231.281h.827v7.344h-.858v-3.37a1.8,1.8,0,0,1-.693.737,1.958,1.958,0,0,1-1.018.28,2.143,2.143,0,0,1-1.628-.706,2.543,2.543,0,0,1-.636-1.838,2.989,2.989,0,0,1,.178-1.055,2.282,2.282,0,0,1,.5-.808,2.136,2.136,0,0,1,.725-.5,2.2,2.2,0,0,1,.884-.185,1.946,1.946,0,0,1,1.023.28,1.748,1.748,0,0,1,.693.751Zm-1.577,4.235a1.482,1.482,0,0,0,1.144-.509,2.009,2.009,0,0,0,0-2.543,1.5,1.5,0,0,0-1.144-.509,1.482,1.482,0,0,0-1.132.489,2.086,2.086,0,0,0,0,2.607,1.482,1.482,0,0,0,1.132.467Z" transform="translate(-329.964 -179.707)"/>
    <path id="Trazado_102960" data-name="Trazado 102960" d="M362.273,231.325h.858v4.87H362.3v-.636a1.52,1.52,0,0,1-.6.547,1.863,1.863,0,0,1-.852.191,1.71,1.71,0,0,1-1.233-.439,1.666,1.666,0,0,1-.458-1.272V231.3h.858v3.1a1.164,1.164,0,0,0,.3.871,1.056,1.056,0,0,0,.769.292,1.17,1.17,0,0,0,.865-.336,1.373,1.373,0,0,0,.343-1Z" transform="translate(-333.693 -179.748)"/>
    <path id="Trazado_102961" data-name="Trazado 102961" d="M368.515,228.878a.588.588,0,0,1-.588-.588.553.553,0,0,1,.168-.407.588.588,0,0,1,.82,0,.546.546,0,0,1,.168.407.573.573,0,0,1-.573.588Zm-.439,6.027v-4.883h.865v4.87Z" transform="translate(-336.889 -178.444)"/>
    <path id="Trazado_102962" data-name="Trazado 102962" d="M372.27,234.63V227h.871v7.63Z" transform="translate(-338.47 -178.182)"/>
    <path id="Trazado_102963" data-name="Trazado 102963" d="M378.2,236.263a2.543,2.543,0,0,1-1.272-.306,2.175,2.175,0,0,1-.877-.884,2.735,2.735,0,0,1-.331-1.348,2.543,2.543,0,0,1,.694-1.847,2.6,2.6,0,0,1,3.535,0,2.8,2.8,0,0,1,0,3.687A2.384,2.384,0,0,1,378.2,236.263Zm0-.712a1.511,1.511,0,0,0,1.157-.5,1.908,1.908,0,0,0,.458-1.322,1.863,1.863,0,0,0-.458-1.316,1.494,1.494,0,0,0-1.157-.5,1.475,1.475,0,0,0-1.144.5,2.154,2.154,0,0,0,0,2.639,1.5,1.5,0,0,0,1.138.5Z" transform="translate(-339.725 -179.707)"/>
  </g>
  <g id="Grupo_57736" data-name="Grupo 57736" transform="translate(203.545 74.123)">
    <path id="Trazado_102964" data-name="Trazado 102964" d="M323.112,117.108a2.174,2.174,0,0,1,1.66.636,2.346,2.346,0,0,1,.636,1.653,2.257,2.257,0,0,1-.636,1.641,2.187,2.187,0,0,1-1.66.636h-1.5v2.543H320.13v-7.109Zm-.252,3.358a1.068,1.068,0,0,0,.82-.28,1.049,1.049,0,0,0,.274-.776,1.068,1.068,0,0,0-.274-.769,1.091,1.091,0,0,0-.82-.286h-1.272v2.111Z" transform="translate(-320.13 -116.77)"/>
    <path id="Trazado_102965" data-name="Trazado 102965" d="M331.947,125.537a3.274,3.274,0,0,1-1.443-.311,2.351,2.351,0,0,1-.992-.924,2.707,2.707,0,0,1-.363-1.427,2.543,2.543,0,0,1,.776-1.908,3.237,3.237,0,0,1,4.05,0,2.824,2.824,0,0,1,0,3.885,2.874,2.874,0,0,1-2.028.685Zm0-1.138a1.316,1.316,0,0,0,1.007-.42,1.552,1.552,0,0,0,.381-1.1,1.583,1.583,0,0,0-.381-1.107,1.335,1.335,0,0,0-1.007-.413,1.272,1.272,0,0,0-.986.42,1.8,1.8,0,0,0,0,2.2,1.272,1.272,0,0,0,.973.42Z" transform="translate(-323.415 -117.918)"/>
    <path id="Trazado_102966" data-name="Trazado 102966" d="M341.189,125.519a2.906,2.906,0,0,1-1.494-.356,1.526,1.526,0,0,1-.725-1.068l1.2-.336a.96.96,0,0,0,1.023.763,1.007,1.007,0,0,0,.521-.121.4.4,0,0,0,.2-.395.439.439,0,0,0-.084-.261.789.789,0,0,0-.26-.191l-.35-.133-.458-.133a4.737,4.737,0,0,1-.47-.146,2.754,2.754,0,0,1-.452-.191,1.7,1.7,0,0,1-.369-.26,1.06,1.06,0,0,1-.28-.4,1.469,1.469,0,0,1-.1-.547,1.31,1.31,0,0,1,.553-1.144,2.505,2.505,0,0,1,1.45-.388,2.543,2.543,0,0,1,1.335.331,1.475,1.475,0,0,1,.687,1.023l-1.112.252a.865.865,0,0,0-.909-.636.972.972,0,0,0-.5.114.388.388,0,0,0-.168.5.305.305,0,0,0,.1.121l.146.1a.942.942,0,0,0,.2.084,1.829,1.829,0,0,0,.222.064l.261.07.267.07a3.929,3.929,0,0,1,.477.146,3.053,3.053,0,0,1,.445.21,1.691,1.691,0,0,1,.381.3,1.457,1.457,0,0,1,.252.426,1.6,1.6,0,0,1,.1.566,1.52,1.52,0,0,1-.168.737,1.271,1.271,0,0,1-.47.5,2.257,2.257,0,0,1-.636.267A3.458,3.458,0,0,1,341.189,125.519Z" transform="translate(-326.991 -117.9)"/>
    <path id="Trazado_102967" data-name="Trazado 102967" d="M348.052,118.226a.827.827,0,1,1,.757-.824.819.819,0,0,1-.757.824Zm-.731,5.869v-5.087h1.443v5.087Z" transform="translate(-329.996 -116.579)"/>
    <path id="Trazado_102968" data-name="Trazado 102968" d="M353.529,124.534a1.532,1.532,0,0,1-1.157-.413,1.628,1.628,0,0,1-.407-1.183v-2.41h-1.007v-1.1h.324a.82.82,0,0,0,.636-.216,1.068,1.068,0,0,0,.2-.756v-.672h1.272v1.646h1.055v1.1h-1.055v2.257c0,.445.2.636.588.636h.464v1.091Z" transform="translate(-331.357 -117.017)"/>
    <path id="Trazado_102969" data-name="Trazado 102969" d="M358.866,118.226a.8.8,0,0,1-.588-.242.824.824,0,0,1,.588-1.405.808.808,0,0,1,.579.242.82.82,0,0,1,0,1.164A.808.808,0,0,1,358.866,118.226Zm-.731,5.869v-5.086h1.443v5.086Z" transform="translate(-333.935 -116.579)"/>
    <path id="Trazado_102970" data-name="Trazado 102970" d="M365.662,120.37h1.52L365,125.456h-1.269l-2.149-5.086h1.539l1.272,3.491Z" transform="translate(-335.226 -117.96)"/>
    <path id="Trazado_102971" data-name="Trazado 102971" d="M373.4,125.536a3.288,3.288,0,0,1-1.45-.311,2.35,2.35,0,0,1-.992-.924,2.764,2.764,0,0,1-.356-1.427,2.486,2.486,0,0,1,.776-1.908,3.224,3.224,0,0,1,4.044,0,2.823,2.823,0,0,1,0,3.885A2.855,2.855,0,0,1,373.4,125.536Zm0-1.138a1.272,1.272,0,0,0,1.008-.42,1.532,1.532,0,0,0,.388-1.1,1.557,1.557,0,0,0-.388-1.107,1.316,1.316,0,0,0-1.008-.407,1.271,1.271,0,0,0-.979.42,1.774,1.774,0,0,0,0,2.2,1.271,1.271,0,0,0,.979.413Z" transform="translate(-338.509 -117.918)"/>
  </g>
  <g id="Grupo_57737" data-name="Grupo 57737" transform="translate(275.672 96.148)">
    <path id="Trazado_102972" data-name="Trazado 102972" d="M433.58,158.214V151.22h.9v6.994Z" transform="translate(-433.573 -151.22)"/>
    <path id="Trazado_102973" data-name="Trazado 102973" d="M440.385,154.389a1.71,1.71,0,0,1,1.227.445,1.653,1.653,0,0,1,.458,1.272v3.287H441.2V156.3a1.169,1.169,0,0,0-.3-.877,1.049,1.049,0,0,0-.763-.286,1.2,1.2,0,0,0-.871.336,1.392,1.392,0,0,0-.343,1v2.918h-.855v-4.883h.858v.636a1.628,1.628,0,0,1,1.457-.755Z" transform="translate(-435.209 -152.374)"/>
    <path id="Trazado_102974" data-name="Trazado 102974" d="M448.282,159.47a2.308,2.308,0,0,1-1.317-.35,1.468,1.468,0,0,1-.635-1.008l.751-.216a1.08,1.08,0,0,0,.4.68,1.315,1.315,0,0,0,.8.242,1.794,1.794,0,0,0,.47-.064.815.815,0,0,0,.363-.242.637.637,0,0,0,.14-.445.529.529,0,0,0-.038-.2.937.937,0,0,0-.076-.159.408.408,0,0,0-.14-.134,1.222,1.222,0,0,0-.395-.2l-.235-.084-.274-.076-.28-.084c-.2-.064-.375-.121-.509-.178a2.331,2.331,0,0,1-.413-.235.946.946,0,0,1-.318-.388,1.311,1.311,0,0,1-.108-.547,1.272,1.272,0,0,1,.242-.776,1.322,1.322,0,0,1,.636-.464,2.441,2.441,0,0,1,.865-.14,2.124,2.124,0,0,1,1.189.318,1.361,1.361,0,0,1,.6.954l-.706.178a.954.954,0,0,0-.375-.636,1.17,1.17,0,0,0-.7-.21,1.215,1.215,0,0,0-.635.168.579.579,0,0,0-.274.528.54.54,0,0,0,.07.267.636.636,0,0,0,.413.336,2.718,2.718,0,0,0,.292.108l.356.089h.076l.47.133a3.4,3.4,0,0,1,.42.178,1.545,1.545,0,0,1,.381.267,1.334,1.334,0,0,1,.336.9,1.469,1.469,0,0,1-.146.636,1.2,1.2,0,0,1-.4.452,1.91,1.91,0,0,1-.566.242,2.639,2.639,0,0,1-.728.156Z" transform="translate(-438.217 -152.38)"/>
    <path id="Trazado_102975" data-name="Trazado 102975" d="M458.415,156.853v.235H454.6a1.71,1.71,0,0,0,.464,1.272,1.526,1.526,0,0,0,1.112.439,1.482,1.482,0,0,0,.808-.235,1.512,1.512,0,0,0,.56-.636l.776.168a2.244,2.244,0,0,1-.833,1.049,2.283,2.283,0,0,1-1.272.381,2.372,2.372,0,0,1-1.763-.68,2.906,2.906,0,0,1,0-3.713,2.327,2.327,0,0,1,1.73-.68,2.2,2.2,0,0,1,1.641.636,2.467,2.467,0,0,1,.593,1.764Zm-2.257-1.78a1.5,1.5,0,0,0-1.018.35,1.583,1.583,0,0,0-.515,1.007h2.925a1.427,1.427,0,0,0-.452-.992,1.348,1.348,0,0,0-.939-.367Z" transform="translate(-440.931 -152.396)"/>
    <path id="Trazado_102976" data-name="Trazado 102976" d="M466.47,154.489h.833v4.635a2.651,2.651,0,0,1-.636,1.908,2.619,2.619,0,0,1-4.114-.827l.706-.35a1.621,1.621,0,0,0,1.634,1.132,1.393,1.393,0,0,0,1.144-.477,2.015,2.015,0,0,0,.4-1.335v-.9a1.735,1.735,0,0,1-.7.706,2.143,2.143,0,0,1-2.594-.426,2.619,2.619,0,0,1,0-3.465,2.111,2.111,0,0,1,1.589-.687,2.041,2.041,0,0,1,1.023.274,1.787,1.787,0,0,1,.687.725Zm-1.552,4.018a1.475,1.475,0,0,0,1.125-.5,1.78,1.78,0,0,0,0-2.391,1.532,1.532,0,0,0-2.251,0,1.7,1.7,0,0,0-.464,1.214,1.716,1.716,0,0,0,.464,1.208,1.511,1.511,0,0,0,1.126.473Z" transform="translate(-444.103 -152.378)"/>
    <path id="Trazado_102977" data-name="Trazado 102977" d="M475.832,154.533h.89v4.883H475.9v-.636a1.564,1.564,0,0,1-.6.547,1.906,1.906,0,0,1-.858.191,1.7,1.7,0,0,1-1.227-.439,1.665,1.665,0,0,1-.458-1.272V154.52h.8v3.1a1.163,1.163,0,0,0,.3.871,1.055,1.055,0,0,0,.769.292,1.175,1.175,0,0,0,.865-.336,1.405,1.405,0,0,0,.343-1Z" transform="translate(-447.837 -152.422)"/>
    <path id="Trazado_102978" data-name="Trazado 102978" d="M482.527,155.38a1.488,1.488,0,0,1,.636-.636,1.831,1.831,0,0,1,.941-.252v.808a1.621,1.621,0,0,0-1.138.363,1.511,1.511,0,0,0-.388,1.157v2.6H481.7V154.54h.827Z" transform="translate(-451.098 -152.412)"/>
    <path id="Trazado_102979" data-name="Trazado 102979" d="M488.748,159.463a2.544,2.544,0,0,1-1.272-.306,2.149,2.149,0,0,1-.884-.884,2.728,2.728,0,0,1-.324-1.348,2.493,2.493,0,0,1,.693-1.847,2.4,2.4,0,0,1,1.763-.693,2.423,2.423,0,0,1,1.774.693,2.543,2.543,0,0,1,.687,1.847,2.486,2.486,0,0,1-.693,1.847,2.379,2.379,0,0,1-1.744.69Zm0-.712a1.5,1.5,0,0,0,1.151-.5,1.908,1.908,0,0,0,.464-1.322,1.869,1.869,0,0,0-.464-1.316,1.482,1.482,0,0,0-1.151-.5,1.456,1.456,0,0,0-1.144.5,1.863,1.863,0,0,0-.458,1.316,1.908,1.908,0,0,0,.458,1.322,1.482,1.482,0,0,0,1.144.5Z" transform="translate(-452.761 -152.373)"/>
    <path id="Trazado_102980" data-name="Trazado 102980" d="M433.58,177.413V170.42h2.257a3.383,3.383,0,0,1,1.78.452,2.817,2.817,0,0,1,1.091,1.233,4.317,4.317,0,0,1,.356,1.806,4.516,4.516,0,0,1-.21,1.418,3.107,3.107,0,0,1-.6,1.107,2.67,2.67,0,0,1-1.018.725,3.585,3.585,0,0,1-1.4.252Zm.89-.808H435.8a2.143,2.143,0,0,0,1.749-.719,3.039,3.039,0,0,0,.588-1.977,3,3,0,0,0-.588-1.965,2.124,2.124,0,0,0-1.742-.712h-1.322Z" transform="translate(-433.573 -158.212)"/>
    <path id="Trazado_102981" data-name="Trazado 102981" d="M448.617,176.034v.235H444.8a1.71,1.71,0,0,0,.464,1.272,1.525,1.525,0,0,0,1.112.439,1.482,1.482,0,0,0,.808-.235,1.511,1.511,0,0,0,.559-.636l.776.168a2.213,2.213,0,0,1-.84,1.049,2.251,2.251,0,0,1-1.272.381,2.372,2.372,0,0,1-1.793-.719,2.918,2.918,0,0,1,0-3.713,2.351,2.351,0,0,1,1.735-.68,2.2,2.2,0,0,1,1.641.636,2.467,2.467,0,0,1,.623,1.806Zm-2.257-1.78a1.5,1.5,0,0,0-1.018.35,1.583,1.583,0,0,0-.515,1.007h2.925a1.427,1.427,0,0,0-.426-1.007,1.361,1.361,0,0,0-.966-.35Z" transform="translate(-437.35 -159.367)"/>
    <path id="Trazado_102982" data-name="Trazado 102982" d="M456,173.59a2.183,2.183,0,0,1,.884.185,2.137,2.137,0,0,1,.725.5,2.326,2.326,0,0,1,.49.808,3,3,0,0,1,.185,1.055,2.543,2.543,0,0,1-.636,1.838,2.13,2.13,0,0,1-1.621.706,1.908,1.908,0,0,1-1.018-.28,1.847,1.847,0,0,1-.7-.751v3.383h-.859v-7.348h.826v.947a1.787,1.787,0,0,1,.7-.756A1.907,1.907,0,0,1,456,173.59Zm-.168,4.336a1.488,1.488,0,0,0,1.132-.489,2.086,2.086,0,0,0,0-2.6,1.488,1.488,0,0,0-1.132-.489,1.511,1.511,0,0,0-1.151.509,2.009,2.009,0,0,0,0,2.543,1.481,1.481,0,0,0,1.151.534Z" transform="translate(-440.81 -159.367)"/>
    <path id="Trazado_102983" data-name="Trazado 102983" d="M464.034,174.58a1.47,1.47,0,0,1,.636-.636,1.806,1.806,0,0,1,.934-.252v.808a1.6,1.6,0,0,0-1.132.363,1.511,1.511,0,0,0-.394,1.157v2.6h-.858V173.74h.84Z" transform="translate(-444.368 -159.403)"/>
    <path id="Trazado_102984" data-name="Trazado 102984" d="M472.476,176.053v.235h-3.815a1.71,1.71,0,0,0,.464,1.272,1.583,1.583,0,0,0,1.907.2,1.494,1.494,0,0,0,.553-.636l.776.168a2.206,2.206,0,0,1-.833,1.049,2.282,2.282,0,0,1-1.272.381,2.372,2.372,0,0,1-1.763-.68,2.906,2.906,0,0,1,0-3.713,2.327,2.327,0,0,1,1.729-.68,2.2,2.2,0,0,1,1.641.636,2.467,2.467,0,0,1,.612,1.765Zm-2.257-1.78a1.5,1.5,0,0,0-1.018.35,1.583,1.583,0,0,0-.515,1.007h2.925a1.427,1.427,0,0,0-.426-1.007,1.348,1.348,0,0,0-.966-.35Z" transform="translate(-446.044 -159.388)"/>
    <path id="Trazado_102985" data-name="Trazado 102985" d="M478.572,178.67a2.308,2.308,0,0,1-1.316-.35,1.469,1.469,0,0,1-.636-1.007l.751-.216a1.03,1.03,0,0,0,.4.68,1.316,1.316,0,0,0,.8.242,1.793,1.793,0,0,0,.47-.064.815.815,0,0,0,.363-.242.635.635,0,0,0,.14-.445.525.525,0,0,0-.038-.2,1.262,1.262,0,0,0-.076-.159.406.406,0,0,0-.14-.134,1.223,1.223,0,0,0-.394-.2l-.235-.084-.274-.076-.28-.084a5,5,0,0,1-.509-.178,2.327,2.327,0,0,1-.413-.235.947.947,0,0,1-.318-.388,1.31,1.31,0,0,1-.108-.547,1.271,1.271,0,0,1,.242-.776,1.322,1.322,0,0,1,.636-.464,2.443,2.443,0,0,1,.865-.14,2.136,2.136,0,0,1,1.189.318,1.361,1.361,0,0,1,.6.954l-.706.178a.935.935,0,0,0-.375-.636,1.17,1.17,0,0,0-.7-.21,1.2,1.2,0,0,0-.635.168.579.579,0,0,0-.274.528.539.539,0,0,0,.07.267.828.828,0,0,0,.146.191.952.952,0,0,0,.267.153l.292.1.356.089h.076l.47.133a3.412,3.412,0,0,1,.42.178,1.547,1.547,0,0,1,.381.267,1.334,1.334,0,0,1,.336.9,1.469,1.469,0,0,1-.146.636,1.273,1.273,0,0,1-.4.452,1.907,1.907,0,0,1-.573.242A2.542,2.542,0,0,1,478.572,178.67Z" transform="translate(-449.248 -159.372)"/>
    <path id="Trazado_102986" data-name="Trazado 102986" d="M485,171.28a.553.553,0,0,1-.407-.168.566.566,0,0,1-.168-.413.554.554,0,0,1,.168-.407.588.588,0,0,1,.814,0,.553.553,0,0,1,.168.407.566.566,0,0,1-.168.413.553.553,0,0,1-.407.168Zm-.439,6.027v-4.883h.865v4.883Z" transform="translate(-452.089 -158.104)"/>
    <path id="Trazado_102987" data-name="Trazado 102987" d="M491.38,173.74h.929l-1.99,4.883h-.731l-1.977-4.883h.884l1.427,3.885Z" transform="translate(-453.25 -159.421)"/>
    <path id="Trazado_102988" data-name="Trazado 102988" d="M498.1,178.663a2.543,2.543,0,0,1-1.272-.3,2.187,2.187,0,0,1-.884-.884,2.727,2.727,0,0,1-.324-1.348,2.493,2.493,0,0,1,.693-1.847,2.6,2.6,0,0,1,3.535,0,2.8,2.8,0,0,1,0,3.687,2.4,2.4,0,0,1-1.749.693Zm0-.712a1.526,1.526,0,0,0,1.157-.5,1.908,1.908,0,0,0,.458-1.322,1.862,1.862,0,0,0-.458-1.316,1.5,1.5,0,0,0-1.157-.5,1.475,1.475,0,0,0-1.144.5,1.863,1.863,0,0,0-.458,1.316,1.908,1.908,0,0,0,.458,1.322,1.5,1.5,0,0,0,1.138.5Z" transform="translate(-456.166 -159.366)"/>
    <path id="Trazado_102989" data-name="Trazado 102989" d="M433.58,196.614V189.62h.9v6.994Z" transform="translate(-433.573 -165.204)"/>
    <path id="Trazado_102990" data-name="Trazado 102990" d="M440.385,192.789a1.71,1.71,0,0,1,1.227.445,1.653,1.653,0,0,1,.458,1.272v3.287H441.2V194.7a1.169,1.169,0,0,0-.3-.877,1.05,1.05,0,0,0-.763-.28,1.189,1.189,0,0,0-.871.331,1.392,1.392,0,0,0-.343,1v2.918h-.856V192.91h.858v.636a1.628,1.628,0,0,1,1.457-.756Z" transform="translate(-435.209 -166.358)"/>
    <path id="Trazado_102991" data-name="Trazado 102991" d="M451.038,195.253v.235h-3.815a1.71,1.71,0,0,0,.47,1.272,1.525,1.525,0,0,0,1.112.439,1.481,1.481,0,0,0,.808-.235,1.589,1.589,0,0,0,.559-.636l.776.168a2.213,2.213,0,0,1-.84,1.049,2.282,2.282,0,0,1-1.271.381,2.359,2.359,0,0,1-1.755-.68,2.893,2.893,0,0,1,0-3.713,2.351,2.351,0,0,1,1.735-.68,2.2,2.2,0,0,1,1.641.636A2.473,2.473,0,0,1,451.038,195.253Zm-2.257-1.78a1.5,1.5,0,0,0-1.018.35,1.583,1.583,0,0,0-.515,1.007h2.925a1.456,1.456,0,0,0-.426-1.007,1.367,1.367,0,0,0-.967-.351Z" transform="translate(-438.246 -166.38)"/>
    <path id="Trazado_102992" data-name="Trazado 102992" d="M454.42,197.823l1.876-2.441-1.876-2.441h1.055l1.354,1.87,1.348-1.87h1.062l-1.908,2.441,1.908,2.441H458.19l-1.343-1.856-1.354,1.856Z" transform="translate(-441.163 -166.414)"/>
    <path id="Trazado_102993" data-name="Trazado 102993" d="M466.23,192.79a2.2,2.2,0,0,1,.884.185,2.137,2.137,0,0,1,.725.5,2.365,2.365,0,0,1,.49.808,3,3,0,0,1,.185,1.055,2.6,2.6,0,0,1-.635,1.847,2.143,2.143,0,0,1-1.621.7,1.965,1.965,0,0,1-1.023-.28,1.831,1.831,0,0,1-.693-.751v3.383h-.86v-7.35h.826v.954a1.787,1.787,0,0,1,.693-.763,1.939,1.939,0,0,1,1.031-.283Zm-.168,4.336a1.468,1.468,0,0,0,1.132-.489,2.085,2.085,0,0,0,0-2.6,1.469,1.469,0,0,0-1.132-.489,1.5,1.5,0,0,0-1.144.509,2.009,2.009,0,0,0,0,2.543,1.482,1.482,0,0,0,1.14.53Z" transform="translate(-444.535 -166.359)"/>
    <path id="Trazado_102994" data-name="Trazado 102994" d="M474.25,193.78a1.488,1.488,0,0,1,.6-.636,1.831,1.831,0,0,1,.941-.252v.808a1.621,1.621,0,0,0-1.138.363,1.511,1.511,0,0,0-.388,1.157v2.6h-.858V192.94h.84Z" transform="translate(-448.079 -166.396)"/>
    <path id="Trazado_102995" data-name="Trazado 102995" d="M482.716,195.253v.235H478.9a1.71,1.71,0,0,0,.47,1.272,1.526,1.526,0,0,0,1.112.439,1.482,1.482,0,0,0,.808-.235,1.59,1.59,0,0,0,.56-.636l.776.168a2.213,2.213,0,0,1-.84,1.049,2.282,2.282,0,0,1-1.271.381,2.359,2.359,0,0,1-1.755-.68,2.893,2.893,0,0,1,0-3.713,2.351,2.351,0,0,1,1.729-.68,2.206,2.206,0,0,1,1.646.636A2.473,2.473,0,0,1,482.716,195.253Zm-2.267-1.78a1.5,1.5,0,0,0-1.008.35,1.582,1.582,0,0,0-.515,1.008h2.918a1.457,1.457,0,0,0-.426-1.007,1.374,1.374,0,0,0-.966-.35Z" transform="translate(-449.782 -166.38)"/>
    <path id="Trazado_102996" data-name="Trazado 102996" d="M488.8,197.87a2.308,2.308,0,0,1-1.316-.35,1.45,1.45,0,0,1-.636-1.008l.751-.216a1.029,1.029,0,0,0,.4.68,1.271,1.271,0,0,0,.8.242,1.8,1.8,0,0,0,.47-.064.764.764,0,0,0,.356-.242.636.636,0,0,0,.146-.445.964.964,0,0,0-.038-.2.747.747,0,0,0-.084-.159.356.356,0,0,0-.14-.133,1.443,1.443,0,0,0-.168-.108l-.222-.089-.235-.084-.274-.076-.286-.084c-.2-.064-.369-.121-.5-.178a2.124,2.124,0,0,1-.413-.235.9.9,0,0,1-.318-.388,1.215,1.215,0,0,1-.108-.547,1.272,1.272,0,0,1,.235-.776,1.353,1.353,0,0,1,.636-.464,2.478,2.478,0,0,1,.871-.14,2.137,2.137,0,0,1,1.189.318,1.335,1.335,0,0,1,.588.954l-.706.178a.928.928,0,0,0-.369-.636,1.183,1.183,0,0,0-.7-.21,1.221,1.221,0,0,0-.636.168.588.588,0,0,0-.274.528.483.483,0,0,0,.076.267.68.68,0,0,0,.146.191.952.952,0,0,0,.267.153l.286.1.363.089h.07c.2.044.35.089.47.127a3.906,3.906,0,0,1,.426.178,1.385,1.385,0,0,1,.375.267,1.228,1.228,0,0,1,.242.381,1.36,1.36,0,0,1,.1.521,1.387,1.387,0,0,1-.146.636,1.182,1.182,0,0,1-.395.452,1.905,1.905,0,0,1-.573.242,2.6,2.6,0,0,1-.72.162Z" transform="translate(-452.974 -166.365)"/>
    <path id="Trazado_102997" data-name="Trazado 102997" d="M495.225,190.478a.588.588,0,0,1-.588-.588.553.553,0,0,1,.168-.407.588.588,0,0,1,.413-.168.566.566,0,0,1,.4.168.554.554,0,0,1,.168.407.566.566,0,0,1-.168.413A.548.548,0,0,1,495.225,190.478Zm-.438,6.027v-4.883h.865v4.883Z" transform="translate(-455.81 -165.095)"/>
    <path id="Trazado_102998" data-name="Trazado 102998" d="M501.606,192.94h.916l-1.984,4.883h-.731l-1.977-4.883h.915l1.427,3.885Z" transform="translate(-456.972 -166.414)"/>
    <path id="Trazado_102999" data-name="Trazado 102999" d="M508.318,197.863a2.544,2.544,0,0,1-1.272-.306,2.15,2.15,0,0,1-.884-.884,2.728,2.728,0,0,1-.324-1.348,2.493,2.493,0,0,1,.693-1.847,2.4,2.4,0,0,1,1.763-.693,2.422,2.422,0,0,1,1.774.693,2.544,2.544,0,0,1,.687,1.847,2.486,2.486,0,0,1-.693,1.847,2.378,2.378,0,0,1-1.742.693Zm0-.712a1.5,1.5,0,0,0,1.151-.5,1.908,1.908,0,0,0,.464-1.322,1.87,1.87,0,0,0-.464-1.316,1.482,1.482,0,0,0-1.151-.5,1.456,1.456,0,0,0-1.144.5,1.862,1.862,0,0,0-.458,1.316,1.907,1.907,0,0,0,.458,1.322,1.482,1.482,0,0,0,1.144.5Z" transform="translate(-459.888 -166.357)"/>
    <path id="Trazado_103000" data-name="Trazado 103000" d="M437.328,209.65h-2.849v2.289h2.543v.826h-2.543v2.289h2.842v.808H433.57v-6.994h3.751Z" transform="translate(-433.57 -172.215)"/>
    <path id="Trazado_103001" data-name="Trazado 103001" d="M443.122,217.1a2.308,2.308,0,0,1-1.316-.349,1.45,1.45,0,0,1-.636-1.008l.751-.216a1.029,1.029,0,0,0,.4.68,1.272,1.272,0,0,0,.8.242,1.792,1.792,0,0,0,.47-.064.762.762,0,0,0,.356-.242.636.636,0,0,0,.146-.445.971.971,0,0,0-.038-.2.923.923,0,0,0-.084-.159.357.357,0,0,0-.14-.133,1.444,1.444,0,0,0-.168-.108,1.763,1.763,0,0,0-.223-.089l-.235-.084-.274-.076-.286-.084c-.2-.064-.369-.121-.5-.178a2.123,2.123,0,0,1-.413-.235.948.948,0,0,1-.318-.388,1.217,1.217,0,0,1-.108-.547,1.272,1.272,0,0,1,.235-.782,1.368,1.368,0,0,1,.636-.458,2.415,2.415,0,0,1,.865-.14,2.136,2.136,0,0,1,1.189.318,1.335,1.335,0,0,1,.588.954l-.706.178a.928.928,0,0,0-.369-.636,1.183,1.183,0,0,0-.7-.21,1.221,1.221,0,0,0-.636.168.588.588,0,0,0-.267.528.483.483,0,0,0,.07.267.682.682,0,0,0,.146.191.828.828,0,0,0,.267.146,2.286,2.286,0,0,0,.286.108l.363.089h.07l.47.133a3.921,3.921,0,0,1,.426.178,1.385,1.385,0,0,1,.375.267,1.274,1.274,0,0,1,.242.375,1.417,1.417,0,0,1,.1.528,1.386,1.386,0,0,1-.146.636,1.119,1.119,0,0,1-.395.445,1.78,1.78,0,0,1-.573.252,2.6,2.6,0,0,1-.714.149Z" transform="translate(-436.337 -173.368)"/>
    <path id="Trazado_103002" data-name="Trazado 103002" d="M450.315,216.091a1.271,1.271,0,0,1-.954-.35,1.335,1.335,0,0,1-.343-.973v-2.874H448v-.687h.363a.706.706,0,0,0,.541-.168.821.821,0,0,0,.159-.573v-.887h.845v1.628h1.115v.687H449.9v2.785a.719.719,0,0,0,.185.534.636.636,0,0,0,.49.191h.445v.687Z" transform="translate(-438.825 -172.473)"/>
    <path id="Trazado_103003" data-name="Trazado 103003" d="M455.5,217.1a1.666,1.666,0,0,1-1.068-.336,1.2,1.2,0,0,1-.42-1,1.449,1.449,0,0,1,.133-.636,1.106,1.106,0,0,1,.4-.439,2.172,2.172,0,0,1,.573-.28,5.853,5.853,0,0,1,.744-.178l.788-.127c.286-.051.432-.2.432-.452a.846.846,0,0,0-.3-.725A1.227,1.227,0,0,0,456,212.7a1.272,1.272,0,0,0-.763.222.96.96,0,0,0-.363.687l-.776-.168a1.527,1.527,0,0,1,.636-1.043,2.289,2.289,0,0,1,1.335-.349,2.746,2.746,0,0,1,.706.089,1.9,1.9,0,0,1,.588.274,1.233,1.233,0,0,1,.42.521,1.965,1.965,0,0,1,.153.808v2.015a.82.82,0,0,0,.114.509.471.471,0,0,0,.381.134h.084v.636h-.426c-.528,0-.84-.216-.929-.636h-.038A1.847,1.847,0,0,1,455.5,217.1Zm.2-.693a1.272,1.272,0,0,0,1.043-.477,1.907,1.907,0,0,0,.4-1.272l-1.272.252a1.7,1.7,0,0,0-.756.274.711.711,0,0,0-.013,1.068.986.986,0,0,0,.6.14Z" transform="translate(-441.012 -173.372)"/>
    <path id="Trazado_103004" data-name="Trazado 103004" d="M465.283,212a1.7,1.7,0,0,1,1.227.445,1.653,1.653,0,0,1,.458,1.272V217h-.861v-3.1a1.138,1.138,0,0,0-.3-.871,1.049,1.049,0,0,0-.763-.286,1.2,1.2,0,0,0-.871.336,1.393,1.393,0,0,0-.343,1V217H463V212.12h.858v.636A1.64,1.64,0,0,1,465.283,212Z" transform="translate(-444.288 -173.354)"/>
    <path id="Trazado_103005" data-name="Trazado 103005" d="M473.6,217.1a2.34,2.34,0,0,1-1.749-.7,2.785,2.785,0,0,1,0-3.662,2.543,2.543,0,0,1,3.179-.274,2.162,2.162,0,0,1,.826,1.183l-.808.133a1.462,1.462,0,0,0-.553-.763,1.5,1.5,0,0,0-.884-.267,1.418,1.418,0,0,0-1.125.5,2.162,2.162,0,0,0,0,2.626,1.417,1.417,0,0,0,1.125.5,1.5,1.5,0,0,0,.884-.267,1.463,1.463,0,0,0,.553-.763l.808.134a2.174,2.174,0,0,1-.826,1.189,2.379,2.379,0,0,1-1.43.423Z" transform="translate(-447.263 -173.366)"/>
    <path id="Trazado_103006" data-name="Trazado 103006" d="M481.466,217.1a1.666,1.666,0,0,1-1.068-.336,1.2,1.2,0,0,1-.42-1,1.45,1.45,0,0,1,.133-.636,1.13,1.13,0,0,1,.395-.439,2.318,2.318,0,0,1,.578-.28,5.85,5.85,0,0,1,.744-.178l.788-.127c.286-.051.432-.2.432-.452a.845.845,0,0,0-.306-.725,1.228,1.228,0,0,0-.776-.235,1.272,1.272,0,0,0-.763.222.961.961,0,0,0-.363.687l-.776-.168a1.481,1.481,0,0,1,.636-1.043,2.267,2.267,0,0,1,1.329-.35,2.765,2.765,0,0,1,.712.089,1.907,1.907,0,0,1,.588.274,1.234,1.234,0,0,1,.42.521,1.963,1.963,0,0,1,.153.808v2.015a.819.819,0,0,0,.114.509.464.464,0,0,0,.381.134h.039v.636H484a.814.814,0,0,1-.924-.636h-.038a1.856,1.856,0,0,1-1.578.707Zm.2-.693a1.272,1.272,0,0,0,1.043-.477,1.907,1.907,0,0,0,.4-1.272l-1.272.252a1.671,1.671,0,0,0-.756.274.711.711,0,0,0-.013,1.068.986.986,0,0,0,.6.14Z" transform="translate(-450.47 -173.372)"/>
    <path id="Trazado_103007" data-name="Trazado 103007" d="M492.164,207.82h.858v7.63h-.833V214.5a1.8,1.8,0,0,1-.693.769,1.907,1.907,0,0,1-1.036.286,2.2,2.2,0,0,1-.884-.185,2.142,2.142,0,0,1-.725-.509,2.266,2.266,0,0,1-.489-.808,2.92,2.92,0,0,1-.185-1.043,2.588,2.588,0,0,1,.636-1.838,2.148,2.148,0,0,1,1.621-.706,1.945,1.945,0,0,1,1.023.28,1.831,1.831,0,0,1,.7.744Zm-1.539,6.994a1.475,1.475,0,0,0,1.132-.509,2.028,2.028,0,0,0,0-2.543,1.469,1.469,0,0,0-1.132-.515,1.494,1.494,0,0,0-1.144.5,1.838,1.838,0,0,0-.464,1.3,1.812,1.812,0,0,0,.464,1.272,1.494,1.494,0,0,0,1.125.489Z" transform="translate(-453.456 -171.832)"/>
    <path id="Trazado_103008" data-name="Trazado 103008" d="M500.362,217.094a2.543,2.543,0,0,1-1.272-.3,2.174,2.174,0,0,1-.877-.884,2.728,2.728,0,0,1-.324-1.348,2.487,2.487,0,0,1,.693-1.847,2.594,2.594,0,0,1,3.526,0,2.8,2.8,0,0,1,0,3.687,2.384,2.384,0,0,1-1.746.7Zm0-.712a1.511,1.511,0,0,0,1.151-.5,2.13,2.13,0,0,0,0-2.639,1.488,1.488,0,0,0-1.151-.5,1.456,1.456,0,0,0-1.144.5,2.13,2.13,0,0,0,0,2.639,1.482,1.482,0,0,0,1.144.484Z" transform="translate(-456.993 -173.363)"/>
    <path id="Trazado_103009" data-name="Trazado 103009" d="M433.58,234.994V228h.9v6.994Z" transform="translate(-433.573 -179.182)"/>
    <path id="Trazado_103010" data-name="Trazado 103010" d="M440.385,231.188a1.71,1.71,0,0,1,1.227.445,1.653,1.653,0,0,1,.458,1.272v3.249H441.2v-3.1a1.157,1.157,0,0,0-.3-.871,1.049,1.049,0,0,0-.763-.286,1.2,1.2,0,0,0-.871.336,1.392,1.392,0,0,0-.343,1v2.917h-.856v-4.883h.858v.636a1.628,1.628,0,0,1,1.457-.715Z" transform="translate(-435.209 -180.342)"/>
    <path id="Trazado_103011" data-name="Trazado 103011" d="M451.039,233.623v.235h-3.815a1.71,1.71,0,0,0,.47,1.272,1.525,1.525,0,0,0,1.112.439,1.482,1.482,0,0,0,.808-.235,1.551,1.551,0,0,0,.56-.636l.776.168a2.212,2.212,0,0,1-.84,1.049,2.282,2.282,0,0,1-1.271.381,2.359,2.359,0,0,1-1.755-.68,2.893,2.893,0,0,1,0-3.713,2.351,2.351,0,0,1,1.735-.68,2.2,2.2,0,0,1,1.641.636,2.454,2.454,0,0,1,.578,1.767Zm-2.257-1.78a1.5,1.5,0,0,0-1.018.35,1.583,1.583,0,0,0-.515,1.007h2.925a1.456,1.456,0,0,0-.426-1.007,1.367,1.367,0,0,0-.966-.331Z" transform="translate(-438.246 -180.355)"/>
    <path id="Trazado_103012" data-name="Trazado 103012" d="M456.65,232.18a1.488,1.488,0,0,1,.6-.636,1.831,1.831,0,0,1,.941-.252v.808a1.621,1.621,0,0,0-1.138.363,1.511,1.511,0,0,0-.388,1.157V236.2h-.858v-4.883h.84Z" transform="translate(-441.669 -180.38)"/>
    <path id="Trazado_103013" data-name="Trazado 103013" d="M462.681,235.271a1.272,1.272,0,0,1-.954-.35,1.343,1.343,0,0,1-.35-.973v-2.874h-1v-.685h.395a.705.705,0,0,0,.541-.168.851.851,0,0,0,.159-.573v-.888h.8v1.629h1.125v.687h-1.125v2.785a.725.725,0,0,0,.191.534.635.635,0,0,0,.489.191h.445v.687Z" transform="translate(-443.334 -179.458)"/>
    <path id="Trazado_103014" data-name="Trazado 103014" d="M471.049,233.616v.235h-3.815a1.71,1.71,0,0,0,.47,1.272,1.526,1.526,0,0,0,1.112.439,1.475,1.475,0,0,0,1.361-.884l.776.168a2.168,2.168,0,0,1-.833,1.049,2.282,2.282,0,0,1-1.271.381,2.359,2.359,0,0,1-1.755-.68,2.893,2.893,0,0,1,0-3.713,2.34,2.34,0,0,1,1.729-.68,2.207,2.207,0,0,1,1.646.636,2.479,2.479,0,0,1,.578,1.777Zm-2.267-1.78a1.494,1.494,0,0,0-1.008.35,1.583,1.583,0,0,0-.515,1.007h2.922a1.456,1.456,0,0,0-.426-1.007,1.373,1.373,0,0,0-.973-.331Z" transform="translate(-445.533 -180.347)"/>
  </g>
  <g id="Grupo_57738" data-name="Grupo 57738" transform="translate(275.487 74.123)">
    <path id="Trazado_103015" data-name="Trazado 103015" d="M438.188,117.11h1.482v7.178h-1.723l-3.179-5.131v5.131H433.28V117.11h1.73l3.179,5.086Z" transform="translate(-433.28 -116.773)"/>
    <path id="Trazado_103016" data-name="Trazado 103016" d="M450.494,122.781v.343h-3.814a1.31,1.31,0,0,0,.407.934,1.418,1.418,0,0,0,1.57.146,1.113,1.113,0,0,0,.432-.515l1.31.191a2.232,2.232,0,0,1-.9,1.2,2.639,2.639,0,0,1-1.507.426,2.76,2.76,0,0,1-1.99-.706,2.543,2.543,0,0,1-.738-1.945,2.6,2.6,0,0,1,.738-1.952,2.687,2.687,0,0,1,1.945-.712,2.333,2.333,0,0,1,2.543,2.588Zm-2.543-1.577a1.132,1.132,0,0,0-1.24.986h2.347a1.075,1.075,0,0,0-.356-.731,1.125,1.125,0,0,0-.725-.252Z" transform="translate(-437.644 -117.892)"/>
    <path id="Trazado_103017" data-name="Trazado 103017" d="M458.461,120.3h1.361v4.724a3.817,3.817,0,0,1-.191,1.272,2.053,2.053,0,0,1-.553.871,2.321,2.321,0,0,1-.852.489,3.51,3.51,0,0,1-1.112.159,2.519,2.519,0,0,1-2.632-1.583l1.189-.509a1.724,1.724,0,0,0,.547.744,1.4,1.4,0,0,0,.84.235c.884,0,1.329-.521,1.329-1.577v-.61a1.608,1.608,0,0,1-.636.5,2.156,2.156,0,0,1-.909.191,2.276,2.276,0,0,1-.9-.178,2.383,2.383,0,0,1-.744-.509,2.422,2.422,0,0,1-.5-.8,3.007,3.007,0,0,1,0-2.073,2.283,2.283,0,0,1,.509-.788,2.124,2.124,0,0,1,.744-.5,2.3,2.3,0,0,1,.9-.185,2.1,2.1,0,0,1,.947.216,1.468,1.468,0,0,1,.636.559Zm-2.194,3.376a1.233,1.233,0,0,0,.934.395,1.272,1.272,0,0,0,.941-.395,1.427,1.427,0,0,0,0-1.945,1.329,1.329,0,0,0-1.908,0,1.361,1.361,0,0,0-.375.979A1.335,1.335,0,0,0,456.267,123.677Z" transform="translate(-441.001 -117.891)"/>
    <path id="Trazado_103018" data-name="Trazado 103018" d="M469.192,124.045a4.774,4.774,0,0,0,.121,1.272v.14h-1.335l-.114-.553a1.646,1.646,0,0,1-.712.489,2.687,2.687,0,0,1-.924.168,2.769,2.769,0,0,1-.477-.045,1.75,1.75,0,0,1-.432-.153,1.272,1.272,0,0,1-.356-.267,1.057,1.057,0,0,1-.235-.407,1.488,1.488,0,0,1-.089-.553,1.532,1.532,0,0,1,.089-.553,1.321,1.321,0,0,1,.252-.413,1.581,1.581,0,0,1,.407-.306,3.178,3.178,0,0,1,.5-.216,5.953,5.953,0,0,1,.636-.159l.84-.191a.9.9,0,0,0,.381-.159.336.336,0,0,0,.108-.252.541.541,0,0,0-.252-.5,1.272,1.272,0,0,0-.636-.146.877.877,0,0,0-1,.782L464.7,121.8a1.717,1.717,0,0,1,.737-1.17,2.956,2.956,0,0,1,1.6-.375q2.149,0,2.149,1.847Zm-2.543.515a1.144,1.144,0,0,0,.884-.369,1.545,1.545,0,0,0,.343-1.091l-1.214.343a1.361,1.361,0,0,0-.509.21.432.432,0,0,0-.178.369.471.471,0,0,0,.191.4.776.776,0,0,0,.509.121Z" transform="translate(-444.701 -117.915)"/>
    <path id="Trazado_103019" data-name="Trazado 103019" d="M475.4,124.534a1.52,1.52,0,0,1-1.151-.413,1.6,1.6,0,0,1-.407-1.183v-2.41h-1.007v-1.1h.324a.84.84,0,0,0,.636-.216,1.1,1.1,0,0,0,.2-.756v-.672h1.272v1.646h1.049v1.1h-1.03v2.257c0,.445.2.636.588.636h.458v1.091Z" transform="translate(-447.687 -117.017)"/>
    <path id="Trazado_103020" data-name="Trazado 103020" d="M480.766,118.226a.82.82,0,0,1-.588-.242.8.8,0,0,1-.242-.588.783.783,0,0,1,.252-.578.82.82,0,0,1,1.157,1.164A.8.8,0,0,1,480.766,118.226Zm-.725,5.869v-5.086h1.437V124.1Z" transform="translate(-450.272 -116.58)"/>
    <path id="Trazado_103021" data-name="Trazado 103021" d="M487.582,120.37h1.511l-2.174,5.086h-1.269L483.5,120.37h1.507l1.272,3.491Z" transform="translate(-451.569 -117.96)"/>
    <path id="Trazado_103022" data-name="Trazado 103022" d="M495.3,125.537a3.274,3.274,0,0,1-1.443-.311,2.351,2.351,0,0,1-.992-.924,2.709,2.709,0,0,1-.363-1.427,2.543,2.543,0,0,1,.776-1.908,3.237,3.237,0,0,1,4.05,0,2.823,2.823,0,0,1,0,3.885,2.874,2.874,0,0,1-2.028.68Zm0-1.138a1.316,1.316,0,0,0,1.007-.42,1.552,1.552,0,0,0,.381-1.1,1.584,1.584,0,0,0-.381-1.107,1.336,1.336,0,0,0-1.008-.413,1.272,1.272,0,0,0-.986.42,1.8,1.8,0,0,0,0,2.2,1.272,1.272,0,0,0,.973.42Z" transform="translate(-454.846 -117.919)"/>
  </g>
</svg>
