<svg id="info_1_4-05" xmlns="http://www.w3.org/2000/svg" width="358.322" height="191.025" viewBox="0 0 358.322 191.025">
  <rect id="Rectángulo_5393" data-name="Rectángulo 5393" width="179.161" height="145.247" fill="#ff7bac"/>
  <rect id="Rectángulo_5394" data-name="Rectángulo 5394" width="179.161" height="191.025" transform="translate(179.161)" fill="#f2f2f2"/>
  <rect id="Rectángulo_5395" data-name="Rectángulo 5395" width="44.787" height="45.779" transform="translate(0 145.247)" fill="#ff7bac"/>
  <g id="Grupo_57697" data-name="Grupo 57697" transform="translate(44.787 145.247)" opacity="0.75">
    <rect id="Rectángulo_5396" data-name="Rectángulo 5396" width="44.787" height="45.779" fill="#ff7bac"/>
  </g>
  <g id="Grupo_57698" data-name="Grupo 57698" transform="translate(89.58 145.247)" opacity="0.5">
    <rect id="Rectángulo_5397" data-name="Rectángulo 5397" width="44.787" height="45.779" fill="#ff7bac"/>
  </g>
  <g id="Grupo_57699" data-name="Grupo 57699" transform="translate(134.367 145.247)" opacity="0.25">
    <rect id="Rectángulo_5398" data-name="Rectángulo 5398" width="44.787" height="45.779" fill="#ff7bac"/>
  </g>
  <g id="Grupo_57700" data-name="Grupo 57700" transform="translate(201.974 34.271)">
    <path id="Trazado_102481" data-name="Trazado 102481" d="M326.682,72.636l-4.45-7.5H321.2v7.5H317.66V55.59h6.187a7.185,7.185,0,0,1,2.473.395,4.26,4.26,0,0,1,1.717,1.1A4.609,4.609,0,0,1,329,58.693a5.891,5.891,0,0,1,.324,2,4.139,4.139,0,0,1-.929,2.8,4.66,4.66,0,0,1-2.677,1.468l5.131,7.68Zm-5.461-14.1V62.6h2.086q2.658,0,2.658-2.028a1.856,1.856,0,0,0-.636-1.5,3.122,3.122,0,0,0-2.009-.541Z" transform="translate(-317.66 -54.515)"/>
    <path id="Trazado_102482" data-name="Trazado 102482" d="M345.761,75.555a7.629,7.629,0,0,1-3.433-.744,5.564,5.564,0,0,1-2.351-2.183,6.48,6.48,0,0,1-.858-3.383,5.938,5.938,0,0,1,1.847-4.6,7.7,7.7,0,0,1,9.614,0,6.678,6.678,0,0,1,0,9.221A6.81,6.81,0,0,1,345.761,75.555Zm-.032-2.7a3.128,3.128,0,0,0,2.4-.966,4.2,4.2,0,0,0,0-5.239,3.116,3.116,0,0,0-2.4-.992,3,3,0,0,0-2.333,1,4.235,4.235,0,0,0,0,5.226,3.014,3.014,0,0,0,2.333.973Z" transform="translate(-325.471 -57.199)"/>
    <path id="Trazado_102483" data-name="Trazado 102483" d="M367.7,75.566a6.771,6.771,0,0,1-3.535-.845,3.579,3.579,0,0,1-1.735-2.543l2.842-.808a2.283,2.283,0,0,0,2.429,1.8,2.543,2.543,0,0,0,1.24-.274.966.966,0,0,0,.484-.941.985.985,0,0,0-.2-.636,1.627,1.627,0,0,0-.636-.452c-.28-.121-.553-.229-.826-.318s-.636-.191-1.075-.311a11.7,11.7,0,0,1-1.125-.35,7.828,7.828,0,0,1-1.068-.452,4.583,4.583,0,0,1-.884-.636,2.543,2.543,0,0,1-.636-.954,3.42,3.42,0,0,1-.229-1.272,3.106,3.106,0,0,1,1.316-2.687A5.9,5.9,0,0,1,367.491,63a6.059,6.059,0,0,1,3.179.776,3.526,3.526,0,0,1,1.621,2.4l-2.632.588a2.054,2.054,0,0,0-2.155-1.532,2.339,2.339,0,0,0-1.2.274.871.871,0,0,0-.47.8.941.941,0,0,0,.07.363.781.781,0,0,0,.252.3c.121.084.235.159.343.222a2.743,2.743,0,0,0,.484.2l.534.153.636.159.636.168c.432.114.814.235,1.138.35a7.294,7.294,0,0,1,1.049.5,3.662,3.662,0,0,1,.909.719,3.18,3.18,0,0,1,.6,1,3.694,3.694,0,0,1,.235,1.354,3.61,3.61,0,0,1-.407,1.755A3.084,3.084,0,0,1,371.2,74.73a5.507,5.507,0,0,1-1.577.636,8.4,8.4,0,0,1-1.925.2Z" transform="translate(-333.964 -57.211)"/>
    <path id="Trazado_102484" data-name="Trazado 102484" d="M391.851,72.007a11.267,11.267,0,0,0,.3,2.957V75.3h-3.179l-.274-1.322a3.935,3.935,0,0,1-1.7,1.17,6.224,6.224,0,0,1-2.194.388,5.813,5.813,0,0,1-1.132-.1,3.929,3.929,0,0,1-1.023-.363,3.37,3.37,0,0,1-.845-.636,2.887,2.887,0,0,1-.566-.96,3.917,3.917,0,0,1-.21-1.316,3.708,3.708,0,0,1,.223-1.316,3.18,3.18,0,0,1,.588-.986,3.471,3.471,0,0,1,.954-.719A6.935,6.935,0,0,1,384,68.611a13.215,13.215,0,0,1,1.437-.375l2-.452a2.168,2.168,0,0,0,.9-.381.763.763,0,0,0,.267-.636A1.272,1.272,0,0,0,388,65.6a2.714,2.714,0,0,0-1.443-.356,2.081,2.081,0,0,0-2.372,1.847l-3.007-.541a4.069,4.069,0,0,1,1.763-2.766,6.93,6.93,0,0,1,3.815-.89q5.087,0,5.087,4.374Zm-5.977,1.227a2.734,2.734,0,0,0,2.1-.884,3.707,3.707,0,0,0,.814-2.6l-2.881.84a3.432,3.432,0,0,0-1.208.5,1.017,1.017,0,0,0-.42.871,1.144,1.144,0,0,0,.452.966,1.869,1.869,0,0,0,1.144.314Z" transform="translate(-340.738 -57.174)"/>
    <path id="Trazado_102485" data-name="Trazado 102485" d="M410.873,53.9h3.4V72.021h-3.217l-.084-1.577a3.536,3.536,0,0,1-1.539,1.374,5.219,5.219,0,0,1-2.276.489,5.882,5.882,0,0,1-2.267-.439,5.481,5.481,0,0,1-3.116-3.23,7.424,7.424,0,0,1-.458-2.658,6.885,6.885,0,0,1,.8-3.376,5.481,5.481,0,0,1,2.117-2.2,5.83,5.83,0,0,1,2.918-.719,5.328,5.328,0,0,1,2.2.439,3.477,3.477,0,0,1,1.52,1.272Zm-2.939,15.584a3.014,3.014,0,0,0,2.3-.966,3.526,3.526,0,0,0,.915-2.543,3.574,3.574,0,0,0-.924-2.543,3.217,3.217,0,0,0-4.6,0,4.018,4.018,0,0,0,0,5.086,3.065,3.065,0,0,0,2.308.966Z" transform="translate(-348.125 -53.9)"/>
    <path id="Trazado_102486" data-name="Trazado 102486" d="M432.3,75.555a7.63,7.63,0,0,1-3.433-.744,5.564,5.564,0,0,1-2.351-2.183,6.479,6.479,0,0,1-.858-3.383,5.939,5.939,0,0,1,1.847-4.6,7.7,7.7,0,0,1,9.614,0,6.678,6.678,0,0,1,0,9.221A6.81,6.81,0,0,1,432.3,75.555Zm-.038-2.7a3.135,3.135,0,0,0,2.4-.966,4.2,4.2,0,0,0,0-5.239,3.116,3.116,0,0,0-2.4-.992,3,3,0,0,0-2.327,1,4.235,4.235,0,0,0,0,5.226,3.007,3.007,0,0,0,2.327.973Z" transform="translate(-356.988 -57.199)"/>
  </g>
  <g id="Grupo_57701" data-name="Grupo 57701" transform="translate(202.896 95.824)">
    <path id="Trazado_102487" data-name="Trazado 102487" d="M323.114,158.252a3.771,3.771,0,0,1-1.379-.252,3.575,3.575,0,0,1-1.107-.706,3.179,3.179,0,0,1-.731-1.138,4.348,4.348,0,0,1,0-3,3.235,3.235,0,0,1,.737-1.138,3.364,3.364,0,0,1,1.1-.706,3.771,3.771,0,0,1,1.379-.252,3.526,3.526,0,0,1,1.856.5,3.065,3.065,0,0,1,1.253,1.367l-.82.336a2.358,2.358,0,0,0-.916-1,2.619,2.619,0,0,0-1.354-.35,2.841,2.841,0,0,0-1.023.185,2.422,2.422,0,0,0-.82.528,2.35,2.35,0,0,0-.553.865,3.179,3.179,0,0,0-.2,1.157,3.248,3.248,0,0,0,.2,1.17,2.351,2.351,0,0,0,.553.865,2.423,2.423,0,0,0,.82.528,2.716,2.716,0,0,0,1.023.185,2.618,2.618,0,0,0,1.354-.35,2.326,2.326,0,0,0,.916-.986l.82.331a3.052,3.052,0,0,1-1.272,1.367A3.593,3.593,0,0,1,323.114,158.252Z" transform="translate(-319.299 -150.839)"/>
    <path id="Trazado_102488" data-name="Trazado 102488" d="M333.826,159.463a2.543,2.543,0,0,1-1.272-.3,2.149,2.149,0,0,1-.884-.884,2.728,2.728,0,0,1-.324-1.348,2.493,2.493,0,0,1,.693-1.847,2.6,2.6,0,0,1,3.535,0,2.543,2.543,0,0,1,.687,1.847,2.486,2.486,0,0,1-.693,1.847,2.372,2.372,0,0,1-1.742.693Zm0-.712a1.526,1.526,0,0,0,1.157-.5,1.907,1.907,0,0,0,.458-1.322,1.863,1.863,0,0,0-.458-1.316,1.5,1.5,0,0,0-1.157-.5,1.468,1.468,0,0,0-1.144.5,1.863,1.863,0,0,0-.458,1.316,1.908,1.908,0,0,0,.458,1.322,1.488,1.488,0,0,0,1.138.5Z" transform="translate(-323.565 -152.049)"/>
    <path id="Trazado_102489" data-name="Trazado 102489" d="M346.221,154.389a1.564,1.564,0,0,1,1.138.42,1.511,1.511,0,0,1,.432,1.164v3.4h-.858v-3.179a1.112,1.112,0,0,0-.267-.808.929.929,0,0,0-.68-.274.96.96,0,0,0-.744.311,1.31,1.31,0,0,0-.286.924v3.022h-.872V156.22a1.157,1.157,0,0,0-.274-.826.909.909,0,0,0-.693-.286.96.96,0,0,0-.744.318,1.373,1.373,0,0,0-.286.947v2.988h-.858v-4.879h.858v.636a1.551,1.551,0,0,1,.559-.534,1.577,1.577,0,0,1,.776-.191,1.648,1.648,0,0,1,.84.21,1.272,1.272,0,0,1,.541.588,1.493,1.493,0,0,1,.588-.588A1.652,1.652,0,0,1,346.221,154.389Z" transform="translate(-327.165 -152.05)"/>
    <path id="Trazado_102490" data-name="Trazado 102490" d="M356.76,154.389a2.183,2.183,0,0,1,.884.185,2.134,2.134,0,0,1,.725.5,2.328,2.328,0,0,1,.489.808,3,3,0,0,1,.185,1.055,2.543,2.543,0,0,1-.635,1.838,2.13,2.13,0,0,1-1.621.706,1.908,1.908,0,0,1-1.018-.28,1.847,1.847,0,0,1-.7-.751v3.383h-.859v-7.348h.826v.947a1.787,1.787,0,0,1,.7-.756,1.907,1.907,0,0,1,1.023-.286Zm-.168,4.336a1.488,1.488,0,0,0,1.132-.489,2.086,2.086,0,0,0,0-2.6,1.488,1.488,0,0,0-1.132-.489,1.511,1.511,0,0,0-1.151.509,2.009,2.009,0,0,0,0,2.543,1.482,1.482,0,0,0,1.175.534Z" transform="translate(-331.892 -152.05)"/>
    <path id="Trazado_102491" data-name="Trazado 102491" d="M364.863,159.47a1.635,1.635,0,0,1-1.075-.336,1.2,1.2,0,0,1-.42-1,1.4,1.4,0,0,1,.133-.636,1.081,1.081,0,0,1,.4-.445,2.177,2.177,0,0,1,.573-.28,5.423,5.423,0,0,1,.744-.168l.788-.133c.286-.051.432-.2.432-.452a.845.845,0,0,0-.306-.725,1.227,1.227,0,0,0-.776-.235,1.272,1.272,0,0,0-.763.222.959.959,0,0,0-.363.687l-.776-.159a1.526,1.526,0,0,1,.635-1.049,2.289,2.289,0,0,1,1.335-.35,2.744,2.744,0,0,1,.706.089,1.792,1.792,0,0,1,.588.274,1.189,1.189,0,0,1,.42.521,1.963,1.963,0,0,1,.153.808v2.015a.82.82,0,0,0,.114.509.477.477,0,0,0,.381.133h.084v.636h-.426c-.528,0-.84-.216-.929-.636h-.038a1.847,1.847,0,0,1-1.621.712Zm.2-.693a1.3,1.3,0,0,0,1.049-.477,1.959,1.959,0,0,0,.394-1.272l-1.272.252a1.7,1.7,0,0,0-.756.274.711.711,0,0,0-.013,1.068.986.986,0,0,0,.578.159Z" transform="translate(-335.227 -152.057)"/>
    <path id="Trazado_102492" data-name="Trazado 102492" d="M373.627,159.469a2.333,2.333,0,0,1-1.316-.35,1.463,1.463,0,0,1-.636-1.007l.751-.217a1.03,1.03,0,0,0,.4.68,1.272,1.272,0,0,0,.8.242,1.83,1.83,0,0,0,.47-.064.762.762,0,0,0,.356-.242.636.636,0,0,0,.146-.445.975.975,0,0,0-.038-.2.745.745,0,0,0-.084-.159.407.407,0,0,0-.14-.133l-.168-.108a1.773,1.773,0,0,0-.223-.089l-.235-.084-.274-.076-.286-.084a4.8,4.8,0,0,1-.5-.178,2.122,2.122,0,0,1-.413-.235.909.909,0,0,1-.324-.388,1.312,1.312,0,0,1-.1-.547,1.271,1.271,0,0,1,.235-.776,1.322,1.322,0,0,1,.636-.464,2.479,2.479,0,0,1,.871-.14,2.137,2.137,0,0,1,1.189.318,1.335,1.335,0,0,1,.588.954l-.706.178a.928.928,0,0,0-.369-.636,1.189,1.189,0,0,0-.706-.21,1.215,1.215,0,0,0-.636.168.588.588,0,0,0-.274.528.484.484,0,0,0,.076.267.684.684,0,0,0,.146.191.954.954,0,0,0,.267.153l.286.1.356.089h.076l.47.133a3.405,3.405,0,0,1,.42.178,1.334,1.334,0,0,1,.381.267,1.27,1.27,0,0,1,.242.375,1.418,1.418,0,0,1,.1.528,1.386,1.386,0,0,1-.146.636,1.145,1.145,0,0,1-.4.452,1.813,1.813,0,0,1-.566.242A2.609,2.609,0,0,1,373.627,159.469Z" transform="translate(-338.254 -152.056)"/>
    <path id="Trazado_102493" data-name="Trazado 102493" d="M380.065,152.078a.588.588,0,0,1-.588-.588.554.554,0,0,1,.168-.407.588.588,0,0,1,.413-.168.566.566,0,0,1,.4.168.553.553,0,0,1,.168.407.566.566,0,0,1-.168.413.547.547,0,0,1-.4.168Zm-.439,6.027v-4.883h.865v4.883Z" transform="translate(-341.095 -150.786)"/>
    <path id="Trazado_102494" data-name="Trazado 102494" d="M385.626,158.123a2.543,2.543,0,0,1-1.272-.306,2.175,2.175,0,0,1-.877-.884,2.664,2.664,0,0,1-.331-1.348,2.543,2.543,0,0,1,.693-1.847,2.6,2.6,0,0,1,3.535,0,2.8,2.8,0,0,1,0,3.687,2.384,2.384,0,0,1-1.748.7Zm0-.712a1.511,1.511,0,0,0,1.157-.5,1.907,1.907,0,0,0,.458-1.322,1.863,1.863,0,0,0-.458-1.316,1.5,1.5,0,0,0-1.157-.5,1.475,1.475,0,0,0-1.144.5,2.154,2.154,0,0,0,0,2.639,1.5,1.5,0,0,0,1.112.5Zm-.318-5.086,1.272-1.615.458.331-1.112,1.272Z" transform="translate(-342.43 -150.71)"/>
    <path id="Trazado_102495" data-name="Trazado 102495" d="M395.327,154.388a1.7,1.7,0,0,1,1.227.445,1.628,1.628,0,0,1,.464,1.272v3.287h-.84V156.3a1.17,1.17,0,0,0-.3-.877,1.075,1.075,0,0,0-.769-.286,1.175,1.175,0,0,0-.865.336,1.343,1.343,0,0,0-.343,1v2.918H393v-4.883h.858v.636a1.628,1.628,0,0,1,1.469-.755Z" transform="translate(-346.019 -152.049)"/>
    <path id="Trazado_102496" data-name="Trazado 102496" d="M324.419,177.414l-.6-1.672h-3.179l-.6,1.672h-.929l2.575-6.994h1.062l2.582,6.994Zm-3.472-2.454h2.6l-1.335-3.643Z" transform="translate(-319.11 -157.888)"/>
    <path id="Trazado_102497" data-name="Trazado 102497" d="M335.747,173.586a1.564,1.564,0,0,1,1.138.42,1.511,1.511,0,0,1,.432,1.164v3.4h-.858v-3.179a1.112,1.112,0,0,0-.267-.808.924.924,0,0,0-.68-.267.954.954,0,0,0-.744.306,1.309,1.309,0,0,0-.286.924v3.022h-.868v-3.135a1.163,1.163,0,0,0-.274-.833.909.909,0,0,0-.693-.28.954.954,0,0,0-.744.312,1.374,1.374,0,0,0-.286.947v2.988h-.858v-4.883h.858v.636a1.519,1.519,0,0,1,.559-.541,1.583,1.583,0,0,1,.782-.191,1.64,1.64,0,0,1,.833.21,1.272,1.272,0,0,1,.541.588,1.539,1.539,0,0,1,.588-.588,1.654,1.654,0,0,1,.833-.2Z" transform="translate(-323.352 -159.039)"/>
    <path id="Trazado_102498" data-name="Trazado 102498" d="M345.508,178.663a2.543,2.543,0,0,1-1.272-.3,2.149,2.149,0,0,1-.884-.884,2.726,2.726,0,0,1-.324-1.348,2.492,2.492,0,0,1,.693-1.847,2.4,2.4,0,0,1,1.763-.693,2.422,2.422,0,0,1,1.774.693,2.543,2.543,0,0,1,.687,1.847,2.486,2.486,0,0,1-.693,1.847A2.378,2.378,0,0,1,345.508,178.663Zm0-.712a1.5,1.5,0,0,0,1.151-.5,1.908,1.908,0,0,0,.464-1.322,1.869,1.869,0,0,0-.464-1.316,1.482,1.482,0,0,0-1.151-.5,1.456,1.456,0,0,0-1.144.5,1.862,1.862,0,0,0-.458,1.316,1.907,1.907,0,0,0,.458,1.322,1.482,1.482,0,0,0,1.144.5Z" transform="translate(-327.819 -159.041)"/>
    <path id="Trazado_102499" data-name="Trazado 102499" d="M353.76,174.58a1.487,1.487,0,0,1,.6-.636,1.831,1.831,0,0,1,.941-.252v.808a1.621,1.621,0,0,0-1.138.363,1.511,1.511,0,0,0-.388,1.157v2.6h-.858V173.74h.84Z" transform="translate(-331.423 -159.079)"/>
    <path id="Trazado_102500" data-name="Trazado 102500" d="M320.4,196.614V189.62h.884v6.994Z" transform="translate(-319.58 -164.88)"/>
    <path id="Trazado_102501" data-name="Trazado 102501" d="M327.2,192.789a1.7,1.7,0,0,1,1.227.445,1.627,1.627,0,0,1,.464,1.272v3.287h-.858v-3.1a1.164,1.164,0,0,0-.3-.871,1.075,1.075,0,0,0-.769-.286,1.175,1.175,0,0,0-.865.336,1.343,1.343,0,0,0-.343,1v2.918h-.86v-4.883h.858v.636a1.621,1.621,0,0,1,1.444-.756Z" transform="translate(-321.218 -166.034)"/>
    <path id="Trazado_102502" data-name="Trazado 102502" d="M338.781,192.789a1.571,1.571,0,0,1,1.138.42,1.532,1.532,0,0,1,.432,1.164v3.4h-.865v-3.179a1.112,1.112,0,0,0-.267-.808.928.928,0,0,0-.68-.274.979.979,0,0,0-.744.311,1.31,1.31,0,0,0-.28.924v3.022h-.877v-3.141a1.125,1.125,0,0,0-.274-.826.9.9,0,0,0-.693-.286.96.96,0,0,0-.738.318,1.374,1.374,0,0,0-.286.947v2.988h-.859v-4.882h.858v.636a1.457,1.457,0,0,1,.559-.534,1.577,1.577,0,0,1,.776-.191,1.641,1.641,0,0,1,.833.21,1.272,1.272,0,0,1,.541.588,1.511,1.511,0,0,1,.588-.588A1.641,1.641,0,0,1,338.781,192.789Z" transform="translate(-324.456 -166.034)"/>
    <path id="Trazado_102503" data-name="Trazado 102503" d="M347.642,197.88a1.672,1.672,0,0,1-1.075-.336,1.2,1.2,0,0,1-.42-1,1.45,1.45,0,0,1,.133-.636,1.106,1.106,0,0,1,.407-.426,2.281,2.281,0,0,1,.573-.28,6.447,6.447,0,0,1,.744-.178l.788-.127c.286-.051.432-.2.432-.452a.846.846,0,0,0-.3-.725,1.208,1.208,0,0,0-.769-.235,1.311,1.311,0,0,0-.769.223.96.96,0,0,0-.363.687l-.776-.168a1.526,1.526,0,0,1,.636-1.043,2.288,2.288,0,0,1,1.335-.35,2.715,2.715,0,0,1,.706.089,1.794,1.794,0,0,1,.588.274,1.272,1.272,0,0,1,.426.521,2.08,2.08,0,0,1,.146.808v2.015a.82.82,0,0,0,.114.509.484.484,0,0,0,.388.134h.076v.636h-.426a.808.808,0,0,1-.924-.636h-.084A1.863,1.863,0,0,1,347.642,197.88Zm.2-.693a1.3,1.3,0,0,0,1.049-.477,1.959,1.959,0,0,0,.395-1.272l-1.272.252a1.7,1.7,0,0,0-.756.274.712.712,0,0,0,0,1.068.986.986,0,0,0,.588.159Z" transform="translate(-328.955 -166.051)"/>
    <path id="Trazado_102504" data-name="Trazado 102504" d="M358.348,188.62h.877v7.63H358.4V195.3a1.819,1.819,0,0,1-.7.769,1.907,1.907,0,0,1-1.03.286,2.2,2.2,0,0,1-.884-.185,2.166,2.166,0,0,1-.731-.509,2.367,2.367,0,0,1-.49-.808,2.918,2.918,0,0,1-.178-1.043,2.543,2.543,0,0,1,.635-1.838,2.13,2.13,0,0,1,1.621-.706,1.907,1.907,0,0,1,1.018.28,1.786,1.786,0,0,1,.7.744Zm-1.539,6.994a1.488,1.488,0,0,0,1.138-.509,1.869,1.869,0,0,0,.458-1.272,1.831,1.831,0,0,0-.464-1.272,1.463,1.463,0,0,0-1.132-.515,1.511,1.511,0,0,0-1.144.5,2.073,2.073,0,0,0,0,2.6,1.511,1.511,0,0,0,1.144.464Z" transform="translate(-331.955 -164.516)"/>
    <path id="Trazado_102505" data-name="Trazado 102505" d="M367.716,192.929h.865v4.883h-.827v-.636a1.564,1.564,0,0,1-.6.547,1.907,1.907,0,0,1-.858.191,1.672,1.672,0,0,1-1.227-.445,1.641,1.641,0,0,1-.458-1.272V192.91h.858v3.1a1.138,1.138,0,0,0,.3.871,1.043,1.043,0,0,0,.769.292,1.175,1.175,0,0,0,.865-.336,1.373,1.373,0,0,0,.336-1Z" transform="translate(-335.677 -166.079)"/>
    <path id="Trazado_102506" data-name="Trazado 102506" d="M374.45,193.78a1.488,1.488,0,0,1,.6-.636,1.812,1.812,0,0,1,.941-.252v.808a1.621,1.621,0,0,0-1.138.363,1.511,1.511,0,0,0-.388,1.157v2.6h-.858V192.94h.84Z" transform="translate(-338.958 -166.072)"/>
    <path id="Trazado_102507" data-name="Trazado 102507" d="M380.662,197.864a2.543,2.543,0,0,1-1.272-.3,2.175,2.175,0,0,1-.877-.884,2.728,2.728,0,0,1-.324-1.348,2.486,2.486,0,0,1,.693-1.847,2.594,2.594,0,0,1,3.526,0,2.8,2.8,0,0,1,0,3.687,2.383,2.383,0,0,1-1.746.7Zm0-.712a1.511,1.511,0,0,0,1.151-.5,1.907,1.907,0,0,0,.458-1.322,1.863,1.863,0,0,0-.458-1.316,1.571,1.571,0,0,0-2.3,0,2.153,2.153,0,0,0,0,2.639,1.5,1.5,0,0,0,1.151.5Z" transform="translate(-340.624 -166.035)"/>
    <path id="Trazado_102508" data-name="Trazado 102508" d="M320.4,215.813V208.82h2.251a3.351,3.351,0,0,1,1.78.452,2.74,2.74,0,0,1,1.091,1.233,4.318,4.318,0,0,1,.356,1.806,4.712,4.712,0,0,1-.2,1.418,3.321,3.321,0,0,1-.6,1.107,2.651,2.651,0,0,1-1.018.725,3.642,3.642,0,0,1-1.405.252Zm.884-.808h1.343a2.13,2.13,0,0,0,1.742-.719,3.58,3.58,0,0,0,0-3.946,2.136,2.136,0,0,0-1.742-.712h-1.343Z" transform="translate(-319.58 -171.872)"/>
    <path id="Trazado_102509" data-name="Trazado 102509" d="M331.745,209.678a.588.588,0,0,1-.588-.588.553.553,0,0,1,.168-.407.587.587,0,0,1,.413-.168.566.566,0,0,1,.4.168.553.553,0,0,1,.168.407.566.566,0,0,1-.168.413.547.547,0,0,1-.4.168Zm-.438,6.027v-4.883h.865v4.883Z" transform="translate(-323.498 -171.763)"/>
    <path id="Trazado_102510" data-name="Trazado 102510" d="M338.126,212.14h.916l-1.984,4.883h-.731l-1.977-4.883h.915l1.427,3.885Z" transform="translate(-324.66 -173.081)"/>
    <path id="Trazado_102511" data-name="Trazado 102511" d="M347.1,214.445v.235h-3.815a1.71,1.71,0,0,0,.471,1.27,1.511,1.511,0,0,0,1.112.439,1.475,1.475,0,0,0,1.361-.884l.776.168a2.168,2.168,0,0,1-.833,1.049,2.283,2.283,0,0,1-1.272.381,2.359,2.359,0,0,1-1.755-.68,2.893,2.893,0,0,1,0-3.713,2.327,2.327,0,0,1,1.73-.68,2.187,2.187,0,0,1,1.641.636,2.467,2.467,0,0,1,.588,1.78Zm-2.267-1.78a1.511,1.511,0,0,0-1.018.35,1.609,1.609,0,0,0-.509,1.007h2.925a1.488,1.488,0,0,0-.426-1.007,1.374,1.374,0,0,0-.973-.369Z" transform="translate(-327.617 -173.041)"/>
    <path id="Trazado_102512" data-name="Trazado 102512" d="M352.714,212.98a1.511,1.511,0,0,1,.636-.636,1.806,1.806,0,0,1,.934-.252v.808a1.6,1.6,0,0,0-1.132.363,1.511,1.511,0,0,0-.388,1.157v2.6H351.9V212.14h.84Z" transform="translate(-331.052 -173.064)"/>
    <path id="Trazado_102513" data-name="Trazado 102513" d="M358.781,216.091a1.272,1.272,0,0,1-.954-.35,1.316,1.316,0,0,1-.35-.973v-2.874h-1v-.687h.369a.719.719,0,0,0,.541-.168.858.858,0,0,0,.153-.573v-.887h.8v1.628h1.125v.687h-1.124v2.785a.744.744,0,0,0,.185.534.636.636,0,0,0,.489.191h.452v.687Z" transform="translate(-332.719 -172.149)"/>
    <path id="Trazado_102514" data-name="Trazado 102514" d="M363.488,209.678a.588.588,0,0,1-.588-.588.553.553,0,0,1,.168-.407.588.588,0,0,1,.413-.168.566.566,0,0,1,.4.168.552.552,0,0,1,.168.407.566.566,0,0,1-.168.413.547.547,0,0,1-.4.168Zm-.439,6.027v-4.883h.865v4.883Z" transform="translate(-335.057 -171.763)"/>
    <path id="Trazado_102515" data-name="Trazado 102515" d="M370.642,207.82h.858v7.63h-.8V214.5a1.818,1.818,0,0,1-.7.769,1.907,1.907,0,0,1-1.03.286,2.244,2.244,0,0,1-1.615-.693,2.367,2.367,0,0,1-.489-.808,2.916,2.916,0,0,1-.185-1.043,2.543,2.543,0,0,1,.672-1.838,2.13,2.13,0,0,1,1.621-.706,1.907,1.907,0,0,1,1.018.28,1.831,1.831,0,0,1,.7.744Zm-1.539,6.994a1.468,1.468,0,0,0,1.132-.509,2.009,2.009,0,0,0,0-2.543,1.463,1.463,0,0,0-1.132-.515,1.511,1.511,0,0,0-1.144.5,2.073,2.073,0,0,0,0,2.6,1.511,1.511,0,0,0,1.144.464Z" transform="translate(-336.433 -171.508)"/>
    <path id="Trazado_102516" data-name="Trazado 102516" d="M378.826,217.093a2.544,2.544,0,0,1-1.272-.3,2.15,2.15,0,0,1-.884-.884,2.729,2.729,0,0,1-.324-1.348,2.493,2.493,0,0,1,.693-1.847,2.6,2.6,0,0,1,3.536,0,2.543,2.543,0,0,1,.687,1.847,2.486,2.486,0,0,1-.694,1.847,2.372,2.372,0,0,1-1.742.689Zm0-.712a1.526,1.526,0,0,0,1.157-.5,1.907,1.907,0,0,0,.458-1.322,1.863,1.863,0,0,0-.458-1.316,1.5,1.5,0,0,0-1.157-.5,1.468,1.468,0,0,0-1.144.5,1.863,1.863,0,0,0-.458,1.316,1.908,1.908,0,0,0,.458,1.322,1.488,1.488,0,0,0,1.138.484Z" transform="translate(-339.953 -173.037)"/>
    <path id="Trazado_102517" data-name="Trazado 102517" d="M324.43,234.994l-.6-1.672h-3.179l-.578,1.672h-.929L321.715,228h1.062l2.582,6.994Zm-3.472-2.441h2.6l-1.335-3.643Z" transform="translate(-319.121 -178.858)"/>
    <path id="Trazado_102518" data-name="Trazado 102518" d="M334.045,227h.858v7.63h-.833v-.947a1.8,1.8,0,0,1-.693.769,1.939,1.939,0,0,1-1.036.286,2.2,2.2,0,0,1-.884-.185,2.079,2.079,0,0,1-.725-.509,2.281,2.281,0,0,1-.5-.808,2.918,2.918,0,0,1-.178-1.043,2.588,2.588,0,0,1,.636-1.838,2.149,2.149,0,0,1,1.621-.706,1.945,1.945,0,0,1,1.023.28,1.831,1.831,0,0,1,.7.744Zm-1.545,6.994a1.481,1.481,0,0,0,1.138-.509,1.869,1.869,0,0,0,.458-1.272,1.831,1.831,0,0,0-.464-1.272,1.45,1.45,0,0,0-1.132-.515,1.488,1.488,0,0,0-1.138.5,1.837,1.837,0,0,0-.464,1.3,1.812,1.812,0,0,0,.464,1.272,1.488,1.488,0,0,0,1.138.5Z" transform="translate(-323.096 -178.493)"/>
    <path id="Trazado_102519" data-name="Trazado 102519" d="M345.421,231.186a1.571,1.571,0,0,1,1.138.42,1.532,1.532,0,0,1,.432,1.164v3.38h-.858V232.97a1.119,1.119,0,0,0-.274-.808.928.928,0,0,0-.68-.274.979.979,0,0,0-.744.311,1.311,1.311,0,0,0-.28.924v3.022h-.877v-3.141a1.151,1.151,0,0,0-.267-.827.923.923,0,0,0-.693-.286.96.96,0,0,0-.744.318,1.373,1.373,0,0,0-.286.947v2.992h-.86v-4.883h.858v.636a1.457,1.457,0,0,1,.559-.534,1.576,1.576,0,0,1,.776-.191,1.64,1.64,0,0,1,.833.21,1.272,1.272,0,0,1,.541.588,1.511,1.511,0,0,1,.588-.588A1.641,1.641,0,0,1,345.421,231.186Z" transform="translate(-326.874 -180.015)"/>
    <path id="Trazado_102520" data-name="Trazado 102520" d="M353.719,228.88a.554.554,0,0,1-.407-.168.566.566,0,0,1-.168-.413.552.552,0,0,1,.168-.407.588.588,0,0,1,.814,0,.553.553,0,0,1,.168.407.566.566,0,0,1-.168.413.553.553,0,0,1-.406.168Zm-.438,6.027v-4.883h.865v4.87Z" transform="translate(-331.504 -178.757)"/>
    <path id="Trazado_102521" data-name="Trazado 102521" d="M358.323,232.18a1.511,1.511,0,0,1,.636-.636,1.8,1.8,0,0,1,.934-.252v.808a1.6,1.6,0,0,0-1.132.363,1.511,1.511,0,0,0-.388,1.157V236.2h-.865v-4.883h.84Z" transform="translate(-333.094 -180.056)"/>
    <path id="Trazado_102522" data-name="Trazado 102522" d="M363.636,236.27a1.666,1.666,0,0,1-1.068-.336,1.2,1.2,0,0,1-.42-1,1.4,1.4,0,0,1,.133-.636,1.106,1.106,0,0,1,.395-.445,2.392,2.392,0,0,1,.573-.28,5.413,5.413,0,0,1,.744-.168l.788-.133c.292-.051.432-.2.432-.452a.845.845,0,0,0-.3-.725,1.208,1.208,0,0,0-.769-.235,1.271,1.271,0,0,0-.763.222.948.948,0,0,0-.369.687l-.769-.159a1.482,1.482,0,0,1,.636-1.049,2.25,2.25,0,0,1,1.329-.35,2.677,2.677,0,0,1,.706.089,1.793,1.793,0,0,1,.588.274,1.2,1.2,0,0,1,.426.521,1.963,1.963,0,0,1,.153.808v1.99a.826.826,0,0,0,.108.509.484.484,0,0,0,.388.133h.076v.636h-.427a.808.808,0,0,1-.924-.636h-.07a1.847,1.847,0,0,1-1.6.737Zm.2-.693a1.3,1.3,0,0,0,1.049-.477,1.906,1.906,0,0,0,.4-1.272l-1.272.252a1.735,1.735,0,0,0-.756.274.717.717,0,0,0-.007,1.068.966.966,0,0,0,.584.155Z" transform="translate(-334.782 -180.025)"/>
    <path id="Trazado_102523" data-name="Trazado 102523" d="M372.733,236.256a2.333,2.333,0,0,1-1.749-.7,2.5,2.5,0,0,1-.693-1.831,2.473,2.473,0,0,1,.693-1.831,2.327,2.327,0,0,1,1.749-.706,2.365,2.365,0,0,1,1.411.432,2.162,2.162,0,0,1,.827,1.183l-.808.133a1.463,1.463,0,0,0-1.436-1.03,1.443,1.443,0,0,0-1.132.5,2.187,2.187,0,0,0,0,2.626,1.443,1.443,0,0,0,1.132.5,1.462,1.462,0,0,0,1.437-1.03l.808.133a2.155,2.155,0,0,1-.833,1.189,2.359,2.359,0,0,1-1.406.423Z" transform="translate(-337.748 -180.018)"/>
    <path id="Trazado_102524" data-name="Trazado 102524" d="M379.995,228.878a.588.588,0,0,1-.588-.588.554.554,0,0,1,.168-.407.588.588,0,0,1,.413-.168.566.566,0,0,1,.4.168.553.553,0,0,1,.168.407.566.566,0,0,1-.168.413.547.547,0,0,1-.4.168Zm-.439,6.027v-4.883h.865v4.87Z" transform="translate(-341.069 -178.755)"/>
    <path id="Trazado_102525" data-name="Trazado 102525" d="M385.579,234.923a2.543,2.543,0,0,1-1.272-.306,2.174,2.174,0,0,1-.877-.884,2.664,2.664,0,0,1-.331-1.348,2.543,2.543,0,0,1,.693-1.847,2.6,2.6,0,0,1,3.535,0,2.8,2.8,0,0,1,0,3.687A2.384,2.384,0,0,1,385.579,234.923Zm0-.712a1.511,1.511,0,0,0,1.157-.5,1.908,1.908,0,0,0,.458-1.322,1.863,1.863,0,0,0-.458-1.316,1.5,1.5,0,0,0-1.157-.5,1.475,1.475,0,0,0-1.144.5,2.154,2.154,0,0,0,0,2.639,1.5,1.5,0,0,0,1.144.5Zm-.318-5.087,1.272-1.615.458.331-1.112,1.272Z" transform="translate(-342.413 -178.679)"/>
    <path id="Trazado_102526" data-name="Trazado 102526" d="M395.283,231.188a1.7,1.7,0,0,1,1.227.445,1.628,1.628,0,0,1,.464,1.272v3.249h-.858v-3.09a1.164,1.164,0,0,0-.3-.877,1.075,1.075,0,0,0-.769-.286,1.176,1.176,0,0,0-.865.336,1.343,1.343,0,0,0-.343,1v2.917H393v-4.883h.858v.636a1.621,1.621,0,0,1,1.427-.719Z" transform="translate(-346.019 -180.018)"/>
  </g>
  <g id="Grupo_57702" data-name="Grupo 57702" transform="translate(203.545 74.123)">
    <path id="Trazado_102527" data-name="Trazado 102527" d="M323.112,117.108a2.174,2.174,0,0,1,1.66.636,2.351,2.351,0,0,1,.636,1.653,2.257,2.257,0,0,1-.636,1.641,2.187,2.187,0,0,1-1.66.636h-1.5v2.543H320.13v-7.109Zm-.252,3.358a1.068,1.068,0,0,0,.82-.28,1.049,1.049,0,0,0,.274-.776,1.068,1.068,0,0,0-.274-.769,1.091,1.091,0,0,0-.82-.286h-1.272v2.111Z" transform="translate(-320.13 -116.77)"/>
    <path id="Trazado_102528" data-name="Trazado 102528" d="M331.947,125.54a3.274,3.274,0,0,1-1.443-.311,2.351,2.351,0,0,1-.992-.924,2.707,2.707,0,0,1-.363-1.427,2.543,2.543,0,0,1,.776-1.908,3.256,3.256,0,0,1,4.05,0,2.823,2.823,0,0,1,0,3.885,2.874,2.874,0,0,1-2.028.685Zm0-1.138a1.316,1.316,0,0,0,1.007-.42,1.552,1.552,0,0,0,.381-1.1,1.583,1.583,0,0,0-.381-1.107,1.335,1.335,0,0,0-1.007-.413,1.272,1.272,0,0,0-.986.42,1.8,1.8,0,0,0,0,2.2,1.272,1.272,0,0,0,.973.42Z" transform="translate(-323.415 -117.921)"/>
    <path id="Trazado_102529" data-name="Trazado 102529" d="M341.189,125.522a2.906,2.906,0,0,1-1.494-.356,1.526,1.526,0,0,1-.725-1.068l1.2-.336a.96.96,0,0,0,1.023.763,1.007,1.007,0,0,0,.521-.121.4.4,0,0,0,.2-.395.439.439,0,0,0-.084-.261.788.788,0,0,0-.26-.191l-.35-.134-.458-.133a4.728,4.728,0,0,1-.47-.146,2.755,2.755,0,0,1-.452-.191,1.7,1.7,0,0,1-.369-.26,1.061,1.061,0,0,1-.28-.4,1.469,1.469,0,0,1-.1-.547,1.31,1.31,0,0,1,.553-1.144,2.505,2.505,0,0,1,1.45-.381,2.543,2.543,0,0,1,1.335.324,1.475,1.475,0,0,1,.687,1.023l-1.112.252a.858.858,0,0,0-.909-.636,1.043,1.043,0,0,0-.5.108.375.375,0,0,0-.2.343.406.406,0,0,0,0,.153.3.3,0,0,0,.1.121l.146.1a.941.941,0,0,0,.2.084,1.836,1.836,0,0,0,.223.064l.26.07.267.07c.185.051.343.1.477.146a3.066,3.066,0,0,1,.445.21,1.693,1.693,0,0,1,.381.3,1.454,1.454,0,0,1,.252.426,1.6,1.6,0,0,1,.1.566,1.565,1.565,0,0,1-.168.744,1.271,1.271,0,0,1-.47.5,2.256,2.256,0,0,1-.636.267A3.458,3.458,0,0,1,341.189,125.522Z" transform="translate(-326.991 -117.903)"/>
    <path id="Trazado_102530" data-name="Trazado 102530" d="M348.052,118.226a.827.827,0,1,1,.757-.824.819.819,0,0,1-.757.824Zm-.731,5.869v-5.087h1.443v5.087Z" transform="translate(-329.996 -116.579)"/>
    <path id="Trazado_102531" data-name="Trazado 102531" d="M353.529,124.533a1.532,1.532,0,0,1-1.157-.413,1.628,1.628,0,0,1-.407-1.183v-2.41h-1.007v-1.1h.324a.84.84,0,0,0,.636-.21,1.1,1.1,0,0,0,.2-.763v-.672h1.272v1.646h1.055v1.1h-1.055v2.257c0,.445.2.636.588.636h.464v1.091Z" transform="translate(-331.357 -117.016)"/>
    <path id="Trazado_102532" data-name="Trazado 102532" d="M358.866,118.226a.8.8,0,0,1-.588-.242.824.824,0,0,1,.588-1.405.808.808,0,0,1,.579.242.82.82,0,0,1,0,1.164A.808.808,0,0,1,358.866,118.226Zm-.731,5.869v-5.086h1.443v5.086Z" transform="translate(-333.935 -116.579)"/>
    <path id="Trazado_102533" data-name="Trazado 102533" d="M365.662,120.37h1.52L365,125.456h-1.269l-2.149-5.086h1.539l1.272,3.491Z" transform="translate(-335.226 -117.96)"/>
    <path id="Trazado_102534" data-name="Trazado 102534" d="M373.4,125.54a3.287,3.287,0,0,1-1.45-.311,2.351,2.351,0,0,1-.992-.924,2.764,2.764,0,0,1-.356-1.427,2.486,2.486,0,0,1,.776-1.908,3.249,3.249,0,0,1,4.044,0,2.823,2.823,0,0,1,0,3.885,2.855,2.855,0,0,1-2.023.685Zm0-1.138a1.272,1.272,0,0,0,1.008-.42,1.532,1.532,0,0,0,.388-1.1,1.557,1.557,0,0,0-.388-1.107,1.316,1.316,0,0,0-1.008-.407,1.271,1.271,0,0,0-.979.42,1.774,1.774,0,0,0,0,2.2,1.272,1.272,0,0,0,.979.415Z" transform="translate(-338.509 -117.922)"/>
  </g>
  <g id="Grupo_57703" data-name="Grupo 57703" transform="translate(282.815 95.513)">
    <path id="Trazado_102535" data-name="Trazado 102535" d="M445.58,158.214V151.22h.9v6.994Z" transform="translate(-445.087 -150.584)"/>
    <path id="Trazado_102536" data-name="Trazado 102536" d="M452.385,154.389a1.71,1.71,0,0,1,1.227.445,1.653,1.653,0,0,1,.458,1.272v3.287H453.2V156.3a1.17,1.17,0,0,0-.3-.877,1.049,1.049,0,0,0-.763-.286,1.2,1.2,0,0,0-.871.336,1.392,1.392,0,0,0-.343,1v2.918h-.856v-4.883h.858v.636a1.628,1.628,0,0,1,1.457-.755Z" transform="translate(-446.722 -151.737)"/>
    <path id="Trazado_102537" data-name="Trazado 102537" d="M461.315,152.871a1.621,1.621,0,0,1,1.208.458,1.723,1.723,0,0,1,.452,1.272v3.23h-.858v-3.046a1.2,1.2,0,0,0-.3-.9,1.062,1.062,0,0,0-.769-.292,1.164,1.164,0,0,0-.858.336,1.355,1.355,0,0,0-.35,1v2.918H459V150.22h.858v3.4a1.6,1.6,0,0,1,.636-.547,1.908,1.908,0,0,1,.82-.2Z" transform="translate(-449.975 -150.22)"/>
    <path id="Trazado_102538" data-name="Trazado 102538" d="M468.209,152.08a.553.553,0,0,1-.407-.168.566.566,0,0,1-.168-.413.554.554,0,0,1,.168-.407.588.588,0,0,1,.814,0,.553.553,0,0,1,.168.407.566.566,0,0,1-.168.413.553.553,0,0,1-.407.168Zm-.439,6.027v-4.883h.865v4.883Z" transform="translate(-453.118 -150.476)"/>
    <path id="Trazado_102539" data-name="Trazado 102539" d="M474.543,152.871a2.123,2.123,0,0,1,1.615.706,2.543,2.543,0,0,1,.636,1.838,2.6,2.6,0,0,1-.636,1.838,2.13,2.13,0,0,1-1.621.706,1.908,1.908,0,0,1-1.036-.286,1.774,1.774,0,0,1-.7-.769v.947H472V150.22h.858V153.9a1.806,1.806,0,0,1,.7-.751,1.952,1.952,0,0,1,.986-.275Zm-.185,4.336a1.488,1.488,0,0,0,1.138-.5,1.812,1.812,0,0,0,.464-1.272,1.837,1.837,0,0,0-.464-1.272,1.488,1.488,0,0,0-1.139-.5,1.45,1.45,0,0,0-1.132.515,1.831,1.831,0,0,0-.464,1.272,1.869,1.869,0,0,0,.458,1.272,1.456,1.456,0,0,0,1.157.477Z" transform="translate(-454.709 -150.22)"/>
    <path id="Trazado_102540" data-name="Trazado 102540" d="M482.09,152.08a.553.553,0,0,1-.407-.168.566.566,0,0,1-.168-.413.553.553,0,0,1,.168-.407.588.588,0,0,1,.814,0,.553.553,0,0,1,.168.407.566.566,0,0,1-.168.413.553.553,0,0,1-.407.168Zm-.432,6.027v-4.883h.865v4.883Z" transform="translate(-458.173 -150.476)"/>
    <path id="Trazado_102541" data-name="Trazado 102541" d="M487.6,159.456a2.34,2.34,0,0,1-1.749-.7,2.785,2.785,0,0,1,0-3.662,2.34,2.34,0,0,1,1.749-.706,2.372,2.372,0,0,1,1.418.432,2.183,2.183,0,0,1,.82,1.183l-.808.133a1.45,1.45,0,0,0-.547-.763,1.511,1.511,0,0,0-.884-.267,1.427,1.427,0,0,0-1.132.5,2.169,2.169,0,0,0,0,2.632,1.449,1.449,0,0,0,1.132.5,1.511,1.511,0,0,0,.884-.267,1.45,1.45,0,0,0,.547-.763l.808.133a2.174,2.174,0,0,1-.827,1.189,2.365,2.365,0,0,1-1.411.426Z" transform="translate(-459.505 -151.738)"/>
    <path id="Trazado_102542" data-name="Trazado 102542" d="M494.895,152.078a.588.588,0,0,1-.588-.588.553.553,0,0,1,.168-.407.588.588,0,0,1,.82,0,.553.553,0,0,1,.168.407.588.588,0,0,1-.579.588Zm-.439,6.027v-4.883h.865v4.883Z" transform="translate(-462.833 -150.474)"/>
    <path id="Trazado_102543" data-name="Trazado 102543" d="M500.468,158.123a2.543,2.543,0,0,1-1.272-.306,2.149,2.149,0,0,1-.884-.884,2.727,2.727,0,0,1-.324-1.348,2.493,2.493,0,0,1,.694-1.847,2.6,2.6,0,0,1,3.535,0,2.543,2.543,0,0,1,.687,1.847,2.486,2.486,0,0,1-.694,1.847,2.372,2.372,0,0,1-1.742.693Zm0-.712a1.5,1.5,0,0,0,1.151-.5,1.863,1.863,0,0,0,.464-1.322,1.838,1.838,0,0,0-.464-1.316,1.482,1.482,0,0,0-1.151-.5,1.456,1.456,0,0,0-1.144.5,1.863,1.863,0,0,0-.458,1.316,1.908,1.908,0,0,0,.458,1.322,1.482,1.482,0,0,0,1.138.5Zm-.324-5.086,1.272-1.615.458.331-1.112,1.272Z" transform="translate(-464.172 -150.399)"/>
    <path id="Trazado_102544" data-name="Trazado 102544" d="M510.171,154.389a1.717,1.717,0,0,1,1.233.445,1.653,1.653,0,0,1,.458,1.272v3.287H511V156.3a1.17,1.17,0,0,0-.3-.877,1.05,1.05,0,0,0-.763-.286,1.183,1.183,0,0,0-.872.336,1.392,1.392,0,0,0-.343,1v2.918h-.855v-4.883h.858v.636a1.628,1.628,0,0,1,1.443-.756Z" transform="translate(-467.772 -151.737)"/>
    <path id="Trazado_102545" data-name="Trazado 102545" d="M448.293,177.452a3.74,3.74,0,0,1-1.374-.252,3.434,3.434,0,0,1-1.107-.706,3.179,3.179,0,0,1-.737-1.138,4.3,4.3,0,0,1,0-3,3.222,3.222,0,0,1,.733-1.137,3.331,3.331,0,0,1,1.107-.706,3.862,3.862,0,0,1,2.74,0,3.167,3.167,0,0,1,1.838,1.838,4.058,4.058,0,0,1,.267,1.494,4.127,4.127,0,0,1-.267,1.507,3.238,3.238,0,0,1-.738,1.138,3.4,3.4,0,0,1-1.1.706A3.726,3.726,0,0,1,448.293,177.452Zm0-.84a2.543,2.543,0,0,0,1.847-.737,2.728,2.728,0,0,0,.731-2.022,3.178,3.178,0,0,0-.2-1.157,2.35,2.35,0,0,0-.553-.865,2.422,2.422,0,0,0-.82-.528,2.771,2.771,0,0,0-1.008-.185,2.811,2.811,0,0,0-1.018.185,2.39,2.39,0,0,0-.826.528,2.35,2.35,0,0,0-.553.865,3.177,3.177,0,0,0-.2,1.157,3.287,3.287,0,0,0,.2,1.175,2.383,2.383,0,0,0,.553.871,2.487,2.487,0,0,0,.826.528A2.809,2.809,0,0,0,448.293,176.612Z" transform="translate(-444.805 -157.519)"/>
    <path id="Trazado_102546" data-name="Trazado 102546" d="M460.68,173.59a2.182,2.182,0,0,1,.884.185,2.137,2.137,0,0,1,.725.5,2.328,2.328,0,0,1,.49.808,3,3,0,0,1,.185,1.055,2.6,2.6,0,0,1-.636,1.847,2.143,2.143,0,0,1-1.621.7,1.908,1.908,0,0,1-1.018-.28,1.847,1.847,0,0,1-.7-.751v3.383h-.859v-7.351h.826v.954a1.763,1.763,0,0,1,.7-.763,1.908,1.908,0,0,1,1.024-.283Zm-.168,4.336a1.468,1.468,0,0,0,1.125-.489,2.059,2.059,0,0,0,0-2.6,1.469,1.469,0,0,0-1.125-.489,1.511,1.511,0,0,0-1.151.509,2.009,2.009,0,0,0,0,2.543,1.481,1.481,0,0,0,1.154.53Z" transform="translate(-449.658 -158.731)"/>
    <path id="Trazado_102547" data-name="Trazado 102547" d="M468.714,174.58a1.469,1.469,0,0,1,.636-.636,1.806,1.806,0,0,1,.934-.252v.808a1.6,1.6,0,0,0-1.132.363,1.511,1.511,0,0,0-.395,1.157v2.6H467.9V173.74h.84Z" transform="translate(-453.216 -158.768)"/>
    <path id="Trazado_102548" data-name="Trazado 102548" d="M477.167,176.053v.235h-3.815a1.71,1.71,0,0,0,.464,1.272,1.526,1.526,0,0,0,1.112.439,1.482,1.482,0,0,0,.808-.235,1.511,1.511,0,0,0,.559-.636l.776.168a2.245,2.245,0,0,1-.833,1.049,2.282,2.282,0,0,1-1.271.381,2.372,2.372,0,0,1-1.763-.68,2.906,2.906,0,0,1,0-3.713,2.327,2.327,0,0,1,1.73-.68,2.2,2.2,0,0,1,1.641.636A2.473,2.473,0,0,1,477.167,176.053Zm-2.257-1.78a1.5,1.5,0,0,0-1.018.35,1.583,1.583,0,0,0-.515,1.007H476.3a1.427,1.427,0,0,0-.426-1.007,1.348,1.348,0,0,0-.966-.349Z" transform="translate(-454.903 -158.753)"/>
    <path id="Trazado_102549" data-name="Trazado 102549" d="M483.252,178.67a2.308,2.308,0,0,1-1.316-.35,1.469,1.469,0,0,1-.636-1.007l.751-.216a1.031,1.031,0,0,0,.4.68,1.316,1.316,0,0,0,.8.242,1.792,1.792,0,0,0,.47-.064.814.814,0,0,0,.363-.242.636.636,0,0,0,.14-.445.527.527,0,0,0-.038-.2,1.257,1.257,0,0,0-.076-.159.406.406,0,0,0-.14-.134,1.223,1.223,0,0,0-.394-.2l-.235-.084-.274-.076-.28-.084a4.99,4.99,0,0,1-.509-.178,2.326,2.326,0,0,1-.413-.235.948.948,0,0,1-.318-.388,1.31,1.31,0,0,1-.108-.547,1.272,1.272,0,0,1,.242-.776,1.322,1.322,0,0,1,.636-.464,2.443,2.443,0,0,1,.865-.14,2.136,2.136,0,0,1,1.189.318,1.361,1.361,0,0,1,.6.954l-.706.178a.934.934,0,0,0-.375-.636,1.17,1.17,0,0,0-.7-.21,1.2,1.2,0,0,0-.636.168.578.578,0,0,0-.274.528.54.54,0,0,0,.07.267.828.828,0,0,0,.146.191.956.956,0,0,0,.267.153l.292.1.356.089h.076c.191.044.343.089.464.127a3.441,3.441,0,0,1,.426.178,1.546,1.546,0,0,1,.381.267,1.22,1.22,0,0,1,.235.381,1.272,1.272,0,0,1,.1.521,1.468,1.468,0,0,1-.146.636,1.271,1.271,0,0,1-.4.452,1.908,1.908,0,0,1-.573.242,2.6,2.6,0,0,1-.723.162Z" transform="translate(-458.096 -158.736)"/>
    <path id="Trazado_102550" data-name="Trazado 102550" d="M489.669,171.279a.553.553,0,0,1-.407-.168.566.566,0,0,1-.168-.413.553.553,0,0,1,.168-.407.572.572,0,0,1,.407-.168.588.588,0,0,1,.407.168.553.553,0,0,1,.168.407.588.588,0,0,1-.575.581Zm-.439,6.027v-4.883h.865v4.883Z" transform="translate(-460.933 -157.468)"/>
    <path id="Trazado_102551" data-name="Trazado 102551" d="M496.057,173.74h.924l-1.99,4.883h-.731l-1.977-4.883h.916l1.427,3.885Z" transform="translate(-462.094 -158.785)"/>
    <path id="Trazado_102552" data-name="Trazado 102552" d="M502.779,178.663a2.544,2.544,0,0,1-1.272-.306,2.183,2.183,0,0,1-.884-.884,2.727,2.727,0,0,1-.324-1.348,2.492,2.492,0,0,1,.693-1.847,2.6,2.6,0,0,1,3.535,0,2.817,2.817,0,0,1,0,3.687,2.4,2.4,0,0,1-1.749.693Zm0-.712a1.525,1.525,0,0,0,1.157-.5,1.907,1.907,0,0,0,.458-1.322,1.863,1.863,0,0,0-.458-1.316,1.5,1.5,0,0,0-1.157-.5,1.475,1.475,0,0,0-1.144.5,1.863,1.863,0,0,0-.458,1.316,1.908,1.908,0,0,0,.458,1.322,1.5,1.5,0,0,0,1.138.5Z" transform="translate(-465.014 -158.731)"/>
    <path id="Trazado_102553" data-name="Trazado 102553" d="M445.23,196.25v-7.63h.871v7.63Z" transform="translate(-444.96 -164.204)"/>
    <path id="Trazado_102554" data-name="Trazado 102554" d="M449.669,190.48a.553.553,0,0,1-.407-.168.566.566,0,0,1-.168-.413.554.554,0,0,1,.168-.407.588.588,0,0,1,.814,0,.553.553,0,0,1,.168.407.566.566,0,0,1-.168.413.553.553,0,0,1-.406.168Zm-.432,6.027v-4.883h.865v4.883Z" transform="translate(-446.366 -164.461)"/>
    <path id="Trazado_102555" data-name="Trazado 102555" d="M456.726,192.889h.833v4.635A2.485,2.485,0,0,1,452.8,198.6l.712-.35a1.615,1.615,0,0,0,1.634,1.132,1.392,1.392,0,0,0,1.144-.477,2.054,2.054,0,0,0,.395-1.335v-.9a1.723,1.723,0,0,1-.693.706,2.149,2.149,0,0,1-2.6-.426,2.429,2.429,0,0,1-.635-1.735,2.378,2.378,0,0,1,.635-1.73,2.092,2.092,0,0,1,1.583-.687,2,2,0,0,1,1.023.274,1.763,1.763,0,0,1,.693.725Zm-1.552,4.012a1.494,1.494,0,0,0,1.125-.5,1.774,1.774,0,0,0,0-2.39,1.456,1.456,0,0,0-1.125-.5,1.481,1.481,0,0,0-1.126.484,1.717,1.717,0,0,0-.458,1.214,1.692,1.692,0,0,0,.464,1.208,1.488,1.488,0,0,0,1.132.484Z" transform="translate(-447.7 -165.727)"/>
    <path id="Trazado_102556" data-name="Trazado 102556" d="M467.147,195.253v.235h-3.815a1.71,1.71,0,0,0,.47,1.272,1.526,1.526,0,0,0,1.112.439,1.481,1.481,0,0,0,.808-.235,1.551,1.551,0,0,0,.559-.636l.776.168a2.213,2.213,0,0,1-.84,1.049,2.283,2.283,0,0,1-1.272.381,2.359,2.359,0,0,1-1.755-.68,2.894,2.894,0,0,1,0-3.713,2.351,2.351,0,0,1,1.73-.68,2.207,2.207,0,0,1,1.646.636A2.467,2.467,0,0,1,467.147,195.253Zm-2.267-1.78a1.494,1.494,0,0,0-1.008.35,1.583,1.583,0,0,0-.515,1.007h2.923a1.455,1.455,0,0,0-.426-1.008,1.374,1.374,0,0,0-.971-.351Z" transform="translate(-451.255 -165.745)"/>
    <path id="Trazado_102557" data-name="Trazado 102557" d="M472.76,193.78a1.488,1.488,0,0,1,.6-.636,1.812,1.812,0,0,1,.941-.252v.808a1.621,1.621,0,0,0-1.138.363,1.511,1.511,0,0,0-.388,1.157v2.6h-.858V192.94h.84Z" transform="translate(-454.679 -165.76)"/>
    <path id="Trazado_102558" data-name="Trazado 102558" d="M481.228,195.245v.235h-3.815a1.71,1.71,0,0,0,.47,1.272,1.511,1.511,0,0,0,1.112.439,1.475,1.475,0,0,0,1.361-.884l.776.168a2.167,2.167,0,0,1-.833,1.049,2.283,2.283,0,0,1-1.272.381,2.358,2.358,0,0,1-1.755-.68,2.893,2.893,0,0,1,0-3.713,2.34,2.34,0,0,1,1.73-.68,2.183,2.183,0,0,1,1.64.636,2.466,2.466,0,0,1,.588,1.78Zm-2.267-1.781a1.481,1.481,0,0,0-1.008.35,1.583,1.583,0,0,0-.515,1.007h2.925a1.456,1.456,0,0,0-.426-1.008,1.373,1.373,0,0,0-.974-.35Z" transform="translate(-456.384 -165.737)"/>
    <path id="Trazado_102559" data-name="Trazado 102559" d="M486.09,197.13h2.6v.693H484.8l2.575-4.184h-2.448v-.7h3.745Z" transform="translate(-459.37 -165.778)"/>
    <path id="Trazado_102560" data-name="Trazado 102560" d="M493.446,197.87a1.666,1.666,0,0,1-1.068-.336,1.2,1.2,0,0,1-.42-1,1.45,1.45,0,0,1,.133-.636,1.132,1.132,0,0,1,.394-.438,2.392,2.392,0,0,1,.573-.28,6.453,6.453,0,0,1,.744-.178l.788-.127c.292-.051.432-.2.432-.452a.846.846,0,0,0-.306-.725,1.208,1.208,0,0,0-.769-.235,1.272,1.272,0,0,0-.763.222.948.948,0,0,0-.369.687l-.769-.168a1.481,1.481,0,0,1,.636-1.043,2.251,2.251,0,0,1,1.329-.35,2.676,2.676,0,0,1,.706.089,1.793,1.793,0,0,1,.588.274,1.2,1.2,0,0,1,.426.521,1.966,1.966,0,0,1,.153.808v2.015a.827.827,0,0,0,.108.509.484.484,0,0,0,.388.133h.051v.636h-.426a.808.808,0,0,1-.924-.636h-.045a1.863,1.863,0,0,1-1.592.706Zm.2-.693a1.3,1.3,0,0,0,1.049-.477,1.908,1.908,0,0,0,.4-1.272l-1.272.252a1.735,1.735,0,0,0-.756.274.718.718,0,0,0-.007,1.068.967.967,0,0,0,.588.159Z" transform="translate(-461.976 -165.73)"/>
    <path id="Trazado_102561" data-name="Trazado 102561" d="M445.58,215.813V208.82h2.257a3.383,3.383,0,0,1,1.781.452,2.817,2.817,0,0,1,1.091,1.233,4.318,4.318,0,0,1,.356,1.806,4.517,4.517,0,0,1-.21,1.418,3.107,3.107,0,0,1-.6,1.107,2.607,2.607,0,0,1-1.018.725,3.586,3.586,0,0,1-1.4.252Zm.89-.808H447.8a2.143,2.143,0,0,0,1.749-.719,3.039,3.039,0,0,0,.588-1.977,3,3,0,0,0-.588-1.965,2.123,2.123,0,0,0-1.742-.712h-1.322Z" transform="translate(-445.087 -171.56)"/>
    <path id="Trazado_102562" data-name="Trazado 102562" d="M460.617,214.434v.235H456.8a1.71,1.71,0,0,0,.464,1.272,1.526,1.526,0,0,0,1.112.439,1.481,1.481,0,0,0,.808-.235,1.507,1.507,0,0,0,.559-.636l.776.168a2.213,2.213,0,0,1-.84,1.049,2.252,2.252,0,0,1-1.272.381,2.372,2.372,0,0,1-1.793-.719,2.918,2.918,0,0,1,0-3.713,2.351,2.351,0,0,1,1.735-.68,2.2,2.2,0,0,1,1.641.636,2.466,2.466,0,0,1,.625,1.8Zm-2.257-1.78a1.5,1.5,0,0,0-1.018.35,1.583,1.583,0,0,0-.515,1.007h2.925a1.427,1.427,0,0,0-.426-1.008,1.36,1.36,0,0,0-.966-.369Z" transform="translate(-448.864 -172.715)"/>
    <path id="Trazado_102563" data-name="Trazado 102563" d="M468,210.478a2.123,2.123,0,0,1,1.6.7,2.587,2.587,0,0,1,.636,1.838,2.62,2.62,0,0,1-.636,1.838,2.13,2.13,0,0,1-1.621.706,1.946,1.946,0,0,1-1.043-.286,1.819,1.819,0,0,1-.7-.769v.947h-.826V207.82h.852V211.5a1.8,1.8,0,0,1,.7-.751,1.951,1.951,0,0,1,1.036-.274Zm-.191,4.336a1.5,1.5,0,0,0,1.157-.521,2.054,2.054,0,0,0,0-2.6,1.5,1.5,0,0,0-1.144-.5,1.468,1.468,0,0,0-1.132.515,2.009,2.009,0,0,0,0,2.543,1.468,1.468,0,0,0,1.119.553Z" transform="translate(-452.308 -171.197)"/>
    <path id="Trazado_102564" data-name="Trazado 102564" d="M475.539,209.679a.54.54,0,0,1-.407-.168.566.566,0,0,1-.168-.413.553.553,0,0,1,.168-.407.56.56,0,0,1,.407-.168.588.588,0,0,1,.407.168.553.553,0,0,1,.168.407.588.588,0,0,1-.579.588Zm-.439,6.027v-4.883h.865v4.883Z" transform="translate(-455.787 -171.452)"/>
    <path id="Trazado_102565" data-name="Trazado 102565" d="M479.29,215.45v-7.63h.871v7.63Z" transform="translate(-457.364 -171.197)"/>
    <path id="Trazado_102566" data-name="Trazado 102566" d="M483.765,209.678a.588.588,0,0,1-.588-.588.553.553,0,0,1,.168-.407.588.588,0,0,1,.413-.168.566.566,0,0,1,.4.168.553.553,0,0,1,.168.407.566.566,0,0,1-.168.413.546.546,0,0,1-.4.168Zm-.439,6.027v-4.883h.865v4.883Z" transform="translate(-458.78 -171.451)"/>
    <path id="Trazado_102567" data-name="Trazado 102567" d="M490.912,207.82h.858v7.63h-.827V214.5a1.818,1.818,0,0,1-.7.769,1.907,1.907,0,0,1-1.03.286,2.245,2.245,0,0,1-1.6-.693,2.368,2.368,0,0,1-.49-.808,2.919,2.919,0,0,1-.185-1.043,2.543,2.543,0,0,1,.672-1.838,2.13,2.13,0,0,1,1.621-.706,1.907,1.907,0,0,1,1.018.28,1.831,1.831,0,0,1,.7.744Zm-1.539,6.994a1.468,1.468,0,0,0,1.132-.509,2.009,2.009,0,0,0,0-2.543,1.469,1.469,0,0,0-1.132-.515,1.5,1.5,0,0,0-1.144.5,2.054,2.054,0,0,0,0,2.6,1.5,1.5,0,0,0,1.144.464Z" transform="translate(-460.147 -171.197)"/>
    <path id="Trazado_102568" data-name="Trazado 102568" d="M498.206,217.1a1.666,1.666,0,0,1-1.068-.336,1.2,1.2,0,0,1-.42-1,1.4,1.4,0,0,1,.133-.636,1.08,1.08,0,0,1,.4-.445,2.171,2.171,0,0,1,.573-.28,5.864,5.864,0,0,1,.744-.178l.788-.127c.286-.051.432-.2.432-.452a.845.845,0,0,0-.306-.725,1.227,1.227,0,0,0-.776-.235,1.272,1.272,0,0,0-.763.222.961.961,0,0,0-.363.687l-.776-.168a1.525,1.525,0,0,1,.636-1.043,2.289,2.289,0,0,1,1.335-.35,2.749,2.749,0,0,1,.706.089,1.793,1.793,0,0,1,.588.274,1.233,1.233,0,0,1,.42.521,1.962,1.962,0,0,1,.153.808v2.015a.82.82,0,0,0,.114.509.471.471,0,0,0,.381.133h.084v.636H500.8c-.528,0-.84-.216-.929-.636h-.039a1.869,1.869,0,0,1-1.628.712Zm.2-.693a1.3,1.3,0,0,0,1.049-.477,1.958,1.958,0,0,0,.395-1.272l-1.272.252a1.7,1.7,0,0,0-.756.274.711.711,0,0,0-.013,1.068.986.986,0,0,0,.6.14Z" transform="translate(-463.71 -172.732)"/>
    <path id="Trazado_102569" data-name="Trazado 102569" d="M508.912,207.82h.858v7.63h-.826V214.5a1.818,1.818,0,0,1-.7.769,1.907,1.907,0,0,1-1.03.286,2.244,2.244,0,0,1-1.6-.693,2.364,2.364,0,0,1-.489-.808,2.92,2.92,0,0,1-.185-1.043,2.543,2.543,0,0,1,.672-1.838,2.13,2.13,0,0,1,1.621-.706,1.908,1.908,0,0,1,1.018.28,1.831,1.831,0,0,1,.7.744Zm-1.539,6.994a1.469,1.469,0,0,0,1.132-.509,2.009,2.009,0,0,0,0-2.543,1.469,1.469,0,0,0-1.132-.515,1.5,1.5,0,0,0-1.144.5,2.054,2.054,0,0,0,0,2.6,1.5,1.5,0,0,0,1.144.464Z" transform="translate(-466.703 -171.197)"/>
    <path id="Trazado_102570" data-name="Trazado 102570" d="M449.328,228.827h-2.849v2.289h2.543v.8h-2.543V234.2h2.842v.8H445.57V228h3.751Z" transform="translate(-445.083 -178.546)"/>
    <path id="Trazado_102571" data-name="Trazado 102571" d="M455.662,227.749H455.3a.77.77,0,0,0-.178,0l-.159.051a.357.357,0,0,0-.146.084l-.114.127a.438.438,0,0,0-.1.178,1.615,1.615,0,0,1-.057.242,2.18,2.18,0,0,0,0,.3v1.007h1.132v.687h-1.132v4.216H453.7v-4.2h-.947v-.687h.947v-1.026a2.538,2.538,0,0,1,.051-.566,1.82,1.82,0,0,1,.14-.432,1.091,1.091,0,0,1,.229-.312,1.818,1.818,0,0,1,.3-.21,1.474,1.474,0,0,1,.369-.121,3.537,3.537,0,0,1,.42-.064h.477Z" transform="translate(-447.698 -178.193)"/>
    <path id="Trazado_102572" data-name="Trazado 102572" d="M458.89,234.8v-4.883h.865V234.8Zm.108-5.723,1.272-1.615.452.331-1.125,1.285Z" transform="translate(-449.934 -178.349)"/>
    <path id="Trazado_102573" data-name="Trazado 102573" d="M467.991,231.186a1.564,1.564,0,0,1,1.138.42,1.511,1.511,0,0,1,.432,1.164v3.38h-.84V232.97a1.113,1.113,0,0,0-.267-.808.929.929,0,0,0-.68-.274.96.96,0,0,0-.744.311,1.31,1.31,0,0,0-.286.924v3.022h-.871v-3.141a1.157,1.157,0,0,0-.274-.827.909.909,0,0,0-.694-.286.96.96,0,0,0-.744.318,1.373,1.373,0,0,0-.286.947v2.992H463v-4.883h.858v.636a1.551,1.551,0,0,1,.559-.534,1.582,1.582,0,0,1,.782-.191,1.64,1.64,0,0,1,.833.21,1.271,1.271,0,0,1,.541.588,1.539,1.539,0,0,1,.588-.588,1.654,1.654,0,0,1,.831-.2Z" transform="translate(-451.431 -179.704)"/>
    <path id="Trazado_102574" data-name="Trazado 102574" d="M480.007,233.623v.235h-3.815a1.71,1.71,0,0,0,.47,1.272,1.526,1.526,0,0,0,1.112.439,1.481,1.481,0,0,0,.808-.235,1.551,1.551,0,0,0,.559-.636l.769.168a2.169,2.169,0,0,1-.833,1.049,2.283,2.283,0,0,1-1.272.381,2.359,2.359,0,0,1-1.755-.68,2.894,2.894,0,0,1,0-3.713,2.34,2.34,0,0,1,1.73-.68,2.207,2.207,0,0,1,1.646.636,2.48,2.48,0,0,1,.578,1.767Zm-2.267-1.78a1.494,1.494,0,0,0-1.008.35,1.583,1.583,0,0,0-.515,1.007h2.925a1.456,1.456,0,0,0-.426-1.007,1.374,1.374,0,0,0-.973-.331Z" transform="translate(-455.938 -179.718)"/>
    <path id="Trazado_102575" data-name="Trazado 102575" d="M485.62,232.18a1.488,1.488,0,0,1,.6-.636,1.812,1.812,0,0,1,.941-.252v.808a1.609,1.609,0,0,0-1.138.363,1.511,1.511,0,0,0-.388,1.157V236.2h-.858v-4.883h.84Z" transform="translate(-459.363 -179.745)"/>
    <path id="Trazado_102576" data-name="Trazado 102576" d="M491.827,236.264a2.543,2.543,0,0,1-1.272-.306,2.173,2.173,0,0,1-.877-.884,2.729,2.729,0,0,1-.324-1.348,2.493,2.493,0,0,1,.693-1.847,2.594,2.594,0,0,1,3.526,0,2.8,2.8,0,0,1,0,3.687,2.384,2.384,0,0,1-1.749.693Zm0-.712a1.511,1.511,0,0,0,1.157-.5,1.908,1.908,0,0,0,.458-1.322,1.863,1.863,0,0,0-.458-1.316,1.5,1.5,0,0,0-1.157-.5,1.475,1.475,0,0,0-1.144.5,2.154,2.154,0,0,0,0,2.639,1.5,1.5,0,0,0,1.138.5Z" transform="translate(-461.029 -179.708)"/>
  </g>
  <g id="Grupo_57704" data-name="Grupo 57704" transform="translate(283.118 74.123)">
    <path id="Trazado_102577" data-name="Trazado 102577" d="M450.188,117.11h1.482v7.178h-1.723l-3.179-5.131v5.131H445.28V117.11h1.73l3.179,5.086Z" transform="translate(-445.28 -116.773)"/>
    <path id="Trazado_102578" data-name="Trazado 102578" d="M462.494,122.781v.343H458.68a1.31,1.31,0,0,0,.407.934,1.386,1.386,0,0,0,1.571.146,1.112,1.112,0,0,0,.432-.515l1.31.191a2.232,2.232,0,0,1-.9,1.2,2.639,2.639,0,0,1-1.507.426,2.76,2.76,0,0,1-1.99-.706,2.543,2.543,0,0,1-.738-1.945,2.6,2.6,0,0,1,.738-1.952,2.687,2.687,0,0,1,1.945-.712,2.333,2.333,0,0,1,2.543,2.588Zm-2.543-1.577a1.132,1.132,0,0,0-1.24.986h2.347a1.075,1.075,0,0,0-.356-.731,1.126,1.126,0,0,0-.725-.252Z" transform="translate(-449.644 -117.892)"/>
    <path id="Trazado_102579" data-name="Trazado 102579" d="M470.461,120.3h1.361v4.724a3.815,3.815,0,0,1-.191,1.272,2.054,2.054,0,0,1-.553.871,2.32,2.32,0,0,1-.852.489,3.509,3.509,0,0,1-1.112.159,2.519,2.519,0,0,1-2.632-1.583l1.189-.509a1.723,1.723,0,0,0,.547.744,1.405,1.405,0,0,0,.84.235c.884,0,1.329-.521,1.329-1.571v-.617a1.608,1.608,0,0,1-.636.5,2.156,2.156,0,0,1-.909.191,2.276,2.276,0,0,1-.9-.178,2.384,2.384,0,0,1-.744-.509,2.42,2.42,0,0,1-.5-.8,3.007,3.007,0,0,1,0-2.073,2.281,2.281,0,0,1,.509-.788,2.122,2.122,0,0,1,.744-.5,2.289,2.289,0,0,1,.9-.178,2.1,2.1,0,0,1,.947.21,1.469,1.469,0,0,1,.636.559Zm-2.194,3.376a1.234,1.234,0,0,0,.934.395,1.271,1.271,0,0,0,.941-.395,1.427,1.427,0,0,0,0-1.945,1.329,1.329,0,0,0-1.908,0,1.361,1.361,0,0,0-.375.979,1.335,1.335,0,0,0,.407.966Z" transform="translate(-453.001 -117.894)"/>
    <path id="Trazado_102580" data-name="Trazado 102580" d="M481.192,124.048a4.774,4.774,0,0,0,.121,1.272v.14h-1.335l-.114-.553a1.647,1.647,0,0,1-.712.489,2.686,2.686,0,0,1-.923.168,2.251,2.251,0,0,1-.477-.045,1.751,1.751,0,0,1-.432-.153,1.273,1.273,0,0,1-.356-.267,1.081,1.081,0,0,1-.235-.4,1.78,1.78,0,0,1,0-1.112,1.4,1.4,0,0,1,.252-.413,1.741,1.741,0,0,1,.407-.306,3.175,3.175,0,0,1,.5-.216,5.966,5.966,0,0,1,.636-.159l.84-.191a.9.9,0,0,0,.381-.159.336.336,0,0,0,.108-.252.54.54,0,0,0-.252-.5,1.271,1.271,0,0,0-.636-.146.877.877,0,0,0-1,.782L476.7,121.8a1.716,1.716,0,0,1,.738-1.17,2.956,2.956,0,0,1,1.6-.369q2.149,0,2.149,1.838Zm-2.543.521a1.151,1.151,0,0,0,.884-.375,1.545,1.545,0,0,0,.343-1.091l-1.214.343a1.361,1.361,0,0,0-.509.21.432.432,0,0,0-.178.369.471.471,0,0,0,.191.4.782.782,0,0,0,.509.121Z" transform="translate(-456.701 -117.918)"/>
    <path id="Trazado_102581" data-name="Trazado 102581" d="M487.4,124.533a1.52,1.52,0,0,1-1.151-.413,1.6,1.6,0,0,1-.407-1.183v-2.41h-1.008v-1.1h.324a.858.858,0,0,0,.636-.21,1.132,1.132,0,0,0,.2-.763v-.672h1.272v1.646h1.049v1.1h-1.03v2.257c0,.445.2.636.588.636h.458v1.091Z" transform="translate(-459.687 -117.017)"/>
    <path id="Trazado_102582" data-name="Trazado 102582" d="M492.766,118.226a.82.82,0,0,1-.588-.242.8.8,0,0,1-.242-.588.782.782,0,0,1,.252-.578.82.82,0,1,1,1.157,1.164.8.8,0,0,1-.579.244Zm-.725,5.869v-5.086h1.437V124.1Z" transform="translate(-462.272 -116.58)"/>
    <path id="Trazado_102583" data-name="Trazado 102583" d="M499.582,120.37h1.511l-2.174,5.086h-1.269L495.5,120.37h1.507l1.272,3.491Z" transform="translate(-463.569 -117.96)"/>
    <path id="Trazado_102584" data-name="Trazado 102584" d="M507.3,125.54a3.274,3.274,0,0,1-1.443-.311,2.351,2.351,0,0,1-.991-.924,2.709,2.709,0,0,1-.363-1.427,2.543,2.543,0,0,1,.776-1.908,3.255,3.255,0,0,1,4.05,0,2.823,2.823,0,0,1,0,3.885,2.874,2.874,0,0,1-2.028.68Zm0-1.138a1.316,1.316,0,0,0,1.008-.42,1.552,1.552,0,0,0,.381-1.1,1.583,1.583,0,0,0-.381-1.107,1.335,1.335,0,0,0-1.007-.413,1.272,1.272,0,0,0-.986.42,1.8,1.8,0,0,0,0,2.2,1.272,1.272,0,0,0,.973.42Z" transform="translate(-466.846 -117.922)"/>
  </g>
</svg>
