<svg xmlns="http://www.w3.org/2000/svg" width="358.322" height="191.025" viewBox="0 0 358.322 191.025">
  <g id="Grupo_66766" data-name="Grupo 66766" transform="translate(10272.242 -516.155)">
    <g id="color2" transform="translate(-10272.242 516.155)">
      <rect id="Rectángulo_5375" data-name="Rectángulo 5375" width="44.787" height="45.779" transform="translate(0 145.247)" fill="#fcee21"/>
      <g id="Grupo_57680" data-name="Grupo 57680">
        <rect id="Rectángulo_5376" data-name="Rectángulo 5376" width="179.161" height="145.247" fill="#fcee21"/>
        <rect id="Rectángulo_5377" data-name="Rectángulo 5377" width="179.161" height="191.025" transform="translate(179.161)" fill="#f2f2f2"/>
        <g id="Grupo_57672" data-name="Grupo 57672" transform="translate(44.787 145.247)" opacity="0.75">
          <rect id="Rectángulo_5378" data-name="Rectángulo 5378" width="44.787" height="45.779" fill="#fcee21"/>
        </g>
        <g id="Grupo_57673" data-name="Grupo 57673" transform="translate(89.58 145.247)" opacity="0.5">
          <rect id="Rectángulo_5379" data-name="Rectángulo 5379" width="44.787" height="45.779" fill="#fcee21"/>
        </g>
        <g id="Grupo_57674" data-name="Grupo 57674" transform="translate(134.367 145.247)" opacity="0.25">
          <rect id="Rectángulo_5380" data-name="Rectángulo 5380" width="44.787" height="45.779" fill="#fcee21"/>
        </g>
        <g id="Grupo_57675" data-name="Grupo 57675" transform="translate(200.143 34.271)">
          <path id="Trazado_102146" data-name="Trazado 102146" d="M328.044,72.636,326.8,69.121h-7.159l-1.237,3.515H314.78l6.276-17.043h4.33l6.276,17.043Zm-7.363-6.472h5.086l-2.543-7.235Z" transform="translate(-314.78 -54.516)"/>
          <path id="Trazado_102147" data-name="Trazado 102147" d="M359.03,63a4.618,4.618,0,0,1,3.128.986,3.516,3.516,0,0,1,1.164,2.829v8.517h-3.4V67.745a2.022,2.022,0,0,0-.547-1.532,1.908,1.908,0,0,0-1.367-.521,2.206,2.206,0,0,0-1.653.636,3.033,3.033,0,0,0-.636,2.137v6.867h-3.433V67.784a2.08,2.08,0,0,0-.541-1.564,1.946,1.946,0,0,0-1.405-.528,2.13,2.13,0,0,0-1.641.7,3.313,3.313,0,0,0-.636,2.276v6.664H344.68V63.206h3.383v1.427a4.127,4.127,0,0,1,3.5-1.635,5.188,5.188,0,0,1,2.283.464,3.106,3.106,0,0,1,1.427,1.348A4.3,4.3,0,0,1,359.03,63Z" transform="translate(-325.669 -57.21)"/>
          <path id="Trazado_102148" data-name="Trazado 102148" d="M388.608,72.026a11.312,11.312,0,0,0,.292,2.956v.331h-3.179l-.274-1.322a3.935,3.935,0,0,1-1.7,1.17,6.224,6.224,0,0,1-2.194.388,5.855,5.855,0,0,1-1.132-.1,3.815,3.815,0,0,1-1.023-.363,3.224,3.224,0,0,1-.84-.636,2.785,2.785,0,0,1-.566-.96,3.759,3.759,0,0,1-.217-1.316,3.574,3.574,0,0,1,.229-1.316,3.071,3.071,0,0,1,.588-.986,3.61,3.61,0,0,1,.96-.719,6.875,6.875,0,0,1,1.2-.521,13.615,13.615,0,0,1,1.437-.375l2-.452a2.206,2.206,0,0,0,.9-.381.762.762,0,0,0,.267-.636,1.272,1.272,0,0,0-.6-1.164,2.733,2.733,0,0,0-1.443-.356,2.089,2.089,0,0,0-2.372,1.847l-3.023-.509a4.07,4.07,0,0,1,1.763-2.766,6.949,6.949,0,0,1,3.815-.89q5.086,0,5.086,4.374Zm-5.983,1.227a2.734,2.734,0,0,0,2.1-.884,3.675,3.675,0,0,0,.827-2.6l-2.886.84a3.479,3.479,0,0,0-1.214.5,1.007,1.007,0,0,0-.413.871,1.138,1.138,0,0,0,.445.966,1.869,1.869,0,0,0,1.143.312Z" transform="translate(-337.723 -57.193)"/>
          <path id="Trazado_102149" data-name="Trazado 102149" d="M403.255,65.152a3.986,3.986,0,0,1,1.6-1.456,4.82,4.82,0,0,1,2.372-.636v3.022a4.622,4.622,0,0,0-2.906.751,3.2,3.2,0,0,0-.9,2.6v5.92H400V63.231h3.255Z" transform="translate(-345.815 -57.236)"/>
          <path id="Trazado_102150" data-name="Trazado 102150" d="M416.091,58.234a1.965,1.965,0,0,1-1.971-1.959,1.863,1.863,0,0,1,.588-1.374,1.907,1.907,0,0,1,1.386-.573,1.952,1.952,0,1,1,0,3.9Zm-1.736,13.944V60.052h3.427V72.178Z" transform="translate(-350.958 -54.056)"/>
          <path id="Trazado_102151" data-name="Trazado 102151" d="M425.4,72.021V53.9h3.434V72.021Z" transform="translate(-355.065 -53.9)"/>
          <path id="Trazado_102152" data-name="Trazado 102152" d="M436.33,72.021V53.9h3.434V72.021Z" transform="translate(-359.046 -53.9)"/>
          <path id="Trazado_102153" data-name="Trazado 102153" d="M452.341,75.555a7.63,7.63,0,0,1-3.433-.744,5.487,5.487,0,0,1-2.351-2.183,6.48,6.48,0,0,1-.858-3.38,5.938,5.938,0,0,1,1.847-4.6,7.7,7.7,0,0,1,9.614,0,6.7,6.7,0,0,1,0,9.221,6.81,6.81,0,0,1-4.813,1.691Zm-.038-2.7a3.135,3.135,0,0,0,2.4-.966,4.2,4.2,0,0,0,0-5.239,3.116,3.116,0,0,0-2.4-.992,3,3,0,0,0-2.327,1,4.235,4.235,0,0,0,0,5.226,3.007,3.007,0,0,0,2.327.973Z" transform="translate(-362.455 -57.2)"/>
        </g>
        <g id="Grupo_57676" data-name="Grupo 57676" transform="translate(203.227 95.96)">
          <path id="Trazado_102154" data-name="Trazado 102154" d="M324.145,152.051h-2.836v2.289h2.5v.8h-2.5v2.321h2.836v.808H320.4v-6.994h3.745Z" transform="translate(-319.91 -151.05)"/>
          <path id="Trazado_102155" data-name="Trazado 102155" d="M330.928,154.389a1.71,1.71,0,0,1,1.228.445,1.653,1.653,0,0,1,.458,1.272v3.287h-.858v-3.1a1.138,1.138,0,0,0-.3-.871,1.05,1.05,0,0,0-.763-.286,1.2,1.2,0,0,0-.871.336,1.393,1.393,0,0,0-.343,1v2.918h-.858v-4.883h.877v.636a1.628,1.628,0,0,1,1.431-.755Z" transform="translate(-322.904 -152.186)"/>
          <path id="Trazado_102156" data-name="Trazado 102156" d="M338.681,158.5a1.272,1.272,0,0,1-.954-.35,1.316,1.316,0,0,1-.349-.973V154.3h-1v-.687h.369a.687.687,0,0,0,.534-.168.821.821,0,0,0,.159-.573V152h.8v1.628h1.075v.687H338.2v2.771a.744.744,0,0,0,.185.534.636.636,0,0,0,.49.191h.445v.687Z" transform="translate(-325.73 -151.316)"/>
          <path id="Trazado_102157" data-name="Trazado 102157" d="M345.993,154.533h.858v4.883h-.827v-.636a1.564,1.564,0,0,1-.6.547,1.907,1.907,0,0,1-.858.191,1.7,1.7,0,0,1-1.227-.439,1.666,1.666,0,0,1-.458-1.272V154.52h.858v3.1a1.164,1.164,0,0,0,.3.871,1.055,1.055,0,0,0,.769.292,1.17,1.17,0,0,0,.865-.336,1.405,1.405,0,0,0,.343-1Z" transform="translate(-328.095 -152.234)"/>
          <path id="Trazado_102158" data-name="Trazado 102158" d="M353.192,159.48a2.308,2.308,0,0,1-1.316-.35,1.468,1.468,0,0,1-.636-1.007l.751-.216a1.03,1.03,0,0,0,.369.7,1.316,1.316,0,0,0,.8.242,1.792,1.792,0,0,0,.47-.064.814.814,0,0,0,.363-.242.636.636,0,0,0,.14-.445.526.526,0,0,0-.038-.2,1.266,1.266,0,0,0-.076-.159.407.407,0,0,0-.14-.133,1.22,1.22,0,0,0-.395-.2l-.235-.084-.274-.076-.28-.084a5,5,0,0,1-.509-.178,2.326,2.326,0,0,1-.413-.235.948.948,0,0,1-.318-.388,1.308,1.308,0,0,1-.108-.547,1.271,1.271,0,0,1,.242-.782,1.347,1.347,0,0,1,.636-.458,2.441,2.441,0,0,1,.865-.14,2.136,2.136,0,0,1,1.189.318,1.36,1.36,0,0,1,.6.954l-.706.178a.934.934,0,0,0-.375-.636,1.17,1.17,0,0,0-.7-.21,1.2,1.2,0,0,0-.636.168.578.578,0,0,0-.274.528.541.541,0,0,0,.07.267.636.636,0,0,0,.413.336,2.708,2.708,0,0,0,.292.108l.356.089h.076l.464.133a3.444,3.444,0,0,1,.426.178,1.546,1.546,0,0,1,.381.267,1.334,1.334,0,0,1,.336.9,1.469,1.469,0,0,1-.146.636,1.183,1.183,0,0,1-.4.445,1.782,1.782,0,0,1-.573.252A2.6,2.6,0,0,1,353.192,159.48Z" transform="translate(-331.141 -152.203)"/>
          <path id="Trazado_102159" data-name="Trazado 102159" d="M359.669,152.079a.553.553,0,0,1-.407-.168.566.566,0,0,1-.168-.413.553.553,0,0,1,.168-.407.572.572,0,0,1,.407-.168.588.588,0,0,1,.407.168.552.552,0,0,1,.168.407A.588.588,0,0,1,359.669,152.079Zm-.439,6.027v-4.883h.865v4.883Z" transform="translate(-334.001 -150.923)"/>
          <path id="Trazado_102160" data-name="Trazado 102160" d="M364.293,159.469a1.672,1.672,0,0,1-1.075-.336,1.2,1.2,0,0,1-.42-1,1.4,1.4,0,0,1,.133-.636,1.081,1.081,0,0,1,.4-.445,2.176,2.176,0,0,1,.573-.28,6.147,6.147,0,0,1,.744-.178l.788-.127c.286-.051.432-.2.432-.452a.845.845,0,0,0-.306-.725,1.227,1.227,0,0,0-.776-.235,1.272,1.272,0,0,0-.763.222.96.96,0,0,0-.363.687l-.776-.168a1.525,1.525,0,0,1,.636-1.043,2.289,2.289,0,0,1,1.335-.35,2.745,2.745,0,0,1,.706.089,1.793,1.793,0,0,1,.588.274,1.189,1.189,0,0,1,.42.521,1.965,1.965,0,0,1,.153.808v2.015a.821.821,0,0,0,.114.509.477.477,0,0,0,.381.134h.084v.636h-.426c-.528,0-.84-.216-.929-.636h-.038a1.847,1.847,0,0,1-1.621.712Zm.2-.693a1.3,1.3,0,0,0,1.049-.477,1.959,1.959,0,0,0,.395-1.272l-1.272.252a1.7,1.7,0,0,0-.756.274.711.711,0,0,0-.013,1.068.986.986,0,0,0,.6.159Z" transform="translate(-335.35 -152.192)"/>
          <path id="Trazado_102161" data-name="Trazado 102161" d="M373.062,159.47a2.333,2.333,0,0,1-1.316-.35,1.462,1.462,0,0,1-.636-1.007l.751-.216a1.029,1.029,0,0,0,.4.68,1.271,1.271,0,0,0,.8.242,1.83,1.83,0,0,0,.47-.064.763.763,0,0,0,.356-.242.636.636,0,0,0,.146-.445.971.971,0,0,0-.038-.2.747.747,0,0,0-.084-.159.407.407,0,0,0-.14-.134l-.168-.108-.223-.089-.235-.084-.274-.076-.286-.084a4.806,4.806,0,0,1-.5-.178,2.12,2.12,0,0,1-.413-.235.909.909,0,0,1-.324-.388,1.309,1.309,0,0,1-.1-.547,1.272,1.272,0,0,1,.235-.782,1.347,1.347,0,0,1,.636-.458,2.479,2.479,0,0,1,.871-.14,2.137,2.137,0,0,1,1.189.318,1.335,1.335,0,0,1,.588.954l-.706.178a.928.928,0,0,0-.369-.636,1.189,1.189,0,0,0-.706-.21,1.214,1.214,0,0,0-.636.168.588.588,0,0,0-.274.528.483.483,0,0,0,.076.267.682.682,0,0,0,.146.191.764.764,0,0,0,.267.146,2.288,2.288,0,0,0,.286.108l.356.089h.076l.47.133a3.412,3.412,0,0,1,.42.178,1.337,1.337,0,0,1,.381.267,1.273,1.273,0,0,1,.242.375,1.418,1.418,0,0,1,.1.528,1.386,1.386,0,0,1-.146.636,1.092,1.092,0,0,1-.4.445,1.687,1.687,0,0,1-.566.252,2.607,2.607,0,0,1-.725.146Z" transform="translate(-338.378 -152.192)"/>
          <path id="Trazado_102162" data-name="Trazado 102162" d="M380.283,158.5a1.272,1.272,0,0,1-.954-.35,1.343,1.343,0,0,1-.35-.973V154.3H378v-.687h.369a.705.705,0,0,0,.541-.168.851.851,0,0,0,.159-.573V152h.8v1.628h1.125v.687h-1.141v2.771a.726.726,0,0,0,.191.534.636.636,0,0,0,.489.191h.445v.687Z" transform="translate(-340.887 -151.316)"/>
          <path id="Trazado_102163" data-name="Trazado 102163" d="M385.446,159.469a1.666,1.666,0,0,1-1.068-.336,1.2,1.2,0,0,1-.42-1,1.4,1.4,0,0,1,.133-.636,1.106,1.106,0,0,1,.395-.445,2.321,2.321,0,0,1,.578-.28,6.006,6.006,0,0,1,.737-.178l.8-.127c.286-.051.432-.2.432-.452a.845.845,0,0,0-.306-.725,1.227,1.227,0,0,0-.776-.235,1.271,1.271,0,0,0-.763.222.924.924,0,0,0-.363.687l-.776-.168a1.482,1.482,0,0,1,.636-1.043,2.267,2.267,0,0,1,1.329-.35,2.764,2.764,0,0,1,.712.089,1.909,1.909,0,0,1,.588.274,1.233,1.233,0,0,1,.42.521,1.963,1.963,0,0,1,.153.808v2.015a.871.871,0,0,0,.108.509.484.484,0,0,0,.388.133h.051v.636h-.426a.808.808,0,0,1-.924-.636h-.038a1.856,1.856,0,0,1-1.6.712Zm.2-.693a1.272,1.272,0,0,0,1.049-.477,1.907,1.907,0,0,0,.4-1.272l-1.272.252a1.672,1.672,0,0,0-.756.274.711.711,0,0,0-.013,1.068.979.979,0,0,0,.59.155Z" transform="translate(-343.056 -152.192)"/>
          <path id="Trazado_102164" data-name="Trazado 102164" d="M323.114,177.453a3.771,3.771,0,0,1-1.379-.252,3.575,3.575,0,0,1-1.107-.706,3.179,3.179,0,0,1-.731-1.138,4.348,4.348,0,0,1,0-3,3.235,3.235,0,0,1,.737-1.138,3.363,3.363,0,0,1,1.1-.706,3.771,3.771,0,0,1,1.379-.252,3.7,3.7,0,0,1,1.361.252,3.179,3.179,0,0,1,1.847,1.838,4.057,4.057,0,0,1,.267,1.494,4.127,4.127,0,0,1-.267,1.507,3.326,3.326,0,0,1-.737,1.138,3.434,3.434,0,0,1-1.107.706,3.694,3.694,0,0,1-1.364.259Zm0-.84a2.543,2.543,0,0,0,1.847-.737,2.759,2.759,0,0,0,.731-2.022,3.18,3.18,0,0,0-.2-1.157,2.315,2.315,0,0,0-1.367-1.393,2.9,2.9,0,0,0-2.034,0,2.423,2.423,0,0,0-.82.528,2.351,2.351,0,0,0-.553.865,3.178,3.178,0,0,0-.2,1.157,3.287,3.287,0,0,0,.2,1.175,2.384,2.384,0,0,0,.553.872,2.633,2.633,0,0,0,.82.528,2.843,2.843,0,0,0,1.026.184Z" transform="translate(-319.63 -157.968)"/>
          <path id="Trazado_102165" data-name="Trazado 102165" d="M335.5,173.59a2.2,2.2,0,0,1,.884.185,2.137,2.137,0,0,1,.725.5,2.435,2.435,0,0,1,.489.808,2.991,2.991,0,0,1,.178,1.055,2.543,2.543,0,0,1-.636,1.838,2.13,2.13,0,0,1-1.621.706,1.945,1.945,0,0,1-1.023-.28,1.847,1.847,0,0,1-.7-.751v3.383h-.9v-7.348h.833v.947a1.763,1.763,0,0,1,.693-.756,1.939,1.939,0,0,1,1.077-.284Zm-.168,4.336a1.469,1.469,0,0,0,1.132-.489,2.085,2.085,0,0,0,0-2.6,1.468,1.468,0,0,0-1.132-.489,1.5,1.5,0,0,0-1.144.509,1.99,1.99,0,0,0,0,2.543,1.482,1.482,0,0,0,1.119.534Z" transform="translate(-324.462 -159.178)"/>
          <path id="Trazado_102166" data-name="Trazado 102166" d="M344.489,178.663a2.543,2.543,0,0,1-1.272-.306,2.174,2.174,0,0,1-.877-.884,2.664,2.664,0,0,1-.331-1.348,2.543,2.543,0,0,1,.693-1.847,2.6,2.6,0,0,1,3.535,0,2.8,2.8,0,0,1,0,3.687A2.384,2.384,0,0,1,344.489,178.663Zm0-.712a1.511,1.511,0,0,0,1.157-.5,1.908,1.908,0,0,0,.458-1.322,1.863,1.863,0,0,0-.458-1.316,1.494,1.494,0,0,0-1.157-.5,1.475,1.475,0,0,0-1.144.5,2.154,2.154,0,0,0,0,2.639,1.5,1.5,0,0,0,1.138.5Z" transform="translate(-327.779 -159.178)"/>
          <path id="Trazado_102167" data-name="Trazado 102167" d="M352.74,174.58a1.488,1.488,0,0,1,.6-.636,1.812,1.812,0,0,1,.941-.252v.808a1.608,1.608,0,0,0-1.138.363,1.511,1.511,0,0,0-.388,1.157v2.6H351.9V173.74h.84Z" transform="translate(-331.382 -159.215)"/>
          <path id="Trazado_102168" data-name="Trazado 102168" d="M358.811,177.691a1.272,1.272,0,0,1-.954-.35,1.316,1.316,0,0,1-.35-.973v-2.874h-1v-.687h.369a.719.719,0,0,0,.541-.168.859.859,0,0,0,.153-.573v-.887h.8v1.628H359.5v.687h-1.125v2.785a.725.725,0,0,0,.191.534.636.636,0,0,0,.484.191h.452v.687Z" transform="translate(-333.06 -158.301)"/>
          <path id="Trazado_102169" data-name="Trazado 102169" d="M366.138,173.733H367v4.883h-.82v-.636a1.539,1.539,0,0,1-.636.547,1.847,1.847,0,0,1-.852.191,1.7,1.7,0,0,1-1.227-.439,1.646,1.646,0,0,1-.464-1.272V173.72h.858v3.1a1.145,1.145,0,0,0,.306.871,1.03,1.03,0,0,0,.763.292,1.183,1.183,0,0,0,.871-.336,1.373,1.373,0,0,0,.336-1Z" transform="translate(-335.422 -159.226)"/>
          <path id="Trazado_102170" data-name="Trazado 102170" d="M374.333,173.588a1.7,1.7,0,0,1,1.227.445,1.653,1.653,0,0,1,.464,1.272v3.287h-.845V175.5a1.144,1.144,0,0,0-.3-.877,1.049,1.049,0,0,0-.763-.286,1.2,1.2,0,0,0-.871.336,1.361,1.361,0,0,0-.336,1v2.918H372v-4.883h.865v.636a1.621,1.621,0,0,1,1.468-.755Z" transform="translate(-338.702 -159.177)"/>
          <path id="Trazado_102171" data-name="Trazado 102171" d="M381.29,171.28a.553.553,0,0,1-.407-.168.566.566,0,0,1-.168-.413.553.553,0,0,1,.168-.407.588.588,0,0,1,.814,0,.553.553,0,0,1,.168.407.566.566,0,0,1-.168.413A.553.553,0,0,1,381.29,171.28Zm-.439,6.027v-4.883h.865v4.883Z" transform="translate(-341.874 -157.916)"/>
          <path id="Trazado_102172" data-name="Trazado 102172" d="M388.438,169.42h.858v7.63h-.833V176.1a1.8,1.8,0,0,1-.693.769,1.94,1.94,0,0,1-1.036.286,2.2,2.2,0,0,1-.884-.185,2.079,2.079,0,0,1-.725-.509,2.284,2.284,0,0,1-.5-.808,2.921,2.921,0,0,1-.178-1.043,2.588,2.588,0,0,1,.636-1.838,2.149,2.149,0,0,1,1.621-.706,1.945,1.945,0,0,1,1.023.28,1.831,1.831,0,0,1,.7.744Zm-1.545,6.994a1.457,1.457,0,0,0,1.138-.509,2.028,2.028,0,0,0,0-2.543,1.534,1.534,0,0,0-2.276-.019,1.838,1.838,0,0,0-.464,1.3,1.813,1.813,0,0,0,.46,1.273,1.488,1.488,0,0,0,1.138.489Z" transform="translate(-343.235 -157.66)"/>
          <path id="Trazado_102173" data-name="Trazado 102173" d="M395.736,178.67a1.628,1.628,0,0,1-1.068-.336,1.2,1.2,0,0,1-.42-1,1.4,1.4,0,0,1,.133-.636,1.106,1.106,0,0,1,.395-.445,2.318,2.318,0,0,1,.578-.28,5.092,5.092,0,0,1,.737-.168l.8-.133c.286-.051.432-.2.432-.452a.833.833,0,0,0-.311-.725,1.208,1.208,0,0,0-.769-.235,1.272,1.272,0,0,0-.763.222.923.923,0,0,0-.363.687l-.776-.159a1.481,1.481,0,0,1,.636-1.049,2.251,2.251,0,0,1,1.329-.35,2.763,2.763,0,0,1,.712.089,1.905,1.905,0,0,1,.588.274,1.233,1.233,0,0,1,.42.521,1.963,1.963,0,0,1,.153.808v2.015a.871.871,0,0,0,.108.509.484.484,0,0,0,.388.133h.076v.636h-.426a.808.808,0,0,1-.923-.636h-.038a1.869,1.869,0,0,1-1.628.712Zm.2-.693a1.272,1.272,0,0,0,1.049-.477,1.907,1.907,0,0,0,.4-1.272l-1.272.252a1.736,1.736,0,0,0-.763.274.718.718,0,0,0-.007,1.068.979.979,0,0,0,.588.159Z" transform="translate(-346.803 -159.185)"/>
          <path id="Trazado_102174" data-name="Trazado 102174" d="M406.438,169.42h.858v7.63h-.833V176.1a1.8,1.8,0,0,1-.693.769,1.94,1.94,0,0,1-1.036.286,2.2,2.2,0,0,1-.884-.185,2.078,2.078,0,0,1-.725-.509,2.283,2.283,0,0,1-.5-.808,2.918,2.918,0,0,1-.178-1.043,2.588,2.588,0,0,1,.636-1.838,2.149,2.149,0,0,1,1.621-.706,1.945,1.945,0,0,1,1.023.28,1.832,1.832,0,0,1,.7.744Zm-1.545,6.994a1.457,1.457,0,0,0,1.138-.509,2.028,2.028,0,0,0,0-2.543,1.534,1.534,0,0,0-2.276-.019,1.838,1.838,0,0,0-.464,1.3,1.812,1.812,0,0,0,.46,1.273,1.488,1.488,0,0,0,1.138.489Z" transform="translate(-349.79 -157.66)"/>
          <path id="Trazado_102175" data-name="Trazado 102175" d="M324.145,190.434h-2.836v2.289h2.5v.8h-2.5v2.289h2.836v.808H320.4V189.62h3.745Z" transform="translate(-319.91 -165.016)"/>
          <path id="Trazado_102176" data-name="Trazado 102176" d="M327.54,197.823l1.876-2.441-1.876-2.441H328.6l1.354,1.87,1.348-1.87h1.043l-1.908,2.441,1.908,2.441h-1.049l-1.343-1.856-1.354,1.856Z" transform="translate(-322.511 -166.226)"/>
          <path id="Trazado_102177" data-name="Trazado 102177" d="M339.346,192.79a2.2,2.2,0,0,1,.884.185,2.136,2.136,0,0,1,.725.5,2.365,2.365,0,0,1,.49.808,3,3,0,0,1,.185,1.055,2.543,2.543,0,0,1-.636,1.838,2.13,2.13,0,0,1-1.621.706,1.965,1.965,0,0,1-1.023-.28,1.831,1.831,0,0,1-.693-.751v3.383h-.865v-7.348h.833v.947a1.812,1.812,0,0,1,.693-.756A1.94,1.94,0,0,1,339.346,192.79Zm-.168,4.336a1.469,1.469,0,0,0,1.132-.489,2.086,2.086,0,0,0,0-2.6,1.468,1.468,0,0,0-1.132-.489,1.5,1.5,0,0,0-1.144.509,1.991,1.991,0,0,0,0,2.543,1.5,1.5,0,0,0,1.141.53Z" transform="translate(-325.88 -166.17)"/>
          <path id="Trazado_102178" data-name="Trazado 102178" d="M348.342,197.864a2.543,2.543,0,0,1-1.272-.3,2.175,2.175,0,0,1-.877-.884,2.727,2.727,0,0,1-.324-1.348,2.492,2.492,0,0,1,.693-1.847,2.594,2.594,0,0,1,3.526,0,2.8,2.8,0,0,1,0,3.687,2.384,2.384,0,0,1-1.745.7Zm0-.712a1.511,1.511,0,0,0,1.157-.5,1.908,1.908,0,0,0,.458-1.322,1.863,1.863,0,0,0-.458-1.316,1.494,1.494,0,0,0-1.157-.5,1.475,1.475,0,0,0-1.144.5,2.154,2.154,0,0,0,0,2.639,1.5,1.5,0,0,0,1.138.5Z" transform="translate(-329.184 -166.171)"/>
          <path id="Trazado_102179" data-name="Trazado 102179" d="M358.051,192.789a1.723,1.723,0,0,1,1.233.445,1.653,1.653,0,0,1,.458,1.272v3.287h-.858v-3.1a1.163,1.163,0,0,0-.3-.871,1.068,1.068,0,0,0-.769-.286,1.175,1.175,0,0,0-.865.336,1.344,1.344,0,0,0-.343,1v2.918h-.858v-4.883h.858v.636a1.628,1.628,0,0,1,1.443-.756Z" transform="translate(-332.784 -166.17)"/>
          <path id="Trazado_102180" data-name="Trazado 102180" d="M365.771,196.884a1.272,1.272,0,0,1-.954-.35,1.343,1.343,0,0,1-.35-.973v-2.886h-1v-.685h.369a.706.706,0,0,0,.541-.168.852.852,0,0,0,.159-.573v-.888h.8v1.629h1.125v.687h-1.125v2.785a.725.725,0,0,0,.191.534.636.636,0,0,0,.49.191h.445v.687Z" transform="translate(-335.595 -165.286)"/>
          <path id="Trazado_102181" data-name="Trazado 102181" d="M370.946,197.869a1.666,1.666,0,0,1-1.068-.336,1.2,1.2,0,0,1-.42-1,1.4,1.4,0,0,1,.134-.636,1.105,1.105,0,0,1,.395-.445,2.321,2.321,0,0,1,.578-.28A6.016,6.016,0,0,1,371.3,195l.8-.127c.286-.051.432-.2.432-.452a.846.846,0,0,0-.3-.725,1.227,1.227,0,0,0-.776-.235,1.272,1.272,0,0,0-.763.222.924.924,0,0,0-.363.687l-.776-.168a1.481,1.481,0,0,1,.636-1.043,2.267,2.267,0,0,1,1.329-.35,2.765,2.765,0,0,1,.712.089,1.908,1.908,0,0,1,.588.274,1.235,1.235,0,0,1,.42.521,1.966,1.966,0,0,1,.153.808v2.015a.871.871,0,0,0,.108.509.484.484,0,0,0,.388.133h.076v.636h-.426a.808.808,0,0,1-.924-.636h-.038a1.856,1.856,0,0,1-1.628.712Zm.2-.693a1.272,1.272,0,0,0,1.049-.477,1.907,1.907,0,0,0,.4-1.272l-1.272.252a1.672,1.672,0,0,0-.756.274.711.711,0,0,0-.013,1.068.979.979,0,0,0,.59.155Z" transform="translate(-337.775 -166.176)"/>
          <path id="Trazado_102182" data-name="Trazado 102182" d="M380.678,192.789a1.71,1.71,0,0,1,1.227.445,1.653,1.653,0,0,1,.458,1.272v3.287H381.5v-3.1a1.163,1.163,0,0,0-.3-.871,1.049,1.049,0,0,0-.763-.286,1.2,1.2,0,0,0-.871.336,1.393,1.393,0,0,0-.343,1v2.918h-.856v-4.883h.858v.636a1.628,1.628,0,0,1,1.45-.755Z" transform="translate(-341.022 -166.17)"/>
          <path id="Trazado_102183" data-name="Trazado 102183" d="M391.348,195.253v.235h-3.815a1.736,1.736,0,0,0,.47,1.272,1.526,1.526,0,0,0,1.112.439,1.482,1.482,0,0,0,.808-.235,1.553,1.553,0,0,0,.559-.636l.776.168a2.213,2.213,0,0,1-.84,1.049,2.283,2.283,0,0,1-1.272.381,2.359,2.359,0,0,1-1.755-.68,2.893,2.893,0,0,1,0-3.713,2.351,2.351,0,0,1,1.735-.68,2.2,2.2,0,0,1,1.641.636,2.467,2.467,0,0,1,.58,1.764Zm-2.257-1.78a1.5,1.5,0,0,0-1.018.35,1.582,1.582,0,0,0-.515,1.007h2.922a1.456,1.456,0,0,0-.426-1.008,1.36,1.36,0,0,0-.954-.35Z" transform="translate(-344.062 -166.192)"/>
          <path id="Trazado_102184" data-name="Trazado 102184" d="M397.952,197.863a2.543,2.543,0,0,1-1.272-.306,2.175,2.175,0,0,1-.871-.884,2.663,2.663,0,0,1-.331-1.348,2.543,2.543,0,0,1,.693-1.847,2.6,2.6,0,0,1,3.535,0,2.8,2.8,0,0,1,0,3.687,2.384,2.384,0,0,1-1.755.693Zm0-.712a1.511,1.511,0,0,0,1.157-.5,1.908,1.908,0,0,0,.458-1.322,1.863,1.863,0,0,0-.458-1.316,1.494,1.494,0,0,0-1.157-.5,1.475,1.475,0,0,0-1.144.5,2.153,2.153,0,0,0,0,2.639,1.5,1.5,0,0,0,1.138.5Z" transform="translate(-347.251 -166.17)"/>
          <path id="Trazado_102185" data-name="Trazado 102185" d="M324.178,209.65h-2.867v2.283h2.5v.833h-2.5v3.09H320.4v-6.994h3.778Z" transform="translate(-319.91 -172.024)"/>
          <path id="Trazado_102186" data-name="Trazado 102186" d="M332.1,214.445v.235h-3.815a1.71,1.71,0,0,0,.471,1.27,1.511,1.511,0,0,0,1.112.439,1.475,1.475,0,0,0,1.361-.884l.776.168a2.169,2.169,0,0,1-.833,1.049,2.283,2.283,0,0,1-1.272.381,2.359,2.359,0,0,1-1.755-.68,2.893,2.893,0,0,1,0-3.713,2.327,2.327,0,0,1,1.73-.68,2.187,2.187,0,0,1,1.641.636,2.467,2.467,0,0,1,.584,1.779Zm-2.267-1.78a1.511,1.511,0,0,0-1.018.35,1.608,1.608,0,0,0-.509,1.007h2.925a1.456,1.456,0,0,0-.426-1.008,1.374,1.374,0,0,0-.973-.369Z" transform="translate(-322.484 -173.177)"/>
          <path id="Trazado_102187" data-name="Trazado 102187" d="M336.86,215.45v-7.63h.873v7.63Z" transform="translate(-325.905 -171.644)"/>
          <path id="Trazado_102188" data-name="Trazado 102188" d="M341.335,209.678a.588.588,0,0,1-.588-.588.554.554,0,0,1,.168-.407.588.588,0,0,1,.82,0,.554.554,0,0,1,.168.407.588.588,0,0,1-.579.588Zm-.439,6.027v-4.883h.865v4.883Z" transform="translate(-327.321 -171.899)"/>
          <path id="Trazado_102189" data-name="Trazado 102189" d="M345.41,216.33h2.6v.693H344.12l2.575-4.184h-2.424v-.7h3.739Z" transform="translate(-328.548 -173.218)"/>
          <path id="Trazado_102190" data-name="Trazado 102190" d="M323.045,228a2.028,2.028,0,0,1,1.091.292,1.964,1.964,0,0,1,.738.776,2.276,2.276,0,0,1,.252,1.081,2.1,2.1,0,0,1-.578,1.52,1.99,1.99,0,0,1-1.507.636h-1.763v2.687H320.4V228Zm-.127,3.5a1.272,1.272,0,0,0,.973-.375,1.572,1.572,0,0,0,0-1.977,1.272,1.272,0,0,0-.973-.381h-1.634V231.5Z" transform="translate(-319.91 -178.993)"/>
          <path id="Trazado_102191" data-name="Trazado 102191" d="M331.069,236.263a2.543,2.543,0,0,1-1.272-.306,2.183,2.183,0,0,1-.884-.884,2.728,2.728,0,0,1-.324-1.348,2.543,2.543,0,0,1,.693-1.847,2.6,2.6,0,0,1,3.535,0,2.8,2.8,0,0,1,0,3.687,2.4,2.4,0,0,1-1.749.693Zm0-.712a1.511,1.511,0,0,0,1.157-.5,1.907,1.907,0,0,0,.458-1.322,1.863,1.863,0,0,0-.458-1.316,1.494,1.494,0,0,0-1.157-.5,1.475,1.475,0,0,0-1.144.5,1.863,1.863,0,0,0-.452,1.316,1.908,1.908,0,0,0,.452,1.322,1.5,1.5,0,0,0,1.138.5Z" transform="translate(-322.892 -180.155)"/>
          <path id="Trazado_102192" data-name="Trazado 102192" d="M339.782,236.27a2.321,2.321,0,0,1-1.316-.349,1.443,1.443,0,0,1-.636-1.008l.744-.216a1.082,1.082,0,0,0,.4.68,1.322,1.322,0,0,0,.808.242,1.741,1.741,0,0,0,.464-.064.814.814,0,0,0,.363-.242.635.635,0,0,0,.146-.445.678.678,0,0,0-.044-.2.525.525,0,0,0-.076-.159.406.406,0,0,0-.14-.133,1.458,1.458,0,0,0-.168-.108,1.321,1.321,0,0,0-.216-.089l-.235-.084-.274-.076-.286-.084c-.2-.064-.375-.121-.509-.178a2.29,2.29,0,0,1-.407-.235.91.91,0,0,1-.324-.388,1.308,1.308,0,0,1-.108-.547,1.271,1.271,0,0,1,.242-.782,1.349,1.349,0,0,1,.636-.458,2.442,2.442,0,0,1,.865-.14,2.162,2.162,0,0,1,1.2.318,1.374,1.374,0,0,1,.588.954l-.706.178a.916.916,0,0,0-.375-.636,1.157,1.157,0,0,0-.7-.21,1.214,1.214,0,0,0-.636.168.578.578,0,0,0-.274.528.482.482,0,0,0,.076.267.681.681,0,0,0,.146.191.706.706,0,0,0,.267.146,2.289,2.289,0,0,0,.286.108l.356.089h.076l.47.133a3.414,3.414,0,0,1,.42.178,1.545,1.545,0,0,1,.381.267,1.274,1.274,0,0,1,.242.375,1.419,1.419,0,0,1,.1.528,1.468,1.468,0,0,1-.146.636,1.091,1.091,0,0,1-.4.445,1.684,1.684,0,0,1-.566.252,2.6,2.6,0,0,1-.725.15Z" transform="translate(-326.258 -180.161)"/>
          <path id="Trazado_102193" data-name="Trazado 102193" d="M346.209,228.88a.553.553,0,0,1-.407-.168.566.566,0,0,1-.168-.413.553.553,0,0,1,.168-.407.588.588,0,0,1,.814,0,.554.554,0,0,1,.168.407.566.566,0,0,1-.168.413.553.553,0,0,1-.407.168Zm-.432,6.027v-4.883h.865v4.87Z" transform="translate(-329.099 -178.893)"/>
          <path id="Trazado_102194" data-name="Trazado 102194" d="M351.1,235.271a1.272,1.272,0,0,1-.954-.35,1.316,1.316,0,0,1-.35-.973v-2.874h-1v-.685h.369a.718.718,0,0,0,.541-.168.859.859,0,0,0,.153-.573v-.888h.8v1.629h1.125v.687h-1.125v2.785a.744.744,0,0,0,.185.534.635.635,0,0,0,.489.191h.452v.687Z" transform="translate(-330.253 -179.27)"/>
          <path id="Trazado_102195" data-name="Trazado 102195" d="M355.8,228.878a.588.588,0,0,1-.588-.588.553.553,0,0,1,.168-.407.588.588,0,0,1,.413-.168.566.566,0,0,1,.4.168.553.553,0,0,1,.168.407.566.566,0,0,1-.168.413.547.547,0,0,1-.4.168Zm-.439,6.027v-4.883h.865v4.87Z" transform="translate(-332.59 -178.891)"/>
          <path id="Trazado_102196" data-name="Trazado 102196" d="M362.187,231.332h.917l-1.984,4.87h-.731l-1.977-4.883h.914l1.427,3.885Z" transform="translate(-333.752 -180.202)"/>
          <path id="Trazado_102197" data-name="Trazado 102197" d="M368.933,236.263a2.543,2.543,0,0,1-1.272-.306,2.149,2.149,0,0,1-.845-.884,2.728,2.728,0,0,1-.324-1.348,2.492,2.492,0,0,1,.693-1.847,2.6,2.6,0,0,1,3.535,0,2.543,2.543,0,0,1,.687,1.847,2.486,2.486,0,0,1-.693,1.847,2.372,2.372,0,0,1-1.782.69Zm0-.712a1.5,1.5,0,0,0,1.151-.5,1.863,1.863,0,0,0,.464-1.322,1.837,1.837,0,0,0-.464-1.316,1.481,1.481,0,0,0-1.151-.5,1.456,1.456,0,0,0-1.144.5,1.863,1.863,0,0,0-.458,1.316,1.908,1.908,0,0,0,.458,1.322,1.482,1.482,0,0,0,1.138.5Z" transform="translate(-336.694 -180.155)"/>
        </g>
        <g id="Grupo_57677" data-name="Grupo 57677" transform="translate(283.047 95.513)">
          <path id="Trazado_102198" data-name="Trazado 102198" d="M445.58,158.214V151.22h.9v6.994Z" transform="translate(-445.319 -150.584)"/>
          <path id="Trazado_102199" data-name="Trazado 102199" d="M450.938,155.38a1.488,1.488,0,0,1,.636-.636,1.847,1.847,0,0,1,.941-.252v.808a1.589,1.589,0,0,0-1.132.363,1.511,1.511,0,0,0-.395,1.157v2.6h-.858V154.54h.84Z" transform="translate(-446.976 -151.775)"/>
          <path id="Trazado_102200" data-name="Trazado 102200" d="M456.26,155.38a1.489,1.489,0,0,1,.6-.636,1.812,1.812,0,0,1,.941-.252v.808a1.609,1.609,0,0,0-1.138.363,1.511,1.511,0,0,0-.388,1.157v2.607h-.858v-4.883h.84Z" transform="translate(-448.902 -151.775)"/>
          <path id="Trazado_102201" data-name="Trazado 102201" d="M461.576,159.469a1.666,1.666,0,0,1-1.068-.336,1.2,1.2,0,0,1-.42-1,1.4,1.4,0,0,1,.134-.636,1.107,1.107,0,0,1,.395-.445,2.317,2.317,0,0,1,.578-.28,6,6,0,0,1,.738-.178l.8-.127c.286-.051.432-.2.432-.452a.845.845,0,0,0-.306-.725,1.227,1.227,0,0,0-.776-.235,1.272,1.272,0,0,0-.763.222.924.924,0,0,0-.363.687l-.776-.168a1.482,1.482,0,0,1,.636-1.043,2.267,2.267,0,0,1,1.329-.35,2.764,2.764,0,0,1,.712.089,1.906,1.906,0,0,1,.588.274,1.233,1.233,0,0,1,.42.521,1.966,1.966,0,0,1,.153.808v2.015a.871.871,0,0,0,.108.509.484.484,0,0,0,.388.133h.076v.636h-.426a.808.808,0,0,1-.923-.636h-.032a1.856,1.856,0,0,1-1.63.713Zm.2-.693a1.272,1.272,0,0,0,1.049-.477,1.907,1.907,0,0,0,.4-1.272l-1.272.252a1.673,1.673,0,0,0-.756.274.711.711,0,0,0-.013,1.068.979.979,0,0,0,.588.159Z" transform="translate(-450.601 -151.744)"/>
          <path id="Trazado_102202" data-name="Trazado 102202" d="M470.675,159.456a2.34,2.34,0,0,1-1.749-.7,2.785,2.785,0,0,1,0-3.662,2.34,2.34,0,0,1,1.749-.706,2.372,2.372,0,0,1,1.418.432,2.183,2.183,0,0,1,.82,1.183l-.808.133a1.45,1.45,0,0,0-.547-.763,1.532,1.532,0,0,0-.89-.267,1.427,1.427,0,0,0-1.125.5,2.162,2.162,0,0,0,0,2.626,1.427,1.427,0,0,0,1.125.5,1.532,1.532,0,0,0,.89-.267,1.45,1.45,0,0,0,.547-.763l.808.133a2.174,2.174,0,0,1-.827,1.189,2.379,2.379,0,0,1-1.411.426Z" transform="translate(-453.571 -151.738)"/>
          <path id="Trazado_102203" data-name="Trazado 102203" d="M477.935,152.078a.588.588,0,0,1-.588-.588.553.553,0,0,1,.168-.407.588.588,0,0,1,.413-.168.566.566,0,0,1,.4.168.553.553,0,0,1,.168.407.566.566,0,0,1-.168.413A.547.547,0,0,1,477.935,152.078Zm-.438,6.027v-4.883h.865v4.883Z" transform="translate(-456.888 -150.474)"/>
          <path id="Trazado_102204" data-name="Trazado 102204" d="M483.5,159.463a2.544,2.544,0,0,1-1.272-.306,2.149,2.149,0,0,1-.884-.884,2.727,2.727,0,0,1-.324-1.348,2.493,2.493,0,0,1,.693-1.847,2.4,2.4,0,0,1,1.763-.693,2.422,2.422,0,0,1,1.774.693,2.543,2.543,0,0,1,.687,1.847,2.486,2.486,0,0,1-.693,1.847,2.385,2.385,0,0,1-1.744.69Zm0-.712a1.5,1.5,0,0,0,1.151-.5,1.907,1.907,0,0,0,.464-1.322,1.87,1.87,0,0,0-.464-1.316,1.481,1.481,0,0,0-1.151-.5,1.456,1.456,0,0,0-1.144.5,1.863,1.863,0,0,0-.458,1.316,1.907,1.907,0,0,0,.458,1.322,1.482,1.482,0,0,0,1.144.5Z" transform="translate(-458.224 -151.738)"/>
          <path id="Trazado_102205" data-name="Trazado 102205" d="M493.211,154.389a1.717,1.717,0,0,1,1.233.445,1.653,1.653,0,0,1,.458,1.272v3.287h-.858v-3.1a1.164,1.164,0,0,0-.3-.871,1.049,1.049,0,0,0-.763-.286,1.182,1.182,0,0,0-.871.336,1.343,1.343,0,0,0-.343,1v2.918h-.858v-4.883h.858v.636a1.628,1.628,0,0,1,1.443-.755Z" transform="translate(-461.827 -151.737)"/>
          <path id="Trazado_102206" data-name="Trazado 102206" d="M500.715,159.469a1.666,1.666,0,0,1-1.068-.336,1.2,1.2,0,0,1-.42-1,1.4,1.4,0,0,1,.133-.636,1.106,1.106,0,0,1,.395-.445,2.322,2.322,0,0,1,.578-.28,6.011,6.011,0,0,1,.738-.178l.8-.127c.286-.051.432-.2.432-.452a.846.846,0,0,0-.306-.725,1.227,1.227,0,0,0-.776-.235,1.272,1.272,0,0,0-.763.223.959.959,0,0,0-.363.687l-.776-.168a1.481,1.481,0,0,1,.635-1.043,2.267,2.267,0,0,1,1.329-.35,2.766,2.766,0,0,1,.712.089,1.908,1.908,0,0,1,.588.274,1.233,1.233,0,0,1,.42.521,1.965,1.965,0,0,1,.153.808v2.015a.82.82,0,0,0,.114.509.464.464,0,0,0,.381.134h.084v.636H503.3a.814.814,0,0,1-.924-.636h-.038a1.856,1.856,0,0,1-1.628.712Zm.2-.693a1.272,1.272,0,0,0,1.049-.477,1.908,1.908,0,0,0,.4-1.272l-1.272.252a1.672,1.672,0,0,0-.756.274.711.711,0,0,0-.013,1.068.979.979,0,0,0,.591.155Z" transform="translate(-464.855 -151.744)"/>
          <path id="Trazado_102207" data-name="Trazado 102207" d="M508.18,157.85v-7.63h.871v7.63Z" transform="translate(-468.116 -150.22)"/>
          <path id="Trazado_102208" data-name="Trazado 102208" d="M452.825,177.414h-.865l-.464-5.773-2.238,5.773h-.528l-2.219-5.723-.477,5.723h-.865l.528-6.994h1.175l2.117,5.457,2.13-5.457H452.3Z" transform="translate(-445.169 -157.576)"/>
          <path id="Trazado_102209" data-name="Trazado 102209" d="M460.255,171.278a.588.588,0,0,1-.588-.588.553.553,0,0,1,.168-.407.588.588,0,0,1,.413-.168.573.573,0,0,1,.573.573.566.566,0,0,1-.168.413.541.541,0,0,1-.4.168Zm-.439,6.027v-4.883h.865v4.883Z" transform="translate(-450.449 -157.467)"/>
          <path id="Trazado_102210" data-name="Trazado 102210" d="M468.077,176.053v.235h-3.815a1.71,1.71,0,0,0,.47,1.272,1.525,1.525,0,0,0,1.112.439,1.481,1.481,0,0,0,.808-.235,1.552,1.552,0,0,0,.559-.636l.769.168a2.168,2.168,0,0,1-.833,1.049,2.283,2.283,0,0,1-1.272.381,2.359,2.359,0,0,1-1.755-.68,2.9,2.9,0,0,1,0-3.713,2.34,2.34,0,0,1,1.73-.68,2.207,2.207,0,0,1,1.646.636A2.492,2.492,0,0,1,468.077,176.053Zm-2.267-1.78a1.494,1.494,0,0,0-1.008.349,1.583,1.583,0,0,0-.515,1.007h2.925a1.456,1.456,0,0,0-.426-1.008,1.373,1.373,0,0,0-.974-.35Z" transform="translate(-451.825 -158.752)"/>
          <path id="Trazado_102211" data-name="Trazado 102211" d="M476.237,169.42h.858v7.63h-.833V176.1a1.8,1.8,0,0,1-.693.769,1.908,1.908,0,0,1-1.036.286,2.225,2.225,0,0,1-.884-.185,2.143,2.143,0,0,1-.725-.509,2.266,2.266,0,0,1-.49-.808,2.919,2.919,0,0,1-.185-1.043,2.587,2.587,0,0,1,.635-1.838,2.149,2.149,0,0,1,1.621-.706,1.945,1.945,0,0,1,1.023.28,1.831,1.831,0,0,1,.7.744Zm-1.539,6.994a1.456,1.456,0,0,0,1.132-.509,2.028,2.028,0,0,0,0-2.543,1.469,1.469,0,0,0-1.132-.515,1.494,1.494,0,0,0-1.144.5,1.837,1.837,0,0,0-.464,1.3,1.812,1.812,0,0,0,.464,1.272,1.494,1.494,0,0,0,1.144.489Z" transform="translate(-455.03 -157.213)"/>
          <path id="Trazado_102212" data-name="Trazado 102212" d="M484.427,178.664a2.544,2.544,0,0,1-1.272-.3,2.176,2.176,0,0,1-.877-.884,2.727,2.727,0,0,1-.324-1.348,2.492,2.492,0,0,1,.693-1.847,2.594,2.594,0,0,1,3.526,0,2.8,2.8,0,0,1,0,3.687A2.385,2.385,0,0,1,484.427,178.664Zm0-.712a1.5,1.5,0,0,0,1.151-.5,1.907,1.907,0,0,0,.458-1.322,1.863,1.863,0,0,0-.458-1.316,1.481,1.481,0,0,0-1.151-.5,1.456,1.456,0,0,0-1.144.5,1.863,1.863,0,0,0-.458,1.316,1.908,1.908,0,0,0,.458,1.322,1.482,1.482,0,0,0,1.144.5Z" transform="translate(-458.565 -158.731)"/>
          <path id="Trazado_102213" data-name="Trazado 102213" d="M449.36,190.434h-2.881v2.283h2.543v.8h-2.543v3.1h-.909V189.62h3.783Z" transform="translate(-445.315 -164.569)"/>
          <path id="Trazado_102214" data-name="Trazado 102214" d="M454.384,193.78a1.512,1.512,0,0,1,.636-.636,1.806,1.806,0,0,1,.934-.252v.808a1.6,1.6,0,0,0-1.132.363,1.511,1.511,0,0,0-.394,1.157v2.6h-.858V192.94h.84Z" transform="translate(-448.229 -165.76)"/>
          <path id="Trazado_102215" data-name="Trazado 102215" d="M459.7,197.869a1.666,1.666,0,0,1-1.068-.336,1.175,1.175,0,0,1-.42-1,1.4,1.4,0,0,1,.134-.636,1.061,1.061,0,0,1,.395-.445,2.391,2.391,0,0,1,.573-.28,6.453,6.453,0,0,1,.744-.178l.788-.127c.292-.051.432-.2.432-.452a.845.845,0,0,0-.306-.725,1.208,1.208,0,0,0-.769-.235,1.311,1.311,0,0,0-.769.222.96.96,0,0,0-.363.687l-.769-.168a1.481,1.481,0,0,1,.636-1.043,2.251,2.251,0,0,1,1.329-.35,2.676,2.676,0,0,1,.706.089,1.792,1.792,0,0,1,.588.274,1.2,1.2,0,0,1,.426.521,1.966,1.966,0,0,1,.153.808v2.015a.827.827,0,0,0,.108.509.484.484,0,0,0,.388.133h.076v.636h-.426a.808.808,0,0,1-.923-.636h-.045a1.847,1.847,0,0,1-1.621.712Zm.2-.693a1.3,1.3,0,0,0,1.049-.477,1.908,1.908,0,0,0,.395-1.272l-1.272.252a1.736,1.736,0,0,0-.756.274.718.718,0,0,0-.007,1.068.966.966,0,0,0,.588.159Z" transform="translate(-449.916 -165.729)"/>
          <path id="Trazado_102216" data-name="Trazado 102216" d="M470.294,192.889h.84v4.635a2.481,2.481,0,0,1-4.75,1.081l.712-.35a1.614,1.614,0,0,0,1.634,1.132,1.411,1.411,0,0,0,1.144-.477,2.054,2.054,0,0,0,.394-1.335v-.9a1.735,1.735,0,0,1-.7.706,2.143,2.143,0,0,1-2.594-.426,2.435,2.435,0,0,1-.636-1.735,2.4,2.4,0,0,1,.636-1.73,2.117,2.117,0,0,1,1.589-.687,2.022,2.022,0,0,1,1.023.274,1.786,1.786,0,0,1,.687.725Zm-1.545,4.012a1.494,1.494,0,0,0,1.125-.5,1.729,1.729,0,0,0,.464-1.2,1.711,1.711,0,0,0-.464-1.2,1.456,1.456,0,0,0-1.125-.5,1.482,1.482,0,0,0-1.125.484,1.724,1.724,0,0,0-.464,1.215,1.7,1.7,0,0,0,.471,1.208,1.475,1.475,0,0,0,1.119.484Z" transform="translate(-452.878 -165.727)"/>
          <path id="Trazado_102217" data-name="Trazado 102217" d="M476.979,190.48a.553.553,0,0,1-.407-.168.566.566,0,0,1-.168-.413.553.553,0,0,1,.168-.407.588.588,0,0,1,.814,0,.554.554,0,0,1,.168.407.566.566,0,0,1-.168.413.553.553,0,0,1-.406.168Zm-.432,6.027v-4.883h.871v4.883Z" transform="translate(-456.543 -164.461)"/>
          <path id="Trazado_102218" data-name="Trazado 102218" d="M480.74,196.25v-7.63h.865v7.63Z" transform="translate(-458.123 -164.204)"/>
          <path id="Trazado_102219" data-name="Trazado 102219" d="M485.209,190.48a.553.553,0,0,1-.407-.168.566.566,0,0,1-.168-.413.553.553,0,0,1,.168-.407.588.588,0,0,1,.814,0,.553.553,0,0,1,.168.407.566.566,0,0,1-.168.413.553.553,0,0,1-.406.168Zm-.439,6.027v-4.883h.865v4.883Z" transform="translate(-459.541 -164.461)"/>
          <path id="Trazado_102220" data-name="Trazado 102220" d="M492.352,188.62h.871v7.63h-.833V195.3a1.8,1.8,0,0,1-.693.769,1.94,1.94,0,0,1-1.036.286,2.2,2.2,0,0,1-.884-.185,2.079,2.079,0,0,1-.725-.509,2.284,2.284,0,0,1-.5-.808,2.92,2.92,0,0,1-.178-1.043,2.588,2.588,0,0,1,.635-1.838,2.149,2.149,0,0,1,1.621-.706,1.945,1.945,0,0,1,1.023.28,1.818,1.818,0,0,1,.693.744Zm-1.539,6.994a1.481,1.481,0,0,0,1.138-.509,1.87,1.87,0,0,0,.458-1.272,1.831,1.831,0,0,0-.464-1.272,1.45,1.45,0,0,0-1.132-.515,1.488,1.488,0,0,0-1.138.5,2.054,2.054,0,0,0,0,2.6,1.488,1.488,0,0,0,1.138.464Z" transform="translate(-460.903 -164.204)"/>
          <path id="Trazado_102221" data-name="Trazado 102221" d="M499.656,197.869a1.666,1.666,0,0,1-1.068-.336,1.2,1.2,0,0,1-.42-1,1.4,1.4,0,0,1,.133-.636,1.106,1.106,0,0,1,.395-.445,2.387,2.387,0,0,1,.573-.28,6.439,6.439,0,0,1,.744-.178l.788-.127c.292-.051.432-.2.432-.452a.846.846,0,0,0-.3-.725,1.209,1.209,0,0,0-.769-.235,1.272,1.272,0,0,0-.763.222.923.923,0,0,0-.363.687l-.776-.168a1.481,1.481,0,0,1,.636-1.043,2.25,2.25,0,0,1,1.329-.349,2.674,2.674,0,0,1,.706.089,1.794,1.794,0,0,1,.588.274,1.2,1.2,0,0,1,.426.521,1.965,1.965,0,0,1,.153.808v2.015a.871.871,0,0,0,.108.509.484.484,0,0,0,.388.133h.076v.636h-.426a.808.808,0,0,1-.923-.636h-.084A1.869,1.869,0,0,1,499.656,197.869Zm.2-.693a1.3,1.3,0,0,0,1.049-.477,1.907,1.907,0,0,0,.4-1.272l-1.272.252a1.735,1.735,0,0,0-.756.274.717.717,0,0,0-.007,1.068.967.967,0,0,0,.588.159Z" transform="translate(-464.469 -165.729)"/>
          <path id="Trazado_102222" data-name="Trazado 102222" d="M510.352,188.62h.871v7.63h-.833V195.3a1.8,1.8,0,0,1-.693.769,1.94,1.94,0,0,1-1.036.286,2.2,2.2,0,0,1-.884-.185,2.08,2.08,0,0,1-.725-.509,2.284,2.284,0,0,1-.5-.808,2.918,2.918,0,0,1-.178-1.043,2.587,2.587,0,0,1,.635-1.838,2.149,2.149,0,0,1,1.621-.706,1.945,1.945,0,0,1,1.023.28,1.818,1.818,0,0,1,.693.744Zm-1.539,6.994a1.481,1.481,0,0,0,1.138-.509,1.87,1.87,0,0,0,.458-1.272,1.831,1.831,0,0,0-.464-1.272,1.45,1.45,0,0,0-1.132-.515,1.488,1.488,0,0,0-1.138.5,2.054,2.054,0,0,0,0,2.6,1.488,1.488,0,0,0,1.138.464Z" transform="translate(-467.459 -164.204)"/>
          <path id="Trazado_102223" data-name="Trazado 102223" d="M449.328,209.649h-2.849v2.289h2.543v.826h-2.543v2.283h2.842v.808H445.57v-6.994h3.751Z" transform="translate(-445.315 -171.575)"/>
          <path id="Trazado_102224" data-name="Trazado 102224" d="M458.8,212a1.57,1.57,0,0,1,1.138.42,1.532,1.532,0,0,1,.432,1.164v3.4h-.861V213.8a1.119,1.119,0,0,0-.274-.808.923.923,0,0,0-.68-.274.979.979,0,0,0-.744.311,1.31,1.31,0,0,0-.28.924v3.022h-.877v-3.141a1.151,1.151,0,0,0-.267-.827.923.923,0,0,0-.693-.286.96.96,0,0,0-.744.318,1.374,1.374,0,0,0-.286.947v2.988h-.856v-4.883h.858v.636a1.456,1.456,0,0,1,.559-.534A1.577,1.577,0,0,1,456,212a1.64,1.64,0,0,1,.833.21,1.271,1.271,0,0,1,.541.588,1.512,1.512,0,0,1,.588-.588A1.641,1.641,0,0,1,458.8,212Z" transform="translate(-448.316 -172.718)"/>
          <path id="Trazado_102225" data-name="Trazado 102225" d="M468.578,217.093a2.543,2.543,0,0,1-1.272-.3,2.188,2.188,0,0,1-.884-.884,2.729,2.729,0,0,1-.324-1.348,2.493,2.493,0,0,1,.693-1.847,2.6,2.6,0,0,1,3.535,0,2.8,2.8,0,0,1,0,3.687,2.4,2.4,0,0,1-1.749.7Zm0-.712a1.511,1.511,0,0,0,1.157-.5,1.908,1.908,0,0,0,.458-1.322,1.863,1.863,0,0,0-.458-1.316,1.5,1.5,0,0,0-1.157-.5,1.475,1.475,0,0,0-1.144.5,1.862,1.862,0,0,0-.452,1.316,1.907,1.907,0,0,0,.452,1.322,1.5,1.5,0,0,0,1.144.484Z" transform="translate(-452.789 -172.726)"/>
          <path id="Trazado_102226" data-name="Trazado 102226" d="M477.75,217.1a2.333,2.333,0,0,1-1.749-.7,2.5,2.5,0,0,1-.694-1.831,2.473,2.473,0,0,1,.694-1.831,2.543,2.543,0,0,1,3.179-.274,2.162,2.162,0,0,1,.826,1.183l-.808.133a1.462,1.462,0,0,0-1.437-1.03,1.418,1.418,0,0,0-1.125.5,2.162,2.162,0,0,0,0,2.626,1.418,1.418,0,0,0,1.125.5,1.463,1.463,0,0,0,1.437-1.03l.808.133a2.174,2.174,0,0,1-.826,1.189,2.391,2.391,0,0,1-1.427.426Z" transform="translate(-456.144 -172.729)"/>
          <path id="Trazado_102227" data-name="Trazado 102227" d="M485.015,209.678a.588.588,0,0,1-.588-.588.553.553,0,0,1,.168-.407.588.588,0,0,1,.413-.168.566.566,0,0,1,.4.168.553.553,0,0,1,.168.407.566.566,0,0,1-.168.413.547.547,0,0,1-.4.168Zm-.439,6.027v-4.883h.852v4.883Z" transform="translate(-459.466 -171.451)"/>
          <path id="Trazado_102228" data-name="Trazado 102228" d="M490.579,217.093a2.543,2.543,0,0,1-1.272-.3,2.173,2.173,0,0,1-.877-.884,2.733,2.733,0,0,1-.331-1.348,2.543,2.543,0,0,1,.693-1.847,2.6,2.6,0,0,1,3.535,0,2.8,2.8,0,0,1,0,3.687,2.384,2.384,0,0,1-1.749.693Zm0-.712a1.511,1.511,0,0,0,1.157-.5,1.907,1.907,0,0,0,.458-1.322,1.863,1.863,0,0,0-.458-1.316,1.5,1.5,0,0,0-1.157-.5,1.475,1.475,0,0,0-1.144.5,2.154,2.154,0,0,0,0,2.639,1.5,1.5,0,0,0,1.144.484Z" transform="translate(-460.802 -172.726)"/>
          <path id="Trazado_102229" data-name="Trazado 102229" d="M500.3,212a1.723,1.723,0,0,1,1.233.445,1.653,1.653,0,0,1,.458,1.272V217h-.858v-3.1a1.17,1.17,0,0,0-.3-.877,1.075,1.075,0,0,0-.769-.286,1.175,1.175,0,0,0-.865.336,1.343,1.343,0,0,0-.343,1V217H498v-4.883h.858v.636A1.628,1.628,0,0,1,500.3,212Z" transform="translate(-464.409 -172.718)"/>
          <path id="Trazado_102230" data-name="Trazado 102230" d="M507.8,217.1a1.666,1.666,0,0,1-1.068-.336,1.2,1.2,0,0,1-.42-1,1.4,1.4,0,0,1,.133-.636,1.106,1.106,0,0,1,.394-.445,2.323,2.323,0,0,1,.578-.28,5.085,5.085,0,0,1,.737-.168l.8-.133c.286-.051.426-.2.426-.452a.846.846,0,0,0-.3-.725,1.208,1.208,0,0,0-.769-.235,1.272,1.272,0,0,0-.763.222.923.923,0,0,0-.363.687l-.776-.159a1.481,1.481,0,0,1,.635-1.049,2.25,2.25,0,0,1,1.329-.35,2.764,2.764,0,0,1,.712.089,1.908,1.908,0,0,1,.588.274,1.233,1.233,0,0,1,.42.521,1.965,1.965,0,0,1,.153.808v2.015a.871.871,0,0,0,.108.509.484.484,0,0,0,.388.133h.076v.636h-.426a.808.808,0,0,1-.924-.636h-.038a1.869,1.869,0,0,1-1.628.712Zm.2-.693a1.271,1.271,0,0,0,1.049-.477,1.908,1.908,0,0,0,.4-1.272l-1.272.252a1.736,1.736,0,0,0-.763.274.717.717,0,0,0-.007,1.068.979.979,0,0,0,.616.14Z" transform="translate(-467.434 -172.733)"/>
          <path id="Trazado_102231" data-name="Trazado 102231" d="M515.26,215.45v-7.63h.873v7.63Z" transform="translate(-470.694 -171.197)"/>
          <path id="Trazado_102232" data-name="Trazado 102232" d="M449.36,228.827h-2.881v2.279h2.543v.8h-2.543v3.084h-.909V228h3.783Z" transform="translate(-445.315 -178.546)"/>
          <path id="Trazado_102233" data-name="Trazado 102233" d="M454.384,232.18a1.512,1.512,0,0,1,.636-.636,1.806,1.806,0,0,1,.934-.252v.808a1.6,1.6,0,0,0-1.132.363,1.511,1.511,0,0,0-.394,1.157V236.2h-.858v-4.883h.84Z" transform="translate(-448.229 -179.745)"/>
          <path id="Trazado_102234" data-name="Trazado 102234" d="M461.867,231.325h.858v4.87h-.82v-.636a1.52,1.52,0,0,1-.6.547,1.847,1.847,0,0,1-.852.191,1.71,1.71,0,0,1-1.233-.439,1.666,1.666,0,0,1-.458-1.272V231.3h.858v3.1a1.145,1.145,0,0,0,.306.871,1.03,1.03,0,0,0,.763.292,1.2,1.2,0,0,0,.871-.336,1.373,1.373,0,0,0,.336-1Z" transform="translate(-450.116 -179.748)"/>
          <path id="Trazado_102235" data-name="Trazado 102235" d="M469.062,236.262a2.308,2.308,0,0,1-1.316-.35,1.469,1.469,0,0,1-.636-1.007l.751-.216a1.082,1.082,0,0,0,.4.68,1.316,1.316,0,0,0,.8.242,1.792,1.792,0,0,0,.47-.064.814.814,0,0,0,.363-.242.693.693,0,0,0,.146-.445.681.681,0,0,0-.045-.2.744.744,0,0,0-.076-.159.408.408,0,0,0-.14-.134,1.455,1.455,0,0,0-.2-.121,1.321,1.321,0,0,0-.217-.089l-.242-.084-.274-.076-.28-.084c-.2-.064-.375-.121-.509-.178a2.328,2.328,0,0,1-.413-.235.947.947,0,0,1-.318-.388,1.309,1.309,0,0,1-.108-.547,1.271,1.271,0,0,1,.242-.783,1.348,1.348,0,0,1,.636-.458,2.441,2.441,0,0,1,.865-.14,2.123,2.123,0,0,1,1.189.318,1.361,1.361,0,0,1,.6.954l-.706.178a.916.916,0,0,0-.375-.636,1.157,1.157,0,0,0-.7-.21,1.215,1.215,0,0,0-.636.168.578.578,0,0,0-.274.528.539.539,0,0,0,.07.267,1.044,1.044,0,0,0,.146.191.8.8,0,0,0,.274.146,2.3,2.3,0,0,0,.286.108l.356.089h.076l.47.133a3.4,3.4,0,0,1,.42.178,1.546,1.546,0,0,1,.381.267,1.333,1.333,0,0,1,.336.9,1.468,1.468,0,0,1-.146.636,1.086,1.086,0,0,1-.4.445,1.743,1.743,0,0,1-.566.252,2.636,2.636,0,0,1-.706.159Z" transform="translate(-453.16 -179.706)"/>
          <path id="Trazado_102236" data-name="Trazado 102236" d="M476.283,235.271a1.272,1.272,0,0,1-.954-.35,1.316,1.316,0,0,1-.35-.973v-2.874H474v-.685h.369a.719.719,0,0,0,.541-.168.858.858,0,0,0,.153-.573v-.888h.8v1.629h1.125v.687h-1.141v2.785a.744.744,0,0,0,.185.534.636.636,0,0,0,.49.191h.452v.687Z" transform="translate(-455.669 -178.823)"/>
          <path id="Trazado_102237" data-name="Trazado 102237" d="M481.46,232.18a1.488,1.488,0,0,1,.6-.636,1.847,1.847,0,0,1,.941-.252v.808a1.621,1.621,0,0,0-1.138.363,1.511,1.511,0,0,0-.388,1.157V236.2h-.858v-4.883h.84Z" transform="translate(-458.079 -179.745)"/>
          <path id="Trazado_102238" data-name="Trazado 102238" d="M486.776,236.273a1.666,1.666,0,0,1-1.068-.336,1.2,1.2,0,0,1-.42-1,1.45,1.45,0,0,1,.133-.636,1.106,1.106,0,0,1,.4-.439,2.174,2.174,0,0,1,.573-.28,5.856,5.856,0,0,1,.744-.178l.788-.127c.286-.051.432-.2.432-.452a.846.846,0,0,0-.3-.725,1.227,1.227,0,0,0-.776-.235,1.272,1.272,0,0,0-.763.222.96.96,0,0,0-.363.687l-.776-.168a1.525,1.525,0,0,1,.636-1.043,2.289,2.289,0,0,1,1.335-.35,2.747,2.747,0,0,1,.706.089,1.792,1.792,0,0,1,.588.274,1.233,1.233,0,0,1,.42.521,1.966,1.966,0,0,1,.153.808V234.9a.82.82,0,0,0,.114.509.47.47,0,0,0,.381.133h.084v.636h-.426c-.528,0-.84-.217-.929-.636H488.4a1.869,1.869,0,0,1-1.628.735Zm.2-.693a1.3,1.3,0,0,0,1.049-.477,1.959,1.959,0,0,0,.394-1.272l-1.272.252a1.7,1.7,0,0,0-.756.274.712.712,0,0,0,0,1.068.986.986,0,0,0,.617.159Z" transform="translate(-459.779 -179.717)"/>
          <path id="Trazado_102239" data-name="Trazado 102239" d="M495.883,236.256a2.334,2.334,0,0,1-1.749-.7,2.771,2.771,0,0,1,0-3.662,2.34,2.34,0,0,1,1.755-.706,2.365,2.365,0,0,1,1.411.432,2.117,2.117,0,0,1,.82,1.183l-.8.133a1.494,1.494,0,0,0-.553-.763,1.511,1.511,0,0,0-.884-.267,1.443,1.443,0,0,0-1.132.5,2.162,2.162,0,0,0,0,2.626,1.443,1.443,0,0,0,1.132.5,1.511,1.511,0,0,0,.884-.267,1.494,1.494,0,0,0,.553-.763l.8.133a2.143,2.143,0,0,1-.826,1.189A2.358,2.358,0,0,1,495.883,236.256Z" transform="translate(-462.75 -179.707)"/>
          <path id="Trazado_102240" data-name="Trazado 102240" d="M503.139,228.88a.554.554,0,0,1-.407-.168.566.566,0,0,1-.168-.413.553.553,0,0,1,.168-.407.588.588,0,0,1,.814,0,.553.553,0,0,1,.168.407.566.566,0,0,1-.168.413.553.553,0,0,1-.406.168Zm-.439,6.027v-4.883h.865v4.87Z" transform="translate(-466.07 -178.446)"/>
          <path id="Trazado_102241" data-name="Trazado 102241" d="M508.708,234.923a2.543,2.543,0,0,1-1.272-.306,2.183,2.183,0,0,1-.884-.884,2.728,2.728,0,0,1-.324-1.348,2.493,2.493,0,0,1,.693-1.847,2.6,2.6,0,0,1,3.536,0,2.543,2.543,0,0,1,.687,1.847,2.486,2.486,0,0,1-.694,1.847A2.372,2.372,0,0,1,508.708,234.923Zm0-.712a1.526,1.526,0,0,0,1.157-.5,1.908,1.908,0,0,0,.458-1.322,1.863,1.863,0,0,0-.458-1.316,1.5,1.5,0,0,0-1.157-.5,1.475,1.475,0,0,0-1.144.5,1.863,1.863,0,0,0-.458,1.316,1.908,1.908,0,0,0,.458,1.322,1.5,1.5,0,0,0,1.138.5Zm-.324-5.087,1.272-1.615.458.331L509,229.112Z" transform="translate(-467.405 -178.368)"/>
          <path id="Trazado_102242" data-name="Trazado 102242" d="M518.4,231.187a1.71,1.71,0,0,1,1.227.445,1.653,1.653,0,0,1,.458,1.272v3.249H519.2v-3.1a1.163,1.163,0,0,0-.3-.871,1.049,1.049,0,0,0-.763-.286,1.2,1.2,0,0,0-.871.336,1.392,1.392,0,0,0-.343,1v2.918h-.856v-4.883h.858v.636a1.628,1.628,0,0,1,1.475-.716Z" transform="translate(-470.99 -179.705)"/>
        </g>
        <g id="Grupo_57678" data-name="Grupo 57678" transform="translate(203.545 74.12)">
          <path id="Trazado_102243" data-name="Trazado 102243" d="M323.118,117.108a2.168,2.168,0,0,1,1.653.636,2.346,2.346,0,0,1,.635,1.653,2.232,2.232,0,0,1-.635,1.641,2.183,2.183,0,0,1-1.653.636h-1.5v2.543H320.13v-7.109Zm-.252,3.358a1.068,1.068,0,0,0,.82-.28,1.049,1.049,0,0,0,.274-.776,1.068,1.068,0,0,0-.274-.769,1.091,1.091,0,0,0-.82-.286h-1.272v2.111Z" transform="translate(-320.13 -116.768)"/>
          <path id="Trazado_102244" data-name="Trazado 102244" d="M331.947,125.537a3.274,3.274,0,0,1-1.443-.311,2.351,2.351,0,0,1-.992-.924,2.707,2.707,0,0,1-.363-1.427,2.543,2.543,0,0,1,.776-1.908,3.237,3.237,0,0,1,4.05,0,2.824,2.824,0,0,1,0,3.885,2.874,2.874,0,0,1-2.028.685Zm0-1.138a1.316,1.316,0,0,0,1.007-.42,1.552,1.552,0,0,0,.381-1.1,1.583,1.583,0,0,0-.381-1.107,1.335,1.335,0,0,0-1.007-.413,1.271,1.271,0,0,0-.979.42,1.774,1.774,0,0,0,0,2.2,1.272,1.272,0,0,0,.966.42Z" transform="translate(-323.415 -117.916)"/>
          <path id="Trazado_102245" data-name="Trazado 102245" d="M341.189,125.519a2.906,2.906,0,0,1-1.494-.356,1.526,1.526,0,0,1-.725-1.068l1.2-.336a.96.96,0,0,0,1.023.763,1.007,1.007,0,0,0,.521-.121.4.4,0,0,0,.2-.395.439.439,0,0,0-.084-.261.789.789,0,0,0-.26-.191l-.35-.133-.458-.133a4.737,4.737,0,0,1-.47-.146,3.02,3.02,0,0,1-.452-.191,1.7,1.7,0,0,1-.369-.26,1.06,1.06,0,0,1-.28-.4,1.469,1.469,0,0,1-.1-.547,1.31,1.31,0,0,1,.553-1.144,2.505,2.505,0,0,1,1.45-.388,2.543,2.543,0,0,1,1.335.331,1.475,1.475,0,0,1,.687,1.023l-1.112.252a.858.858,0,0,0-.9-.636.979.979,0,0,0-.5.114.375.375,0,0,0-.2.343.405.405,0,0,0,0,.153.305.305,0,0,0,.1.121l.146.1a.944.944,0,0,0,.2.084,1.835,1.835,0,0,0,.222.064l.26.07.267.07c.185.051.343.1.484.146a3.357,3.357,0,0,1,.439.21,1.693,1.693,0,0,1,.381.3,1.456,1.456,0,0,1,.252.426,1.576,1.576,0,0,1,.1.566,1.52,1.52,0,0,1-.168.737,1.271,1.271,0,0,1-.47.5,2.256,2.256,0,0,1-.636.267A3.459,3.459,0,0,1,341.189,125.519Z" transform="translate(-326.991 -117.898)"/>
          <path id="Trazado_102246" data-name="Trazado 102246" d="M348.052,118.226a.827.827,0,1,1,.757-.824.819.819,0,0,1-.757.824Zm-.731,5.869v-5.087h1.443v5.087Z" transform="translate(-329.996 -116.576)"/>
          <path id="Trazado_102247" data-name="Trazado 102247" d="M353.529,124.533a1.532,1.532,0,0,1-1.157-.413,1.628,1.628,0,0,1-.407-1.183v-2.41h-1.007v-1.1h.324a.84.84,0,0,0,.636-.21,1.1,1.1,0,0,0,.2-.763v-.672h1.272v1.646h1.055v1.1h-1.055v2.257c0,.445.2.636.588.636h.464v1.091Z" transform="translate(-331.357 -117.014)"/>
          <path id="Trazado_102248" data-name="Trazado 102248" d="M358.865,118.226a.8.8,0,0,1-.588-.242.776.776,0,0,1-.242-.588.8.8,0,0,1,.242-.578.82.82,0,0,1,.588-.242.808.808,0,0,1,.579.242.82.82,0,0,1,0,1.164.808.808,0,0,1-.578.244Zm-.731,5.869v-5.086h1.443v5.086Z" transform="translate(-333.935 -116.576)"/>
          <path id="Trazado_102249" data-name="Trazado 102249" d="M365.662,120.37h1.52L365,125.456h-1.269l-2.149-5.086h1.539l1.272,3.491Z" transform="translate(-335.226 -117.957)"/>
          <path id="Trazado_102250" data-name="Trazado 102250" d="M373.4,125.536a3.287,3.287,0,0,1-1.45-.311,2.3,2.3,0,0,1-.986-.924,2.709,2.709,0,0,1-.363-1.427,2.486,2.486,0,0,1,.776-1.908,3.224,3.224,0,0,1,4.044,0,2.823,2.823,0,0,1,0,3.885A2.855,2.855,0,0,1,373.4,125.536Zm0-1.138a1.271,1.271,0,0,0,1.008-.42,1.532,1.532,0,0,0,.388-1.1,1.557,1.557,0,0,0-.388-1.107,1.316,1.316,0,0,0-1.008-.407,1.272,1.272,0,0,0-.979.42,1.774,1.774,0,0,0,0,2.2,1.272,1.272,0,0,0,.979.415Z" transform="translate(-338.509 -117.916)"/>
        </g>
        <g id="Grupo_57679" data-name="Grupo 57679" transform="translate(283.118 74.123)">
          <path id="Trazado_102251" data-name="Trazado 102251" d="M450.188,117.11h1.482v7.178h-1.723l-3.179-5.131v5.131H445.28V117.11h1.73l3.179,5.086Z" transform="translate(-445.28 -116.773)"/>
          <path id="Trazado_102252" data-name="Trazado 102252" d="M462.494,122.781v.343H458.68a1.31,1.31,0,0,0,.407.934,1.386,1.386,0,0,0,1.571.146,1.112,1.112,0,0,0,.432-.515l1.31.191a2.267,2.267,0,0,1-.9,1.2,2.687,2.687,0,0,1-1.507.426,2.759,2.759,0,0,1-1.99-.706,2.543,2.543,0,0,1-.738-1.945,2.6,2.6,0,0,1,.738-1.952,2.687,2.687,0,0,1,1.945-.712,2.333,2.333,0,0,1,2.543,2.588Zm-2.543-1.577a1.132,1.132,0,0,0-1.24.986h2.347a1.075,1.075,0,0,0-.356-.731,1.126,1.126,0,0,0-.725-.252Z" transform="translate(-449.644 -117.892)"/>
          <path id="Trazado_102253" data-name="Trazado 102253" d="M470.461,120.3h1.361v4.724a3.815,3.815,0,0,1-.191,1.272,2.054,2.054,0,0,1-.553.871,2.322,2.322,0,0,1-.852.489,3.509,3.509,0,0,1-1.112.159,2.519,2.519,0,0,1-2.632-1.583l1.189-.509a1.723,1.723,0,0,0,.547.744,1.405,1.405,0,0,0,.84.235c.884,0,1.329-.521,1.329-1.577v-.61a1.608,1.608,0,0,1-.636.5,2.155,2.155,0,0,1-.909.191,2.276,2.276,0,0,1-.9-.178,2.384,2.384,0,0,1-.744-.509,2.42,2.42,0,0,1-.5-.8,3.007,3.007,0,0,1,0-2.073,2.281,2.281,0,0,1,.509-.788,2.122,2.122,0,0,1,.744-.5,2.267,2.267,0,0,1,.9-.185,2.1,2.1,0,0,1,.947.216,1.468,1.468,0,0,1,.636.559Zm-2.194,3.376a1.234,1.234,0,0,0,.934.395,1.271,1.271,0,0,0,.941-.395,1.427,1.427,0,0,0,0-1.945,1.329,1.329,0,0,0-1.908,0,1.361,1.361,0,0,0-.375.979,1.335,1.335,0,0,0,.407.966Z" transform="translate(-453.001 -117.891)"/>
          <path id="Trazado_102254" data-name="Trazado 102254" d="M481.189,124.045a4.773,4.773,0,0,0,.121,1.272v.14h-1.335l-.114-.553a1.647,1.647,0,0,1-.712.489,2.7,2.7,0,0,1-.929.168,2.333,2.333,0,0,1-.477-.044,1.7,1.7,0,0,1-.426-.153,1.274,1.274,0,0,1-.356-.267,1.081,1.081,0,0,1-.235-.4,1.672,1.672,0,0,1,0-1.112,1.4,1.4,0,0,1,.252-.413,1.584,1.584,0,0,1,.407-.306,3.184,3.184,0,0,1,.5-.216,5.961,5.961,0,0,1,.635-.159l.84-.191a.833.833,0,0,0,.375-.159.317.317,0,0,0,.114-.252.541.541,0,0,0-.252-.5,1.272,1.272,0,0,0-.635-.146.877.877,0,0,0-1,.782L476.7,121.8a1.717,1.717,0,0,1,.737-1.17,2.956,2.956,0,0,1,1.6-.375q2.149,0,2.149,1.847Zm-2.543.521a1.151,1.151,0,0,0,.884-.375,1.545,1.545,0,0,0,.343-1.091l-1.214.343a1.361,1.361,0,0,0-.509.21.432.432,0,0,0-.178.369.471.471,0,0,0,.191.4.782.782,0,0,0,.509.121Z" transform="translate(-456.697 -117.915)"/>
          <path id="Trazado_102255" data-name="Trazado 102255" d="M487.4,124.533a1.52,1.52,0,0,1-1.151-.413,1.6,1.6,0,0,1-.407-1.183v-2.41h-1.008v-1.1h.324a.858.858,0,0,0,.636-.21,1.132,1.132,0,0,0,.2-.763v-.672h1.272v1.646h1.049v1.1h-1.03v2.257c0,.445.2.636.588.636h.458v1.091Z" transform="translate(-459.687 -117.017)"/>
          <path id="Trazado_102256" data-name="Trazado 102256" d="M492.766,118.226a.814.814,0,0,1-.588-.242.8.8,0,0,1-.242-.588.782.782,0,0,1,.252-.578.82.82,0,1,1,1.157,1.164.8.8,0,0,1-.579.244Zm-.725,5.869v-5.086h1.437V124.1Z" transform="translate(-462.272 -116.58)"/>
          <path id="Trazado_102257" data-name="Trazado 102257" d="M499.582,120.37h1.511l-2.174,5.086h-1.269L495.5,120.37h1.507l1.272,3.491Z" transform="translate(-463.569 -117.96)"/>
          <path id="Trazado_102258" data-name="Trazado 102258" d="M507.3,125.537a3.274,3.274,0,0,1-1.443-.311,2.351,2.351,0,0,1-.991-.924,2.709,2.709,0,0,1-.363-1.427,2.544,2.544,0,0,1,.776-1.908,3.237,3.237,0,0,1,4.05,0,2.823,2.823,0,0,1,0,3.885,2.874,2.874,0,0,1-2.028.68Zm0-1.138a1.316,1.316,0,0,0,1.008-.42,1.552,1.552,0,0,0,.381-1.1,1.584,1.584,0,0,0-.381-1.107,1.335,1.335,0,0,0-1.007-.413,1.272,1.272,0,0,0-.986.42,1.8,1.8,0,0,0,0,2.2,1.272,1.272,0,0,0,.973.42Z" transform="translate(-466.846 -117.919)"/>
        </g>
      </g>
    </g>
    <path id="Trazado_102074" data-name="Trazado 102074" d="M377.171,171.525l1.272-1.615.458.331-1.112,1.272Z" transform="translate(-10412.4 466.276)"/>
  </g>
</svg>
