<svg xmlns="http://www.w3.org/2000/svg" xmlns:xlink="http://www.w3.org/1999/xlink" width="1147.268" height="953.377" viewBox="0 0 1147.268 953.377">
  <defs>
    <clipPath id="clip-path">
      <rect id="Rectángulo_9160" data-name="Rectángulo 9160" width="75.332" height="83.8" transform="translate(0 0)" fill="none"/>
    </clipPath>
  </defs>
  <g id="Grupo_66936" data-name="Grupo 66936" transform="translate(-180 -8360.469)">
    <text id="Cálidos" transform="translate(181.086 8670.081)" fill="#12263f" font-size="18" font-family="Roboto-Black, Roboto" font-weight="800"><tspan x="0" y="19">Cálidos</tspan></text>
    <text id="Fríos" transform="translate(180.543 8948.081)" fill="#12263f" font-size="18" font-family="Roboto-Black, Roboto" font-weight="800"><tspan x="0" y="19">Fríos</tspan></text>
    <text id="Neutros" transform="translate(180.543 9154.693)" fill="#12263f" font-size="18" font-family="Roboto-Black, Roboto" font-weight="800"><tspan x="0" y="19">Neutros</tspan></text>
    <line id="Línea_169" data-name="Línea 169" x2="218.957" transform="translate(180.543 8707.566)" fill="none" stroke="#afafaf" stroke-width="2" stroke-dasharray="5"/>
    <line id="Línea_170" data-name="Línea 170" x2="218.5" transform="translate(180 8433.566)" fill="none" stroke="#afafaf" stroke-width="2" stroke-dasharray="5"/>
    <line id="Línea_171" data-name="Línea 171" x2="218.5" transform="translate(180 8983.394)" fill="none" stroke="#afafaf" stroke-width="2" stroke-dasharray="5"/>
    <line id="Línea_172" data-name="Línea 172" x2="216.5" transform="translate(180 9188.919)" fill="none" stroke="#afafaf" stroke-width="2" stroke-dasharray="5"/>
    <g id="Grupo_66893" data-name="Grupo 66893" transform="translate(180 8365.617)">
      <text id="Dorado_Opulencia" data-name="Dorado
Opulencia" transform="translate(13.582 -0.001)" fill="#12263f" font-size="18" font-family="Roboto-Black, Roboto" font-weight="800"><tspan x="0" y="19">Dorado</tspan><tspan font-size="16" font-family="Roboto-Regular, Roboto" font-weight="400"><tspan x="0" y="43">Opulencia</tspan></tspan></text>
      <rect id="Rectángulo_5459" data-name="Rectángulo 5459" width="4.346" height="16.298" transform="translate(0 4.889)" fill="#d5b64c"/>
    </g>
    <g id="Grupo_66894" data-name="Grupo 66894" transform="translate(-92.732 803.182)">
      <g id="Grupo_66769" data-name="Grupo 66769" transform="translate(0 47.324)">
        <g id="Grupo_66748" data-name="Grupo 66748" transform="translate(491 7774)">
          <rect id="Rectángulo_9159" data-name="Rectángulo 9159" width="929" height="124.346" transform="translate(0 564.994)" fill="#e5e5e5"/>
        </g>
        <g id="Grupo_66750" data-name="Grupo 66750" transform="translate(918 8356.693)">
          <g id="Grupo_66749" data-name="Grupo 66749" clip-path="url(#clip-path)">
            <path id="Trazado_138099" data-name="Trazado 138099" d="M25.792,72.678C30.746,74.919,32.918,83.8,32.918,83.8l36.258-.1a35.537,35.537,0,0,0-2.312-4.085,29.931,29.931,0,0,1-1.715-4.34,49.854,49.854,0,0,1-1.757-8.8,25.98,25.98,0,0,1,2-13.438C67.02,49.324,69.848,46.382,72,42.982a20.859,20.859,0,0,0,3.319-11.126,42.01,42.01,0,0,0-1.456-11.848A22.388,22.388,0,0,0,65.73,8.334C58.562,2.716,51.254-.425,42,.046A95.169,95.169,0,0,0,28.23,2.023c-4.939.994-10.168,2.841-13.712,6.583A26.129,26.129,0,0,0,9.03,17.564a41.515,41.515,0,0,0-1.376,5.057A44.629,44.629,0,0,1,5.518,28.09a3.562,3.562,0,0,0-.311,1.721c.277,2,3.277,2.859,3.3,4.921A2.868,2.868,0,0,1,8.1,36.02,56.55,56.55,0,0,1,1.665,46.494c-.6.73-1.8,2.167-1.653,3.2.107.733.985,1.341,1.527,1.744,1.156.858,3.51,1.445,3.8,2.994a3.9,3.9,0,0,1-.273,2.338c-.8,1.686-1.685,2.585-1.056,3.114s2.312,1.8,2.312,1.8-1.6,2.043-.714,2.67c1.1.78,2.5,1.14,2.87,2.6a8.945,8.945,0,0,1-.341,3.439,7.058,7.058,0,0,0,.416,3.215A3.94,3.94,0,0,0,13.19,76.48a121.27,121.27,0,0,0,12.6-3.8" fill="#35495e"/>
            <path id="Trazado_138100" data-name="Trazado 138100" d="M56.065,61.336A4.394,4.394,0,0,1,52,58.607c-.393-.952-1.8-2.312-4.42-4.278-4.242-3.179-5.322-8.864-2.89-15.21l.867-2.241,24.163,4.447-4.731,4.739h-.019c-2.136,2.172-4.093,4.69-4.093,7.4a15.339,15.339,0,0,1-.756,4.976,4.235,4.235,0,0,1-4.046,2.9Z" fill="#2c3e50"/>
            <path id="Trazado_138101" data-name="Trazado 138101" d="M57.695,47.477a15.764,15.764,0,0,1-5.086-.831A17.121,17.121,0,0,1,49.276,45.1a36.978,36.978,0,0,1-6.949-5.728,8.2,8.2,0,0,0-3.849-2.2,12.9,12.9,0,0,0-2.322-.322c-.289-.016-.613-.023-.938-.023a73.135,73.135,0,0,0-9.59,1.011l-1.967.289a19,19,0,0,1-2.6.188c-.273,0-.539,0-.8-.02a11.577,11.577,0,0,1-3.741-.714,9.778,9.778,0,0,1-6.254-8.275l-.032-.2a14.959,14.959,0,0,1-.092-3.31,14.738,14.738,0,0,1,.315-2.466c.038-.165.6-2.566,1.043-4.023.1-.325.169-.542.237-.73.348-.923.707-1.757,1.075-2.51a22.683,22.683,0,0,1,3.807-5.491,16.965,16.965,0,0,1,5.515-3.7A27.153,27.153,0,0,1,25.292,5.72c1.134-.34,2.312-.634,3.514-.874,1.337-.276,2.737-.542,4.153-.792.88-.163,1.8-.312,2.711-.446,1.065-.163,2.13-.3,3.209-.418,1.043-.11,2.052-.2,3.062-.247.062,0,.144-.012.233-.016.565-.023,1.121-.037,1.665-.037.433,0,.854.016,1.264.03a26.39,26.39,0,0,1,3.2.306,28.247,28.247,0,0,1,8.986,3.013c.761.39,1.5.812,2.232,1.279A40.742,40.742,0,0,1,62.906,9.83c.344.253.682.513,1.035.79a19,19,0,0,1,1.865,1.618,18.526,18.526,0,0,1,5.275,8.568,35.514,35.514,0,0,1,1.158,6.37c.1,1.117.159,2.136.173,3.128.022.458.022.964.022,1.484a15.471,15.471,0,0,1-.12,1.8,15.58,15.58,0,0,1-.7,3.439,18.12,18.12,0,0,1-2.037,4.411,13.64,13.64,0,0,1-6.622,5.288,20,20,0,0,1-5.261.753Z" fill="#2c3e50"/>
            <path id="Trazado_138102" data-name="Trazado 138102" d="M47.389,40.154c-.954,2.485-2.572,8.5,1.922,11.863,3.364,2.523,4.768,4.067,5.358,5.491a1.445,1.445,0,0,0,2.712,0,12.369,12.369,0,0,0,.6-4.046c0-4.161,3.005-7.586,5.765-10.259.014,0,.029-.014.043-.029Z" fill="#df4d60"/>
            <path id="Trazado_138103" data-name="Trazado 138103" d="M69.526,30.343c-.014-.983-.072-1.951-.159-2.89A32.726,32.726,0,0,0,68.3,21.587a15.646,15.646,0,0,0-4.534-7.307,16.74,16.74,0,0,0-1.6-1.387c-.332-.26-.65-.506-.983-.751C60.1,11.333,59.028,10.6,57.973,9.96c-.679-.433-1.344-.809-2.023-1.156A25.39,25.39,0,0,0,47.87,6.08,23.288,23.288,0,0,0,44.995,5.8c-.376-.011-.769-.025-1.156-.025-.506,0-1.026.014-1.546.043-.072,0-.144.014-.217.014-.954.043-1.907.13-2.875.231-1.04.116-2.066.246-3.107.4-.881.13-1.763.275-2.63.433-1.387.246-2.76.506-4.089.78-1.156.231-2.24.506-3.251.809a24.579,24.579,0,0,0-2.818,1.026,14.06,14.06,0,0,0-4.595,3.049A19.642,19.642,0,0,0,15.4,17.333c-.347.708-.665,1.459-.954,2.225-.058.159-.116.347-.188.578-.419,1.387-.983,3.786-.983,3.786a12.466,12.466,0,0,0-.26,2.1,11.965,11.965,0,0,0,.1,2.861V28.9a6.945,6.945,0,0,0,4.409,5.983,8.8,8.8,0,0,0,2.875.535,15.221,15.221,0,0,0,2.846-.144,76.251,76.251,0,0,1,13.062-1.3,15.87,15.87,0,0,1,2.861.4A11.045,11.045,0,0,1,44.343,37.3a34.822,34.822,0,0,0,6.415,5.317A13.759,13.759,0,0,0,62.175,43.94a10.864,10.864,0,0,0,4.951-4.046,15.277,15.277,0,0,0,1.734-3.771,12.709,12.709,0,0,0,.578-2.875,12.068,12.068,0,0,0,.1-1.459c.006-.492.006-.969-.012-1.446" fill="#fb7b76"/>
            <path id="Trazado_138104" data-name="Trazado 138104" d="M20.417,24.564A4.348,4.348,0,0,1,16.082,28.9H13.12v-.014a11.965,11.965,0,0,1-.1-2.861.718.718,0,0,1,.173-.014h2.89a1.444,1.444,0,0,0,1.443-1.446,1.445,1.445,0,0,1,2.89,0v0Z" fill="#ff5364"/>
            <path id="Trazado_138105" data-name="Trazado 138105" d="M20.417,33.233V35.27a.5.5,0,0,1-.014.144,8.8,8.8,0,0,1-2.876-.534V33.233a1.445,1.445,0,1,1,2.89,0" fill="#ff5364"/>
            <path id="Trazado_138106" data-name="Trazado 138106" d="M29.086,30.343H27.641a4.335,4.335,0,0,1-4.335-4.334V24.564a4.335,4.335,0,0,1,4.335-4.335h1.445a1.445,1.445,0,0,1,0,2.89H27.641A1.445,1.445,0,0,0,26.2,24.564v1.445a1.445,1.445,0,0,0,1.445,1.445h1.445a1.445,1.445,0,0,1,0,2.89h0Z" fill="#ff5364"/>
            <path id="Trazado_138107" data-name="Trazado 138107" d="M21.861,18.784a1.445,1.445,0,0,1-1.44,1.445H14.752a1.415,1.415,0,0,1-.491-.087c.072-.231.13-.419.188-.578.289-.766.607-1.517.954-2.225h5.018a1.445,1.445,0,0,1,1.44,1.445" fill="#ff5364"/>
            <path id="Trazado_138108" data-name="Trazado 138108" d="M29.086,15.894a1.445,1.445,0,0,1-1.445,1.445A4.348,4.348,0,0,1,23.306,13V9.522A24.579,24.579,0,0,1,26.124,8.5a1.549,1.549,0,0,1,.072.448V13a1.445,1.445,0,0,0,1.445,1.445,1.445,1.445,0,0,1,1.445,1.445" fill="#ff5364"/>
            <path id="Trazado_138109" data-name="Trazado 138109" d="M34.866,27.453H33.421a1.445,1.445,0,0,1,0-2.89h1.445a1.445,1.445,0,0,0,1.445-1.445v-2.89a1.445,1.445,0,1,1,2.89,0v2.892a4.335,4.335,0,0,1-4.335,4.335" fill="#ff5364"/>
            <path id="Trazado_138110" data-name="Trazado 138110" d="M42.09,20.228a1.445,1.445,0,0,1-1.445-1.445V17.339A1.445,1.445,0,0,0,39.2,15.894H36.31a1.445,1.445,0,0,0-1.445,1.445v1.445a1.445,1.445,0,0,1-2.89,0V17.339A4.335,4.335,0,0,1,36.31,13H39.2a4.335,4.335,0,0,1,4.335,4.335v1.445a1.445,1.445,0,0,1-1.446,1.444" fill="#ff5364"/>
            <path id="Trazado_138111" data-name="Trazado 138111" d="M36.311,7.224V8.669a1.445,1.445,0,1,1-2.89,0V7.224a1.135,1.135,0,0,1,.043-.318c.867-.159,1.748-.3,2.63-.433a1.343,1.343,0,0,1,.217.751" fill="#ff5364"/>
            <path id="Trazado_138112" data-name="Trazado 138112" d="M42.09,5.925V8.67a1.445,1.445,0,1,1-2.89,0V6.07c.968-.1,1.922-.188,2.875-.231a.182.182,0,0,1,.015.086" fill="#ff5364"/>
            <path id="Trazado_138113" data-name="Trazado 138113" d="M50.76,13.005a1.445,1.445,0,0,1-1.445,1.445h-2.89a1.445,1.445,0,0,1-1.445-1.445V5.91a.243.243,0,0,1,.014-.1,23.288,23.288,0,0,1,2.875.275V11.56h1.445A1.445,1.445,0,0,1,50.76,13Z" fill="#ff5364"/>
            <path id="Trazado_138114" data-name="Trazado 138114" d="M39.2,31.788V34.1a1.594,1.594,0,0,1-.029.275,15.87,15.87,0,0,0-2.861-.4V31.788a1.445,1.445,0,0,1,2.89,0" fill="#ff5364"/>
            <path id="Trazado_138115" data-name="Trazado 138115" d="M47.87,31.787H46.425a4.335,4.335,0,0,1-4.335-4.334V26.008a1.445,1.445,0,0,1,2.89,0v1.445A1.445,1.445,0,0,0,46.425,28.9H47.87a1.445,1.445,0,1,1,0,2.89h0Z" fill="#ff5364"/>
            <path id="Trazado_138116" data-name="Trazado 138116" d="M53.65,26.008H52.205a4.335,4.335,0,0,1,0-8.669H53.65a1.445,1.445,0,1,1,0,2.89H52.205a1.445,1.445,0,1,0,0,2.89H53.65a1.445,1.445,0,0,1,0,2.89h0Z" fill="#ff5364"/>
            <path id="Trazado_138117" data-name="Trazado 138117" d="M57.984,10.11v4.34a1.445,1.445,0,1,1-2.89,0V10.11A1.444,1.444,0,0,1,55.946,8.8c.679.347,1.344.722,2.023,1.156a.534.534,0,0,1,.015.159" fill="#ff5364"/>
            <path id="Trazado_138118" data-name="Trazado 138118" d="M63.764,14.275v3.062a4.348,4.348,0,0,1-4.335,4.335,1.445,1.445,0,0,1,0-2.89,1.445,1.445,0,0,0,1.445-1.445V13.018a1.447,1.447,0,0,1,.3-.881c.332.246.65.491.983.751a16.824,16.824,0,0,1,1.607,1.387" fill="#ff5364"/>
            <path id="Trazado_138119" data-name="Trazado 138119" d="M56.539,33.232H55.094a1.445,1.445,0,0,1,0-2.89h1.445A1.445,1.445,0,0,0,57.984,28.9v-2.89a1.445,1.445,0,0,1,2.89,0V28.9a4.335,4.335,0,0,1-4.335,4.335" fill="#ff5364"/>
            <path id="Trazado_138120" data-name="Trazado 138120" d="M60.874,37.568a1.445,1.445,0,0,1-1.445,1.445H55.1a1.445,1.445,0,0,0-1.445,1.445v2.89a1.456,1.456,0,0,1-.116.564,14.267,14.267,0,0,1-2.774-1.289V40.458A4.348,4.348,0,0,1,55.1,36.123H59.43a1.445,1.445,0,0,1,1.445,1.445Z" fill="#ff5364"/>
            <path id="Trazado_138121" data-name="Trazado 138121" d="M69.529,30.343h-4.32a1.445,1.445,0,0,1,0-2.89H69.37c.087.939.145,1.907.159,2.89" fill="#ff5364"/>
            <path id="Trazado_138122" data-name="Trazado 138122" d="M69.442,33.248a12.709,12.709,0,0,1-.578,2.875H65.209a1.445,1.445,0,0,1,0-2.89H69.24a.856.856,0,0,1,.2.015" fill="#ff5364"/>
          </g>
        </g>
      </g>
      <g id="Grupo_66783" data-name="Grupo 66783" transform="translate(938.371 -462.697)">
        <g id="Grupo_66770" data-name="Grupo 66770" transform="translate(-447.371 8019.984)">
          <rect id="Rectángulo_9161" data-name="Rectángulo 9161" width="929" height="73.471" fill="#d5b64c"/>
          <rect id="Rectángulo_9162" data-name="Rectángulo 9162" width="929" height="68.686" transform="translate(0 73.471)" fill="#4d2311"/>
          <rect id="Rectángulo_9163" data-name="Rectángulo 9163" width="929" height="68.687" transform="translate(0 142.157)" fill="#f4e703"/>
          <rect id="Rectángulo_9164" data-name="Rectángulo 9164" width="929" height="68.687" transform="translate(0 210.846)" fill="#e42622"/>
          <rect id="Rectángulo_9165" data-name="Rectángulo 9165" width="929" height="68.687" transform="translate(0 279.533)" fill="#eb007f"/>
          <rect id="Rectángulo_9166" data-name="Rectángulo 9166" width="929" height="68.687" transform="translate(0 348.22)" fill="#c5c5c5"/>
          <rect id="Rectángulo_9167" data-name="Rectángulo 9167" width="929" height="68.687" transform="translate(0 416.908)" fill="#029bdd"/>
          <rect id="Rectángulo_9168" data-name="Rectángulo 9168" width="929" height="68.687" transform="translate(0 485.595)" fill="#43b035"/>
          <rect id="Rectángulo_9169" data-name="Rectángulo 9169" width="929" height="68.687" transform="translate(0 554.282)" fill="#7d2283"/>
          <rect id="Rectángulo_9170" data-name="Rectángulo 9170" width="929" height="68.687" transform="translate(0 622.97)" fill="#747476"/>
          <rect id="Rectángulo_9171" data-name="Rectángulo 9171" width="929" height="68.687" transform="translate(0 691.657)" fill="#fff"/>
          <rect id="Rectángulo_9172" data-name="Rectángulo 9172" width="929" height="68.687" transform="translate(0 760.344)" fill="#010101"/>
        </g>
        <g id="Grupo_66781" data-name="Grupo 66781" transform="translate(-72.607 8107.984)">
          <text id="Marrón_Profundidad_o_experiencia" data-name="Marrón
Profundidad o experiencia" fill="#fff" font-size="18" font-family="Roboto-Black, Roboto" font-weight="800"><tspan x="0" y="19">Marrón</tspan><tspan font-size="16" font-family="Roboto-Regular, Roboto" font-weight="400"><tspan x="0" y="43">Profundidad o experiencia</tspan></tspan></text>
        </g>
        <g id="Grupo_66780" data-name="Grupo 66780" transform="translate(-72.607 8176.984)">
          <text id="Amarillo_Actitud_positiva_y_alegría" data-name="Amarillo
Actitud positiva y alegría" fill="#12263f" font-size="18" font-family="Roboto-Black, Roboto" font-weight="800"><tspan x="0" y="19">Amarillo</tspan><tspan font-size="16" font-family="Roboto-Regular, Roboto" font-weight="400"><tspan x="0" y="43">Actitud positiva y alegría</tspan></tspan></text>
        </g>
        <g id="Grupo_66779" data-name="Grupo 66779" transform="translate(-72.607 8244.984)">
          <text id="Rojo_Pasión_o_excitación" data-name="Rojo
Pasión o excitación" fill="#fff" font-size="18" font-family="Roboto-Black, Roboto" font-weight="800"><tspan x="0" y="19">Rojo</tspan><tspan font-size="16" font-family="Roboto-Regular, Roboto" font-weight="400"><tspan x="0" y="43">Pasión o excitación</tspan></tspan></text>
        </g>
        <g id="Grupo_66778" data-name="Grupo 66778" transform="translate(-72.607 8312.984)">
          <text id="Rosa_Feminidad" data-name="Rosa
Feminidad" fill="#fff" font-size="18" font-family="Roboto-Black, Roboto" font-weight="800"><tspan x="0" y="19">Rosa</tspan><tspan font-size="16" font-family="Roboto-Regular, Roboto" font-weight="400"><tspan x="0" y="43">Feminidad</tspan></tspan></text>
        </g>
        <g id="Grupo_66777" data-name="Grupo 66777" transform="translate(-72.607 8381.984)">
          <text id="Plata_Intelectualidad" data-name="Plata
Intelectualidad" fill="#12263f" font-size="18" font-family="Roboto-Black, Roboto" font-weight="800"><tspan x="0" y="19">Plata</tspan><tspan font-size="16" font-family="Roboto-Regular, Roboto" font-weight="400"><tspan x="0" y="43">Intelectualidad</tspan></tspan></text>
        </g>
        <g id="Grupo_66776" data-name="Grupo 66776" transform="translate(-72.607 8449.984)">
          <text id="Azul_Tristeza_o_depresión" data-name="Azul
Tristeza o depresión" fill="#fff" font-size="18" font-family="Roboto-Black, Roboto" font-weight="800"><tspan x="0" y="19">Azul</tspan><tspan font-size="16" font-family="Roboto-Regular, Roboto" font-weight="400"><tspan x="0" y="43">Tristeza o depresión</tspan></tspan></text>
        </g>
        <g id="Grupo_66775" data-name="Grupo 66775" transform="translate(-72.607 8518.984)">
          <text id="Verde_Renovación_o_vida." data-name="Verde
Renovación o vida." fill="#fff" font-size="18" font-family="Roboto-Black, Roboto" font-weight="800"><tspan x="0" y="19">Verde</tspan><tspan font-size="16" font-family="Roboto-Regular, Roboto" font-weight="400"><tspan x="0" y="43">Renovación o vida.</tspan></tspan></text>
        </g>
        <g id="Grupo_66771" data-name="Grupo 66771" transform="translate(-72.607 8587.984)">
          <text id="Violeta_Espiritualidad" data-name="Violeta
Espiritualidad" fill="#fff" font-size="18" font-family="Roboto-Black, Roboto" font-weight="800"><tspan x="0" y="19">Violeta</tspan><tspan font-size="16" font-family="Roboto-Regular, Roboto" font-weight="400"><tspan x="0" y="43">Espiritualidad</tspan></tspan></text>
        </g>
        <g id="Grupo_66772" data-name="Grupo 66772" transform="translate(-72.607 8655.984)">
          <text id="Gris_Neutralidad_y_serenidad" data-name="Gris
Neutralidad y serenidad" fill="#fff" font-size="18" font-family="Roboto-Black, Roboto" font-weight="800"><tspan x="0" y="19">Gris</tspan><tspan font-size="16" font-family="Roboto-Regular, Roboto" font-weight="400"><tspan x="0" y="43">Neutralidad y serenidad</tspan></tspan></text>
        </g>
        <g id="Grupo_66773" data-name="Grupo 66773" transform="translate(-72.607 8725.984)">
          <text id="Blanco_Pureza" data-name="Blanco
Pureza" fill="#12263f" font-size="18" font-family="Roboto-Black, Roboto" font-weight="800"><tspan x="0" y="19">Blanco</tspan><tspan font-size="16" font-family="Roboto-Regular, Roboto" font-weight="400"><tspan x="0" y="43">Pureza</tspan></tspan></text>
        </g>
        <g id="Grupo_66774" data-name="Grupo 66774" transform="translate(-72.607 8793.984)">
          <text id="Negro_Elegancia" data-name="Negro
Elegancia" fill="#fff" font-size="18" font-family="Roboto-Black, Roboto" font-weight="800"><tspan x="0" y="19">Negro</tspan><tspan font-size="16" font-family="Roboto-Regular, Roboto" font-weight="400"><tspan x="0" y="43">Elegancia</tspan></tspan></text>
        </g>
        <g id="Grupo_66782" data-name="Grupo 66782" transform="translate(-74.489 8034.871)">
          <text id="Dorado_Opulencia-2" data-name="Dorado
Opulencia" fill="#12263f" font-size="18" font-family="Roboto-Black, Roboto" font-weight="800"><tspan x="0" y="19">Dorado</tspan><tspan font-size="16" font-family="Roboto-Regular, Roboto" font-weight="400"><tspan x="0" y="43">Opulencia</tspan></tspan></text>
        </g>
      </g>
    </g>
  </g>
</svg>
