<svg id="Grupo_66663" data-name="Grupo 66663" xmlns="http://www.w3.org/2000/svg" xmlns:xlink="http://www.w3.org/1999/xlink" width="542.207" height="389.834" viewBox="0 0 542.207 389.834">
  <defs>
    <clipPath id="clip-path">
      <rect id="Rectángulo_8964" data-name="Rectángulo 8964" width="542.207" height="389.834" fill="none"/>
    </clipPath>
    <clipPath id="clip-path-3">
      <rect id="Rectángulo_8919" data-name="Rectángulo 8919" width="450.064" height="17.128" fill="none"/>
    </clipPath>
    <clipPath id="clip-path-4">
      <rect id="Rectángulo_8920" data-name="Rectángulo 8920" width="425.727" height="9.606" fill="none"/>
    </clipPath>
    <clipPath id="clip-path-5">
      <rect id="Rectángulo_8935" data-name="Rectángulo 8935" width="133.885" height="40.213" fill="none"/>
    </clipPath>
  </defs>
  <g id="Grupo_66662" data-name="Grupo 66662" clip-path="url(#clip-path)">
    <g id="Grupo_66661" data-name="Grupo 66661">
      <g id="Grupo_66660" data-name="Grupo 66660" clip-path="url(#clip-path)">
        <path id="Trazado_138019" data-name="Trazado 138019" d="M194.916,28.025a28.947,28.947,0,1,1-3.706,40.769,28.946,28.946,0,0,1,3.706-40.769" transform="translate(34.301 3.963)" fill="#d44f4a"/>
        <path id="Trazado_138020" data-name="Trazado 138020" d="M45.173,267.947a28.955,28.955,0,1,1,21.6,34.79,28.955,28.955,0,0,1-21.6-34.79" transform="translate(8.255 45.656)" fill="#d44f4a"/>
        <path id="Trazado_138021" data-name="Trazado 138021" d="M408.031,103.193a42.267,42.267,0,1,1-42.268,42.267,42.267,42.267,0,0,1,42.268-42.267" transform="translate(68 19.185)" fill="#d44f4a"/>
        <path id="Trazado_138022" data-name="Trazado 138022" d="M83.876,144.7a42.267,42.267,0,1,1-42.268,42.267A42.267,42.267,0,0,1,83.876,144.7" transform="translate(7.735 26.902)" fill="#d44f4a"/>
        <path id="Trazado_138023" data-name="Trazado 138023" d="M170.869,4.6a11.312,11.312,0,1,1-11.312,11.312A11.313,11.313,0,0,1,170.869,4.6" transform="translate(29.663 0.856)" fill="#d44f4a"/>
        <path id="Trazado_138024" data-name="Trazado 138024" d="M393.051,26.458a8.8,8.8,0,1,1-8.8-8.795,8.8,8.8,0,0,1,8.8,8.795" transform="translate(69.802 3.284)" fill="#d44f4a"/>
        <path id="Trazado_138025" data-name="Trazado 138025" d="M22.738,206.942a11.312,11.312,0,1,1-11.312,11.312,11.313,11.313,0,0,1,11.312-11.312" transform="translate(2.124 38.473)" fill="#d44f4a"/>
        <path id="Trazado_138026" data-name="Trazado 138026" d="M438.82,74.609a11.312,11.312,0,1,1-11.312,11.312A11.313,11.313,0,0,1,438.82,74.609" transform="translate(79.479 13.871)" fill="#d44f4a"/>
        <path id="Trazado_138027" data-name="Trazado 138027" d="M244.758,15.177a6.6,6.6,0,1,1-6.6-6.6h0a6.6,6.6,0,0,1,6.6,6.6" transform="translate(43.049 1.595)" fill="#d44f4a"/>
        <path id="Trazado_138028" data-name="Trazado 138028" d="M13.2,260.745a6.6,6.6,0,1,1-6.6-6.6h0a6.6,6.6,0,0,1,6.6,6.6Z" transform="translate(0 47.248)" fill="#d44f4a"/>
        <path id="Trazado_138029" data-name="Trazado 138029" d="M454.221,181.384a6.6,6.6,0,1,1-6.6-6.6h0a6.6,6.6,0,0,1,6.6,6.6Z" transform="translate(81.991 32.494)" fill="#d44f4a"/>
        <path id="Trazado_138030" data-name="Trazado 138030" d="M344.528,12.343a6.6,6.6,0,1,1-6.6-6.6A6.6,6.6,0,0,1,344.528,12.343Z" transform="translate(61.597 1.068)" fill="#d44f4a"/>
        <path id="Trazado_138031" data-name="Trazado 138031" d="M147.3,28.791A21.108,21.108,0,1,1,126.193,49.9,21.108,21.108,0,0,1,147.3,28.791" transform="translate(23.461 5.353)" fill="#d44f4a"/>
        <path id="Trazado_138032" data-name="Trazado 138032" d="M335.693,42.044a21.108,21.108,0,1,1,16.553,24.841,21.108,21.108,0,0,1-16.553-24.841" transform="translate(62.332 4.662)" fill="#d44f4a"/>
        <path id="Trazado_138033" data-name="Trazado 138033" d="M396.55,204.808a21.108,21.108,0,1,1,0,29.852,21.108,21.108,0,0,1,0-29.852" transform="translate(72.574 36.927)" fill="#d44f4a"/>
        <g id="Grupo_66653" data-name="Grupo 66653" transform="translate(59.976 372.706)" opacity="0.1" style="isolation: isolate">
          <g id="Grupo_66652" data-name="Grupo 66652">
            <g id="Grupo_66651" data-name="Grupo 66651" clip-path="url(#clip-path-3)">
              <path id="Trazado_138034" data-name="Trazado 138034" d="M492.075,331.406H59.139a8.564,8.564,0,1,1,0-17.128H492.075a8.564,8.564,0,0,1,0,17.128" transform="translate(-50.574 -314.278)"/>
            </g>
          </g>
        </g>
        <g id="Grupo_66656" data-name="Grupo 66656" transform="translate(72.146 376.47)" opacity="0.15" style="isolation: isolate">
          <g id="Grupo_66655" data-name="Grupo 66655">
            <g id="Grupo_66654" data-name="Grupo 66654" clip-path="url(#clip-path-4)">
              <path id="Trazado_138035" data-name="Trazado 138035" d="M481.76,327.058H65.638a4.8,4.8,0,0,1,0-9.606H481.759a4.8,4.8,0,1,1,0,9.606" transform="translate(-60.836 -317.452)"/>
            </g>
          </g>
        </g>
        <rect id="Rectángulo_8921" data-name="Rectángulo 8921" width="517.344" height="0.259" transform="translate(24.863 338.804)" fill="#54b6bd"/>
        <rect id="Rectángulo_8922" data-name="Rectángulo 8922" width="10.845" height="0.259" transform="translate(171.808 345.053)" fill="#54b6bd"/>
        <rect id="Rectángulo_8923" data-name="Rectángulo 8923" width="18.474" height="0.259" transform="translate(488.747 351.843)" fill="#54b6bd"/>
        <rect id="Rectángulo_8924" data-name="Rectángulo 8924" width="61.206" height="0.259" transform="translate(358.798 345.182)" fill="#54b6bd"/>
        <rect id="Rectángulo_8925" data-name="Rectángulo 8925" width="46.825" height="0.259" transform="translate(220.048 351.081)" fill="#54b6bd"/>
        <rect id="Rectángulo_8926" data-name="Rectángulo 8926" width="16.219" height="0.259" transform="translate(153.164 349.443)" fill="#54b6bd"/>
        <rect id="Rectángulo_8927" data-name="Rectángulo 8927" width="23.338" height="0.259" transform="translate(442.646 351.081)" fill="#54b6bd"/>
        <rect id="Rectángulo_8928" data-name="Rectángulo 8928" width="55.084" height="0.259" transform="translate(92.047 349.314)" fill="#54b6bd"/>
        <path id="Trazado_138036" data-name="Trazado 138036" d="M260,292.658H60.206a5.913,5.913,0,0,1-5.906-5.906V5.906A5.913,5.913,0,0,1,60.206,0H260a5.912,5.912,0,0,1,5.906,5.906V286.752A5.913,5.913,0,0,1,260,292.658M60.206.259a5.653,5.653,0,0,0-5.647,5.647V286.752a5.653,5.653,0,0,0,5.647,5.647H260a5.653,5.653,0,0,0,5.647-5.647V5.906A5.653,5.653,0,0,0,260,.259Z" transform="translate(10.095)" fill="#54b6bd"/>
        <path id="Trazado_138037" data-name="Trazado 138037" d="M448.717,292.658h-199.8a5.912,5.912,0,0,1-5.9-5.906V5.906A5.912,5.912,0,0,1,248.921,0h199.8a5.913,5.913,0,0,1,5.907,5.906V286.752a5.914,5.914,0,0,1-5.907,5.906M248.921.259a5.653,5.653,0,0,0-5.646,5.647V286.752a5.653,5.653,0,0,0,5.646,5.647h199.8a5.653,5.653,0,0,0,5.647-5.647V5.906A5.653,5.653,0,0,0,448.717.259Z" transform="translate(45.179)" fill="#54b6bd"/>
        <rect id="Rectángulo_8929" data-name="Rectángulo 8929" width="130.616" height="195.495" transform="translate(105.111 30.707)" fill="#54b6bd"/>
        <rect id="Rectángulo_8930" data-name="Rectángulo 8930" width="130.616" height="195.495" transform="translate(102.208 30.707)" fill="#5c9dbd"/>
        <rect id="Rectángulo_8931" data-name="Rectángulo 8931" width="120.196" height="183.79" transform="translate(107.419 36.559)" fill="#fff"/>
        <rect id="Rectángulo_8932" data-name="Rectángulo 8932" width="2.194" height="183.79" transform="translate(107.419 36.559)" fill="#54b6bd"/>
        <rect id="Rectángulo_8933" data-name="Rectángulo 8933" width="126.307" height="7.857" transform="translate(104.364 163.32)" fill="#5c9dbd"/>
        <path id="Trazado_138038" data-name="Trazado 138038" d="M81.521,17.724H226.4a.8.8,0,0,1,0,1.6H81.521a.8.8,0,0,1,0-1.6" transform="translate(15.007 3.295)" fill="#54b6bd"/>
        <path id="Trazado_138039" data-name="Trazado 138039" d="M77.337,19.03a4.011,4.011,0,1,0,4.011-4.011,4.01,4.01,0,0,0-4.011,4.011" transform="translate(14.378 2.792)" fill="#54b6bd"/>
        <path id="Trazado_138040" data-name="Trazado 138040" d="M198.03,22.893h0a1.086,1.086,0,0,0,1.083-1.083V19.484a1.083,1.083,0,1,0-2.165,0V21.81a1.086,1.086,0,0,0,1.083,1.083" transform="translate(36.615 3.421)" fill="#54b6bd"/>
        <path id="Trazado_138041" data-name="Trazado 138041" d="M91.766,22.893h0a1.086,1.086,0,0,0,1.083-1.083V19.484a1.083,1.083,0,0,0-2.165,0V21.81a1.086,1.086,0,0,0,1.083,1.083" transform="translate(16.859 3.421)" fill="#54b6bd"/>
        <g id="Grupo_66659" data-name="Grupo 66659" transform="translate(96.784 21.822)" opacity="0.4">
          <g id="Grupo_66658" data-name="Grupo 66658">
            <g id="Grupo_66657" data-name="Grupo 66657" clip-path="url(#clip-path-5)">
              <rect id="Rectángulo_8934" data-name="Rectángulo 8934" width="133.886" height="40.213" transform="translate(0)" fill="#52bdb7"/>
            </g>
          </g>
        </g>
        <path id="Trazado_138042" data-name="Trazado 138042" d="M183.6,19.03a4.011,4.011,0,1,0,4.011-4.011A4.01,4.01,0,0,0,183.6,19.03" transform="translate(34.134 2.792)" fill="#54b6bd"/>
        <rect id="Rectángulo_8936" data-name="Rectángulo 8936" width="37.783" height="83.77" transform="translate(431.196 249.726)" fill="#58bdb2"/>
        <rect id="Rectángulo_8937" data-name="Rectángulo 8937" width="186.329" height="5.308" transform="translate(275.395 333.496)" fill="#58bdb2"/>
        <rect id="Rectángulo_8938" data-name="Rectángulo 8938" width="163.056" height="83.77" transform="translate(268.141 249.726)" fill="#5c9dbd"/>
        <rect id="Rectángulo_8939" data-name="Rectángulo 8939" width="133.346" height="27.474" transform="translate(282.995 260.036)" fill="#58bdb2"/>
        <rect id="Rectángulo_8940" data-name="Rectángulo 8940" width="133.346" height="27.474" transform="translate(282.995 295.711)" fill="#58bdb2"/>
        <path id="Trazado_138043" data-name="Trazado 138043" d="M280.782,233.034h33.988a1.665,1.665,0,0,0,1.66-1.66v-.447a1.665,1.665,0,0,0-1.66-1.66H280.782a1.665,1.665,0,0,0-1.66,1.66v.447a1.665,1.665,0,0,0,1.66,1.66" transform="translate(51.892 42.623)" fill="#5c9dbd"/>
        <path id="Trazado_138044" data-name="Trazado 138044" d="M280.782,263.116h33.988a1.665,1.665,0,0,0,1.66-1.66v-.447a1.665,1.665,0,0,0-1.66-1.66H280.782a1.665,1.665,0,0,0-1.66,1.66v.447a1.665,1.665,0,0,0,1.66,1.66" transform="translate(51.892 48.216)" fill="#5c9dbd"/>
        <path id="Trazado_138045" data-name="Trazado 138045" d="M316.908,194.449a8.325,8.325,0,1,0,8.324-8.324,8.324,8.324,0,0,0-8.324,8.324" transform="translate(58.917 34.603)" fill="#5c9dbd"/>
        <path id="Trazado_138046" data-name="Trazado 138046" d="M305.868,193.13a8.325,8.325,0,1,0,8.324-8.324,8.324,8.324,0,0,0-8.324,8.324" transform="translate(56.864 34.358)" fill="#5c9dbd"/>
        <path id="Trazado_138047" data-name="Trazado 138047" d="M271.911,196.369a8.325,8.325,0,1,0,8.325-8.324,8.324,8.324,0,0,0-8.325,8.324" transform="translate(50.551 34.96)" fill="#5c9dbd"/>
        <path id="Trazado_138048" data-name="Trazado 138048" d="M290.03,199.609a8.324,8.324,0,1,0,8.324-8.324,8.324,8.324,0,0,0-8.324,8.324" transform="translate(53.92 35.562)" fill="#5c9dbd"/>
        <path id="Trazado_138049" data-name="Trazado 138049" d="M360.966,194.42s-1.348,19.161-53.041,19.161-53.041-19.161-53.041-19.161Z" transform="translate(47.386 36.145)" fill="#58bdb2"/>
        <rect id="Rectángulo_8941" data-name="Rectángulo 8941" width="18.861" height="81.798" transform="translate(213.449 251.824)" fill="#58bdb2"/>
        <rect id="Rectángulo_8942" data-name="Rectángulo 8942" width="122.343" height="5.182" transform="translate(106.344 333.622)" fill="#58bdb2"/>
        <rect id="Rectángulo_8943" data-name="Rectángulo 8943" width="110.725" height="81.798" transform="translate(102.724 251.824)" fill="#5c9dbd"/>
        <rect id="Rectángulo_8944" data-name="Rectángulo 8944" width="95.895" height="26.827" transform="translate(110.138 261.892)" fill="#58bdb2"/>
        <rect id="Rectángulo_8945" data-name="Rectángulo 8945" width="95.895" height="26.827" transform="translate(110.138 296.726)" fill="#58bdb2"/>
        <path id="Trazado_138050" data-name="Trazado 138050" d="M121.618,224.721h29.047a3.575,3.575,0,1,0,0-7.15H121.618a3.575,3.575,0,1,0,0,7.15" transform="translate(21.945 40.449)" fill="#5c9dbd"/>
        <path id="Trazado_138051" data-name="Trazado 138051" d="M121.617,254.095h29.045a3.575,3.575,0,1,0,0-7.15H121.617a3.575,3.575,0,0,0,0,7.15" transform="translate(21.946 45.91)" fill="#5c9dbd"/>
        <rect id="Rectángulo_8946" data-name="Rectángulo 8946" width="54.158" height="110.239" transform="translate(314.205 48.715)" fill="#54b6bd"/>
        <rect id="Rectángulo_8947" data-name="Rectángulo 8947" width="57.333" height="110.239" transform="translate(309.86 48.715)" fill="#5c9dbd"/>
        <rect id="Rectángulo_8948" data-name="Rectángulo 8948" width="40.648" height="93.554" transform="translate(318.201 57.057)" fill="#fff"/>
        <rect id="Rectángulo_8949" data-name="Rectángulo 8949" width="29.653" height="34.161" transform="translate(440.208 107.381)" fill="#58bdb2"/>
        <rect id="Rectángulo_8950" data-name="Rectángulo 8950" width="32.135" height="34.161" transform="translate(434.208 107.381)" fill="#5c9dbd"/>
        <rect id="Rectángulo_8951" data-name="Rectángulo 8951" width="26.751" height="28.777" transform="translate(436.9 110.072)" fill="#fff"/>
        <path id="Trazado_138052" data-name="Trazado 138052" d="M387.66,110.82V101.4a2.7,2.7,0,0,0-2.705-2.7h-8.374a2.7,2.7,0,0,0-2.7,2.7v9.419a2.705,2.705,0,0,0,2.7,2.705h8.375a2.705,2.705,0,0,0,2.7-2.705" transform="translate(69.508 18.349)" fill="#5c9dbd"/>
        <rect id="Rectángulo_8952" data-name="Rectángulo 8952" width="29.653" height="34.161" transform="translate(416.313 59.847)" fill="#58bdb2"/>
        <rect id="Rectángulo_8953" data-name="Rectángulo 8953" width="32.135" height="34.161" transform="translate(410.314 59.847)" fill="#5c9dbd"/>
        <rect id="Rectángulo_8954" data-name="Rectángulo 8954" width="26.751" height="28.777" transform="translate(413.007 62.538)" fill="#fff"/>
        <path id="Trazado_138053" data-name="Trazado 138053" d="M367.511,70.738V61.32a2.7,2.7,0,0,0-2.7-2.7h-8.375a2.7,2.7,0,0,0-2.7,2.7v9.419a2.7,2.7,0,0,0,2.705,2.7h8.374a2.7,2.7,0,0,0,2.7-2.7" transform="translate(65.762 10.897)" fill="#5c9dbd"/>
        <path id="Trazado_138054" data-name="Trazado 138054" d="M471.15,317.052c0,6.47-89.819,11.716-200.615,11.716S69.921,323.522,69.921,317.052s89.819-11.716,200.615-11.716,200.615,5.245,200.615,11.716" transform="translate(12.999 56.765)" fill="#6bbcb1"/>
        <rect id="Rectángulo_8955" data-name="Rectángulo 8955" width="223.397" height="218.744" transform="translate(138.341 73.893)" fill="#4c3323"/>
        <rect id="Rectángulo_8956" data-name="Rectángulo 8956" width="211.919" height="211.749" transform="translate(144.087 80.887)" fill="#fff"/>
        <path id="Trazado_138055" data-name="Trazado 138055" d="M322.679,252.742v3.086H210.1l24.33-24.316,33.5-33.519Z" transform="translate(39.059 36.809)" fill="#4c3323"/>
        <path id="Trazado_138056" data-name="Trazado 138056" d="M116.653,260.909V239.884l69.218-69.218,90.242,90.243Z" transform="translate(21.687 31.729)" fill="#4c3323"/>
        <path id="Trazado_138057" data-name="Trazado 138057" d="M281.473,126.874a34.2,34.2,0,1,1-34.2-34.2,34.2,34.2,0,0,1,34.2,34.2" transform="translate(39.612 17.229)" fill="#4c3323"/>
        <rect id="Rectángulo_8957" data-name="Rectángulo 8957" width="1.034" height="7.429" transform="matrix(0.097, -0.995, 0.995, 0.097, 401.998, 86.261)" fill="#cc7035"/>
        <rect id="Rectángulo_8958" data-name="Rectángulo 8958" width="1.034" height="18.177" transform="translate(376.841 83.804) rotate(-84.421)" fill="#cc7035"/>
        <rect id="Rectángulo_8959" data-name="Rectángulo 8959" width="218.745" height="223.398" transform="matrix(0.097, -0.995, 0.995, 0.097, 183.313, 287.29)" fill="#d44f4a"/>
        <rect id="Rectángulo_8960" data-name="Rectángulo 8960" width="211.75" height="211.919" transform="translate(189.033 287.848) rotate(-84.423)" fill="#fff"/>
        <path id="Trazado_138058" data-name="Trazado 138058" d="M359.926,267.347l-.3,3.072-112.05-10.942,26.577-21.836,36.6-30.1Z" transform="translate(46.027 38.584)" fill="#d44f4a"/>
        <path id="Trazado_138059" data-name="Trazado 138059" d="M154.576,255.278l2.043-20.925,75.617-62.163,81.045,98.587Z" transform="translate(28.737 32.012)" fill="#cc7035"/>
        <path id="Trazado_138060" data-name="Trazado 138060" d="M330.814,138.456A34.2,34.2,0,1,1,300.1,101.092a34.2,34.2,0,0,1,30.716,37.365" transform="translate(48.814 18.764)" fill="#d44f4a"/>
        <rect id="Rectángulo_8961" data-name="Rectángulo 8961" width="223.398" height="218.744" transform="translate(104.84 113.059) rotate(-3.737)" fill="#ffecdf"/>
        <rect id="Rectángulo_8962" data-name="Rectángulo 8962" width="211.919" height="211.75" transform="translate(111.03 119.665) rotate(-3.737)" fill="#fff"/>
        <path id="Trazado_138061" data-name="Trazado 138061" d="M305.812,272.527l.2,3.08-112.345,7.337,22.694-25.851,31.249-35.631Z" transform="translate(36.005 41.173)" fill="#ffecdf"/>
        <path id="Trazado_138062" data-name="Trazado 138062" d="M100.64,294.22l-1.37-20.98,64.559-73.582,95.932,84.17Z" transform="translate(18.456 37.119)" fill="#ffecdf"/>
        <path id="Trazado_138063" data-name="Trazado 138063" d="M256.742,149.383a34.2,34.2,0,1,1-36.359-31.9,34.2,34.2,0,0,1,36.359,31.9" transform="translate(35.027 21.827)" fill="#ffecdf"/>
        <path id="Trazado_138064" data-name="Trazado 138064" d="M352.883,175.849l-7.265,2.405,6.563,7.047s5.73-3.421,4.257-6.66Z" transform="translate(64.254 32.692)" fill="#e9ffed"/>
        <path id="Trazado_138065" data-name="Trazado 138065" d="M341.422,184.363l5.692,5.484,5.848-4.924-6.564-7.046Z" transform="translate(63.474 33.069)" fill="#e9ffed"/>
        <path id="Trazado_138066" data-name="Trazado 138066" d="M363.907,127.352c.734,1.356,1.347,2.563,1.951,3.86.6,1.277,1.186,2.56,1.754,3.851,1.111,2.591,2.141,5.225,3.055,7.916.937,2.68,1.722,5.443,2.4,8.258l.484,2.125.395,2.171c.141.716.228,1.465.325,2.2l.143,1.11.036.276.045.462c.033.353.033.665.033.987a15.468,15.468,0,0,1-1.342,5.718,34.386,34.386,0,0,1-2.148,4.195,65.589,65.589,0,0,1-5,7.091,106.941,106.941,0,0,1-11.483,12.176l-4.214-3.781c3.012-4.35,6-8.842,8.688-13.288A72.42,72.42,0,0,0,362.647,166a24.662,24.662,0,0,0,1.252-3.178,6.158,6.158,0,0,0,.369-2.18c-.009-.018-.011-.045-.021-.027-.008-.02.008.06-.013-.043l-.049-.223-.193-.893c-.129-.6-.242-1.187-.415-1.79l-.472-1.8-.534-1.807c-.753-2.407-1.59-4.818-2.528-7.221s-1.934-4.792-2.987-7.166c-1.016-2.36-2.193-4.785-3.248-6.974Z" transform="translate(65.134 23.676)" fill="#f9e9d7"/>
        <path id="Trazado_138067" data-name="Trazado 138067" d="M375.64,146.146l-14.083,7.439-3.393,1.8s-.8-2.328-1.925-5.711c-.911-2.7-2.049-6.064-3.166-9.467-.352-1.077-.7-2.142-1.045-3.2-.1-.3-.208-.591-.3-.891-3.042-9.322,5.4-13.5,11.143-12.3,9.841,2.059,12.769,22.328,12.769,22.328" transform="translate(65.271 22.982)" fill="#e4c7a1"/>
        <path id="Trazado_138068" data-name="Trazado 138068" d="M361.41,151.724l-3.394,1.8s-.8-2.328-1.924-5.711c-.911-2.7-2.049-6.064-3.166-9.467-.352-1.077-.7-2.142-1.046-3.2l7.761-1.522s1.066,12.313,1.769,18.1" transform="translate(65.419 24.843)" fill="#c9ad8b"/>
        <path id="Trazado_138069" data-name="Trazado 138069" d="M354.571,105.8c-1.621,5.382-3.694,15.33-.218,19.374,0,0-2.054,5.417-12.252,4.4-11.213-1.115-4.805-6.1-4.805-6.1,6.265-.854,6.558-5.41,5.916-9.78Z" transform="translate(62.368 19.67)" fill="#f9e9d7"/>
        <path id="Trazado_138070" data-name="Trazado 138070" d="M335.206,123.2c.516-.989-.222-4.71-.222-4.71s16-2.154,21.722-.115c3.079,1.1.377,6.63.377,6.63Z" transform="translate(62.277 21.844)" fill="#5b3d2c"/>
        <path id="Trazado_138071" data-name="Trazado 138071" d="M335.677,99.119c-.06.6-.429,1.064-.825,1.025s-.668-.562-.607-1.167.429-1.064.825-1.025.668.562.607,1.167" transform="translate(62.138 18.21)" fill="#4c3323"/>
        <path id="Trazado_138072" data-name="Trazado 138072" d="M335.97,99.191a21.8,21.8,0,0,1-3.4,4.888,3.5,3.5,0,0,0,2.837.829Z" transform="translate(61.828 18.441)" fill="#f9e9d7"/>
        <path id="Trazado_138073" data-name="Trazado 138073" d="M337.844,97.611a.357.357,0,0,1-.3-.171,2.843,2.843,0,0,0-2.157-1.414.357.357,0,0,1-.347-.368.338.338,0,0,1,.368-.346,3.544,3.544,0,0,1,2.747,1.755.358.358,0,0,1-.119.491.354.354,0,0,1-.186.052" transform="translate(62.287 17.72)" fill="#4c3323"/>
        <path id="Trazado_138074" data-name="Trazado 138074" d="M309.261,304.529l-7.518-.559-.707-17.56,7.519.56Z" transform="translate(55.966 53.247)" fill="#f9e9d7"/>
        <path id="Trazado_138075" data-name="Trazado 138075" d="M350.594,310.072h-7.539l-5.874-17.458h7.539Z" transform="translate(62.686 54.4)" fill="#f9e9d7"/>
        <path id="Trazado_138076" data-name="Trazado 138076" d="M343.128,306.6h9.191a.656.656,0,0,1,.642.515l1.49,6.7a1.108,1.108,0,0,1-1.1,1.34c-2.956-.051-5.115-.224-8.839-.224-2.291,0-7.012.238-10.177.238-3.094,0-3.577-3.13-2.282-3.413,5.809-1.27,8-3.023,9.856-4.694a1.831,1.831,0,0,1,1.224-.464" transform="translate(61.607 57)" fill="#5b3d2c"/>
        <path id="Trazado_138077" data-name="Trazado 138077" d="M304.109,299.8l8.21.611a.659.659,0,0,1,.6.561l.988,6.793a1.1,1.1,0,0,1-1.181,1.257c-2.958-.27-7.225-.763-10.947-1.039-4.352-.324-7.25-.478-12.354-.857-3.086-.229-3.711-3.413-2.4-3.6,5.977-.849,9.909-.518,15.225-3.274a3.492,3.492,0,0,1,1.855-.451" transform="translate(53.242 55.734)" fill="#5b3d2c"/>
        <path id="Trazado_138078" data-name="Trazado 138078" d="M301.039,286.415l.363,9.051,7.521.559-.363-9.05Z" transform="translate(55.967 53.248)" fill="#d3f2d5"/>
        <path id="Trazado_138079" data-name="Trazado 138079" d="M344.724,292.618h-7.542l3.032,9h7.541Z" transform="translate(62.686 54.401)" fill="#d3f2d5"/>
        <path id="Trazado_138080" data-name="Trazado 138080" d="M363.241,190.067c-5.9-.434-28.092-2.09-40.208-2.991a182.835,182.835,0,0,1-1.325-30.5c.166-3.663.455-7.036.808-10.121,1.862-16.13,5.794-24.324,5.794-24.324a75.767,75.767,0,0,1,11.712-1.232,148.191,148.191,0,0,1,17.094,1.274,91.064,91.064,0,0,1,12.178,2.4c-8.122,28.64-5.319,59.339-6.053,65.5" transform="translate(59.78 22.475)" fill="#e4c7a1"/>
        <path id="Trazado_138081" data-name="Trazado 138081" d="M326.537,145.542l-4.853,7.025c.166-3.662.455-7.036.808-10.119Z" transform="translate(59.805 26.483)" fill="#c9ad8b"/>
        <path id="Trazado_138082" data-name="Trazado 138082" d="M330.612,126.322c-.68,1.176-1.491,2.512-2.25,3.774q-1.167,1.914-2.4,3.794c-1.628,2.508-3.316,4.971-5.061,7.357s-3.574,4.678-5.481,6.815a47.881,47.881,0,0,1-5.365,5.179,29.779,29.779,0,0,1-4.847.7,28.726,28.726,0,0,1-6.2-.369,30.709,30.709,0,0,1-6.174-1.718,32.2,32.2,0,0,1-3-1.328c-.489-.248-.967-.513-1.435-.787-.452-.25-.978-.583-1.3-.776l-3.946,4.059c.567.639.982,1.077,1.491,1.571.5.466,1,.918,1.523,1.348a32.216,32.216,0,0,0,3.265,2.409,33.018,33.018,0,0,0,15.621,5.159,35.468,35.468,0,0,0,8.424-.478l.861-.157.978-.645a50.1,50.1,0,0,0,8.012-6.654,83.175,83.175,0,0,0,6.575-7.461c2.04-2.565,3.916-5.219,5.7-7.921q1.327-2.037,2.589-4.113c.857-1.4,1.632-2.749,2.458-4.3Z" transform="translate(52.641 23.485)" fill="#f9e9d7"/>
        <path id="Trazado_138083" data-name="Trazado 138083" d="M339.12,130.617c-.54,7.188-9.047,21.18-9.047,21.18l-19.25-10.119s6.521-10.476,13.643-16.72c7.2-6.311,15.244-2.228,14.654,5.659" transform="translate(57.786 22.656)" fill="#e4c7a1"/>
        <path id="Trazado_138084" data-name="Trazado 138084" d="M290.9,148.294l-5.626-4.92-4.343,7.387s4,4.495,8.709,1.666Z" transform="translate(52.228 26.655)" fill="#f9e9d7"/>
        <path id="Trazado_138085" data-name="Trazado 138085" d="M278.453,140.614l-2.989,6.8,6.48,3.858,4.343-7.388Z" transform="translate(51.212 26.142)" fill="#f9e9d7"/>
        <path id="Trazado_138086" data-name="Trazado 138086" d="M356.26,100.769c-1.194,7.386-1.519,11.769-5.651,15.211-6.215,5.177-15.05.862-16.087-6.731-.932-6.836,1.179-17.766,8.746-20a10.2,10.2,0,0,1,12.992,11.521" transform="translate(62.153 16.51)" fill="#f9e9d7"/>
        <path id="Trazado_138087" data-name="Trazado 138087" d="M364.2,98.128c5.518,3.868-7.634,18.067-12.309,17.911s-13.417-13.126-10.569-20.018c-2.413-.982-3.191-1.3-4.167-3.756-1.773-4.461.37-11.9,11.295-9.815-2.711,1.841-.834,3.305,4.311,2.586-2.011,2.415,1.322,4.2,6.323,3.162-.862,4.426,10.289,5.058,5.116,9.93" transform="translate(62.578 15.261)" fill="#4c3323"/>
        <path id="Trazado_138088" data-name="Trazado 138088" d="M345.142,101.45A7.113,7.113,0,0,1,342.178,106c-2.067,1.395-3.884-.264-3.967-2.626-.074-2.125.912-5.412,3.3-5.864a3.2,3.2,0,0,1,3.628,3.937" transform="translate(62.877 18.118)" fill="#f9e9d7"/>
        <path id="Trazado_138089" data-name="Trazado 138089" d="M353.256,321.254H339.442s-13.46-46.265-16.838-70.225c-.726-5.169-.306-11.994.783-19.41,1.85-12.674,5.6-27.068,8.715-37.808,2.775-9.548,5.059-16.215,5.059-16.215l25.957,1.933c-1.408,18.836-20.051,49.779-18.754,75.345,1.187,23.552,8.891,66.38,8.891,66.38" transform="translate(59.909 33.017)" fill="#5b3d2c"/>
        <path id="Trazado_138090" data-name="Trazado 138090" d="M338.8,196.721c-.148,12.541-8.96,26.4-15.588,32.36,1.851-12.674,5.6-27.068,8.716-37.808,1.935-.385,5.259,3.285,6.871,5.448" transform="translate(60.088 35.555)" fill="#352318"/>
        <path id="Trazado_138091" data-name="Trazado 138091" d="M328.059,176.7s-32.57,49.275-33.457,72.262c-.923,23.91,5.322,64.95,5.322,64.95l12.735.948s1.484-39.028,3.791-62.406c2.517-25.486,39.3-53.889,40.763-73.586L328.059,176.7" transform="translate(54.753 32.851)" fill="#5b3d2c"/>
        <path id="Trazado_138092" data-name="Trazado 138092" d="M335.021,299.8h18.049v-4.858l-20.176-.315Z" transform="translate(61.889 54.774)" fill="#d44f4a"/>
        <path id="Trazado_138093" data-name="Trazado 138093" d="M297.2,293.295l17.685,1.358.364-4.9-19.787-1.773Z" transform="translate(54.929 53.538)" fill="#d44f4a"/>
        <path id="Trazado_138094" data-name="Trazado 138094" d="M339.471,308.009a2.282,2.282,0,0,1-1.452-.384,1.074,1.074,0,0,1-.369-.944.565.565,0,0,1,.3-.505c.841-.422,3.266,1.066,3.54,1.238a.178.178,0,0,1-.053.325,8.818,8.818,0,0,1-1.971.27m-1.121-1.561a.509.509,0,0,0-.231.045c-.049.025-.1.071-.114.21a.73.73,0,0,0,.243.647,3.627,3.627,0,0,0,2.677.136,7.218,7.218,0,0,0-2.575-1.039" transform="translate(62.772 56.908)" fill="#ffb882"/>
        <path id="Trazado_138095" data-name="Trazado 138095" d="M341.161,308.021a.177.177,0,0,1-.084-.021c-.78-.423-2.289-2.075-2.13-2.915a.584.584,0,0,1,.568-.468.96.96,0,0,1,.761.229c.876.716,1.055,2.891,1.063,2.984a.175.175,0,0,1-.081.164.179.179,0,0,1-.1.028m-1.52-3.056c-.027,0-.053,0-.081,0-.232.03-.253.135-.262.181-.094.5.867,1.743,1.643,2.333a4.292,4.292,0,0,0-.891-2.362.626.626,0,0,0-.409-.157" transform="translate(63.012 56.63)" fill="#ffb882"/>
        <path id="Trazado_138096" data-name="Trazado 138096" d="M299.585,301.045a3.629,3.629,0,0,1-2.442-.62,1,1,0,0,1-.27-.891.574.574,0,0,1,.33-.453c.957-.435,3.86,1.316,4.189,1.518a.179.179,0,0,1-.072.33,14.521,14.521,0,0,1-1.734.116m-1.984-1.684a.586.586,0,0,0-.248.045.208.208,0,0,0-.126.18.652.652,0,0,0,.172.589c.433.444,1.665.608,3.344.455a9.089,9.089,0,0,0-3.143-1.27" transform="translate(55.189 55.59)" fill="#ffb882"/>
        <path id="Trazado_138097" data-name="Trazado 138097" d="M300.987,301.185a.166.166,0,0,1-.084-.023c-.878-.473-2.553-2.233-2.354-3.073.047-.2.208-.435.7-.449a1.358,1.358,0,0,1,.965.379c.9.856.949,2.9.951,2.983a.178.178,0,0,1-.085.157.186.186,0,0,1-.094.026m-1.7-3.188h-.03c-.323.008-.352.133-.363.174-.12.5,1.007,1.871,1.892,2.5a4.2,4.2,0,0,0-.821-2.392.941.941,0,0,0-.678-.281" transform="translate(55.501 55.335)" fill="#ffb882"/>
      </g>
    </g>
  </g>
</svg>
