<svg xmlns="http://www.w3.org/2000/svg" xmlns:xlink="http://www.w3.org/1999/xlink" width="617" height="388" viewBox="0 0 617 388">
  <defs>
    <clipPath id="clip-path">
      <rect id="Rectángulo_9239" data-name="Rectángulo 9239" width="515" height="324" transform="translate(-0.009 -0.466)" fill="none"/>
    </clipPath>
    <clipPath id="clip-path-2">
      <rect id="Rectángulo_9240" data-name="Rectángulo 9240" width="51.558" height="51.558" transform="translate(0 4.561) rotate(-5.075)" fill="none"/>
    </clipPath>
  </defs>
  <g id="Grupo_66939" data-name="Grupo 66939" transform="translate(-802 -11536)">
    <rect id="Rectángulo_9232" data-name="Rectángulo 9232" width="617" height="388" transform="translate(802 11536)" fill="#efe3da"/>
    <g id="Grupo_66862" data-name="Grupo 66862" transform="translate(903.009 11574.501)">
      <rect id="Rectángulo_9233" data-name="Rectángulo 9233" width="515" height="324" transform="translate(-0.009 -0.501)" fill="#efe3da"/>
      <g id="Grupo_66857" data-name="Grupo 66857" transform="translate(0 -0.034)">
        <g id="Grupo_66856" data-name="Grupo 66856" transform="translate(0 0)" clip-path="url(#clip-path)">
          <path id="Trazado_138732" data-name="Trazado 138732" d="M322.2,187.668a.343.343,0,0,1-.327-.223c-.247-.717-.481-1.451-.692-2.185a.321.321,0,0,1,.241-.4.346.346,0,0,1,.422.227c.208.723.439,1.447.683,2.154a.32.32,0,0,1-.221.408.38.38,0,0,1-.107.016" transform="translate(-100.37 -65.378)" fill="#998368"/>
          <path id="Trazado_138733" data-name="Trazado 138733" d="M452.17,217.067a.339.339,0,0,1-.337-.263.325.325,0,0,1,.274-.377q2.366-.423,4.732-.858a.342.342,0,0,1,.4.254.324.324,0,0,1-.271.379q-2.368.44-4.737.859a.369.369,0,0,1-.065.006m9.462-1.757a.34.34,0,0,1-.337-.257.325.325,0,0,1,.266-.382q2.358-.462,4.709-.954a.344.344,0,0,1,.41.245.323.323,0,0,1-.261.386q-2.354.494-4.718.956a.332.332,0,0,1-.07.007m9.409-1.983a.34.34,0,0,1-.334-.247.323.323,0,0,1,.253-.39c1.618-.369,3.189-.744,4.667-1.113a.344.344,0,0,1,.42.23.321.321,0,0,1-.244.395c-1.482.37-3.057.746-4.68,1.116a.389.389,0,0,1-.081.009M480.358,211a.342.342,0,0,1-.33-.233.32.32,0,0,1,.233-.4c1.559-.429,3.105-.877,4.6-1.334a.349.349,0,0,1,.433.207.32.32,0,0,1-.221.407c-1.5.458-3.052.908-4.616,1.339a.353.353,0,0,1-.1.014m9.167-2.805a.343.343,0,0,1-.323-.213.317.317,0,0,1,.206-.414c1.532-.521,3.044-1.064,4.491-1.615a.353.353,0,0,1,.448.179.317.317,0,0,1-.19.421c-1.455.552-2.975,1.1-4.515,1.622a.369.369,0,0,1-.117.019m8.938-3.4a.345.345,0,0,1-.313-.19.316.316,0,0,1,.172-.428q1.171-.5,2.332-1.02,1.007-.453,2-.928a.354.354,0,0,1,.462.141.313.313,0,0,1-.15.434q-1.005.48-2.019.936-1.167.525-2.346,1.026a.366.366,0,0,1-.142.028m8.6-4.106a.348.348,0,0,1-.3-.163.313.313,0,0,1,.128-.441c1.389-.748,2.772-1.535,4.108-2.342a.358.358,0,0,1,.476.1.312.312,0,0,1-.1.446c-1.346.813-2.738,1.606-4.139,2.358a.357.357,0,0,1-.171.043m8.11-4.9a.35.35,0,0,1-.279-.134.309.309,0,0,1,.078-.45c1.3-.885,2.588-1.807,3.814-2.741a.361.361,0,0,1,.484.048.311.311,0,0,1-.052.455c-1.235.942-2.529,1.871-3.845,2.762a.352.352,0,0,1-.2.061m7.483-5.708a.353.353,0,0,1-.254-.1.31.31,0,0,1,.023-.457c1.184-1.018,2.341-2.077,3.436-3.146a.36.36,0,0,1,.486-.009.309.309,0,0,1,.009.457c-1.106,1.08-2.272,2.148-3.468,3.175a.352.352,0,0,1-.232.085m6.677-6.528a.359.359,0,0,1-.221-.076.31.31,0,0,1-.042-.456c1.033-1.157,2.025-2.351,2.949-3.552a.359.359,0,0,1,.48-.072.311.311,0,0,1,.077.451c-.933,1.213-1.936,2.42-2.98,3.589a.353.353,0,0,1-.263.115m5.639-7.339a.356.356,0,0,1-.18-.047.312.312,0,0,1-.114-.444c.839-1.29,1.624-2.613,2.333-3.934a.354.354,0,0,1,.462-.142.314.314,0,0,1,.152.434c-.718,1.335-1.512,2.674-2.361,3.979a.348.348,0,0,1-.293.154m4.335-8.082a.369.369,0,0,1-.128-.023.317.317,0,0,1-.191-.42c.344-.807.669-1.624.963-2.427q.331-.9.625-1.821a.35.35,0,0,1,.428-.216.32.32,0,0,1,.23.4q-.3.928-.633,1.844c-.3.814-.626,1.641-.975,2.458a.344.344,0,0,1-.319.2m2.784-8.666a.382.382,0,0,1-.071-.007.323.323,0,0,1-.266-.382c.321-1.463.578-2.959.763-4.444a.336.336,0,0,1,.382-.284.328.328,0,0,1,.3.359c-.187,1.5-.448,3.019-.773,4.5a.34.34,0,0,1-.335.258m1.122-8.991h-.01a.333.333,0,0,1-.333-.333q.025-.792.026-1.585c0-.969-.028-1.95-.086-2.917a.331.331,0,0,1,.324-.341.327.327,0,0,1,.362.3c.058.979.088,1.973.087,2.954q0,.8-.025,1.6a.335.335,0,0,1-.344.313m-223.524-4.905a.339.339,0,0,1-.339-.269c-.268-1.485-.465-3.008-.584-4.527a.329.329,0,0,1,.317-.346.337.337,0,0,1,.368.3c.118,1.5.312,3,.577,4.467a.326.326,0,0,1-.281.373.454.454,0,0,1-.058,0m222.985-4.133a.339.339,0,0,1-.34-.277c-.225-1.48-.523-2.968-.885-4.425a.324.324,0,0,1,.257-.388.343.343,0,0,1,.413.241c.366,1.475.668,2.982.9,4.48a.328.328,0,0,1-.292.366.448.448,0,0,1-.049,0m-223.7-4.893h-.006a.332.332,0,0,1-.338-.328c.028-1.512.131-3.043.3-4.551a.333.333,0,0,1,.379-.286.328.328,0,0,1,.3.356c-.171,1.488-.271,3-.3,4.492a.334.334,0,0,1-.344.317m221.5-3.919a.342.342,0,0,1-.326-.222q-.216-.612-.447-1.217c-.4-1.038-.824-2.042-1.268-2.982a.315.315,0,0,1,.175-.426.353.353,0,0,1,.454.164c.452.955.885,1.973,1.288,3.026q.233.612.452,1.232a.32.32,0,0,1-.218.408.377.377,0,0,1-.109.016M320,127.541a.353.353,0,0,1-.068-.006.323.323,0,0,1-.27-.379c.314-1.487.7-2.977,1.155-4.427a.348.348,0,0,1,.427-.22.321.321,0,0,1,.233.4c-.447,1.432-.831,2.9-1.141,4.372a.338.338,0,0,1-.336.26m216.517-3.163a.347.347,0,0,1-.293-.154,26.266,26.266,0,0,0-2.817-3.6.31.31,0,0,1,.03-.456.36.36,0,0,1,.485.028,26.846,26.846,0,0,1,2.887,3.692.311.311,0,0,1-.113.444.353.353,0,0,1-.179.048M322.7,118.855a.371.371,0,0,1-.126-.022.318.318,0,0,1-.195-.419c.592-1.414,1.257-2.814,1.977-4.164a.355.355,0,0,1,.462-.143.315.315,0,0,1,.153.434c-.712,1.33-1.368,2.713-1.952,4.109a.344.344,0,0,1-.32.2m207.431-1.2a.359.359,0,0,1-.208-.066,26.925,26.925,0,0,0-4.029-2.365.314.314,0,0,1-.151-.435.355.355,0,0,1,.462-.141,27.576,27.576,0,0,1,4.135,2.427.31.31,0,0,1,.065.453.351.351,0,0,1-.274.127m-8.526-4.139a.357.357,0,0,1-.11-.017,46.913,46.913,0,0,0-4.611-1.2.323.323,0,0,1-.26-.386.344.344,0,0,1,.41-.245,47.558,47.558,0,0,1,4.681,1.217.318.318,0,0,1,.215.409.341.341,0,0,1-.325.22m-9.386-2.025a.461.461,0,0,1-.052,0c-1.433-.2-2.993-.384-4.772-.561a.328.328,0,0,1-.306-.355.339.339,0,0,1,.378-.288c1.788.178,3.358.362,4.8.564a.326.326,0,0,1,.289.367.337.337,0,0,1-.339.275m-185.194-.72a.365.365,0,0,1-.182-.049.312.312,0,0,1-.109-.445c.859-1.292,1.79-2.552,2.767-3.747a.359.359,0,0,1,.482-.059.31.31,0,0,1,.063.453c-.964,1.178-1.882,2.422-2.73,3.7a.347.347,0,0,1-.291.152m175.6-.271H502.6l-.712-.059c-1.374-.116-2.741-.229-4.093-.355a.329.329,0,0,1-.309-.353.342.342,0,0,1,.376-.289c1.351.125,2.716.24,4.087.354l.712.06a.328.328,0,0,1,.311.35.336.336,0,0,1-.342.295m-9.591-.934a.367.367,0,0,1-.046,0c-1.566-.2-3.173-.429-4.777-.686a.326.326,0,0,1-.282-.373.346.346,0,0,1,.4-.264c1.6.256,3.2.485,4.753.682a.327.327,0,0,1,.295.363.337.337,0,0,1-.34.28m-9.5-1.518a.422.422,0,0,1-.069-.006c-1.533-.293-3.122-.619-4.72-.969a.324.324,0,0,1-.257-.388.346.346,0,0,1,.413-.241c1.591.349,3.173.673,4.7.965a.324.324,0,0,1,.268.381.34.34,0,0,1-.336.259M474.146,106a.359.359,0,0,1-.086-.01c-1.508-.366-3.076-.764-4.663-1.183a.322.322,0,0,1-.238-.4.346.346,0,0,1,.423-.224c1.582.417,3.146.814,4.649,1.18a.322.322,0,0,1,.247.393.341.341,0,0,1-.333.242m-141.244-2.4a.355.355,0,0,1-.235-.087.309.309,0,0,1-.016-.457c1.1-1.1,2.266-2.17,3.477-3.18a.359.359,0,0,1,.485.027.31.31,0,0,1-.029.456c-1.195,1-2.349,2.053-3.432,3.139a.352.352,0,0,1-.25.1m131.958-.043a.378.378,0,0,1-.1-.014q-2.311-.649-4.614-1.33a.32.32,0,0,1-.226-.4.35.35,0,0,1,.431-.212q2.3.677,4.607,1.327a.32.32,0,0,1,.231.4.343.343,0,0,1-.33.231m-9.2-2.706a.357.357,0,0,1-.106-.016q-2.3-.7-4.585-1.411a.318.318,0,0,1-.218-.408.345.345,0,0,1,.434-.205q2.288.71,4.581,1.41a.32.32,0,0,1,.221.407.342.342,0,0,1-.327.224M446.5,98.007a.369.369,0,0,1-.109-.016l-4.575-1.43a.319.319,0,0,1-.218-.408.349.349,0,0,1,.435-.2l4.576,1.43a.319.319,0,0,1,.218.408.344.344,0,0,1-.327.221M340.1,97.58a.351.351,0,0,1-.276-.131.31.31,0,0,1,.072-.452c1.279-.893,2.629-1.754,4.011-2.559a.358.358,0,0,1,.474.1.313.313,0,0,1-.111.445c-1.365.8-2.7,1.647-3.964,2.529a.358.358,0,0,1-.2.063m97.245-2.42a.38.38,0,0,1-.107-.016q-2.289-.7-4.589-1.385a.32.32,0,0,1-.225-.405.349.349,0,0,1,.431-.211q2.3.683,4.6,1.386a.32.32,0,0,1,.221.408.342.342,0,0,1-.327.223M348.276,92.8a.348.348,0,0,1-.306-.175.315.315,0,0,1,.148-.435c1.413-.686,2.889-1.338,4.384-1.937a.351.351,0,0,1,.451.17.317.317,0,0,1-.181.424c-1.479.593-2.939,1.238-4.338,1.917a.368.368,0,0,1-.157.036m79.867-.368a.379.379,0,0,1-.1-.014q-2.3-.655-4.621-1.275a.321.321,0,0,1-.236-.4.344.344,0,0,1,.424-.222q2.321.621,4.632,1.279a.319.319,0,0,1,.23.4.341.341,0,0,1-.329.229m-9.276-2.477a.376.376,0,0,1-.088-.01c-1.584-.393-3.154-.764-4.667-1.1a.323.323,0,0,1-.255-.389.346.346,0,0,1,.415-.24c1.519.341,3.094.714,4.683,1.108a.322.322,0,0,1,.245.395.341.341,0,0,1-.332.24m-61.734-.713a.344.344,0,0,1-.325-.217.318.318,0,0,1,.212-.411c1.5-.49,3.059-.945,4.625-1.351a.347.347,0,0,1,.423.226.321.321,0,0,1-.24.4c-1.552.4-3.094.852-4.582,1.338a.36.36,0,0,1-.113.018m52.355-1.388a.4.4,0,0,1-.072-.006c-1.592-.316-3.18-.607-4.721-.866a.325.325,0,0,1-.278-.375.343.343,0,0,1,.4-.261c1.547.26,3.142.552,4.742.869a.324.324,0,0,1,.265.382.34.34,0,0,1-.336.257m-43.067-1.024a.34.34,0,0,1-.336-.257.323.323,0,0,1,.266-.383c1.563-.309,3.167-.58,4.764-.805a.345.345,0,0,1,.391.271.327.327,0,0,1-.289.368c-1.585.223-3.175.491-4.726.8a.376.376,0,0,1-.071.007M400,86.269a.318.318,0,0,1-.05,0c-1.609-.216-3.215-.4-4.771-.556a.329.329,0,0,1-.306-.355.338.338,0,0,1,.377-.288c1.565.154,3.18.342,4.8.56a.327.327,0,0,1,.291.366.337.337,0,0,1-.34.277m-24.043-.779a.336.336,0,0,1-.342-.293.328.328,0,0,1,.311-.351c1.6-.139,3.225-.236,4.832-.291a.312.312,0,0,1,.357.311.333.333,0,0,1-.331.335c-1.594.054-3.207.151-4.794.289h-.032m14.454-.155h-.021c-1.612-.094-3.228-.154-4.8-.177a.334.334,0,0,1-.338-.328.342.342,0,0,1,.349-.318c1.585.024,3.212.083,4.834.178a.33.33,0,0,1,.322.342.336.336,0,0,1-.343.3" transform="translate(-99.575 -29.869)" fill="#998368"/>
          <path id="Trazado_138734" data-name="Trazado 138734" d="M502.3,291.034a.338.338,0,0,1-.337-.264.324.324,0,0,1,.275-.376l2.368-.412a.342.342,0,0,1,.4.258.325.325,0,0,1-.276.377l-2.367.412a.348.348,0,0,1-.063.006" transform="translate(-156.869 -102.58)" fill="#998368"/>
          <path id="Trazado_138735" data-name="Trazado 138735" d="M58.25,141.352a14.684,14.684,0,0,1-3.048-.318.324.324,0,0,1-.259-.386.346.346,0,0,1,.411-.245,14.03,14.03,0,0,0,4.659.192.339.339,0,0,1,.386.277.327.327,0,0,1-.294.363,14.678,14.678,0,0,1-1.856.117m6.36-1.506a.349.349,0,0,1-.3-.169.314.314,0,0,1,.14-.438A12.963,12.963,0,0,0,68.09,136.5a.359.359,0,0,1,.485-.03.31.31,0,0,1,.032.456,13.618,13.618,0,0,1-3.835,2.878.346.346,0,0,1-.162.039m-13.734-.569a.357.357,0,0,1-.188-.054,13.459,13.459,0,0,1-3.552-3.185.31.31,0,0,1,.074-.452.359.359,0,0,1,.481.071,12.8,12.8,0,0,0,3.375,3.026.311.311,0,0,1,.1.448.349.349,0,0,1-.287.145m19.929-6.1a.368.368,0,0,1-.121-.021.317.317,0,0,1-.2-.415,11.582,11.582,0,0,0,.829-4.313.344.344,0,0,1,.687,0,12.2,12.2,0,0,1-.872,4.54.344.344,0,0,1-.322.211m-25.476-1.056a.34.34,0,0,1-.331-.236,12.219,12.219,0,0,1-.5-3.458c0-.379.017-.762.052-1.136a.338.338,0,0,1,.372-.293.329.329,0,0,1,.313.349c-.033.355-.049.718-.049,1.08a11.61,11.61,0,0,0,.473,3.285.321.321,0,0,1-.24.4.346.346,0,0,1-.092.012m26.105-5.663a.339.339,0,0,1-.338-.264,11.711,11.711,0,0,0-1.653-4.1.313.313,0,0,1,.117-.443.355.355,0,0,1,.472.109,12.36,12.36,0,0,1,1.739,4.314.325.325,0,0,1-.276.376.341.341,0,0,1-.063.005m-25.277-3.155a.354.354,0,0,1-.148-.031.315.315,0,0,1-.161-.432,12.966,12.966,0,0,1,2.879-3.735.358.358,0,0,1,.486.009.309.309,0,0,1-.01.457,12.342,12.342,0,0,0-2.736,3.55.347.347,0,0,1-.31.182m20.42-4.427a.361.361,0,0,1-.214-.071,13.276,13.276,0,0,0-4.11-2.067.32.32,0,0,1-.222-.406.352.352,0,0,1,.432-.209,13.979,13.979,0,0,1,4.328,2.177.31.31,0,0,1,.056.454.353.353,0,0,1-.269.122m-13.627-1.7a.344.344,0,0,1-.316-.194.315.315,0,0,1,.179-.424,14.36,14.36,0,0,1,4.782-1.035.324.324,0,1,1,.032.646,13.644,13.644,0,0,0-4.543.982.355.355,0,0,1-.135.026" transform="translate(-13.907 -40.843)" fill="#fff"/>
          <path id="Trazado_138736" data-name="Trazado 138736" d="M673.709,270.185h-.026a12.472,12.472,0,0,1-4.725-1.284.313.313,0,0,1-.143-.437.356.356,0,0,1,.465-.134,11.751,11.751,0,0,0,4.454,1.209.332.332,0,0,1,.318.347.338.338,0,0,1-.342.3m4.736-.581a.341.341,0,0,1-.324-.216.318.318,0,0,1,.21-.412,11.431,11.431,0,0,0,3.972-2.249.357.357,0,0,1,.485.017.309.309,0,0,1-.019.456,12.109,12.109,0,0,1-4.211,2.386.361.361,0,0,1-.113.018m-13-3.536a.353.353,0,0,1-.269-.121,10.976,10.976,0,0,1-2.212-4.128.322.322,0,0,1,.243-.4.344.344,0,0,1,.421.229,10.34,10.34,0,0,0,2.086,3.892.311.311,0,0,1-.055.454.357.357,0,0,1-.214.07m19.861-2.441a.367.367,0,0,1-.138-.027.315.315,0,0,1-.177-.425,10.043,10.043,0,0,0,.945-4.267.344.344,0,0,1,.687,0,10.647,10.647,0,0,1-1,4.525.345.345,0,0,1-.315.194m.9-5.592a.337.337,0,0,1-.341-.288,10.1,10.1,0,0,0-1.434-4.143.313.313,0,0,1,.127-.441.357.357,0,0,1,.47.119,10.716,10.716,0,0,1,1.521,4.395.329.329,0,0,1-.3.356l-.038,0m-23.172-.459a.366.366,0,0,1-.052,0,.327.327,0,0,1-.288-.368,10.779,10.779,0,0,1,1.719-4.331.361.361,0,0,1,.475-.1.313.313,0,0,1,.107.446,10.153,10.153,0,0,0-1.621,4.082.338.338,0,0,1-.339.275m18.522-7.165a.356.356,0,0,1-.206-.064,11.567,11.567,0,0,0-4.208-1.828.323.323,0,0,1-.258-.387.345.345,0,0,1,.412-.243,12.277,12.277,0,0,1,4.464,1.94.311.311,0,0,1,.071.452.351.351,0,0,1-.276.13m-13.53-.269a.349.349,0,0,1-.284-.141.311.311,0,0,1,.091-.449,12.337,12.337,0,0,1,4.547-1.76.342.342,0,0,1,.4.258.324.324,0,0,1-.274.377,11.628,11.628,0,0,0-4.287,1.659.354.354,0,0,1-.193.056" transform="translate(-207.101 -87.65)" fill="#fff"/>
          <path id="Trazado_138737" data-name="Trazado 138737" d="M550.187,90.908A3.1,3.1,0,1,1,547.094,88a3.005,3.005,0,0,1,3.094,2.908" transform="translate(-170.008 -31.103)" fill="#fff"/>
          <path id="Trazado_138738" data-name="Trazado 138738" d="M72.875,104.231A3.444,3.444,0,1,1,69.437,101a3.339,3.339,0,0,1,3.437,3.231" transform="translate(-20.626 -35.704)" fill="#fff"/>
          <path id="Trazado_138739" data-name="Trazado 138739" d="M688.125,235.938A2.066,2.066,0,1,1,686.062,234a2,2,0,0,1,2.062,1.938" transform="translate(-213.761 -82.771)" fill="#fff"/>
          <path id="Trazado_138740" data-name="Trazado 138740" d="M315.562,112.554A3.788,3.788,0,1,1,311.781,109a3.672,3.672,0,0,1,3.781,3.554" transform="translate(-96.255 -38.535)" fill="#fff"/>
          <path id="Trazado_138741" data-name="Trazado 138741" d="M665.384,208.1a6.6,6.6,0,0,0-7.1-6.045c-1.759.217-3.333,1.113-5.024,1.617s-3.79.516-4.968-.731a20.36,20.36,0,0,1-1.478-2.518,5.278,5.278,0,0,0-4.878-1.856,10.42,10.42,0,0,0-4.943,2.206,6.6,6.6,0,0,1-2.5,1.424,4.454,4.454,0,0,1-4.157-1.973c-.964-1.252-1.548-2.742-2.578-3.946-2.771-3.242-8.5-3.428-11.88-.742-3.141,2.5-3.684,8.625-2.393,12.564Z" transform="translate(-191.519 -68.498)" fill="#fff"/>
          <path id="Trazado_138742" data-name="Trazado 138742" d="M189.446,115.295c-1.335-3.159-5.58-6.123-8.907-5.317-2.191.53-4.418,2.051-6.491,1.2-2.242-.921-2.469-3.908-4.269-5.465-2.259-1.953-5.874-.937-8.64.315s-6.091,2.633-8.726,1.152c-3.1-1.745-2.83-6.018-4.531-9.017-2.5-4.4-9.269-5.3-14-3.037s-7.764,6.749-10.087,11.235c-1.193,2.307-3.081,5.1-5.762,4.626-1.761-.313-2.825-1.947-4.169-3.062a8.226,8.226,0,0,0-9.228-.6,7.142,7.142,0,0,0-3.081,7.969Z" transform="translate(-31.649 -33.2)" fill="#fff"/>
          <path id="Trazado_138743" data-name="Trazado 138743" d="M549.276,280.167a.7.7,0,0,1-.56-.272c-8.261-10.942-11.4-23.241-9.087-35.568,2.032-10.815,7.938-18.871,14.189-27.4,1.083-1.476,2.179-2.972,3.272-4.5.47-.658.975-1.36,1.5-2.093,2.4-3.332,5.381-7.479,7.422-10.892a.693.693,0,0,1,.558-.328.719.719,0,0,1,.6.263c1.063,1.365,2.1,2.778,3.115,4.174-.669-2.656-1.343-5.379-1.913-8.085a.612.612,0,0,1,.043-.383c.28-.6.58-1.218.884-1.836a39.874,39.874,0,0,0,1.787-4.005c5.52-15.5,5.818-27.333.994-39.568a.629.629,0,0,1,.316-.791.715.715,0,0,1,.879.18c18.1,22.713,25.043,50.127,18.584,73.332-2.282,8.2-6.089,13.484-11.637,20.607a.735.735,0,0,1-.6.263.692.692,0,0,1-.558-.337c-1.218-2.11-2.542-4.138-3.84-6.1.608,2.861,1.265,5.75,2.071,8.547a.62.62,0,0,1-.171.619c-3.415,3.31-6.414,5.725-10.21,8.783-9.313,7.5-14.7,15.408-16.965,24.895a.67.67,0,0,1-.536.492.794.794,0,0,1-.135.012m-8.293-35.616c-2.168,11.538.593,23.061,7.986,33.414,2.518-9.148,7.963-16.861,17.034-24.167,3.682-2.966,6.6-5.316,9.861-8.451-1.048-3.7-1.841-7.53-2.61-11.237l-.109-.527a.641.641,0,0,1,.426-.726.71.71,0,0,1,.835.267c.532.819,1.068,1.629,1.6,2.436,1.246,1.886,2.531,3.829,3.739,5.855,5.111-6.6,8.647-11.686,10.78-19.352,6.035-21.682.146-47.132-15.752-68.826,3.411,11.15,2.639,22.3-2.386,36.41a40.784,40.784,0,0,1-1.843,4.136c-.268.547-.535,1.089-.785,1.625.64,3.015,1.409,6.059,2.154,9l.564,2.239a.638.638,0,0,1-.392.739.713.713,0,0,1-.845-.225q-.644-.884-1.286-1.774c-1.064-1.471-2.158-2.983-3.275-4.448-2.03,3.271-4.738,7.035-6.95,10.11-.526.731-1.03,1.431-1.5,2.089-1.1,1.537-2.2,3.037-3.282,4.518-6.164,8.41-11.987,16.353-13.967,26.891" transform="translate(-168.411 -52.619)" fill="#bfa586"/>
          <path id="Trazado_138744" data-name="Trazado 138744" d="M528.309,314.78c6.948-3.2,16.392-2.561,20.959-8.432,2.6-3.34,2.7-7.847,4.656-11.554a14.665,14.665,0,0,1,12.832-7.427c2.685.017,5.421.743,8.015.09,6.257-1.575,7.962-9.882,13.931-12.249,2.52-1,5.388-.75,8.058-1.31,4.207-.883,7.661-3.707,11.744-5s9.834-.071,10.568,3.921a8.776,8.776,0,0,1-.779,4.479q-1.985,5.482-3.969,10.963c-1.672,4.619-3.714,9.662-8.3,11.948-4.287,2.137-9.942,1.349-13.72,4.211-4.777,3.619-4.062,11.131-8.566,15.047-5.476,4.76-15.924,1.919-20.323,7.58a17.39,17.39,0,0,0-2.219,4.837c-3.214,8.69-10.816,16.243-20.389,18.16-8.3,1.662-21.29-2.23-23.424-10.995-2.01-8.256,2.781-20.507,10.926-24.263" transform="translate(-161.547 -94.944)" fill="#bfa586"/>
          <path id="Trazado_138745" data-name="Trazado 138745" d="M638.792,274.7c-13.735,10.766-29.383,22.573-43.54,32.844,13.734-10.768,29.385-22.571,43.54-32.844" transform="translate(-186.025 -97.174)" fill="#998368"/>
          <path id="Trazado_138746" data-name="Trazado 138746" d="M637.6,277.7a76.374,76.374,0,0,1-5.1,11.563,76.473,76.473,0,0,1,5.1-11.563" transform="translate(-197.667 -98.235)" fill="#998368"/>
          <path id="Trazado_138747" data-name="Trazado 138747" d="M640.689,304.031q-10.833,1.346-21.771,1.723,10.834-1.35,21.771-1.723" transform="translate(-193.422 -107.554)" fill="#998368"/>
          <path id="Trazado_138748" data-name="Trazado 138748" d="M612.006,289.7a151.484,151.484,0,0,1-4.941,17.015,151.612,151.612,0,0,1,4.941-17.015" transform="translate(-189.717 -102.482)" fill="#998368"/>
          <path id="Trazado_138749" data-name="Trazado 138749" d="M612.781,326.483a116.73,116.73,0,0,1-14.967-2.827,116.625,116.625,0,0,1,14.967,2.827" transform="translate(-186.826 -114.5)" fill="#998368"/>
          <path id="Trazado_138750" data-name="Trazado 138750" d="M176.445,323.705c-11.605,0-27.343-8.972-30.254-20.549a47.291,47.291,0,0,1-.974-10.741c-.091-6.208-.177-12.071-4.2-16.418-2.082-2.253-4.879-3.653-7.841-5.137a38.954,38.954,0,0,1-6.327-3.683,17.76,17.76,0,0,1-6.55-18.1c.28-1.118.676-2.22,1.059-3.286a16.253,16.253,0,0,0,1.363-6.074c-.155-3.918-3.027-6.951-6.068-10.162-2.8-2.957-5.7-6.015-6.429-9.908a19.244,19.244,0,0,1,.185-6.245,29.375,29.375,0,0,0,.368-3.858,28.487,28.487,0,0,0-1.7-8.431,38.034,38.034,0,0,1-1.659-6.954,12.632,12.632,0,0,1,3.334-9.907,7.49,7.49,0,0,1,5.738-2.272,14.044,14.044,0,0,1,6.145,2.32l13.653,7.9c6.123,3.546,12.25,7.527,14.034,13.738a25.1,25.1,0,0,1,.5,8.1c-.155,3.362-.3,6.537,1.165,9.361,1.713,3.295,5.142,5.226,8.773,7.271,3.45,1.943,7.018,3.952,9.042,7.259,2.379,3.886,2.061,8.573,1.751,13.106-.342,5.026-.665,9.774,2.525,13.222a19.23,19.23,0,0,0,4.663,3.3q.54.307,1.072.618c11.682,6.863,19.117,18.689,18.942,30.127-.154,10.1-9.13,25.38-22.309,25.39ZM147.53,302.859c2.723,10.836,18.042,19.554,28.916,19.554h.014c12.364-.009,20.787-14.521,20.934-24.117.168-11-7.012-22.383-18.3-29.012-.349-.2-.7-.407-1.057-.609a20.172,20.172,0,0,1-4.987-3.561c-3.56-3.849-3.2-9.086-2.859-14.152.3-4.341.6-8.83-1.571-12.378-1.847-3.015-5.106-4.852-8.558-6.8-3.642-2.052-7.41-4.174-9.3-7.813-1.62-3.118-1.46-6.608-1.3-9.984a24.215,24.215,0,0,0-.458-7.712c-1.652-5.755-7.54-9.564-13.428-12.975l-13.653-7.9a12.75,12.75,0,0,0-5.5-2.13,6.071,6.071,0,0,0-4.669,1.872,11.321,11.321,0,0,0-2.962,8.885,37.237,37.237,0,0,0,1.613,6.728,29.831,29.831,0,0,1,1.75,8.795,30.222,30.222,0,0,1-.379,4.019,18.062,18.062,0,0,0-.194,5.852c.665,3.533,3.429,6.451,6.1,9.274,3.068,3.24,6.242,6.59,6.416,10.973a17.445,17.445,0,0,1-1.435,6.535c-.373,1.038-.759,2.111-1.024,3.169a16.491,16.491,0,0,0,6.08,16.8,37.93,37.93,0,0,0,6.1,3.543c2.942,1.473,5.985,3,8.233,5.429,4.35,4.7,4.443,11.081,4.534,17.249a46.33,46.33,0,0,0,.938,10.462" transform="translate(-33.552 -64.358)" fill="#bfa586"/>
          <path id="Trazado_138751" data-name="Trazado 138751" d="M158.962,312.465c-9.22-9.606-21.514-16.093-33.942-21.656-4.459-2-9-3.92-13.292-6.209l-1.674,7.925L108.063,282.5a49.18,49.18,0,0,1-4.392-3.03,40.078,40.078,0,0,1-15.551-31.833c-6.323,22.591-5.925,49.412,11.463,66.1a64.6,64.6,0,0,0,20.35,12.695l.3-11.006,4.687,12.916c5.1,1.81,10.366,3.285,15.6,4.573,11.536,2.835,23.561,6.266,30.874,15.118,2.583-12.708-3.215-25.965-12.435-35.572" transform="translate(-26.371 -87.597)" fill="#bfa586"/>
          <path id="Trazado_138752" data-name="Trazado 138752" d="M88.919,262.364c1.209,15.81,7.239,31.774,18.751,43.548,8.658,8.823,20.526,14.512,33,16.764l1.557.318,1.576.218c3.037.489,6.449.748,9.509.963-2.121-.14-4.251-.207-6.369-.406-1.1-.127-3.7-.448-4.753-.571-2.438-.447-5.426-.973-7.789-1.662a60.982,60.982,0,0,1-17.385-7.485c-17.911-11.346-27.081-31.89-28.1-51.688" transform="translate(-27.789 -92.809)" fill="#998368"/>
          <path id="Trazado_138753" data-name="Trazado 138753" d="M441.777,326.3H187.408a5.008,5.008,0,0,1-5.156-4.846V166.385a5.008,5.008,0,0,1,5.156-4.846H441.777a5.008,5.008,0,0,1,5.156,4.846V321.451a5.008,5.008,0,0,1-5.156,4.846" transform="translate(-56.957 -57.128)" fill="#fff"/>
          <path id="Trazado_138754" data-name="Trazado 138754" d="M559,286.444a5.051,5.051,0,1,1-5.041-4.738A4.9,4.9,0,0,1,559,286.444" transform="translate(-171.545 -99.654)" fill="#9ca7b0"/>
          <rect id="Rectángulo_9234" data-name="Rectángulo 9234" width="239.932" height="159.266" transform="translate(134.92 107.157)" fill="#bfa586"/>
          <path id="Trazado_138755" data-name="Trazado 138755" d="M477.335,376.829h-4.812v-1.292h3.437v-3.231h1.375Z" transform="translate(-147.671 -131.716)" fill="#fff"/>
          <path id="Trazado_138756" data-name="Trazado 138756" d="M418.417,378.6h-8.382v-1.292h8.382Zm-16.764,0h-8.382v-1.292h8.382Zm-16.764,0h-8.382v-1.292h8.382Zm-16.764,0h-8.382v-1.292h8.382Zm-16.764,0h-8.382v-1.292h8.382Zm-16.764,0h-8.382v-1.292H334.6Z" transform="translate(-101.947 -133.486)" fill="#fff"/>
          <path id="Trazado_138757" data-name="Trazado 138757" d="M311.835,376.829h-4.812v-4.523H308.4v3.231h3.437Z" transform="translate(-95.949 -131.716)" fill="#fff"/>
          <path id="Trazado_138758" data-name="Trazado 138758" d="M308.4,312.651h-1.375v-7.877H308.4Zm0-15.755h-1.375v-7.877H308.4Zm0-15.755h-1.375v-7.877H308.4Zm0-15.755h-1.375v-7.877H308.4Zm0-15.755h-1.375v-7.877H308.4Zm0-15.755h-1.375V226H308.4Z" transform="translate(-95.949 -79.94)" fill="#fff"/>
          <path id="Trazado_138759" data-name="Trazado 138759" d="M308.4,211.328h-1.375v-4.523h4.812V208.1H308.4Z" transform="translate(-95.949 -73.147)" fill="#fff"/>
          <path id="Trazado_138760" data-name="Trazado 138760" d="M418.418,208.1h-8.382V206.8h8.382Zm-16.764,0h-8.382V206.8h8.382Zm-16.764,0h-8.382V206.8h8.382Zm-16.764,0h-8.382V206.8h8.382Zm-16.764,0H342.98V206.8h8.382Zm-16.764,0h-8.382V206.8H334.6Z" transform="translate(-101.948 -73.147)" fill="#fff"/>
          <path id="Trazado_138761" data-name="Trazado 138761" d="M477.335,211.328H475.96V208.1h-3.437v-1.292h4.812Z" transform="translate(-147.671 -73.147)" fill="#fff"/>
          <path id="Trazado_138762" data-name="Trazado 138762" d="M478.9,312.651h-1.375v-7.877H478.9Zm0-15.755h-1.375v-7.877H478.9Zm0-15.755h-1.375v-7.877H478.9Zm0-15.755h-1.375v-7.877H478.9Zm0-15.755h-1.375v-7.877H478.9Zm0-15.755h-1.375V226H478.9Z" transform="translate(-149.233 -79.939)" fill="#fff"/>
          <path id="Trazado_138763" data-name="Trazado 138763" d="M485.647,199.8c0,7.672-6.618,13.891-14.781,13.891s-14.781-6.219-14.781-13.891,6.618-13.891,14.781-13.891,14.781,6.219,14.781,13.891" transform="translate(-142.534 -65.752)" fill="#fdb32c"/>
          <path id="Trazado_138764" data-name="Trazado 138764" d="M481.777,201.8h-5.925v-5.568H472.33V201.8h-5.925v3.311h5.925v5.568h3.523v-5.568h5.925Z" transform="translate(-145.759 -69.404)" fill="#fff"/>
          <path id="Trazado_138765" data-name="Trazado 138765" d="M367.7,261.426a7.016,7.016,0,1,1-7-6.581,6.8,6.8,0,0,1,7,6.581" transform="translate(-110.535 -90.148)" fill="#fff"/>
          <path id="Trazado_138766" data-name="Trazado 138766" d="M414.879,320.8V274.372a16.068,16.068,0,0,0-8.671-1.864,19.836,19.836,0,0,0-11.911,5.3c-2.4,2.2-4.244,4.868-6.377,7.3a43.486,43.486,0,0,1-7.311,6.623,13.663,13.663,0,0,1-4.632,2.378,12.885,12.885,0,0,1-5.558-.108c-4.014-.81-7.762-2.49-11.659-3.7s-8.16-1.952-12.087-.827c-4.8,1.376-8.158,5.2-11.021,9.177V320.8Z" transform="translate(-104.896 -96.386)" fill="#fff"/>
          <rect id="Rectángulo_9235" data-name="Rectángulo 9235" width="45.374" height="160.128" transform="translate(134.92 106.547)" fill="#998368"/>
          <path id="Trazado_138767" data-name="Trazado 138767" d="M253.9,226.429H252.47v-.384h1.021v-.959h.408Z" transform="translate(-78.901 -79.617)" fill="#fff"/>
          <path id="Trazado_138768" data-name="Trazado 138768" d="M236.4,226.955h-2.489v-.384H236.4Zm-4.977,0h-2.489v-.384h2.489Zm-4.977,0h-2.489v-.384h2.489Zm-4.978,0h-2.489v-.384h2.489Zm-4.977,0h-2.489v-.384h2.489Zm-4.978,0h-2.489v-.384h2.489Z" transform="translate(-65.325 -80.142)" fill="#fff"/>
          <path id="Trazado_138769" data-name="Trazado 138769" d="M204.759,226.429H203.33v-1.343h.408v.959h1.021Z" transform="translate(-63.544 -79.617)" fill="#fff"/>
          <path id="Trazado_138770" data-name="Trazado 138770" d="M203.738,207.373h-.408v-2.339h.408Zm0-4.678h-.408v-2.339h.408Zm0-4.678h-.408v-2.339h.408Zm0-4.679h-.408V191h.408Zm0-4.678h-.408v-2.339h.408Zm0-4.678h-.408v-2.339h.408Z" transform="translate(-63.544 -64.243)" fill="#fff"/>
          <path id="Trazado_138771" data-name="Trazado 138771" d="M203.738,177.289h-.408v-1.343h1.429v.384h-1.021Z" transform="translate(-63.544 -62.226)" fill="#fff"/>
          <path id="Trazado_138772" data-name="Trazado 138772" d="M236.406,176.33h-2.489v-.384h2.489Zm-4.978,0h-2.489v-.384h2.489Zm-4.977,0h-2.489v-.384h2.489Zm-4.978,0h-2.489v-.384h2.489Zm-4.977,0h-2.489v-.384H216.5Zm-4.977,0h-2.489v-.384h2.489Z" transform="translate(-65.325 -62.227)" fill="#fff"/>
          <path id="Trazado_138773" data-name="Trazado 138773" d="M253.9,177.289h-.408v-.959H252.47v-.384H253.9Z" transform="translate(-78.901 -62.226)" fill="#fff"/>
          <path id="Trazado_138774" data-name="Trazado 138774" d="M254.363,207.374h-.408v-2.339h.408Zm0-4.678h-.408v-2.339h.408Zm0-4.678h-.408v-2.339h.408Zm0-4.678h-.408V191h.408Zm0-4.678h-.408v-2.339h.408Zm0-4.678h-.408v-2.339h.408Z" transform="translate(-79.365 -64.243)" fill="#fff"/>
          <path id="Trazado_138775" data-name="Trazado 138775" d="M221.144,191.851a2.139,2.139,0,1,1-2.135-2.006,2.073,2.073,0,0,1,2.135,2.006" transform="translate(-67.777 -67.145)" fill="#fff"/>
          <path id="Trazado_138776" data-name="Trazado 138776" d="M235.526,209.949V195.8a4.9,4.9,0,0,0-2.643-.569,6.05,6.05,0,0,0-3.631,1.615,27.454,27.454,0,0,0-1.944,2.225,13.252,13.252,0,0,1-2.229,2.018,4.159,4.159,0,0,1-1.411.725,3.918,3.918,0,0,1-1.695-.033,36.342,36.342,0,0,1-3.554-1.128,6.521,6.521,0,0,0-3.684-.253,6.629,6.629,0,0,0-3.359,2.8v6.753Z" transform="translate(-66.058 -69.047)" fill="#fff"/>
          <path id="Trazado_138777" data-name="Trazado 138777" d="M253.9,309.763H252.47v-.384h1.021v-.959h.408Z" transform="translate(-78.901 -109.108)" fill="#fff"/>
          <path id="Trazado_138778" data-name="Trazado 138778" d="M236.4,310.288h-2.489V309.9H236.4Zm-4.977,0h-2.489V309.9h2.489Zm-4.977,0h-2.489V309.9h2.489Zm-4.978,0h-2.489V309.9h2.489Zm-4.977,0h-2.489V309.9h2.489Zm-4.978,0h-2.489V309.9h2.489Z" transform="translate(-65.325 -109.633)" fill="#fff"/>
          <path id="Trazado_138779" data-name="Trazado 138779" d="M204.759,309.763H203.33V308.42h.408v.959h1.021Z" transform="translate(-63.544 -109.108)" fill="#fff"/>
          <path id="Trazado_138780" data-name="Trazado 138780" d="M203.738,290.707h-.408v-2.339h.408Zm0-4.678h-.408v-2.339h.408Zm0-4.678h-.408v-2.339h.408Zm0-4.678h-.408v-2.339h.408Zm0-4.678h-.408v-2.339h.408Zm0-4.678h-.408v-2.339h.408Z" transform="translate(-63.544 -93.734)" fill="#fff"/>
          <path id="Trazado_138781" data-name="Trazado 138781" d="M203.738,260.622h-.408V259.28h1.429v.384h-1.021Z" transform="translate(-63.544 -91.717)" fill="#fff"/>
          <path id="Trazado_138782" data-name="Trazado 138782" d="M236.406,259.663h-2.489v-.384h2.489Zm-4.978,0h-2.489v-.384h2.489Zm-4.977,0h-2.489v-.384h2.489Zm-4.978,0h-2.489v-.384h2.489Zm-4.977,0h-2.489v-.384H216.5Zm-4.977,0h-2.489v-.384h2.489Z" transform="translate(-65.325 -91.717)" fill="#fff"/>
          <path id="Trazado_138783" data-name="Trazado 138783" d="M253.9,260.622h-.408v-.959H252.47v-.384H253.9Z" transform="translate(-78.901 -91.717)" fill="#fff"/>
          <path id="Trazado_138784" data-name="Trazado 138784" d="M254.363,290.707h-.408v-2.339h.408Zm0-4.678h-.408V283.69h.408Zm0-4.678h-.408v-2.339h.408Zm0-4.678h-.408v-2.339h.408Zm0-4.678h-.408v-2.339h.408Zm0-4.678h-.408v-2.339h.408Z" transform="translate(-79.365 -93.734)" fill="#fff"/>
          <path id="Trazado_138785" data-name="Trazado 138785" d="M221.144,275.184a2.139,2.139,0,1,1-2.135-2.006,2.073,2.073,0,0,1,2.135,2.006" transform="translate(-67.777 -96.636)" fill="#fff"/>
          <path id="Trazado_138786" data-name="Trazado 138786" d="M235.526,293.282V279.131a4.894,4.894,0,0,0-2.643-.569,6.05,6.05,0,0,0-3.631,1.615,27.351,27.351,0,0,0-1.944,2.225,13.254,13.254,0,0,1-2.229,2.018,4.16,4.16,0,0,1-1.411.725,3.928,3.928,0,0,1-1.695-.033,36.181,36.181,0,0,1-3.554-1.129,6.526,6.526,0,0,0-3.684-.252,6.629,6.629,0,0,0-3.359,2.8v6.753Z" transform="translate(-66.058 -98.538)" fill="#fff"/>
          <path id="Trazado_138787" data-name="Trazado 138787" d="M253.9,393.1H252.47v-.384h1.021v-.959h.408Z" transform="translate(-78.901 -138.598)" fill="#fff"/>
          <path id="Trazado_138788" data-name="Trazado 138788" d="M236.4,393.621h-2.489v-.384H236.4Zm-4.977,0h-2.489v-.384h2.489Zm-4.977,0h-2.489v-.384h2.489Zm-4.978,0h-2.489v-.384h2.489Zm-4.977,0h-2.489v-.384h2.489Zm-4.978,0h-2.489v-.384h2.489Z" transform="translate(-65.325 -139.124)" fill="#fff"/>
          <path id="Trazado_138789" data-name="Trazado 138789" d="M204.759,393.1H203.33v-1.343h.408v.959h1.021Z" transform="translate(-63.544 -138.598)" fill="#fff"/>
          <path id="Trazado_138790" data-name="Trazado 138790" d="M203.738,374.041h-.408V371.7h.408Zm0-4.678h-.408v-2.339h.408Zm0-4.678h-.408v-2.339h.408Zm0-4.678h-.408v-2.339h.408Zm0-4.678h-.408V352.99h.408Zm0-4.678h-.408v-2.339h.408Z" transform="translate(-63.544 -123.225)" fill="#fff"/>
          <path id="Trazado_138791" data-name="Trazado 138791" d="M203.738,343.955h-.408v-1.343h1.429V343h-1.021Z" transform="translate(-63.544 -121.208)" fill="#fff"/>
          <path id="Trazado_138792" data-name="Trazado 138792" d="M236.406,343h-2.489v-.384h2.489Zm-4.978,0h-2.489v-.384h2.489Zm-4.977,0h-2.489v-.384h2.489Zm-4.978,0h-2.489v-.384h2.489Zm-4.977,0h-2.489v-.384H216.5Zm-4.977,0h-2.489v-.384h2.489Z" transform="translate(-65.325 -121.208)" fill="#fff"/>
          <path id="Trazado_138793" data-name="Trazado 138793" d="M253.9,343.955h-.408V343H252.47v-.384H253.9Z" transform="translate(-78.901 -121.208)" fill="#fff"/>
          <path id="Trazado_138794" data-name="Trazado 138794" d="M254.363,374.04h-.408V371.7h.408Zm0-4.678h-.408v-2.339h.408Zm0-4.678h-.408v-2.339h.408Zm0-4.678h-.408v-2.339h.408Zm0-4.678h-.408v-2.339h.408Zm0-4.678h-.408v-2.339h.408Z" transform="translate(-79.365 -123.225)" fill="#fff"/>
          <path id="Trazado_138795" data-name="Trazado 138795" d="M221.144,358.517a2.139,2.139,0,1,1-2.135-2.006,2.073,2.073,0,0,1,2.135,2.006" transform="translate(-67.777 -126.127)" fill="#fff"/>
          <path id="Trazado_138796" data-name="Trazado 138796" d="M235.526,376.615V362.464a4.894,4.894,0,0,0-2.643-.569,6.05,6.05,0,0,0-3.631,1.615,27.469,27.469,0,0,0-1.944,2.225,13.254,13.254,0,0,1-2.229,2.019,4.158,4.158,0,0,1-1.411.725,3.918,3.918,0,0,1-1.695-.033,36.026,36.026,0,0,1-3.554-1.129,6.526,6.526,0,0,0-3.684-.252,6.629,6.629,0,0,0-3.359,2.8v6.753Z" transform="translate(-66.058 -128.028)" fill="#fff"/>
          <rect id="Rectángulo_9236" data-name="Rectángulo 9236" width="42.624" height="0.646" transform="translate(136.725 156.055)" fill="#fff"/>
          <rect id="Rectángulo_9237" data-name="Rectángulo 9237" width="42.624" height="0.646" transform="translate(136.725 212.267)" fill="#fff"/>
          <path id="Trazado_138797" data-name="Trazado 138797" d="M198.319,394.69s5.027.045,7.535-2.036a.537.537,0,0,1,.51-.107.67.67,0,0,1,.467.764.464.464,0,0,1-.223.348l-10.93,6.946a1.041,1.041,0,0,1-1.294-.144,7.492,7.492,0,0,1-1.664-2.812l2.111-1.9Z" transform="translate(-60.228 -138.871)" fill="#fa9778"/>
          <path id="Trazado_138798" data-name="Trazado 138798" d="M200.234,394.13a3.277,3.277,0,0,0-.3,2.032c.151.388-1.014,1.006-2.207,1.522a8.823,8.823,0,0,1-3.892.644.861.861,0,0,0-.565.1c-.348.315,1.251,2.576,1.857,2.475.558-.093,11.208-6.714,12.892-7.763a.257.257,0,0,0,.085-.366c-.259-.39-.855-1.118-1.536-.826-.914.392-6.334,2.177-6.334,2.177" transform="translate(-60.384 -138.645)" fill="#fdb32c"/>
          <path id="Trazado_138799" data-name="Trazado 138799" d="M137.21,410.338s4.137,2.684,7.456,2.28a.53.53,0,0,1,.486.18.642.642,0,0,1-.067.879.514.514,0,0,1-.393.171H131.5a.977.977,0,0,1-.987-.8,7.165,7.165,0,0,1,.3-3.206l2.879-.459Z" transform="translate(-40.767 -144.838)" fill="#fa9778"/>
          <path id="Trazado_138800" data-name="Trazado 138800" d="M138.592,411.565s-1.231.757-1.42,1.558c-.1.4-1.431.332-2.732.162a8.642,8.642,0,0,1-3.646-1.432.85.85,0,0,0-.536-.2c-.474.089-.426,2.8.142,3.026.523.2,13.29.032,15.311,0a.276.276,0,0,0,.283-.265c.005-.46-.078-1.375-.819-1.474-.994-.133-6.582-1.379-6.582-1.379" transform="translate(-40.607 -145.61)" fill="#fdb32c"/>
          <path id="Trazado_138801" data-name="Trazado 138801" d="M126.95,312.41s-4.211,7.188-1.891,15.426,7.476,23.664,7.133,27.217-4.039,19.706-4.039,19.706l8.508.727s7.39-19.706,7.476-27.783-3.523-20.433-3.523-20.433l30.7,41.493,6.123-3.594s-22.387-45.248-36.652-55.262Z" transform="translate(-38.865 -109.634)" fill="#f46a2b"/>
          <path id="Trazado_138802" data-name="Trazado 138802" d="M131.518,322.281a8.462,8.462,0,0,1-.5,2.65,5.845,5.845,0,0,1-1.394,2.357c.181-.421.317-.841.471-1.255l.433-1.252a24.553,24.553,0,0,1,.987-2.5" transform="translate(-40.51 -114.013)" fill="#121b46"/>
          <path id="Trazado_138803" data-name="Trazado 138803" d="M128.5,320.531a33.27,33.27,0,0,0,.426,4.748,16.985,16.985,0,0,0,1.339,4.553,27.622,27.622,0,0,1,1.325,4.638c.355,1.559.661,3.126.946,4.7,1.157,6.276,2.117,12.578,2.981,18.893l0,.034-.007.034c-.646,3.271-1.332,6.534-2.007,9.8s-1.391,6.524-2.085,9.787c.6-3.28,1.158-6.564,1.782-9.839s1.217-6.555,1.86-9.826l0,.067c-.452-3.152-.937-6.3-1.431-9.447s-.984-6.294-1.541-9.43c-.281-1.568-.568-3.135-.884-4.695a27.58,27.58,0,0,0-1.212-4.593,15.822,15.822,0,0,1-1.231-4.649,33.346,33.346,0,0,1-.263-4.769" transform="translate(-40.157 -113.394)" fill="#121b46"/>
          <path id="Trazado_138804" data-name="Trazado 138804" d="M151,338.406l3.765,4.677,3.706,4.718c2.461,3.152,4.878,6.334,7.3,9.516,2.386,3.2,4.777,6.4,7.094,9.65a114.819,114.819,0,0,1,6.585,9.963l-.786-1.266c-.272-.415-.563-.821-.844-1.231-.557-.824-1.156-1.624-1.739-2.433q-1.747-2.426-3.543-4.823-3.573-4.8-7.188-9.582l-7.2-9.579-3.589-4.8Z" transform="translate(-47.191 -119.719)" fill="#121b46"/>
          <path id="Trazado_138805" data-name="Trazado 138805" d="M182.386,320.906c.223-.272,1.175-.132,1.647.019a.164.164,0,0,0,.219-.118c.039-.193.007-.5-.478-.689a9.654,9.654,0,0,0-3.488-.712c-.561-.534-1.42-1.353-2.507-2.392q-1.184,1.784-2.365,3.57,1.838.873,3.773,1.577a14.35,14.35,0,0,0,2.952,3.564.117.117,0,0,0,.187-.1,3.171,3.171,0,0,0-.823-1.5s1.841,1.421,2.269,1.381-1.639-2.157-1.639-2.157,2.25,1.389,2.595,1.212-1.959-2.038-1.959-2.038,2.406,1.306,2.489,1.107c.2-.5-3.122-2.417-2.87-2.724" transform="translate(-54.82 -112.149)" fill="#fa9778"/>
          <path id="Trazado_138806" data-name="Trazado 138806" d="M136.853,284.6s7.877,11.558,14.85,16.774,11.489,9.27,13.117,8.7,3.149-4.342,3.149-4.342-18.126-17.278-20.329-19.646-5.6-6.894-9.289-5.745-1.5,4.261-1.5,4.261" transform="translate(-42.566 -99.106)" fill="#fdb32c"/>
          <path id="Trazado_138807" data-name="Trazado 138807" d="M123.9,277.42c.808-2.764-.633-8.744-.836-9.416-.009-.023-.014-.044-.023-.067l8.019,3.223a1.777,1.777,0,0,0-.138.8v0a8.247,8.247,0,0,0,.415,2.157,19.546,19.546,0,0,0,.718,1.94Z" transform="translate(-38.454 -94.781)" fill="#fa9778"/>
          <path id="Trazado_138808" data-name="Trazado 138808" d="M132.037,275.511c-4.053.906-6.667-3.493-6.762-3.657a4.964,4.964,0,0,0,3.16,1.678,8.613,8.613,0,0,0,3.162-.169c.008,0,.016,0,.025-.008a8.249,8.249,0,0,0,.415,2.157" transform="translate(-39.15 -96.167)" fill="#fa7c55"/>
          <path id="Trazado_138809" data-name="Trazado 138809" d="M122.074,276.419a2.617,2.617,0,0,0-.233,2.055,1.27,1.27,0,0,1-.553,1.482,4.973,4.973,0,0,0-2.135,2.387c-.8,2.1.8,5.492,1.948,7.376s3.5,9.584,2.922,10.822-.973,3.338-.458,3.877,16.442-4.415,17.015-5.33-1.6-3.338-1.375-4.415-.058-11.145-.687-12.814-2.808-3.608-6.646-3.931a3.766,3.766,0,0,0-1.8-2.688,1,1,0,0,0-.549-.079l-6.691.774a.984.984,0,0,0-.759.484" transform="translate(-37.17 -97.335)" fill="#fdb32c"/>
          <path id="Trazado_138899" data-name="Trazado 138899" d="M0,0,39.741.211,39.952,37.6.211,37.385Z" transform="translate(92.998 179.736) rotate(-5.075)" fill="#fff"/>
        </g>
      </g>
      <g id="Grupo_66859" data-name="Grupo 66859" transform="translate(90.48 166.787)">
        <g id="Grupo_66858" data-name="Grupo 66858" transform="translate(0 0)" clip-path="url(#clip-path-2)">
          <path id="Trazado_138810" data-name="Trazado 138810" d="M162.482,326.549A7.76,7.76,0,0,1,166.7,321.2c1.438-.653,3.075-.806,4.47-1.545a5.983,5.983,0,0,0,2.98-3.841,33.845,33.845,0,0,0,.346-3.74c.316-2.541,2-5.082,4.5-5.622,1.385-.3,2.863.03,4.219-.379,1.681-.507,2.818-2.018,3.973-3.34.592-.678,1.408-1.386,2.279-1.159a1.675,1.675,0,0,1,1.023.906,4.074,4.074,0,0,1-.21,3.274,9.249,9.249,0,0,0-1,3.211,9.757,9.757,0,0,0,.719,2.97c.857,2.77.557,6.106-1.533,8.114-1.335,1.281-3.176,1.846-4.843,2.649s-3.339,2.07-3.646,3.894a21.687,21.687,0,0,0,.031,2.805c-.086,2.375-1.82,4.431-3.88,5.616a11.436,11.436,0,0,1-10.5.242c-3.179-1.532-3.885-5.426-3.147-8.711" transform="translate(-138.196 -276.101)" fill="#efe3da"/>
          <path id="Trazado_138811" data-name="Trazado 138811" d="M190.629,303.406a128.952,128.952,0,0,1-10.252,16.827,157.662,157.662,0,0,1,10.252-16.827" transform="translate(-140.167 -276.304)" fill="#998368"/>
          <path id="Trazado_138812" data-name="Trazado 138812" d="M191.587,312.732a10.988,10.988,0,0,1-5.46-.111,10.988,10.988,0,0,1,5.46.111" transform="translate(-140.791 -277.272)" fill="#998368"/>
          <path id="Trazado_138813" data-name="Trazado 138813" d="M180.127,309.156a23.25,23.25,0,0,1,2.9,7.439,23.3,23.3,0,0,1-2.9-7.439" transform="translate(-140.14 -276.928)" fill="#998368"/>
          <path id="Trazado_138814" data-name="Trazado 138814" d="M156.918,335.468a7.759,7.759,0,0,1-3.694-5.717c-.152-1.572.232-3.17-.015-4.73a5.986,5.986,0,0,0-2.672-4.062,33.54,33.54,0,0,0-3.428-1.536c-2.3-1.122-4.163-3.533-3.865-6.076.166-1.407.955-2.7,1.007-4.116.063-1.754-1-3.318-1.877-4.84-.449-.778-.856-1.78-.359-2.53a1.672,1.672,0,0,1,1.188-.675,4.072,4.072,0,0,1,3.03,1.259,9.223,9.223,0,0,0,2.715,1.981,9.767,9.767,0,0,0,3.043.281c2.9.085,5.958,1.447,7.182,4.075.781,1.677.721,3.6.941,5.439s.88,3.829,2.506,4.71a21.57,21.57,0,0,0,2.665.878c2.22.849,3.6,3.156,4.061,5.487a11.44,11.44,0,0,1-3.167,10.013c-2.478,2.511-6.391,1.92-9.261.16" transform="translate(-135.98 -276.061)" fill="#efe3da"/>
          <path id="Trazado_138815" data-name="Trazado 138815" d="M144.377,303.281a151.536,151.536,0,0,1,11.478,16.827,151.579,151.579,0,0,1-11.478-16.827" transform="translate(-136.261 -276.29)" fill="#998368"/>
          <path id="Trazado_138816" data-name="Trazado 138816" d="M153.015,306.531a20.462,20.462,0,0,1-.873,7.429,20.463,20.463,0,0,1,.873-7.429" transform="translate(-137.099 -276.643)" fill="#998368"/>
          <path id="Trazado_138817" data-name="Trazado 138817" d="M147.752,318.406a22.262,22.262,0,0,1,7.541,2.006,22.263,22.263,0,0,1-7.541-2.006" transform="translate(-136.627 -277.932)" fill="#998368"/>
          <path id="Trazado_138818" data-name="Trazado 138818" d="M157.809,327.455a9.545,9.545,0,0,1-.237-8.368c.842-1.749,2.265-3.184,3-4.983a7.358,7.358,0,0,0-.217-5.975,41.711,41.711,0,0,0-2.624-3.8c-1.705-2.648-2.125-6.37-.189-8.853,1.072-1.373,2.726-2.23,3.684-3.685,1.186-1.8,1.067-4.127,1.113-6.285.025-1.106.236-2.419,1.237-2.89a2.059,2.059,0,0,1,1.679.048,5.008,5.008,0,0,1,2.385,3.256,11.343,11.343,0,0,0,1.59,3.816,12.01,12.01,0,0,0,3.019,2.236c2.993,1.938,5.342,5.322,4.952,8.866-.248,2.261-1.54,4.247-2.48,6.318s-1.516,4.587-.368,6.55a26.38,26.38,0,0,0,2.241,2.623c1.793,2.308,1.776,5.616.768,8.359a14.062,14.062,0,0,1-9.715,8.507c-4.208,1.061-7.946-2.056-9.839-5.738" transform="translate(-137.55 -274.031)" fill="#bfa586"/>
          <path id="Trazado_138819" data-name="Trazado 138819" d="M165.377,285.281c1.838,13.4,3.384,28.191,4.346,41.677-1.842-13.395-3.381-28.191-4.346-41.677" transform="translate(-138.54 -274.337)" fill="#998368"/>
          <path id="Trazado_138820" data-name="Trazado 138820" d="M171.6,293.156a33.039,33.039,0,0,1-4.346,8.469,33.038,33.038,0,0,1,4.346-8.469" transform="translate(-138.743 -275.192)" fill="#998368"/>
          <path id="Trazado_138821" data-name="Trazado 138821" d="M158.252,302.781a47.868,47.868,0,0,1,8.8,7.355,47.9,47.9,0,0,1-8.8-7.355" transform="translate(-137.766 -276.236)" fill="#998368"/>
          <path id="Trazado_138822" data-name="Trazado 138822" d="M175.631,308.656A85.829,85.829,0,0,1,169.5,322.7a85.824,85.824,0,0,1,6.129-14.041" transform="translate(-138.987 -276.874)" fill="#998368"/>
          <path id="Trazado_138823" data-name="Trazado 138823" d="M160.252,323.281a42.9,42.9,0,0,1,8.8,6.352,42.888,42.888,0,0,1-8.8-6.352" transform="translate(-137.984 -278.461)" fill="#998368"/>
        </g>
      </g>
      <g id="Grupo_66861" data-name="Grupo 66861" transform="translate(0 -0.034)">
        <g id="Grupo_66860" data-name="Grupo 66860" transform="translate(0 0)" clip-path="url(#clip-path)">
          <path id="Trazado_138824" data-name="Trazado 138824" d="M156.434,329.223c.2-.285,1.164-.2,1.645-.081a.163.163,0,0,0,.21-.13c.025-.194-.027-.5-.525-.658a9.676,9.676,0,0,0-3.53-.5c-.473-.4-1.154-.967-1.992-1.67q-1.335,1.587-2.643,3.2c1.218.482,2.461.917,3.728,1.292a14.5,14.5,0,0,0,3.187,3.376.116.116,0,0,0,.179-.112,3.2,3.2,0,0,0-.923-1.445s1.933,1.307,2.357,1.242-1.782-2.055-1.782-2.055,2.34,1.252,2.672,1.054-2.094-1.916-2.094-1.916,2.49,1.159,2.559.955c.171-.508-3.28-2.225-3.05-2.546" transform="translate(-46.752 -115.394)" fill="#fa9778"/>
          <path id="Trazado_138825" data-name="Trazado 138825" d="M126.9,306.986a4.7,4.7,0,0,1-1.341-1.787c-1.34-3.161-6.012-14.368-6.062-17.043a4.849,4.849,0,0,1,3.839-4.9c1.6-.43,4.01,2.261,4.583,4.092s4.927,14.538,4.927,14.538l12.2,10.176s-3.437,6.515-4.7,6.407-2.177-4.253-2.177-4.253-8.147-4.635-11.275-7.23" transform="translate(-37.346 -100.186)" fill="#fdb32c"/>
          <path id="Trazado_138826" data-name="Trazado 138826" d="M126.369,312.374a7.638,7.638,0,0,0,2.424,4.732,12.206,12.206,0,0,1-2.005.485c-.687.054-.419-5.217-.419-5.217" transform="translate(-39.476 -110.507)" fill="#121b46"/>
          <path id="Trazado_138827" data-name="Trazado 138827" d="M135.752,310.088l2.458,1.168-.355.334-1.243-2.31,1.679,2.051,1.185,1.448-1.541-1.114Z" transform="translate(-42.425 -109.412)" fill="#121b46"/>
          <path id="Trazado_138828" data-name="Trazado 138828" d="M125.5,283.119a3.756,3.756,0,0,1,2.638.476,2.785,2.785,0,0,1,.958.956,2.448,2.448,0,0,1,.357,1.234,5.78,5.78,0,0,0-.69-1.022,3.676,3.676,0,0,0-.908-.764,5.8,5.8,0,0,0-1.109-.523,11.55,11.55,0,0,0-1.246-.357" transform="translate(-39.221 -100.13)" fill="#121b46"/>
          <path id="Trazado_138829" data-name="Trazado 138829" d="M133.464,263.242c-.357,1.421-2.337,2.479-3.71,2.9a6.228,6.228,0,0,1-7.735-3.919,3.086,3.086,0,0,1-.888.008,2.272,2.272,0,0,1-1.115-.7,1.611,1.611,0,0,1-.394-1.376,1.344,1.344,0,0,1,1.418-1.05,1.206,1.206,0,0,1,.2.05c-.327-2.026-.264-4.292,1.1-5.675,2.938-2.98,7.7-2.527,8.96-.242a18.378,18.378,0,0,1,1.827,5.987c.139.89.241,1.775.329,2.621.011.088.02.176.028.264a3.247,3.247,0,0,1-.023,1.136" transform="translate(-37.374 -88.922)" fill="#fa9778"/>
          <path id="Trazado_138830" data-name="Trazado 138830" d="M138.867,266.13a1.469,1.469,0,0,1-.363.083,1.429,1.429,0,0,1-1.6-1.208,1.438,1.438,0,0,1,1.631-1.5c.14.89.241,1.776.329,2.621" transform="translate(-42.783 -93.21)" fill="#fa7c55"/>
          <path id="Trazado_138831" data-name="Trazado 138831" d="M126.469,266.137a1.432,1.432,0,0,0,1.6,1.208,1.386,1.386,0,0,0,1.284-1.5,1.431,1.431,0,0,0-1.6-1.208,1.386,1.386,0,0,0-1.285,1.5" transform="translate(-39.521 -93.61)" fill="#fa7c55"/>
          <path id="Trazado_138832" data-name="Trazado 138832" d="M135.359,261.42c.051.443.279.782.509.759s.375-.4.324-.843-.278-.783-.509-.759-.375.4-.324.844" transform="translate(-42.299 -92.176)" fill="#121b46"/>
          <path id="Trazado_138833" data-name="Trazado 138833" d="M136.635,260.016a1.159,1.159,0,0,1-.242.371,1.009,1.009,0,0,1-.412.256l-.007,0a.158.158,0,0,1-.2-.09.143.143,0,0,1,.1-.185.146.146,0,0,1,.04-.008.912.912,0,0,0,.631-.386l0,0a.052.052,0,0,1,.069-.012.046.046,0,0,1,.019.056" transform="translate(-42.43 -91.956)" fill="#121b46"/>
          <path id="Trazado_138834" data-name="Trazado 138834" d="M130.947,261.9c.051.443-.094.82-.324.844s-.458-.317-.509-.759.093-.82.324-.843.458.316.509.759" transform="translate(-40.66 -92.377)" fill="#121b46"/>
          <path id="Trazado_138835" data-name="Trazado 138835" d="M129.387,260.791a.934.934,0,0,0,.7.25.154.154,0,0,1,.176.123.148.148,0,0,1-.131.166.21.21,0,0,1-.04,0h-.008a1.027,1.027,0,0,1-.46-.167,1.2,1.2,0,0,1-.322-.313.045.045,0,0,1,.014-.065.053.053,0,0,1,.062,0Z" transform="translate(-40.408 -92.247)" fill="#121b46"/>
          <path id="Trazado_138836" data-name="Trazado 138836" d="M134.607,265.606a1.936,1.936,0,0,1-.55.735,1.647,1.647,0,0,1-.9.386,1.706,1.706,0,0,1-.962-.206,3.04,3.04,0,0,1-.395-.264c-.111-.109-.221-.217-.321-.331.139.076.267.158.4.237.14.061.267.141.408.191a1.829,1.829,0,0,0,.848.136,1.754,1.754,0,0,0,.8-.294,3.53,3.53,0,0,0,.673-.589" transform="translate(-41.09 -93.956)" fill="#121b46"/>
          <path id="Trazado_138837" data-name="Trazado 138837" d="M134.231,267.982a.709.709,0,0,1-.422.184.755.755,0,0,1-.455-.1,2.421,2.421,0,0,0,.444,0,2.018,2.018,0,0,0,.433-.091" transform="translate(-41.675 -94.797)" fill="#121b46"/>
          <path id="Trazado_138838" data-name="Trazado 138838" d="M130.328,257.876a1.045,1.045,0,0,0-.671-.159,2.11,2.11,0,0,0-.676.162,1.685,1.685,0,0,0-.568.387,1.662,1.662,0,0,0-.355.539.184.184,0,0,0,.107.247.209.209,0,0,0,.228-.049l.015-.016a2.387,2.387,0,0,1,.376-.349,1.483,1.483,0,0,1,.434-.222,1.89,1.89,0,0,1,.487-.095,2,2,0,0,0,.522-.082l.051-.017a.194.194,0,0,0,.126-.253.2.2,0,0,0-.076-.094" transform="translate(-40.015 -91.164)" fill="#121b46"/>
          <path id="Trazado_138839" data-name="Trazado 138839" d="M134.369,257.468a1.017,1.017,0,0,1,.619-.29,2.131,2.131,0,0,1,.7.021,1.752,1.752,0,0,1,.642.264,1.717,1.717,0,0,1,.471.456.181.181,0,0,1-.048.262.212.212,0,0,1-.234,0l-.019-.013a2.492,2.492,0,0,0-.447-.265,1.532,1.532,0,0,0-.474-.129,1.885,1.885,0,0,0-.5.006,2.032,2.032,0,0,1-.529.025l-.054-.007a.2.2,0,0,1-.181-.222.2.2,0,0,1,.053-.107" transform="translate(-41.975 -90.967)" fill="#121b46"/>
          <path id="Trazado_138840" data-name="Trazado 138840" d="M133.08,260.192c.109.294.2.589.291.879a9.021,9.021,0,0,0,.31.851c.029.068.06.136.095.2a.721.721,0,0,1,.1.251.512.512,0,0,1-.244.505.712.712,0,0,1-.54.083,1.377,1.377,0,0,1-.458-.2,1.029,1.029,0,0,0,.863-.049.3.3,0,0,0,.115-.3.577.577,0,0,0-.083-.171c-.041-.072-.078-.144-.111-.218a4.073,4.073,0,0,1-.263-.906,4.6,4.6,0,0,1-.076-.927" transform="translate(-41.451 -92.04)" fill="#121b46"/>
          <path id="Trazado_138841" data-name="Trazado 138841" d="M120.465,265.16a.643.643,0,0,1,.161-.553.7.7,0,0,1,.637-.123,1.244,1.244,0,0,1,.56.3,1.845,1.845,0,0,1,.382.479.13.13,0,0,1-.058.182.15.15,0,0,1-.158-.014l-.01-.008a1.291,1.291,0,0,0-.514-.269.233.233,0,0,0-.2.041.492.492,0,0,0-.119.222c-.052.183-.072.393.1.458a1.139,1.139,0,0,0,.636-.024,1.05,1.05,0,0,1-.683.158.38.38,0,0,1-.28-.282.9.9,0,0,1,0-.359.654.654,0,0,1,.164-.348.5.5,0,0,1,.426-.129,1.4,1.4,0,0,1,.667.33l-.227.159a1.49,1.49,0,0,0-.743-.7.568.568,0,0,0-.488.022.661.661,0,0,0-.248.458" transform="translate(-37.645 -93.55)" fill="#121b46"/>
          <path id="Trazado_138842" data-name="Trazado 138842" d="M139.7,272.358a4.272,4.272,0,0,1-1.849,1.1,9.671,9.671,0,0,1-2.729.362h-.186c0-.006-.007-.013-.007-.019a7.966,7.966,0,0,1-.412-2.152v-.007c1.368-.433,3.266-1.473,3.616-2.862a3.32,3.32,0,0,0,.021-1.137c-.007-.09-.014-.174-.028-.265-.014-.116-.027-.226-.034-.342a8.3,8.3,0,0,0,1.616,4.549.569.569,0,0,1-.007.769" transform="translate(-42.037 -94.464)" fill="#121b46"/>
          <path id="Trazado_138843" data-name="Trazado 138843" d="M129.384,250.986a6.623,6.623,0,0,0-5.463-1.086,4.423,4.423,0,0,0-2.463,1.435,1.883,1.883,0,0,0-1.529.479,5.458,5.458,0,0,0-2.146,4.691,23.526,23.526,0,0,1-3.107,7.868.5.5,0,0,0-.017.562,6.5,6.5,0,0,0,4.317,2.82c.738.236.443.388,1.481.447,0,0,1.151-1.278,1.015-2.17a11.948,11.948,0,0,0,1.7-4.175,14.4,14.4,0,0,0,.251-3.57,10.685,10.685,0,0,1,.822-4.416,1.111,1.111,0,0,0,.045-.133,1.473,1.473,0,0,0,.837.639,5.1,5.1,0,0,0,1.136.348l1.16.212a1.355,1.355,0,0,0,.107-.51,2.206,2.206,0,0,1,.183.563l2.622.479a1.118,1.118,0,0,1,.728.41,4.614,4.614,0,0,0-1.68-4.892" transform="translate(-35.809 -88.336)" fill="#121b46"/>
          <path id="Trazado_138897" data-name="Trazado 138897" d="M0,0,31.615.794l.794,30.521L.794,30.521Z" transform="translate(343.219 221.212) rotate(-27.716)" fill="#efe3da"/>
          <path id="Trazado_138844" data-name="Trazado 138844" d="M520.849,347.237a1.747,1.747,0,0,1-.8,2.429,1.975,1.975,0,0,1-2.583-.756,1.746,1.746,0,0,1,.8-2.429,1.976,1.976,0,0,1,2.584.756" transform="translate(-161.646 -122.504)" fill="#fff"/>
          <path id="Trazado_138845" data-name="Trazado 138845" d="M541.452,351.74l-6.278-11.231a4.379,4.379,0,0,0-2.35.585,5,5,0,0,0-2.166,2.7,23.052,23.052,0,0,0-.556,2.528,10.94,10.94,0,0,1-.873,2.476,2.825,2.825,0,0,1-2.158,1.767,33.08,33.08,0,0,1-3.321.5,5.692,5.692,0,0,0-3.036,1.244,5.488,5.488,0,0,0-1.425,3.536l3,5.359Z" transform="translate(-162.286 -120.463)" fill="#fff"/>
          <path id="Trazado_138898" data-name="Trazado 138898" d="M0,0,30.163.333,30.5,32.305.333,31.973Z" transform="matrix(0.175, -0.985, 0.985, 0.175, 371.937, 234.946)" fill="#efe3da"/>
          <path id="Trazado_138846" data-name="Trazado 138846" d="M562.48,335.1a1.907,1.907,0,0,1-2.219,1.455,1.811,1.811,0,0,1-1.549-2.086,1.907,1.907,0,0,1,2.22-1.455,1.811,1.811,0,0,1,1.548,2.086" transform="translate(-174.597 -117.803)" fill="#fff"/>
          <path id="Trazado_138847" data-name="Trazado 138847" d="M571.247,354.723l2.367-12.491a4.316,4.316,0,0,0-2.238-.892,5.53,5.53,0,0,0-3.474.888,25.483,25.483,0,0,0-2.088,1.677,12.26,12.26,0,0,1-2.305,1.453,3.8,3.8,0,0,1-1.367.431,3.491,3.491,0,0,1-1.49-.279,31.7,31.7,0,0,1-2.948-1.522,5.794,5.794,0,0,0-3.21-.766,6.119,6.119,0,0,0-3.433,1.973l-1.13,5.96Z" transform="translate(-171.862 -120.75)" fill="#fff"/>
          <path id="Trazado_138848" data-name="Trazado 138848" d="M542.252,347.869a123.579,123.579,0,0,1,3.094-15.83,123.452,123.452,0,0,1-3.094,15.83" transform="translate(-169.462 -117.466)" fill="#998368"/>
          <path id="Trazado_138849" data-name="Trazado 138849" d="M582.392,345.43c.792-5.115,1.794-10.785,2.729-15.909.327-1.763.63-3.531.976-5.292l.2.273c-6.528-1.1-13.053-2.208-19.55-3.463,6.564.9,13.1,1.942,19.637,3l.246.039c-.324,1.845-.7,3.682-1.042,5.523-.982,5.122-2.086,10.76-3.2,15.831" transform="translate(-177.119 -113.573)" fill="#998368"/>
          <rect id="Rectángulo_9243" data-name="Rectángulo 9243" width="39.209" height="38.314" transform="translate(348.071 230.855)" fill="#fdb32c"/>
          <path id="Trazado_138850" data-name="Trazado 138850" d="M579.936,391.576,563,395.554V357.24h16.932Z" transform="translate(-175.948 -126.384)" fill="#f0a824"/>
          <path id="Trazado_138851" data-name="Trazado 138851" d="M503.158,357.239l-6.906,9h39.209l6.683-9Z" transform="translate(-155.087 -126.384)" fill="#e69e19"/>
          <path id="Trazado_138852" data-name="Trazado 138852" d="M563.005,357.239l7.575,7.956h18.49l-9.133-7.956Z" transform="translate(-175.948 -126.384)" fill="#e69e19"/>
          <path id="Trazado_138853" data-name="Trazado 138853" d="M562.468,358.206c.107,3.069.156,6.138.2,9.207l.06,9.207-.06,9.207c-.041,3.069-.091,6.138-.2,9.207-.107-3.069-.157-6.138-.2-9.207l-.06-9.207.06-9.207c.041-3.069.091-6.138.2-9.207" transform="translate(-175.699 -126.726)" fill="#121b46"/>
          <path id="Trazado_138854" data-name="Trazado 138854" d="M525.252,390.5a40.748,40.748,0,0,1,6.562-6.167,35.364,35.364,0,0,1-3.1,3.254,36.424,36.424,0,0,1-3.463,2.913" transform="translate(-164.149 -135.971)" fill="#121b46"/>
          <path id="Trazado_138855" data-name="Trazado 138855" d="M530.252,391.016a15.031,15.031,0,0,1,1.944-2.17,15.371,15.371,0,0,1,2.309-1.828,14.9,14.9,0,0,1-1.945,2.17,15.528,15.528,0,0,1-2.308,1.827" transform="translate(-165.712 -136.923)" fill="#121b46"/>
          <path id="Trazado_138856" data-name="Trazado 138856" d="M574.585,387.79a6.345,6.345,0,0,1,1.193-1.463,6.592,6.592,0,0,1,1.557-1.121,6.286,6.286,0,0,1-1.193,1.463,6.659,6.659,0,0,1-1.557,1.121" transform="translate(-179.567 -136.282)" fill="#121b46"/>
          <path id="Trazado_138857" data-name="Trazado 138857" d="M577.919,390.262a2.9,2.9,0,0,1,.734-1.033,3.079,3.079,0,0,1,1.1-.691,2.868,2.868,0,0,1-.735,1.033,3.105,3.105,0,0,1-1.1.69" transform="translate(-180.609 -137.461)" fill="#121b46"/>
          <path id="Trazado_138858" data-name="Trazado 138858" d="M535.547,189.225c-.793.56-.439,1.907-.133,2.959.516,1.777,1.38,2.95,1.461,5.209a1.715,1.715,0,0,0,2.091,1.812.357.357,0,0,0,.347-.365,18.659,18.659,0,0,1,.186-3.714c.344-2.3.952-5.812.952-5.812s.32-3,.755-7.476c-1.03-.127-2.054-.294-3.07-.49q-1.67-.178-3.329-.408Z" transform="translate(-167.136 -63.994)" fill="#ed8d5d"/>
          <path id="Trazado_138859" data-name="Trazado 138859" d="M538.517,200.178a3.855,3.855,0,0,0-2.111-.524c-.428.095-.941-1.066-1.345-2.241a7.39,7.39,0,0,1-.215-3.708.734.734,0,0,0-.043-.54c-.291-.362-2.871.859-2.837,1.438.031.532,5.754,11.26,6.661,12.956a.292.292,0,0,0,.377.123c.443-.2,1.283-.665,1.055-1.335-.3-.9-1.543-6.17-1.543-6.17" transform="translate(-166.248 -68.297)" fill="#fdb32c"/>
          <path id="Trazado_138860" data-name="Trazado 138860" d="M533.635,177.356l5.1,1.507s2.591-22.391,2.225-24.407a5.5,5.5,0,0,0-6.435-4.425c-4.081.59-5.18,2.508-5.18,2.508Z" transform="translate(-165.428 -53.029)" fill="#d44f4a"/>
          <path id="Trazado_138861" data-name="Trazado 138861" d="M522.324,145.017l-.1-.075c-4.956-3.842-10.836-8.235-13.086-9.387-4.274-2.185-6.965-1.936-8.613-1.074-1.649-.862-4.339-1.111-8.613,1.074-2.25,1.152-8.129,5.545-13.086,9.387l-.1.075c-3.858,2.991-2,8.875,2.97,9.409l.139.015a1.157,1.157,0,0,0,.7-.147l9.986-5.765,8-.616,8,.616,10.31,5.953.516-.056c4.97-.534,6.828-6.417,2.97-9.409" transform="translate(-148.966 -47.331)" fill="#d44f4a"/>
          <path id="Trazado_138862" data-name="Trazado 138862" d="M503.07,148.781l.916,2.208-3.151-.431" transform="translate(-156.519 -52.613)" fill="#d44f4a"/>
          <path id="Trazado_138863" data-name="Trazado 138863" d="M518.392,149.114l-.974,2.153,1.547-1.4" transform="translate(-161.701 -52.731)" fill="#d44f4a"/>
          <path id="Trazado_138864" data-name="Trazado 138864" d="M523.666,156.146c-2.4-.108-4.619-.76-5.445-1.922-.646-.908-2.664.266-3.271,1l-6.47-.594c-.072.359-.142.718-.208,1.08-.283,1.554-.539,3.113-.845,4.662,3.591-.277,6.359-.509,7.6-.615a59.357,59.357,0,0,0,6.155-.737,22.419,22.419,0,0,1,4.561-.359c.2.013-.231.1-.214-.087a1.962,1.962,0,0,0-1.861-2.433" transform="translate(-158.579 -54.423)" fill="#ed8d5d"/>
          <path id="Trazado_138865" data-name="Trazado 138865" d="M525.676,158.344a4.9,4.9,0,0,1-.586-2.287c.085-.406-1.168-.846-2.432-1.182a8.873,8.873,0,0,0-3.951-.068,1.639,1.639,0,0,1-.83-.177c-.4-.26,1.065-2.571,1.68-2.56.567.01,12.181,5,14.018,5.789a.26.26,0,0,1,.145.35c-.192.423-.66,1.229-1.381,1.04-.967-.254-6.663-.9-6.663-.9" transform="translate(-161.824 -53.777)" fill="#fdb32c"/>
          <path id="Trazado_138866" data-name="Trazado 138866" d="M483.726,145.553s-7.34,2.552-8.555,5.553.015,7.178,4.437,7.663,26.933-1.977,26.933-1.977l-2.406-4.577-22.183-3.8Z" transform="translate(-148.36 -51.471)" fill="#d44f4a"/>
          <path id="Trazado_138867" data-name="Trazado 138867" d="M509.329,154.124s-16.729-2.961-18.161-3.177" transform="translate(-153.498 -53.38)" fill="#d44f4a"/>
          <line id="Línea_168" data-name="Línea 168" x2="1.203" y2="1.777" transform="translate(339.504 96.437)" fill="#d44f4a"/>
          <path id="Trazado_138868" data-name="Trazado 138868" d="M505.13,139.176c.209-.273,1.147-.166,1.615-.033a.159.159,0,0,0,.21-.123c.031-.189-.01-.49-.493-.66a9.46,9.46,0,0,0-3.468-.588l-.007-.006c-.1-.089-.733-.651-1.731-1.542-.853.888-1.749,1.774-2.659,2.665,1.01.41,2.037.787,3.084,1.118l.007-.013h0c.662.98,2.287,3.278,3.371,3.91a.115.115,0,0,0,.179-.105,3.129,3.129,0,0,0-.859-1.442s1.854,1.335,2.271,1.283-1.682-2.063-1.682-2.063,2.254,1.292,2.586,1.107-1.992-1.936-1.992-1.936,2.4,1.2,2.478,1.007c.183-.493-3.145-2.27-2.909-2.579" transform="translate(-155.819 -48.17)" fill="#f28766"/>
          <path id="Trazado_138869" data-name="Trazado 138869" d="M497.635,104.727s-3.709-.374-7.662,2.978a63.5,63.5,0,0,0-6.354,6.593,13.169,13.169,0,0,0-3.3,9.525,4.947,4.947,0,0,0,.587,2.216c1.375,2.14,14.351,3.8,14.351,3.8l2.363-3.634-8.25-6.986,7.949-8.682s2.261-3.371.314-5.8" transform="translate(-150.097 -37.019)" fill="#f46a2b"/>
          <path id="Trazado_138870" data-name="Trazado 138870" d="M490.752,124.875a12.708,12.708,0,0,1,1.979,1.443l-.4.278a12.328,12.328,0,0,1-1.149-2.69,12.674,12.674,0,0,1,1.6,2.478l.649,1.253-1.05-.976a12.285,12.285,0,0,1-1.63-1.787" transform="translate(-153.368 -43.81)" fill="#121b46"/>
          <path id="Trazado_138871" data-name="Trazado 138871" d="M506.619,106.205c.184-.017.368-.031.548-.058,3.337-.5,5.1-2.455,6.863-4.541a6.006,6.006,0,0,1-.927-.177,4.686,4.686,0,0,1-.988-1.912,7.157,7.157,0,0,1-.1-1.787v0a1.767,1.767,0,0,1,.225-.771l-3.25-1.562-3.424,1.029a3.453,3.453,0,0,1,.234.888,13.12,13.12,0,0,1-.051,2.208,4.675,4.675,0,0,1-.987,1.909,6.184,6.184,0,0,1-1.53.233c-.049,0-.1.013-.144.016a11.869,11.869,0,0,0,3.532,4.527" transform="translate(-157.223 -33.72)" fill="#ed8d5d"/>
          <path id="Trazado_138872" data-name="Trazado 138872" d="M507.105,98.886l-.028-.215c.012.082.023.159.028.215" transform="translate(-158.469 -34.88)" fill="#ed8d5d"/>
          <path id="Trazado_138873" data-name="Trazado 138873" d="M507.018,98.185s2.213,1.464,6.3.114c0,0-3.193,4.368-6.3-.114" transform="translate(-158.451 -34.708)" fill="#e6794e"/>
          <path id="Trazado_138874" data-name="Trazado 138874" d="M502.684,104.662a4.6,4.6,0,0,0,4.068,2.13,7.352,7.352,0,0,0,4.3-2.261s3.351.323,4.984,1.535-.43,9.813-.43,9.813l-.473,10.378H498.589a83.71,83.71,0,0,0-.559-8.884c-.43-1.938-2.191-8.884-1.375-10.378s2.82-2.362,6.029-2.332" transform="translate(-155.146 -36.953)" fill="#f46a2b"/>
          <path id="Trazado_138875" data-name="Trazado 138875" d="M494.84,106.683a10.42,10.42,0,0,1,5.938-2.243,1.437,1.437,0,0,1,1.292.8c1.57,3.209,8.12,15.938,14.713,19.13l4.755,5.277s-19.593-1.67-23.833-4.684c-4.137-2.942.017-5.781-3.344-16.821a1.323,1.323,0,0,1,.479-1.455" transform="translate(-154.477 -36.921)" fill="#fdb32c"/>
          <path id="Trazado_138876" data-name="Trazado 138876" d="M503.752,105.406c.544.932,1.066,1.869,1.594,2.8s1.051,1.867,1.6,2.787,1.087,1.843,1.661,2.748,1.18,1.79,1.849,2.646a15.666,15.666,0,0,1-2.183-2.444,28.458,28.458,0,0,1-1.78-2.718c-.54-.934-1.047-1.885-1.5-2.858a30.039,30.039,0,0,1-1.24-2.964" transform="translate(-157.43 -37.263)" fill="#121b46"/>
          <path id="Trazado_138877" data-name="Trazado 138877" d="M498.259,113.529a25.418,25.418,0,0,0,1.952,3.027,26.4,26.4,0,0,0,2.426,2.708,8.545,8.545,0,0,1-2.844-2.426,7.98,7.98,0,0,1-1.534-3.309" transform="translate(-155.714 -40.138)" fill="#121b46"/>
          <path id="Trazado_138878" data-name="Trazado 138878" d="M502.11,114.918c.752.641,1.42,1.315,2.111,1.975s1.376,1.319,2.033,2.047a9.11,9.11,0,0,1-2.4-1.71,8.664,8.664,0,0,1-1.741-2.312" transform="translate(-156.917 -40.629)" fill="#121b46"/>
          <path id="Trazado_138879" data-name="Trazado 138879" d="M515.936,138.391c-.173-.272-.35-.557-.527-.847l-.775.689-.007.006a9.473,9.473,0,0,0-3.468.589c-.482.17-.524.47-.493.66a.16.16,0,0,0,.21.123c.468-.133,1.407-.24,1.615.033.236.309-3.091,2.086-2.909,2.579.074.2,2.478-1.007,2.478-1.007s-2.324,1.751-1.992,1.936,2.586-1.107,2.586-1.107-2.1,2.01-1.682,2.062,2.271-1.282,2.271-1.282a3.117,3.117,0,0,0-.859,1.441.114.114,0,0,0,.179.105c1.084-.632,2.709-2.93,3.371-3.91h0l.007.013c.369-.117.733-.244,1.1-.372q-.553-.856-1.1-1.713" transform="translate(-159.25 -48.637)" fill="#f28766"/>
          <path id="Trazado_138880" data-name="Trazado 138880" d="M517.138,104.727s3.709-.374,7.662,2.978a63.482,63.482,0,0,1,6.354,6.593,13.168,13.168,0,0,1,3.3,9.525,4.946,4.946,0,0,1-.587,2.216c-1.375,2.14-14.351,3.8-14.351,3.8l-2.363-3.634,8.25-6.986-7.949-8.682s-2.261-3.371-.314-5.8" transform="translate(-161.367 -37.019)" fill="#f46a2b"/>
          <path id="Trazado_138881" data-name="Trazado 138881" d="M523.729,120.425a3.838,3.838,0,0,1-1.178-.846,3.561,3.561,0,0,1-.8-1.173,3.8,3.8,0,0,1,1.178.846,3.615,3.615,0,0,1,.8,1.173" transform="translate(-163.056 -41.864)" fill="#121b46"/>
          <path id="Trazado_138882" data-name="Trazado 138882" d="M517.45,138H494.992l-1.719-13.207a1.61,1.61,0,0,1,1.66-1.762H517.51a1.61,1.61,0,0,1,1.659,1.762Z" transform="translate(-154.152 -43.501)" fill="#a0d3f2"/>
          <path id="Trazado_138883" data-name="Trazado 138883" d="M518.227,147.288h-22.8a.222.222,0,0,1-.229-.215V146a.222.222,0,0,1,.229-.215h22.8a.222.222,0,0,1,.229.215v1.077a.222.222,0,0,1-.229.215" transform="translate(-154.756 -51.552)" fill="#5eacdb"/>
          <path id="Trazado_138884" data-name="Trazado 138884" d="M513.222,133.692a2.038,2.038,0,1,1-2.034-1.911,1.975,1.975,0,0,1,2.034,1.911" transform="translate(-159.118 -46.597)" fill="#fff"/>
          <path id="Trazado_138885" data-name="Trazado 138885" d="M515.393,84.159a1.338,1.338,0,0,0-1.5-.885c.288-7.978-6.79-6.9-6.79-6.9-4.442.362-4.948,4.8-4.916,7.059a1.692,1.692,0,0,0-.353-.155,1.338,1.338,0,0,0-1.5.884,1.573,1.573,0,0,0,.228,1.379,2.19,2.19,0,0,0,1.009.791,3.039,3.039,0,0,0,.775.083,5.19,5.19,0,0,0,5.714,4.7c4.36.2,5.491-2.659,5.745-4.725a2.131,2.131,0,0,0,.346-.062,2.189,2.189,0,0,0,1.009-.791,1.574,1.574,0,0,0,.228-1.379" transform="translate(-156.341 -26.971)" fill="#ed8d5d"/>
          <path id="Trazado_138886" data-name="Trazado 138886" d="M513.6,87.089c0,.436.184.79.41.79s.41-.354.41-.79-.183-.79-.41-.79-.41.354-.41.79" transform="translate(-160.508 -30.501)" fill="#121b46"/>
          <path id="Trazado_138887" data-name="Trazado 138887" d="M509.249,87.089c0,.436-.184.79-.41.79s-.41-.354-.41-.79.184-.79.41-.79.41.354.41.79" transform="translate(-158.892 -30.501)" fill="#121b46"/>
          <path id="Trazado_138888" data-name="Trazado 138888" d="M512.451,91.221a1.937,1.937,0,0,1-.619.662,1.589,1.589,0,0,1-1.834-.01,2.931,2.931,0,0,1-.355-.3c-.1-.116-.191-.234-.276-.355.127.087.243.18.359.27.129.074.245.165.375.227a1.775,1.775,0,0,0,.812.216,1.739,1.739,0,0,0,.815-.207,3.512,3.512,0,0,0,.722-.507" transform="translate(-159.185 -32.243)" fill="#121b46"/>
          <path id="Trazado_138889" data-name="Trazado 138889" d="M511.847,93.388a.7.7,0,0,1-.432.138.729.729,0,0,1-.432-.138,2.435,2.435,0,0,0,.433.047,1.971,1.971,0,0,0,.432-.047" transform="translate(-159.69 -33.01)" fill="#121b46"/>
          <path id="Trazado_138890" data-name="Trazado 138890" d="M509.053,83.159a1.015,1.015,0,0,0-.636-.222,2.09,2.09,0,0,0-.678.09,1.689,1.689,0,0,0-.6.321,1.647,1.647,0,0,0-.407.491.179.179,0,0,0,.076.251.207.207,0,0,0,.228-.026l.017-.014a2.363,2.363,0,0,1,.406-.3,1.453,1.453,0,0,1,.448-.173,1.833,1.833,0,0,1,.485-.044,1.98,1.98,0,0,0,.518-.028l.052-.012a.194.194,0,0,0,.151-.234.19.19,0,0,0-.063-.1" transform="translate(-158.355 -29.312)" fill="#121b46"/>
          <path id="Trazado_138891" data-name="Trazado 138891" d="M513.072,83.159a1.014,1.014,0,0,1,.636-.222,2.089,2.089,0,0,1,.678.09,1.689,1.689,0,0,1,.6.321,1.646,1.646,0,0,1,.407.491.179.179,0,0,1-.076.251.207.207,0,0,1-.228-.026l-.016-.014a2.392,2.392,0,0,0-.406-.3,1.452,1.452,0,0,0-.448-.173,1.831,1.831,0,0,0-.485-.044,1.98,1.98,0,0,1-.518-.028l-.052-.012a.194.194,0,0,1-.151-.234.19.19,0,0,1,.063-.1" transform="translate(-160.321 -29.312)" fill="#121b46"/>
          <path id="Trazado_138892" data-name="Trazado 138892" d="M511.42,85.653c.073.3.126.593.185.886a8.4,8.4,0,0,0,.206.861c.021.069.043.138.069.2a.7.7,0,0,1,.071.255.51.51,0,0,1-.295.468.7.7,0,0,1-.535.027,1.335,1.335,0,0,1-.425-.239,1.009,1.009,0,0,0,.847.038.3.3,0,0,0,.145-.282.526.526,0,0,0-.061-.175c-.032-.074-.06-.149-.083-.224a3.969,3.969,0,0,1-.154-.908,4.494,4.494,0,0,1,.03-.911" transform="translate(-159.601 -30.273)" fill="#121b46"/>
          <path id="Trazado_138893" data-name="Trazado 138893" d="M501.121,88.767a.637.637,0,0,1,.219-.523.686.686,0,0,1,.635-.058,1.2,1.2,0,0,1,.512.351,1.79,1.79,0,0,1,.318.5.129.129,0,0,1-.078.171.145.145,0,0,1-.152-.029l-.01-.009a1.235,1.235,0,0,0-.471-.313.23.23,0,0,0-.2.02.5.5,0,0,0-.142.2c-.072.174-.115.376.043.457a1.117,1.117,0,0,0,.622.039,1.031,1.031,0,0,1-.683.087.365.365,0,0,1-.241-.3.868.868,0,0,1,.04-.35.648.648,0,0,1,.2-.323.5.5,0,0,1,.43-.083,1.358,1.358,0,0,1,.613.388l-.239.132a1.433,1.433,0,0,0-.646-.759.554.554,0,0,0-.478-.026.658.658,0,0,0-.294.421" transform="translate(-156.608 -31.152)" fill="#121b46"/>
          <path id="Trazado_138894" data-name="Trazado 138894" d="M521.017,88.767a.636.636,0,0,0-.219-.523.686.686,0,0,0-.634-.058,1.2,1.2,0,0,0-.512.351,1.8,1.8,0,0,0-.318.5.129.129,0,0,0,.078.171.146.146,0,0,0,.153-.029l.009-.009a1.236,1.236,0,0,1,.471-.313.229.229,0,0,1,.2.02.5.5,0,0,1,.142.2c.072.174.115.376-.043.457a1.117,1.117,0,0,1-.622.039,1.033,1.033,0,0,0,.684.087.368.368,0,0,0,.241-.3.882.882,0,0,0-.041-.35.648.648,0,0,0-.2-.323.493.493,0,0,0-.43-.083,1.356,1.356,0,0,0-.613.388l.239.132a1.433,1.433,0,0,1,.646-.759.554.554,0,0,1,.478-.026.655.655,0,0,1,.294.421" transform="translate(-162.297 -31.152)" fill="#121b46"/>
          <path id="Trazado_138895" data-name="Trazado 138895" d="M511.084,94.353a.175.175,0,0,0-.223,0,2.858,2.858,0,0,0-1.235,2.177l.286-.242s.135.895.839,1.093a1.143,1.143,0,0,0,.358,0c.7-.165.811-1.1.811-1.1l.287.242a2.882,2.882,0,0,0-1.122-2.173" transform="translate(-159.265 -33.337)" fill="#121b46"/>
          <path id="Trazado_138896" data-name="Trazado 138896" d="M515.805,82.435c-.11-1.331-1.994-2.022-2.179-3.347-.117-.827.488-1.609.488-2.442a2.051,2.051,0,0,0-1.038-1.68,3.014,3.014,0,0,0-2.069-.33,6.776,6.776,0,0,1-2,.342c-1.272-.155-2.124-1.628-3.4-1.512-.9.078-1.471.911-1.9,1.654l-.014.013a1.938,1.938,0,0,1-2.1.853,2.038,2.038,0,0,0-1.258.045,2.17,2.17,0,0,0-1.079,2.339c.1.814.364,1.77-.254,2.345a5.058,5.058,0,0,1-1.176.594,2.424,2.424,0,0,0-1.011,2.836,5.353,5.353,0,0,0,2.055,2.526c.461.342,1.018.808.859,1.344a4.326,4.326,0,0,1-.3.549c-.364.737.289,1.583,1.031,2.016a4.979,4.979,0,0,0,3.348.569,12.4,12.4,0,0,0,0-1.6c-.007-.032-.014-.071-.021-.1a5,5,0,0,1-2.544-4.045,3.148,3.148,0,0,1-.777-.084,2.214,2.214,0,0,1-1.011-.795,1.567,1.567,0,0,1-.227-1.376,1.343,1.343,0,0,1,1.5-.885,1.788,1.788,0,0,1,.285.12,4.239,4.239,0,0,0,.731.6.72.72,0,0,0,.485.152c.283-.045.407-.354.485-.614a17.3,17.3,0,0,1,.756-2.035c.2-.443.516-.947,1.027-.954.485-.007.818.438,1.223.69a1.678,1.678,0,0,0,1.161.222,6.922,6.922,0,0,0,1.5-.669,1.324,1.324,0,0,1,1.526.16c.483.612-.188,1.684.436,2.17.214.167.531.2.7.408.187.222.125.54.127.823s.174.634.474.608a.606.606,0,0,0,.389-.266,5.984,5.984,0,0,0,.831-1.424,1.349,1.349,0,0,1,1.422.894,1.589,1.589,0,0,1-.227,1.376,2.214,2.214,0,0,1-1.011.795,1.887,1.887,0,0,1-.351.065,5.082,5.082,0,0,1-2.6,4.167,1.932,1.932,0,0,0-.076.414v.006a4.373,4.373,0,0,0-.021.53c.076,0,.158.013.234.019a2.584,2.584,0,0,0,1.114-.032c.9-.323.976-1.538,1.705-2.139.653-.53,1.753-.491,2.234-1.169.44-.633-.165-1.454-.172-2.2-.007-.879.763-1.661.694-2.539" transform="translate(-155.225 -25.958)" fill="#121b46"/>
        </g>
      </g>
    </g>
  </g>
</svg>
