<svg id="Grupo_66935" data-name="Grupo 66935" xmlns="http://www.w3.org/2000/svg" xmlns:xlink="http://www.w3.org/1999/xlink" width="390.963" height="268.022" viewBox="0 0 390.963 268.022">
  <defs>
    <clipPath id="clip-path">
      <rect id="Rectángulo_9302" data-name="Rectángulo 9302" width="390.963" height="268.022" fill="none"/>
    </clipPath>
    <clipPath id="clip-path-2">
      <path id="Rectángulo_9304" data-name="Rectángulo 9304" d="M.88,0H251.621a.881.881,0,0,1,.881.881V135.886a.881.881,0,0,1-.881.881H.881A.881.881,0,0,1,0,135.886V.88A.88.88,0,0,1,.88,0Z" fill="none"/>
    </clipPath>
    <clipPath id="clip-path-4">
      <path id="Trazado_138935" data-name="Trazado 138935" d="M44.72,151.365V154.6a2.21,2.21,0,0,0,1.783,1.294c.9.044,3.276-.9,3.591-2.763v-2.635l-.805-1.238c-1.186,1.078-4.57,2.109-4.568,2.109" transform="translate(-44.72 -149.256)" fill="none"/>
    </clipPath>
    <linearGradient id="linear-gradient" x1="-7.753" y1="19.302" x2="-7.579" y2="19.302" gradientUnits="objectBoundingBox">
      <stop offset="0" stop-color="#d49f82"/>
      <stop offset="1" stop-color="#e5ac8e"/>
    </linearGradient>
    <clipPath id="clip-path-6">
      <path id="Trazado_138955" data-name="Trazado 138955" d="M363.564,151.323a3.7,3.7,0,0,0,1.1.24l.364,3.257a2.7,2.7,0,0,0,2.459,1.119,6.029,6.029,0,0,0,3.1-1.874l-.514-4.584c-1.507.91-4.37,2.57-6.511,1.842" transform="translate(-363.564 -149.481)" fill="none"/>
    </clipPath>
    <linearGradient id="linear-gradient-2" x1="-43.84" y1="17.491" x2="-43.719" y2="17.491" gradientUnits="objectBoundingBox">
      <stop offset="0" stop-color="#e09a77"/>
      <stop offset="0.721" stop-color="#efaa88"/>
      <stop offset="1" stop-color="#f7b290"/>
    </linearGradient>
    <clipPath id="clip-path-8">
      <path id="Trazado_138978" data-name="Trazado 138978" d="M226.174,229.661l-.414-.016c.034.007.069.01.1.015v3.5a2.661,2.661,0,0,0,2.148,1.558c1.079.053,3.945-1.081,4.324-3.327v-2.78l-.97-1.491c-2.244,2.041-3.218,2.347-5.192,2.54" transform="translate(-225.76 -227.121)" fill="none"/>
    </clipPath>
    <linearGradient id="linear-gradient-3" x1="-31.995" y1="7.366" x2="-31.854" y2="7.366" xlink:href="#linear-gradient"/>
    <clipPath id="clip-path-10">
      <path id="Trazado_138981" data-name="Trazado 138981" d="M224.443,228.229c1.951,1.758,4.867,1.166,7.04.17l-.169-.613c1.3-.422,2.609-1.739,1.762-2.646-.942-1.01-1.681,1.447-2.732,1.895a26.946,26.946,0,0,0,.976-3.019l-1.3-.515.543-1.912a9.1,9.1,0,0,1-5.522-2.171c-.715,1.574-2.612,7-.6,8.812" transform="translate(-223.547 -219.417)" fill="none"/>
    </clipPath>
    <linearGradient id="linear-gradient-4" x1="-15.212" y1="4.616" x2="-15.143" y2="4.616" xlink:href="#linear-gradient"/>
    <clipPath id="clip-path-12">
      <path id="Trazado_138984" data-name="Trazado 138984" d="M170.277,43.15l.579,3.307c4.549-1.943,19.519-5.086,21.958-6.409l-3.143-5.5c-2.564,1.157-17,7.154-19.395,8.6" transform="translate(-170.277 -34.548)" fill="none"/>
    </clipPath>
    <linearGradient id="linear-gradient-5" x1="-6.213" y1="12.449" x2="-6.177" y2="12.449" gradientUnits="objectBoundingBox">
      <stop offset="0" stop-color="#cf644c"/>
      <stop offset="1" stop-color="#e06d52"/>
    </linearGradient>
    <clipPath id="clip-path-13">
      <path id="Trazado_138985" data-name="Trazado 138985" d="M198.644,20.859c-7.056.268-9.867,5.771-8.61,12.225a11.915,11.915,0,0,0,3.213,6.321c6.327,5.458,16.541,10.131,27.086,9.552,3.143-6.906,3.39-18.526,2.626-20.986-9.594-2.5-13.233-4.9-19.829-6.6a16,16,0,0,0-3.972-.527c-.173,0-.346,0-.514.01" transform="translate(-189.743 -20.849)" fill="none"/>
    </clipPath>
    <linearGradient id="linear-gradient-6" x1="-4.645" y1="7.829" x2="-4.62" y2="7.829" gradientUnits="objectBoundingBox">
      <stop offset="0" stop-color="#d4674e"/>
      <stop offset="1" stop-color="#ef7357"/>
    </linearGradient>
  </defs>
  <g id="Grupo_66908" data-name="Grupo 66908">
    <g id="Grupo_66907" data-name="Grupo 66907" clip-path="url(#clip-path)">
      <path id="Trazado_138904" data-name="Trazado 138904" d="M365.355,270.152H33.966a3.669,3.669,0,0,0,0,7.337H365.355a3.669,3.669,0,0,0,0-7.337" transform="translate(-2.062 -18.385)" fill="#998368"/>
      <path id="Trazado_138905" data-name="Trazado 138905" d="M113.075,188.345C109.026,118.859,63.2,95.557,51,101.339s-8.821,36.42-11.167,40.819c-4.963,22.02-22.574,37.907-32.063,53.94-24.68,41.71,13.9,64.678,53.481,57.989,23.176-3.914,47.626-24.858,51.827-65.743" transform="translate(0 -6.839)" fill="#efe3da" fill-rule="evenodd"/>
      <path id="Trazado_138906" data-name="Trazado 138906" d="M176.867,56.391c5.49-21.5,5.183-44.564,26.768-51.158,15.626-4.774,35.691,11.039,51.742,19.022,30.948,15.393,86.4-3.659,108.3,55.561,9.9,26.769-5.523,61.628-28.825,78.724-23.839,17.492-59.11,16.271-98.669,30.466-13.749,4.934-33.858,26.356-57.819,32.749-20.292,5.415-43.76-2.451-53.173-10.327-23.059-18.721-20.89-45.038-7.524-69.645,17.35-31.941,52.351-58.58,59.2-85.392" transform="translate(-7.329 -0.296)" fill="#efe3da" fill-rule="evenodd"/>
      <path id="Trazado_138907" data-name="Trazado 138907" d="M307.014,256.784a63.047,63.047,0,0,0,23.383,4.675ZM296.6,251.979q2.056,1.1,4.131,2.088l34.966,6.991q1.665-.232,3.285-.6Zm-7.089-4.139q1.52.965,3.06,1.873l49.486,9.893c.748-.243,1.483-.524,2.211-.819Zm53.349-135.067c-3.092-1.654-7.273-2.591-12.914-2.582Zm4.4,3.6a13.877,13.877,0,0,0-1.482-1.558L324.13,110.49q-1.883.18-3.942.473Zm1.931,3.108q-.344-.728-.754-1.412l-32.275-6.453q-1.547.288-3.13.636Zm1.1,2.942c-.133-.459-.277-.91-.436-1.349L309.7,113.049q-1.322.342-2.662.73Zm.66,2.854q-.119-.667-.264-1.314l-46.542-9.3c-.791.252-1.583.512-2.378.786Zm.391,2.8c-.046-.435-.1-.867-.154-1.293l-52.029-10.4c-.719.269-1.438.544-2.158.83Zm.221,2.766c-.024-.429-.052-.856-.084-1.278L294.61,118.2q-.991.422-1.98.866Zm.108,2.744q-.017-.637-.04-1.269l-61.205-12.235c-.611.291-1.222.591-1.831.895Zm.044,2.731c0-.422-.008-.844-.015-1.264L286.54,122.029q-.857.452-1.709.921Zm.014,2.726,0-1.263-68.8-13.754q-.8.463-1.6.942Zm.018,2.725q-.007-.632-.01-1.264l-72.2-14.433q-.751.474-1.495.963Zm.052,2.732q-.018-.632-.03-1.267l-75.4-15.074q-.7.484-1.4.981Zm.119,2.746q-.039-.636-.067-1.275l-78.458-15.686q-.661.493-1.313,1Zm.226,2.767c-.046-.426-.085-.855-.12-1.285L270.6,132.453q-.621.5-1.231,1.016Zm.383,2.8c-.073-.431-.141-.864-.2-1.3l-84.333-16.86q-.583.51-1.154,1.032Zm.609,2.843c-.115-.437-.223-.878-.319-1.325l-87.272-17.447q-.545.519-1.081,1.046Zm.937,2.91q-.245-.629-.453-1.259c-.011-.033-.02-.066-.031-.1l-90.335-18.06c-.34.35-.679.7-1.013,1.06Zm1.346,2.992q-.354-.7-.671-1.4L261.1,141.444c-.317.354-.627.713-.937,1.074Zm1.71,3.064q-.433-.716-.835-1.429l-97.171-19.426q-.443.54-.874,1.087Zm2.012,3.124q-.495-.728-.966-1.455l-100.9-20.172c-.274.364-.548.729-.815,1.1Zm2.237,3.17q-.537-.738-1.06-1.473L255.549,148.5c-.253.367-.5.74-.743,1.113Zm2.37,3.2q-.558-.742-1.109-1.483L253.976,150.908c-.232.373-.463.747-.688,1.124Zm2.408,3.2q-.556-.742-1.115-1.484L252.526,153.34c-.212.376-.416.757-.621,1.137Zm2.351,3.193q-.533-.741-1.076-1.477L251.218,155.8c-.192.38-.383.762-.568,1.148Zm2.212,3.164q-.493-.732-1-1.461L250.025,158.284c-.172.383-.336.773-.5,1.161Zm2,3.121q-.438-.721-.9-1.44l-122.84-24.559c-.154.389-.308.778-.453,1.171Zm1.729,3.068q-.369-.709-.764-1.414L248.029,163.329c-.135.392-.261.788-.388,1.184Zm1.419,3.006q-.294-.695-.618-1.385L247.219,165.889c-.116.4-.234.792-.342,1.194Zm1.087,2.939q-.214-.679-.46-1.353L246.525,168.473c-.1.4-.189.8-.279,1.205Zm.738,2.869q-.131-.663-.3-1.321L245.951,171.08c-.079.4-.152.81-.223,1.217Zm.413,2.8q-.07-.661-.158-1.293L245.5,173.712c-.061.408-.121.815-.173,1.226Zm.2,2.762c-.017-.433-.042-.857-.07-1.276l-133.056-26.6c-.043.41-.076.825-.111,1.24Zm.028,2.728c.007-.426.008-.846.006-1.261L244.952,179.047c-.024.414-.044.831-.06,1.249Zm-.114,2.7q.042-.63.069-1.247L244.858,181.749c-.006.419-.012.838-.01,1.26Zm-.242,2.674c.048-.416.089-.827.127-1.236L244.876,184.475c.012.422.032.846.052,1.272Zm-.365,2.65q.1-.616.183-1.226l-132.77-26.543c.031.425.069.854.107,1.283Zm-.478,2.626c.083-.406.163-.812.237-1.214L245.278,190c.055.431.11.863.178,1.3Zm-.591,2.6q.151-.6.287-1.2l-131.1-26.209q.129.657.281,1.318Zm-.7,2.581q.178-.6.341-1.194L246.377,195.664q.176.667.373,1.335Zm-.816,2.559q.2-.593.392-1.184L247.234,198.557c.146.451.3.9.459,1.353Zm-.933,2.536q.231-.586.448-1.172L248.286,201.49c.179.458.371.916.563,1.374Zm-1.054,2.511q.259-.58.5-1.16L249.55,204.465q.316.7.65,1.391Zm-1.177,2.487q.289-.573.562-1.149l-121.4-24.271c.241.47.485.94.739,1.409Zm-1.312,2.459q.319-.566.624-1.137L252.664,210.532c.274.477.559.954.845,1.431Zm-1.453,2.431q.354-.559.691-1.123L254.541,213.628q.46.727.94,1.45Zm-1.6,2.4c.259-.367.515-.737.764-1.108L256.629,216.768q.512.737,1.04,1.47Zm-1.773,2.368q.429-.542.842-1.093L258.939,219.953c.377.5.759,1,1.149,1.491Zm-1.949,2.333q.473-.534.926-1.076L261.49,223.185q.626.76,1.274,1.515Zm-2.159,2.291q.523-.524,1.026-1.057L264.307,226.47q.692.776,1.4,1.542Zm-2.379,2.246c.385-.341.761-.687,1.133-1.034l-92.939-18.58q.765.791,1.548,1.57Zm-2.65,2.193q.642-.5,1.261-1.009l-86.99-17.391q.849.809,1.715,1.6Zm-2.951,2.131c.478-.321.951-.647,1.412-.979l-80.372-16.068q.949.832,1.918,1.645Zm-3.314,2.06q.807-.461,1.588-.944l-72.958-14.585q1.075.858,2.168,1.694Zm-3.763,1.97q.918-.438,1.805-.9l-64.546-12.9q1.251.9,2.524,1.765Z" transform="translate(-16.663 -7.499)" fill="#bfa586" fill-rule="evenodd"/>
      <path id="Trazado_138908" data-name="Trazado 138908" d="M75.661,67.558c-1.405,1.142-2.874,1.659-3.283,1.157s.4-1.835,1.805-2.976,2.874-1.659,3.281-1.157-.4,1.835-1.8,2.976m.072,6.157c-.435.206-.87.2-.97-.006s.174-.546.611-.753.869-.2.968,0-.173.547-.609.754m-12.77,9.748c-.63.324-1.248.378-1.38.12s.27-.729.9-1.052,1.246-.378,1.378-.12-.27.729-.9,1.052M74.3,58.052c-.539-.549-3.171.437-4.617,1.689s-2.226,2.374-1.35,3.535c1.431,1.9,6.73-4.385,5.967-5.224m-5.845-4.668c.249.262-.084,1.67-.924,2.7s-1.492,1.173-1.928,1.056a1.332,1.332,0,0,1-.671-1.717c.3-.875,2.888-3.146,3.523-2.04M51.987,43.889c1,.4,2.027.28,2.3-.26s-.31-1.3-1.308-1.7-2.028-.28-2.3.26.31,1.3,1.307,1.7m.65,9.035c.122-.643,1.874-1.183,3.007-1.226a2.48,2.48,0,0,1,2.212,1.142c.175.433-.01,1.347-1.2,1.676s-4.358-.248-4.017-1.591m.046,8.933c.018-.6,2.071-1.856,4.268-2.072s3.134.389,3.505,1.04a2.212,2.212,0,0,1-1.24,2.8c-1.385.669-7.095.274-6.533-1.77m4.326,15.748c.007-.58,2.159-1.509,3.547-1.848s3.252-.2,3.324.618-1.539,1.516-2.685,1.784-4.174.034-4.186-.554M54.358,70.4c0-.769,2.574-1.9,4.483-2.02s3.25.142,3.437,1.583c.3,2.362-7.877,1.568-7.92.436M51.444,18.534c2.654-.259,5.294-.168,5.955.891,1.408,2.253-2.578,11.311-.249,12.317.925.216,3.088-9.46,2.994-11.062a2.228,2.228,0,0,0-1.4-1.935.147.147,0,0,1-.084-.164.15.15,0,0,1,.142-.117c1.852-.034,5.479.7,6.1,1.865a17.829,17.829,0,0,1-.22,9.426c-2.114,6.574-6.534,13.672-3.337,14.987,2.4,1.109,6.853-15.22,5.817-25.365a.433.433,0,0,1,.16-.386.426.426,0,0,1,.408-.079c2.2.682,6.052,3.506,7.514,3.763a20.485,20.485,0,0,1-.524,9.335c-1.793,6.046-5.143,12.94-6.339,16.225-1.493,4.093,2.172,2.047,3.486-.663,1.268-2.617,8.141-15.857,8.439-22.287a.513.513,0,0,1,.7-.457c2.916,1.11,7.408,5.484,6.653,10.272a24.225,24.225,0,0,1-3.553,8.79c-3.624,5.446-8.835,10.66-8.063,11.264.257.226,2.517-1.016,3.908-2.9,2.427-3.28,4.5-8.3,5.169-9.388.609-1,3.355-5.443,3.705-7.665a.147.147,0,0,1,.277-.043c2.593,5.164,5.173,6.045,4.929,11.423-.251,4.779-13.4,14.395-13.017,15.671s3.659.672,6.5-2.719a60.781,60.781,0,0,0,6.761-11.411c1.165,2,6.947,6.767,4.215,12.312-4.1,7.744-16.74,8.253-16.114,10.3.19.626,2.428-.287,2.786-.431,4.507-1.808,13.344-6.46,14.806-7.108-2.845,2.119,1.538,9.7-4.705,13.312-2.848,1.649-13.908-.945-14.908,2.254-.486.862,1.431,2.908,10.141-.294-.508,1.323,1.623,3.857.8,5.468s-2.986,2.264-4.03,3.388c-2.071,2.229-2.825,3.839-5.255,4.386a5.661,5.661,0,0,1-5.852-2.241c-.856-1.018-2.488-5.22-3.87-7.507-2-5.77-13.719-30.014-20.8-63.439Zm-1.866,21.3c1.082-1.8-3.781-3.488-7.312-7.164-3.5-3.646-6.329-8.129-4.568-9.056.8-.359,8,5.637,10,4.893,1.13-.566-3.389-7.2-2.482-8.657.209-.283,3.079-.99,6-1.3H51.21C54.118,42.528,66.971,74.6,70.077,83.138v0c.445,4.818,5.509,13.2,2.3,17.993-4.686,6.983-12.691,4.493-15.889,5.046,4.247-1.2,12.276-13.114,9.247-15.461-.337-.313-1.591.59-2.748,2.339-1.851,2.8-3.759,7-5.346,9.533a4.876,4.876,0,0,1-4.64,2.32c-2.916-.245-7.357-1.9-10.627-8.331a.215.215,0,0,1,.025-.239.219.219,0,0,1,.228-.075C47.4,97.55,52.719,95.542,54.206,94.8c1.5-.682,5.554-6.836,4.261-8.3-.511-.576-2.816-.018-5.411,1.529-3.981,2.376-8.943,6.354-11.45,6.425-4.14.116-8.821-7.259-10.18-11.451,6.933-1.569,12.088-.739,14.053-1.226s9-2.412,8.838-3.322-8.743.387-10.457.632-10.654,2.458-14.7-.013c-1.561-1-5.269-10.1-3.735-14.217,3.5,2.761,8.714.915,11.023,5.384,2.237.519,14.094,1.27,14.606-.126.291-.571-13.692-2.429-17.087-3.993-1.241-.646-1.807-1.48-2.532-1.76s-5.678-1.175-6.283-3.685-.046-8.846.833-10.287C29,53.494,47.308,62.713,50.2,61.254c1.693-.9-2.051-2.55-4.033-2.963s-16.881-4.428-20.835-10.7c-.879-2.155,1.069-10.906,1.648-12.4,2.542,6.531,24.01,19.643,24.611,14.574.1-.877-18.258-5.751-22.952-15.215-.477-1.341,2.721-6.937,3.645-8.012,3.852,3.649,14.253,16.506,17.23,13.445Z" transform="translate(-1.695 -1.253)" fill="#bfa586" fill-rule="evenodd"/>
      <path id="Trazado_138909" data-name="Trazado 138909" d="M69.5,49.55H316.33a10.9,10.9,0,0,1,10.864,10.864V256.3H58.635V60.414A10.9,10.9,0,0,1,69.5,49.55" transform="translate(-3.99 -3.372)" fill="#fff" fill-rule="evenodd"/>
      <path id="Trazado_138910" data-name="Trazado 138910" d="M68.07,59.721H318.931a.824.824,0,0,1,.821.821V195.668a.823.823,0,0,1-.821.82H68.07a.823.823,0,0,1-.821-.82V60.542a.824.824,0,0,1,.821-.821" transform="translate(-4.577 -4.064)" fill="#e4c7a1" fill-rule="evenodd"/>
    </g>
  </g>
  <g id="Grupo_66910" data-name="Grupo 66910" transform="translate(62.673 55.657)">
    <g id="Grupo_66909" data-name="Grupo 66909" clip-path="url(#clip-path-2)">
      <rect id="Rectángulo_9303" data-name="Rectángulo 9303" width="252.502" height="136.767" transform="translate(0 0)" fill="#e4c7a1"/>
    </g>
  </g>
  <g id="Grupo_66912" data-name="Grupo 66912">
    <g id="Grupo_66911" data-name="Grupo 66911" clip-path="url(#clip-path)">
      <path id="Trazado_138911" data-name="Trazado 138911" d="M275.75,59.721H296a28.48,28.48,0,0,0,37.923,31.172V111.75a48.617,48.617,0,0,1-58.382-47.583c0-1.5.071-2.981.2-4.445" transform="translate(-18.753 -4.064)" fill="#d44f4a" fill-rule="evenodd"/>
      <path id="Trazado_138912" data-name="Trazado 138912" d="M200.986,107.62a23.745,23.745,0,1,1-23.744,23.744,23.744,23.744,0,0,1,23.744-23.744" transform="translate(-12.062 -7.324)" fill="#fff" fill-rule="evenodd"/>
      <path id="Trazado_138913" data-name="Trazado 138913" d="M195.42,119.16l9.912,5.723,9.912,5.723a1.764,1.764,0,0,1,0,3.055l-9.912,5.722-9.912,5.723a1.764,1.764,0,0,1-2.646-1.527V120.688a1.764,1.764,0,0,1,2.646-1.527" transform="translate(-13.119 -8.093)" fill="#d44f4a" fill-rule="evenodd"/>
      <path id="Trazado_138914" data-name="Trazado 138914" d="M201.06,190.259H304.119a1.435,1.435,0,1,1,0,2.869H201.06a1.435,1.435,0,1,1,0-2.869" transform="translate(-13.586 -12.948)" fill="#d44f4a" fill-rule="evenodd"/>
      <path id="Trazado_138915" data-name="Trazado 138915" d="M93.733,186.461l3.8,2.191,3.8,2.192a.676.676,0,0,1,0,1.17l-3.8,2.192-3.8,2.191a.675.675,0,0,1-1.013-.585v-8.765a.675.675,0,0,1,1.013-.585" transform="translate(-6.31 -12.683)" fill="#e9e5ff" fill-rule="evenodd"/>
      <path id="Trazado_138916" data-name="Trazado 138916" d="M111.669,190.259h126.2a1.435,1.435,0,0,1,0,2.869h-126.2a1.435,1.435,0,1,1,0-2.869" transform="translate(-7.502 -12.948)" fill="#e9e5ff" fill-rule="evenodd"/>
      <path id="Trazado_138917" data-name="Trazado 138917" d="M248.527,194.349a2.751,2.751,0,1,0-2.751-2.751,2.752,2.752,0,0,0,2.751,2.751" transform="translate(-16.727 -12.852)" fill="#e9e5ff" fill-rule="evenodd"/>
      <path id="Trazado_138918" data-name="Trazado 138918" d="M321.082,256.089v.609H318.2v-4.271h2.814v.609h-2.171v1.152h2v.612h-2v1.289Zm-4.984,0a.745.745,0,0,0,.508-.2.658.658,0,0,0,.149-.213.652.652,0,0,0,.055-.266.641.641,0,0,0-.055-.265.658.658,0,0,0-.149-.213.687.687,0,0,0-.227-.146.727.727,0,0,0-.281-.054h-1.086v1.358Zm-1.086-1.9h1.052a.6.6,0,0,0,.434-.172.552.552,0,0,0,0-.808.6.6,0,0,0-.433-.171h-1.052Zm1.831.239a1.247,1.247,0,0,1,.3.245,1.328,1.328,0,0,1,.211.324,1.091,1.091,0,0,1,.1.48,1.113,1.113,0,0,1-.1.466,1.188,1.188,0,0,1-.285.387,1.433,1.433,0,0,1-.43.268,1.416,1.416,0,0,1-.539.1h-1.729v-4.271h1.7a1.2,1.2,0,0,1,.476.094,1.277,1.277,0,0,1,.389.256,1.226,1.226,0,0,1,.26.377,1.112,1.112,0,0,1,.094.459.83.83,0,0,1-.072.355,1.247,1.247,0,0,1-.15.254,1.007,1.007,0,0,1-.218.205m-3.49,2.271h-.643v-4.271h.643Zm-3.795-2.3h1.052a.56.56,0,0,0,.244-.054.713.713,0,0,0,.2-.145.75.75,0,0,0,.143-.213.657.657,0,0,0,.056-.267.64.64,0,0,0-.056-.264.742.742,0,0,0-.143-.214.678.678,0,0,0-.2-.145.56.56,0,0,0-.244-.054h-1.052Zm.745.609h-.745v1.7h-.643v-4.271h1.7a1.256,1.256,0,0,1,.5.1,1.29,1.29,0,0,1,.409.275,1.357,1.357,0,0,1,.275.411,1.233,1.233,0,0,1,.1.5,1.111,1.111,0,0,1-.149.609,1.462,1.462,0,0,1-.328.37,1.5,1.5,0,0,1-.473.244L312,256.7h-.712Zm-5.355-.441a1.675,1.675,0,0,0,.12.637,1.65,1.65,0,0,0,.313.505,1.413,1.413,0,0,0,.443.333,1.192,1.192,0,0,0,.515.119,1.289,1.289,0,0,0,.442-.071,1.135,1.135,0,0,0,.346-.2,1.117,1.117,0,0,0,.247-.292,1.514,1.514,0,0,0,.151-.354h.678a2.109,2.109,0,0,1-.239.577,1.853,1.853,0,0,1-.4.474,1.824,1.824,0,0,1-.548.321,1.851,1.851,0,0,1-.675.118,1.883,1.883,0,0,1-.776-.166,2.012,2.012,0,0,1-.648-.459,2.285,2.285,0,0,1-.445-.69,2.287,2.287,0,0,1,0-1.705,2.283,2.283,0,0,1,.445-.692,2.015,2.015,0,0,1,.648-.46,1.869,1.869,0,0,1,.776-.166,1.819,1.819,0,0,1,.657.117,1.8,1.8,0,0,1,.54.322,1.953,1.953,0,0,1,.4.475,1.991,1.991,0,0,1,.238.576h-.679a1.467,1.467,0,0,0-.152-.356,1.12,1.12,0,0,0-.58-.486,1.176,1.176,0,0,0-.42-.072,1.216,1.216,0,0,0-.515.117,1.4,1.4,0,0,0-.443.332,1.643,1.643,0,0,0-.313.506,1.683,1.683,0,0,0-.12.637m-4-.983a1.021,1.021,0,0,1,.1-.445,1.12,1.12,0,0,1,.291-.378,1.443,1.443,0,0,1,.452-.264,1.648,1.648,0,0,1,.58-.1,1.489,1.489,0,0,1,.559.1,1.3,1.3,0,0,1,.73.7,1.323,1.323,0,0,1,.1.517h-.646a.709.709,0,0,0-.745-.745.976.976,0,0,0-.321.05.71.71,0,0,0-.249.139.66.66,0,0,0-.157.2.491.491,0,0,0-.054.224.4.4,0,0,0,.17.346,1.691,1.691,0,0,0,.421.209c.167.06.349.116.546.174a2.39,2.39,0,0,1,.546.232,1.34,1.34,0,0,1,.42.382,1.039,1.039,0,0,1,.171.623.978.978,0,0,1-.105.445,1.206,1.206,0,0,1-.3.378,1.456,1.456,0,0,1-.468.266,1.867,1.867,0,0,1-.62.1,1.8,1.8,0,0,1-.612-.1,1.379,1.379,0,0,1-.459-.271,1.13,1.13,0,0,1-.288-.418,1.433,1.433,0,0,1-.1-.534h.641a.725.725,0,0,0,.2.554.866.866,0,0,0,.611.192.975.975,0,0,0,.641-.176.546.546,0,0,0,.207-.434.455.455,0,0,0-.169-.374,1.47,1.47,0,0,0-.42-.226c-.169-.061-.35-.12-.547-.178a2.757,2.757,0,0,1-.546-.227,1.307,1.307,0,0,1-.42-.363.964.964,0,0,1-.17-.6m-1.865,2.511a.735.735,0,0,0,.281-.055.728.728,0,0,0,.226-.145.658.658,0,0,0,.149-.213.652.652,0,0,0,.055-.266.641.641,0,0,0-.055-.265.658.658,0,0,0-.149-.213.683.683,0,0,0-.226-.146.735.735,0,0,0-.281-.054H298v1.358Zm-1.086-1.9h1.052a.6.6,0,0,0,.434-.172.552.552,0,0,0,0-.808.594.594,0,0,0-.433-.171H298Zm1.831.239a1.246,1.246,0,0,1,.3.245,1.327,1.327,0,0,1,.211.324,1.091,1.091,0,0,1,.1.48,1.113,1.113,0,0,1-.1.466,1.188,1.188,0,0,1-.285.387,1.432,1.432,0,0,1-.43.268,1.416,1.416,0,0,1-.539.1h-1.729v-4.271h1.7a1.2,1.2,0,0,1,.476.094,1.276,1.276,0,0,1,.389.256,1.227,1.227,0,0,1,.26.377,1.113,1.113,0,0,1,.094.459.83.83,0,0,1-.072.355,1.205,1.205,0,0,1-.15.254,1.007,1.007,0,0,1-.218.205m-5.018,1.729a.929.929,0,0,0,.376-.075.918.918,0,0,0,.5-.526,1.148,1.148,0,0,0,.071-.417v-2.712h.646v2.712a1.666,1.666,0,0,1-.12.637,1.515,1.515,0,0,1-.332.506,1.485,1.485,0,0,1-.505.331,1.778,1.778,0,0,1-1.276,0,1.477,1.477,0,0,1-.5-.331,1.506,1.506,0,0,1-.334-.506,1.683,1.683,0,0,1-.119-.637v-2.712h.646v2.712a1.149,1.149,0,0,0,.071.417.932.932,0,0,0,.2.319.931.931,0,0,0,.676.281m-5.153-2.577a1.021,1.021,0,0,1,.1-.445,1.133,1.133,0,0,1,.291-.378,1.444,1.444,0,0,1,.452-.264,1.649,1.649,0,0,1,.58-.1,1.485,1.485,0,0,1,.559.1,1.3,1.3,0,0,1,.73.7,1.323,1.323,0,0,1,.1.517h-.646a.71.71,0,0,0-.745-.745.976.976,0,0,0-.321.05.71.71,0,0,0-.249.139.66.66,0,0,0-.158.2.491.491,0,0,0-.054.224.4.4,0,0,0,.17.346,1.691,1.691,0,0,0,.421.209c.167.06.349.116.546.174a2.391,2.391,0,0,1,.546.232,1.33,1.33,0,0,1,.42.382,1.04,1.04,0,0,1,.171.623.978.978,0,0,1-.105.445,1.206,1.206,0,0,1-.3.378,1.447,1.447,0,0,1-.468.266,1.868,1.868,0,0,1-.62.1,1.8,1.8,0,0,1-.612-.1,1.379,1.379,0,0,1-.459-.271,1.13,1.13,0,0,1-.288-.418,1.433,1.433,0,0,1-.1-.534h.642a.725.725,0,0,0,.2.554.867.867,0,0,0,.611.192.974.974,0,0,0,.641-.176.546.546,0,0,0,.207-.434.455.455,0,0,0-.169-.374,1.47,1.47,0,0,0-.42-.226c-.169-.061-.35-.12-.547-.178a2.78,2.78,0,0,1-.546-.227,1.308,1.308,0,0,1-.42-.363.97.97,0,0,1-.17-.6" transform="translate(-19.711 -17.177)" fill="#fff"/>
      <rect id="Rectángulo_9305" data-name="Rectángulo 9305" width="61.427" height="3.464" transform="translate(64.857 203.627)" fill="#cfcfcf"/>
      <line id="Línea_174" data-name="Línea 174" x2="268.557" transform="translate(54.645 221.838)" fill="none" stroke="#cfcfcf" stroke-miterlimit="2.613" stroke-width="2.835"/>
      <rect id="Rectángulo_9306" data-name="Rectángulo 9306" width="102.862" height="3.464" transform="translate(64.857 211.119)" fill="#cfcfcf"/>
      <path id="Trazado_138919" data-name="Trazado 138919" d="M76.086,246.223a7.92,7.92,0,1,1-7.92,7.92,7.92,7.92,0,0,1,7.92-7.92" transform="translate(-4.639 -16.757)" fill="#cfd3ff" fill-rule="evenodd"/>
      <rect id="Rectángulo_9307" data-name="Rectángulo 9307" width="22.815" height="2.709" transform="translate(84.897 233.101)" fill="#cfcfcf"/>
      <rect id="Rectángulo_9308" data-name="Rectángulo 9308" width="38.204" height="2.709" transform="translate(84.897 238.961)" fill="#cfcfcf"/>
      <path id="Trazado_138920" data-name="Trazado 138920" d="M36,168.3c1.349.144,4.043.337,5.548,1.181a80,80,0,0,1-2.094,9.921,2.6,2.6,0,0,1-2.592,2.054c-1.039-.082-1.445-1.779-1.537-3.941A57.353,57.353,0,0,1,36,168.3" transform="translate(-2.403 -11.454)" fill="#ffa281" fill-rule="evenodd"/>
      <path id="Trazado_138921" data-name="Trazado 138921" d="M41.453,170.066a30.086,30.086,0,0,1-6.466-.562c.008-2.44.533-9.831,2.853-13.006.69-.4,3.2-1.915,3.808-1.279,2.474,2.578.527,12.53-.195,14.847" transform="translate(-2.381 -10.553)" fill="#ededed" fill-rule="evenodd"/>
      <rect id="Rectángulo_9309" data-name="Rectángulo 9309" width="4.948" height="9.295" transform="translate(19.428 142.063) rotate(-15.278)" fill="#281616"/>
      <path id="Trazado_138922" data-name="Trazado 138922" d="M22.5,158.144c2.019-4.432,7.528-2.142,2.724,1.816C25.9,165.1,34.989,171,37.09,175.416c1.052,3.067.477,5.584-.391,5.9-4.4,1.578-15.446-20.432-14.2-23.167" transform="translate(-1.525 -10.598)" fill="#ffa281" fill-rule="evenodd"/>
      <path id="Trazado_138923" data-name="Trazado 138923" d="M47.616,256.758l3.43,3.952c.541.545,2.122,1.939,4.126,3.687,1.534-.2,2.578-1.775,2.123-2.5S51.039,255,51.039,255Z" transform="translate(-3.241 -17.354)" fill="#f29d7e" fill-rule="evenodd"/>
      <path id="Trazado_138924" data-name="Trazado 138924" d="M59.943,262.869c-.419.58-2.1,2.659-2.257,2.869s-.241.846-.342.976a8.047,8.047,0,0,1-1.8,1.425c-.24.171-3.244,3.426-3.33,3.39a.839.839,0,0,1-.321-.859c.07-.214.444-1.082.845-2.141s.777-2.2.926-2.748-.045-.946.405-1.533,1.583-.5,1.968-1.261-.274-1.444.007-1.81,1.676-.3,3.9,1.691" transform="translate(-3.53 -17.763)" fill="#fff" fill-rule="evenodd"/>
      <path id="Trazado_138925" data-name="Trazado 138925" d="M59.957,263.022l.029,0a2.209,2.209,0,0,1,.65.376c.053.106-.838,1.744-3.115,4.15s-4.211,4.4-5.276,4.12c.156-.045,3.088-3.222,3.325-3.389a8.064,8.064,0,0,0,1.8-1.426c.1-.129.184-.764.343-.976s1.807-2.252,2.245-2.853" transform="translate(-3.556 -17.9)" fill="#3b47bc" fill-rule="evenodd"/>
      <path id="Trazado_138926" data-name="Trazado 138926" d="M53.925,264.983a10.633,10.633,0,0,1,.13-1.666,3.326,3.326,0,0,1,1.334-.29,2.244,2.244,0,0,1,.246.612c-.489.256-1.115.344-1.422.746a1.44,1.44,0,0,0-.287.6" transform="translate(-3.67 -17.899)" fill="#fff" fill-rule="evenodd"/>
      <path id="Trazado_138927" data-name="Trazado 138927" d="M32.892,257.4l-.652,5.192c-.045.766-.026,2.875.01,5.533,1.173,1.008,3.044.733,3.282-.091s.953-9.259.953-9.259Z" transform="translate(-2.192 -17.518)" fill="#f29d7e" fill-rule="evenodd"/>
      <path id="Trazado_138928" data-name="Trazado 138928" d="M36.165,270.806c-.711.075-3.379.214-3.643.236s-.791.386-.955.4a8.085,8.085,0,0,1-2.262-.387c-.287-.066-4.717-.128-4.746-.215a.837.837,0,0,1,.426-.813c.205-.09,1.1-.391,2.157-.8,1.041-.4,2.154-.888,2.664-1.145s.674-.665,1.411-.722,1.432.842,2.253.623.891-1.169,1.352-1.2,1.339,1.049,1.342,4.029" transform="translate(-1.671 -18.156)" fill="#fff" fill-rule="evenodd"/>
      <path id="Trazado_138929" data-name="Trazado 138929" d="M36.146,271.1l.021.021a2.243,2.243,0,0,1,.156.735c-.046.109-1.858.54-5.169.452s-6.084-.2-6.59-1.176c.137.087,4.458.147,4.744.213a8.083,8.083,0,0,0,2.261.386c.163-.01.692-.374.955-.4s2.883-.158,3.623-.234" transform="translate(-1.672 -18.45)" fill="#3b47bc" fill-rule="evenodd"/>
      <path id="Trazado_138930" data-name="Trazado 138930" d="M31.021,267.524a10.728,10.728,0,0,1,1.326-1.016c.141.021,1.107.645,1.107.8a2.242,2.242,0,0,1-.292.592c-.517-.192-1-.6-1.5-.561a1.451,1.451,0,0,0-.637.186" transform="translate(-2.111 -18.137)" fill="#fff" fill-rule="evenodd"/>
      <path id="Trazado_138931" data-name="Trazado 138931" d="M37.175,193.736c-3.641,5.033-16.453,21.167-11.907,31.947,4.253,9.534,20.781,28.1,22.762,29.856,1.045-.348,3.391-3.776,3.758-4.51a7.952,7.952,0,0,1-1.6-2.7,5.018,5.018,0,0,0,.248-1.623c-.11-.7-2.851-3.373-3.071-4.134s-.074-1.21-.33-1.75-3.554-4.47-4.058-5.313-.706-3.759-2.045-4.95c-.787-.788-5.676-4.077-7.216-8.94s14.658-13.7,17.643-26.28Z" transform="translate(-1.654 -13.185)" fill="#281616" fill-rule="evenodd"/>
      <path id="Trazado_138932" data-name="Trazado 138932" d="M41.47,194.013c-.6,3.822-8.5,47.65-9.438,64.1.981.248,5.3.889,6.279.936-.092-2.2,1.274-4.363,1.348-4.968a15.327,15.327,0,0,1-.055-2.4c.192-.825,1.719-1.929,1.957-2.947.078-.4-.316-1.637-.133-2.232s1.073-.669,1.256-1.4-.825-2.493-.642-2.988,2.824-3.282,2.787-4.382c-.091-.751-1.335-1.026-1.191-2.072C44.925,226.3,55.73,207.875,56.476,193.3l-8.286,1.1Z" transform="translate(-2.18 -13.155)" fill="#6bbcb1" fill-rule="evenodd"/>
      <path id="Trazado_138933" data-name="Trazado 138933" d="M58.8,156.875a81.882,81.882,0,0,1,7.59,9.423c-.026.033-.054.065-.083.1a48.3,48.3,0,0,1-4.229,3.922c-.382.319-.677.554-.816.65a57.255,57.255,0,0,1-4.64-5.723c.084,8.9.117,18.358.24,26.86-3.147.766-17.2,1.422-19.419-.244.728-10.048.163-27.4,1.828-36.041,1.273-1.15,5.318-1.928,6.564-2.112,3.415-.113,9.509.424,12.966,3.165" transform="translate(-2.548 -10.46)" fill="#fff" fill-rule="evenodd"/>
      <path id="Trazado_138934" data-name="Trazado 138934" d="M59.21,190.729c.531-1.063,6.844-12.917,7.669-14.842-.116-.7-2.713-3.486-3.6-4.64a48.325,48.325,0,0,0,4.23-3.923c1.623,2.058,5.029,7.218,4.993,8.59-.129,4.981-9.063,13.342-12.189,17.29a4.759,4.759,0,0,1-5.133,3.831c-.668-.133.6-2.294,1.93-3.81.342-.056.662-.119.952-.19,0-.252-.007-.5-.01-.756q-.01-.739-.02-1.486a3.305,3.305,0,0,1,1.181-.064" transform="translate(-3.743 -11.387)" fill="#f29d7e" fill-rule="evenodd"/>
    </g>
  </g>
  <g id="Grupo_66914" data-name="Grupo 66914" transform="translate(41.677 139.098)">
    <g id="Grupo_66913" data-name="Grupo 66913" clip-path="url(#clip-path-4)">
      <rect id="Rectángulo_9311" data-name="Rectángulo 9311" width="5.375" height="6.679" transform="translate(-0.002)" fill="url(#linear-gradient)"/>
    </g>
  </g>
  <g id="Grupo_66916" data-name="Grupo 66916">
    <g id="Grupo_66915" data-name="Grupo 66915" clip-path="url(#clip-path)">
      <path id="Trazado_138936" data-name="Trazado 138936" d="M43.524,151.918c.029.166.588.4,1.01.287s.536-.335.472-.487-.587-.213-.86-.149-.647.176-.623.349" transform="translate(-2.962 -10.313)" fill="#e5ac8e" fill-rule="evenodd"/>
      <path id="Trazado_138937" data-name="Trazado 138937" d="M45.357,149.965c.586.146,1.189,1.267,1.518-.24.105-.394,1.39-.938,1.433-1.108a13.47,13.47,0,0,0,.444-2.744c-.112-.4-.983-.647-1.072-.943s.527-1.194-.209-1.629-1.872.484-2.543.4c-.387-.05-.672-.515-1.135-.776a1.494,1.494,0,0,0-1.038-.147c-2.085.756-1.247,6.592.117,9.1.1.052-.264-1.347-.068-1.508a5.59,5.59,0,0,1,2.553-.4" transform="translate(-2.824 -9.714)" fill="#e5ac8e" fill-rule="evenodd"/>
      <path id="Trazado_138938" data-name="Trazado 138938" d="M49.626,147.116s-.241,2-.322,2.449c1.19-.461,2.253-2.242,1.568-2.832a.956.956,0,0,0-1.246.383" transform="translate(-3.355 -9.979)" fill="#e5ac8e" fill-rule="evenodd"/>
      <path id="Trazado_138939" data-name="Trazado 138939" d="M43.909,150.631c.272-.064.795,0,.859.149s-.049.376-.472.487-.981-.121-1.011-.287.35-.286.623-.349m4.744-5.1a13.534,13.534,0,0,1-.444,2.744c-.044.171-1.329.714-1.433,1.108-.329,1.508-.932.387-1.518.24a5.59,5.59,0,0,0-2.553.4c-.2.162-.2,1.048-.3,1a6.331,6.331,0,0,0,1.174,1.518,2.653,2.653,0,0,0,1.538.3A3.54,3.54,0,0,0,47.39,151.8a6.777,6.777,0,0,0,1.281-2.831l0-.008c.08-.448.322-2.449.322-2.449a.8.8,0,0,1,.955-.166c.24.207.416,1.523-1.242,2.618.013,0,.46.607.474.611a1.5,1.5,0,0,1,.592.363c1.243-.831.538-1.463.8-2.011s1.178-1.246,1.32-2.061a3.14,3.14,0,0,0-.36-1.711c-.1-.379.493-2.212.408-2.557s-.71-.391-.845-.627c-.171-.363.282-1.173-.047-1.631s-1.153-.109-1.263-.135c-.5-.138-1.413-1.346-3-1.434s-1.786,1.006-2.06,1.074c-.294.073-1.131-.449-1.985-.27a1.9,1.9,0,0,0-1.436,1.075,1.21,1.21,0,0,0-1.166.9c-.248.866.46,1.972.508,2.244.068.394-.639.817-.606,1.3.038.554,1.007.981,1.362,1.421.013-1.514.371-2.756,1.258-3.078a1.5,1.5,0,0,1,1.038.147c.463.261.748.726,1.135.776.671.087,1.808-.833,2.543-.4s.12,1.332.209,1.629.96.545,1.072.943" transform="translate(-2.725 -9.376)" fill="#281616" fill-rule="evenodd"/>
      <path id="Trazado_138940" data-name="Trazado 138940" d="M333.995,158.775c1,1.034,4.7,4.467,7.152,6.717-.986.662-2.515,1.527-3.829,2.272-1.982-2.578-4.277-5.628-5.372-7.367-3.778-1.35-5.3-3.6-4.619-5.229.365-.882,1.334-1.175,2.831.021a17.887,17.887,0,0,1,1.888,1.841c.019-.064-.405-1.836.111-2.031.749-.282,1.965,2.48,1.838,3.776" transform="translate(-22.266 -10.508)" fill="#e6a586" fill-rule="evenodd"/>
      <path id="Trazado_138941" data-name="Trazado 138941" d="M343.369,174.867a40.952,40.952,0,0,1-10.392-12.66c-.114-.21,2.672-1.642,3.37-2.11a135.608,135.608,0,0,0,11.29,9.25c2.212,1.547,6.1,5.7,4.651,7.742-1.7,2.4-7.3-.99-8.919-2.223" transform="translate(-22.661 -10.896)" fill="#dfdfe6" fill-rule="evenodd"/>
      <path id="Trazado_138942" data-name="Trazado 138942" d="M350.726,255.3l-.733,5.842c-.05.862-.03,3.235.011,6.226,1.321,1.134,3.425.825,3.693-.1s1.073-10.418,1.073-10.418Z" transform="translate(-23.817 -17.375)" fill="#e5ac8e" fill-rule="evenodd"/>
      <path id="Trazado_138943" data-name="Trazado 138943" d="M354.408,270.37c-.8.084-3.8.241-4.1.266s-.89.433-1.075.446a9.112,9.112,0,0,1-2.545-.435c-.323-.074-5.307-.144-5.342-.242a.944.944,0,0,1,.48-.914c.231-.1,1.239-.441,2.428-.9,1.171-.452,2.424-1,3-1.289.358-.181.565-.428.871-.6h0a11.929,11.929,0,0,1,1.492-1.143c.158.024,1.245.726,1.245.9a2.542,2.542,0,0,1-.328.665,1.353,1.353,0,0,0,.842.071c.924-.247,1-1.315,1.523-1.354s1.507,1.181,1.51,4.534" transform="translate(-23.23 -18.073)" fill="#3b47bc" fill-rule="evenodd"/>
      <path id="Trazado_138944" data-name="Trazado 138944" d="M354.386,270.724l.022.022a2.483,2.483,0,0,1,.175.828c-.049.124-2.09.608-5.816.509s-6.846-.225-7.415-1.322c.155.1,5.019.165,5.338.238a9.029,9.029,0,0,0,2.545.435c.184-.012.777-.421,1.074-.445s3.245-.179,4.077-.264" transform="translate(-23.231 -18.424)" fill="#fff" fill-rule="evenodd"/>
      <path id="Trazado_138945" data-name="Trazado 138945" d="M356.683,231.9c.075,5.652,2.336,11.644,2.212,12.224-.192.886-1.209.17-1.553,2.19-.2,1.194.562,3.017.555,4.141,0,.679-1.083.155-1.066.865.061,2.513.226,5.807-.023,6.037-.2.187-.793-.135-1.282.029-.513.172-.444.542-1,.607-.958.113-2.272-.65-5.331.239-1.19-11.909-2.994-23.825-1.727-35.788,1.085-10.238,3.705-19.723,5.344-29.733,2.26-1.5,4.179-.2,7.2-.1a33.731,33.731,0,0,0,4.805-.323c3.483,11.942-3.922,20.336-6.232,28.592-.747,2.665-1.981,5.489-1.907,11.025" transform="translate(-23.618 -13.066)" fill="#281616" fill-rule="evenodd"/>
      <path id="Trazado_138946" data-name="Trazado 138946" d="M402.555,238.284l5.7,1.48c.849.161,3.2.446,6.176.79,1.3-1.163,1.259-3.29.374-3.675s-10.194-2.406-10.194-2.406Z" transform="translate(-27.396 -15.957)" fill="#e5ac8e" fill-rule="evenodd"/>
      <path id="Trazado_138947" data-name="Trazado 138947" d="M418.039,236c-.02.805-.251,3.8-.265,4.1s.315.938.3,1.123a9.08,9.08,0,0,1-.759,2.468c-.116.311-.826,5.245-.928,5.266a.945.945,0,0,1-.845-.594c-.071-.242-.278-1.285-.58-2.524-.3-1.22-.679-2.532-.892-3.139-.133-.378-.351-.615-.486-.942h0a11.917,11.917,0,0,1-.942-1.626c.046-.154.882-1.142,1.053-1.119a2.557,2.557,0,0,1,.618.411,1.355,1.355,0,0,0,.178-.826c-.126-.948-1.174-1.164-1.146-1.684s1.365-1.342,4.69-.913" transform="translate(-28.083 -16.053)" fill="#3b47bc" fill-rule="evenodd"/>
      <path id="Trazado_138948" data-name="Trazado 138948" d="M360.63,146.3c-.951-.937-2.9-5.592,1.009-8.564a9.807,9.807,0,0,1,8.951-1.33c3.645,1.352,4.39,6.244,7.138,7.4s5.874-1.407,11.134.421c4.442,1.544,5.152,8.122,6.772,9.007,2.612,1.429,4.717,1.719,5.858,4.156a9.436,9.436,0,0,1-1.637,9.968c-4.253,4.481-10.5,3.928-14.243,1.813-4.38-2.476-4.869-6.367-5.992-7.032s-4.33-.142-6.548-2.081-1.6-5.345-5-6.031l-2.52-6.308Z" transform="translate(-24.452 -9.247)" fill="#281616" fill-rule="evenodd"/>
      <path id="Trazado_138949" data-name="Trazado 138949" d="M418.313,236.021l.025-.02a2.489,2.489,0,0,1,.843-.067c.117.065.334,2.151-.244,5.833s-1.1,6.76-2.267,7.184h0c.116-.141.811-4.955.924-5.263a9.042,9.042,0,0,0,.76-2.468c.011-.184-.318-.826-.3-1.123s.24-3.239.264-4.076" transform="translate(-28.357 -16.055)" fill="#fff" fill-rule="evenodd"/>
      <path id="Trazado_138950" data-name="Trazado 138950" d="M347.4,173.161c.839,2.433,3.15,5.174,5.192,4.4,4.124-3.546,6.729-10.357,7.983-14.371.466-2.949-.22-5-1.553-5.854-5.5-3.537-8.191,12.645-11.622,15.83" transform="translate(-23.642 -10.673)" fill="#dfdfe6" fill-rule="evenodd"/>
      <path id="Trazado_138951" data-name="Trazado 138951" d="M360.341,154.284c-1.348.727-4.377,2.582-5.617,4.8a10.008,10.008,0,0,0-.062,5.834s4.043-.661,4.232-.841,1.812-1.856,1.816-2.653a18.947,18.947,0,0,1,.461-3.135Z" transform="translate(-24.111 -10.5)" fill="#dfdfe6" fill-rule="evenodd"/>
      <path id="Trazado_138952" data-name="Trazado 138952" d="M362.616,192.478c4.552-1.777,10.055-3.076,13.32.229,2.229,8.332-1.171,23.992,3.322,28.912,2.927,3.206,9.2,2.383,15.467,2.855.921.07,2.43,1.5,2.987,1.825,1.916,1.037,3.335.357,4.646.854a6.472,6.472,0,0,1,2.677,2.374c.308.483,2.353-.776,2.584.007s-.449,5.308-1.666,7.479c-8.756-1.979-18.806-2.982-28.882-4.047a16.709,16.709,0,0,1-8.8-4.843c-5.088-5.886-6.084-28.664-5.656-35.643" transform="translate(-24.672 -12.976)" fill="#6bbcb1" fill-rule="evenodd"/>
      <path id="Trazado_138953" data-name="Trazado 138953" d="M376.587,156c3.808,3.581-2.759,15.048-2.752,19.893.011,6.643,3.121,14.1,3.042,16.139-6.8,1.354-16.676-2.984-24.312-1.618,1.623-6.12,4.045-11.415,4.357-15.158.848-10.167-3.708-10.938-.539-17.234,1.929-3.834,5.674-4.676,9.436-4.622a22.409,22.409,0,0,1,10.768,2.6" transform="translate(-23.994 -10.44)" fill="#f5f5f5" fill-rule="evenodd"/>
      <path id="Trazado_138954" data-name="Trazado 138954" d="M364.452,150.961a3.737,3.737,0,0,1-1.1-.24c-1.606-.655-2.371-2.213-2.69-4.142a14.624,14.624,0,0,1-.168-1.626c.758-1.445,3.565-3.548,5.279-4.313a6.945,6.945,0,0,0,3.6,5.574,1.29,1.29,0,0,1,1.779-.853c.729.378,1.406,2.167-1.984,4.06l.479,4.276a3.436,3.436,0,0,1-2.4,1.443,2.7,2.7,0,0,1-2.459-1.119Z" transform="translate(-24.534 -9.571)" fill="#f7b290" fill-rule="evenodd"/>
    </g>
  </g>
  <g id="Grupo_66918" data-name="Grupo 66918" transform="translate(338.821 139.308)">
    <g id="Grupo_66917" data-name="Grupo 66917" clip-path="url(#clip-path-6)">
      <rect id="Rectángulo_9313" data-name="Rectángulo 9313" width="7.721" height="7.38" transform="translate(-0.735 0.082) rotate(-6.394)" fill="url(#linear-gradient-2)"/>
    </g>
  </g>
  <g id="Grupo_66920" data-name="Grupo 66920">
    <g id="Grupo_66919" data-name="Grupo 66919" clip-path="url(#clip-path)">
      <path id="Trazado_138956" data-name="Trazado 138956" d="M340.623,160.828h10.331a1.492,1.492,0,0,1,1.334,1.608v.074h-11.11Z" transform="translate(-23.181 -10.945)" fill="#f0b44d" fill-rule="evenodd"/>
      <path id="Trazado_138957" data-name="Trazado 138957" d="M332.308,143.12l3.992,10.039,2.57,6.464.668,1.681H314.26l-7.15-18.184Z" transform="translate(-20.901 -9.74)" fill="#ffc200" fill-rule="evenodd"/>
      <path id="Trazado_138958" data-name="Trazado 138958" d="M345.278,163.072c1.288.647,5.913,2.667,8.965,3.985-.712.949-1.872,2.269-2.866,3.407-2.722-1.782-5.893-3.9-7.5-5.186-1.554.566-5.416-.885-6.492-2.272-.8-1.031,3.016-.129,4.864-.42,0-.067-.951-1.748.264-2.184.185-.066.319.778,1.174,1.337a5.446,5.446,0,0,1,1.591,1.334" transform="translate(-22.954 -10.916)" fill="#e6a586" fill-rule="evenodd"/>
      <path id="Trazado_138959" data-name="Trazado 138959" d="M372.185,172.79c-2.623,4.581-6.5,3.911-10.884,2.593a43.122,43.122,0,0,1-15.669-8.651c-.177-.161,1.981-2.431,2.486-3.1,2.587,1.117,15.44,6.656,18.413,5.829.852-.17,5.207,2.189,5.653,3.333" transform="translate(-23.522 -11.136)" fill="#fff" fill-rule="evenodd"/>
      <path id="Trazado_138960" data-name="Trazado 138960" d="M366.327,170.381c.678,2.483,3.759,4.394,5.848,3.75,2.163-2.785,5.706-7.656,7.221-11.578.658-2.912-.188-5.185-1.462-6.128-5.26-3.888-10.726,11.454-11.606,13.956" transform="translate(-24.931 -10.603)" fill="#fff" fill-rule="evenodd"/>
      <path id="Trazado_138961" data-name="Trazado 138961" d="M238.987,234.156c-1.358,14.067-4.758,21.182,1.073,36.008-3.92.953-20.755,4.479-23.678,2.287,7.272-21-.3-28.789,1.709-39.229,6.09-4,16.152-1.354,20.9.935" transform="translate(-14.726 -15.731)" fill="#6bbcb1" fill-rule="evenodd"/>
      <path id="Trazado_138962" data-name="Trazado 138962" d="M203.267,249.789c.954.954,4.778,5.551,10.466.473s-1.082-8.668-1.082-8.668l-4,4.795-2.411-1.357Z" transform="translate(-13.834 -16.442)" fill="#f7b290" fill-rule="evenodd"/>
      <path id="Trazado_138963" data-name="Trazado 138963" d="M217.67,233.372a68.487,68.487,0,0,0-7.465,9.442,57.854,57.854,0,0,0,6.1,5.553,30.587,30.587,0,0,0,4.535-6.159Z" transform="translate(-14.306 -15.882)" fill="#6bbcb1" fill-rule="evenodd"/>
      <path id="Trazado_138964" data-name="Trazado 138964" d="M185.887,232.309c2.15,4.582,10.735,11.45,15.025,15.644,5.709,5.582,7.114-.481,6.208-1.6a23.187,23.187,0,0,0-2.568-2.629c-6.795-5.677-17.009-11.588-17.375-12.536.9-3.3-.98-4.048-.877-1.631-.478-1.749-2.669-2.733-3.5-2.411-.644.25-.718,1.606,3.087,5.168" transform="translate(-12.418 -15.454)" fill="#f7b290" fill-rule="evenodd"/>
      <path id="Trazado_138965" data-name="Trazado 138965" d="M212.862,262.858c1.349-.422,18.023-5.362,20.351-6.244.5-.676.747-5.2,1-6.911a57.282,57.282,0,0,0,6.845.386c-.422,3.086-2.031,10.258-3.234,11.359-4.371,4-18.9,3.246-24.853,3.827-.8.586-4.753,2.91-7.478-.578-1.068-1.67,4.4-2.534,5.656-1.64-1.225-1.138-1.272-2.119-.85-2.535.379-.241,1.259.4,2.562,2.337" transform="translate(-13.976 -16.994)" fill="#f7b290" fill-rule="evenodd"/>
      <path id="Trazado_138966" data-name="Trazado 138966" d="M239.7,283.4a7.535,7.535,0,0,1,3.362,2.115c.828.915,3.564-4.1,3.564-4.1l-.255-.452c-.756-.717-4.235-1.91-5.263-2.3Z" transform="translate(-16.313 -18.965)" fill="#f7bcaa" fill-rule="evenodd"/>
      <path id="Trazado_138967" data-name="Trazado 138967" d="M248.549,279.779a11.8,11.8,0,0,1-1.006,3.581,12.6,12.6,0,0,1-2.582,3.656c-.467.23-2.356-1.594-2.471-1.828s1.247-4.827,2.061-5.433,3.94-.4,4,.024" transform="translate(-16.502 -19.013)" fill="#3a438c" fill-rule="evenodd"/>
      <path id="Trazado_138968" data-name="Trazado 138968" d="M197.3,272.5c12.854,9.738,15.838,10.462,23.913,10.683s18.09-4.656,25.969-9.96l-2.3-3.349-11.8-1.106-13.864,4.129-12.684-.959Z" transform="translate(-13.427 -18.291)" fill="#281616" fill-rule="evenodd"/>
      <path id="Trazado_138969" data-name="Trazado 138969" d="M239.2,277.363l-2.848,6.255a244.461,244.461,0,0,1-27.413-5.923c-4.006-1.169-18.258-6.207-14.145-12.787,2.855-4.57,16.972-.767,44.406,12.455" transform="translate(-13.207 -17.903)" fill="#281616" fill-rule="evenodd"/>
      <path id="Trazado_138970" data-name="Trazado 138970" d="M209.98,278.4l-4.221-.074c-.8.18-4.24,1.753-6.952,2.572-.687,1.5.144,3.334,1.06,3.334s9.377-2.208,9.377-2.208Z" transform="translate(-13.513 -18.942)" fill="#e5ac8e" fill-rule="evenodd"/>
      <path id="Trazado_138971" data-name="Trazado 138971" d="M194.344,278.83l2.118,7.372a9.023,9.023,0,0,0,2.746-.992c.692-.479,1.266-.962,1.177-1.307-.178-.7-1.336.075-1.563-.939s.687-.9.347-2.236a10.637,10.637,0,0,0-3.035-1.868,2.273,2.273,0,0,0-1.79-.031" transform="translate(-13.226 -18.965)" fill="#343c7d" fill-rule="evenodd"/>
      <path id="Trazado_138972" data-name="Trazado 138972" d="M194.344,278.831l2.118,7.372a4.9,4.9,0,0,0,.947-.226l-2.339-7.3a3.326,3.326,0,0,0-.726.158" transform="translate(-13.226 -18.965)" fill="#343c7d" fill-rule="evenodd"/>
      <path id="Trazado_138973" data-name="Trazado 138973" d="M201.617,278.447l2.781,5.6c4.837-.788,22.19-3.363,33.225-6.429,4.3-1.2,18.072-7.634,13.819-13.783-3.066-4.431-22.171,1.856-49.825,14.614" transform="translate(-13.721 -17.859)" fill="#d44f4a" fill-rule="evenodd"/>
      <path id="Trazado_138974" data-name="Trazado 138974" d="M235.1,265.981h-8.242v1.43h8.957V266.7a.717.717,0,0,0-.715-.715" transform="translate(-15.439 -18.102)" fill="#fdce3d" fill-rule="evenodd"/>
      <path id="Trazado_138975" data-name="Trazado 138975" d="M225.739,266.331l-5.671-16.222h-25.8l5.553,16.222Z" transform="translate(-13.221 -17.021)" fill="#fdce3d" fill-rule="evenodd"/>
      <path id="Trazado_138976" data-name="Trazado 138976" d="M243.754,238.707c.815,3.111-.171,10.159-.892,12.457-.049,0-.1.007-.153.01a41.641,41.641,0,0,1-8.076-.547,42.551,42.551,0,0,1,.407-7.535c.169-.793.983-8.745,3.659-9,1.924-.183,4.239,1.5,5.055,4.614" transform="translate(-15.968 -15.93)" fill="#6bbcb1" fill-rule="evenodd"/>
      <path id="Trazado_138977" data-name="Trazado 138977" d="M209.571,256.263a2.144,2.144,0,1,1-2.144,2.144,2.144,2.144,0,0,1,2.144-2.144" transform="translate(-14.117 -17.44)" fill="#3b87ff" fill-rule="evenodd"/>
    </g>
  </g>
  <g id="Grupo_66922" data-name="Grupo 66922" transform="translate(210.396 211.664)">
    <g id="Grupo_66921" data-name="Grupo 66921" clip-path="url(#clip-path-8)">
      <rect id="Rectángulo_9315" data-name="Rectángulo 9315" width="6.576" height="7.651" transform="translate(0)" fill="url(#linear-gradient-3)"/>
    </g>
  </g>
  <g id="Grupo_66924" data-name="Grupo 66924">
    <g id="Grupo_66923" data-name="Grupo 66923" clip-path="url(#clip-path)">
      <path id="Trazado_138979" data-name="Trazado 138979" d="M225.871,229.718c1.65.217,3.574-.467,4.235-1.754-.121,1.369-1.417,3.1-4.235,3.14Z" transform="translate(-15.372 -15.514)" fill="#bd8a6f" fill-rule="evenodd"/>
      <path id="Trazado_138980" data-name="Trazado 138980" d="M230.3,226.48a26.541,26.541,0,0,0,.975-3.019l-1.294-.515.543-1.911c-1.224-.184-4.4-.308-6.47-3.281-3.745-5.369,2.853-8.868,4.271-4.534a8.024,8.024,0,0,1,6.679,1.923,5.134,5.134,0,0,1,1.583,4.89c1.066.235,2.228,2.049,1.6,4.5a6.62,6.62,0,0,1-6.356,4.721l-.557-2.02c1.3-.423,2.609-1.739,1.762-2.647-.942-1.009-1.682,1.447-2.732,1.895" transform="translate(-15.171 -14.378)" fill="#2d357d" fill-rule="evenodd"/>
    </g>
  </g>
  <g id="Grupo_66926" data-name="Grupo 66926" transform="translate(208.334 204.484)">
    <g id="Grupo_66925" data-name="Grupo 66925" clip-path="url(#clip-path-10)">
      <rect id="Rectángulo_9317" data-name="Rectángulo 9317" width="13.554" height="14.152" transform="translate(-4.165 9.6) rotate(-72.363)" fill="url(#linear-gradient-4)"/>
    </g>
  </g>
  <g id="Grupo_66928" data-name="Grupo 66928">
    <g id="Grupo_66927" data-name="Grupo 66927" clip-path="url(#clip-path)">
      <path id="Trazado_138982" data-name="Trazado 138982" d="M225.262,28.179c14.2,3.145,24.247,6.246,30.781,7.569L291.318,23.88l1.736,6.823L255.461,48.526l-31.879-6.741Z" transform="translate(-15.216 -1.625)" fill="#281616" fill-rule="evenodd"/>
      <path id="Trazado_138983" data-name="Trazado 138983" d="M222.567,48.213c1.945,0,24-.078,31.406-.365a4.4,4.4,0,0,0,3.582-2c5.412-8.039,19.824-32.644,19.824-32.644L270.226,9.9l-18.9,27.168S231.064,35.62,223,33.842Z" transform="translate(-15.147 -0.674)" fill="#6bbcb1" fill-rule="evenodd"/>
    </g>
  </g>
  <g id="Grupo_66930" data-name="Grupo 66930" transform="translate(158.689 32.197)">
    <g id="Grupo_66929" data-name="Grupo 66929" clip-path="url(#clip-path-12)">
      <rect id="Rectángulo_9319" data-name="Rectángulo 9319" width="25.316" height="19.237" transform="translate(-4.007 1.55) rotate(-21.144)" fill="url(#linear-gradient-5)"/>
    </g>
  </g>
  <g id="Grupo_66932" data-name="Grupo 66932" transform="translate(176.83 19.43)">
    <g id="Grupo_66931" data-name="Grupo 66931" clip-path="url(#clip-path-13)">
      <rect id="Rectángulo_9320" data-name="Rectángulo 9320" width="37.579" height="31.961" transform="matrix(0.995, -0.098, 0.098, 0.995, -3.752, 0.273)" fill="url(#linear-gradient-6)"/>
    </g>
  </g>
  <g id="Grupo_66934" data-name="Grupo 66934">
    <g id="Grupo_66933" data-name="Grupo 66933" clip-path="url(#clip-path)">
      <path id="Trazado_138986" data-name="Trazado 138986" d="M195.856,23.853c8.11-1.665,6.41,22.331,5.375,25.723-2.357.434-10.689,1.571-15.961-.186-2.405-.8-5.543-2.853-8.285-3.39-3.393-.664-6.349.442-6.8-.052-.445-.548,2.161-2.864,7.475-2.824a117.061,117.061,0,0,1,16.892,1.924c-.951-2.771-3.916-20.122,1.3-21.194" transform="translate(-11.579 -1.618)" fill="#ef7357" fill-rule="evenodd"/>
      <path id="Trazado_138987" data-name="Trazado 138987" d="M179.841,50.413h-7.154v1.24h7.774v-.62a.623.623,0,0,0-.621-.621" transform="translate(-11.752 -3.431)" fill="#3b47bc" fill-rule="evenodd"/>
      <path id="Trazado_138988" data-name="Trazado 138988" d="M176.927,47.4l.367-2.864c-5.066.065-7.541,2.286-7.108,2.822.447.492,3.372-.6,6.741.042" transform="translate(-11.579 -3.031)" fill="#e6a586" fill-rule="evenodd"/>
      <path id="Trazado_138989" data-name="Trazado 138989" d="M171.713,50.716l-4.922-14.08H144.4l4.818,14.08Z" transform="translate(-9.827 -2.493)" fill="#ffc200" fill-rule="evenodd"/>
      <path id="Trazado_138990" data-name="Trazado 138990" d="M186.005,26.76a6.111,6.111,0,0,1,4.591,2.831c.567,1.315,3.4-3.175,3.4-3.175a6.628,6.628,0,0,0,.4-1.578c-.1-.141-5.284-3.529-5.284-3.529l-2.3.4a19.22,19.22,0,0,0-1.719,2.022Z" transform="translate(-12.597 -1.45)" fill="#e6a586" fill-rule="evenodd"/>
      <path id="Trazado_138991" data-name="Trazado 138991" d="M177.306,23.49c.953,2.556,2.785,4.554,6.3,3.74,4.145-1.153,6.067-5.38,4.206-12.579-.961-2.182-1.364-5.607-7.058-5.076-6.317.589-5.092,9.5-3.444,13.916" transform="translate(-11.977 -0.648)" fill="#e6a586" fill-rule="evenodd"/>
      <path id="Trazado_138992" data-name="Trazado 138992" d="M176.165,19.716c2.222-1.8,2.137-5.005,2.368-6.808,2.258,4.3,5.711,11.866,11.136,11.113,3.69-.511,4.4-3.678,7.229-3.558,3.147.134,5.356,3.128,8.388,3.165,4.33.054,6.581-6.6,10.875-6.707,1.9-.048,5.6,2.549,7.264,2.4,4.709-.432,6.239-3.419,5.346-7.409-.617-2.755-6.711-2.648-7.973-3.611-2.833-2.166-1.347-5.055-4.691-6.139s-5.211.97-8.124,1.657C201.116,5.436,199.816.158,194.731,0c-3.126-.1-4.678,3.75-8.422,4.754-2.455.659-7.065-.4-10.445,1.522-5.053,2.871-4.8,13.852,1.031,16.116a22.316,22.316,0,0,1-.729-2.677" transform="translate(-11.725 0)" fill="#281616" fill-rule="evenodd"/>
    </g>
  </g>
</svg>
