<svg xmlns="http://www.w3.org/2000/svg" xmlns:xlink="http://www.w3.org/1999/xlink" width="18.204" height="18.957" viewBox="0 0 18.204 18.957">
  <defs>
    <clipPath id="clip-path">
      <rect id="Rectángulo_8871" data-name="Rectángulo 8871" width="18.204" height="18.957" fill="none"/>
    </clipPath>
  </defs>
  <g id="Grupo_66568" data-name="Grupo 66568" transform="translate(0 0)">
    <g id="Grupo_66567" data-name="Grupo 66567" transform="translate(0 0)" clip-path="url(#clip-path)">
      <path id="Trazado_138013" data-name="Trazado 138013" d="M8.719,18.191c0-.455,0-.456-.423-.634q-3.479-1.464-6.958-2.931a.293.293,0,0,0-.315.023,5.083,5.083,0,0,1-.445.267A.377.377,0,0,1,.057,14.8.385.385,0,0,1,.2,14.263a.4.4,0,0,1,.083-.048c.426-.151.509-.449.506-.887C.763,10.632.773,7.936.778,5.239A.3.3,0,0,0,.6,4.923a3.889,3.889,0,0,1-.412-.247.376.376,0,0,1,.377-.652c.169.09.333.191.5.3a.238.238,0,0,0,.247.024Q4.95,2.806,8.6,1.275a.165.165,0,0,0,.122-.183c-.007-.224-.005-.45,0-.674a.382.382,0,1,1,.762,0c0,.212.01.424,0,.635a.206.206,0,0,0,.158.236q2.146.894,4.287,1.8c.986.414,1.973.826,2.957,1.245a.263.263,0,0,0,.281-.022c.149-.1.3-.191.462-.277a.377.377,0,1,1,.388.646c-.149.1-.3.192-.461.278a.208.208,0,0,0-.126.21q.005,4.3,0,8.61a.223.223,0,0,0,.136.224c.152.082.3.172.446.266a.378.378,0,1,1-.388.648c-.168-.093-.333-.193-.495-.3a.2.2,0,0,0-.213-.013q-3.654,1.543-7.311,3.08a.165.165,0,0,0-.121.183c.007.224.006.449,0,.674a.383.383,0,1,1-.762,0c0-.115,0-.231,0-.347M1.534,13.46c.187-.111.345-.208.506-.3a.379.379,0,1,1,.4.644c-.138.09-.281.173-.448.275L8.719,16.91c0-.179,0-.325,0-.471a.384.384,0,1,1,.763,0c0,.15,0,.3,0,.474l6.734-2.837-.442-.264a.385.385,0,0,1-.2-.247.364.364,0,0,1,.133-.395.36.36,0,0,1,.415-.03c.18.1.356.2.539.312V5.493c-.185.11-.347.211-.514.3a.374.374,0,0,1-.535-.124.381.381,0,0,1,.153-.529c.14-.089.283-.172.449-.272L9.483,2.044c0,.181,0,.328,0,.475a.384.384,0,1,1-.763,0c0-.149,0-.3,0-.471L1.99,4.875l.459.279a.38.38,0,0,1,.049.631.371.371,0,0,1-.433.022c-.173-.1-.343-.2-.531-.316Z" transform="translate(0 0)" fill="#447f75"/>
      <path id="Trazado_138014" data-name="Trazado 138014" d="M21.447,16.821c0,1,0,2,0,3a.5.5,0,0,1-.335.519q-2.748,1.17-5.491,2.352a.589.589,0,0,1-.5,0q-2.744-1.181-5.491-2.351a.494.494,0,0,1-.341-.514q.007-3.013,0-6.027a.5.5,0,0,1,.334-.519q2.758-1.171,5.509-2.358a.553.553,0,0,1,.463,0q2.771,1.189,5.544,2.372a.463.463,0,0,1,.3.48c0,1.014,0,2.028,0,3.042ZM10.064,18.434c0,.359,0,.719-.011,1.078a.242.242,0,0,0,.183.266c.786.33,1.568.668,2.352,1q1.1.473,2.208.948c.131.057.2.076.2-.117-.014-.378-.007-.757-.008-1.136,0-1.3,0-2.606.009-3.908a.268.268,0,0,0-.2-.291c-.686-.286-1.368-.582-2.052-.874q-1.264-.54-2.529-1.078c-.071-.03-.156-.1-.156.066q.008,2.021.009,4.043M20.685,17.01v-2.5c0-.239,0-.243-.212-.154-1.527.65-3.052,1.3-4.581,1.951-.133.056-.138.141-.138.255q0,2.5,0,5.007c0,.245,0,.244.222.148q2.27-.974,4.542-1.943a.236.236,0,0,0,.167-.257c-.007-.834,0-1.669,0-2.5m-.6-3.324c-.049-.027-.075-.044-.1-.057q-2.254-.965-4.506-1.932a.269.269,0,0,0-.235.018q-1.263.544-2.527,1.083l-2.05.877c.071.036.121.064.174.086q2.21.946,4.418,1.892a.311.311,0,0,0,.271-.016q1.484-.638,2.969-1.271l1.588-.68" transform="translate(-6.27 -7.339)" fill="#447f75"/>
      <path id="Trazado_138015" data-name="Trazado 138015" d="M34.084,24.105c0,.834,0,1.669,0,2.5a.235.235,0,0,1-.167.257q-2.273.967-4.542,1.943c-.223.1-.222.1-.222-.148q0-2.5,0-5.007c0-.114,0-.2.138-.255,1.529-.646,3.054-1.3,4.581-1.951.21-.089.212-.085.212.154q0,1.252,0,2.5" transform="translate(-19.669 -14.434)" fill="#6bbcb1"/>
      <path id="Trazado_138016" data-name="Trazado 138016" d="M22.914,15.345l-1.588.68q-1.484.635-2.969,1.271a.311.311,0,0,1-.271.016q-2.207-.951-4.418-1.892c-.052-.022-.1-.05-.174-.086l2.05-.877q1.264-.541,2.527-1.083a.269.269,0,0,1,.235-.018q2.251.969,4.506,1.932c.029.012.054.03.1.057" transform="translate(-9.103 -8.997)" fill="#e4c7a1"/>
      <path id="Trazado_138017" data-name="Trazado 138017" d="M11.645,25.5q0-2.021-.009-4.043c0-.167.085-.1.156-.067l2.529,1.078c.684.292,1.365.589,2.052.874a.269.269,0,0,1,.2.291c-.01,1.3-.008,2.605-.009,3.908a.413.413,0,0,1-.22-.052c-.215-.1-.431-.192-.648-.285-1.055-.452-2.109-.907-3.166-1.352a6.01,6.01,0,0,0-.885-.354" transform="translate(-7.85 -14.403)" fill="#6bbcb1"/>
      <path id="Trazado_138018" data-name="Trazado 138018" d="M11.64,34.1a6.01,6.01,0,0,1,.885.354c1.058.445,2.111.9,3.166,1.352.217.093.433.187.648.285a.413.413,0,0,0,.22.052c0,.378-.006.757.008,1.135.007.193-.066.174-.2.117q-1.1-.477-2.208-.948c-.783-.336-1.566-.673-2.352-1a.242.242,0,0,1-.182-.267c.015-.359.009-.718.011-1.078" transform="translate(-7.845 -23.009)" fill="#6bbcb1"/>
    </g>
  </g>
</svg>
