<svg id="sol" xmlns="http://www.w3.org/2000/svg" width="174" height="174" viewBox="0 0 174 174">
  <circle id="XMLID_5_" cx="86.947" cy="86.947" r="86.947" fill="#724c48"/>
  <path id="Trazado_138727" data-name="Trazado 138727" d="M197.307,110.307a87.153,87.153,0,0,0-2.763-21.832l-31.2-31.2-3.639,4.25L139.327,41.147l-5.2,17.981L110.307,35.306,105.444,100,35.306,110.307l22.81,22.81-17.232,5.574,19.8,19.8-3.415,4.846,31.2,31.2a87.071,87.071,0,0,0,108.831-84.237Z" transform="translate(-23.308 -23.308)" fill="#442b2b"/>
  <g id="Grupo_66847" data-name="Grupo 66847" transform="translate(11.998 11.998)">
    <path id="Trazado_138728" data-name="Trazado 138728" d="M110.307,35.306,99.767,56.677,81.923,40.884l-1.7,24.18L57.273,57.273l7.659,22.565-23.785,1.45,15.9,18.3L35.306,110.307l21.371,10.54L40.884,138.691l24.18,1.7-7.791,22.953,22.565-7.659,1.45,23.785,18.3-15.9,10.721,21.739,9.675-30.166,35.655-43.371L122,68.285Z" transform="translate(-35.306 -35.306)" fill="#ffac06"/>
    <g id="Grupo_66846" data-name="Grupo 66846" transform="translate(75.001)">
      <g id="Grupo_66845" data-name="Grupo 66845">
        <path id="Trazado_138729" data-name="Trazado 138729" d="M309.262,121.029,331,110.307,309.63,99.767l15.793-17.844-24.18-1.7,7.791-22.953L286.47,64.932l-1.45-23.785-18.3,15.9L256,35.306v150l10.54-21.371,17.844,15.793,1.7-24.18,22.953,7.791-7.659-22.565,23.785-1.45Z" transform="translate(-256 -35.306)" fill="#ea831c"/>
      </g>
    </g>
    <path id="Trazado_138730" data-name="Trazado 138730" d="M132.347,174.37a42.022,42.022,0,0,1,42.023-42.023s23.787,18.814,23.787,42.023-23.787,42.023-23.787,42.023A42.022,42.022,0,0,1,132.347,174.37Z" transform="translate(-99.368 -99.368)" fill="#ffed6e"/>
  </g>
  <g id="Grupo_66851" data-name="Grupo 66851" transform="translate(87 44.977)">
    <g id="Grupo_66850" data-name="Grupo 66850">
      <g id="Grupo_66849" data-name="Grupo 66849">
        <g id="Grupo_66848" data-name="Grupo 66848">
          <path id="Trazado_138731" data-name="Trazado 138731" d="M256,132.347v84.046a42.023,42.023,0,0,0,0-84.046Z" transform="translate(-256 -132.347)" fill="#ffd140"/>
        </g>
      </g>
    </g>
  </g>
</svg>
