<svg xmlns="http://www.w3.org/2000/svg" width="174" height="174" viewBox="0 0 174 174">
  <g id="_x33_0" transform="translate(-3.5 -3.5)">
    <g id="Grupo_66843" data-name="Grupo 66843" transform="translate(3.5 3.5)">
      <g id="Grupo_66825" data-name="Grupo 66825">
        <g id="Grupo_66824" data-name="Grupo 66824">
          <circle id="Elipse_5580" data-name="Elipse 5580" cx="87" cy="87" r="87" fill="#2b3642"/>
        </g>
      </g>
      <g id="Grupo_66842" data-name="Grupo 66842" transform="translate(59.422 29.865)">
        <g id="Grupo_66826" data-name="Grupo 66826" transform="translate(22.357 109.68)">
          <ellipse id="Elipse_5581" data-name="Elipse 5581" cx="4.414" cy="2.408" rx="4.414" ry="2.408" fill="#aab8ca"/>
        </g>
        <g id="Grupo_66827" data-name="Grupo 66827" transform="translate(0.001 36.974)">
          <path id="Trazado_138712" data-name="Trazado 138712" d="M49.621,62.1l5.435,3.3a6.965,6.965,0,0,1,2.461,2.3V77.909H67.75V67.69c0-6.093-5.656-10-7.389-11.046l-5.435-3.3A5.116,5.116,0,1,0,49.621,62.1Z" transform="translate(-47.156 -52.606)" fill="#ffb612"/>
        </g>
        <g id="Grupo_66828" data-name="Grupo 66828" transform="translate(0 7.51)">
          <path id="Trazado_138713" data-name="Trazado 138713" d="M96.677,57.747a5.1,5.1,0,0,1-1.786-.323l-44.4-16.551a5.116,5.116,0,1,1,3.574-9.589l44.4,16.551a5.117,5.117,0,0,1-1.788,9.912Z" transform="translate(-47.156 -30.959)" fill="#ffb612"/>
        </g>
        <g id="Grupo_66829" data-name="Grupo 66829" transform="translate(0 22.243)">
          <path id="Trazado_138714" data-name="Trazado 138714" d="M96.833,66.75a5.112,5.112,0,0,1-1.606-.26L50.668,51.758a5.116,5.116,0,1,1,3.212-9.716L98.439,56.774a5.117,5.117,0,0,1-1.605,9.976Z" transform="translate(-47.156 -41.783)" fill="#ffb612"/>
        </g>
        <g id="Grupo_66830" data-name="Grupo 66830" transform="translate(0)">
          <path id="Trazado_138715" data-name="Trazado 138715" d="M52.271,43.188a5.117,5.117,0,0,1-1.323-10.059l28-7.512A5.116,5.116,0,0,1,81.6,35.5l-28,7.512a5.144,5.144,0,0,1-1.329.176Z" transform="translate(-47.156 -25.442)" fill="#ffc536"/>
        </g>
        <g id="Grupo_66831" data-name="Grupo 66831" transform="translate(0 9.618)">
          <path id="Trazado_138716" data-name="Trazado 138716" d="M52.271,55.368A5.118,5.118,0,0,1,50.9,45.322L96.043,32.7A5.117,5.117,0,0,1,98.8,42.554L53.652,55.178a5.13,5.13,0,0,1-1.38.19Z" transform="translate(-47.156 -32.508)" fill="#ffc536"/>
        </g>
        <g id="Grupo_66832" data-name="Grupo 66832" transform="translate(0 24.062)">
          <path id="Trazado_138717" data-name="Trazado 138717" d="M52.271,66.267a5.117,5.117,0,0,1-1.426-10.031l44.4-12.911a5.116,5.116,0,1,1,2.857,9.826L53.7,66.062a5.12,5.12,0,0,1-1.431.2Z" transform="translate(-47.156 -43.12)" fill="#ffc536"/>
        </g>
        <g id="Grupo_66833" data-name="Grupo 66833" transform="translate(34.046 36.58)">
          <path id="Trazado_138718" data-name="Trazado 138718" d="M82.4,78.014l-.005-10.1a6.07,6.07,0,0,1,2.443-2.4l6.177-3.688a5.117,5.117,0,0,0-5.246-8.787l-6.206,3.708c-1.734,1.05-7.389,4.953-7.389,11.046V78.014Z" transform="translate(-72.169 -52.316)" fill="#ffc536"/>
        </g>
        <g id="Grupo_66841" data-name="Grupo 66841" transform="translate(5.72 62.277)">
          <g id="Grupo_66834" data-name="Grupo 66834">
            <path id="Trazado_138719" data-name="Trazado 138719" d="M93.462,73.538V84.521c-1.1,6.058-4.575,11.486-9.55,16.53a2.5,2.5,0,0,0-.73,1.753h0a2.5,2.5,0,0,1-2.495,2.495H64.133a2.5,2.5,0,0,1-2.495-2.495,2.5,2.5,0,0,0-.73-1.753c-4.976-5.043-8.463-10.471-9.55-16.529V73.538A2.343,2.343,0,0,1,53.7,71.2H91.12a2.343,2.343,0,0,1,2.343,2.343Z" transform="translate(-51.358 -71.195)" fill="#fff"/>
          </g>
          <g id="Grupo_66835" data-name="Grupo 66835" transform="translate(12.457 34.102)">
            <path id="Trazado_138720" data-name="Trazado 138720" d="M60.51,96.249H77.7V109.84H60.51Z" transform="translate(-60.51 -96.249)" fill="#aab8ca"/>
          </g>
          <g id="Grupo_66836" data-name="Grupo 66836" transform="translate(12.456 47.693)">
            <path id="Trazado_138721" data-name="Trazado 138721" d="M60.51,106.234l2.057,2.02a1.424,1.424,0,0,0,1,.408H74.645a1.424,1.424,0,0,0,1-.408l2.057-2.02Z" transform="translate(-60.51 -106.234)" fill="#d4dee8"/>
          </g>
          <g id="Grupo_66837" data-name="Grupo 66837" transform="translate(11.563 34.367)">
            <path id="Trazado_138722" data-name="Trazado 138722" d="M60.976,99.739a1.012,1.012,0,1,1-.152-2.016l16.91-1.275a1.011,1.011,0,1,1,.152,2.016Z" transform="translate(-59.853 -96.444)" fill="#d4dee8"/>
          </g>
          <g id="Grupo_66838" data-name="Grupo 66838" transform="translate(11.554 37.621)">
            <path id="Trazado_138723" data-name="Trazado 138723" d="M60.97,102.129a1.012,1.012,0,1,1-.152-2.016l16.91-1.275a1.011,1.011,0,1,1,.152,2.016Z" transform="translate(-59.847 -98.835)" fill="#d4dee8"/>
          </g>
          <g id="Grupo_66839" data-name="Grupo 66839" transform="translate(11.545 40.874)">
            <path id="Trazado_138724" data-name="Trazado 138724" d="M60.963,104.519a1.011,1.011,0,1,1-.152-2.016l16.91-1.275a1.011,1.011,0,1,1,.152,2.016Z" transform="translate(-59.84 -101.225)" fill="#d4dee8"/>
          </g>
          <g id="Grupo_66840" data-name="Grupo 66840" transform="translate(11.536 44.128)">
            <path id="Trazado_138725" data-name="Trazado 138725" d="M60.957,106.91a1.011,1.011,0,1,1-.152-2.016l16.91-1.275a1.011,1.011,0,1,1,.152,2.016Z" transform="translate(-59.834 -103.616)" fill="#d4dee8"/>
          </g>
        </g>
      </g>
    </g>
    <g id="Grupo_66844" data-name="Grupo 66844" transform="translate(67.006 33.672)">
      <path id="Trazado_138726" data-name="Trazado 138726" d="M66.356,33.772a8.12,8.12,0,0,0-8.1,8.1,8.129,8.129,0,0,0-8.094-8.1,8.11,8.11,0,0,0,8.094-8.105h.011a8.11,8.11,0,0,0,8.094,8.105Z" transform="translate(-50.157 -25.667)" fill="#fff"/>
    </g>
  </g>
</svg>
