<svg id="color3" xmlns="http://www.w3.org/2000/svg" width="358.322" height="191.025" viewBox="0 0 358.322 191.025">
  <rect id="Rectángulo_5381" data-name="Rectángulo 5381" width="179.161" height="145.247" fill="#29abe2"/>
  <rect id="Rectángulo_5382" data-name="Rectángulo 5382" width="179.161" height="191.025" transform="translate(179.161)" fill="#f2f2f2"/>
  <rect id="Rectángulo_5383" data-name="Rectángulo 5383" width="44.787" height="45.779" transform="translate(0 145.247)" fill="#29abe2"/>
  <g id="Grupo_57681" data-name="Grupo 57681" transform="translate(44.787 145.247)" opacity="0.75">
    <rect id="Rectángulo_5384" data-name="Rectángulo 5384" width="44.787" height="45.779" fill="#29abe2"/>
  </g>
  <g id="Grupo_57682" data-name="Grupo 57682" transform="translate(89.58 145.247)" opacity="0.5">
    <rect id="Rectángulo_5385" data-name="Rectángulo 5385" width="44.787" height="45.779" fill="#29abe2"/>
  </g>
  <g id="Grupo_57683" data-name="Grupo 57683" transform="translate(134.367 145.247)" opacity="0.25">
    <rect id="Rectángulo_5386" data-name="Rectángulo 5386" width="44.787" height="45.779" fill="#29abe2"/>
  </g>
  <g id="Grupo_57684" data-name="Grupo 57684" transform="translate(200.143 34.271)">
    <path id="Trazado_102259" data-name="Trazado 102259" d="M328.044,72.636,326.8,69.121h-7.159l-1.237,3.515H314.78l6.276-17.043h4.33l6.276,17.043Zm-7.363-6.472h5.086l-2.543-7.235Z" transform="translate(-314.78 -54.516)"/>
    <path id="Trazado_102260" data-name="Trazado 102260" d="M352.751,63.33l-5.335,9.538h5.169v2.588H342.6l5.309-9.538h-4.9V63.33Z" transform="translate(-324.909 -57.335)"/>
    <path id="Trazado_102261" data-name="Trazado 102261" d="M370.11,63.33h3.4V75.455h-3.217l-.09-1.463a4.629,4.629,0,0,1-3.862,1.7,4.743,4.743,0,0,1-3.351-1.087,4.069,4.069,0,0,1-1.164-3.106V63.33h3.408v7.42a2.105,2.105,0,0,0,.6,1.66,2.308,2.308,0,0,0,1.577.534,2.7,2.7,0,0,0,1.908-.693,2.938,2.938,0,0,0,.763-2.244Z" transform="translate(-331.91 -57.335)"/>
    <path id="Trazado_102262" data-name="Trazado 102262" d="M385.73,72.021V53.9h3.434V72.021Z" transform="translate(-340.619 -53.9)"/>
  </g>
  <g id="Grupo_57685" data-name="Grupo 57685" transform="translate(203.138 95.513)">
    <path id="Trazado_102263" data-name="Trazado 102263" d="M323.114,158.252a3.77,3.77,0,0,1-1.379-.252,3.574,3.574,0,0,1-1.107-.706,3.223,3.223,0,0,1-.731-1.138,4.074,4.074,0,0,1-.267-1.507,4.03,4.03,0,0,1,.267-1.494,3.18,3.18,0,0,1,1.838-1.847,3.772,3.772,0,0,1,1.379-.252,3.526,3.526,0,0,1,1.856.5,3.064,3.064,0,0,1,1.253,1.367l-.82.336a2.359,2.359,0,0,0-.916-1,2.62,2.62,0,0,0-1.354-.35,2.843,2.843,0,0,0-1.023.185,2.421,2.421,0,0,0-.82.528,2.352,2.352,0,0,0-.553.865,3.179,3.179,0,0,0-.2,1.157,3.249,3.249,0,0,0,.2,1.17,2.351,2.351,0,0,0,.553.865,2.421,2.421,0,0,0,.82.528,2.715,2.715,0,0,0,1.023.185,2.619,2.619,0,0,0,1.354-.35,2.308,2.308,0,0,0,.916-.992l.82.336a3.052,3.052,0,0,1-1.272,1.367,3.593,3.593,0,0,1-1.838.489Z" transform="translate(-319.541 -150.527)"/>
    <path id="Trazado_102264" data-name="Trazado 102264" d="M333.826,159.463a2.543,2.543,0,0,1-1.272-.3,2.148,2.148,0,0,1-.884-.884,2.727,2.727,0,0,1-.324-1.348,2.486,2.486,0,0,1,.693-1.847,2.6,2.6,0,0,1,3.535,0,2.81,2.81,0,0,1,0,3.687A2.372,2.372,0,0,1,333.826,159.463Zm0-.712a1.526,1.526,0,0,0,1.157-.5,1.907,1.907,0,0,0,.458-1.322,1.862,1.862,0,0,0-.458-1.316,1.5,1.5,0,0,0-1.157-.5,1.475,1.475,0,0,0-1.144.5,1.863,1.863,0,0,0-.458,1.316,1.908,1.908,0,0,0,.458,1.322,1.5,1.5,0,0,0,1.138.5Z" transform="translate(-323.807 -151.738)"/>
    <path id="Trazado_102265" data-name="Trazado 102265" d="M343.538,154.389a1.71,1.71,0,0,1,1.227.445,1.653,1.653,0,0,1,.458,1.272v3.287h-.858v-3.1a1.164,1.164,0,0,0-.3-.871,1.049,1.049,0,0,0-.763-.286,1.2,1.2,0,0,0-.871.336,1.392,1.392,0,0,0-.343,1v2.918h-.858v-4.883h.858v.636a1.628,1.628,0,0,1,1.45-.756Z" transform="translate(-327.407 -151.737)"/>
    <path id="Trazado_102266" data-name="Trazado 102266" d="M349.966,151.954a3.011,3.011,0,0,1,.051-.566,2.155,2.155,0,0,1,.14-.432,1.018,1.018,0,0,1,.229-.311,1.858,1.858,0,0,1,.3-.21,1.391,1.391,0,0,1,.369-.121,3.172,3.172,0,0,1,.42-.064h.477v.719h-.369a.526.526,0,0,0-.331.051.357.357,0,0,0-.146.084l-.114.127a.439.439,0,0,0-.1.178,1.125,1.125,0,0,0-.057.242,2.121,2.121,0,0,0,0,.3v1.007h1.138v.687h-1.136v4.2h-.852v-4.2H349v-.687h.941Zm3.42-.121a.588.588,0,0,1-.588-.588.553.553,0,0,1,.168-.407.588.588,0,0,1,.413-.168.566.566,0,0,1,.4.168.553.553,0,0,1,.168.407.566.566,0,0,1-.168.413.547.547,0,0,1-.394.175Zm-.439,6.027v-4.882h.865v4.883Z" transform="translate(-330.237 -150.231)"/>
    <path id="Trazado_102267" data-name="Trazado 102267" d="M360.236,159.472a1.666,1.666,0,0,1-1.068-.336,1.2,1.2,0,0,1-.42-1,1.449,1.449,0,0,1,.133-.636,1.132,1.132,0,0,1,.394-.439,2.321,2.321,0,0,1,.578-.28,6.006,6.006,0,0,1,.737-.178l.8-.128c.286-.051.432-.2.432-.452a.833.833,0,0,0-.311-.725,1.208,1.208,0,0,0-.769-.235,1.272,1.272,0,0,0-.763.223.924.924,0,0,0-.363.687l-.776-.168a1.482,1.482,0,0,1,.636-1.043,2.251,2.251,0,0,1,1.329-.35,2.543,2.543,0,0,1,.712.089,1.908,1.908,0,0,1,.588.274,1.233,1.233,0,0,1,.42.521,1.967,1.967,0,0,1,.153.808v2.015a.871.871,0,0,0,.108.509.484.484,0,0,0,.388.133h.076v.636h-.425a.808.808,0,0,1-.924-.636h-.038A1.907,1.907,0,0,1,360.236,159.472Zm.2-.693a1.272,1.272,0,0,0,1.049-.477,1.908,1.908,0,0,0,.4-1.272l-1.272.252a1.735,1.735,0,0,0-.763.274.717.717,0,0,0-.007,1.068.979.979,0,0,0,.592.155Z" transform="translate(-333.786 -151.747)"/>
    <path id="Trazado_102268" data-name="Trazado 102268" d="M370.3,152.871a2.123,2.123,0,0,1,1.615.706,2.588,2.588,0,0,1,.636,1.838,2.62,2.62,0,0,1-.636,1.838,2.13,2.13,0,0,1-1.621.706,1.966,1.966,0,0,1-1.043-.286,1.8,1.8,0,0,1-.693-.769v.947h-.827V150.22h.808V153.9a1.805,1.805,0,0,1,.7-.751,1.952,1.952,0,0,1,1.062-.274Zm-.191,4.336a1.494,1.494,0,0,0,1.144-.5,2.054,2.054,0,0,0,0-2.6,1.5,1.5,0,0,0-1.144-.5,1.468,1.468,0,0,0-1.132.515,2.028,2.028,0,0,0,0,2.543,1.475,1.475,0,0,0,1.132.534Z" transform="translate(-337.058 -150.22)"/>
    <path id="Trazado_102269" data-name="Trazado 102269" d="M377.47,157.85v-7.63h.871v7.63Z" transform="translate(-340.605 -150.22)"/>
    <path id="Trazado_102270" data-name="Trazado 102270" d="M385.625,156.834v.235H381.81a1.71,1.71,0,0,0,.47,1.272,1.527,1.527,0,0,0,1.112.439,1.482,1.482,0,0,0,.808-.235,1.589,1.589,0,0,0,.559-.636l.776.168a2.212,2.212,0,0,1-.84,1.049,2.283,2.283,0,0,1-1.272.381,2.358,2.358,0,0,1-1.812-.719,2.893,2.893,0,0,1,0-3.713,2.351,2.351,0,0,1,1.729-.68,2.206,2.206,0,0,1,1.646.636A2.467,2.467,0,0,1,385.625,156.834Zm-2.267-1.78a1.494,1.494,0,0,0-1.008.349,1.583,1.583,0,0,0-.515,1.007h2.957a1.456,1.456,0,0,0-.426-1.007,1.373,1.373,0,0,0-1.006-.352Z" transform="translate(-341.868 -151.738)"/>
    <path id="Trazado_102271" data-name="Trazado 102271" d="M324.183,177.412l-1.8-3.179h-1.1v3.179H320.4v-6.994h2.289a2.1,2.1,0,0,1,1.571.553,1.971,1.971,0,0,1,.541,1.427,1.755,1.755,0,0,1-1.552,1.831l1.945,3.179Zm-2.9-6.213v2.359H322.6a1.475,1.475,0,0,0,1.023-.318,1.1,1.1,0,0,0,.336-.852,1.132,1.132,0,0,0-.343-.865,1.437,1.437,0,0,0-1.018-.324Z" transform="translate(-319.822 -157.573)"/>
    <path id="Trazado_102272" data-name="Trazado 102272" d="M333.588,176.034v.235h-3.815a1.71,1.71,0,0,0,.47,1.272,1.511,1.511,0,0,0,1.112.439,1.475,1.475,0,0,0,1.361-.884l.776.168a2.168,2.168,0,0,1-.833,1.049,2.282,2.282,0,0,1-1.272.381,2.359,2.359,0,0,1-1.774-.706,2.893,2.893,0,0,1,0-3.713,2.34,2.34,0,0,1,1.729-.68,2.183,2.183,0,0,1,1.641.636,2.466,2.466,0,0,1,.6,1.8Zm-2.267-1.78a1.511,1.511,0,0,0-1.018.35,1.608,1.608,0,0,0-.509,1.007h2.925a1.456,1.456,0,0,0-.426-1.007,1.374,1.374,0,0,0-.973-.349Z" transform="translate(-322.931 -158.731)"/>
    <path id="Trazado_102273" data-name="Trazado 102273" d="M339.672,178.67a2.334,2.334,0,0,1-1.316-.35,1.462,1.462,0,0,1-.636-1.007l.751-.216a1.042,1.042,0,0,0,.395.68,1.322,1.322,0,0,0,.808.242,1.74,1.74,0,0,0,.464-.064.776.776,0,0,0,.363-.242.636.636,0,0,0,.146-.445.684.684,0,0,0-.044-.2.527.527,0,0,0-.076-.159.407.407,0,0,0-.14-.134l-.168-.108-.223-.089-.235-.084-.274-.076-.286-.084c-.2-.064-.375-.121-.509-.178a2.288,2.288,0,0,1-.407-.235.909.909,0,0,1-.324-.388,1.31,1.31,0,0,1-.108-.547,1.272,1.272,0,0,1,.242-.782,1.348,1.348,0,0,1,.636-.458,2.456,2.456,0,0,1,.871-.14,2.155,2.155,0,0,1,1.189.318,1.354,1.354,0,0,1,.588.954l-.706.178a.916.916,0,0,0-.375-.636,1.157,1.157,0,0,0-.7-.21,1.214,1.214,0,0,0-.635.168.588.588,0,0,0-.274.528.483.483,0,0,0,.076.267.682.682,0,0,0,.146.191.705.705,0,0,0,.267.146,2.284,2.284,0,0,0,.286.108l.356.089h.076l.47.133a3.414,3.414,0,0,1,.42.178,1.434,1.434,0,0,1,.381.267,1.273,1.273,0,0,1,.242.375,1.418,1.418,0,0,1,.095.528,1.469,1.469,0,0,1-.146.636,1.092,1.092,0,0,1-.4.445,1.685,1.685,0,0,1-.566.252,2.608,2.608,0,0,1-.725.146Z" transform="translate(-326.129 -158.736)"/>
    <path id="Trazado_102274" data-name="Trazado 102274" d="M348.34,173.59a2.307,2.307,0,0,1,.884.178,2.2,2.2,0,0,1,1.214,1.311,2.994,2.994,0,0,1,.185,1.055,2.544,2.544,0,0,1-.636,1.838,2.13,2.13,0,0,1-1.621.706,1.907,1.907,0,0,1-1.018-.28,1.806,1.806,0,0,1-.7-.751v3.383h-.859v-7.349h.826v.947a1.787,1.787,0,0,1,.7-.756,1.908,1.908,0,0,1,1.024-.284Zm-.168,4.336a1.468,1.468,0,0,0,1.125-.489,2.06,2.06,0,0,0,0-2.6,1.468,1.468,0,0,0-1.125-.489,1.511,1.511,0,0,0-1.151.509,2.009,2.009,0,0,0,0,2.543,1.511,1.511,0,0,0,1.154.53Z" transform="translate(-329.068 -158.731)"/>
    <path id="Trazado_102275" data-name="Trazado 102275" d="M357.326,178.663a2.543,2.543,0,0,1-1.272-.3,2.149,2.149,0,0,1-.884-.884,2.727,2.727,0,0,1-.324-1.348,2.486,2.486,0,0,1,.693-1.847,2.4,2.4,0,0,1,1.763-.693,2.422,2.422,0,0,1,1.774.693,2.81,2.81,0,0,1,0,3.687A2.378,2.378,0,0,1,357.326,178.663Zm0-.712a1.5,1.5,0,0,0,1.151-.5,1.907,1.907,0,0,0,.464-1.322,1.869,1.869,0,0,0-.464-1.316,1.482,1.482,0,0,0-1.151-.5,1.456,1.456,0,0,0-1.144.5,1.863,1.863,0,0,0-.458,1.316,1.908,1.908,0,0,0,.458,1.322,1.481,1.481,0,0,0,1.144.5Z" transform="translate(-332.365 -158.73)"/>
    <path id="Trazado_102276" data-name="Trazado 102276" d="M367.041,173.589a1.717,1.717,0,0,1,1.233.445,1.653,1.653,0,0,1,.458,1.272v3.287h-.858v-3.1a1.164,1.164,0,0,0-.3-.871,1.049,1.049,0,0,0-.763-.286,1.182,1.182,0,0,0-.871.336,1.392,1.392,0,0,0-.343,1v2.918h-.858v-4.883h.858v.636A1.628,1.628,0,0,1,367.041,173.589Z" transform="translate(-335.969 -158.73)"/>
    <path id="Trazado_102277" data-name="Trazado 102277" d="M374.945,178.662a2.308,2.308,0,0,1-1.31-.363,1.469,1.469,0,0,1-.636-1.008l.751-.217a1.029,1.029,0,0,0,.4.68,1.317,1.317,0,0,0,.8.242,1.8,1.8,0,0,0,.471-.064.815.815,0,0,0,.363-.242.636.636,0,0,0,.14-.445.526.526,0,0,0-.038-.2,1.284,1.284,0,0,0-.076-.159.407.407,0,0,0-.14-.134,1.218,1.218,0,0,0-.395-.2l-.235-.084-.274-.076-.28-.084a4.986,4.986,0,0,1-.509-.178,2.326,2.326,0,0,1-.413-.235.948.948,0,0,1-.318-.388,1.309,1.309,0,0,1-.108-.547,1.271,1.271,0,0,1,.242-.782,1.343,1.343,0,0,1,.636-.458,2.443,2.443,0,0,1,.865-.14,2.137,2.137,0,0,1,1.189.318,1.361,1.361,0,0,1,.6.954l-.706.178a.934.934,0,0,0-.375-.636,1.171,1.171,0,0,0-.7-.21,1.2,1.2,0,0,0-.636.168.578.578,0,0,0-.274.527.54.54,0,0,0,.07.267.636.636,0,0,0,.413.336,2.716,2.716,0,0,0,.292.108l.356.089h.076l.464.133a3.439,3.439,0,0,1,.426.178,1.544,1.544,0,0,1,.381.267,1.333,1.333,0,0,1,.336.9,1.469,1.469,0,0,1-.146.636,1.182,1.182,0,0,1-.4.445,1.78,1.78,0,0,1-.573.252A2.593,2.593,0,0,1,374.945,178.662Z" transform="translate(-338.977 -158.729)"/>
    <path id="Trazado_102278" data-name="Trazado 102278" d="M381.932,178.673a1.672,1.672,0,0,1-1.075-.336,1.2,1.2,0,0,1-.42-1,1.45,1.45,0,0,1,.133-.636,1.106,1.106,0,0,1,.4-.439,2.174,2.174,0,0,1,.573-.28,6.457,6.457,0,0,1,.744-.178l.788-.127c.286-.051.432-.2.432-.452a.845.845,0,0,0-.3-.725,1.221,1.221,0,0,0-.769-.235,1.271,1.271,0,0,0-.769.222.96.96,0,0,0-.363.687l-.776-.168a1.525,1.525,0,0,1,.636-1.043,2.289,2.289,0,0,1,1.335-.35,2.715,2.715,0,0,1,.706.089,1.794,1.794,0,0,1,.588.274,1.19,1.19,0,0,1,.42.521,1.965,1.965,0,0,1,.153.808v2.015a.82.82,0,0,0,.114.509.477.477,0,0,0,.381.133h.084v.636h-.424c-.528,0-.84-.216-.929-.636h-.038a1.863,1.863,0,0,1-1.621.706Zm.2-.693a1.3,1.3,0,0,0,1.049-.477,1.959,1.959,0,0,0,.395-1.272l-1.272.252a1.7,1.7,0,0,0-.756.274.712.712,0,0,0,0,1.068.986.986,0,0,0,.588.159Z" transform="translate(-341.685 -158.74)"/>
    <path id="Trazado_102279" data-name="Trazado 102279" d="M391.995,172.071a2.111,2.111,0,0,1,1.609.706,2.543,2.543,0,0,1,.636,1.838,2.594,2.594,0,0,1-.636,1.838,2.1,2.1,0,0,1-1.615.706,1.945,1.945,0,0,1-1.043-.286,1.818,1.818,0,0,1-.7-.769v.947h-.826V169.42h.852V173.1a1.792,1.792,0,0,1,.693-.751A2,2,0,0,1,391.995,172.071Zm-.191,4.336a1.511,1.511,0,0,0,1.144-.5,2.073,2.073,0,0,0,0-2.6,1.511,1.511,0,0,0-1.144-.5,1.463,1.463,0,0,0-1.132.515,1.831,1.831,0,0,0-.464,1.272,1.869,1.869,0,0,0,.458,1.272,1.488,1.488,0,0,0,1.138.537Z" transform="translate(-344.957 -157.213)"/>
    <path id="Trazado_102280" data-name="Trazado 102280" d="M399.17,177.05v-7.63h.871v7.63Z" transform="translate(-348.508 -157.213)"/>
    <path id="Trazado_102281" data-name="Trazado 102281" d="M407.347,176.046v.235h-3.815a1.71,1.71,0,0,0,.464,1.272,1.532,1.532,0,0,0,1.112.439,1.475,1.475,0,0,0,1.367-.884l.776.168a2.207,2.207,0,0,1-.833,1.049,2.282,2.282,0,0,1-1.272.381,2.384,2.384,0,0,1-1.763-.68,2.906,2.906,0,0,1,0-3.713,2.327,2.327,0,0,1,1.73-.68,2.2,2.2,0,0,1,1.641.636,2.467,2.467,0,0,1,.594,1.777Zm-2.257-1.78a1.5,1.5,0,0,0-1.018.35,1.583,1.583,0,0,0-.515,1.007h2.931a1.463,1.463,0,0,0-.432-1.007,1.348,1.348,0,0,0-.966-.35Z" transform="translate(-349.799 -158.745)"/>
    <path id="Trazado_102282" data-name="Trazado 102282" d="M324.832,189.62h.89v6.994h-.89v-3.106H321.29v3.106h-.89V189.62h.89v3.09h3.541Z" transform="translate(-319.822 -164.569)"/>
    <path id="Trazado_102283" data-name="Trazado 102283" d="M333.578,197.863a2.543,2.543,0,0,1-1.272-.306,2.149,2.149,0,0,1-.884-.884,2.727,2.727,0,0,1-.324-1.348,2.493,2.493,0,0,1,.693-1.847,2.6,2.6,0,0,1,3.536,0,2.543,2.543,0,0,1,.687,1.847,2.486,2.486,0,0,1-.693,1.847,2.372,2.372,0,0,1-1.742.69Zm0-.712a1.526,1.526,0,0,0,1.157-.5,1.907,1.907,0,0,0,.458-1.322,1.863,1.863,0,0,0-.458-1.316,1.5,1.5,0,0,0-1.157-.5,1.475,1.475,0,0,0-1.144.5,1.863,1.863,0,0,0-.458,1.316,1.908,1.908,0,0,0,.458,1.322A1.5,1.5,0,0,0,333.578,197.151Z" transform="translate(-323.717 -165.722)"/>
    <path id="Trazado_102284" data-name="Trazado 102284" d="M343.3,192.789a1.71,1.71,0,0,1,1.227.445,1.653,1.653,0,0,1,.458,1.272v3.287h-.858v-3.1a1.158,1.158,0,0,0-.3-.871,1.05,1.05,0,0,0-.763-.286,1.2,1.2,0,0,0-.871.336,1.393,1.393,0,0,0-.343,1v2.918H341v-4.883h.858v.636a1.628,1.628,0,0,1,1.437-.755Z" transform="translate(-327.323 -165.722)"/>
    <path id="Trazado_102285" data-name="Trazado 102285" d="M353.93,195.253v.235h-3.815a1.709,1.709,0,0,0,.464,1.272,1.526,1.526,0,0,0,1.112.439,1.482,1.482,0,0,0,.808-.235,1.551,1.551,0,0,0,.559-.636l.776.168a2.213,2.213,0,0,1-.84,1.049,2.251,2.251,0,0,1-1.272.381,2.359,2.359,0,0,1-1.763-.68,2.893,2.893,0,0,1,0-3.713,2.351,2.351,0,0,1,1.735-.68,2.2,2.2,0,0,1,1.641.636,2.454,2.454,0,0,1,.588,1.767Zm-2.258-1.78a1.5,1.5,0,0,0-1.018.35,1.583,1.583,0,0,0-.515,1.007h2.925a1.427,1.427,0,0,0-.426-1.007,1.36,1.36,0,0,0-.992-.35Z" transform="translate(-330.342 -165.745)"/>
    <path id="Trazado_102286" data-name="Trazado 102286" d="M360.022,197.87a2.308,2.308,0,0,1-1.316-.35,1.469,1.469,0,0,1-.636-1.008l.751-.217a1.03,1.03,0,0,0,.4.68,1.272,1.272,0,0,0,.8.242,1.794,1.794,0,0,0,.47-.064.763.763,0,0,0,.356-.242.635.635,0,0,0,.146-.445.68.68,0,0,0-.038-.2.743.743,0,0,0-.084-.159.356.356,0,0,0-.14-.134,1.046,1.046,0,0,0-.168-.108l-.222-.089-.235-.084-.274-.076-.28-.084a4.991,4.991,0,0,1-.509-.178,2.123,2.123,0,0,1-.413-.235.946.946,0,0,1-.318-.388,1.215,1.215,0,0,1-.108-.547,1.272,1.272,0,0,1,.235-.782,1.366,1.366,0,0,1,.635-.458,2.415,2.415,0,0,1,.865-.14,2.137,2.137,0,0,1,1.189.318,1.335,1.335,0,0,1,.588.954l-.706.178a.909.909,0,0,0-.369-.636,1.183,1.183,0,0,0-.7-.21,1.2,1.2,0,0,0-.636.168.579.579,0,0,0-.274.528.484.484,0,0,0,.07.267.681.681,0,0,0,.146.191.827.827,0,0,0,.267.146,2.747,2.747,0,0,0,.286.108l.363.089h.07l.47.133a2.947,2.947,0,0,1,.426.178,1.386,1.386,0,0,1,.375.267,1.158,1.158,0,0,1,.242.375,1.393,1.393,0,0,1,.1.528,1.468,1.468,0,0,1-.146.636,1.183,1.183,0,0,1-.4.445,1.779,1.779,0,0,1-.573.252,2.593,2.593,0,0,1-.709.151Z" transform="translate(-333.54 -165.729)"/>
    <path id="Trazado_102287" data-name="Trazado 102287" d="M367.225,196.884a1.271,1.271,0,0,1-.954-.35,1.336,1.336,0,0,1-.343-.973v-2.886h-1v-.685h.363a.7.7,0,0,0,.541-.168.82.82,0,0,0,.159-.573v-.888h.8v1.629h1.119v.687h-1.119v2.785a.719.719,0,0,0,.185.534.636.636,0,0,0,.489.191h.445v.687Z" transform="translate(-336.039 -164.839)"/>
    <path id="Trazado_102288" data-name="Trazado 102288" d="M373.3,197.863a2.543,2.543,0,0,1-1.272-.306,2.149,2.149,0,0,1-.884-.884,2.726,2.726,0,0,1-.324-1.348,2.492,2.492,0,0,1,.693-1.847,2.6,2.6,0,0,1,3.535,0,2.544,2.544,0,0,1,.687,1.847,2.486,2.486,0,0,1-.694,1.847,2.372,2.372,0,0,1-1.742.693Zm0-.712a1.5,1.5,0,0,0,1.151-.5,1.863,1.863,0,0,0,.464-1.322,1.837,1.837,0,0,0-.464-1.316,1.481,1.481,0,0,0-1.151-.5,1.456,1.456,0,0,0-1.144.5,1.863,1.863,0,0,0-.458,1.316,1.908,1.908,0,0,0,.458,1.322,1.481,1.481,0,0,0,1.138.5Z" transform="translate(-338.181 -165.722)"/>
    <path id="Trazado_102289" data-name="Trazado 102289" d="M321.284,215.007h2.429v.808H320.4v-6.994h.884Z" transform="translate(-319.822 -171.561)"/>
    <path id="Trazado_102290" data-name="Trazado 102290" d="M331.5,214.435v.235h-3.815a1.71,1.71,0,0,0,.464,1.272,1.526,1.526,0,0,0,1.112.439,1.475,1.475,0,0,0,1.367-.884l.776.168a2.206,2.206,0,0,1-.833,1.049,2.282,2.282,0,0,1-1.271.381,2.385,2.385,0,0,1-1.763-.68,2.906,2.906,0,0,1,0-3.713,2.327,2.327,0,0,1,1.7-.7,2.2,2.2,0,0,1,1.641.636A2.454,2.454,0,0,1,331.5,214.435Zm-2.257-1.8a1.5,1.5,0,0,0-1.018.35,1.584,1.584,0,0,0-.516,1.007h2.925a1.427,1.427,0,0,0-.426-1.007,1.348,1.348,0,0,0-.966-.35Z" transform="translate(-322.176 -172.719)"/>
    <path id="Trazado_102291" data-name="Trazado 102291" d="M337.146,217.1a1.666,1.666,0,0,1-1.068-.336,1.2,1.2,0,0,1-.42-1,1.4,1.4,0,0,1,.133-.636,1.081,1.081,0,0,1,.4-.445,2.176,2.176,0,0,1,.573-.28,5.859,5.859,0,0,1,.744-.178l.788-.127c.286-.051.432-.2.432-.452a.846.846,0,0,0-.3-.725,1.226,1.226,0,0,0-.776-.235,1.272,1.272,0,0,0-.763.223.961.961,0,0,0-.363.687l-.776-.168a1.525,1.525,0,0,1,.636-1.043,2.289,2.289,0,0,1,1.335-.349,2.745,2.745,0,0,1,.706.089,1.906,1.906,0,0,1,.588.274,1.233,1.233,0,0,1,.42.521,1.963,1.963,0,0,1,.153.808v2.015a.82.82,0,0,0,.114.509.47.47,0,0,0,.381.133h.084v.636h-.426c-.528,0-.84-.216-.929-.636h-.039a1.847,1.847,0,0,1-1.625.712Zm.2-.693a1.272,1.272,0,0,0,1.043-.477,1.908,1.908,0,0,0,.4-1.272l-1.272.252a1.7,1.7,0,0,0-.756.274.711.711,0,0,0-.013,1.068.986.986,0,0,0,.623.14Z" transform="translate(-325.377 -172.732)"/>
    <path id="Trazado_102292" data-name="Trazado 102292" d="M344.65,215.45v-7.63h.858v7.63Z" transform="translate(-328.653 -171.197)"/>
    <path id="Trazado_102293" data-name="Trazado 102293" d="M322.224,235.077a3.179,3.179,0,0,1-1.824-.5,2.092,2.092,0,0,1-.909-1.354l.9-.216a1.45,1.45,0,0,0,.636.954,2.105,2.105,0,0,0,1.233.35,2.169,2.169,0,0,0,.464-.045,1.907,1.907,0,0,0,.42-.127,1.347,1.347,0,0,0,.343-.229.953.953,0,0,0,.229-.343,1.1,1.1,0,0,0,.076-.464.929.929,0,0,0-.057-.331,1.113,1.113,0,0,0-.14-.26.853.853,0,0,0-.235-.21,2.439,2.439,0,0,0-.286-.168,2.64,2.64,0,0,0-.35-.14l-.369-.121-.4-.108h-.076l-.47-.133a4.351,4.351,0,0,1-.432-.146,2.906,2.906,0,0,1-.413-.191,3.147,3.147,0,0,1-.343-.242,1.063,1.063,0,0,1-.28-.311,1.5,1.5,0,0,1-.168-.395,1.952,1.952,0,0,1,.26-1.571,1.908,1.908,0,0,1,.84-.636,3.023,3.023,0,0,1,1.157-.21,3.18,3.18,0,0,1,1.679.432,1.908,1.908,0,0,1,.89,1.272l-.865.222a1.272,1.272,0,0,0-.578-.858,2,2,0,0,0-1.091-.292,2.046,2.046,0,0,0-.534.07,1.443,1.443,0,0,0-.464.2.929.929,0,0,0-.336.363,1.106,1.106,0,0,0-.127.534.877.877,0,0,0,.178.534,1.041,1.041,0,0,0,.21.191,2.448,2.448,0,0,0,.261.153,2.154,2.154,0,0,0,.324.127l.349.114.381.1a7.985,7.985,0,0,1,1.348.445,1.7,1.7,0,0,1,1.036,1.272,2.3,2.3,0,0,1,0,.306,1.946,1.946,0,0,1-.2.9,1.659,1.659,0,0,1-.553.636,2.9,2.9,0,0,1-.782.35,3.706,3.706,0,0,1-.924.076Z" transform="translate(-319.49 -178.521)"/>
    <path id="Trazado_102294" data-name="Trazado 102294" d="M334.037,233.623v.235h-3.815a1.71,1.71,0,0,0,.464,1.272,1.52,1.52,0,0,0,1.112.432,1.475,1.475,0,0,0,.808-.229,1.545,1.545,0,0,0,.56-.636l.776.168a2.245,2.245,0,0,1-.833,1.049,2.283,2.283,0,0,1-1.272.381,2.372,2.372,0,0,1-1.763-.68,2.906,2.906,0,0,1,0-3.713,2.327,2.327,0,0,1,1.73-.68,2.2,2.2,0,0,1,1.641.636,2.467,2.467,0,0,1,.593,1.765Zm-2.257-1.78a1.5,1.5,0,0,0-1.018.35,1.564,1.564,0,0,0-.515,1.007h2.925a1.418,1.418,0,0,0-.426-1.007,1.347,1.347,0,0,0-.966-.331Z" transform="translate(-323.1 -179.718)"/>
    <path id="Trazado_102295" data-name="Trazado 102295" d="M342.1,231.289h.833v4.635a2.657,2.657,0,0,1-.636,1.908,2.619,2.619,0,0,1-4.114-.826l.706-.35a1.615,1.615,0,0,0,1.634,1.125,1.392,1.392,0,0,0,1.144-.477,2,2,0,0,0,.4-1.329v-.9a1.685,1.685,0,0,1-.7.7,2.01,2.01,0,0,1-1.018.267,2.091,2.091,0,0,1-1.577-.687,2.4,2.4,0,0,1-.636-1.735,2.378,2.378,0,0,1,.636-1.73,2.111,2.111,0,0,1,1.589-.687,2,2,0,0,1,1.018.274,1.763,1.763,0,0,1,.693.725Zm-1.552,4.012a1.469,1.469,0,0,0,1.125-.5,1.78,1.78,0,0,0,0-2.39,1.532,1.532,0,0,0-2.251,0,1.806,1.806,0,0,0,0,2.416,1.482,1.482,0,0,0,1.126.47Z" transform="translate(-326.28 -179.711)"/>
    <path id="Trazado_102296" data-name="Trazado 102296" d="M351.433,231.322h.858v4.87h-.826v-.636a1.564,1.564,0,0,1-.6.547,1.907,1.907,0,0,1-.858.191,1.672,1.672,0,0,1-1.227-.445,1.64,1.64,0,0,1-.458-1.272V231.29h.858v3.1a1.139,1.139,0,0,0,.3.871,1.055,1.055,0,0,0,.769.292,1.175,1.175,0,0,0,.865-.336,1.406,1.406,0,0,0,.343-1Z" transform="translate(-329.987 -179.744)"/>
    <path id="Trazado_102297" data-name="Trazado 102297" d="M358.16,232.18a1.488,1.488,0,0,1,.6-.636,1.831,1.831,0,0,1,.941-.252v.808a1.621,1.621,0,0,0-1.138.363,1.511,1.511,0,0,0-.388,1.157V236.2h-.858v-4.883h.84Z" transform="translate(-333.267 -179.745)"/>
    <path id="Trazado_102298" data-name="Trazado 102298" d="M364.368,236.263a2.543,2.543,0,0,1-1.272-.3,2.148,2.148,0,0,1-.884-.884,2.727,2.727,0,0,1-.324-1.348,2.486,2.486,0,0,1,.693-1.847,2.4,2.4,0,0,1,1.763-.693,2.423,2.423,0,0,1,1.774.693,2.81,2.81,0,0,1,0,3.687,2.385,2.385,0,0,1-1.749.693Zm0-.719a1.494,1.494,0,0,0,1.151-.5,1.907,1.907,0,0,0,.464-1.322,1.869,1.869,0,0,0-.464-1.316,1.482,1.482,0,0,0-1.151-.5,1.456,1.456,0,0,0-1.144.5,1.863,1.863,0,0,0-.458,1.316,1.907,1.907,0,0,0,.458,1.322,1.475,1.475,0,0,0,1.144.47Z" transform="translate(-334.93 -179.706)"/>
  </g>
  <g id="Grupo_57686" data-name="Grupo 57686" transform="translate(203.545 74.12)">
    <path id="Trazado_102299" data-name="Trazado 102299" d="M323.118,117.108a2.168,2.168,0,0,1,1.653.636,2.346,2.346,0,0,1,.635,1.653,2.257,2.257,0,0,1-.636,1.641,2.183,2.183,0,0,1-1.653.636h-1.5v2.543H320.13v-7.109Zm-.252,3.358a1.068,1.068,0,0,0,.82-.28,1.049,1.049,0,0,0,.274-.776,1.068,1.068,0,0,0-.274-.769,1.091,1.091,0,0,0-.82-.286h-1.272v2.111Z" transform="translate(-320.13 -116.768)"/>
    <path id="Trazado_102300" data-name="Trazado 102300" d="M331.947,125.537a3.274,3.274,0,0,1-1.443-.311,2.351,2.351,0,0,1-.992-.924,2.707,2.707,0,0,1-.363-1.427,2.543,2.543,0,0,1,.776-1.908,3.237,3.237,0,0,1,4.05,0,2.824,2.824,0,0,1,0,3.885A2.9,2.9,0,0,1,331.947,125.537Zm0-1.138a1.316,1.316,0,0,0,1.007-.42,1.552,1.552,0,0,0,.381-1.1,1.583,1.583,0,0,0-.381-1.107,1.335,1.335,0,0,0-1.007-.413,1.271,1.271,0,0,0-.979.42,1.774,1.774,0,0,0,0,2.2,1.272,1.272,0,0,0,.966.42Z" transform="translate(-323.415 -117.916)"/>
    <path id="Trazado_102301" data-name="Trazado 102301" d="M341.189,125.519a2.906,2.906,0,0,1-1.494-.356,1.526,1.526,0,0,1-.725-1.068l1.2-.336a.96.96,0,0,0,1.023.763,1.007,1.007,0,0,0,.521-.121.4.4,0,0,0,.2-.395.439.439,0,0,0-.084-.261.789.789,0,0,0-.26-.191l-.35-.133-.458-.133a4.737,4.737,0,0,1-.47-.146,2.754,2.754,0,0,1-.452-.191,1.7,1.7,0,0,1-.369-.26,1.06,1.06,0,0,1-.28-.4,1.469,1.469,0,0,1-.1-.547,1.31,1.31,0,0,1,.553-1.144,2.505,2.505,0,0,1,1.45-.388,2.543,2.543,0,0,1,1.335.331,1.475,1.475,0,0,1,.687,1.023l-1.112.252a.858.858,0,0,0-.9-.636.979.979,0,0,0-.5.114.375.375,0,0,0-.2.343.405.405,0,0,0,0,.153.305.305,0,0,0,.1.121l.146.1a.944.944,0,0,0,.2.084l.222.064.26.07.267.07c.185.051.343.1.484.146a3.357,3.357,0,0,1,.439.21,1.693,1.693,0,0,1,.381.3,1.456,1.456,0,0,1,.252.426,1.576,1.576,0,0,1,.1.566,1.52,1.52,0,0,1-.168.737,1.271,1.271,0,0,1-.47.5,2.256,2.256,0,0,1-.636.267A3.459,3.459,0,0,1,341.189,125.519Z" transform="translate(-326.991 -117.898)"/>
    <path id="Trazado_102302" data-name="Trazado 102302" d="M348.052,118.226a.827.827,0,1,1,.757-.824.819.819,0,0,1-.757.824Zm-.731,5.869v-5.087h1.443v5.087Z" transform="translate(-329.996 -116.576)"/>
    <path id="Trazado_102303" data-name="Trazado 102303" d="M353.529,124.533a1.558,1.558,0,0,1-1.157-.413,1.628,1.628,0,0,1-.407-1.183v-2.41h-1.007v-1.1h.324a.84.84,0,0,0,.636-.21,1.1,1.1,0,0,0,.2-.763v-.672h1.272v1.646h1.055v1.1h-1.055v2.257c0,.445.2.636.588.636h.464v1.091Z" transform="translate(-331.357 -117.014)"/>
    <path id="Trazado_102304" data-name="Trazado 102304" d="M358.865,118.226a.8.8,0,0,1-.588-.242.776.776,0,0,1-.242-.588.8.8,0,0,1,.242-.578.82.82,0,0,1,.588-.242.808.808,0,0,1,.579.242.82.82,0,0,1,0,1.164.808.808,0,0,1-.578.244Zm-.731,5.869v-5.086h1.443v5.086Z" transform="translate(-333.935 -116.576)"/>
    <path id="Trazado_102305" data-name="Trazado 102305" d="M365.662,120.37h1.52L365,125.456h-1.269l-2.149-5.086h1.539l1.272,3.491Z" transform="translate(-335.226 -117.957)"/>
    <path id="Trazado_102306" data-name="Trazado 102306" d="M373.4,125.536a3.287,3.287,0,0,1-1.45-.311,2.3,2.3,0,0,1-.986-.924,2.709,2.709,0,0,1-.363-1.427,2.486,2.486,0,0,1,.776-1.908,3.224,3.224,0,0,1,4.044,0,2.823,2.823,0,0,1,0,3.885,2.886,2.886,0,0,1-2.022.68Zm0-1.138a1.271,1.271,0,0,0,1.008-.42,1.532,1.532,0,0,0,.388-1.1,1.557,1.557,0,0,0-.388-1.107,1.316,1.316,0,0,0-1.008-.407,1.272,1.272,0,0,0-.979.42,1.774,1.774,0,0,0,0,2.2,1.272,1.272,0,0,0,.979.415Z" transform="translate(-338.509 -117.916)"/>
  </g>
  <g id="Grupo_57687" data-name="Grupo 57687" transform="translate(283.301 95.953)">
    <path id="Trazado_102307" data-name="Trazado 102307" d="M449.36,152.034h-2.881v2.283h2.543v.8h-2.543v3.1h-.909V151.22h3.783Z" transform="translate(-445.57 -151.025)"/>
    <path id="Trazado_102308" data-name="Trazado 102308" d="M454.383,155.38a1.512,1.512,0,0,1,.635-.636,1.806,1.806,0,0,1,.935-.252v.808a1.6,1.6,0,0,0-1.132.363,1.511,1.511,0,0,0-.388,1.157v2.6h-.865V154.54h.84Z" transform="translate(-448.483 -152.216)"/>
    <path id="Trazado_102309" data-name="Trazado 102309" d="M459.225,152.078a.588.588,0,0,1-.588-.588.553.553,0,0,1,.168-.407.588.588,0,0,1,.413-.168.566.566,0,0,1,.4.168.554.554,0,0,1,.168.407.566.566,0,0,1-.168.413.547.547,0,0,1-.394.175Zm-.439,6.027v-4.883h.865v4.883Z" transform="translate(-450.329 -150.915)"/>
    <path id="Trazado_102310" data-name="Trazado 102310" d="M464.792,159.464a2.543,2.543,0,0,1-1.272-.3,2.175,2.175,0,0,1-.877-.884,2.726,2.726,0,0,1-.324-1.348,2.492,2.492,0,0,1,.693-1.847,2.594,2.594,0,0,1,3.526,0,2.8,2.8,0,0,1,0,3.687A2.384,2.384,0,0,1,464.792,159.464Zm0-.712a1.511,1.511,0,0,0,1.151-.5,1.907,1.907,0,0,0,.458-1.322,1.863,1.863,0,0,0-.458-1.316,1.571,1.571,0,0,0-2.3,0,2.153,2.153,0,0,0,0,2.639,1.5,1.5,0,0,0,1.15.5Z" transform="translate(-451.668 -152.179)"/>
    <path id="Trazado_102311" data-name="Trazado 102311" d="M445.58,177.414V170.42h.9v6.994Z" transform="translate(-445.573 -158.017)"/>
    <path id="Trazado_102312" data-name="Trazado 102312" d="M452.385,173.588a1.71,1.71,0,0,1,1.227.445,1.653,1.653,0,0,1,.458,1.272v3.287H453.2V175.5a1.17,1.17,0,0,0-.3-.877,1.05,1.05,0,0,0-.763-.286,1.2,1.2,0,0,0-.871.336,1.392,1.392,0,0,0-.343,1v2.918h-.856v-4.883h.858v.636a1.628,1.628,0,0,1,1.456-.756Z" transform="translate(-447.209 -159.17)"/>
    <path id="Trazado_102313" data-name="Trazado 102313" d="M462.361,169.42h.865v7.63H462.4V176.1a1.818,1.818,0,0,1-.7.769,1.907,1.907,0,0,1-1.03.286,2.2,2.2,0,0,1-.884-.185,2.166,2.166,0,0,1-.731-.509,2.365,2.365,0,0,1-.489-.808,2.916,2.916,0,0,1-.178-1.043,2.543,2.543,0,0,1,.636-1.838,2.13,2.13,0,0,1,1.621-.706,1.965,1.965,0,0,1,1.023.28,1.819,1.819,0,0,1,.693.744Zm-1.539,6.994a1.488,1.488,0,0,0,1.138-.509,1.869,1.869,0,0,0,.458-1.272,1.831,1.831,0,0,0-.464-1.272,1.463,1.463,0,0,0-1.132-.515,1.511,1.511,0,0,0-1.144.5,1.863,1.863,0,0,0-.458,1.3,1.838,1.838,0,0,0,.458,1.272,1.511,1.511,0,0,0,1.144.489Z" transform="translate(-450.237 -157.653)"/>
    <path id="Trazado_102314" data-name="Trazado 102314" d="M469.1,171.28a.553.553,0,0,1-.407-.168.565.565,0,0,1-.168-.413.553.553,0,0,1,.168-.407.588.588,0,0,1,.814,0,.553.553,0,0,1,.168.407.566.566,0,0,1-.168.413.553.553,0,0,1-.406.168Zm-.439,6.027v-4.883h.865v4.883Z" transform="translate(-453.929 -157.91)"/>
    <path id="Trazado_102315" data-name="Trazado 102315" d="M474.7,170.137h-.369a.906.906,0,0,0-.178,0l-.153.051a.356.356,0,0,0-.146.084l-.114.127a.439.439,0,0,0-.1.178,1.129,1.129,0,0,0-.057.242,2.182,2.182,0,0,0,0,.306v1.007h1.132v.687h-1.151v4.2h-.858v-4.2h-.941v-.687h.941V171.1a3.026,3.026,0,0,1,.051-.566,2.157,2.157,0,0,1,.14-.432,1.117,1.117,0,0,1,.235-.312,1.816,1.816,0,0,1,.3-.21,1.394,1.394,0,0,1,.369-.121,3.352,3.352,0,0,1,.42-.064h.477Z" transform="translate(-455.111 -157.646)"/>
    <path id="Trazado_102316" data-name="Trazado 102316" d="M481.906,176.046v.235h-3.815a1.711,1.711,0,0,0,.464,1.272,1.532,1.532,0,0,0,1.112.439,1.475,1.475,0,0,0,1.367-.884l.776.168a2.206,2.206,0,0,1-.833,1.049,2.283,2.283,0,0,1-1.272.381,2.384,2.384,0,0,1-1.763-.68,2.906,2.906,0,0,1,0-3.713,2.327,2.327,0,0,1,1.729-.68,2.2,2.2,0,0,1,1.641.636A2.467,2.467,0,0,1,481.906,176.046Zm-2.257-1.78a1.5,1.5,0,0,0-1.018.35,1.584,1.584,0,0,0-.515,1.007h2.931a1.461,1.461,0,0,0-.432-1.008,1.347,1.347,0,0,0-.973-.35Z" transform="translate(-457.116 -159.186)"/>
    <path id="Trazado_102317" data-name="Trazado 102317" d="M487.534,174.58a1.469,1.469,0,0,1,.636-.636,1.806,1.806,0,0,1,.934-.252v.808a1.6,1.6,0,0,0-1.132.363,1.511,1.511,0,0,0-.394,1.157v2.6h-.858V173.74h.814Z" transform="translate(-460.556 -159.209)"/>
    <path id="Trazado_102318" data-name="Trazado 102318" d="M495.976,176.053v.235h-3.815a1.71,1.71,0,0,0,.464,1.272,1.583,1.583,0,0,0,1.908.2,1.494,1.494,0,0,0,.553-.636l.776.168a2.207,2.207,0,0,1-.833,1.049,2.283,2.283,0,0,1-1.272.381,2.372,2.372,0,0,1-1.763-.68,2.906,2.906,0,0,1,0-3.713,2.327,2.327,0,0,1,1.73-.68,2.2,2.2,0,0,1,1.641.636,2.467,2.467,0,0,1,.61,1.767Zm-2.257-1.78a1.5,1.5,0,0,0-1.018.35,1.583,1.583,0,0,0-.516,1.007h2.925a1.427,1.427,0,0,0-.426-1.007A1.348,1.348,0,0,0,493.719,174.273Z" transform="translate(-462.233 -159.193)"/>
    <path id="Trazado_102319" data-name="Trazado 102319" d="M503.068,173.589a1.71,1.71,0,0,1,1.228.445,1.653,1.653,0,0,1,.458,1.272v3.287h-.858V175.5a1.17,1.17,0,0,0-.3-.877,1.049,1.049,0,0,0-.763-.286,1.183,1.183,0,0,0-.871.336,1.392,1.392,0,0,0-.343,1v2.918h-.858v-4.883h.858v.636a1.628,1.628,0,0,1,1.45-.755Z" transform="translate(-465.669 -159.171)"/>
    <path id="Trazado_102320" data-name="Trazado 102320" d="M510.785,177.691a1.272,1.272,0,0,1-.954-.35,1.336,1.336,0,0,1-.343-.973v-2.874h-1v-.687h.363a.7.7,0,0,0,.541-.168.82.82,0,0,0,.159-.573v-.887h.8v1.628h1.119v.687h-1.119v2.785a.719.719,0,0,0,.185.534.636.636,0,0,0,.489.191h.445v.687Z" transform="translate(-468.484 -158.294)"/>
    <path id="Trazado_102321" data-name="Trazado 102321" d="M519.108,176.053v.235h-3.815a1.735,1.735,0,0,0,.47,1.272,1.526,1.526,0,0,0,1.112.439,1.482,1.482,0,0,0,.808-.235,1.552,1.552,0,0,0,.559-.636l.776.168a2.213,2.213,0,0,1-.84,1.049,2.282,2.282,0,0,1-1.272.381,2.359,2.359,0,0,1-1.755-.68,2.893,2.893,0,0,1,0-3.713,2.351,2.351,0,0,1,1.735-.68,2.2,2.2,0,0,1,1.641.636,2.467,2.467,0,0,1,.578,1.767Zm-2.257-1.78a1.5,1.5,0,0,0-1.018.35,1.583,1.583,0,0,0-.515,1.007h2.925a1.456,1.456,0,0,0-.426-1.007,1.361,1.361,0,0,0-.966-.35Z" transform="translate(-470.666 -159.194)"/>
    <path id="Trazado_102322" data-name="Trazado 102322" d="M445.58,196.613V189.62h2.257a3.383,3.383,0,0,1,1.781.452,2.817,2.817,0,0,1,1.091,1.233,4.318,4.318,0,0,1,.356,1.806,4.517,4.517,0,0,1-.21,1.418,3.107,3.107,0,0,1-.6,1.107,2.67,2.67,0,0,1-1.018.725,3.586,3.586,0,0,1-1.4.252Zm.89-.808H447.8a2.143,2.143,0,0,0,1.749-.719,3.039,3.039,0,0,0,.588-1.977,3,3,0,0,0-.588-1.965,2.124,2.124,0,0,0-1.742-.712h-1.322Z" transform="translate(-445.573 -165.009)"/>
    <path id="Trazado_102323" data-name="Trazado 102323" d="M456.929,190.479a.553.553,0,0,1-.407-.168.566.566,0,0,1-.168-.413.553.553,0,0,1,.168-.407.572.572,0,0,1,.407-.168.588.588,0,0,1,.407.168.553.553,0,0,1,.168.407.588.588,0,0,1-.579.588Zm-.438,6.027v-4.883h.865v4.883Z" transform="translate(-449.496 -164.901)"/>
    <path id="Trazado_102324" data-name="Trazado 102324" d="M461.992,197.87a2.308,2.308,0,0,1-1.316-.35,1.469,1.469,0,0,1-.636-1.007l.751-.216a1.08,1.08,0,0,0,.4.68,1.316,1.316,0,0,0,.8.242,1.793,1.793,0,0,0,.47-.064.814.814,0,0,0,.363-.242.694.694,0,0,0,.146-.445.68.68,0,0,0-.045-.2.74.74,0,0,0-.076-.159.407.407,0,0,0-.14-.133,1.451,1.451,0,0,0-.168-.108,1.319,1.319,0,0,0-.217-.089l-.242-.084-.274-.076-.28-.084c-.2-.064-.375-.121-.509-.178a2.333,2.333,0,0,1-.413-.235.947.947,0,0,1-.318-.388,1.31,1.31,0,0,1-.108-.547,1.272,1.272,0,0,1,.242-.782,1.349,1.349,0,0,1,.636-.458,2.441,2.441,0,0,1,.865-.14,2.123,2.123,0,0,1,1.189.318,1.361,1.361,0,0,1,.6.954l-.706.178a.915.915,0,0,0-.375-.636,1.158,1.158,0,0,0-.7-.21,1.215,1.215,0,0,0-.636.168.579.579,0,0,0-.274.528.541.541,0,0,0,.07.267,1.052,1.052,0,0,0,.146.191.8.8,0,0,0,.274.146,2.3,2.3,0,0,0,.286.108l.356.089h.076l.47.133a3.406,3.406,0,0,1,.42.178,1.543,1.543,0,0,1,.381.267,1.333,1.333,0,0,1,.336.9,1.47,1.47,0,0,1-.146.636,1.092,1.092,0,0,1-.4.445,1.742,1.742,0,0,1-.566.252A2.637,2.637,0,0,1,461.992,197.87Z" transform="translate(-450.84 -166.17)"/>
    <path id="Trazado_102325" data-name="Trazado 102325" d="M469.2,196.884a1.272,1.272,0,0,1-.954-.35,1.316,1.316,0,0,1-.35-.973v-2.886h-1v-.685h.369a.719.719,0,0,0,.541-.168.858.858,0,0,0,.153-.573v-.888h.8v1.629h1.125v.687h-1.125v2.785a.744.744,0,0,0,.185.534.636.636,0,0,0,.49.191h.452v.687Z" transform="translate(-453.338 -165.279)"/>
    <path id="Trazado_102326" data-name="Trazado 102326" d="M474.376,197.87a1.666,1.666,0,0,1-1.068-.336,1.175,1.175,0,0,1-.42-1,1.451,1.451,0,0,1,.134-.636,1.087,1.087,0,0,1,.395-.439,2.393,2.393,0,0,1,.573-.28,6.454,6.454,0,0,1,.744-.178l.788-.127c.292-.051.432-.2.432-.452a.845.845,0,0,0-.306-.725,1.208,1.208,0,0,0-.769-.235,1.31,1.31,0,0,0-.769.222.96.96,0,0,0-.363.687l-.788-.168a1.481,1.481,0,0,1,.636-1.043,2.25,2.25,0,0,1,1.329-.35,2.677,2.677,0,0,1,.706.089,1.792,1.792,0,0,1,.588.274,1.2,1.2,0,0,1,.426.521,1.965,1.965,0,0,1,.153.808v2.015a.826.826,0,0,0,.108.509.484.484,0,0,0,.388.133h.076v.636h-.426a.808.808,0,0,1-.924-.636h-.044a1.863,1.863,0,0,1-1.6.712Zm.2-.693a1.3,1.3,0,0,0,1.049-.477,1.908,1.908,0,0,0,.395-1.272l-1.272.252a1.735,1.735,0,0,0-.756.274.717.717,0,0,0-.007,1.068.966.966,0,0,0,.588.159Z" transform="translate(-455.517 -166.17)"/>
    <path id="Trazado_102327" data-name="Trazado 102327" d="M484.141,192.789a1.717,1.717,0,0,1,1.233.445,1.653,1.653,0,0,1,.458,1.272v3.287h-.858v-3.1a1.164,1.164,0,0,0-.3-.871,1.049,1.049,0,0,0-.763-.286,1.183,1.183,0,0,0-.871.336,1.343,1.343,0,0,0-.343,1v2.918h-.857v-4.883h.858v.636a1.628,1.628,0,0,1,1.443-.755Z" transform="translate(-458.779 -166.163)"/>
    <path id="Trazado_102328" data-name="Trazado 102328" d="M491.86,196.884a1.272,1.272,0,0,1-.954-.35,1.335,1.335,0,0,1-.343-.973v-2.886h-1.008v-.685h.374a.705.705,0,0,0,.541-.168.852.852,0,0,0,.159-.573v-.888h.8v1.629h1.125v.687h-1.125v2.785a.725.725,0,0,0,.191.534.635.635,0,0,0,.489.191h.445v.687Z" transform="translate(-461.59 -165.279)"/>
    <path id="Trazado_102329" data-name="Trazado 102329" d="M500.188,195.253v.235h-3.815a1.71,1.71,0,0,0,.47,1.272,1.525,1.525,0,0,0,1.112.439,1.481,1.481,0,0,0,.808-.235,1.552,1.552,0,0,0,.56-.636l.769.168a2.168,2.168,0,0,1-.833,1.049,2.283,2.283,0,0,1-1.272.381,2.358,2.358,0,0,1-1.755-.68,2.893,2.893,0,0,1,0-3.713,2.34,2.34,0,0,1,1.729-.68,2.206,2.206,0,0,1,1.646.636,2.493,2.493,0,0,1,.579,1.764Zm-2.267-1.78a1.494,1.494,0,0,0-1.008.35,1.584,1.584,0,0,0-.516,1.007h2.925a1.457,1.457,0,0,0-.426-1.008,1.373,1.373,0,0,0-.973-.351Z" transform="translate(-463.775 -166.185)"/>
    <path id="Trazado_102330" data-name="Trazado 102330" d="M445.58,215.814V208.82h.9v6.994Z" transform="translate(-445.573 -172.002)"/>
    <path id="Trazado_102331" data-name="Trazado 102331" d="M452.385,212a1.71,1.71,0,0,1,1.227.445,1.653,1.653,0,0,1,.458,1.272V217H453.2v-3.1a1.164,1.164,0,0,0-.3-.871,1.05,1.05,0,0,0-.763-.286,1.2,1.2,0,0,0-.871.336,1.393,1.393,0,0,0-.343,1V217h-.855v-4.883h.858v.636a1.628,1.628,0,0,1,1.456-.756Z" transform="translate(-447.209 -173.159)"/>
    <path id="Trazado_102332" data-name="Trazado 102332" d="M463.972,212a1.564,1.564,0,0,1,1.138.42,1.532,1.532,0,0,1,.432,1.164v3.4h-.859V213.8a1.113,1.113,0,0,0-.267-.808.929.929,0,0,0-.68-.274.96.96,0,0,0-.744.311,1.31,1.31,0,0,0-.286.924v3.022h-.871V213.83a1.158,1.158,0,0,0-.274-.827.909.909,0,0,0-.693-.286.96.96,0,0,0-.744.318,1.374,1.374,0,0,0-.286.947v2.988H459v-4.883h.858v.636a1.552,1.552,0,0,1,.559-.534,1.577,1.577,0,0,1,.776-.191,1.647,1.647,0,0,1,.84.21,1.271,1.271,0,0,1,.541.588,1.494,1.494,0,0,1,.588-.588,1.654,1.654,0,0,1,.814-.21Z" transform="translate(-450.46 -173.159)"/>
    <path id="Trazado_102333" data-name="Trazado 102333" d="M474.889,212.133h.833v4.883H474.9v-.636a1.518,1.518,0,0,1-.6.547,1.863,1.863,0,0,1-.852.191,1.71,1.71,0,0,1-1.233-.439,1.666,1.666,0,0,1-.458-1.272V212.12h.858v3.106a1.163,1.163,0,0,0,.3.871,1.055,1.055,0,0,0,.769.292,1.17,1.17,0,0,0,.865-.336,1.373,1.373,0,0,0,.343-1Z" transform="translate(-455.102 -173.204)"/>
    <path id="Trazado_102334" data-name="Trazado 102334" d="M481.925,216.091a1.272,1.272,0,0,1-.954-.35,1.335,1.335,0,0,1-.343-.973v-2.874h-1v-.687H480a.687.687,0,0,0,.534-.168.82.82,0,0,0,.159-.573v-.887h.8v1.628h1.119v.687h-1.119v2.785a.719.719,0,0,0,.185.534.636.636,0,0,0,.49.191h.445v.687Z" transform="translate(-457.974 -172.279)"/>
    <path id="Trazado_102335" data-name="Trazado 102335" d="M487.143,217.1a1.672,1.672,0,0,1-1.075-.336,1.2,1.2,0,0,1-.42-1,1.4,1.4,0,0,1,.133-.636,1.081,1.081,0,0,1,.4-.445,2.175,2.175,0,0,1,.573-.28,6.149,6.149,0,0,1,.744-.178l.788-.127c.286-.051.432-.2.432-.452a.845.845,0,0,0-.306-.725,1.227,1.227,0,0,0-.776-.235,1.272,1.272,0,0,0-.763.223.961.961,0,0,0-.363.687l-.776-.168a1.527,1.527,0,0,1,.636-1.043,2.29,2.29,0,0,1,1.335-.35,2.746,2.746,0,0,1,.706.089,1.793,1.793,0,0,1,.588.274,1.234,1.234,0,0,1,.42.521,1.966,1.966,0,0,1,.153.808v2.015a.82.82,0,0,0,.114.509.477.477,0,0,0,.381.133h.084v.636h-.47c-.528,0-.84-.216-.929-.636h-.038a1.847,1.847,0,0,1-1.577.712Zm.2-.693a1.3,1.3,0,0,0,1.049-.477,1.959,1.959,0,0,0,.394-1.272l-1.272.252a1.7,1.7,0,0,0-.756.274.711.711,0,0,0-.013,1.068.986.986,0,0,0,.573.14Z" transform="translate(-460.165 -173.173)"/>
    <path id="Trazado_102336" data-name="Trazado 102336" d="M497.162,210.481a2.111,2.111,0,0,1,1.609.706,2.543,2.543,0,0,1,.636,1.838,2.593,2.593,0,0,1-.635,1.838,2.117,2.117,0,0,1-1.615.706,1.945,1.945,0,0,1-1.043-.286,1.818,1.818,0,0,1-.7-.769v.947h-.833V207.83h.856v3.682a1.793,1.793,0,0,1,.693-.751A2,2,0,0,1,497.162,210.481Zm-.191,4.336a1.511,1.511,0,0,0,1.144-.5,1.837,1.837,0,0,0,.458-1.272,1.862,1.862,0,0,0-.458-1.3,1.511,1.511,0,0,0-1.144-.5,1.462,1.462,0,0,0-1.132.515,1.831,1.831,0,0,0-.464,1.272,1.87,1.87,0,0,0,.458,1.272,1.481,1.481,0,0,0,1.138.5Z" transform="translate(-463.418 -171.642)"/>
    <path id="Trazado_102337" data-name="Trazado 102337" d="M504.34,215.45v-7.63h.871v7.63Z" transform="translate(-466.973 -171.638)"/>
    <path id="Trazado_102338" data-name="Trazado 102338" d="M512.515,214.446v.235H508.7a1.71,1.71,0,0,0,.464,1.272,1.526,1.526,0,0,0,1.112.439,1.475,1.475,0,0,0,1.367-.884l.776.168a2.207,2.207,0,0,1-.833,1.049,2.281,2.281,0,0,1-1.272.381,2.384,2.384,0,0,1-1.763-.68,2.906,2.906,0,0,1,0-3.713,2.327,2.327,0,0,1,1.73-.68,2.2,2.2,0,0,1,1.641.636,2.467,2.467,0,0,1,.588,1.781Zm-2.258-1.781a1.5,1.5,0,0,0-1.018.35,1.583,1.583,0,0,0-.515,1.007h2.925a1.427,1.427,0,0,0-.426-1.008,1.348,1.348,0,0,0-.966-.369Z" transform="translate(-468.263 -173.17)"/>
    <path id="Trazado_102339" data-name="Trazado 102339" d="M445.58,234.994V228h.9v6.994Z" transform="translate(-445.573 -178.987)"/>
    <path id="Trazado_102340" data-name="Trazado 102340" d="M452.385,231.188a1.71,1.71,0,0,1,1.227.445,1.653,1.653,0,0,1,.458,1.272v3.249H453.2v-3.1a1.164,1.164,0,0,0-.3-.871,1.049,1.049,0,0,0-.763-.286,1.2,1.2,0,0,0-.871.336,1.393,1.393,0,0,0-.343,1v2.917h-.856v-4.883h.858v.636a1.628,1.628,0,0,1,1.457-.715Z" transform="translate(-447.209 -180.147)"/>
    <path id="Trazado_102341" data-name="Trazado 102341" d="M459.886,236.273a1.666,1.666,0,0,1-1.068-.336,1.2,1.2,0,0,1-.42-1,1.449,1.449,0,0,1,.133-.636,1.107,1.107,0,0,1,.4-.439,2.175,2.175,0,0,1,.573-.28,5.859,5.859,0,0,1,.744-.178l.788-.127c.286-.051.432-.2.432-.452a.845.845,0,0,0-.3-.725,1.227,1.227,0,0,0-.776-.235,1.271,1.271,0,0,0-.763.222.961.961,0,0,0-.363.687l-.776-.168a1.525,1.525,0,0,1,.636-1.043,2.289,2.289,0,0,1,1.335-.35,2.748,2.748,0,0,1,.706.089,1.857,1.857,0,0,1,.588.274,1.233,1.233,0,0,1,.42.521,1.964,1.964,0,0,1,.153.808V234.9a.821.821,0,0,0,.114.509.47.47,0,0,0,.381.133h.084v.636h-.426c-.528,0-.84-.216-.929-.636h-.038A1.87,1.87,0,0,1,459.886,236.273Zm.2-.693a1.3,1.3,0,0,0,1.049-.477,1.959,1.959,0,0,0,.394-1.272l-1.272.252a1.7,1.7,0,0,0-.756.274.711.711,0,0,0-.013,1.068.986.986,0,0,0,.6.154Z" transform="translate(-450.241 -180.158)"/>
    <path id="Trazado_102342" data-name="Trazado 102342" d="M469.943,231.19a2.308,2.308,0,0,1,.884.178,2.245,2.245,0,0,1,.725.5,2.367,2.367,0,0,1,.489.808,2.988,2.988,0,0,1,.178,1.055,2.543,2.543,0,0,1-.636,1.838,2.13,2.13,0,0,1-1.621.706,1.945,1.945,0,0,1-1.023-.28,1.831,1.831,0,0,1-.693-.751v3.383h-.865v-7.349h.833v.947a1.768,1.768,0,0,1,.693-.756A1.939,1.939,0,0,1,469.943,231.19Zm-.168,4.336a1.468,1.468,0,0,0,1.132-.489,2.085,2.085,0,0,0,0-2.6,1.468,1.468,0,0,0-1.132-.489,1.5,1.5,0,0,0-1.144.509,1.99,1.99,0,0,0,0,2.543,1.5,1.5,0,0,0,1.144.528Z" transform="translate(-453.513 -180.149)"/>
    <path id="Trazado_102343" data-name="Trazado 102343" d="M481.2,233.616v.235h-3.815a1.736,1.736,0,0,0,.464,1.272,1.532,1.532,0,0,0,1.112.439,1.475,1.475,0,0,0,1.367-.884l.776.168a2.168,2.168,0,0,1-.833,1.049,2.283,2.283,0,0,1-1.272.381,2.384,2.384,0,0,1-1.763-.68,2.906,2.906,0,0,1,0-3.713,2.327,2.327,0,0,1,1.73-.68,2.183,2.183,0,0,1,1.641.636,2.467,2.467,0,0,1,.594,1.777Zm-2.267-1.78a1.511,1.511,0,0,0-1.018.349,1.545,1.545,0,0,0-.509,1.007h2.925a1.463,1.463,0,0,0-.432-1.007,1.348,1.348,0,0,0-.966-.331Z" transform="translate(-456.857 -180.151)"/>
    <path id="Trazado_102344" data-name="Trazado 102344" d="M487.1,235.271a1.272,1.272,0,0,1-.954-.35,1.316,1.316,0,0,1-.35-.973v-2.874h-1v-.685h.369a.718.718,0,0,0,.541-.168.858.858,0,0,0,.153-.573v-.888h.8v1.629h1.119v.687h-1.119v2.785a.744.744,0,0,0,.185.534.635.635,0,0,0,.49.191h.445v.687Z" transform="translate(-459.857 -179.264)"/>
    <path id="Trazado_102345" data-name="Trazado 102345" d="M495.414,233.623v.235H491.6a1.71,1.71,0,0,0,.464,1.272,1.526,1.526,0,0,0,1.112.439,1.482,1.482,0,0,0,.808-.235,1.511,1.511,0,0,0,.559-.636l.776.168a2.244,2.244,0,0,1-.833,1.049,2.283,2.283,0,0,1-1.272.381,2.372,2.372,0,0,1-1.763-.68,2.906,2.906,0,0,1,0-3.713,2.326,2.326,0,0,1,1.73-.68,2.2,2.2,0,0,1,1.641.636,2.467,2.467,0,0,1,.588,1.767Zm-2.258-1.78a1.5,1.5,0,0,0-1.018.35,1.583,1.583,0,0,0-.515,1.007h2.925a1.427,1.427,0,0,0-.426-1.007,1.348,1.348,0,0,0-.966-.331Z" transform="translate(-462.035 -180.159)"/>
    <path id="Trazado_102346" data-name="Trazado 102346" d="M502.491,231.188a1.717,1.717,0,0,1,1.233.445,1.653,1.653,0,0,1,.458,1.272v3.249h-.858v-3.1a1.163,1.163,0,0,0-.3-.871,1.049,1.049,0,0,0-.763-.286,1.182,1.182,0,0,0-.872.336,1.392,1.392,0,0,0-.343,1v2.917h-.857v-4.883h.858v.636a1.628,1.628,0,0,1,1.443-.715Z" transform="translate(-465.462 -180.147)"/>
    <path id="Trazado_102347" data-name="Trazado 102347" d="M510.215,235.271a1.272,1.272,0,0,1-.954-.35,1.335,1.335,0,0,1-.343-.973v-2.874h-1v-.685h.363a.7.7,0,0,0,.541-.168.821.821,0,0,0,.159-.573v-.888h.8v1.629H510.9v.687h-1.119v2.785a.719.719,0,0,0,.185.534.636.636,0,0,0,.49.191h.445v.687Z" transform="translate(-468.277 -179.264)"/>
    <path id="Trazado_102348" data-name="Trazado 102348" d="M518.538,233.623v.235h-3.815a1.71,1.71,0,0,0,.47,1.272,1.526,1.526,0,0,0,1.112.439,1.481,1.481,0,0,0,.808-.235,1.552,1.552,0,0,0,.559-.636l.776.168a2.214,2.214,0,0,1-.84,1.049,2.282,2.282,0,0,1-1.272.381,2.359,2.359,0,0,1-1.755-.68,2.893,2.893,0,0,1,0-3.713,2.351,2.351,0,0,1,1.736-.68,2.2,2.2,0,0,1,1.641.636A2.466,2.466,0,0,1,518.538,233.623Zm-2.257-1.78a1.5,1.5,0,0,0-1.018.35,1.582,1.582,0,0,0-.515,1.007h2.925a1.457,1.457,0,0,0-.426-1.007,1.367,1.367,0,0,0-.966-.331Z" transform="translate(-470.457 -180.159)"/>
  </g>
  <g id="Grupo_57688" data-name="Grupo 57688" transform="translate(283.118 74.123)">
    <path id="Trazado_102349" data-name="Trazado 102349" d="M450.188,117.11h1.482v7.178h-1.723l-3.179-5.131v5.131H445.28V117.11h1.73l3.179,5.086Z" transform="translate(-445.28 -116.773)"/>
    <path id="Trazado_102350" data-name="Trazado 102350" d="M462.494,122.781v.343H458.68a1.31,1.31,0,0,0,.407.934,1.386,1.386,0,0,0,1.571.146,1.112,1.112,0,0,0,.432-.515l1.31.191a2.232,2.232,0,0,1-.9,1.2,2.687,2.687,0,0,1-1.507.426,2.759,2.759,0,0,1-1.99-.706,2.543,2.543,0,0,1-.738-1.945,2.6,2.6,0,0,1,.738-1.952,2.687,2.687,0,0,1,1.945-.712,2.333,2.333,0,0,1,2.543,2.588Zm-2.543-1.577a1.132,1.132,0,0,0-1.24.986h2.347a1.075,1.075,0,0,0-.356-.731,1.126,1.126,0,0,0-.725-.252Z" transform="translate(-449.644 -117.892)"/>
    <path id="Trazado_102351" data-name="Trazado 102351" d="M470.461,120.3h1.361v4.724a3.815,3.815,0,0,1-.191,1.272,2.053,2.053,0,0,1-.553.871,2.321,2.321,0,0,1-.852.489,3.509,3.509,0,0,1-1.112.159,2.519,2.519,0,0,1-2.632-1.583l1.189-.509a1.723,1.723,0,0,0,.547.744,1.405,1.405,0,0,0,.84.235c.884,0,1.329-.521,1.329-1.577v-.61a1.608,1.608,0,0,1-.636.5,2.156,2.156,0,0,1-.909.191,2.276,2.276,0,0,1-.9-.178,2.384,2.384,0,0,1-.744-.509,2.42,2.42,0,0,1-.5-.8,3.008,3.008,0,0,1,0-2.073,2.282,2.282,0,0,1,.509-.788,2.122,2.122,0,0,1,.744-.5,2.3,2.3,0,0,1,.9-.185,2.1,2.1,0,0,1,.947.216,1.468,1.468,0,0,1,.636.559Zm-2.194,3.376a1.234,1.234,0,0,0,.934.395,1.271,1.271,0,0,0,.941-.395,1.427,1.427,0,0,0,0-1.945,1.329,1.329,0,0,0-1.908,0,1.361,1.361,0,0,0-.375.979,1.335,1.335,0,0,0,.407.966Z" transform="translate(-453.001 -117.891)"/>
    <path id="Trazado_102352" data-name="Trazado 102352" d="M481.192,124.045a4.774,4.774,0,0,0,.121,1.272v.14h-1.335l-.114-.553a1.647,1.647,0,0,1-.712.489,2.686,2.686,0,0,1-.923.168,2.25,2.25,0,0,1-.477-.045,1.751,1.751,0,0,1-.432-.153,1.273,1.273,0,0,1-.356-.267,1.081,1.081,0,0,1-.235-.4,1.78,1.78,0,0,1,0-1.112,1.4,1.4,0,0,1,.252-.413,1.583,1.583,0,0,1,.407-.306,3.183,3.183,0,0,1,.5-.216,5.958,5.958,0,0,1,.636-.159l.84-.191a.9.9,0,0,0,.381-.159.336.336,0,0,0,.108-.252.54.54,0,0,0-.252-.5,1.271,1.271,0,0,0-.636-.146.877.877,0,0,0-1,.783L476.7,121.8a1.716,1.716,0,0,1,.738-1.17,2.956,2.956,0,0,1,1.6-.375q2.149,0,2.149,1.847Zm-2.543.521a1.151,1.151,0,0,0,.884-.375,1.545,1.545,0,0,0,.343-1.091l-1.214.343a1.361,1.361,0,0,0-.509.21.432.432,0,0,0-.178.369.471.471,0,0,0,.191.4.782.782,0,0,0,.509.121Z" transform="translate(-456.701 -117.915)"/>
    <path id="Trazado_102353" data-name="Trazado 102353" d="M487.4,124.533a1.545,1.545,0,0,1-1.151-.413,1.6,1.6,0,0,1-.407-1.183v-2.41h-1.008v-1.1h.324a.858.858,0,0,0,.636-.21,1.132,1.132,0,0,0,.2-.763v-.672h1.272v1.646h1.049v1.1h-1.03v2.257c0,.445.2.636.588.636h.458v1.091Z" transform="translate(-459.687 -117.017)"/>
    <path id="Trazado_102354" data-name="Trazado 102354" d="M492.766,118.226a.82.82,0,0,1-.588-.242.8.8,0,0,1-.242-.588.782.782,0,0,1,.252-.578.82.82,0,1,1,1.157,1.164.8.8,0,0,1-.579.244Zm-.725,5.869v-5.086h1.437V124.1Z" transform="translate(-462.272 -116.58)"/>
    <path id="Trazado_102355" data-name="Trazado 102355" d="M499.582,120.37h1.511l-2.174,5.086h-1.269L495.5,120.37h1.507l1.272,3.491Z" transform="translate(-463.569 -117.96)"/>
    <path id="Trazado_102356" data-name="Trazado 102356" d="M507.3,125.537a3.274,3.274,0,0,1-1.443-.311,2.351,2.351,0,0,1-.991-.924,2.709,2.709,0,0,1-.363-1.427,2.544,2.544,0,0,1,.776-1.908,3.237,3.237,0,0,1,4.05,0,2.823,2.823,0,0,1,0,3.885,2.9,2.9,0,0,1-2.028.685Zm0-1.138a1.316,1.316,0,0,0,1.008-.42,1.552,1.552,0,0,0,.381-1.1,1.584,1.584,0,0,0-.381-1.107,1.335,1.335,0,0,0-1.007-.413,1.272,1.272,0,0,0-.986.42,1.8,1.8,0,0,0,0,2.2,1.272,1.272,0,0,0,.973.42Z" transform="translate(-466.846 -117.919)"/>
  </g>
</svg>
