<svg id="color6" xmlns="http://www.w3.org/2000/svg" width="358.322" height="191.025" viewBox="0 0 358.322 191.025">
  <rect id="Rectángulo_5399" data-name="Rectángulo 5399" width="44.787" height="45.779" transform="translate(0 145.247)" fill="#662d91"/>
  <g id="Grupo_57713" data-name="Grupo 57713">
    <rect id="Rectángulo_5400" data-name="Rectángulo 5400" width="179.161" height="145.247" fill="#662d91"/>
    <rect id="Rectángulo_5401" data-name="Rectángulo 5401" width="179.161" height="191.025" transform="translate(179.161)" fill="#f2f2f2"/>
    <g id="Grupo_57705" data-name="Grupo 57705" transform="translate(44.787 145.247)" opacity="0.75">
      <rect id="Rectángulo_5402" data-name="Rectángulo 5402" width="44.787" height="45.779" fill="#662d91"/>
    </g>
    <g id="Grupo_57706" data-name="Grupo 57706" transform="translate(89.58 145.247)" opacity="0.5">
      <rect id="Rectángulo_5403" data-name="Rectángulo 5403" width="44.787" height="45.779" fill="#662d91"/>
    </g>
    <g id="Grupo_57707" data-name="Grupo 57707" transform="translate(134.367 145.247)" opacity="0.25">
      <rect id="Rectángulo_5404" data-name="Rectángulo 5404" width="44.787" height="45.779" fill="#662d91"/>
    </g>
    <g id="Grupo_57708" data-name="Grupo 57708" transform="translate(200.143 34.271)">
      <path id="Trazado_102585" data-name="Trazado 102585" d="M327.474,55.59h3.764l-6.3,17.043h-3.9L314.78,55.59h3.751l4.45,12.92Z" transform="translate(-314.78 -54.515)"/>
      <path id="Trazado_102586" data-name="Trazado 102586" d="M345.581,58.234a1.965,1.965,0,0,1-1.971-1.959A1.863,1.863,0,0,1,344.2,54.9a1.951,1.951,0,0,1,2.76,2.76,1.908,1.908,0,0,1-1.374.573Zm-1.723,13.944V60.052h3.42V72.178Z" transform="translate(-325.28 -54.056)"/>
      <path id="Trazado_102587" data-name="Trazado 102587" d="M359.973,75.555a7.63,7.63,0,0,1-3.434-.744,5.525,5.525,0,0,1-2.351-2.183,6.536,6.536,0,0,1-.852-3.383,5.932,5.932,0,0,1,1.838-4.6,7.7,7.7,0,0,1,9.614,0,6.678,6.678,0,0,1,0,9.221A6.81,6.81,0,0,1,359.973,75.555Zm0-2.7a3.091,3.091,0,0,0,2.365-.966,4.2,4.2,0,0,0,0-5.239,3.1,3.1,0,0,0-2.4-.992,3,3,0,0,0-2.333,1,4.235,4.235,0,0,0,0,5.226,3.014,3.014,0,0,0,2.333.973Z" transform="translate(-328.818 -57.199)"/>
      <path id="Trazado_102588" data-name="Trazado 102588" d="M378.22,72.021V53.9h3.433V72.021Z" transform="translate(-337.883 -53.9)"/>
      <path id="Trazado_102589" data-name="Trazado 102589" d="M400,69.071l-.057.814h-8.966a3.128,3.128,0,0,0,.966,2.219,3.1,3.1,0,0,0,2.136.763,2.975,2.975,0,0,0,1.6-.42,2.594,2.594,0,0,0,1.023-1.208l3.106.464a5.309,5.309,0,0,1-2.123,2.842,6.314,6.314,0,0,1-3.586,1.007,6.575,6.575,0,0,1-4.724-1.666,7,7,0,0,1,.006-9.264,6.358,6.358,0,0,1,4.618-1.691,6.084,6.084,0,0,1,4.349,1.545A6.023,6.023,0,0,1,400,69.071Zm-5.983-3.739a2.687,2.687,0,0,0-2.95,2.333h5.57a2.543,2.543,0,0,0-.833-1.735A2.67,2.67,0,0,0,394.014,65.332Z" transform="translate(-341.304 -57.187)"/>
      <path id="Trazado_102590" data-name="Trazado 102590" d="M414.774,73.212a3.637,3.637,0,0,1-2.734-.986,3.815,3.815,0,0,1-.973-2.8V63.706H408.69V61.1h.763a2.015,2.015,0,0,0,1.511-.509,2.638,2.638,0,0,0,.484-1.806V57.17h3.064v3.917h2.505v2.6h-2.505v5.367c0,1.049.47,1.571,1.405,1.571h1.1v2.582Z" transform="translate(-348.98 -55.091)"/>
      <path id="Trazado_102591" data-name="Trazado 102591" d="M435.283,72.012a11.6,11.6,0,0,0,.292,2.956V75.3H432.4l-.267-1.322a3.917,3.917,0,0,1-1.7,1.17,6.225,6.225,0,0,1-2.194.388,5.855,5.855,0,0,1-1.132-.1,3.743,3.743,0,0,1-1.03-.388,3.022,3.022,0,0,1-.845-.636,2.786,2.786,0,0,1-.566-.96,3.918,3.918,0,0,1-.21-1.316,3.575,3.575,0,0,1,.222-1.316,2.97,2.97,0,0,1,.588-.986,3.472,3.472,0,0,1,.954-.719,7.082,7.082,0,0,1,1.2-.521,13.761,13.761,0,0,1,1.443-.375l1.99-.452a2.205,2.205,0,0,0,.941-.35.763.763,0,0,0,.267-.636,1.272,1.272,0,0,0-.6-1.164,2.778,2.778,0,0,0-1.443-.356,2.076,2.076,0,0,0-2.372,1.847l-3.007-.541a4.037,4.037,0,0,1,1.755-2.766,7,7,0,0,1,3.815-.89q5.086,0,5.086,4.374ZM429.3,73.239a2.735,2.735,0,0,0,2.1-.884,3.707,3.707,0,0,0,.814-2.6l-2.881.84a3.433,3.433,0,0,0-1.208.5,1.018,1.018,0,0,0-.42.871,1.139,1.139,0,0,0,.445.966A1.869,1.869,0,0,0,429.3,73.239Z" transform="translate(-354.719 -57.178)"/>
    </g>
    <g id="Grupo_57709" data-name="Grupo 57709" transform="translate(203.138 95.965)">
      <path id="Trazado_102592" data-name="Trazado 102592" d="M320.4,158.214V151.22h.884v6.994Z" transform="translate(-319.822 -151.036)"/>
      <path id="Trazado_102593" data-name="Trazado 102593" d="M329.891,154.389a1.57,1.57,0,0,1,1.138.42,1.532,1.532,0,0,1,.432,1.164v3.4H330.6v-3.179a1.113,1.113,0,0,0-.267-.808.928.928,0,0,0-.68-.274.979.979,0,0,0-.744.311,1.31,1.31,0,0,0-.286.924v3.022h-.871v-3.141a1.126,1.126,0,0,0-.242-.808.9.9,0,0,0-.693-.286.947.947,0,0,0-.738.318,1.374,1.374,0,0,0-.286.947v2.988H324.9V154.5h.858v.636a1.456,1.456,0,0,1,.559-.534,1.577,1.577,0,0,1,.776-.191,1.64,1.64,0,0,1,.833.21,1.271,1.271,0,0,1,.541.588,1.539,1.539,0,0,1,.588-.588A1.679,1.679,0,0,1,329.891,154.389Z" transform="translate(-321.46 -152.189)"/>
      <path id="Trazado_102594" data-name="Trazado 102594" d="M338.752,159.47a1.634,1.634,0,0,1-1.075-.336,1.2,1.2,0,0,1-.42-1,1.4,1.4,0,0,1,.133-.636,1.081,1.081,0,0,1,.4-.445,2.173,2.173,0,0,1,.573-.28,5.42,5.42,0,0,1,.744-.168l.788-.133c.286-.051.432-.2.432-.452a.846.846,0,0,0-.3-.725,1.221,1.221,0,0,0-.769-.235,1.272,1.272,0,0,0-.769.222.96.96,0,0,0-.363.687l-.776-.159a1.526,1.526,0,0,1,.636-1.049,2.289,2.289,0,0,1,1.335-.35,2.715,2.715,0,0,1,.706.089,1.793,1.793,0,0,1,.588.274,1.272,1.272,0,0,1,.426.521,2.079,2.079,0,0,1,.146.808v2.015a.82.82,0,0,0,.114.509.477.477,0,0,0,.381.133h.084v.636h-.426a.82.82,0,0,1-.929-.636h-.038a1.847,1.847,0,0,1-1.621.712Zm.2-.693A1.3,1.3,0,0,0,340,158.3a1.958,1.958,0,0,0,.395-1.272l-1.272.252a1.7,1.7,0,0,0-.756.274.711.711,0,0,0-.013,1.068.986.986,0,0,0,.6.159Z" transform="translate(-325.959 -152.197)"/>
      <path id="Trazado_102595" data-name="Trazado 102595" d="M349.372,154.482h.833v4.635a2.651,2.651,0,0,1-.636,1.908,2.619,2.619,0,0,1-4.114-.826l.706-.35a1.621,1.621,0,0,0,1.634,1.132,1.393,1.393,0,0,0,1.183-.484,2.015,2.015,0,0,0,.4-1.335v-.9a1.736,1.736,0,0,1-.7.706,2.143,2.143,0,0,1-2.594-.426,2.4,2.4,0,0,1-.636-1.735,2.378,2.378,0,0,1,.636-1.73,2.111,2.111,0,0,1,1.589-.687,2,2,0,0,1,1.018.274,1.763,1.763,0,0,1,.693.725ZM347.82,158.5a1.475,1.475,0,0,0,1.125-.5,1.78,1.78,0,0,0,0-2.39,1.532,1.532,0,0,0-2.251,0,1.7,1.7,0,0,0-.464,1.214,1.716,1.716,0,0,0,.464,1.208,1.506,1.506,0,0,0,1.126.475Z" transform="translate(-328.943 -152.19)"/>
      <path id="Trazado_102596" data-name="Trazado 102596" d="M356.039,152.08a.553.553,0,0,1-.407-.168.566.566,0,0,1-.168-.413.553.553,0,0,1,.168-.407.588.588,0,0,1,.814,0,.553.553,0,0,1,.168.407.566.566,0,0,1-.168.413A.553.553,0,0,1,356.039,152.08Zm-.438,6.027v-4.883h.84v4.883Z" transform="translate(-332.591 -150.928)"/>
      <path id="Trazado_102597" data-name="Trazado 102597" d="M362.1,154.389a1.7,1.7,0,0,1,1.227.445,1.653,1.653,0,0,1,.464,1.272v3.287h-.865V156.3a1.144,1.144,0,0,0-.3-.877,1.049,1.049,0,0,0-.763-.286,1.2,1.2,0,0,0-.871.336,1.36,1.36,0,0,0-.336,1v2.918h-.865v-4.883h.865v.636A1.621,1.621,0,0,1,362.1,154.389Z" transform="translate(-334.166 -152.189)"/>
      <path id="Trazado_102598" data-name="Trazado 102598" d="M369.6,159.47a1.647,1.647,0,0,1-1.075-.336,1.2,1.2,0,0,1-.42-1,1.322,1.322,0,0,1,.14-.636,1.061,1.061,0,0,1,.395-.445,2.391,2.391,0,0,1,.573-.28,5.424,5.424,0,0,1,.744-.168l.788-.133c.292-.051.432-.2.432-.452a.845.845,0,0,0-.306-.725,1.208,1.208,0,0,0-.769-.235,1.31,1.31,0,0,0-.769.223.96.96,0,0,0-.363.687l-.776-.159a1.511,1.511,0,0,1,.636-1.049,2.251,2.251,0,0,1,1.329-.35,2.676,2.676,0,0,1,.706.089,1.794,1.794,0,0,1,.588.274,1.2,1.2,0,0,1,.426.521,2.08,2.08,0,0,1,.146.808v2.015a.819.819,0,0,0,.114.509.483.483,0,0,0,.388.133h.076v.636h-.426a.808.808,0,0,1-.923-.636h-.045a1.847,1.847,0,0,1-1.61.707Zm.2-.693a1.3,1.3,0,0,0,1.049-.477,1.908,1.908,0,0,0,.395-1.272l-1.272.252a1.736,1.736,0,0,0-.756.274.705.705,0,0,0-.007,1.068.955.955,0,0,0,.589.155Z" transform="translate(-337.194 -152.197)"/>
      <path id="Trazado_102599" data-name="Trazado 102599" d="M378.155,158.5a1.272,1.272,0,0,1-.954-.35,1.335,1.335,0,0,1-.343-.973V154.3h-1v-.687h.363a.7.7,0,0,0,.541-.168.82.82,0,0,0,.159-.573V152h.8v1.628h1.119v.687h-1.119v2.771a.719.719,0,0,0,.185.534.636.636,0,0,0,.49.191h.445v.687Z" transform="translate(-340.019 -151.32)"/>
      <path id="Trazado_102600" data-name="Trazado 102600" d="M382.859,152.08a.553.553,0,0,1-.407-.168.566.566,0,0,1-.168-.413.553.553,0,0,1,.168-.407.588.588,0,0,1,.814,0,.553.553,0,0,1,.168.407.566.566,0,0,1-.168.413.553.553,0,0,1-.406.168Zm-.439,6.027v-4.883h.865v4.883Z" transform="translate(-342.358 -150.928)"/>
      <path id="Trazado_102601" data-name="Trazado 102601" d="M389.241,154.54h.924l-1.99,4.883h-.725l-1.977-4.883h.909l1.427,3.885Z" transform="translate(-343.519 -152.245)"/>
      <path id="Trazado_102602" data-name="Trazado 102602" d="M395.962,159.463a2.544,2.544,0,0,1-1.272-.3,2.233,2.233,0,0,1-.877-.884,2.728,2.728,0,0,1-.324-1.348,2.543,2.543,0,0,1,.693-1.847,2.6,2.6,0,0,1,3.535,0,2.8,2.8,0,0,1,0,3.687,2.4,2.4,0,0,1-1.755.7Zm0-.712a1.511,1.511,0,0,0,1.157-.5,1.908,1.908,0,0,0,.458-1.322,1.863,1.863,0,0,0-.458-1.316,1.5,1.5,0,0,0-1.157-.5,1.475,1.475,0,0,0-1.144.5,1.862,1.862,0,0,0-.452,1.316,1.908,1.908,0,0,0,.452,1.322,1.5,1.5,0,0,0,1.138.5Z" transform="translate(-346.438 -152.19)"/>
      <path id="Trazado_102603" data-name="Trazado 102603" d="M324.145,171.234h-2.836v2.289h2.5v.8h-2.5v2.283h2.836v.808H320.4V170.42h3.745Z" transform="translate(-319.822 -158.028)"/>
      <path id="Trazado_102604" data-name="Trazado 102604" d="M329.939,178.662a2.308,2.308,0,0,1-1.3-.363,1.468,1.468,0,0,1-.636-1.008l.751-.216a1.08,1.08,0,0,0,.4.68,1.317,1.317,0,0,0,.8.242,1.792,1.792,0,0,0,.47-.064.814.814,0,0,0,.363-.242.693.693,0,0,0,.146-.445.685.685,0,0,0-.044-.2.745.745,0,0,0-.076-.159.407.407,0,0,0-.14-.133,1.463,1.463,0,0,0-.168-.108,1.326,1.326,0,0,0-.216-.089l-.242-.084-.274-.076-.28-.084c-.2-.064-.375-.121-.509-.178a2.325,2.325,0,0,1-.413-.235.947.947,0,0,1-.318-.388,1.311,1.311,0,0,1-.108-.547,1.272,1.272,0,0,1,.242-.776,1.323,1.323,0,0,1,.636-.464,2.443,2.443,0,0,1,.865-.14,2.124,2.124,0,0,1,1.189.318,1.361,1.361,0,0,1,.6.954l-.706.178a.934.934,0,0,0-.375-.636,1.157,1.157,0,0,0-.7-.21,1.215,1.215,0,0,0-.636.168.579.579,0,0,0-.274.528.539.539,0,0,0,.07.267,1.049,1.049,0,0,0,.146.191.916.916,0,0,0,.274.153l.286.1.356.089h.076c.191.044.35.089.47.127a3.409,3.409,0,0,1,.42.178,1.545,1.545,0,0,1,.381.267,1.221,1.221,0,0,1,.235.381,1.271,1.271,0,0,1,.1.521,1.469,1.469,0,0,1-.146.636,1.144,1.144,0,0,1-.4.452,1.908,1.908,0,0,1-.566.242,2.609,2.609,0,0,1-.744.168Z" transform="translate(-322.589 -159.181)"/>
      <path id="Trazado_102605" data-name="Trazado 102605" d="M338.582,173.59a2.2,2.2,0,0,1,.884.185,2.136,2.136,0,0,1,.725.5,2.427,2.427,0,0,1,.49.808,3,3,0,0,1,.185,1.055,2.6,2.6,0,0,1-.636,1.847,2.143,2.143,0,0,1-1.621.7,1.964,1.964,0,0,1-1.023-.28,1.831,1.831,0,0,1-.693-.751v3.383H336v-7.351h.833v.954a1.786,1.786,0,0,1,.693-.763A1.939,1.939,0,0,1,338.582,173.59Zm-.168,4.336a1.468,1.468,0,0,0,1.132-.489,2.086,2.086,0,0,0,0-2.607,1.468,1.468,0,0,0-1.132-.489,1.5,1.5,0,0,0-1.144.509,1.99,1.99,0,0,0,0,2.543,1.481,1.481,0,0,0,1.14.534Z" transform="translate(-325.503 -159.182)"/>
      <path id="Trazado_102606" data-name="Trazado 102606" d="M346.135,171.278a.588.588,0,0,1-.588-.588.553.553,0,0,1,.168-.407.588.588,0,0,1,.413-.168.566.566,0,0,1,.4.168.553.553,0,0,1,.168.407.566.566,0,0,1-.168.413A.547.547,0,0,1,346.135,171.278Zm-.438,6.027v-4.883h.865v4.883Z" transform="translate(-328.981 -157.918)"/>
      <path id="Trazado_102607" data-name="Trazado 102607" d="M350.746,174.58a1.488,1.488,0,0,1,.636-.636,1.831,1.831,0,0,1,.941-.252v.808a1.621,1.621,0,0,0-1.138.363,1.511,1.511,0,0,0-.388,1.157v2.6h-.856V173.74h.84Z" transform="translate(-330.579 -159.22)"/>
      <path id="Trazado_102608" data-name="Trazado 102608" d="M355.579,171.272a.553.553,0,0,1-.407-.168.566.566,0,0,1-.168-.426.553.553,0,0,1,.168-.407.588.588,0,0,1,.814,0,.553.553,0,0,1,.168.407.566.566,0,0,1-.168.413A.553.553,0,0,1,355.579,171.272Zm-.439,6.027v-4.883H356V177.3Z" transform="translate(-332.423 -157.913)"/>
      <path id="Trazado_102609" data-name="Trazado 102609" d="M360.471,177.691a1.272,1.272,0,0,1-.954-.35,1.316,1.316,0,0,1-.35-.973v-2.874h-1v-.687h.369a.687.687,0,0,0,.534-.168.82.82,0,0,0,.159-.573v-.887h.8v1.628h1.119v.687h-1.119v2.785a.744.744,0,0,0,.185.534.636.636,0,0,0,.49.191h.445v.687Z" transform="translate(-333.576 -158.305)"/>
      <path id="Trazado_102610" data-name="Trazado 102610" d="M367.832,173.733h.89v4.883H367.9v-.636a1.564,1.564,0,0,1-.6.547,1.863,1.863,0,0,1-.852.191,1.71,1.71,0,0,1-1.233-.439,1.666,1.666,0,0,1-.458-1.272V173.72h.8v3.1a1.189,1.189,0,0,0,.3.877,1.075,1.075,0,0,0,.769.286,1.169,1.169,0,0,0,.865-.336,1.373,1.373,0,0,0,.343-1Z" transform="translate(-335.971 -159.23)"/>
      <path id="Trazado_102611" data-name="Trazado 102611" d="M374.615,178.675a1.628,1.628,0,0,1-1.068-.336,1.2,1.2,0,0,1-.42-1,1.4,1.4,0,0,1,.134-.636,1.081,1.081,0,0,1,.4-.445,2.176,2.176,0,0,1,.573-.28,5.01,5.01,0,0,1,.744-.168l.788-.133c.286-.051.432-.2.432-.452a.845.845,0,0,0-.306-.725,1.392,1.392,0,0,0-1.539,0,.934.934,0,0,0-.363.68l-.776-.159a1.511,1.511,0,0,1,.636-1.049,2.29,2.29,0,0,1,1.335-.35,2.745,2.745,0,0,1,.706.089,1.908,1.908,0,0,1,.588.274,1.233,1.233,0,0,1,.42.521,1.966,1.966,0,0,1,.153.808v2.015a.819.819,0,0,0,.114.509.464.464,0,0,0,.381.133h.084v.636H377.2a.814.814,0,0,1-.924-.636h-.057A1.847,1.847,0,0,1,374.615,178.675Zm.2-.693a1.271,1.271,0,0,0,1.043-.47,1.952,1.952,0,0,0,.4-1.272l-1.272.252a1.673,1.673,0,0,0-.756.274.711.711,0,0,0-.013,1.068.986.986,0,0,0,.6.148Z" transform="translate(-339.023 -159.193)"/>
      <path id="Trazado_102612" data-name="Trazado 102612" d="M382.08,177.05v-7.63h.871v7.63Z" transform="translate(-342.284 -157.664)"/>
      <path id="Trazado_102613" data-name="Trazado 102613" d="M323.114,196.652a3.771,3.771,0,0,1-1.379-.252,3.572,3.572,0,0,1-1.107-.706,3.177,3.177,0,0,1-.731-1.138,4.074,4.074,0,0,1-.267-1.507,4.03,4.03,0,0,1,.267-1.494,3.179,3.179,0,0,1,1.838-1.847,3.771,3.771,0,0,1,1.379-.252,3.526,3.526,0,0,1,1.856.5,3.065,3.065,0,0,1,1.253,1.367l-.82.336a2.359,2.359,0,0,0-.916-1,2.619,2.619,0,0,0-1.354-.349,2.842,2.842,0,0,0-1.023.185,2.422,2.422,0,0,0-.82.528,2.352,2.352,0,0,0-.553.865,3.179,3.179,0,0,0-.2,1.157,3.249,3.249,0,0,0,.2,1.17,2.351,2.351,0,0,0,.553.865,2.421,2.421,0,0,0,.82.528,2.715,2.715,0,0,0,1.023.185,2.619,2.619,0,0,0,1.354-.35,2.308,2.308,0,0,0,.916-.992l.82.336a3.052,3.052,0,0,1-1.272,1.367A3.593,3.593,0,0,1,323.114,196.652Z" transform="translate(-319.541 -164.963)"/>
      <path id="Trazado_102614" data-name="Trazado 102614" d="M333.826,197.863a2.543,2.543,0,0,1-1.272-.306,2.149,2.149,0,0,1-.884-.884,2.727,2.727,0,0,1-.324-1.348,2.486,2.486,0,0,1,.693-1.847,2.6,2.6,0,0,1,3.535,0,2.81,2.81,0,0,1,0,3.687,2.372,2.372,0,0,1-1.748.7Zm0-.712a1.526,1.526,0,0,0,1.157-.5,1.907,1.907,0,0,0,.458-1.322,1.862,1.862,0,0,0-.458-1.316,1.5,1.5,0,0,0-1.157-.5,1.469,1.469,0,0,0-1.144.5,1.863,1.863,0,0,0-.458,1.316,1.908,1.908,0,0,0,.458,1.322,1.488,1.488,0,0,0,1.138.5Z" transform="translate(-323.807 -166.174)"/>
      <path id="Trazado_102615" data-name="Trazado 102615" d="M346.221,192.789a1.564,1.564,0,0,1,1.138.42,1.511,1.511,0,0,1,.432,1.164v3.4h-.858v-3.179a1.112,1.112,0,0,0-.267-.808.928.928,0,0,0-.68-.274.96.96,0,0,0-.744.311,1.31,1.31,0,0,0-.286.924v3.022h-.872V194.62a1.157,1.157,0,0,0-.274-.827.909.909,0,0,0-.693-.286.96.96,0,0,0-.744.318,1.373,1.373,0,0,0-.286.947v2.988h-.858v-4.878h.858v.636a1.551,1.551,0,0,1,.559-.534,1.577,1.577,0,0,1,.776-.191,1.646,1.646,0,0,1,.84.21,1.272,1.272,0,0,1,.541.588,1.494,1.494,0,0,1,.588-.588A1.653,1.653,0,0,1,346.221,192.789Z" transform="translate(-327.407 -166.174)"/>
      <path id="Trazado_102616" data-name="Trazado 102616" d="M356.76,192.789a2.283,2.283,0,0,1,.884.176,2.245,2.245,0,0,1,.725.5,2.268,2.268,0,0,1,.489.808,2.994,2.994,0,0,1,.185,1.055,2.543,2.543,0,0,1-.636,1.838,2.13,2.13,0,0,1-1.621.706,1.906,1.906,0,0,1-1.018-.28,1.847,1.847,0,0,1-.7-.751v3.383h-.859v-7.347h.826v.947a1.787,1.787,0,0,1,.7-.756,1.908,1.908,0,0,1,1.023-.286Zm-.168,4.336a1.488,1.488,0,0,0,1.132-.489,2.086,2.086,0,0,0,0-2.6,1.488,1.488,0,0,0-1.107-.47,1.511,1.511,0,0,0-1.151.509,2.009,2.009,0,0,0,0,2.543,1.511,1.511,0,0,0,1.151.515Z" transform="translate(-332.134 -166.174)"/>
      <path id="Trazado_102617" data-name="Trazado 102617" d="M364.863,197.874a1.672,1.672,0,0,1-1.075-.336,1.2,1.2,0,0,1-.42-1,1.45,1.45,0,0,1,.133-.636,1.106,1.106,0,0,1,.4-.438,2.175,2.175,0,0,1,.573-.28,6.457,6.457,0,0,1,.744-.178l.788-.127c.286-.051.432-.2.432-.452a.845.845,0,0,0-.306-.725,1.227,1.227,0,0,0-.776-.235,1.272,1.272,0,0,0-.763.223.959.959,0,0,0-.363.687l-.776-.168a1.527,1.527,0,0,1,.635-1.043,2.289,2.289,0,0,1,1.335-.349,2.745,2.745,0,0,1,.706.089,1.793,1.793,0,0,1,.588.274,1.19,1.19,0,0,1,.42.521,1.964,1.964,0,0,1,.153.808v2.015a.82.82,0,0,0,.114.509.477.477,0,0,0,.381.133h.084v.636h-.426c-.528,0-.84-.216-.929-.636h-.038a1.863,1.863,0,0,1-1.621.706Zm.2-.693a1.3,1.3,0,0,0,1.049-.477,1.959,1.959,0,0,0,.395-1.272l-1.272.252a1.7,1.7,0,0,0-.756.274.712.712,0,0,0,0,1.068.986.986,0,0,0,.566.159Z" transform="translate(-335.468 -166.184)"/>
      <path id="Trazado_102618" data-name="Trazado 102618" d="M373.627,197.87a2.333,2.333,0,0,1-1.316-.35,1.463,1.463,0,0,1-.636-1.007l.751-.216a1.03,1.03,0,0,0,.4.68,1.272,1.272,0,0,0,.8.242,1.83,1.83,0,0,0,.47-.064.763.763,0,0,0,.356-.242.636.636,0,0,0,.146-.445.971.971,0,0,0-.038-.2.928.928,0,0,0-.084-.159.405.405,0,0,0-.14-.133l-.168-.108-.223-.089-.235-.084-.274-.076-.286-.084a4.8,4.8,0,0,1-.5-.178,2.123,2.123,0,0,1-.413-.235.908.908,0,0,1-.324-.388,1.31,1.31,0,0,1-.1-.547,1.272,1.272,0,0,1,.235-.782,1.347,1.347,0,0,1,.635-.458,2.479,2.479,0,0,1,.872-.14,2.136,2.136,0,0,1,1.189.318,1.335,1.335,0,0,1,.588.954l-.706.178a.928.928,0,0,0-.369-.636,1.189,1.189,0,0,0-.706-.21,1.215,1.215,0,0,0-.636.168.588.588,0,0,0-.274.528.484.484,0,0,0,.076.267.684.684,0,0,0,.146.191.827.827,0,0,0,.267.146,2.279,2.279,0,0,0,.286.108l.356.089h.076l.47.133a3.405,3.405,0,0,1,.42.178,1.337,1.337,0,0,1,.381.267,1.273,1.273,0,0,1,.242.375,1.421,1.421,0,0,1,.095.528,1.386,1.386,0,0,1-.146.636,1.092,1.092,0,0,1-.4.445,1.686,1.686,0,0,1-.566.252,2.608,2.608,0,0,1-.715.151Z" transform="translate(-338.496 -166.181)"/>
      <path id="Trazado_102619" data-name="Trazado 102619" d="M380.065,190.478a.588.588,0,0,1-.588-.588.554.554,0,0,1,.168-.407.588.588,0,0,1,.413-.168.566.566,0,0,1,.4.168.553.553,0,0,1,.168.407.566.566,0,0,1-.168.413.548.548,0,0,1-.4.168Zm-.439,6.027v-4.883h.865v4.883Z" transform="translate(-341.337 -164.91)"/>
      <path id="Trazado_102620" data-name="Trazado 102620" d="M386.446,192.94h.916l-1.984,4.883h-.731l-1.977-4.883h.916l1.427,3.885Z" transform="translate(-342.499 -166.23)"/>
      <path id="Trazado_102621" data-name="Trazado 102621" d="M393.162,197.864a2.543,2.543,0,0,1-1.272-.3,2.175,2.175,0,0,1-.877-.884,2.728,2.728,0,0,1-.324-1.348,2.486,2.486,0,0,1,.693-1.847,2.594,2.594,0,0,1,3.526,0,2.8,2.8,0,0,1,0,3.687A2.384,2.384,0,0,1,393.162,197.864Zm0-.712a1.511,1.511,0,0,0,1.151-.5,1.908,1.908,0,0,0,.458-1.322,1.863,1.863,0,0,0-.458-1.316,1.57,1.57,0,0,0-2.3,0,2.154,2.154,0,0,0,0,2.639,1.5,1.5,0,0,0,1.15.5Z" transform="translate(-345.418 -166.175)"/>
      <path id="Trazado_102622" data-name="Trazado 102622" d="M322.224,215.907a3.179,3.179,0,0,1-1.824-.5,2.079,2.079,0,0,1-.909-1.354l.9-.216a1.45,1.45,0,0,0,.636.954,2.105,2.105,0,0,0,1.233.349,2.17,2.17,0,0,0,.464-.044,1.907,1.907,0,0,0,.42-.127,1.347,1.347,0,0,0,.343-.229.953.953,0,0,0,.229-.343,1.1,1.1,0,0,0,.076-.464.924.924,0,0,0-.057-.331,1.109,1.109,0,0,0-.14-.261.851.851,0,0,0-.235-.21,2.428,2.428,0,0,0-.286-.168,2.641,2.641,0,0,0-.349-.14l-.369-.114-.4-.114h-.076l-.47-.127-.432-.153a2.336,2.336,0,0,1-.413-.191,3.145,3.145,0,0,1-.343-.242,1.163,1.163,0,0,1-.28-.311,1.5,1.5,0,0,1-.168-.395,1.952,1.952,0,0,1,.261-1.571,1.908,1.908,0,0,1,.84-.636,3.026,3.026,0,0,1,1.157-.21,3.18,3.18,0,0,1,1.679.432,1.908,1.908,0,0,1,.89,1.272l-.865.216a1.272,1.272,0,0,0-.578-.858,2.022,2.022,0,0,0-1.091-.292,2.047,2.047,0,0,0-.534.07,1.443,1.443,0,0,0-.464.2.929.929,0,0,0-.336.363,1.145,1.145,0,0,0-.127.534.924.924,0,0,0,.051.3.833.833,0,0,0,.127.235,1.045,1.045,0,0,0,.21.191l.261.159a3.331,3.331,0,0,0,.324.121l.349.114.381.1a7.983,7.983,0,0,1,1.348.445,1.7,1.7,0,0,1,1.036,1.272,2.308,2.308,0,0,1,0,.3,1.945,1.945,0,0,1-.2.9,1.66,1.66,0,0,1-.553.636,2.909,2.909,0,0,1-.782.349,3.707,3.707,0,0,1-.924.084Z" transform="translate(-319.49 -171.991)"/>
      <path id="Trazado_102623" data-name="Trazado 102623" d="M334.036,214.453v.235h-3.815a1.71,1.71,0,0,0,.464,1.272,1.526,1.526,0,0,0,1.112.439,1.481,1.481,0,0,0,.808-.235,1.511,1.511,0,0,0,.559-.636l.776.168a2.245,2.245,0,0,1-.833,1.049,2.283,2.283,0,0,1-1.272.381,2.372,2.372,0,0,1-1.763-.68,2.906,2.906,0,0,1,0-3.713,2.327,2.327,0,0,1,1.73-.68,2.2,2.2,0,0,1,1.641.636,2.466,2.466,0,0,1,.594,1.764Zm-2.257-1.78a1.5,1.5,0,0,0-1.018.35,1.583,1.583,0,0,0-.516,1.007h2.925a1.427,1.427,0,0,0-.426-1.007,1.361,1.361,0,0,0-.966-.369Z" transform="translate(-323.1 -173.189)"/>
      <path id="Trazado_102624" data-name="Trazado 102624" d="M341.111,212a1.717,1.717,0,0,1,1.233.445,1.653,1.653,0,0,1,.458,1.272V217h-.858v-3.1a1.164,1.164,0,0,0-.3-.871,1.049,1.049,0,0,0-.763-.286,1.182,1.182,0,0,0-.871.336,1.392,1.392,0,0,0-.343,1V217h-.858v-4.883h.858v.636a1.628,1.628,0,0,1,1.443-.755Z" transform="translate(-326.526 -173.17)"/>
      <path id="Trazado_102625" data-name="Trazado 102625" d="M349.012,217.085a2.308,2.308,0,0,1-1.316-.35,1.469,1.469,0,0,1-.636-1.007l.751-.216a1.03,1.03,0,0,0,.4.68,1.315,1.315,0,0,0,.8.242,1.793,1.793,0,0,0,.47-.064.815.815,0,0,0,.363-.242.636.636,0,0,0,.14-.445.528.528,0,0,0-.038-.2c0-.057-.051-.114-.076-.159a.407.407,0,0,0-.14-.134,1.219,1.219,0,0,0-.395-.2l-.235-.084-.274-.076-.28-.084a4.985,4.985,0,0,1-.509-.178,2.331,2.331,0,0,1-.413-.235.947.947,0,0,1-.318-.388,1.31,1.31,0,0,1-.108-.547,1.272,1.272,0,0,1,.242-.782,1.347,1.347,0,0,1,.636-.458,2.439,2.439,0,0,1,.852-.168,2.136,2.136,0,0,1,1.189.318,1.361,1.361,0,0,1,.6.954l-.706.178a.934.934,0,0,0-.375-.636,1.17,1.17,0,0,0-.706-.178,1.2,1.2,0,0,0-.636.168.578.578,0,0,0-.274.528.54.54,0,0,0,.07.267.636.636,0,0,0,.413.336,2.686,2.686,0,0,0,.292.108l.356.089h.076l.47.133a3.881,3.881,0,0,1,.42.178,1.543,1.543,0,0,1,.381.267,1.334,1.334,0,0,1,.336.9,1.466,1.466,0,0,1-.146.636,1.183,1.183,0,0,1-.4.445,1.782,1.782,0,0,1-.573.252A2.6,2.6,0,0,1,349.012,217.085Z" transform="translate(-329.531 -173.169)"/>
      <path id="Trazado_102626" data-name="Trazado 102626" d="M355.439,209.679a.553.553,0,0,1-.407-.168.566.566,0,0,1-.168-.413.553.553,0,0,1,.168-.407.572.572,0,0,1,.407-.168.588.588,0,0,1,.407.168.553.553,0,0,1,.168.407.588.588,0,0,1-.579.588ZM355,215.706v-4.883h.865v4.883Z" transform="translate(-332.372 -171.904)"/>
      <path id="Trazado_102627" data-name="Trazado 102627" d="M360.321,216.091a1.272,1.272,0,0,1-.954-.35,1.316,1.316,0,0,1-.349-.973v-2.874H358v-.687h.369a.686.686,0,0,0,.534-.168.821.821,0,0,0,.159-.573v-.887h.845v1.628h1.116v.687H359.9v2.785a.744.744,0,0,0,.185.534.636.636,0,0,0,.49.191h.445v.687Z" transform="translate(-333.515 -172.29)"/>
      <path id="Trazado_102628" data-name="Trazado 102628" d="M365.029,209.68a.553.553,0,0,1-.407-.168.566.566,0,0,1-.168-.413.553.553,0,0,1,.168-.407.588.588,0,0,1,.814,0,.553.553,0,0,1,.168.407.566.566,0,0,1-.168.413.553.553,0,0,1-.406.168Zm-.432,6.027v-4.883h.84v4.883Z" transform="translate(-335.864 -171.905)"/>
      <path id="Trazado_102629" data-name="Trazado 102629" d="M371.41,212.14h.9l-1.984,4.883H369.6l-1.977-4.883h.916l1.427,3.885Z" transform="translate(-337.018 -173.222)"/>
      <path id="Trazado_102630" data-name="Trazado 102630" d="M378.126,217.093a2.544,2.544,0,0,1-1.272-.3,2.175,2.175,0,0,1-.877-.884,2.665,2.665,0,0,1-.331-1.348,2.543,2.543,0,0,1,.693-1.847,2.6,2.6,0,0,1,3.535,0,2.8,2.8,0,0,1,0,3.687,2.385,2.385,0,0,1-1.749.7Zm0-.712a1.511,1.511,0,0,0,1.157-.5,1.908,1.908,0,0,0,.458-1.322,1.864,1.864,0,0,0-.458-1.316,1.494,1.494,0,0,0-1.157-.5,1.475,1.475,0,0,0-1.144.5,2.1,2.1,0,0,0-.025,2.632,1.5,1.5,0,0,0,1.164.489Z" transform="translate(-339.941 -173.178)"/>
      <path id="Trazado_102631" data-name="Trazado 102631" d="M327.63,234.994h-.865l-.47-5.773-2.212,5.773h-.534l-2.219-5.723-.47,5.723H320l.534-6.994h1.17l2.111,5.468,2.123-5.457h1.183Z" transform="translate(-319.676 -178.997)"/>
      <path id="Trazado_102632" data-name="Trazado 102632" d="M335.069,228.88a.553.553,0,0,1-.407-.168.566.566,0,0,1-.168-.413.553.553,0,0,1,.168-.407.588.588,0,0,1,.814,0,.553.553,0,0,1,.168.407.566.566,0,0,1-.168.413.553.553,0,0,1-.406.168Zm-.432,6.027v-4.883h.865v4.87Z" transform="translate(-324.953 -178.898)"/>
      <path id="Trazado_102633" data-name="Trazado 102633" d="M340.127,236.27a2.333,2.333,0,0,1-1.316-.35,1.463,1.463,0,0,1-.636-1.008l.751-.216a1.03,1.03,0,0,0,.4.68,1.271,1.271,0,0,0,.8.242,1.83,1.83,0,0,0,.47-.064.762.762,0,0,0,.356-.242.636.636,0,0,0,.146-.445.972.972,0,0,0-.038-.2.747.747,0,0,0-.084-.159.408.408,0,0,0-.14-.133l-.168-.108-.223-.089-.235-.084-.274-.076-.286-.084a4.815,4.815,0,0,1-.5-.178,2.126,2.126,0,0,1-.413-.235.909.909,0,0,1-.324-.388,1.308,1.308,0,0,1-.1-.547,1.271,1.271,0,0,1,.235-.776,1.322,1.322,0,0,1,.635-.464,2.481,2.481,0,0,1,.872-.14,2.137,2.137,0,0,1,1.189.318,1.335,1.335,0,0,1,.588.954l-.706.178a.928.928,0,0,0-.369-.636,1.189,1.189,0,0,0-.706-.21,1.214,1.214,0,0,0-.636.168.588.588,0,0,0-.274.528.485.485,0,0,0,.076.267.682.682,0,0,0,.146.191.827.827,0,0,0,.267.146,2.3,2.3,0,0,0,.286.108l.356.089h.076l.47.133a3.4,3.4,0,0,1,.42.178,1.334,1.334,0,0,1,.381.267,1.271,1.271,0,0,1,.242.375,1.416,1.416,0,0,1,.1.528,1.384,1.384,0,0,1-.146.636,1.144,1.144,0,0,1-.4.452,1.814,1.814,0,0,1-.566.242A2.609,2.609,0,0,1,340.127,236.27Z" transform="translate(-326.296 -180.165)"/>
      <path id="Trazado_102634" data-name="Trazado 102634" d="M347.327,235.271a1.272,1.272,0,0,1-.954-.35,1.343,1.343,0,0,1-.35-.973v-2.874H345v-.685h.369a.705.705,0,0,0,.541-.168.852.852,0,0,0,.159-.573v-.888h.84v1.629h1.125v.687h-1.125v2.785a.725.725,0,0,0,.191.534.637.637,0,0,0,.49.191h.445v.687Z" transform="translate(-328.78 -179.275)"/>
      <path id="Trazado_102635" data-name="Trazado 102635" d="M355.632,233.611v.235h-3.815a1.71,1.71,0,0,0,.47,1.272,1.511,1.511,0,0,0,1.112.439,1.475,1.475,0,0,0,1.361-.884l.776.168a2.168,2.168,0,0,1-.833,1.049,2.282,2.282,0,0,1-1.272.381,2.359,2.359,0,0,1-1.819-.687,2.892,2.892,0,0,1,0-3.713,2.34,2.34,0,0,1,1.729-.68,2.183,2.183,0,0,1,1.641.636,2.454,2.454,0,0,1,.649,1.784Zm-2.267-1.78a1.481,1.481,0,0,0-1.008.35,1.582,1.582,0,0,0-.516,1.008h2.95a1.456,1.456,0,0,0-.426-1.007,1.373,1.373,0,0,0-1-.331Z" transform="translate(-330.943 -180.159)"/>
      <path id="Trazado_102636" data-name="Trazado 102636" d="M361.283,232.18a1.512,1.512,0,0,1,.636-.636,1.806,1.806,0,0,1,.934-.252v.808a1.6,1.6,0,0,0-1.132.363,1.511,1.511,0,0,0-.388,1.157V236.2h-.865v-4.883h.84Z" transform="translate(-334.414 -180.197)"/>
      <path id="Trazado_102637" data-name="Trazado 102637" d="M366.125,228.878a.588.588,0,0,1-.588-.588.553.553,0,0,1,.168-.407.588.588,0,0,1,.413-.168.573.573,0,0,1,.573.573.566.566,0,0,1-.168.413.541.541,0,0,1-.4.168Zm-.439,6.027v-4.883h.865v4.87Z" transform="translate(-336.26 -178.895)"/>
      <path id="Trazado_102638" data-name="Trazado 102638" d="M371.688,236.263a2.543,2.543,0,0,1-1.272-.3,2.149,2.149,0,0,1-.884-.884,2.727,2.727,0,0,1-.324-1.348,2.492,2.492,0,0,1,.693-1.847,2.4,2.4,0,0,1,1.763-.693,2.422,2.422,0,0,1,1.774.693,2.543,2.543,0,0,1,.687,1.847,2.486,2.486,0,0,1-.693,1.847A2.378,2.378,0,0,1,371.688,236.263Zm0-.712a1.5,1.5,0,0,0,1.151-.5,1.907,1.907,0,0,0,.464-1.322,1.869,1.869,0,0,0-.464-1.316,1.481,1.481,0,0,0-1.151-.5,1.456,1.456,0,0,0-1.144.5,1.863,1.863,0,0,0-.458,1.316,1.907,1.907,0,0,0,.458,1.322A1.481,1.481,0,0,0,371.688,235.551Z" transform="translate(-337.596 -180.158)"/>
      <path id="Trazado_102639" data-name="Trazado 102639" d="M380.412,236.27a2.308,2.308,0,0,1-1.316-.35,1.468,1.468,0,0,1-.636-1.007l.751-.216a1.03,1.03,0,0,0,.4.68,1.272,1.272,0,0,0,.8.242,1.791,1.791,0,0,0,.47-.064.814.814,0,0,0,.363-.242.636.636,0,0,0,.14-.445.527.527,0,0,0-.038-.2.742.742,0,0,0-.084-.159.382.382,0,0,0-.133-.134,1.219,1.219,0,0,0-.394-.2l-.235-.084-.274-.076-.28-.084a4.989,4.989,0,0,1-.509-.178,2.125,2.125,0,0,1-.413-.235.948.948,0,0,1-.318-.388,1.215,1.215,0,0,1-.108-.547,1.272,1.272,0,0,1,.235-.776,1.335,1.335,0,0,1,.636-.464,2.442,2.442,0,0,1,.865-.14,2.136,2.136,0,0,1,1.189.318,1.335,1.335,0,0,1,.588.954l-.7.178a.935.935,0,0,0-.375-.636,1.278,1.278,0,0,0-1.335-.042.578.578,0,0,0-.274.528.483.483,0,0,0,.07.267.636.636,0,0,0,.413.336,2.705,2.705,0,0,0,.292.108l.356.089h.076l.464.133a3.9,3.9,0,0,1,.426.178,1.545,1.545,0,0,1,.381.267,1.273,1.273,0,0,1,.235.375,1.418,1.418,0,0,1,.1.528,1.469,1.469,0,0,1-.146.636,1.272,1.272,0,0,1-.4.452,1.907,1.907,0,0,1-.573.242,2.59,2.59,0,0,1-.712.155Z" transform="translate(-340.965 -180.165)"/>
      <path id="Trazado_102640" data-name="Trazado 102640" d="M388.3,236.263a2.543,2.543,0,0,1-1.272-.306,2.149,2.149,0,0,1-.884-.884,2.727,2.727,0,0,1-.324-1.348,2.493,2.493,0,0,1,.693-1.847,2.6,2.6,0,0,1,3.536,0,2.544,2.544,0,0,1,.687,1.847,2.486,2.486,0,0,1-.694,1.847A2.372,2.372,0,0,1,388.3,236.263Zm0-.712a1.5,1.5,0,0,0,1.151-.5,1.863,1.863,0,0,0,.464-1.322,1.837,1.837,0,0,0-.464-1.316,1.481,1.481,0,0,0-1.151-.5,1.456,1.456,0,0,0-1.144.5,1.863,1.863,0,0,0-.458,1.316,1.908,1.908,0,0,0,.458,1.322,1.482,1.482,0,0,0,1.138.5Z" transform="translate(-343.645 -180.158)"/>
    </g>
    <g id="Grupo_57710" data-name="Grupo 57710" transform="translate(203.545 74.12)">
      <path id="Trazado_102641" data-name="Trazado 102641" d="M323.118,117.108a2.168,2.168,0,0,1,1.653.636,2.351,2.351,0,0,1,.636,1.653,2.233,2.233,0,0,1-.636,1.641,2.183,2.183,0,0,1-1.653.636h-1.5v2.543H320.13v-7.109Zm-.252,3.358a1.068,1.068,0,0,0,.82-.28,1.049,1.049,0,0,0,.274-.776,1.068,1.068,0,0,0-.274-.769,1.091,1.091,0,0,0-.82-.286h-1.272v2.111Z" transform="translate(-320.13 -116.768)"/>
      <path id="Trazado_102642" data-name="Trazado 102642" d="M331.947,125.54a3.274,3.274,0,0,1-1.443-.311,2.351,2.351,0,0,1-.992-.924,2.707,2.707,0,0,1-.363-1.427,2.543,2.543,0,0,1,.776-1.908,3.256,3.256,0,0,1,4.05,0,2.823,2.823,0,0,1,0,3.885,2.874,2.874,0,0,1-2.028.685Zm0-1.138a1.316,1.316,0,0,0,1.007-.42,1.552,1.552,0,0,0,.381-1.1,1.583,1.583,0,0,0-.381-1.107,1.335,1.335,0,0,0-1.007-.413,1.271,1.271,0,0,0-.979.42,1.774,1.774,0,0,0,0,2.2,1.272,1.272,0,0,0,.966.42Z" transform="translate(-323.415 -117.919)"/>
      <path id="Trazado_102643" data-name="Trazado 102643" d="M341.189,125.522a2.906,2.906,0,0,1-1.494-.356,1.526,1.526,0,0,1-.725-1.068l1.2-.336a.96.96,0,0,0,1.023.763,1.007,1.007,0,0,0,.521-.121.4.4,0,0,0,.2-.395.439.439,0,0,0-.084-.261.788.788,0,0,0-.26-.191l-.35-.134-.458-.133a4.728,4.728,0,0,1-.47-.146,3.024,3.024,0,0,1-.452-.191,1.7,1.7,0,0,1-.369-.26,1.061,1.061,0,0,1-.28-.4,1.469,1.469,0,0,1-.1-.547,1.31,1.31,0,0,1,.553-1.144,2.505,2.505,0,0,1,1.45-.381,2.543,2.543,0,0,1,1.335.324,1.475,1.475,0,0,1,.687,1.023l-1.112.252a.852.852,0,0,0-.9-.636,1.049,1.049,0,0,0-.5.108.375.375,0,0,0-.2.343.405.405,0,0,0,0,.153.3.3,0,0,0,.1.121l.146.1a.942.942,0,0,0,.2.084,1.834,1.834,0,0,0,.223.064l.26.07.267.07c.185.051.343.1.484.146a3.357,3.357,0,0,1,.439.21,1.692,1.692,0,0,1,.381.3,1.456,1.456,0,0,1,.252.426,1.6,1.6,0,0,1,.1.566,1.563,1.563,0,0,1-.168.744,1.271,1.271,0,0,1-.47.5,2.256,2.256,0,0,1-.636.267,3.458,3.458,0,0,1-.788.075Z" transform="translate(-326.991 -117.901)"/>
      <path id="Trazado_102644" data-name="Trazado 102644" d="M348.052,118.226a.827.827,0,1,1,.757-.824.819.819,0,0,1-.757.824Zm-.731,5.869v-5.087h1.443v5.087Z" transform="translate(-329.996 -116.576)"/>
      <path id="Trazado_102645" data-name="Trazado 102645" d="M353.529,124.533a1.532,1.532,0,0,1-1.157-.413,1.628,1.628,0,0,1-.407-1.183v-2.41h-1.007v-1.1h.324a.84.84,0,0,0,.636-.21,1.1,1.1,0,0,0,.2-.763v-.672h1.272v1.646h1.055v1.1h-1.055v2.257c0,.445.2.636.588.636h.464v1.091Z" transform="translate(-331.357 -117.014)"/>
      <path id="Trazado_102646" data-name="Trazado 102646" d="M358.865,118.226a.8.8,0,0,1-.588-.242.776.776,0,0,1-.242-.588.8.8,0,0,1,.242-.578.82.82,0,0,1,.588-.242.808.808,0,0,1,.579.242.82.82,0,0,1,0,1.164.808.808,0,0,1-.578.244Zm-.731,5.869v-5.086h1.443v5.086Z" transform="translate(-333.935 -116.576)"/>
      <path id="Trazado_102647" data-name="Trazado 102647" d="M365.662,120.37h1.52L365,125.456h-1.269l-2.149-5.086h1.539l1.272,3.491Z" transform="translate(-335.226 -117.957)"/>
      <path id="Trazado_102648" data-name="Trazado 102648" d="M373.4,125.54a3.287,3.287,0,0,1-1.45-.311,2.3,2.3,0,0,1-.986-.924,2.709,2.709,0,0,1-.363-1.427,2.486,2.486,0,0,1,.776-1.908,3.249,3.249,0,0,1,4.044,0,2.823,2.823,0,0,1,0,3.885,2.855,2.855,0,0,1-2.022.685Zm0-1.138a1.271,1.271,0,0,0,1.008-.42,1.532,1.532,0,0,0,.388-1.1,1.557,1.557,0,0,0-.388-1.107,1.316,1.316,0,0,0-1.008-.407,1.272,1.272,0,0,0-.979.42,1.774,1.774,0,0,0,0,2.2,1.272,1.272,0,0,0,.979.415Z" transform="translate(-338.509 -117.92)"/>
    </g>
    <g id="Grupo_57711" data-name="Grupo 57711" transform="translate(275.672 95.824)">
      <path id="Trazado_102649" data-name="Trazado 102649" d="M433.58,158.214V151.22h.9v6.994Z" transform="translate(-433.573 -150.896)"/>
      <path id="Trazado_102650" data-name="Trazado 102650" d="M440.385,154.389a1.71,1.71,0,0,1,1.227.445,1.653,1.653,0,0,1,.458,1.272v3.287H441.2V156.3a1.169,1.169,0,0,0-.3-.877,1.049,1.049,0,0,0-.763-.286,1.2,1.2,0,0,0-.871.336,1.392,1.392,0,0,0-.343,1v2.918h-.855v-4.883h.858v.636a1.628,1.628,0,0,1,1.457-.755Z" transform="translate(-435.209 -152.049)"/>
      <path id="Trazado_102651" data-name="Trazado 102651" d="M448.105,158.5a1.272,1.272,0,0,1-.954-.35,1.335,1.335,0,0,1-.343-.973V154.3h-1v-.687h.363a.7.7,0,0,0,.541-.168.82.82,0,0,0,.159-.573V152h.8v1.628h1.119v.687h-1.119v2.771a.719.719,0,0,0,.185.534.636.636,0,0,0,.49.191h.445v.687Z" transform="translate(-438.028 -151.18)"/>
      <path id="Trazado_102652" data-name="Trazado 102652" d="M453.318,155.38a1.488,1.488,0,0,1,.636-.636,1.811,1.811,0,0,1,.941-.252v.808a1.609,1.609,0,0,0-1.138.363,1.511,1.511,0,0,0-.388,1.157v2.6h-.858V154.54h.84Z" transform="translate(-440.468 -152.087)"/>
      <path id="Trazado_102653" data-name="Trazado 102653" d="M459.509,159.463a2.543,2.543,0,0,1-1.272-.3,2.175,2.175,0,0,1-.877-.884,2.735,2.735,0,0,1-.331-1.348,2.543,2.543,0,0,1,.693-1.847,2.6,2.6,0,0,1,3.535,0,2.8,2.8,0,0,1,0,3.687,2.384,2.384,0,0,1-1.749.7Zm0-.712a1.511,1.511,0,0,0,1.157-.5,1.908,1.908,0,0,0,.458-1.322,1.863,1.863,0,0,0-.458-1.316,1.494,1.494,0,0,0-1.157-.5,1.475,1.475,0,0,0-1.144.5,2.153,2.153,0,0,0,0,2.639,1.5,1.5,0,0,0,1.138.5Z" transform="translate(-442.113 -152.049)"/>
      <path id="Trazado_102654" data-name="Trazado 102654" d="M469.237,154.54h.924l-1.99,4.883h-.731l-1.977-4.883h.916l1.427,3.885Z" transform="translate(-445.184 -152.105)"/>
      <path id="Trazado_102655" data-name="Trazado 102655" d="M478.2,156.853v.235H474.39a1.71,1.71,0,0,0,.464,1.272,1.526,1.526,0,0,0,1.112.439,1.482,1.482,0,0,0,.808-.235,1.511,1.511,0,0,0,.559-.636l.776.168a2.212,2.212,0,0,1-.84,1.049,2.251,2.251,0,0,1-1.272.381,2.372,2.372,0,0,1-1.763-.68,2.918,2.918,0,0,1,0-3.713,2.351,2.351,0,0,1,1.735-.68,2.2,2.2,0,0,1,1.641.636,2.468,2.468,0,0,1,.594,1.764Zm-2.258-1.78a1.5,1.5,0,0,0-1.018.35,1.583,1.583,0,0,0-.515,1.008h2.925a1.427,1.427,0,0,0-.426-1.008,1.36,1.36,0,0,0-.969-.351Z" transform="translate(-448.137 -152.072)"/>
      <path id="Trazado_102656" data-name="Trazado 102656" d="M483.826,155.38a1.487,1.487,0,0,1,.6-.636,1.831,1.831,0,0,1,.941-.252v.808a1.621,1.621,0,0,0-1.138.363,1.511,1.511,0,0,0-.388,1.157v2.6H483V154.54h.84Z" transform="translate(-451.571 -152.087)"/>
      <path id="Trazado_102657" data-name="Trazado 102657" d="M489.622,159.47a2.334,2.334,0,0,1-1.316-.35,1.462,1.462,0,0,1-.636-1.007l.75-.216a1.043,1.043,0,0,0,.395.68,1.322,1.322,0,0,0,.808.242,1.741,1.741,0,0,0,.464-.064.776.776,0,0,0,.363-.242.636.636,0,0,0,.146-.445.96.96,0,0,0-.038-.2.744.744,0,0,0-.084-.159.408.408,0,0,0-.14-.133l-.168-.108-.223-.089-.235-.084-.274-.076-.286-.084a4.816,4.816,0,0,1-.5-.178,2.124,2.124,0,0,1-.413-.235.96.96,0,0,1-.324-.388,1.311,1.311,0,0,1-.108-.547,1.271,1.271,0,0,1,.242-.776,1.322,1.322,0,0,1,.636-.464,2.48,2.48,0,0,1,.871-.14,2.137,2.137,0,0,1,1.189.318,1.354,1.354,0,0,1,.588.954l-.706.178a.928.928,0,0,0-.369-.636,1.189,1.189,0,0,0-.706-.21,1.214,1.214,0,0,0-.636.168.588.588,0,0,0-.274.528.484.484,0,0,0,.076.267.682.682,0,0,0,.146.191.866.866,0,0,0,.267.153l.286.1.356.089h.076l.47.133a3.4,3.4,0,0,1,.42.178,1.335,1.335,0,0,1,.381.267,1.273,1.273,0,0,1,.242.375,1.419,1.419,0,0,1,.1.528,1.386,1.386,0,0,1-.146.636,1.144,1.144,0,0,1-.4.452,1.814,1.814,0,0,1-.566.242,2.61,2.61,0,0,1-.716.155Z" transform="translate(-453.273 -152.056)"/>
      <path id="Trazado_102658" data-name="Trazado 102658" d="M496.049,152.08a.553.553,0,0,1-.407-.168.566.566,0,0,1-.168-.413.553.553,0,0,1,.168-.407.588.588,0,0,1,.814,0,.553.553,0,0,1,.168.407.566.566,0,0,1-.168.413.553.553,0,0,1-.407.168Zm-.432,6.027v-4.883h.865v4.883Z" transform="translate(-456.113 -150.788)"/>
      <path id="Trazado_102659" data-name="Trazado 102659" d="M501.579,158.123a2.543,2.543,0,0,1-1.272-.306,2.174,2.174,0,0,1-.877-.884,2.664,2.664,0,0,1-.331-1.348,2.543,2.543,0,0,1,.693-1.847,2.6,2.6,0,0,1,3.535,0,2.8,2.8,0,0,1,0,3.687,2.384,2.384,0,0,1-1.749.693Zm0-.712a1.511,1.511,0,0,0,1.157-.5,1.908,1.908,0,0,0,.458-1.322,1.863,1.863,0,0,0-.458-1.316,1.494,1.494,0,0,0-1.157-.5,1.475,1.475,0,0,0-1.144.5,2.153,2.153,0,0,0,0,2.639,1.5,1.5,0,0,0,1.144.5Zm-.318-5.086,1.272-1.615.458.331-1.112,1.272Z" transform="translate(-457.434 -150.71)"/>
      <path id="Trazado_102660" data-name="Trazado 102660" d="M511.321,154.389a1.7,1.7,0,0,1,1.227.445,1.628,1.628,0,0,1,.464,1.272v3.287h-.833V156.3a1.17,1.17,0,0,0-.3-.877,1.075,1.075,0,0,0-.769-.286,1.175,1.175,0,0,0-.865.336,1.343,1.343,0,0,0-.343,1v2.918H509v-4.883h.858v.636a1.628,1.628,0,0,1,1.463-.755Z" transform="translate(-461.04 -152.049)"/>
      <path id="Trazado_102661" data-name="Trazado 102661" d="M433.58,177.413V170.42h2.257a3.383,3.383,0,0,1,1.78.452,2.817,2.817,0,0,1,1.091,1.233,4.317,4.317,0,0,1,.356,1.806,4.516,4.516,0,0,1-.21,1.418,3.107,3.107,0,0,1-.6,1.107,2.652,2.652,0,0,1-1.018.725,3.585,3.585,0,0,1-1.4.252Zm.89-.808H435.8a2.143,2.143,0,0,0,1.749-.719,3.039,3.039,0,0,0,.588-1.977,3,3,0,0,0-.588-1.965,2.124,2.124,0,0,0-1.742-.712h-1.322Z" transform="translate(-433.573 -157.887)"/>
      <path id="Trazado_102662" data-name="Trazado 102662" d="M448.617,176.034v.235H444.8a1.71,1.71,0,0,0,.464,1.272,1.525,1.525,0,0,0,1.112.439,1.482,1.482,0,0,0,.808-.235,1.511,1.511,0,0,0,.559-.636l.776.168a2.214,2.214,0,0,1-.84,1.049,2.251,2.251,0,0,1-1.272.381,2.359,2.359,0,0,1-1.793-.719,2.918,2.918,0,0,1,0-3.713,2.351,2.351,0,0,1,1.735-.68,2.2,2.2,0,0,1,1.641.636,2.473,2.473,0,0,1,.623,1.806Zm-2.257-1.78a1.5,1.5,0,0,0-1.018.35,1.583,1.583,0,0,0-.515,1.007h2.925a1.427,1.427,0,0,0-.426-1.007,1.361,1.361,0,0,0-.966-.35Z" transform="translate(-437.35 -159.042)"/>
      <path id="Trazado_102663" data-name="Trazado 102663" d="M455.2,178.656a2.333,2.333,0,0,1-1.749-.7,2.771,2.771,0,0,1,0-3.662,2.34,2.34,0,0,1,1.755-.706,2.365,2.365,0,0,1,1.411.432,2.117,2.117,0,0,1,.82,1.183l-.8.133a1.494,1.494,0,0,0-.553-.763,1.511,1.511,0,0,0-.884-.267,1.443,1.443,0,0,0-1.132.5,2.169,2.169,0,0,0,0,2.632,1.456,1.456,0,0,0,1.132.5,1.511,1.511,0,0,0,.89-.274,1.494,1.494,0,0,0,.553-.763l.8.133a2.143,2.143,0,0,1-.826,1.189A2.359,2.359,0,0,1,455.2,178.656Z" transform="translate(-440.56 -159.041)"/>
      <path id="Trazado_102664" data-name="Trazado 102664" d="M463.022,178.67a1.634,1.634,0,0,1-1.075-.336,1.2,1.2,0,0,1-.42-1,1.4,1.4,0,0,1,.133-.636,1.081,1.081,0,0,1,.4-.445,2.393,2.393,0,0,1,.573-.28,5.415,5.415,0,0,1,.744-.168l.788-.133c.286-.051.432-.2.432-.452a.846.846,0,0,0-.3-.725,1.208,1.208,0,0,0-.769-.235,1.271,1.271,0,0,0-.769.229.935.935,0,0,0-.363.68l-.776-.159a1.526,1.526,0,0,1,.636-1.049,2.289,2.289,0,0,1,1.335-.35,2.714,2.714,0,0,1,.706.089,1.793,1.793,0,0,1,.588.274,1.2,1.2,0,0,1,.426.521,2.081,2.081,0,0,1,.146.808v2.015a.82.82,0,0,0,.114.509.484.484,0,0,0,.388.133h.076v.636h-.426a.808.808,0,0,1-.923-.636h-.045a1.847,1.847,0,0,1-1.616.707Zm.2-.693a1.316,1.316,0,0,0,1.049-.47,1.984,1.984,0,0,0,.395-1.272l-1.272.252a1.735,1.735,0,0,0-.756.274.711.711,0,0,0-.013,1.068.985.985,0,0,0,.6.149Z" transform="translate(-443.75 -159.049)"/>
      <path id="Trazado_102665" data-name="Trazado 102665" d="M473.717,169.42h.857v7.63h-.827V176.1a1.819,1.819,0,0,1-.7.769,1.907,1.907,0,0,1-1.03.286,2.2,2.2,0,0,1-.884-.185,2.168,2.168,0,0,1-.731-.509,2.4,2.4,0,0,1-.489-.8,2.981,2.981,0,0,1-.178-1.049,2.544,2.544,0,0,1,.636-1.838,2.13,2.13,0,0,1,1.621-.706,1.908,1.908,0,0,1,1.018.28,1.786,1.786,0,0,1,.7.744Zm-1.539,6.994a1.468,1.468,0,0,0,1.138-.509,1.87,1.87,0,0,0,.458-1.272,1.831,1.831,0,0,0-.464-1.272,1.462,1.462,0,0,0-1.132-.515,1.511,1.511,0,0,0-1.144.5,1.863,1.863,0,0,0-.458,1.3,1.838,1.838,0,0,0,.458,1.272,1.511,1.511,0,0,0,1.144.489Z" transform="translate(-446.739 -157.524)"/>
      <path id="Trazado_102666" data-name="Trazado 102666" d="M484.167,176.053v.235h-3.815a1.71,1.71,0,0,0,.464,1.272,1.525,1.525,0,0,0,1.112.439,1.482,1.482,0,0,0,.808-.235,1.512,1.512,0,0,0,.559-.636l.776.168a2.245,2.245,0,0,1-.833,1.049,2.283,2.283,0,0,1-1.272.381,2.371,2.371,0,0,1-1.763-.68,2.906,2.906,0,0,1,0-3.713,2.327,2.327,0,0,1,1.73-.68,2.2,2.2,0,0,1,1.641.636,2.474,2.474,0,0,1,.588,1.767Zm-2.257-1.78a1.5,1.5,0,0,0-1.018.35,1.583,1.583,0,0,0-.515,1.007H483.3a1.427,1.427,0,0,0-.426-1.007,1.348,1.348,0,0,0-.966-.349Z" transform="translate(-450.309 -159.064)"/>
      <path id="Trazado_102667" data-name="Trazado 102667" d="M491.241,173.589a1.717,1.717,0,0,1,1.233.445,1.653,1.653,0,0,1,.458,1.272v3.287h-.858V175.5a1.17,1.17,0,0,0-.3-.877,1.049,1.049,0,0,0-.763-.28,1.175,1.175,0,0,0-.871.331,1.392,1.392,0,0,0-.343,1v2.918h-.857V173.71h.858v.636A1.628,1.628,0,0,1,491.241,173.589Z" transform="translate(-453.735 -159.041)"/>
      <path id="Trazado_102668" data-name="Trazado 102668" d="M499.6,178.657a2.333,2.333,0,0,1-1.749-.7,2.771,2.771,0,0,1,0-3.662,2.543,2.543,0,0,1,3.179-.274,2.117,2.117,0,0,1,.82,1.183l-.8.133a1.462,1.462,0,0,0-1.437-1.03,1.443,1.443,0,0,0-1.132.5,2.169,2.169,0,0,0,0,2.632,1.526,1.526,0,0,0,2.569-.534l.8.133a2.11,2.11,0,0,1-.826,1.189,2.359,2.359,0,0,1-1.427.426Z" transform="translate(-456.729 -159.042)"/>
      <path id="Trazado_102669" data-name="Trazado 102669" d="M506.879,171.28a.553.553,0,0,1-.407-.168.566.566,0,0,1-.168-.413.553.553,0,0,1,.168-.407.588.588,0,0,1,.814,0,.553.553,0,0,1,.168.407.566.566,0,0,1-.168.413.553.553,0,0,1-.406.168Zm-.432,6.027v-4.883h.861v4.883Z" transform="translate(-460.058 -157.78)"/>
      <path id="Trazado_102670" data-name="Trazado 102670" d="M511.552,178.673a1.659,1.659,0,0,1-1.075-.336,1.2,1.2,0,0,1-.42-1,1.324,1.324,0,0,1,.14-.636,1.062,1.062,0,0,1,.395-.445,2.392,2.392,0,0,1,.573-.28,5.422,5.422,0,0,1,.744-.168l.788-.133c.292-.051.432-.2.432-.452a.845.845,0,0,0-.3-.725,1.208,1.208,0,0,0-.769-.235,1.272,1.272,0,0,0-.763.235.934.934,0,0,0-.363.68l-.769-.159a1.482,1.482,0,0,1,.636-1.049,2.251,2.251,0,0,1,1.329-.35,2.676,2.676,0,0,1,.706.089,1.793,1.793,0,0,1,.588.274,1.2,1.2,0,0,1,.426.521,1.964,1.964,0,0,1,.153.808v2.015a.827.827,0,0,0,.108.509.483.483,0,0,0,.388.133h.076v.636h-.426a.808.808,0,0,1-.923-.636h-.044a1.847,1.847,0,0,1-1.625.7Zm.2-.693a1.316,1.316,0,0,0,1.05-.47,1.952,1.952,0,0,0,.394-1.272l-1.272.252a1.736,1.736,0,0,0-.756.274.705.705,0,0,0-.007,1.068.966.966,0,0,0,.588.153Z" transform="translate(-461.424 -159.053)"/>
      <path id="Trazado_102671" data-name="Trazado 102671" d="M437.371,196.611l-1.793-3.179H434.49v3.179h-.89v-6.994h2.321a2.079,2.079,0,0,1,1.564.553,1.945,1.945,0,0,1,.541,1.427,1.742,1.742,0,0,1-1.552,1.831l1.952,3.179ZM434.49,190.4v2.359h1.272a1.475,1.475,0,0,0,1.023-.318,1.1,1.1,0,0,0,.343-.852,1.132,1.132,0,0,0-.343-.865,1.456,1.456,0,0,0-1.023-.324Z" transform="translate(-433.581 -164.877)"/>
      <path id="Trazado_102672" data-name="Trazado 102672" d="M446.779,195.253v.235h-3.815a1.709,1.709,0,0,0,.464,1.272,1.526,1.526,0,0,0,1.112.439,1.482,1.482,0,0,0,.808-.235,1.511,1.511,0,0,0,.56-.636l.776.168a2.244,2.244,0,0,1-.833,1.049,2.283,2.283,0,0,1-1.272.381,2.371,2.371,0,0,1-1.763-.68,2.918,2.918,0,0,1,0-3.713,2.351,2.351,0,0,1,1.735-.68,2.2,2.2,0,0,1,1.641.636A2.467,2.467,0,0,1,446.779,195.253Zm-2.258-1.78a1.5,1.5,0,0,0-1.018.35,1.583,1.583,0,0,0-.515,1.007h2.925a1.427,1.427,0,0,0-.426-1.008,1.36,1.36,0,0,0-.967-.351Z" transform="translate(-436.695 -166.056)"/>
      <path id="Trazado_102673" data-name="Trazado 102673" d="M454.14,192.79a2.283,2.283,0,0,1,.884.178,2.2,2.2,0,0,1,1.214,1.311,3,3,0,0,1,.185,1.055,2.543,2.543,0,0,1-.636,1.838,2.13,2.13,0,0,1-1.621.706,1.907,1.907,0,0,1-1.018-.28,1.848,1.848,0,0,1-.7-.751v3.383h-.859v-7.349h.827v.947a1.787,1.787,0,0,1,.7-.756A1.908,1.908,0,0,1,454.14,192.79Zm-.168,4.336a1.488,1.488,0,0,0,1.132-.489,2.085,2.085,0,0,0,0-2.6,1.488,1.488,0,0,0-1.132-.489,1.511,1.511,0,0,0-1.151.509,2.009,2.009,0,0,0,0,2.543,1.511,1.511,0,0,0,1.154.53Z" transform="translate(-440.132 -166.034)"/>
      <path id="Trazado_102674" data-name="Trazado 102674" d="M462.174,193.78a1.511,1.511,0,0,1,.636-.636,1.806,1.806,0,0,1,.934-.252v.808a1.6,1.6,0,0,0-1.132.363,1.511,1.511,0,0,0-.395,1.157v2.6h-.857V192.94h.84Z" transform="translate(-443.69 -166.072)"/>
      <path id="Trazado_102675" data-name="Trazado 102675" d="M470.609,195.234v.235h-3.815a1.71,1.71,0,0,0,.464,1.272,1.526,1.526,0,0,0,1.112.439,1.475,1.475,0,0,0,1.367-.884l.776.168a2.207,2.207,0,0,1-.833,1.049,2.282,2.282,0,0,1-1.272.381,2.385,2.385,0,0,1-1.793-.706,2.906,2.906,0,0,1,0-3.713,2.327,2.327,0,0,1,1.73-.68,2.2,2.2,0,0,1,1.641.636,2.467,2.467,0,0,1,.623,1.806Zm-2.257-1.78a1.5,1.5,0,0,0-1.018.349,1.583,1.583,0,0,0-.515,1.007h2.925a1.428,1.428,0,0,0-.426-1.007,1.348,1.348,0,0,0-.967-.352Z" transform="translate(-445.36 -166.035)"/>
      <path id="Trazado_102676" data-name="Trazado 102676" d="M476.712,197.877a2.308,2.308,0,0,1-1.316-.35,1.469,1.469,0,0,1-.636-1.007l.751-.216a1.03,1.03,0,0,0,.4.68,1.315,1.315,0,0,0,.8.242,1.79,1.79,0,0,0,.47-.064.813.813,0,0,0,.363-.242.636.636,0,0,0,.14-.445.527.527,0,0,0-.038-.2c0-.057-.051-.114-.076-.159a.408.408,0,0,0-.14-.133,1.222,1.222,0,0,0-.395-.2l-.235-.084-.274-.076-.28-.084a4.985,4.985,0,0,1-.509-.178,2.324,2.324,0,0,1-.413-.235.947.947,0,0,1-.318-.388,1.309,1.309,0,0,1-.1-.534,1.271,1.271,0,0,1,.242-.783,1.348,1.348,0,0,1,.636-.458,2.442,2.442,0,0,1,.865-.14,2.124,2.124,0,0,1,1.189.318,1.361,1.361,0,0,1,.6.954l-.706.178a.934.934,0,0,0-.375-.636,1.17,1.17,0,0,0-.7-.21,1.2,1.2,0,0,0-.636.168.578.578,0,0,0-.274.528.541.541,0,0,0,.07.267.636.636,0,0,0,.413.336,2.7,2.7,0,0,0,.292.108l.356.089h.076l.47.133a3.407,3.407,0,0,1,.42.178,1.544,1.544,0,0,1,.381.267,1.333,1.333,0,0,1,.336.9,1.469,1.469,0,0,1-.146.636,1.182,1.182,0,0,1-.4.445,1.716,1.716,0,0,1-.573.252A2.543,2.543,0,0,1,476.712,197.877Z" transform="translate(-448.57 -166.048)"/>
      <path id="Trazado_102677" data-name="Trazado 102677" d="M483.139,190.48a.553.553,0,0,1-.407-.168.566.566,0,0,1-.168-.413.553.553,0,0,1,.168-.407.588.588,0,0,1,.814,0,.553.553,0,0,1,.168.407.566.566,0,0,1-.168.413A.553.553,0,0,1,483.139,190.48Zm-.439,6.027v-4.883h.865v4.883Z" transform="translate(-451.412 -164.773)"/>
      <path id="Trazado_102678" data-name="Trazado 102678" d="M488.708,196.52a2.543,2.543,0,0,1-1.272-.306,2.188,2.188,0,0,1-.884-.884,2.727,2.727,0,0,1-.324-1.348,2.486,2.486,0,0,1,.693-1.847,2.6,2.6,0,0,1,3.535,0,2.81,2.81,0,0,1,0,3.687A2.372,2.372,0,0,1,488.708,196.52Zm0-.712a1.526,1.526,0,0,0,1.157-.5,1.907,1.907,0,0,0,.458-1.322,1.863,1.863,0,0,0-.458-1.316,1.5,1.5,0,0,0-1.157-.5,1.475,1.475,0,0,0-1.144.5,1.863,1.863,0,0,0-.458,1.316,1.908,1.908,0,0,0,.458,1.322,1.5,1.5,0,0,0,1.138.5Zm-.324-5.087,1.272-1.621.458.336L489,190.708Z" transform="translate(-452.746 -164.691)"/>
      <path id="Trazado_102679" data-name="Trazado 102679" d="M498.4,192.788a1.71,1.71,0,0,1,1.227.445,1.653,1.653,0,0,1,.458,1.272v3.287H499.2v-3.1a1.164,1.164,0,0,0-.3-.871,1.049,1.049,0,0,0-.763-.286,1.2,1.2,0,0,0-.871.336,1.393,1.393,0,0,0-.343,1v2.918h-.855v-4.883h.858v.636a1.628,1.628,0,0,1,1.475-.756Z" transform="translate(-456.331 -166.033)"/>
      <path id="Trazado_102680" data-name="Trazado 102680" d="M433.58,215.814V208.82h.9v6.994Z" transform="translate(-433.573 -171.873)"/>
      <path id="Trazado_102681" data-name="Trazado 102681" d="M440.385,212a1.71,1.71,0,0,1,1.227.445,1.653,1.653,0,0,1,.458,1.272V217H441.2v-3.1a1.164,1.164,0,0,0-.3-.871,1.049,1.049,0,0,0-.763-.286,1.2,1.2,0,0,0-.871.336,1.392,1.392,0,0,0-.343,1V217h-.855v-4.883h.858v.636a1.628,1.628,0,0,1,1.456-.756Z" transform="translate(-435.209 -173.03)"/>
      <path id="Trazado_102682" data-name="Trazado 102682" d="M448.826,208.578h-.363a.83.83,0,0,0-.178,0l-.153.051a.356.356,0,0,0-.146.084.766.766,0,0,0-.114.127.541.541,0,0,0-.1.178,1.776,1.776,0,0,0-.051.242,1.487,1.487,0,0,0,0,.306v1.007h1.132v.687h-1.132v4.2h-.852v-4.2h-.947v-.687h.947v-1.028a3.013,3.013,0,0,1,.051-.566,2.165,2.165,0,0,1,.14-.432,1.091,1.091,0,0,1,.229-.311,1.629,1.629,0,0,1,.306-.21,1.324,1.324,0,0,1,.369-.121,3.2,3.2,0,0,1,.42-.064h.47Z" transform="translate(-438.067 -171.516)"/>
      <path id="Trazado_102683" data-name="Trazado 102683" d="M456.029,214.453v.235h-3.815a1.71,1.71,0,0,0,.464,1.272,1.526,1.526,0,0,0,1.112.439,1.482,1.482,0,0,0,.808-.235,1.511,1.511,0,0,0,.56-.636l.776.168a2.245,2.245,0,0,1-.833,1.049,2.283,2.283,0,0,1-1.272.381,2.372,2.372,0,0,1-1.763-.68,2.918,2.918,0,0,1,0-3.713,2.351,2.351,0,0,1,1.735-.68,2.2,2.2,0,0,1,1.641.636,2.468,2.468,0,0,1,.587,1.764Zm-2.257-1.78a1.5,1.5,0,0,0-1.018.35,1.583,1.583,0,0,0-.515,1.007h2.925a1.427,1.427,0,0,0-.426-1.007,1.361,1.361,0,0,0-.966-.369Z" transform="translate(-440.063 -173.049)"/>
      <path id="Trazado_102684" data-name="Trazado 102684" d="M461.64,212.98a1.488,1.488,0,0,1,.6-.636,1.831,1.831,0,0,1,.941-.252v.808a1.621,1.621,0,0,0-1.138.363,1.511,1.511,0,0,0-.388,1.157v2.6H460.8V212.14h.84Z" transform="translate(-443.486 -173.064)"/>
      <path id="Trazado_102685" data-name="Trazado 102685" d="M466.49,209.68a.554.554,0,0,1-.407-.168.566.566,0,0,1-.168-.413.553.553,0,0,1,.168-.407.588.588,0,0,1,.814,0,.553.553,0,0,1,.168.407.566.566,0,0,1-.168.413.553.553,0,0,1-.407.168Zm-.439,6.027v-4.883h.865v4.883Z" transform="translate(-445.349 -171.765)"/>
      <path id="Trazado_102686" data-name="Trazado 102686" d="M472.058,217.093a2.543,2.543,0,0,1-1.272-.306,2.183,2.183,0,0,1-.884-.884,2.728,2.728,0,0,1-.324-1.348,2.493,2.493,0,0,1,.693-1.847,2.6,2.6,0,0,1,3.535,0,2.8,2.8,0,0,1,0,3.687,2.4,2.4,0,0,1-1.748.7Zm0-.712a1.511,1.511,0,0,0,1.157-.5,1.907,1.907,0,0,0,.445-1.329,1.863,1.863,0,0,0-.458-1.316,1.494,1.494,0,0,0-1.157-.5,1.475,1.475,0,0,0-1.144.5,1.862,1.862,0,0,0-.42,1.316,1.908,1.908,0,0,0,.452,1.322,1.5,1.5,0,0,0,1.119.489Z" transform="translate(-446.682 -173.037)"/>
      <path id="Trazado_102687" data-name="Trazado 102687" d="M480.314,212.98a1.511,1.511,0,0,1,.636-.636,1.806,1.806,0,0,1,.934-.252v.808a1.6,1.6,0,0,0-1.132.363,1.511,1.511,0,0,0-.395,1.157v2.6H479.5V212.14h.84Z" transform="translate(-450.297 -173.064)"/>
      <path id="Trazado_102688" data-name="Trazado 102688" d="M485.155,209.678a.588.588,0,0,1-.588-.588.553.553,0,0,1,.168-.407.588.588,0,0,1,.413-.168.566.566,0,0,1,.4.168.553.553,0,0,1,.168.407.566.566,0,0,1-.168.413.547.547,0,0,1-.4.168Zm-.439,6.027v-4.883h.865v4.883Z" transform="translate(-452.143 -171.763)"/>
      <path id="Trazado_102689" data-name="Trazado 102689" d="M492.3,207.82h.858v7.63h-.822V214.5a1.818,1.818,0,0,1-.7.769,1.906,1.906,0,0,1-1.03.286,2.244,2.244,0,0,1-1.615-.693,2.366,2.366,0,0,1-.489-.808,2.916,2.916,0,0,1-.185-1.043,2.543,2.543,0,0,1,.672-1.838,2.13,2.13,0,0,1,1.621-.706,1.907,1.907,0,0,1,1.018.28,1.832,1.832,0,0,1,.7.744Zm-1.539,6.994a1.468,1.468,0,0,0,1.132-.509,2.009,2.009,0,0,0,0-2.543,1.463,1.463,0,0,0-1.132-.515,1.5,1.5,0,0,0-1.144.5,2.054,2.054,0,0,0,0,2.6,1.5,1.5,0,0,0,1.144.464Z" transform="translate(-453.505 -171.508)"/>
      <path id="Trazado_102690" data-name="Trazado 102690" d="M499.6,217.1a1.673,1.673,0,0,1-1.075-.336,1.2,1.2,0,0,1-.42-1,1.4,1.4,0,0,1,.133-.636,1.081,1.081,0,0,1,.4-.445,2.176,2.176,0,0,1,.573-.28,5.862,5.862,0,0,1,.744-.178l.788-.127c.286-.051.432-.2.432-.452a.845.845,0,0,0-.306-.725,1.227,1.227,0,0,0-.776-.235,1.271,1.271,0,0,0-.763.223.96.96,0,0,0-.363.687l-.776-.168a1.526,1.526,0,0,1,.636-1.043,2.288,2.288,0,0,1,1.335-.349,2.746,2.746,0,0,1,.706.089,1.794,1.794,0,0,1,.588.274,1.233,1.233,0,0,1,.42.521,1.965,1.965,0,0,1,.153.808v2.015a.82.82,0,0,0,.114.509.477.477,0,0,0,.381.133h.084v.636h-.426c-.528,0-.84-.216-.929-.636h-.045a1.863,1.863,0,0,1-1.615.712Zm.2-.693a1.3,1.3,0,0,0,1.049-.477,1.959,1.959,0,0,0,.395-1.272l-1.272.252a1.7,1.7,0,0,0-.756.274.711.711,0,0,0-.013,1.068.986.986,0,0,0,.6.14Z" transform="translate(-457.072 -173.044)"/>
      <path id="Trazado_102691" data-name="Trazado 102691" d="M510.3,207.82h.858v7.63h-.822V214.5a1.818,1.818,0,0,1-.7.769,1.907,1.907,0,0,1-1.03.286,2.244,2.244,0,0,1-1.615-.693,2.365,2.365,0,0,1-.49-.808,2.915,2.915,0,0,1-.185-1.043,2.543,2.543,0,0,1,.672-1.838,2.13,2.13,0,0,1,1.621-.706,1.907,1.907,0,0,1,1.018.28,1.831,1.831,0,0,1,.7.744Zm-1.539,6.994a1.468,1.468,0,0,0,1.132-.509,2.009,2.009,0,0,0,0-2.543,1.463,1.463,0,0,0-1.132-.515,1.5,1.5,0,0,0-1.144.5,2.054,2.054,0,0,0,0,2.6,1.5,1.5,0,0,0,1.144.464Z" transform="translate(-460.059 -171.508)"/>
      <path id="Trazado_102692" data-name="Trazado 102692" d="M437.328,228.827h-2.849v2.289h2.543v.8h-2.543V234.2h2.842v.8H433.57V228h3.751Z" transform="translate(-433.57 -178.858)"/>
      <path id="Trazado_102693" data-name="Trazado 102693" d="M440.72,236.2l1.876-2.441-1.876-2.441h1.055l1.354,1.87,1.348-1.87h1.049l-1.908,2.441,1.908,2.441h-1.046l-1.343-1.856-1.361,1.856Z" transform="translate(-436.174 -180.066)"/>
      <path id="Trazado_102694" data-name="Trazado 102694" d="M451.075,235.271a1.272,1.272,0,0,1-.954-.35,1.336,1.336,0,0,1-.343-.973v-2.874h-1v-.685h.363a.705.705,0,0,0,.541-.168.82.82,0,0,0,.159-.573v-.888h.8v1.629h1.119v.687h-1.119v2.785a.719.719,0,0,0,.185.534.637.637,0,0,0,.489.191h.445v.687Z" transform="translate(-439.109 -179.134)"/>
      <path id="Trazado_102695" data-name="Trazado 102695" d="M456.273,232.18a1.511,1.511,0,0,1,.636-.636,1.806,1.806,0,0,1,.934-.252v.808a1.6,1.6,0,0,0-1.132.363,1.511,1.511,0,0,0-.388,1.157V236.2h-.865v-4.883h.84Z" transform="translate(-441.541 -180.056)"/>
      <path id="Trazado_102696" data-name="Trazado 102696" d="M461.586,236.27a1.666,1.666,0,0,1-1.068-.336,1.2,1.2,0,0,1-.42-1,1.4,1.4,0,0,1,.133-.636,1.107,1.107,0,0,1,.395-.445,2.392,2.392,0,0,1,.573-.28,5.414,5.414,0,0,1,.744-.168l.788-.133c.292-.051.432-.2.432-.452a.845.845,0,0,0-.306-.725,1.208,1.208,0,0,0-.769-.235,1.272,1.272,0,0,0-.763.222.923.923,0,0,0-.363.687l-.776-.159a1.482,1.482,0,0,1,.636-1.049,2.25,2.25,0,0,1,1.329-.35,2.677,2.677,0,0,1,.706.089,1.793,1.793,0,0,1,.588.274,1.2,1.2,0,0,1,.426.521,1.963,1.963,0,0,1,.153.808v1.99a.871.871,0,0,0,.108.509.484.484,0,0,0,.388.133h.076v.636h-.426a.808.808,0,0,1-.923-.636h-.038a1.87,1.87,0,0,1-1.624.732Zm.2-.693a1.3,1.3,0,0,0,1.049-.477,1.907,1.907,0,0,0,.4-1.272l-1.272.252a1.735,1.735,0,0,0-.756.274.717.717,0,0,0-.007,1.068.966.966,0,0,0,.584.155Z" transform="translate(-443.23 -180.025)"/>
      <path id="Trazado_102697" data-name="Trazado 102697" d="M471.517,231.332h.924l-1.99,4.87h-.729l-1.977-4.883h.916l1.427,3.885Z" transform="translate(-446.015 -180.066)"/>
      <path id="Trazado_102698" data-name="Trazado 102698" d="M477.343,236.27a1.672,1.672,0,0,1-1.075-.336,1.2,1.2,0,0,1-.42-1,1.4,1.4,0,0,1,.133-.636,1.125,1.125,0,0,1,.4-.445,2.389,2.389,0,0,1,.573-.28,5.413,5.413,0,0,1,.744-.168l.788-.133c.292-.051.432-.2.432-.452a.846.846,0,0,0-.3-.725,1.208,1.208,0,0,0-.769-.235,1.31,1.31,0,0,0-.769.222.961.961,0,0,0-.363.687l-.776-.159a1.511,1.511,0,0,1,.636-1.049,2.25,2.25,0,0,1,1.329-.35,2.676,2.676,0,0,1,.706.089,1.793,1.793,0,0,1,.588.274,1.2,1.2,0,0,1,.426.521,1.968,1.968,0,0,1,.146.808v1.99a.821.821,0,0,0,.114.509.484.484,0,0,0,.388.133h.076v.636h-.426a.808.808,0,0,1-.924-.636h-.045a1.847,1.847,0,0,1-1.61.732Zm.2-.693a1.3,1.3,0,0,0,1.049-.477,1.907,1.907,0,0,0,.395-1.272l-1.272.252a1.736,1.736,0,0,0-.756.274.705.705,0,0,0-.007,1.068.954.954,0,0,0,.588.159Z" transform="translate(-448.966 -180.025)"/>
      <path id="Trazado_102699" data-name="Trazado 102699" d="M487.934,231.289h.84v4.635a2.651,2.651,0,0,1-.636,1.908,2.619,2.619,0,0,1-4.114-.826l.706-.35a1.621,1.621,0,0,0,1.634,1.132,1.418,1.418,0,0,0,1.151-.477,2.054,2.054,0,0,0,.395-1.335v-.9a1.735,1.735,0,0,1-.7.706,2.143,2.143,0,0,1-2.594-.426,2.62,2.62,0,0,1,0-3.465,2.111,2.111,0,0,1,1.589-.687,2.022,2.022,0,0,1,1.023.274,1.787,1.787,0,0,1,.687.725Zm-1.545,4.018a1.494,1.494,0,0,0,1.125-.5,1.729,1.729,0,0,0,.464-1.2,1.71,1.71,0,0,0-.464-1.2,1.532,1.532,0,0,0-2.251,0,1.7,1.7,0,0,0-.464,1.214,1.716,1.716,0,0,0,.464,1.208,1.506,1.506,0,0,0,1.126.473Z" transform="translate(-451.921 -180.023)"/>
      <path id="Trazado_102700" data-name="Trazado 102700" d="M495.2,236.27a1.666,1.666,0,0,1-1.068-.336,1.175,1.175,0,0,1-.42-1,1.4,1.4,0,0,1,.133-.636,1.061,1.061,0,0,1,.395-.445,2.39,2.39,0,0,1,.573-.28,5.419,5.419,0,0,1,.744-.168l.788-.133c.292-.051.432-.2.432-.452a.846.846,0,0,0-.306-.725,1.207,1.207,0,0,0-.769-.235,1.31,1.31,0,0,0-.769.223.961.961,0,0,0-.363.687l-.769-.159a1.481,1.481,0,0,1,.636-1.049,2.251,2.251,0,0,1,1.329-.35,2.676,2.676,0,0,1,.706.089,1.793,1.793,0,0,1,.588.274,1.2,1.2,0,0,1,.426.521,1.966,1.966,0,0,1,.153.808v1.99a.826.826,0,0,0,.108.509.483.483,0,0,0,.388.133h.076v.636h-.426a.808.808,0,0,1-.924-.636h-.044A1.847,1.847,0,0,1,495.2,236.27Zm.2-.693a1.3,1.3,0,0,0,1.049-.477,1.908,1.908,0,0,0,.394-1.272l-1.272.252a1.736,1.736,0,0,0-.756.274.718.718,0,0,0-.007,1.068.966.966,0,0,0,.59.155Z" transform="translate(-455.47 -180.025)"/>
      <path id="Trazado_102701" data-name="Trazado 102701" d="M504.96,231.188a1.717,1.717,0,0,1,1.233.445,1.653,1.653,0,0,1,.458,1.272v3.249h-.858v-3.09a1.164,1.164,0,0,0-.3-.877,1.049,1.049,0,0,0-.763-.286,1.183,1.183,0,0,0-.872.336,1.343,1.343,0,0,0-.343,1v2.916h-.856v-4.883h.852v.636a1.628,1.628,0,0,1,1.45-.719Z" transform="translate(-458.731 -180.017)"/>
      <path id="Trazado_102702" data-name="Trazado 102702" d="M513.343,236.256a2.333,2.333,0,0,1-1.749-.7,2.771,2.771,0,0,1,0-3.662,2.34,2.34,0,0,1,1.755-.706,2.366,2.366,0,0,1,1.411.432,2.117,2.117,0,0,1,.82,1.183l-.8.133a1.494,1.494,0,0,0-.553-.763,1.512,1.512,0,0,0-.884-.267,1.443,1.443,0,0,0-1.132.5,2.162,2.162,0,0,0,0,2.626,1.443,1.443,0,0,0,1.132.5,1.511,1.511,0,0,0,.884-.267,1.5,1.5,0,0,0,.553-.763l.8.133a2.142,2.142,0,0,1-.826,1.189,2.358,2.358,0,0,1-1.411.423Z" transform="translate(-461.733 -180.018)"/>
      <path id="Trazado_102703" data-name="Trazado 102703" d="M520.6,228.88a.554.554,0,0,1-.407-.168.566.566,0,0,1-.168-.413.553.553,0,0,1,.168-.407.588.588,0,0,1,.814,0,.553.553,0,0,1,.168.407.566.566,0,0,1-.168.413.553.553,0,0,1-.406.168Zm-.439,6.027v-4.883h.865v4.87Z" transform="translate(-465.054 -178.757)"/>
      <path id="Trazado_102704" data-name="Trazado 102704" d="M525.272,236.271a1.672,1.672,0,0,1-1.075-.336,1.2,1.2,0,0,1-.42-1,1.4,1.4,0,0,1,.133-.636,1.082,1.082,0,0,1,.4-.445,2.391,2.391,0,0,1,.573-.28,5.416,5.416,0,0,1,.744-.168l.788-.133c.286-.051.432-.2.432-.452a.846.846,0,0,0-.306-.725,1.209,1.209,0,0,0-.769-.235,1.31,1.31,0,0,0-.769.222.96.96,0,0,0-.363.687l-.776-.159a1.526,1.526,0,0,1,.635-1.049,2.289,2.289,0,0,1,1.335-.35,2.718,2.718,0,0,1,.706.089,1.793,1.793,0,0,1,.588.274,1.2,1.2,0,0,1,.426.521,2.08,2.08,0,0,1,.146.808v1.99a.821.821,0,0,0,.114.509.484.484,0,0,0,.388.133h.076v.636h-.426a.808.808,0,0,1-.924-.636h-.044a1.847,1.847,0,0,1-1.615.731Zm.2-.693a1.3,1.3,0,0,0,1.049-.477,1.958,1.958,0,0,0,.394-1.272l-1.272.252a1.735,1.735,0,0,0-.756.274.711.711,0,0,0-.013,1.068.986.986,0,0,0,.6.159Z" transform="translate(-466.421 -180.027)"/>
    </g>
    <g id="Grupo_57712" data-name="Grupo 57712" transform="translate(275.487 74.123)">
      <path id="Trazado_102705" data-name="Trazado 102705" d="M438.188,117.11h1.482v7.178h-1.723l-3.179-5.131v5.131H433.28V117.11h1.73l3.179,5.086Z" transform="translate(-433.28 -116.773)"/>
      <path id="Trazado_102706" data-name="Trazado 102706" d="M450.494,122.781v.343h-3.814a1.31,1.31,0,0,0,.407.934,1.386,1.386,0,0,0,1.57.146,1.113,1.113,0,0,0,.432-.515l1.31.191a2.267,2.267,0,0,1-.9,1.2,2.639,2.639,0,0,1-1.507.426,2.76,2.76,0,0,1-1.99-.706,2.543,2.543,0,0,1-.738-1.945,2.6,2.6,0,0,1,.738-1.952,2.687,2.687,0,0,1,1.945-.712,2.333,2.333,0,0,1,2.543,2.588Zm-2.543-1.577a1.132,1.132,0,0,0-1.24.986h2.347a1.075,1.075,0,0,0-.356-.731,1.125,1.125,0,0,0-.725-.252Z" transform="translate(-437.644 -117.892)"/>
      <path id="Trazado_102707" data-name="Trazado 102707" d="M458.461,120.3h1.361v4.724a3.815,3.815,0,0,1-.191,1.272,2.053,2.053,0,0,1-.553.871,2.321,2.321,0,0,1-.852.489,3.509,3.509,0,0,1-1.112.159,2.519,2.519,0,0,1-2.632-1.583l1.189-.509a1.724,1.724,0,0,0,.547.744,1.405,1.405,0,0,0,.84.235c.884,0,1.329-.521,1.329-1.571v-.617a1.609,1.609,0,0,1-.636.5,2.155,2.155,0,0,1-.909.191,2.276,2.276,0,0,1-.9-.178,2.385,2.385,0,0,1-.744-.509,2.421,2.421,0,0,1-.5-.8,3.007,3.007,0,0,1,0-2.073,2.283,2.283,0,0,1,.509-.788,2.124,2.124,0,0,1,.744-.5,2.267,2.267,0,0,1,.9-.178,2.1,2.1,0,0,1,.947.21,1.469,1.469,0,0,1,.636.559Zm-2.194,3.376a1.233,1.233,0,0,0,.934.395,1.272,1.272,0,0,0,.941-.395,1.427,1.427,0,0,0,0-1.945,1.329,1.329,0,0,0-1.907,0,1.361,1.361,0,0,0-.375.979,1.335,1.335,0,0,0,.407.966Z" transform="translate(-441.001 -117.894)"/>
      <path id="Trazado_102708" data-name="Trazado 102708" d="M469.189,124.048a4.778,4.778,0,0,0,.121,1.272v.14h-1.335l-.114-.553a1.647,1.647,0,0,1-.712.489,2.7,2.7,0,0,1-.929.168,2.334,2.334,0,0,1-.477-.045,1.706,1.706,0,0,1-.426-.153,1.27,1.27,0,0,1-.356-.267,1.08,1.08,0,0,1-.235-.4,1.671,1.671,0,0,1,0-1.112,1.4,1.4,0,0,1,.252-.413,1.743,1.743,0,0,1,.407-.306,3.172,3.172,0,0,1,.5-.216,5.954,5.954,0,0,1,.636-.159l.84-.191a.833.833,0,0,0,.375-.159.317.317,0,0,0,.114-.252.541.541,0,0,0-.252-.5,1.272,1.272,0,0,0-.636-.146.877.877,0,0,0-1,.782L464.7,121.8a1.717,1.717,0,0,1,.737-1.17,2.957,2.957,0,0,1,1.6-.369q2.149,0,2.149,1.838Zm-2.543.521a1.151,1.151,0,0,0,.884-.375,1.545,1.545,0,0,0,.343-1.091l-1.215.343a1.36,1.36,0,0,0-.509.21.432.432,0,0,0-.178.369.471.471,0,0,0,.191.4.782.782,0,0,0,.509.121Z" transform="translate(-444.697 -117.918)"/>
      <path id="Trazado_102709" data-name="Trazado 102709" d="M475.4,124.533a1.52,1.52,0,0,1-1.151-.413,1.6,1.6,0,0,1-.407-1.183v-2.41h-1.007v-1.1h.324a.858.858,0,0,0,.636-.21,1.131,1.131,0,0,0,.2-.763v-.672h1.272v1.646h1.049v1.1h-1.03v2.257c0,.445.2.636.588.636h.458v1.091Z" transform="translate(-447.687 -117.017)"/>
      <path id="Trazado_102710" data-name="Trazado 102710" d="M480.766,118.226a.814.814,0,0,1-.588-.242.8.8,0,0,1-.242-.588.783.783,0,0,1,.252-.578.82.82,0,0,1,1.157,1.164A.8.8,0,0,1,480.766,118.226Zm-.725,5.869v-5.086h1.437V124.1Z" transform="translate(-450.272 -116.58)"/>
      <path id="Trazado_102711" data-name="Trazado 102711" d="M487.582,120.37h1.511l-2.174,5.086h-1.269L483.5,120.37h1.507l1.272,3.491Z" transform="translate(-451.569 -117.96)"/>
      <path id="Trazado_102712" data-name="Trazado 102712" d="M495.3,125.54a3.274,3.274,0,0,1-1.443-.311,2.351,2.351,0,0,1-.992-.924,2.709,2.709,0,0,1-.363-1.427,2.543,2.543,0,0,1,.776-1.908,3.255,3.255,0,0,1,4.05,0,2.823,2.823,0,0,1,0,3.885A2.874,2.874,0,0,1,495.3,125.54Zm0-1.138a1.316,1.316,0,0,0,1.007-.42,1.552,1.552,0,0,0,.381-1.1,1.584,1.584,0,0,0-.381-1.107,1.336,1.336,0,0,0-1.008-.413,1.272,1.272,0,0,0-.986.42,1.8,1.8,0,0,0,0,2.2,1.272,1.272,0,0,0,.973.42Z" transform="translate(-454.846 -117.922)"/>
    </g>
  </g>
</svg>
