<svg id="color4" xmlns="http://www.w3.org/2000/svg" width="358.322" height="191.025" viewBox="0 0 358.322 191.025">
  <rect id="Rectángulo_5387" data-name="Rectángulo 5387" width="179.161" height="145.247" fill="#f7931e"/>
  <rect id="Rectángulo_5388" data-name="Rectángulo 5388" width="179.161" height="191.025" transform="translate(179.161)" fill="#f2f2f2"/>
  <rect id="Rectángulo_5389" data-name="Rectángulo 5389" width="44.787" height="45.779" transform="translate(0 145.247)" fill="#f7931e"/>
  <g id="Grupo_57689" data-name="Grupo 57689" transform="translate(44.787 145.247)" opacity="0.75">
    <rect id="Rectángulo_5390" data-name="Rectángulo 5390" width="44.787" height="45.779" fill="#f7931e"/>
  </g>
  <g id="Grupo_57690" data-name="Grupo 57690" transform="translate(89.58 145.247)" opacity="0.5">
    <rect id="Rectángulo_5391" data-name="Rectángulo 5391" width="44.787" height="45.779" fill="#f7931e"/>
  </g>
  <g id="Grupo_57691" data-name="Grupo 57691" transform="translate(134.367 145.247)" opacity="0.25">
    <rect id="Rectángulo_5392" data-name="Rectángulo 5392" width="44.787" height="45.779" fill="#f7931e"/>
  </g>
  <g id="Grupo_57692" data-name="Grupo 57692" transform="translate(200.143 34.271)">
    <path id="Trazado_102357" data-name="Trazado 102357" d="M328.044,72.636,326.8,69.121h-7.159l-1.237,3.515H314.78l6.276-17.043h4.33l6.276,17.043Zm-7.363-6.472h5.086l-2.543-7.235Z" transform="translate(-314.78 -54.516)"/>
    <path id="Trazado_102358" data-name="Trazado 102358" d="M351.775,63a4.743,4.743,0,0,1,3.351,1.087,4.07,4.07,0,0,1,1.151,3.084v8.164h-3.408V67.9a2.111,2.111,0,0,0-.636-1.672,2.289,2.289,0,0,0-1.564-.534,3.224,3.224,0,0,0-1.018.153,2.676,2.676,0,0,0-.845.484,2.124,2.124,0,0,0-.636.909,4.2,4.2,0,0,0-.229,1.405v6.689h-3.4V63.2h3.472v1.343A4.68,4.68,0,0,1,351.775,63Z" transform="translate(-325.618 -57.208)"/>
    <path id="Trazado_102359" data-name="Trazado 102359" d="M377.645,72.009a11.266,11.266,0,0,0,.3,2.957V75.3h-3.179l-.267-1.322a3.935,3.935,0,0,1-1.7,1.17,6.287,6.287,0,0,1-2.2.388,5.854,5.854,0,0,1-1.132-.1,3.744,3.744,0,0,1-1.018-.363,3.178,3.178,0,0,1-.845-.636,2.786,2.786,0,0,1-.566-.96,3.917,3.917,0,0,1-.21-1.316,3.574,3.574,0,0,1,.222-1.316,2.97,2.97,0,0,1,.588-.986,3.472,3.472,0,0,1,.954-.719,7.082,7.082,0,0,1,1.2-.521,13.762,13.762,0,0,1,1.443-.375l1.99-.452a2.206,2.206,0,0,0,.9-.381.763.763,0,0,0,.267-.636,1.272,1.272,0,0,0-.6-1.164,2.714,2.714,0,0,0-1.443-.356,2.081,2.081,0,0,0-2.372,1.847l-3.007-.541a4.063,4.063,0,0,1,1.755-2.766,6.994,6.994,0,0,1,3.815-.89q5.087,0,5.087,4.374Zm-5.983,1.227a2.753,2.753,0,0,0,2.1-.884,3.707,3.707,0,0,0,.8-2.6l-2.867.84a3.433,3.433,0,0,0-1.208.5,1.017,1.017,0,0,0-.42.871,1.139,1.139,0,0,0,.445.966,1.869,1.869,0,0,0,1.144.311Z" transform="translate(-333.735 -57.175)"/>
    <path id="Trazado_102360" data-name="Trazado 102360" d="M392.281,65.152A3.961,3.961,0,0,1,393.87,63.7a4.858,4.858,0,0,1,2.372-.636v3.022a4.618,4.618,0,0,0-2.9.751,3.2,3.2,0,0,0-.9,2.6v5.92H389V63.231h3.255Z" transform="translate(-341.809 -57.236)"/>
    <path id="Trazado_102361" data-name="Trazado 102361" d="M412.858,72.007a11.316,11.316,0,0,0,.292,2.956v.331h-3.179l-.274-1.322a3.936,3.936,0,0,1-1.7,1.17,6.225,6.225,0,0,1-2.194.388,5.856,5.856,0,0,1-1.132-.1,3.815,3.815,0,0,1-1.023-.363,3.224,3.224,0,0,1-.84-.636,2.785,2.785,0,0,1-.566-.96,3.909,3.909,0,0,1-.217-1.316,3.573,3.573,0,0,1,.229-1.316,3.069,3.069,0,0,1,.588-.986,3.6,3.6,0,0,1,.96-.719,7.087,7.087,0,0,1,1.2-.521,13.624,13.624,0,0,1,1.437-.375l2-.452a2.205,2.205,0,0,0,.9-.381.763.763,0,0,0,.267-.636,1.272,1.272,0,0,0-.6-1.164,2.734,2.734,0,0,0-1.443-.356,2.089,2.089,0,0,0-2.372,1.847l-3.007-.541a4.037,4.037,0,0,1,1.755-2.766,6.949,6.949,0,0,1,3.815-.89q5.087,0,5.086,4.374Zm-5.984,1.227a2.734,2.734,0,0,0,2.1-.884,3.675,3.675,0,0,0,.814-2.6l-2.874.84a3.479,3.479,0,0,0-1.214.5,1.023,1.023,0,0,0-.413.871,1.139,1.139,0,0,0,.445.966,1.87,1.87,0,0,0,1.143.313Z" transform="translate(-346.555 -57.174)"/>
    <path id="Trazado_102362" data-name="Trazado 102362" d="M431.386,63a4.756,4.756,0,0,1,3.351,1.087,4.068,4.068,0,0,1,1.164,3.106V75.33h-3.408V67.9a2.091,2.091,0,0,0-.636-1.672,2.267,2.267,0,0,0-1.557-.534,3.179,3.179,0,0,0-1.018.153,2.676,2.676,0,0,0-.845.484,2.124,2.124,0,0,0-.636.909,4.2,4.2,0,0,0-.229,1.405V75.33h-3.4V63.2h3.4v1.343A4.68,4.68,0,0,1,431.386,63Z" transform="translate(-354.618 -57.208)"/>
    <path id="Trazado_102363" data-name="Trazado 102363" d="M443.9,77.868V75.211a3.923,3.923,0,0,0,1.272-.168,1.437,1.437,0,0,0,.751-.636,2.633,2.633,0,0,0,.363-1.049,11.949,11.949,0,0,0,.089-1.621V60.052h3.442V71.769a6.6,6.6,0,0,1-1.379,4.635Q447.064,77.864,443.9,77.868Zm4.228-19.634a1.965,1.965,0,0,1-1.971-1.959,1.838,1.838,0,0,1,.588-1.374,1.949,1.949,0,1,1,1.386,3.331Z" transform="translate(-361.803 -54.057)"/>
    <path id="Trazado_102364" data-name="Trazado 102364" d="M468.208,72.007a11.309,11.309,0,0,0,.292,2.956v.331H465.32l-.274-1.322a3.936,3.936,0,0,1-1.7,1.17,6.224,6.224,0,0,1-2.194.388,5.856,5.856,0,0,1-1.132-.1A3.816,3.816,0,0,1,459,75.065a3.224,3.224,0,0,1-.84-.636,2.786,2.786,0,0,1-.566-.96,3.758,3.758,0,0,1-.217-1.316,3.574,3.574,0,0,1,.229-1.316,3.072,3.072,0,0,1,.588-.986,3.6,3.6,0,0,1,.96-.719,6.67,6.67,0,0,1,1.2-.521,13.608,13.608,0,0,1,1.436-.375l2-.452a2.206,2.206,0,0,0,.9-.381.756.756,0,0,0,.26-.636,1.272,1.272,0,0,0-.588-1.164,2.74,2.74,0,0,0-1.45-.356,2.086,2.086,0,0,0-2.365,1.847l-3.014-.541a4.069,4.069,0,0,1,1.763-2.766,6.949,6.949,0,0,1,3.815-.89q5.087,0,5.087,4.374Zm-5.983,1.227a2.734,2.734,0,0,0,2.1-.884,3.675,3.675,0,0,0,.814-2.6l-2.874.84a3.479,3.479,0,0,0-1.214.5,1.008,1.008,0,0,0-.413.871,1.138,1.138,0,0,0,.445.966,1.869,1.869,0,0,0,1.143.313Z" transform="translate(-366.711 -57.174)"/>
    <path id="Trazado_102365" data-name="Trazado 102365" d="M487.233,53.9h3.4V72.021h-3.211l-.084-1.577a3.5,3.5,0,0,1-1.539,1.374,5.205,5.205,0,0,1-2.267.489,5.862,5.862,0,0,1-2.267-.439,5.436,5.436,0,0,1-3.116-3.23,7.293,7.293,0,0,1-.464-2.658,6.884,6.884,0,0,1,.8-3.376,5.563,5.563,0,0,1,2.117-2.2,5.837,5.837,0,0,1,2.925-.744,5.373,5.373,0,0,1,2.2.439,3.459,3.459,0,0,1,1.511,1.272Zm-2.939,15.584a3.014,3.014,0,0,0,2.3-.966,3.974,3.974,0,0,0,0-5.086,3.014,3.014,0,0,0-2.289-.973,3.045,3.045,0,0,0-2.308.96,4.037,4.037,0,0,0,0,5.086,3.064,3.064,0,0,0,2.3.979Z" transform="translate(-374.108 -53.9)"/>
    <path id="Trazado_102366" data-name="Trazado 102366" d="M508.646,75.555a7.63,7.63,0,0,1-3.433-.744,5.525,5.525,0,0,1-2.351-2.183,6.472,6.472,0,0,1-.864-3.38,5.932,5.932,0,0,1,1.838-4.6,7.7,7.7,0,0,1,9.614,0,6.678,6.678,0,0,1,0,9.221,6.81,6.81,0,0,1-4.8,1.691Zm-.032-2.7a3.122,3.122,0,0,0,2.4-.966,4.2,4.2,0,0,0,0-5.239,3.107,3.107,0,0,0-2.4-.992,3,3,0,0,0-2.334,1,4.234,4.234,0,0,0,0,5.226,3.013,3.013,0,0,0,2.333.973Z" transform="translate(-382.958 -57.2)"/>
  </g>
  <g id="Grupo_57693" data-name="Grupo 57693" transform="translate(202.896 95.953)">
    <path id="Trazado_102367" data-name="Trazado 102367" d="M323.114,158.253a3.771,3.771,0,0,1-1.379-.252,3.574,3.574,0,0,1-1.107-.706,3.18,3.18,0,0,1-.731-1.138,4.348,4.348,0,0,1,0-3,3.235,3.235,0,0,1,.737-1.138,3.471,3.471,0,0,1,1.1-.706,3.771,3.771,0,0,1,1.379-.252,3.7,3.7,0,0,1,1.361.252,3.18,3.18,0,0,1,1.847,1.838,4.058,4.058,0,0,1,.267,1.494,4.128,4.128,0,0,1-.267,1.507,3.325,3.325,0,0,1-.738,1.138,3.433,3.433,0,0,1-1.107.706,3.694,3.694,0,0,1-1.363.258Zm0-.84a2.543,2.543,0,0,0,1.847-.737,2.76,2.76,0,0,0,.731-2.022,3.181,3.181,0,0,0-.2-1.157,2.315,2.315,0,0,0-1.367-1.392,2.9,2.9,0,0,0-2.034,0,2.423,2.423,0,0,0-.82.528,2.35,2.35,0,0,0-.553.865,3.18,3.18,0,0,0-.2,1.157,3.287,3.287,0,0,0,.2,1.175,2.383,2.383,0,0,0,.553.871,2.543,2.543,0,0,0,.82.528A2.844,2.844,0,0,0,323.114,157.414Z" transform="translate(-319.299 -150.968)"/>
    <path id="Trazado_102368" data-name="Trazado 102368" d="M335.5,154.39a2.2,2.2,0,0,1,.884.185,2.137,2.137,0,0,1,.725.5,2.435,2.435,0,0,1,.489.808,2.99,2.99,0,0,1,.178,1.055,2.594,2.594,0,0,1-.636,1.847,2.143,2.143,0,0,1-1.621.7,1.946,1.946,0,0,1-1.023-.28,1.847,1.847,0,0,1-.7-.751v3.383h-.9v-7.35h.833v.954a1.749,1.749,0,0,1,.693-.763A1.94,1.94,0,0,1,335.5,154.39Zm-.168,4.336a1.468,1.468,0,0,0,1.132-.49,2.085,2.085,0,0,0,0-2.6,1.468,1.468,0,0,0-1.132-.489,1.5,1.5,0,0,0-1.144.509,1.99,1.99,0,0,0,0,2.543,1.482,1.482,0,0,0,1.119.534Z" transform="translate(-324.132 -152.179)"/>
    <path id="Trazado_102369" data-name="Trazado 102369" d="M343.811,158.5a1.272,1.272,0,0,1-.954-.35,1.316,1.316,0,0,1-.349-.973V154.3h-1v-.687h.369a.719.719,0,0,0,.541-.168.858.858,0,0,0,.153-.573V152h.8v1.628H344.5v.687h-1.125v2.771a.725.725,0,0,0,.191.534.636.636,0,0,0,.484.191h.452v.687Z" transform="translate(-327.267 -151.309)"/>
    <path id="Trazado_102370" data-name="Trazado 102370" d="M348.515,152.078a.588.588,0,0,1-.588-.588.553.553,0,0,1,.168-.407.588.588,0,0,1,.82,0,.547.547,0,0,1,.168.407.573.573,0,0,1-.573.588Zm-.439,6.027v-4.883h.865v4.883Z" transform="translate(-329.605 -150.915)"/>
    <path id="Trazado_102371" data-name="Trazado 102371" d="M357.261,154.386a1.564,1.564,0,0,1,1.138.42,1.532,1.532,0,0,1,.432,1.164v3.4h-.858v-3.179a1.113,1.113,0,0,0-.267-.808.924.924,0,0,0-.68-.267.954.954,0,0,0-.744.306,1.31,1.31,0,0,0-.286.924v3.022h-.877v-3.135a1.157,1.157,0,0,0-.267-.833.909.909,0,0,0-.693-.28.954.954,0,0,0-.744.311,1.373,1.373,0,0,0-.286.947v2.988h-.86v-4.883h.858v.636a1.52,1.52,0,0,1,.559-.541,1.578,1.578,0,0,1,.776-.191,1.647,1.647,0,0,1,.84.21,1.271,1.271,0,0,1,.541.588,1.5,1.5,0,0,1,.588-.588A1.641,1.641,0,0,1,357.261,154.386Z" transform="translate(-331.187 -152.177)"/>
    <path id="Trazado_102372" data-name="Trazado 102372" d="M365.565,152.078a.588.588,0,0,1-.588-.588.553.553,0,0,1,.168-.407.588.588,0,0,1,.413-.168.566.566,0,0,1,.4.168.553.553,0,0,1,.168.407.566.566,0,0,1-.168.413A.547.547,0,0,1,365.565,152.078Zm-.439,6.027v-4.883h.865v4.883Z" transform="translate(-335.814 -150.915)"/>
    <path id="Trazado_102373" data-name="Trazado 102373" d="M370.627,159.47a2.308,2.308,0,0,1-1.316-.35,1.45,1.45,0,0,1-.636-1.007l.751-.216a1.031,1.031,0,0,0,.4.68,1.271,1.271,0,0,0,.8.242,1.793,1.793,0,0,0,.47-.064.764.764,0,0,0,.356-.242.636.636,0,0,0,.146-.445.966.966,0,0,0-.038-.2.923.923,0,0,0-.084-.159.355.355,0,0,0-.139-.133,1.429,1.429,0,0,0-.168-.108l-.223-.089-.235-.084-.274-.076-.286-.084c-.2-.064-.369-.121-.5-.178a2.122,2.122,0,0,1-.413-.235.947.947,0,0,1-.318-.388,1.214,1.214,0,0,1-.108-.547,1.272,1.272,0,0,1,.235-.776,1.335,1.335,0,0,1,.636-.464,2.416,2.416,0,0,1,.865-.14,2.137,2.137,0,0,1,1.189.318,1.335,1.335,0,0,1,.588.954l-.706.178a.929.929,0,0,0-.369-.636,1.182,1.182,0,0,0-.7-.21,1.2,1.2,0,0,0-.636.168.578.578,0,0,0-.274.528.483.483,0,0,0,.07.267.679.679,0,0,0,.146.191.954.954,0,0,0,.267.153l.286.1.363.089h.07c.2.044.349.089.47.127a3.909,3.909,0,0,1,.426.178,1.386,1.386,0,0,1,.375.267,1.229,1.229,0,0,1,.242.381,1.361,1.361,0,0,1,.1.521,1.393,1.393,0,0,1-.153.636,1.183,1.183,0,0,1-.394.452,1.907,1.907,0,0,1-.573.242,2.592,2.592,0,0,1-.719.153Z" transform="translate(-337.162 -152.186)"/>
    <path id="Trazado_102374" data-name="Trazado 102374" d="M377.835,158.5a1.272,1.272,0,0,1-.954-.35,1.336,1.336,0,0,1-.343-.973V154.3h-1v-.687h.363a.705.705,0,0,0,.541-.168.82.82,0,0,0,.159-.573V152h.8v1.628h1.119v.687H377.4v2.771a.719.719,0,0,0,.185.534.636.636,0,0,0,.489.191h.445v.687Z" transform="translate(-339.661 -151.309)"/>
    <path id="Trazado_102375" data-name="Trazado 102375" d="M383.006,159.475a1.628,1.628,0,0,1-1.068-.336,1.2,1.2,0,0,1-.42-1,1.4,1.4,0,0,1,.133-.636,1.081,1.081,0,0,1,.4-.445,2.174,2.174,0,0,1,.573-.28,5.007,5.007,0,0,1,.744-.168l.788-.133c.286-.051.432-.2.432-.452a.846.846,0,0,0-.3-.725,1.393,1.393,0,0,0-1.539,0,.934.934,0,0,0-.363.68l-.776-.159a1.526,1.526,0,0,1,.636-1.049,2.29,2.29,0,0,1,1.335-.35,2.75,2.75,0,0,1,.706.089,1.858,1.858,0,0,1,.588.274,1.234,1.234,0,0,1,.42.521,1.963,1.963,0,0,1,.153.808v2.015a.82.82,0,0,0,.114.509.47.47,0,0,0,.381.134h.084v.636H385.6c-.528,0-.84-.216-.929-.636h-.038a1.847,1.847,0,0,1-1.628.706Zm.2-.693a1.316,1.316,0,0,0,1.049-.47,1.983,1.983,0,0,0,.395-1.272l-1.272.252a1.7,1.7,0,0,0-.756.274.711.711,0,0,0-.013,1.068.986.986,0,0,0,.6.153Z" transform="translate(-341.837 -152.19)"/>
    <path id="Trazado_102376" data-name="Trazado 102376" d="M320.4,177.414V170.42h.884v6.994Z" transform="translate(-319.58 -158.017)"/>
    <path id="Trazado_102377" data-name="Trazado 102377" d="M327.2,173.589a1.7,1.7,0,0,1,1.227.445,1.627,1.627,0,0,1,.464,1.272v3.287h-.858V175.5a1.169,1.169,0,0,0-.3-.877,1.075,1.075,0,0,0-.769-.28,1.175,1.175,0,0,0-.865.331,1.343,1.343,0,0,0-.343,1v2.918h-.86V173.71h.858v.636A1.621,1.621,0,0,1,327.2,173.589Z" transform="translate(-321.218 -159.171)"/>
    <path id="Trazado_102378" data-name="Trazado 102378" d="M337.174,169.42h.858v7.63H337.2V176.1a1.8,1.8,0,0,1-.693.769,1.908,1.908,0,0,1-1.036.286,2.219,2.219,0,0,1-1.609-.693,2.3,2.3,0,0,1-.49-.8,2.983,2.983,0,0,1-.185-1.049,2.588,2.588,0,0,1,.636-1.838,2.149,2.149,0,0,1,1.621-.706,1.946,1.946,0,0,1,1.023.28,1.83,1.83,0,0,1,.7.744Zm-1.539,6.994a1.456,1.456,0,0,0,1.132-.509,2.028,2.028,0,0,0,0-2.543,1.469,1.469,0,0,0-1.132-.515,1.494,1.494,0,0,0-1.144.5,1.838,1.838,0,0,0-.464,1.3,1.813,1.813,0,0,0,.464,1.272,1.494,1.494,0,0,0,1.119.489Z" transform="translate(-324.236 -157.653)"/>
    <path id="Trazado_102379" data-name="Trazado 102379" d="M347.608,176.034v.235h-3.815a1.71,1.71,0,0,0,.47,1.272,1.526,1.526,0,0,0,1.112.439,1.481,1.481,0,0,0,.808-.235,1.55,1.55,0,0,0,.559-.636l.769.168a2.169,2.169,0,0,1-.845,1.03,2.282,2.282,0,0,1-1.272.381,2.358,2.358,0,0,1-1.78-.7,2.894,2.894,0,0,1,0-3.713,2.34,2.34,0,0,1,1.73-.68,2.206,2.206,0,0,1,1.646.636,2.5,2.5,0,0,1,.618,1.8Zm-2.267-1.78a1.494,1.494,0,0,0-1.008.349,1.583,1.583,0,0,0-.515,1.008h2.925a1.457,1.457,0,0,0-.426-1.007,1.374,1.374,0,0,0-.977-.352Z" transform="translate(-327.787 -159.172)"/>
    <path id="Trazado_102380" data-name="Trazado 102380" d="M354.975,173.59a2.2,2.2,0,0,1,.884.185,2.136,2.136,0,0,1,.724.5,2.429,2.429,0,0,1,.49.808,3,3,0,0,1,.185,1.055,2.588,2.588,0,0,1-.636,1.847,2.143,2.143,0,0,1-1.621.7,1.965,1.965,0,0,1-1.023-.28,1.831,1.831,0,0,1-.693-.751v3.383H352.4v-7.351h.826v.954a1.763,1.763,0,0,1,.7-.763,1.908,1.908,0,0,1,1.049-.283Zm-.168,4.336a1.468,1.468,0,0,0,1.132-.489,2.085,2.085,0,0,0,0-2.6,1.469,1.469,0,0,0-1.132-.489,1.488,1.488,0,0,0-1.144.515,1.818,1.818,0,0,0-.464,1.272,1.847,1.847,0,0,0,.464,1.272,1.481,1.481,0,0,0,1.141.523Z" transform="translate(-331.233 -159.172)"/>
    <path id="Trazado_102381" data-name="Trazado 102381" d="M366.238,176.046v.235h-3.815a1.71,1.71,0,0,0,.47,1.272,1.526,1.526,0,0,0,1.112.439,1.475,1.475,0,0,0,1.361-.884l.776.168a2.167,2.167,0,0,1-.833,1.049,2.282,2.282,0,0,1-1.272.381,2.359,2.359,0,0,1-1.755-.68,2.893,2.893,0,0,1,0-3.713,2.34,2.34,0,0,1,1.729-.68,2.206,2.206,0,0,1,1.646.636A2.5,2.5,0,0,1,366.238,176.046Zm-2.267-1.78a1.5,1.5,0,0,0-1.008.35,1.583,1.583,0,0,0-.515,1.007h2.925a1.457,1.457,0,0,0-.426-1.008,1.374,1.374,0,0,0-.973-.35Z" transform="translate(-334.587 -159.186)"/>
    <path id="Trazado_102382" data-name="Trazado 102382" d="M373.308,173.589a1.7,1.7,0,0,1,1.227.445,1.628,1.628,0,0,1,.464,1.272v3.287h-.865V175.5a1.17,1.17,0,0,0-.292-.877,1.075,1.075,0,0,0-.769-.28,1.175,1.175,0,0,0-.865.331,1.343,1.343,0,0,0-.343,1v2.918H371V173.71h.865v.636a1.621,1.621,0,0,1,1.443-.756Z" transform="translate(-338.007 -159.171)"/>
    <path id="Trazado_102383" data-name="Trazado 102383" d="M383.284,169.42h.858v7.63h-.833V176.1a1.8,1.8,0,0,1-.693.769,1.94,1.94,0,0,1-1.036.286,2.2,2.2,0,0,1-.884-.185,2.143,2.143,0,0,1-.725-.509,2.3,2.3,0,0,1-.489-.8,2.984,2.984,0,0,1-.185-1.049,2.589,2.589,0,0,1,.636-1.838,2.149,2.149,0,0,1,1.621-.706,1.945,1.945,0,0,1,1.023.28,1.831,1.831,0,0,1,.7.744Zm-1.539,6.994a1.456,1.456,0,0,0,1.132-.509,2.028,2.028,0,0,0,0-2.543,1.468,1.468,0,0,0-1.132-.515,1.5,1.5,0,0,0-1.144.5,1.837,1.837,0,0,0-.464,1.3,1.813,1.813,0,0,0,.464,1.272,1.494,1.494,0,0,0,1.144.489Z" transform="translate(-341.028 -157.653)"/>
    <path id="Trazado_102384" data-name="Trazado 102384" d="M390.025,171.278a.588.588,0,0,1-.588-.588.553.553,0,0,1,.168-.407.588.588,0,0,1,.413-.168.566.566,0,0,1,.4.168.553.553,0,0,1,.168.407.566.566,0,0,1-.168.413A.548.548,0,0,1,390.025,171.278Zm-.439,6.027v-4.883h.845v4.883Z" transform="translate(-344.722 -157.908)"/>
    <path id="Trazado_102385" data-name="Trazado 102385" d="M397.834,176.037v.235H394.02a1.71,1.71,0,0,0,.47,1.272,1.511,1.511,0,0,0,1.112.439,1.475,1.475,0,0,0,1.361-.884l.776.168a2.169,2.169,0,0,1-.858,1.043,2.283,2.283,0,0,1-1.272.381,2.359,2.359,0,0,1-1.755-.68,2.893,2.893,0,0,1,0-3.713,2.327,2.327,0,0,1,1.73-.68,2.183,2.183,0,0,1,1.641.636A2.479,2.479,0,0,1,397.834,176.037Zm-2.267-1.78a1.511,1.511,0,0,0-1.018.35,1.609,1.609,0,0,0-.509,1.007h2.925a1.456,1.456,0,0,0-.426-1.007A1.373,1.373,0,0,0,395.567,174.257Z" transform="translate(-346.085 -159.181)"/>
    <path id="Trazado_102386" data-name="Trazado 102386" d="M404.918,173.589a1.7,1.7,0,0,1,1.227.445,1.653,1.653,0,0,1,.464,1.272v3.287h-.865V175.5a1.169,1.169,0,0,0-.292-.877,1.075,1.075,0,0,0-.769-.28,1.189,1.189,0,0,0-.871.331,1.36,1.36,0,0,0-.336,1v2.918h-.865V173.71h.884v.636a1.621,1.621,0,0,1,1.421-.756Z" transform="translate(-349.52 -159.171)"/>
    <path id="Trazado_102387" data-name="Trazado 102387" d="M412.681,177.691a1.272,1.272,0,0,1-.954-.35,1.316,1.316,0,0,1-.35-.973v-2.874h-1v-.687h.369a.719.719,0,0,0,.541-.168.859.859,0,0,0,.153-.573v-.887h.8v1.628h1.075v.687h-1.125v2.785a.744.744,0,0,0,.185.534.636.636,0,0,0,.489.191h.452v.687Z" transform="translate(-352.349 -158.294)"/>
    <path id="Trazado_102388" data-name="Trazado 102388" d="M420.957,176.046v.235h-3.813a1.71,1.71,0,0,0,.464,1.272,1.526,1.526,0,0,0,1.112.439,1.475,1.475,0,0,0,1.367-.884l.776.168a2.206,2.206,0,0,1-.833,1.049,2.283,2.283,0,0,1-1.272.381,2.384,2.384,0,0,1-1.763-.68,2.906,2.906,0,0,1,0-3.713,2.327,2.327,0,0,1,1.73-.68,2.2,2.2,0,0,1,1.641.636,2.474,2.474,0,0,1,.592,1.777Zm-2.257-1.78a1.5,1.5,0,0,0-1.018.35,1.583,1.583,0,0,0-.515,1.007h2.925a1.427,1.427,0,0,0-.426-1.007,1.347,1.347,0,0,0-.967-.35Z" transform="translate(-354.514 -159.186)"/>
    <path id="Trazado_102389" data-name="Trazado 102389" d="M324.419,196.614l-.6-1.672h-3.179l-.6,1.672h-.929l2.575-6.994h1.062l2.582,6.994Zm-3.472-2.454h2.6l-1.335-3.662Z" transform="translate(-319.11 -165.01)"/>
    <path id="Trazado_102390" data-name="Trazado 102390" d="M332.957,192.94h.924l-1.99,4.883h-.731l-1.977-4.883h.916l1.427,3.885Z" transform="translate(-322.778 -166.219)"/>
    <path id="Trazado_102391" data-name="Trazado 102391" d="M341.911,195.253v.235H338.1a1.71,1.71,0,0,0,.464,1.272,1.583,1.583,0,0,0,1.907.2,1.494,1.494,0,0,0,.553-.636l.776.168a2.207,2.207,0,0,1-.833,1.049,2.283,2.283,0,0,1-1.272.381,2.372,2.372,0,0,1-1.763-.68,2.906,2.906,0,0,1,0-3.713,2.327,2.327,0,0,1,1.73-.68,2.2,2.2,0,0,1,1.641.636,2.467,2.467,0,0,1,.612,1.765Zm-2.257-1.78a1.5,1.5,0,0,0-1.018.349,1.583,1.583,0,0,0-.515,1.007h2.925a1.427,1.427,0,0,0-.426-1.007,1.347,1.347,0,0,0-.986-.35Z" transform="translate(-325.721 -166.185)"/>
    <path id="Trazado_102392" data-name="Trazado 102392" d="M349.008,192.789a1.71,1.71,0,0,1,1.227.445,1.653,1.653,0,0,1,.458,1.272v3.287h-.858V194.7a1.17,1.17,0,0,0-.3-.877,1.049,1.049,0,0,0-.763-.286,1.183,1.183,0,0,0-.871.336,1.392,1.392,0,0,0-.343,1v2.918H346.7v-4.883h.858v.636a1.628,1.628,0,0,1,1.45-.756Z" transform="translate(-329.158 -166.163)"/>
    <path id="Trazado_102393" data-name="Trazado 102393" d="M356.685,196.884a1.272,1.272,0,0,1-.954-.35,1.335,1.335,0,0,1-.343-.973v-2.886h-1v-.685h.388a.7.7,0,0,0,.541-.168.821.821,0,0,0,.159-.573v-.888h.8v1.629H357.4v.687h-1.119v2.785a.719.719,0,0,0,.185.534.636.636,0,0,0,.489.191h.445v.687Z" transform="translate(-331.958 -165.279)"/>
    <path id="Trazado_102394" data-name="Trazado 102394" d="M364.073,192.933h.858v4.883H364.1v-.636a1.564,1.564,0,0,1-.6.547,1.907,1.907,0,0,1-.858.191,1.7,1.7,0,0,1-1.228-.439,1.666,1.666,0,0,1-.458-1.272V192.92h.858v3.1a1.163,1.163,0,0,0,.3.871,1.056,1.056,0,0,0,.769.292,1.175,1.175,0,0,0,.865-.336,1.405,1.405,0,0,0,.343-1Z" transform="translate(-334.349 -166.211)"/>
    <path id="Trazado_102395" data-name="Trazado 102395" d="M370.814,193.78a1.488,1.488,0,0,1,.636-.636,1.832,1.832,0,0,1,.941-.252v.808a1.621,1.621,0,0,0-1.138.363,1.511,1.511,0,0,0-.388,1.157v2.6H370V192.94h.84Z" transform="translate(-337.643 -166.201)"/>
    <path id="Trazado_102396" data-name="Trazado 102396" d="M379.267,195.253v.235h-3.815a1.71,1.71,0,0,0,.47,1.272,1.526,1.526,0,0,0,1.112.439,1.481,1.481,0,0,0,.808-.235,1.552,1.552,0,0,0,.559-.636l.769.168a2.169,2.169,0,0,1-.833,1.049,2.283,2.283,0,0,1-1.272.381,2.359,2.359,0,0,1-1.755-.68,2.894,2.894,0,0,1,0-3.713,2.34,2.34,0,0,1,1.729-.68,2.206,2.206,0,0,1,1.647.636,2.493,2.493,0,0,1,.579,1.764ZM377,193.473a1.5,1.5,0,0,0-1.008.35,1.583,1.583,0,0,0-.489,1.03h2.925a1.456,1.456,0,0,0-.426-1.008,1.374,1.374,0,0,0-1-.374Z" transform="translate(-339.331 -166.185)"/>
    <path id="Trazado_102397" data-name="Trazado 102397" d="M384.865,193.78a1.487,1.487,0,0,1,.6-.636,1.812,1.812,0,0,1,.941-.252v.808a1.608,1.608,0,0,0-1.138.363,1.511,1.511,0,0,0-.388,1.157v2.6H384V192.94h.84Z" transform="translate(-342.742 -166.201)"/>
    <path id="Trazado_102398" data-name="Trazado 102398" d="M391.092,197.864a2.543,2.543,0,0,1-1.272-.3,2.174,2.174,0,0,1-.877-.884,2.726,2.726,0,0,1-.324-1.348,2.493,2.493,0,0,1,.693-1.847,2.594,2.594,0,0,1,3.526,0,2.8,2.8,0,0,1,0,3.687A2.384,2.384,0,0,1,391.092,197.864Zm0-.712a1.511,1.511,0,0,0,1.157-.5,1.908,1.908,0,0,0,.458-1.322,1.863,1.863,0,0,0-.458-1.316,1.494,1.494,0,0,0-1.157-.5,1.475,1.475,0,0,0-1.144.5,2.154,2.154,0,0,0,0,2.639,1.5,1.5,0,0,0,1.138.5Z" transform="translate(-344.422 -166.165)"/>
    <path id="Trazado_102399" data-name="Trazado 102399" d="M323.114,215.882a3.771,3.771,0,0,1-1.379-.252,3.574,3.574,0,0,1-1.107-.706,3.179,3.179,0,0,1-.731-1.138,4.348,4.348,0,0,1,0-3,3.236,3.236,0,0,1,.737-1.138,3.473,3.473,0,0,1,1.1-.706,3.771,3.771,0,0,1,1.379-.252,3.526,3.526,0,0,1,1.856.5,3.064,3.064,0,0,1,1.253,1.348l-.82.336a2.359,2.359,0,0,0-.916-1,2.619,2.619,0,0,0-1.354-.35,2.841,2.841,0,0,0-1.023.185,2.422,2.422,0,0,0-.82.528,2.351,2.351,0,0,0-.553.865,3.18,3.18,0,0,0-.2,1.157,3.249,3.249,0,0,0,.2,1.17,2.351,2.351,0,0,0,.553.865,2.424,2.424,0,0,0,.82.528,2.715,2.715,0,0,0,1.023.191,2.625,2.625,0,0,0,1.354-.356,2.326,2.326,0,0,0,.916-.986l.82.331a3.052,3.052,0,0,1-1.272,1.367,3.592,3.592,0,0,1-1.836.52Z" transform="translate(-319.299 -171.956)"/>
    <path id="Trazado_102400" data-name="Trazado 102400" d="M332.845,212.98a1.512,1.512,0,0,1,.636-.636,1.806,1.806,0,0,1,.934-.252v.808a1.6,1.6,0,0,0-1.132.363,1.511,1.511,0,0,0-.394,1.157v2.6H332V212.14h.84Z" transform="translate(-323.804 -173.193)"/>
    <path id="Trazado_102401" data-name="Trazado 102401" d="M341.346,214.446v.235h-3.815a1.71,1.71,0,0,0,.464,1.272,1.526,1.526,0,0,0,1.112.439,1.475,1.475,0,0,0,1.367-.884l.776.168a2.206,2.206,0,0,1-.833,1.049,2.283,2.283,0,0,1-1.272.381,2.385,2.385,0,0,1-1.763-.68,2.906,2.906,0,0,1,0-3.713,2.327,2.327,0,0,1,1.729-.68,2.2,2.2,0,0,1,1.641.636,2.473,2.473,0,0,1,.588,1.78Zm-2.257-1.78a1.5,1.5,0,0,0-1.018.35,1.583,1.583,0,0,0-.515,1.007h2.923a1.427,1.427,0,0,0-.426-1.007,1.348,1.348,0,0,0-.986-.369Z" transform="translate(-325.521 -173.17)"/>
    <path id="Trazado_102402" data-name="Trazado 102402" d="M347.006,217.1a1.627,1.627,0,0,1-1.068-.336,1.2,1.2,0,0,1-.42-1,1.4,1.4,0,0,1,.134-.636,1.08,1.08,0,0,1,.4-.445,2.172,2.172,0,0,1,.573-.28,5.012,5.012,0,0,1,.744-.168l.788-.133c.286-.051.432-.2.432-.452a.846.846,0,0,0-.3-.725,1.393,1.393,0,0,0-1.539,0,.935.935,0,0,0-.363.68l-.776-.159a1.526,1.526,0,0,1,.636-1.049,2.289,2.289,0,0,1,1.335-.35,2.749,2.749,0,0,1,.706.089,1.857,1.857,0,0,1,.588.274,1.233,1.233,0,0,1,.42.521,1.965,1.965,0,0,1,.153.808v2.015a.82.82,0,0,0,.114.509.47.47,0,0,0,.381.133h.084v.636H349.6c-.528,0-.84-.216-.929-.636h-.038a1.847,1.847,0,0,1-1.625.7Zm.2-.693a1.316,1.316,0,0,0,1.049-.47,1.984,1.984,0,0,0,.395-1.272l-1.272.252a1.7,1.7,0,0,0-.756.274.711.711,0,0,0-.013,1.068.986.986,0,0,0,.6.133Z" transform="translate(-328.726 -173.178)"/>
    <path id="Trazado_102403" data-name="Trazado 102403" d="M355.56,216.091a1.271,1.271,0,0,1-.954-.35,1.316,1.316,0,0,1-.35-.973v-2.874h-1v-.687h.369a.718.718,0,0,0,.541-.168.859.859,0,0,0,.153-.573v-.887h.8v1.628h1.151v.687h-1.125v2.785a.725.725,0,0,0,.191.534.636.636,0,0,0,.484.191h.452v.687Z" transform="translate(-331.547 -172.279)"/>
    <path id="Trazado_102404" data-name="Trazado 102404" d="M360.265,209.678a.588.588,0,0,1-.588-.588.553.553,0,0,1,.168-.407.588.588,0,0,1,.82,0,.546.546,0,0,1,.168.407.573.573,0,0,1-.573.588Zm-.439,6.027v-4.883h.865v4.883Z" transform="translate(-333.884 -171.892)"/>
    <path id="Trazado_102405" data-name="Trazado 102405" d="M366.654,212.14h.916l-1.984,4.883h-.719l-1.977-4.883h.915l1.427,3.885Z" transform="translate(-335.054 -173.211)"/>
    <path id="Trazado_102406" data-name="Trazado 102406" d="M373.368,217.093a2.543,2.543,0,0,1-1.272-.3,2.149,2.149,0,0,1-.884-.884,2.726,2.726,0,0,1-.324-1.348,2.493,2.493,0,0,1,.693-1.847,2.6,2.6,0,0,1,3.536,0,2.543,2.543,0,0,1,.687,1.847,2.486,2.486,0,0,1-.693,1.847A2.372,2.372,0,0,1,373.368,217.093Zm0-.712a1.5,1.5,0,0,0,1.151-.5,1.863,1.863,0,0,0,.464-1.322,1.838,1.838,0,0,0-.464-1.316,1.482,1.482,0,0,0-1.151-.5,1.456,1.456,0,0,0-1.144.5,1.863,1.863,0,0,0-.458,1.316,1.908,1.908,0,0,0,.458,1.322,1.481,1.481,0,0,0,1.138.484Z" transform="translate(-337.966 -173.167)"/>
    <path id="Trazado_102407" data-name="Trazado 102407" d="M320.4,234.993V228h2.251a3.351,3.351,0,0,1,1.78.452,2.74,2.74,0,0,1,1.091,1.233,4.317,4.317,0,0,1,.356,1.806,4.712,4.712,0,0,1-.2,1.418,3.318,3.318,0,0,1-.6,1.107,2.652,2.652,0,0,1-1.018.725,3.643,3.643,0,0,1-1.405.252Zm.884-.808h1.343a2.13,2.13,0,0,0,1.742-.719,3.58,3.58,0,0,0,0-3.946,2.136,2.136,0,0,0-1.742-.712h-1.343Z" transform="translate(-319.58 -178.986)"/>
    <path id="Trazado_102408" data-name="Trazado 102408" d="M331.745,228.878a.588.588,0,0,1-.588-.588.553.553,0,0,1,.168-.407.588.588,0,0,1,.413-.168.566.566,0,0,1,.4.168.553.553,0,0,1,.168.407.566.566,0,0,1-.168.413.547.547,0,0,1-.4.168Zm-.438,6.027v-4.883h.865v4.87Z" transform="translate(-323.498 -178.884)"/>
    <path id="Trazado_102409" data-name="Trazado 102409" d="M338.126,231.332h.916l-1.984,4.87h-.731l-1.977-4.883h.915l1.427,3.885Z" transform="translate(-324.66 -180.196)"/>
    <path id="Trazado_102410" data-name="Trazado 102410" d="M347.1,233.616v.235h-3.815a1.71,1.71,0,0,0,.47,1.272,1.511,1.511,0,0,0,1.112.439,1.475,1.475,0,0,0,1.361-.884l.776.168a2.168,2.168,0,0,1-.833,1.049,2.283,2.283,0,0,1-1.272.381,2.359,2.359,0,0,1-1.755-.68,2.893,2.893,0,0,1,0-3.713,2.327,2.327,0,0,1,1.729-.68,2.187,2.187,0,0,1,1.641.636,2.467,2.467,0,0,1,.588,1.78Zm-2.267-1.78a1.511,1.511,0,0,0-1.018.35,1.609,1.609,0,0,0-.509,1.007h2.925a1.456,1.456,0,0,0-.426-1.007,1.373,1.373,0,0,0-.973-.331Z" transform="translate(-327.617 -180.151)"/>
    <path id="Trazado_102411" data-name="Trazado 102411" d="M352.714,232.18a1.511,1.511,0,0,1,.636-.636,1.806,1.806,0,0,1,.934-.252v.808a1.6,1.6,0,0,0-1.132.363,1.511,1.511,0,0,0-.388,1.157V236.2H351.9v-4.883h.84Z" transform="translate(-331.052 -180.186)"/>
    <path id="Trazado_102412" data-name="Trazado 102412" d="M358.781,235.271a1.272,1.272,0,0,1-.954-.35,1.316,1.316,0,0,1-.35-.973v-2.874h-1v-.685h.369a.719.719,0,0,0,.541-.168.858.858,0,0,0,.153-.573v-.888h.8v1.629h1.125v.687h-1.124v2.785a.744.744,0,0,0,.185.534.636.636,0,0,0,.489.191h.452v.687Z" transform="translate(-332.719 -179.264)"/>
    <path id="Trazado_102413" data-name="Trazado 102413" d="M363.488,228.878a.588.588,0,0,1-.588-.588.553.553,0,0,1,.168-.407.588.588,0,0,1,.413-.168.566.566,0,0,1,.4.168.553.553,0,0,1,.168.407.566.566,0,0,1-.168.413.547.547,0,0,1-.4.168Zm-.439,6.027v-4.883h.865v4.87Z" transform="translate(-335.057 -178.884)"/>
    <path id="Trazado_102414" data-name="Trazado 102414" d="M370.642,227h.858v7.63h-.8v-.947a1.818,1.818,0,0,1-.7.769,1.907,1.907,0,0,1-1.03.286,2.244,2.244,0,0,1-1.615-.693,2.367,2.367,0,0,1-.489-.808,2.916,2.916,0,0,1-.185-1.043,2.543,2.543,0,0,1,.672-1.838,2.13,2.13,0,0,1,1.621-.706,1.907,1.907,0,0,1,1.018.28,1.787,1.787,0,0,1,.7.744Zm-1.539,6.994a1.443,1.443,0,0,0,1.132-.509,2.009,2.009,0,0,0,0-2.543,1.463,1.463,0,0,0-1.132-.515,1.511,1.511,0,0,0-1.144.5,1.863,1.863,0,0,0-.458,1.3,1.838,1.838,0,0,0,.458,1.272,1.511,1.511,0,0,0,1.142.5Z" transform="translate(-336.433 -178.623)"/>
    <path id="Trazado_102415" data-name="Trazado 102415" d="M378.826,236.263a2.543,2.543,0,0,1-1.272-.306,2.149,2.149,0,0,1-.884-.884,2.729,2.729,0,0,1-.324-1.347,2.493,2.493,0,0,1,.693-1.847,2.6,2.6,0,0,1,3.535,0,2.543,2.543,0,0,1,.687,1.847,2.486,2.486,0,0,1-.694,1.847,2.372,2.372,0,0,1-1.742.69Zm0-.712a1.526,1.526,0,0,0,1.157-.5,1.907,1.907,0,0,0,.458-1.322,1.863,1.863,0,0,0-.458-1.316,1.5,1.5,0,0,0-1.157-.5,1.468,1.468,0,0,0-1.144.5,1.863,1.863,0,0,0-.458,1.316,1.908,1.908,0,0,0,.458,1.322,1.488,1.488,0,0,0,1.138.5Z" transform="translate(-339.953 -180.148)"/>
  </g>
  <g id="Grupo_57694" data-name="Grupo 57694" transform="translate(203.545 74.12)">
    <path id="Trazado_102416" data-name="Trazado 102416" d="M323.118,117.108a2.168,2.168,0,0,1,1.653.636,2.346,2.346,0,0,1,.635,1.653,2.232,2.232,0,0,1-.635,1.641,2.183,2.183,0,0,1-1.653.636h-1.5v2.543H320.13v-7.109Zm-.252,3.358a1.068,1.068,0,0,0,.82-.28,1.049,1.049,0,0,0,.274-.776,1.068,1.068,0,0,0-.274-.769,1.091,1.091,0,0,0-.82-.286h-1.272v2.111Z" transform="translate(-320.13 -116.768)"/>
    <path id="Trazado_102417" data-name="Trazado 102417" d="M331.947,125.537a3.274,3.274,0,0,1-1.443-.311,2.351,2.351,0,0,1-.992-.924,2.707,2.707,0,0,1-.363-1.427,2.543,2.543,0,0,1,.776-1.908,3.237,3.237,0,0,1,4.05,0,2.824,2.824,0,0,1,0,3.885A2.9,2.9,0,0,1,331.947,125.537Zm0-1.138a1.316,1.316,0,0,0,1.007-.42,1.552,1.552,0,0,0,.381-1.1,1.583,1.583,0,0,0-.381-1.107,1.335,1.335,0,0,0-1.007-.413,1.271,1.271,0,0,0-.979.42,1.774,1.774,0,0,0,0,2.2,1.272,1.272,0,0,0,.966.42Z" transform="translate(-323.415 -117.916)"/>
    <path id="Trazado_102418" data-name="Trazado 102418" d="M341.189,125.519a2.906,2.906,0,0,1-1.494-.356,1.526,1.526,0,0,1-.725-1.068l1.2-.336a.96.96,0,0,0,1.023.763,1.007,1.007,0,0,0,.521-.121.4.4,0,0,0,.2-.395.439.439,0,0,0-.084-.261.789.789,0,0,0-.26-.191l-.35-.133-.458-.133a4.737,4.737,0,0,1-.47-.146,3.02,3.02,0,0,1-.452-.191,1.7,1.7,0,0,1-.369-.26,1.06,1.06,0,0,1-.28-.4,1.469,1.469,0,0,1-.1-.547,1.31,1.31,0,0,1,.553-1.144,2.505,2.505,0,0,1,1.45-.388,2.543,2.543,0,0,1,1.335.331,1.475,1.475,0,0,1,.687,1.023l-1.112.252a.858.858,0,0,0-.9-.636.979.979,0,0,0-.5.114.375.375,0,0,0-.2.343.405.405,0,0,0,0,.153.305.305,0,0,0,.1.121l.146.1a.944.944,0,0,0,.2.084l.222.064.26.07.267.07c.185.051.343.1.484.146a3.357,3.357,0,0,1,.439.21,1.693,1.693,0,0,1,.381.3,1.456,1.456,0,0,1,.252.426,1.576,1.576,0,0,1,.1.566,1.52,1.52,0,0,1-.168.737,1.271,1.271,0,0,1-.47.5,2.256,2.256,0,0,1-.636.267A3.459,3.459,0,0,1,341.189,125.519Z" transform="translate(-326.991 -117.898)"/>
    <path id="Trazado_102419" data-name="Trazado 102419" d="M348.052,118.226a.827.827,0,1,1,.757-.824.819.819,0,0,1-.757.824Zm-.731,5.869v-5.087h1.443v5.087Z" transform="translate(-329.996 -116.576)"/>
    <path id="Trazado_102420" data-name="Trazado 102420" d="M353.529,124.533a1.558,1.558,0,0,1-1.157-.413,1.628,1.628,0,0,1-.407-1.183v-2.41h-1.007v-1.1h.324a.84.84,0,0,0,.636-.21,1.1,1.1,0,0,0,.2-.763v-.672h1.272v1.646h1.055v1.1h-1.055v2.257c0,.445.2.636.588.636h.464v1.091Z" transform="translate(-331.357 -117.014)"/>
    <path id="Trazado_102421" data-name="Trazado 102421" d="M358.865,118.226a.8.8,0,0,1-.588-.242.776.776,0,0,1-.242-.588.8.8,0,0,1,.242-.578.82.82,0,0,1,.588-.242.808.808,0,0,1,.579.242.82.82,0,0,1,0,1.164.808.808,0,0,1-.578.244Zm-.731,5.869v-5.086h1.443v5.086Z" transform="translate(-333.935 -116.576)"/>
    <path id="Trazado_102422" data-name="Trazado 102422" d="M365.662,120.37h1.52L365,125.456h-1.269l-2.149-5.086h1.539l1.272,3.491Z" transform="translate(-335.226 -117.957)"/>
    <path id="Trazado_102423" data-name="Trazado 102423" d="M373.4,125.536a3.287,3.287,0,0,1-1.45-.311,2.3,2.3,0,0,1-.986-.924,2.709,2.709,0,0,1-.363-1.427,2.486,2.486,0,0,1,.776-1.908,3.224,3.224,0,0,1,4.044,0,2.823,2.823,0,0,1,0,3.885,2.886,2.886,0,0,1-2.022.68Zm0-1.138a1.271,1.271,0,0,0,1.008-.42,1.532,1.532,0,0,0,.388-1.1,1.557,1.557,0,0,0-.388-1.107,1.316,1.316,0,0,0-1.008-.407,1.272,1.272,0,0,0-.979.42,1.774,1.774,0,0,0,0,2.2,1.272,1.272,0,0,0,.979.415Z" transform="translate(-338.509 -117.916)"/>
  </g>
  <g id="Grupo_57695" data-name="Grupo 57695" transform="translate(283.301 95.824)">
    <path id="Trazado_102424" data-name="Trazado 102424" d="M448.232,151.22a2.059,2.059,0,0,1,1.1.292,1.951,1.951,0,0,1,.731.776,2.281,2.281,0,0,1,.261,1.081,2.137,2.137,0,0,1-.578,1.52,1.99,1.99,0,0,1-1.511.636H446.49v2.715h-.89v-6.994Zm-.127,3.5a1.272,1.272,0,0,0,.973-.375,1.551,1.551,0,0,0,0-1.977,1.272,1.272,0,0,0-.973-.381H446.49v2.734Z" transform="translate(-445.581 -150.896)"/>
    <path id="Trazado_102425" data-name="Trazado 102425" d="M455.97,155.38a1.488,1.488,0,0,1,.6-.636,1.831,1.831,0,0,1,.941-.252v.808a1.621,1.621,0,0,0-1.138.363,1.511,1.511,0,0,0-.388,1.157v2.6h-.858V154.54h.84Z" transform="translate(-449.051 -152.087)"/>
    <path id="Trazado_102426" data-name="Trazado 102426" d="M460.819,152.08a.553.553,0,0,1-.407-.168.566.566,0,0,1-.168-.413.553.553,0,0,1,.168-.407.588.588,0,0,1,.814,0,.553.553,0,0,1,.168.407.566.566,0,0,1-.168.413.553.553,0,0,1-.406.168Zm-.438,6.027v-4.883h.865v4.883Z" transform="translate(-450.913 -150.788)"/>
    <path id="Trazado_102427" data-name="Trazado 102427" d="M467.2,154.54h.924l-1.99,4.883H465.4l-1.977-4.883h.916l1.427,3.885Z" transform="translate(-452.071 -152.105)"/>
    <path id="Trazado_102428" data-name="Trazado 102428" d="M473.023,159.469a1.672,1.672,0,0,1-1.075-.336,1.2,1.2,0,0,1-.42-1,1.4,1.4,0,0,1,.133-.636,1.081,1.081,0,0,1,.4-.445,2.39,2.39,0,0,1,.573-.28,6.439,6.439,0,0,1,.744-.178l.788-.127c.286-.051.432-.2.432-.452a.845.845,0,0,0-.306-.725,1.208,1.208,0,0,0-.769-.235,1.31,1.31,0,0,0-.769.223.96.96,0,0,0-.363.687l-.776-.168a1.526,1.526,0,0,1,.636-1.043,2.289,2.289,0,0,1,1.335-.35,2.717,2.717,0,0,1,.706.089,1.792,1.792,0,0,1,.588.274,1.2,1.2,0,0,1,.426.521,2.079,2.079,0,0,1,.146.808v2.015a.82.82,0,0,0,.114.509.484.484,0,0,0,.388.134h.076v.636h-.426a.808.808,0,0,1-.924-.636h-.045A1.863,1.863,0,0,1,473.023,159.469Zm.2-.693a1.3,1.3,0,0,0,1.049-.477,1.959,1.959,0,0,0,.395-1.272l-1.272.252a1.736,1.736,0,0,0-.756.274.711.711,0,0,0-.013,1.068.986.986,0,0,0,.6.155Z" transform="translate(-455.022 -152.056)"/>
    <path id="Trazado_102429" data-name="Trazado 102429" d="M482.123,159.457a2.333,2.333,0,0,1-1.749-.7,2.771,2.771,0,0,1,0-3.662,2.543,2.543,0,0,1,3.179-.274,2.117,2.117,0,0,1,.82,1.183l-.8.134a1.463,1.463,0,0,0-1.437-1.03,1.443,1.443,0,0,0-1.132.5,2.162,2.162,0,0,0,0,2.626,1.443,1.443,0,0,0,1.132.5,1.463,1.463,0,0,0,1.437-1.03l.8.133a2.111,2.111,0,0,1-.827,1.189,2.358,2.358,0,0,1-1.427.426Z" transform="translate(-457.993 -152.05)"/>
    <path id="Trazado_102430" data-name="Trazado 102430" d="M489.379,152.08a.553.553,0,0,1-.407-.168.566.566,0,0,1-.168-.413.553.553,0,0,1,.168-.407.588.588,0,0,1,.814,0,.554.554,0,0,1,.168.407.566.566,0,0,1-.168.413A.553.553,0,0,1,489.379,152.08Zm-.432,6.027v-4.883h.861v4.883Z" transform="translate(-461.314 -150.788)"/>
    <path id="Trazado_102431" data-name="Trazado 102431" d="M494.956,158.123a2.543,2.543,0,0,1-1.272-.306,2.187,2.187,0,0,1-.871-.884,2.727,2.727,0,0,1-.324-1.348,2.543,2.543,0,0,1,.693-1.847,2.6,2.6,0,0,1,3.535,0,2.8,2.8,0,0,1,0,3.687,2.4,2.4,0,0,1-1.761.7Zm0-.712a1.511,1.511,0,0,0,1.157-.5,1.907,1.907,0,0,0,.458-1.322,1.863,1.863,0,0,0-.458-1.316,1.5,1.5,0,0,0-1.157-.5,1.475,1.475,0,0,0-1.144.5,1.863,1.863,0,0,0-.452,1.316,1.908,1.908,0,0,0,.452,1.322,1.5,1.5,0,0,0,1.138.5Zm-.324-5.086,1.272-1.615.458.331-1.112,1.272Z" transform="translate(-462.656 -150.71)"/>
    <path id="Trazado_102432" data-name="Trazado 102432" d="M504.678,154.389a1.7,1.7,0,0,1,1.227.445,1.654,1.654,0,0,1,.457,1.272v3.287H505.5v-3.1a1.138,1.138,0,0,0-.3-.871,1.049,1.049,0,0,0-.763-.286,1.2,1.2,0,0,0-.871.336,1.36,1.36,0,0,0-.336,1v2.918h-.865v-4.883h.865v.636a1.621,1.621,0,0,1,1.445-.755Z" transform="translate(-466.255 -152.049)"/>
    <path id="Trazado_102433" data-name="Trazado 102433" d="M449.36,171.234h-2.881v2.283h2.543v.808h-2.543v3.09h-.909v-6.994h3.783Z" transform="translate(-445.57 -157.888)"/>
    <path id="Trazado_102434" data-name="Trazado 102434" d="M454.384,174.58a1.511,1.511,0,0,1,.636-.636,1.806,1.806,0,0,1,.934-.252v.808a1.6,1.6,0,0,0-1.132.363,1.511,1.511,0,0,0-.394,1.157v2.6h-.858V173.74h.84Z" transform="translate(-448.484 -159.079)"/>
    <path id="Trazado_102435" data-name="Trazado 102435" d="M461.867,173.733h.858v4.883h-.82v-.636a1.519,1.519,0,0,1-.6.547,1.847,1.847,0,0,1-.852.191,1.71,1.71,0,0,1-1.233-.439,1.666,1.666,0,0,1-.458-1.272V173.72h.858v3.1a1.144,1.144,0,0,0,.3.871,1.03,1.03,0,0,0,.763.292,1.2,1.2,0,0,0,.871-.336,1.374,1.374,0,0,0,.336-1Z" transform="translate(-450.371 -159.09)"/>
    <path id="Trazado_102436" data-name="Trazado 102436" d="M469.062,178.669a2.308,2.308,0,0,1-1.316-.35,1.468,1.468,0,0,1-.635-1.007l.751-.217a1.082,1.082,0,0,0,.4.68,1.317,1.317,0,0,0,.8.242,1.792,1.792,0,0,0,.47-.064.815.815,0,0,0,.363-.242.693.693,0,0,0,.146-.445.681.681,0,0,0-.045-.2.747.747,0,0,0-.076-.159.407.407,0,0,0-.14-.134,1.447,1.447,0,0,0-.168-.108,1.323,1.323,0,0,0-.216-.089l-.242-.084-.274-.076-.28-.084c-.2-.064-.375-.121-.509-.178a2.332,2.332,0,0,1-.413-.235.948.948,0,0,1-.318-.388,1.311,1.311,0,0,1-.108-.547,1.272,1.272,0,0,1,.242-.776,1.322,1.322,0,0,1,.636-.464,2.442,2.442,0,0,1,.865-.14,2.123,2.123,0,0,1,1.189.318,1.36,1.36,0,0,1,.6.954l-.706.178a.915.915,0,0,0-.375-.636,1.157,1.157,0,0,0-.7-.21,1.214,1.214,0,0,0-.636.168.578.578,0,0,0-.274.528.54.54,0,0,0,.07.267,1.053,1.053,0,0,0,.146.191.8.8,0,0,0,.274.146,2.291,2.291,0,0,0,.286.108l.356.089h.076l.47.133a3.414,3.414,0,0,1,.42.178,1.547,1.547,0,0,1,.381.267,1.335,1.335,0,0,1,.336.9,1.468,1.468,0,0,1-.146.636,1.145,1.145,0,0,1-.4.452,1.908,1.908,0,0,1-.566.242,2.638,2.638,0,0,1-.731.146Z" transform="translate(-453.415 -159.048)"/>
    <path id="Trazado_102437" data-name="Trazado 102437" d="M476.283,177.691a1.272,1.272,0,0,1-.954-.35,1.316,1.316,0,0,1-.35-.973v-2.874H474v-.687h.369a.719.719,0,0,0,.541-.168.858.858,0,0,0,.153-.573v-.887h.8v1.628h1.125v.687h-1.141v2.785a.744.744,0,0,0,.185.534.637.637,0,0,0,.49.191h.452v.687Z" transform="translate(-455.924 -158.165)"/>
    <path id="Trazado_102438" data-name="Trazado 102438" d="M481.46,174.58a1.488,1.488,0,0,1,.6-.636,1.847,1.847,0,0,1,.941-.252v.808a1.621,1.621,0,0,0-1.138.363,1.511,1.511,0,0,0-.388,1.157v2.6h-.858V173.74h.84Z" transform="translate(-458.334 -159.079)"/>
    <path id="Trazado_102439" data-name="Trazado 102439" d="M486.794,178.655a1.666,1.666,0,0,1-1.036-.363,1.2,1.2,0,0,1-.42-1,1.4,1.4,0,0,1,.134-.636,1.08,1.08,0,0,1,.4-.445,2.175,2.175,0,0,1,.573-.28,5.014,5.014,0,0,1,.744-.168l.788-.133c.286-.051.432-.2.432-.452a.846.846,0,0,0-.306-.725,1.227,1.227,0,0,0-.776-.235,1.272,1.272,0,0,0-.763.222.96.96,0,0,0-.363.687l-.776-.159a1.525,1.525,0,0,1,.635-1.049,2.289,2.289,0,0,1,1.335-.349,2.747,2.747,0,0,1,.706.089,1.794,1.794,0,0,1,.588.274,1.233,1.233,0,0,1,.42.521,1.963,1.963,0,0,1,.153.808v2.015a.82.82,0,0,0,.114.509.47.47,0,0,0,.381.133h.084v.636h-.423c-.528,0-.84-.216-.929-.636h-.038a1.847,1.847,0,0,1-1.659.733Zm.2-.693a1.3,1.3,0,0,0,1.049-.477,1.958,1.958,0,0,0,.395-1.272l-1.272.252a1.7,1.7,0,0,0-.756.274.711.711,0,0,0-.013,1.068.986.986,0,0,0,.63.159Z" transform="translate(-460.052 -159.035)"/>
    <path id="Trazado_102440" data-name="Trazado 102440" d="M495.883,178.656a2.334,2.334,0,0,1-1.749-.7,2.771,2.771,0,0,1,0-3.662,2.34,2.34,0,0,1,1.755-.706,2.365,2.365,0,0,1,1.411.432,2.116,2.116,0,0,1,.82,1.183l-.8.133a1.494,1.494,0,0,0-.553-.763,1.511,1.511,0,0,0-.884-.267,1.443,1.443,0,0,0-1.132.5,2.162,2.162,0,0,0,0,2.626,1.443,1.443,0,0,0,1.132.5,1.511,1.511,0,0,0,.884-.267,1.494,1.494,0,0,0,.553-.763l.8.133a2.143,2.143,0,0,1-.826,1.189A2.358,2.358,0,0,1,495.883,178.656Z" transform="translate(-463.004 -159.041)"/>
    <path id="Trazado_102441" data-name="Trazado 102441" d="M503.139,171.28a.553.553,0,0,1-.407-.168.566.566,0,0,1-.168-.413.553.553,0,0,1,.168-.407.588.588,0,0,1,.814,0,.553.553,0,0,1,.168.407.566.566,0,0,1-.168.413A.553.553,0,0,1,503.139,171.28Zm-.439,6.027v-4.883h.865v4.883Z" transform="translate(-466.325 -157.78)"/>
    <path id="Trazado_102442" data-name="Trazado 102442" d="M508.708,177.323a2.544,2.544,0,0,1-1.272-.306,2.183,2.183,0,0,1-.884-.884,2.727,2.727,0,0,1-.324-1.348,2.493,2.493,0,0,1,.693-1.847,2.6,2.6,0,0,1,3.535,0,2.543,2.543,0,0,1,.687,1.847,2.486,2.486,0,0,1-.693,1.847,2.372,2.372,0,0,1-1.742.693Zm0-.712a1.526,1.526,0,0,0,1.157-.5,1.907,1.907,0,0,0,.458-1.322,1.863,1.863,0,0,0-.458-1.316,1.5,1.5,0,0,0-1.157-.5,1.475,1.475,0,0,0-1.144.5,1.863,1.863,0,0,0-.458,1.316,1.908,1.908,0,0,0,.458,1.322,1.5,1.5,0,0,0,1.138.5Zm-.324-5.086,1.272-1.615.458.331L509,171.513Z" transform="translate(-467.66 -157.703)"/>
    <path id="Trazado_102443" data-name="Trazado 102443" d="M518.4,173.588a1.71,1.71,0,0,1,1.227.445,1.653,1.653,0,0,1,.458,1.272v3.287H519.2V175.5a1.169,1.169,0,0,0-.3-.877,1.049,1.049,0,0,0-.763-.286,1.2,1.2,0,0,0-.871.336,1.392,1.392,0,0,0-.343,1v2.918h-.856v-4.883h.858v.636A1.627,1.627,0,0,1,518.4,173.588Z" transform="translate(-471.245 -159.041)"/>
    <path id="Trazado_102444" data-name="Trazado 102444" d="M449.36,190.434h-2.881v2.283h2.543v.8h-2.543v3.1h-.909V189.62h3.783Z" transform="translate(-445.57 -164.88)"/>
    <path id="Trazado_102445" data-name="Trazado 102445" d="M454.384,193.78a1.512,1.512,0,0,1,.636-.636,1.806,1.806,0,0,1,.934-.252v.808a1.6,1.6,0,0,0-1.132.363,1.511,1.511,0,0,0-.394,1.157v2.6h-.858V192.94h.84Z" transform="translate(-448.484 -166.072)"/>
    <path id="Trazado_102446" data-name="Trazado 102446" d="M459.225,190.478a.588.588,0,0,1-.588-.588.553.553,0,0,1,.168-.407.588.588,0,0,1,.413-.168.566.566,0,0,1,.4.168.554.554,0,0,1,.168.407.566.566,0,0,1-.168.413.547.547,0,0,1-.4.168Zm-.439,6.027v-4.883h.865v4.883Z" transform="translate(-450.329 -164.77)"/>
    <path id="Trazado_102447" data-name="Trazado 102447" d="M465.606,192.94h.915l-1.984,4.883h-.731l-1.977-4.883h.916l1.427,3.885Z" transform="translate(-451.491 -166.09)"/>
    <path id="Trazado_102448" data-name="Trazado 102448" d="M472.318,197.863a2.543,2.543,0,0,1-1.272-.306,2.15,2.15,0,0,1-.884-.884,2.729,2.729,0,0,1-.324-1.348,2.492,2.492,0,0,1,.693-1.847,2.4,2.4,0,0,1,1.763-.693,2.422,2.422,0,0,1,1.774.693,2.543,2.543,0,0,1,.687,1.847,2.486,2.486,0,0,1-.693,1.847A2.378,2.378,0,0,1,472.318,197.863Zm0-.712a1.5,1.5,0,0,0,1.151-.5,1.907,1.907,0,0,0,.464-1.322,1.87,1.87,0,0,0-.464-1.316,1.481,1.481,0,0,0-1.151-.5,1.456,1.456,0,0,0-1.144.5,1.863,1.863,0,0,0-.458,1.316,1.908,1.908,0,0,0,.458,1.322A1.482,1.482,0,0,0,472.318,197.151Z" transform="translate(-454.407 -166.033)"/>
    <path id="Trazado_102449" data-name="Trazado 102449" d="M479.73,196.25v-7.63h.871v7.63Z" transform="translate(-458.01 -164.516)"/>
    <path id="Trazado_102450" data-name="Trazado 102450" d="M484.2,190.48a.553.553,0,0,1-.407-.168.566.566,0,0,1-.168-.413.553.553,0,0,1,.168-.407.588.588,0,0,1,.814,0,.553.553,0,0,1,.168.407.566.566,0,0,1-.168.413.553.553,0,0,1-.406.168Zm-.432,6.027v-4.883h.865v4.883Z" transform="translate(-459.427 -164.773)"/>
    <path id="Trazado_102451" data-name="Trazado 102451" d="M491.352,188.62h.871v7.63h-.833V195.3a1.8,1.8,0,0,1-.693.769,1.94,1.94,0,0,1-1.036.286,2.2,2.2,0,0,1-.884-.185,2.142,2.142,0,0,1-.725-.509,2.268,2.268,0,0,1-.489-.808,2.794,2.794,0,0,1-.185-1.043,2.588,2.588,0,0,1,.635-1.838,2.149,2.149,0,0,1,1.621-.706,1.946,1.946,0,0,1,1.023.28,1.831,1.831,0,0,1,.7.744Zm-1.539,6.994a1.475,1.475,0,0,0,1.132-.509,2.028,2.028,0,0,0,0-2.543,1.469,1.469,0,0,0-1.132-.515,1.494,1.494,0,0,0-1.144.5,2.054,2.054,0,0,0,0,2.6,1.494,1.494,0,0,0,1.144.464Z" transform="translate(-460.795 -164.516)"/>
    <path id="Trazado_102452" data-name="Trazado 102452" d="M498.646,197.87a1.666,1.666,0,0,1-1.068-.336,1.2,1.2,0,0,1-.42-1,1.449,1.449,0,0,1,.133-.636,1.132,1.132,0,0,1,.4-.426,2.32,2.32,0,0,1,.578-.28,6.017,6.017,0,0,1,.737-.178l.8-.127c.286-.051.432-.2.432-.452a.845.845,0,0,0-.3-.725,1.228,1.228,0,0,0-.776-.235,1.271,1.271,0,0,0-.763.223.94.94,0,0,0-.363.687l-.782-.185a1.482,1.482,0,0,1,.636-1.043,2.267,2.267,0,0,1,1.329-.35,2.763,2.763,0,0,1,.712.089,1.908,1.908,0,0,1,.588.274,1.233,1.233,0,0,1,.42.521,1.962,1.962,0,0,1,.153.808v2.015a.871.871,0,0,0,.108.509.484.484,0,0,0,.388.133h.084v.636h-.432a.814.814,0,0,1-.924-.636h-.076a1.907,1.907,0,0,1-1.586.71Zm.2-.693a1.271,1.271,0,0,0,1.049-.477,1.907,1.907,0,0,0,.4-1.272l-1.272.252a1.673,1.673,0,0,0-.756.274.711.711,0,0,0-.013,1.068A.979.979,0,0,0,498.843,197.177Z" transform="translate(-464.356 -166.041)"/>
    <path id="Trazado_102453" data-name="Trazado 102453" d="M509.352,188.62h.871v7.63h-.833V195.3a1.8,1.8,0,0,1-.693.769,1.94,1.94,0,0,1-1.036.286,2.2,2.2,0,0,1-.884-.185,2.142,2.142,0,0,1-.725-.509,2.266,2.266,0,0,1-.49-.808,2.791,2.791,0,0,1-.185-1.043,2.587,2.587,0,0,1,.636-1.838,2.149,2.149,0,0,1,1.621-.706,1.945,1.945,0,0,1,1.023.28,1.831,1.831,0,0,1,.7.744Zm-1.539,6.994a1.475,1.475,0,0,0,1.132-.509,2.028,2.028,0,0,0,0-2.543,1.469,1.469,0,0,0-1.132-.515,1.494,1.494,0,0,0-1.144.5,2.054,2.054,0,0,0,0,2.6,1.494,1.494,0,0,0,1.144.464Z" transform="translate(-467.35 -164.516)"/>
    <path id="Trazado_102454" data-name="Trazado 102454" d="M445.58,215.814V208.82h.9v6.994Z" transform="translate(-445.573 -171.873)"/>
    <path id="Trazado_102455" data-name="Trazado 102455" d="M452.385,212a1.71,1.71,0,0,1,1.227.445,1.653,1.653,0,0,1,.458,1.272V217H453.2v-3.1a1.164,1.164,0,0,0-.3-.871,1.05,1.05,0,0,0-.763-.286,1.2,1.2,0,0,0-.871.336,1.393,1.393,0,0,0-.343,1V217h-.855v-4.883h.858v.636a1.628,1.628,0,0,1,1.456-.756Z" transform="translate(-447.209 -173.03)"/>
    <path id="Trazado_102456" data-name="Trazado 102456" d="M463.972,212a1.564,1.564,0,0,1,1.138.42,1.532,1.532,0,0,1,.432,1.164v3.4h-.859V213.8a1.113,1.113,0,0,0-.267-.808.929.929,0,0,0-.68-.274.96.96,0,0,0-.744.311,1.31,1.31,0,0,0-.286.924v3.022h-.871V213.83a1.158,1.158,0,0,0-.274-.827.909.909,0,0,0-.693-.286.96.96,0,0,0-.744.318,1.374,1.374,0,0,0-.286.947v2.988H459v-4.883h.858v.636a1.552,1.552,0,0,1,.559-.534,1.577,1.577,0,0,1,.776-.191,1.647,1.647,0,0,1,.84.21,1.271,1.271,0,0,1,.541.588,1.494,1.494,0,0,1,.588-.588,1.654,1.654,0,0,1,.814-.21Z" transform="translate(-450.46 -173.03)"/>
    <path id="Trazado_102457" data-name="Trazado 102457" d="M472.826,217.1a1.666,1.666,0,0,1-1.068-.336,1.2,1.2,0,0,1-.42-1,1.4,1.4,0,0,1,.133-.636,1.1,1.1,0,0,1,.394-.445,2.322,2.322,0,0,1,.578-.28,6.023,6.023,0,0,1,.738-.178l.8-.127c.286-.051.432-.2.432-.452a.845.845,0,0,0-.306-.725,1.227,1.227,0,0,0-.776-.235,1.271,1.271,0,0,0-.763.223.924.924,0,0,0-.363.687l-.776-.168a1.482,1.482,0,0,1,.636-1.043,2.267,2.267,0,0,1,1.329-.35,2.764,2.764,0,0,1,.712.089,1.908,1.908,0,0,1,.588.274,1.234,1.234,0,0,1,.42.521,1.966,1.966,0,0,1,.153.808v2.015a.87.87,0,0,0,.108.509.483.483,0,0,0,.388.133h.076v.636h-.426a.808.808,0,0,1-.924-.636h-.038a1.856,1.856,0,0,1-1.623.713Zm.2-.693a1.272,1.272,0,0,0,1.049-.477,1.907,1.907,0,0,0,.4-1.272l-1.272.252a1.672,1.672,0,0,0-.756.274.711.711,0,0,0-.013,1.068.979.979,0,0,0,.6.14Z" transform="translate(-454.953 -173.043)"/>
    <path id="Trazado_102458" data-name="Trazado 102458" d="M483.524,207.82h.858v7.63h-.833V214.5a1.8,1.8,0,0,1-.693.769,1.939,1.939,0,0,1-1.036.286,2.2,2.2,0,0,1-.884-.185,2.143,2.143,0,0,1-.725-.509,2.266,2.266,0,0,1-.49-.808,2.792,2.792,0,0,1-.185-1.043,2.587,2.587,0,0,1,.635-1.838,2.149,2.149,0,0,1,1.628-.7,1.946,1.946,0,0,1,1.023.28,1.832,1.832,0,0,1,.7.744Zm-1.545,6.994a1.482,1.482,0,0,0,1.138-.509,2.028,2.028,0,0,0,0-2.543,1.534,1.534,0,0,0-2.276-.019,1.837,1.837,0,0,0-.464,1.3,1.812,1.812,0,0,0,.464,1.272,1.488,1.488,0,0,0,1.138.489Z" transform="translate(-457.939 -171.508)"/>
    <path id="Trazado_102459" data-name="Trazado 102459" d="M492.889,212.133h.833v4.883H492.9v-.636a1.519,1.519,0,0,1-.6.547,1.863,1.863,0,0,1-.852.191,1.71,1.71,0,0,1-1.233-.439,1.666,1.666,0,0,1-.458-1.272V212.12h.858v3.106a1.164,1.164,0,0,0,.3.871,1.055,1.055,0,0,0,.769.292,1.17,1.17,0,0,0,.865-.336,1.373,1.373,0,0,0,.343-1Z" transform="translate(-461.657 -173.075)"/>
    <path id="Trazado_102460" data-name="Trazado 102460" d="M499.63,212.98a1.488,1.488,0,0,1,.6-.636,1.847,1.847,0,0,1,.941-.252v.808a1.6,1.6,0,0,0-1.132.363,1.511,1.511,0,0,0-.395,1.157v2.6h-.858V212.14h.84Z" transform="translate(-464.952 -173.064)"/>
    <path id="Trazado_102461" data-name="Trazado 102461" d="M508.1,214.434v.235h-3.815a1.71,1.71,0,0,0,.464,1.272,1.526,1.526,0,0,0,1.112.439,1.481,1.481,0,0,0,.808-.235,1.511,1.511,0,0,0,.56-.636l.776.168a2.244,2.244,0,0,1-.833,1.049,2.283,2.283,0,0,1-1.272.381,2.372,2.372,0,0,1-1.763-.68,2.918,2.918,0,0,1,0-3.713,2.351,2.351,0,0,1,1.709-.715,2.2,2.2,0,0,1,1.641.636A2.467,2.467,0,0,1,508.1,214.434Zm-2.258-1.8a1.5,1.5,0,0,0-1.018.35,1.583,1.583,0,0,0-.515,1.007h2.925a1.427,1.427,0,0,0-.426-1.008,1.348,1.348,0,0,0-.963-.35Z" transform="translate(-466.656 -173.03)"/>
    <path id="Trazado_102462" data-name="Trazado 102462" d="M512.967,216.33h2.6v.693h-3.9l2.575-4.184h-2.422v-.7h3.734Z" transform="translate(-469.643 -173.082)"/>
    <path id="Trazado_102463" data-name="Trazado 102463" d="M445.58,234.994V228h.9v6.994Z" transform="translate(-445.573 -178.858)"/>
    <path id="Trazado_102464" data-name="Trazado 102464" d="M453.254,231.289h.84v4.635a2.652,2.652,0,0,1-.636,1.908,2.619,2.619,0,0,1-4.114-.826l.706-.35a1.621,1.621,0,0,0,1.634,1.132,1.417,1.417,0,0,0,1.151-.477,2.053,2.053,0,0,0,.395-1.335v-.9a1.735,1.735,0,0,1-.7.706,2.143,2.143,0,0,1-2.594-.426,2.62,2.62,0,0,1,0-3.465,2.118,2.118,0,0,1,1.589-.687,2.022,2.022,0,0,1,1.023.274,1.787,1.787,0,0,1,.687.725Zm-1.545,4.012a1.5,1.5,0,0,0,1.125-.5,1.729,1.729,0,0,0,.464-1.2,1.71,1.71,0,0,0-.464-1.2,1.532,1.532,0,0,0-2.251,0,1.7,1.7,0,0,0-.464,1.214,1.716,1.716,0,0,0,.464,1.208A1.5,1.5,0,0,0,451.709,235.3Z" transform="translate(-446.921 -180.023)"/>
    <path id="Trazado_102465" data-name="Trazado 102465" d="M461.9,231.189a1.7,1.7,0,0,1,1.227.445,1.627,1.627,0,0,1,.464,1.272v3.249h-.858v-3.1a1.164,1.164,0,0,0-.3-.871,1.075,1.075,0,0,0-.769-.286,1.175,1.175,0,0,0-.865.336,1.343,1.343,0,0,0-.343,1v2.917H459.6v-4.883h.89v.636a1.628,1.628,0,0,1,1.411-.715Z" transform="translate(-450.68 -180.018)"/>
    <path id="Trazado_102466" data-name="Trazado 102466" d="M470.3,236.263a2.543,2.543,0,0,1-1.272-.306,2.175,2.175,0,0,1-.877-.884,2.664,2.664,0,0,1-.331-1.348,2.543,2.543,0,0,1,.693-1.847,2.6,2.6,0,0,1,3.535,0,2.486,2.486,0,0,1,.693,1.847,2.543,2.543,0,0,1-.693,1.847,2.385,2.385,0,0,1-1.749.693Zm0-.712a1.511,1.511,0,0,0,1.157-.5,1.907,1.907,0,0,0,.458-1.322,1.864,1.864,0,0,0-.458-1.316,1.494,1.494,0,0,0-1.157-.5,1.475,1.475,0,0,0-1.144.5,2.154,2.154,0,0,0,0,2.639,1.5,1.5,0,0,0,1.138.5Z" transform="translate(-453.672 -180.019)"/>
    <path id="Trazado_102467" data-name="Trazado 102467" d="M478.538,232.18a1.487,1.487,0,0,1,.636-.636,1.812,1.812,0,0,1,.941-.252v.808a1.609,1.609,0,0,0-1.138.363,1.511,1.511,0,0,0-.388,1.157V236.2h-.858v-4.883h.808Z" transform="translate(-457.282 -180.056)"/>
    <path id="Trazado_102468" data-name="Trazado 102468" d="M483.866,236.272a1.666,1.666,0,0,1-1.068-.336,1.2,1.2,0,0,1-.42-1,1.448,1.448,0,0,1,.133-.636,1.131,1.131,0,0,1,.394-.439,2.321,2.321,0,0,1,.579-.28,6.016,6.016,0,0,1,.737-.178l.8-.127c.286-.051.432-.2.432-.452a.833.833,0,0,0-.311-.725,1.208,1.208,0,0,0-.769-.235,1.272,1.272,0,0,0-.763.222.923.923,0,0,0-.363.687l-.776-.168a1.482,1.482,0,0,1,.636-1.043,2.251,2.251,0,0,1,1.329-.35,2.765,2.765,0,0,1,.712.089,1.906,1.906,0,0,1,.588.274,1.232,1.232,0,0,1,.42.521,1.963,1.963,0,0,1,.153.808V234.9a.871.871,0,0,0,.108.509.483.483,0,0,0,.388.133h.076v.636h-.426a.808.808,0,0,1-.924-.636h-.038a1.908,1.908,0,0,1-1.623.734Zm.2-.693a1.271,1.271,0,0,0,1.049-.477,1.907,1.907,0,0,0,.4-1.272l-1.272.252a1.737,1.737,0,0,0-.763.274.717.717,0,0,0-.007,1.068.979.979,0,0,0,.573.159Z" transform="translate(-458.974 -180.028)"/>
    <path id="Trazado_102469" data-name="Trazado 102469" d="M493.678,231.188a1.71,1.71,0,0,1,1.227.445,1.653,1.653,0,0,1,.458,1.272v3.249H494.5v-3.1a1.164,1.164,0,0,0-.3-.871,1.049,1.049,0,0,0-.763-.286,1.2,1.2,0,0,0-.871.336,1.393,1.393,0,0,0-.343,1v2.917h-.855v-4.883h.858v.636a1.628,1.628,0,0,1,1.45-.715Z" transform="translate(-462.249 -180.018)"/>
    <path id="Trazado_102470" data-name="Trazado 102470" d="M502.013,236.257a2.333,2.333,0,0,1-1.749-.7,2.771,2.771,0,0,1,0-3.662,2.543,2.543,0,0,1,3.179-.274,2.118,2.118,0,0,1,.82,1.183l-.8.133a1.463,1.463,0,0,0-1.437-1.03,1.443,1.443,0,0,0-1.132.5,2.162,2.162,0,0,0,0,2.626,1.443,1.443,0,0,0,1.132.5,1.463,1.463,0,0,0,1.437-1.03l.8.134a2.111,2.111,0,0,1-.826,1.189,2.358,2.358,0,0,1-1.425.423Z" transform="translate(-465.237 -180.018)"/>
    <path id="Trazado_102471" data-name="Trazado 102471" d="M509.269,228.882a.554.554,0,0,1-.407-.168.566.566,0,0,1-.168-.413.553.553,0,0,1,.2-.395.588.588,0,0,1,.814,0,.553.553,0,0,1,.168.407.566.566,0,0,1-.168.413.553.553,0,0,1-.436.155Zm-.432,6.027v-4.883h.865v4.87Z" transform="translate(-468.558 -178.764)"/>
    <path id="Trazado_102472" data-name="Trazado 102472" d="M513.946,236.272a1.666,1.666,0,0,1-1.068-.336,1.175,1.175,0,0,1-.42-1,1.45,1.45,0,0,1,.133-.636,1.086,1.086,0,0,1,.395-.439,2.39,2.39,0,0,1,.573-.28,6.456,6.456,0,0,1,.744-.178l.788-.127c.292-.051.432-.2.432-.452a.846.846,0,0,0-.306-.725,1.208,1.208,0,0,0-.769-.235,1.309,1.309,0,0,0-.769.222.961.961,0,0,0-.363.687l-.769-.168a1.482,1.482,0,0,1,.636-1.043,2.251,2.251,0,0,1,1.329-.35,2.676,2.676,0,0,1,.706.089,1.794,1.794,0,0,1,.588.274,1.2,1.2,0,0,1,.426.521,1.963,1.963,0,0,1,.153.808V234.9a.826.826,0,0,0,.108.509.483.483,0,0,0,.388.134h.076v.636h-.426a.808.808,0,0,1-.924-.636h-.044a1.863,1.863,0,0,1-1.618.734Zm.2-.693a1.3,1.3,0,0,0,1.049-.477,1.908,1.908,0,0,0,.395-1.272l-1.272.252a1.736,1.736,0,0,0-.756.274.717.717,0,0,0-.007,1.068.966.966,0,0,0,.59.155Z" transform="translate(-469.928 -180.028)"/>
  </g>
  <g id="Grupo_57696" data-name="Grupo 57696" transform="translate(283.118 74.123)">
    <path id="Trazado_102473" data-name="Trazado 102473" d="M450.188,117.11h1.482v7.178h-1.723l-3.179-5.131v5.131H445.28V117.11h1.73l3.179,5.086Z" transform="translate(-445.28 -116.773)"/>
    <path id="Trazado_102474" data-name="Trazado 102474" d="M462.494,122.781v.343H458.68a1.31,1.31,0,0,0,.407.934,1.386,1.386,0,0,0,1.571.146,1.112,1.112,0,0,0,.432-.515l1.31.191a2.267,2.267,0,0,1-.9,1.2,2.687,2.687,0,0,1-1.507.426,2.759,2.759,0,0,1-1.99-.706,2.543,2.543,0,0,1-.738-1.945,2.6,2.6,0,0,1,.738-1.952,2.687,2.687,0,0,1,1.945-.712,2.333,2.333,0,0,1,2.543,2.588Zm-2.543-1.577a1.132,1.132,0,0,0-1.24.986h2.347a1.075,1.075,0,0,0-.356-.731,1.126,1.126,0,0,0-.725-.252Z" transform="translate(-449.644 -117.892)"/>
    <path id="Trazado_102475" data-name="Trazado 102475" d="M470.461,120.3h1.361v4.724a3.815,3.815,0,0,1-.191,1.272,2.054,2.054,0,0,1-.553.871,2.322,2.322,0,0,1-.852.489,3.509,3.509,0,0,1-1.112.159,2.519,2.519,0,0,1-2.632-1.583l1.189-.509a1.723,1.723,0,0,0,.547.744,1.405,1.405,0,0,0,.84.235c.884,0,1.329-.521,1.329-1.577v-.61a1.608,1.608,0,0,1-.636.5,2.155,2.155,0,0,1-.909.191,2.276,2.276,0,0,1-.9-.178,2.384,2.384,0,0,1-.744-.509,2.42,2.42,0,0,1-.5-.8,3.007,3.007,0,0,1,0-2.073,2.281,2.281,0,0,1,.509-.788,2.122,2.122,0,0,1,.744-.5,2.267,2.267,0,0,1,.9-.185,2.1,2.1,0,0,1,.947.216,1.468,1.468,0,0,1,.636.559Zm-2.194,3.376a1.234,1.234,0,0,0,.934.395,1.271,1.271,0,0,0,.941-.395,1.427,1.427,0,0,0,0-1.945,1.329,1.329,0,0,0-1.908,0,1.361,1.361,0,0,0-.375.979,1.335,1.335,0,0,0,.407.966Z" transform="translate(-453.001 -117.891)"/>
    <path id="Trazado_102476" data-name="Trazado 102476" d="M481.189,124.045a4.773,4.773,0,0,0,.121,1.272v.14h-1.335l-.114-.553a1.647,1.647,0,0,1-.712.489,2.7,2.7,0,0,1-.929.168,2.333,2.333,0,0,1-.477-.044,1.7,1.7,0,0,1-.426-.153,1.274,1.274,0,0,1-.356-.267,1.081,1.081,0,0,1-.235-.4,1.672,1.672,0,0,1,0-1.112,1.4,1.4,0,0,1,.252-.413,1.584,1.584,0,0,1,.407-.306,3.184,3.184,0,0,1,.5-.216,5.961,5.961,0,0,1,.635-.159l.84-.191a.833.833,0,0,0,.375-.159.317.317,0,0,0,.114-.252.541.541,0,0,0-.252-.5,1.272,1.272,0,0,0-.635-.146.877.877,0,0,0-1,.782L476.7,121.8a1.717,1.717,0,0,1,.737-1.17,2.956,2.956,0,0,1,1.6-.375q2.149,0,2.149,1.847Zm-2.543.521a1.151,1.151,0,0,0,.884-.375,1.545,1.545,0,0,0,.343-1.091l-1.214.343a1.361,1.361,0,0,0-.509.21.432.432,0,0,0-.178.369.471.471,0,0,0,.191.4.782.782,0,0,0,.509.121Z" transform="translate(-456.697 -117.915)"/>
    <path id="Trazado_102477" data-name="Trazado 102477" d="M487.4,124.533a1.545,1.545,0,0,1-1.151-.413,1.6,1.6,0,0,1-.407-1.183v-2.41h-1.008v-1.1h.324a.858.858,0,0,0,.636-.21,1.132,1.132,0,0,0,.2-.763v-.672h1.272v1.646h1.049v1.1h-1.03v2.257c0,.445.2.636.588.636h.458v1.091Z" transform="translate(-459.687 -117.017)"/>
    <path id="Trazado_102478" data-name="Trazado 102478" d="M492.766,118.226a.814.814,0,0,1-.588-.242.8.8,0,0,1-.242-.588.782.782,0,0,1,.252-.578.82.82,0,1,1,1.157,1.164.8.8,0,0,1-.579.244Zm-.725,5.869v-5.086h1.437V124.1Z" transform="translate(-462.272 -116.58)"/>
    <path id="Trazado_102479" data-name="Trazado 102479" d="M499.582,120.37h1.511l-2.174,5.086h-1.269L495.5,120.37h1.507l1.272,3.491Z" transform="translate(-463.569 -117.96)"/>
    <path id="Trazado_102480" data-name="Trazado 102480" d="M507.3,125.537a3.274,3.274,0,0,1-1.443-.311,2.351,2.351,0,0,1-.991-.924,2.709,2.709,0,0,1-.363-1.427,2.544,2.544,0,0,1,.776-1.908,3.237,3.237,0,0,1,4.05,0,2.823,2.823,0,0,1,0,3.885,2.9,2.9,0,0,1-2.028.685Zm0-1.138a1.316,1.316,0,0,0,1.008-.42,1.552,1.552,0,0,0,.381-1.1,1.584,1.584,0,0,0-.381-1.107,1.335,1.335,0,0,0-1.007-.413,1.272,1.272,0,0,0-.986.42,1.8,1.8,0,0,0,0,2.2,1.272,1.272,0,0,0,.973.42Z" transform="translate(-466.846 -117.919)"/>
  </g>
</svg>
