<svg id="info_1_4-07" xmlns="http://www.w3.org/2000/svg" width="358.322" height="191.025" viewBox="0 0 358.322 191.025">
  <rect id="Rectángulo_5405" data-name="Rectángulo 5405" width="179.161" height="145.247" fill="#8cc63f"/>
  <rect id="Rectángulo_5406" data-name="Rectángulo 5406" width="179.161" height="191.025" transform="translate(179.161)" fill="#f2f2f2"/>
  <rect id="Rectángulo_5407" data-name="Rectángulo 5407" width="44.787" height="45.779" transform="translate(0 145.247)" fill="#8cc63f"/>
  <g id="Grupo_57714" data-name="Grupo 57714" transform="translate(44.787 145.247)" opacity="0.75">
    <rect id="Rectángulo_5408" data-name="Rectángulo 5408" width="44.787" height="45.779" fill="#8cc63f"/>
  </g>
  <g id="Grupo_57715" data-name="Grupo 57715" transform="translate(89.58 145.247)" opacity="0.5">
    <rect id="Rectángulo_5409" data-name="Rectángulo 5409" width="44.787" height="45.779" fill="#8cc63f"/>
  </g>
  <g id="Grupo_57716" data-name="Grupo 57716" transform="translate(134.367 145.247)" opacity="0.25">
    <rect id="Rectángulo_5410" data-name="Rectángulo 5410" width="44.787" height="45.779" fill="#8cc63f"/>
  </g>
  <g id="Grupo_57717" data-name="Grupo 57717" transform="translate(200.143 34.271)">
    <path id="Trazado_102713" data-name="Trazado 102713" d="M327.474,55.59h3.758l-6.3,17.043h-3.892L314.78,55.59h3.751l4.45,12.92Z" transform="translate(-314.78 -54.515)"/>
    <path id="Trazado_102714" data-name="Trazado 102714" d="M352.919,69.06v.814h-9a3.178,3.178,0,0,0,.966,2.219,3.122,3.122,0,0,0,2.137.763,3,3,0,0,0,1.6-.42,2.582,2.582,0,0,0,1.018-1.221l3.116.464a5.341,5.341,0,0,1-2.123,2.842,6.358,6.358,0,0,1-3.586,1.007,6.555,6.555,0,0,1-4.724-1.666,6.978,6.978,0,0,1,.008-9.264,6.358,6.358,0,0,1,4.609-1.691,5.52,5.52,0,0,1,5.983,6.148Zm-5.983-3.745a2.687,2.687,0,0,0-2.95,2.34h5.57a2.543,2.543,0,0,0-.84-1.735,2.657,2.657,0,0,0-1.755-.6Z" transform="translate(-324.167 -57.177)"/>
    <path id="Trazado_102715" data-name="Trazado 102715" d="M367.355,65.152a3.946,3.946,0,0,1,1.6-1.456,4.813,4.813,0,0,1,2.365-.636v3.022a4.618,4.618,0,0,0-2.9.751,3.2,3.2,0,0,0-.9,2.6v5.92H364.1V63.231h3.255Z" transform="translate(-332.741 -57.236)"/>
    <path id="Trazado_102716" data-name="Trazado 102716" d="M386.536,53.9h3.393V72.021h-3.224l-.084-1.577a3.5,3.5,0,0,1-1.539,1.374,5.205,5.205,0,0,1-2.267.489,5.863,5.863,0,0,1-2.267-.439,5.481,5.481,0,0,1-3.116-3.23A7.429,7.429,0,0,1,377,65.981a6.885,6.885,0,0,1,.8-3.376,5.442,5.442,0,0,1,2.117-2.2,5.83,5.83,0,0,1,2.906-.719,5.354,5.354,0,0,1,2.2.439,3.516,3.516,0,0,1,1.52,1.272ZM383.6,69.484a3,3,0,0,0,2.289-.966,3.974,3.974,0,0,0,0-5.086,3.007,3.007,0,0,0-2.283-.973,3.045,3.045,0,0,0-2.308.96,4.018,4.018,0,0,0,0,5.086,3.065,3.065,0,0,0,2.308.979Z" transform="translate(-337.439 -53.9)"/>
    <path id="Trazado_102717" data-name="Trazado 102717" d="M413.726,69.071l-.032.814H404.7a3.128,3.128,0,0,0,.966,2.219,3.1,3.1,0,0,0,2.137.763,2.975,2.975,0,0,0,1.583-.42,2.594,2.594,0,0,0,1.036-1.208l3.106.464a5.309,5.309,0,0,1-2.123,2.842,6.313,6.313,0,0,1-3.586,1.008,6.575,6.575,0,0,1-4.724-1.666,7,7,0,0,1,.006-9.264,6.358,6.358,0,0,1,4.618-1.691,6.084,6.084,0,0,1,4.349,1.545,6.023,6.023,0,0,1,1.654,4.594Zm-5.983-3.745a2.687,2.687,0,0,0-2.95,2.34h5.57a2.543,2.543,0,0,0-.829-1.739,2.676,2.676,0,0,0-1.791-.6Z" transform="translate(-346.304 -57.187)"/>
  </g>
  <g id="Grupo_57718" data-name="Grupo 57718" transform="translate(202.896 95.965)">
    <path id="Trazado_102718" data-name="Trazado 102718" d="M324.419,158.214l-.6-1.672h-3.179l-.6,1.672h-.929l2.575-6.994h1.062l2.582,6.994Zm-3.472-2.454h2.6l-1.335-3.643Z" transform="translate(-319.11 -151.036)"/>
    <path id="Trazado_102719" data-name="Trazado 102719" d="M331.614,155.38a1.511,1.511,0,0,1,.636-.636,1.806,1.806,0,0,1,.934-.252v.808a1.6,1.6,0,0,0-1.132.363,1.511,1.511,0,0,0-.394,1.157v2.6H330.8V154.54h.84Z" transform="translate(-323.367 -152.227)"/>
    <path id="Trazado_102720" data-name="Trazado 102720" d="M341.123,154.389a1.564,1.564,0,0,1,1.138.42,1.532,1.532,0,0,1,.432,1.164v3.4h-.858v-3.179a1.113,1.113,0,0,0-.267-.808.941.941,0,0,0-.68-.274.979.979,0,0,0-.751.311,1.343,1.343,0,0,0-.28.924v3.022h-.877V156.22a1.151,1.151,0,0,0-.267-.827.923.923,0,0,0-.693-.286.96.96,0,0,0-.744.318,1.374,1.374,0,0,0-.286.947v2.988H336.1v-4.878h.858v.636a1.5,1.5,0,0,1,.559-.534,1.577,1.577,0,0,1,.776-.191,1.621,1.621,0,0,1,.833.21,1.272,1.272,0,0,1,.547.588,1.456,1.456,0,0,1,.588-.588A1.64,1.64,0,0,1,341.123,154.389Z" transform="translate(-325.297 -152.189)"/>
    <path id="Trazado_102721" data-name="Trazado 102721" d="M350.849,159.463a2.543,2.543,0,0,1-1.272-.3,2.175,2.175,0,0,1-.877-.884,2.665,2.665,0,0,1-.331-1.348,2.543,2.543,0,0,1,.693-1.847,2.6,2.6,0,0,1,3.535,0,2.8,2.8,0,0,1,0,3.687A2.384,2.384,0,0,1,350.849,159.463Zm0-.712a1.511,1.511,0,0,0,1.157-.5,1.908,1.908,0,0,0,.458-1.322,1.863,1.863,0,0,0-.458-1.316,1.494,1.494,0,0,0-1.157-.5,1.475,1.475,0,0,0-1.144.5,2.154,2.154,0,0,0,0,2.639,1.5,1.5,0,0,0,1.138.5Z" transform="translate(-329.764 -152.19)"/>
    <path id="Trazado_102722" data-name="Trazado 102722" d="M360.559,154.389a1.7,1.7,0,0,1,1.227.445,1.653,1.653,0,0,1,.464,1.272v3.287h-.865V156.3a1.17,1.17,0,0,0-.292-.877,1.075,1.075,0,0,0-.769-.286,1.175,1.175,0,0,0-.865.336,1.343,1.343,0,0,0-.343,1v2.918h-.865v-4.883h.865v.636a1.621,1.621,0,0,1,1.443-.756Z" transform="translate(-333.364 -152.189)"/>
    <path id="Trazado_102723" data-name="Trazado 102723" d="M367.067,158.107v-4.883h.858v4.883Z" transform="translate(-336.522 -150.928)"/>
    <path id="Trazado_102724" data-name="Trazado 102724" d="M372.143,159.47a1.685,1.685,0,0,1-1.075-.336,1.2,1.2,0,0,1-.42-1,1.323,1.323,0,0,1,.14-.636,1.062,1.062,0,0,1,.394-.445,2.392,2.392,0,0,1,.573-.28,5.417,5.417,0,0,1,.744-.168l.788-.134c.292-.051.432-.2.432-.452a.845.845,0,0,0-.3-.725,1.208,1.208,0,0,0-.769-.235,1.31,1.31,0,0,0-.769.223.961.961,0,0,0-.363.687l-.769-.159a1.482,1.482,0,0,1,.636-1.049,2.251,2.251,0,0,1,1.329-.35,2.676,2.676,0,0,1,.706.089,1.792,1.792,0,0,1,.588.274,1.2,1.2,0,0,1,.426.521,1.963,1.963,0,0,1,.153.808v2.015a.826.826,0,0,0,.108.509.484.484,0,0,0,.388.134h.076v.636h-.426a.808.808,0,0,1-.924-.636h-.045a1.847,1.847,0,0,1-1.618.707Zm.2-.693a1.3,1.3,0,0,0,1.049-.477,1.908,1.908,0,0,0,.395-1.272l-1.272.252a1.736,1.736,0,0,0-.756.274.705.705,0,0,0-.007,1.068.954.954,0,0,0,.61.159Z" transform="translate(-337.878 -152.197)"/>
    <path id="Trazado_102725" data-name="Trazado 102725" d="M323.713,173.777a1.818,1.818,0,0,1,1.007.636,1.71,1.71,0,0,1,.375,1.144,1.837,1.837,0,0,1-.541,1.367,1.952,1.952,0,0,1-1.437.528H320.4v-6.994h2.117a2.149,2.149,0,0,1,1.5.515,1.735,1.735,0,0,1,.566,1.343,1.8,1.8,0,0,1-.223.9A1.461,1.461,0,0,1,323.713,173.777Zm.038-1.437a1.068,1.068,0,0,0-.336-.808,1.272,1.272,0,0,0-.9-.318H321.24V173.5h1.45a1,1,0,0,0,.776-.331,1.22,1.22,0,0,0,.285-.826Zm-.783,4.3a1.271,1.271,0,0,0,.924-.343,1.233,1.233,0,0,0,0-1.723,1.36,1.36,0,0,0-.973-.336h-1.646v2.4Z" transform="translate(-319.58 -158.041)"/>
    <path id="Trazado_102726" data-name="Trazado 102726" d="M330.956,178.67a1.628,1.628,0,0,1-1.068-.336,1.2,1.2,0,0,1-.42-1,1.4,1.4,0,0,1,.133-.636,1.105,1.105,0,0,1,.395-.445,2.388,2.388,0,0,1,.573-.28,5.417,5.417,0,0,1,.744-.168l.788-.134c.292-.051.432-.2.432-.452a.845.845,0,0,0-.3-.725,1.208,1.208,0,0,0-.769-.235,1.233,1.233,0,0,0-.763.229.9.9,0,0,0-.363.68l-.776-.159a1.482,1.482,0,0,1,.636-1.049,2.25,2.25,0,0,1,1.329-.35,2.678,2.678,0,0,1,.706.089,1.793,1.793,0,0,1,.588.274,1.2,1.2,0,0,1,.426.521,1.966,1.966,0,0,1,.153.808v2.015a.871.871,0,0,0,.108.509.484.484,0,0,0,.388.133h.076v.636h-.426a.808.808,0,0,1-.923-.636h-.038a1.869,1.869,0,0,1-1.625.707Zm.2-.693a1.316,1.316,0,0,0,1.049-.47,1.951,1.951,0,0,0,.4-1.272l-1.272.252a1.736,1.736,0,0,0-.756.274.717.717,0,0,0-.007,1.068.967.967,0,0,0,.584.149Z" transform="translate(-322.881 -159.189)"/>
    <path id="Trazado_102727" data-name="Trazado 102727" d="M338.42,177.05v-7.63h.871v7.63Z" transform="translate(-326.142 -157.664)"/>
    <path id="Trazado_102728" data-name="Trazado 102728" d="M343.456,178.67a1.628,1.628,0,0,1-1.068-.336,1.2,1.2,0,0,1-.42-1,1.4,1.4,0,0,1,.133-.636,1.105,1.105,0,0,1,.395-.445,2.388,2.388,0,0,1,.573-.28,5.421,5.421,0,0,1,.744-.168l.788-.133c.292-.051.432-.2.432-.452a.846.846,0,0,0-.3-.725,1.208,1.208,0,0,0-.769-.235,1.233,1.233,0,0,0-.763.229.9.9,0,0,0-.363.68l-.776-.159a1.481,1.481,0,0,1,.636-1.049,2.251,2.251,0,0,1,1.329-.35,2.677,2.677,0,0,1,.706.089,1.793,1.793,0,0,1,.588.274,1.2,1.2,0,0,1,.426.521,1.967,1.967,0,0,1,.153.808v2.015a.871.871,0,0,0,.108.509.484.484,0,0,0,.388.133h.044v.636h-.426a.808.808,0,0,1-.923-.636h-.038a1.869,1.869,0,0,1-1.593.707Zm.2-.693a1.317,1.317,0,0,0,1.049-.47,1.951,1.951,0,0,0,.4-1.272l-1.272.252a1.736,1.736,0,0,0-.756.274.717.717,0,0,0-.007,1.068.966.966,0,0,0,.584.149Z" transform="translate(-327.434 -159.189)"/>
    <path id="Trazado_102729" data-name="Trazado 102729" d="M353.221,173.589a1.717,1.717,0,0,1,1.233.445,1.653,1.653,0,0,1,.458,1.272v3.287h-.858V175.5a1.169,1.169,0,0,0-.3-.877,1.049,1.049,0,0,0-.763-.28,1.175,1.175,0,0,0-.871.331,1.393,1.393,0,0,0-.343,1v2.918h-.857V173.71h.858v.636a1.628,1.628,0,0,1,1.443-.756Z" transform="translate(-330.695 -159.182)"/>
    <path id="Trazado_102730" data-name="Trazado 102730" d="M361.6,178.656a2.333,2.333,0,0,1-1.749-.7,2.771,2.771,0,0,1,0-3.662,2.34,2.34,0,0,1,1.755-.706,2.365,2.365,0,0,1,1.411.432,2.117,2.117,0,0,1,.82,1.183l-.8.133a1.463,1.463,0,0,0-1.437-1.03,1.443,1.443,0,0,0-1.132.5,2.169,2.169,0,0,0,0,2.632,1.526,1.526,0,0,0,2.569-.534l.8.134a2.143,2.143,0,0,1-.826,1.189,2.359,2.359,0,0,1-1.411.425Z" transform="translate(-333.697 -159.182)"/>
    <path id="Trazado_102731" data-name="Trazado 102731" d="M372.566,176.046v.235h-3.815a1.71,1.71,0,0,0,.464,1.272,1.526,1.526,0,0,0,1.112.439,1.475,1.475,0,0,0,1.367-.884l.776.168a2.206,2.206,0,0,1-.833,1.049,2.282,2.282,0,0,1-1.272.381,2.384,2.384,0,0,1-1.763-.68,2.906,2.906,0,0,1,0-3.713,2.326,2.326,0,0,1,1.729-.68,2.2,2.2,0,0,1,1.641.636,2.473,2.473,0,0,1,.588,1.78Zm-2.257-1.78a1.532,1.532,0,0,0-1.018.35,1.583,1.583,0,0,0-.515,1.007H371.7a1.427,1.427,0,0,0-.426-1.008,1.374,1.374,0,0,0-.967-.35Z" transform="translate(-336.89 -159.197)"/>
    <path id="Trazado_102732" data-name="Trazado 102732" d="M324.145,190.434h-2.836v2.289h2.5v.8h-2.5v2.289h2.836v.808H320.4V189.62h3.745Z" transform="translate(-319.58 -165.021)"/>
    <path id="Trazado_102733" data-name="Trazado 102733" d="M329.927,197.87a2.308,2.308,0,0,1-1.316-.35,1.468,1.468,0,0,1-.635-1.007l.751-.216a1.08,1.08,0,0,0,.4.68,1.316,1.316,0,0,0,.8.242,1.8,1.8,0,0,0,.47-.064.814.814,0,0,0,.363-.242.692.692,0,0,0,.146-.445.681.681,0,0,0-.044-.2.743.743,0,0,0-.076-.159.407.407,0,0,0-.14-.134,1.458,1.458,0,0,0-.168-.108,1.325,1.325,0,0,0-.217-.089l-.242-.084-.274-.076-.28-.084c-.2-.064-.375-.121-.509-.178a2.325,2.325,0,0,1-.413-.235.947.947,0,0,1-.318-.388,1.31,1.31,0,0,1-.108-.547,1.272,1.272,0,0,1,.242-.782,1.348,1.348,0,0,1,.636-.458,2.442,2.442,0,0,1,.865-.14,2.123,2.123,0,0,1,1.189.318,1.361,1.361,0,0,1,.6.954l-.706.178a.916.916,0,0,0-.375-.636,1.157,1.157,0,0,0-.7-.21,1.214,1.214,0,0,0-.636.168.578.578,0,0,0-.274.528.54.54,0,0,0,.07.267,1.042,1.042,0,0,0,.146.191.8.8,0,0,0,.274.146,2.292,2.292,0,0,0,.286.108l.356.089h.076l.47.133a3.405,3.405,0,0,1,.42.178,1.543,1.543,0,0,1,.381.267,1.333,1.333,0,0,1,.336.9,1.469,1.469,0,0,1-.146.636,1.092,1.092,0,0,1-.4.445,1.742,1.742,0,0,1-.566.252,2.64,2.64,0,0,1-.731.151Z" transform="translate(-322.34 -166.181)"/>
    <path id="Trazado_102734" data-name="Trazado 102734" d="M337.141,196.884a1.272,1.272,0,0,1-.954-.35,1.315,1.315,0,0,1-.349-.973v-2.886h-1v-.685h.369a.719.719,0,0,0,.541-.168.859.859,0,0,0,.153-.573v-.888h.8v1.629h1.125v.687H336.7v2.785a.744.744,0,0,0,.185.534.636.636,0,0,0,.49.191h.452v.687Z" transform="translate(-324.839 -165.29)"/>
    <path id="Trazado_102735" data-name="Trazado 102735" d="M342.315,197.87a1.666,1.666,0,0,1-1.068-.336,1.175,1.175,0,0,1-.42-1,1.449,1.449,0,0,1,.134-.636,1.091,1.091,0,0,1,.395-.438,2.389,2.389,0,0,1,.573-.28,6.449,6.449,0,0,1,.744-.178l.788-.127c.292-.051.432-.2.432-.452a.845.845,0,0,0-.3-.725,1.208,1.208,0,0,0-.769-.235,1.31,1.31,0,0,0-.769.223.96.96,0,0,0-.363.687l-.75-.168a1.481,1.481,0,0,1,.636-1.043,2.251,2.251,0,0,1,1.329-.35,2.677,2.677,0,0,1,.706.089,1.793,1.793,0,0,1,.588.274,1.2,1.2,0,0,1,.426.521,1.964,1.964,0,0,1,.153.808v2.015a.826.826,0,0,0,.108.509.484.484,0,0,0,.388.133h.076v.636h-.427a.808.808,0,0,1-.924-.636h-.044a1.847,1.847,0,0,1-1.637.706Zm.2-.693a1.3,1.3,0,0,0,1.049-.477,1.907,1.907,0,0,0,.395-1.272l-1.272.252a1.737,1.737,0,0,0-.756.274.717.717,0,0,0-.007,1.068.967.967,0,0,0,.588.159Z" transform="translate(-327.018 -166.182)"/>
    <path id="Trazado_102736" data-name="Trazado 102736" d="M352.375,191.271a2.136,2.136,0,0,1,1.615.706,2.588,2.588,0,0,1,.636,1.838,2.62,2.62,0,0,1-.636,1.838,2.13,2.13,0,0,1-1.621.706,1.945,1.945,0,0,1-1.043-.286,1.818,1.818,0,0,1-.7-.769v.947H349.8V188.62h.852V192.3a1.806,1.806,0,0,1,.7-.751,1.952,1.952,0,0,1,1.023-.275Zm-.191,4.336a1.5,1.5,0,0,0,1.144-.5,1.837,1.837,0,0,0,.464-1.272,1.869,1.869,0,0,0-.464-1.272,1.5,1.5,0,0,0-1.144-.5,1.463,1.463,0,0,0-1.132.515,1.908,1.908,0,0,0-.464,1.272,1.847,1.847,0,0,0,.464,1.272,1.468,1.468,0,0,0,1.132.477Z" transform="translate(-330.287 -164.656)"/>
    <path id="Trazado_102737" data-name="Trazado 102737" d="M359.908,190.479a.566.566,0,0,1-.413-.168.588.588,0,0,1-.168-.413.572.572,0,0,1,.168-.407.588.588,0,0,1,.82,0,.553.553,0,0,1,.168.407.588.588,0,0,1-.579.588Zm-.439,6.027v-4.883h.865v4.883Z" transform="translate(-333.757 -164.912)"/>
    <path id="Trazado_102738" data-name="Trazado 102738" d="M363.66,196.25v-7.63h.852v7.63Z" transform="translate(-335.334 -164.656)"/>
    <path id="Trazado_102739" data-name="Trazado 102739" d="M368.135,190.478a.588.588,0,0,1-.588-.588.553.553,0,0,1,.168-.407.588.588,0,0,1,.413-.168.565.565,0,0,1,.4.168.553.553,0,0,1,.168.407.566.566,0,0,1-.168.413.547.547,0,0,1-.394.175Zm-.439,6.027v-4.883h.865v4.883Z" transform="translate(-336.751 -164.91)"/>
    <path id="Trazado_102740" data-name="Trazado 102740" d="M375.275,188.62h.858v7.63h-.827V195.3a1.818,1.818,0,0,1-.7.769,1.907,1.907,0,0,1-1.03.286,2.244,2.244,0,0,1-1.615-.693,2.365,2.365,0,0,1-.49-.808,2.919,2.919,0,0,1-.185-1.043,2.543,2.543,0,0,1,.672-1.838,2.13,2.13,0,0,1,1.621-.706,1.946,1.946,0,0,1,1.018.28,1.831,1.831,0,0,1,.7.744Zm-1.539,6.994a1.468,1.468,0,0,0,1.132-.509,2.009,2.009,0,0,0,0-2.543,1.469,1.469,0,0,0-1.132-.515,1.5,1.5,0,0,0-1.144.5,1.87,1.87,0,0,0-.464,1.272,1.837,1.837,0,0,0,.464,1.272,1.5,1.5,0,0,0,1.144.521Z" transform="translate(-338.112 -164.656)"/>
    <path id="Trazado_102741" data-name="Trazado 102741" d="M382.576,197.874a1.666,1.666,0,0,1-1.068-.336,1.2,1.2,0,0,1-.42-1,1.45,1.45,0,0,1,.133-.636,1.107,1.107,0,0,1,.4-.438,2.172,2.172,0,0,1,.573-.28,5.856,5.856,0,0,1,.744-.178l.788-.127c.286-.051.432-.2.432-.452a.846.846,0,0,0-.306-.725,1.228,1.228,0,0,0-.776-.235,1.272,1.272,0,0,0-.763.222.96.96,0,0,0-.363.687l-.776-.168a1.526,1.526,0,0,1,.636-1.043,2.289,2.289,0,0,1,1.335-.349,2.745,2.745,0,0,1,.706.089,1.856,1.856,0,0,1,.588.274,1.233,1.233,0,0,1,.42.521,1.966,1.966,0,0,1,.153.808v2.015a.82.82,0,0,0,.114.509.47.47,0,0,0,.381.133h.084v.636h-.426c-.528,0-.84-.216-.929-.636h-.032a1.847,1.847,0,0,1-1.63.705Zm.2-.693a1.3,1.3,0,0,0,1.049-.477,1.958,1.958,0,0,0,.395-1.272l-1.272.252a1.7,1.7,0,0,0-.756.274.711.711,0,0,0-.013,1.068.986.986,0,0,0,.594.154Z" transform="translate(-341.68 -166.184)"/>
    <path id="Trazado_102742" data-name="Trazado 102742" d="M393.275,188.62h.858v7.63h-.827V195.3a1.819,1.819,0,0,1-.7.769,1.907,1.907,0,0,1-1.03.286,2.244,2.244,0,0,1-1.615-.693,2.365,2.365,0,0,1-.49-.808,2.917,2.917,0,0,1-.185-1.043,2.543,2.543,0,0,1,.672-1.838,2.13,2.13,0,0,1,1.621-.706,1.946,1.946,0,0,1,1.018.28,1.831,1.831,0,0,1,.7.744Zm-1.539,6.994a1.468,1.468,0,0,0,1.132-.509,2.009,2.009,0,0,0,0-2.543,1.469,1.469,0,0,0-1.132-.515,1.5,1.5,0,0,0-1.144.5,1.869,1.869,0,0,0-.464,1.272,1.837,1.837,0,0,0,.464,1.272,1.5,1.5,0,0,0,1.144.521Z" transform="translate(-344.666 -164.656)"/>
    <path id="Trazado_102743" data-name="Trazado 102743" d="M322.224,215.907a3.179,3.179,0,0,1-1.824-.5,2.079,2.079,0,0,1-.909-1.354l.9-.216a1.45,1.45,0,0,0,.636.954,2.105,2.105,0,0,0,1.233.349,2.686,2.686,0,0,0,.464-.038,2.306,2.306,0,0,0,.42-.133,1.342,1.342,0,0,0,.343-.229.953.953,0,0,0,.229-.343,1.081,1.081,0,0,0,.076-.464.923.923,0,0,0-.057-.331,1.11,1.11,0,0,0-.14-.261.851.851,0,0,0-.235-.21,2.428,2.428,0,0,0-.286-.168,2.641,2.641,0,0,0-.349-.14l-.369-.114-.4-.114h-.076l-.47-.127-.432-.153a2.336,2.336,0,0,1-.413-.191,3.145,3.145,0,0,1-.343-.242,1.062,1.062,0,0,1-.28-.311,1.5,1.5,0,0,1-.168-.395,1.769,1.769,0,0,1-.064-.5,1.793,1.793,0,0,1,.324-1.075,1.939,1.939,0,0,1,.84-.636,3.023,3.023,0,0,1,1.157-.21,3.179,3.179,0,0,1,1.679.432,1.907,1.907,0,0,1,.89,1.272l-.865.216a1.272,1.272,0,0,0-.578-.858,2,2,0,0,0-1.091-.286,2.048,2.048,0,0,0-.534.064,1.443,1.443,0,0,0-.464.2.929.929,0,0,0-.336.363,1.145,1.145,0,0,0-.127.534.877.877,0,0,0,.178.534,1.041,1.041,0,0,0,.21.191l.261.159a3.191,3.191,0,0,0,.324.127l.349.108.381.1a7.985,7.985,0,0,1,1.348.445,1.7,1.7,0,0,1,1.036,1.272,2.3,2.3,0,0,1,0,.3,1.945,1.945,0,0,1-.2.9,1.66,1.66,0,0,1-.553.636,2.906,2.906,0,0,1-.783.349,3.707,3.707,0,0,1-.924.084Z" transform="translate(-319.248 -171.991)"/>
    <path id="Trazado_102744" data-name="Trazado 102744" d="M334.036,214.454v.235h-3.815a1.71,1.71,0,0,0,.464,1.272,1.525,1.525,0,0,0,1.112.439,1.482,1.482,0,0,0,.808-.235,1.506,1.506,0,0,0,.559-.636l.776.168a2.244,2.244,0,0,1-.833,1.049,2.283,2.283,0,0,1-1.272.381,2.372,2.372,0,0,1-1.763-.68,2.543,2.543,0,0,1-.672-1.856,2.5,2.5,0,0,1,.672-1.847,2.308,2.308,0,0,1,1.73-.687,2.2,2.2,0,0,1,1.641.636A2.474,2.474,0,0,1,334.036,214.454Zm-2.257-1.78a1.5,1.5,0,0,0-1.018.35,1.583,1.583,0,0,0-.516,1.007h2.925a1.427,1.427,0,0,0-.426-1.007,1.348,1.348,0,0,0-.966-.369Z" transform="translate(-322.857 -173.19)"/>
    <path id="Trazado_102745" data-name="Trazado 102745" d="M342.1,212.089h.833v4.635a2.651,2.651,0,0,1-.636,1.908,2.619,2.619,0,0,1-4.114-.826l.706-.349a1.621,1.621,0,0,0,1.634,1.132,1.392,1.392,0,0,0,1.144-.477,2.015,2.015,0,0,0,.4-1.335v-.9a1.735,1.735,0,0,1-.7.706,2.143,2.143,0,0,1-2.594-.426,2.4,2.4,0,0,1-.636-1.735,2.377,2.377,0,0,1,.636-1.73,2.111,2.111,0,0,1,1.59-.689,2,2,0,0,1,1.018.274,1.763,1.763,0,0,1,.693.725Zm-1.552,4.018a1.475,1.475,0,0,0,1.125-.5,1.78,1.78,0,0,0,0-2.39,1.482,1.482,0,0,0-1.132-.5,1.463,1.463,0,0,0-1.119.489,1.673,1.673,0,0,0-.464,1.208,1.717,1.717,0,0,0,.464,1.208A1.511,1.511,0,0,0,340.548,216.107Z" transform="translate(-326.039 -173.171)"/>
    <path id="Trazado_102746" data-name="Trazado 102746" d="M351.433,212.129h.858v4.883h-.826v-.636a1.565,1.565,0,0,1-.6.547,1.907,1.907,0,0,1-.858.191,1.7,1.7,0,0,1-1.228-.439,1.66,1.66,0,0,1-.458-1.272V212.11h.858v3.106a1.164,1.164,0,0,0,.3.877,1.074,1.074,0,0,0,.769.286,1.175,1.175,0,0,0,.865-.336,1.406,1.406,0,0,0,.343-1Z" transform="translate(-329.745 -173.211)"/>
    <path id="Trazado_102747" data-name="Trazado 102747" d="M358.16,212.98a1.488,1.488,0,0,1,.6-.636,1.831,1.831,0,0,1,.941-.252v.808a1.621,1.621,0,0,0-1.138.363,1.511,1.511,0,0,0-.388,1.157v2.6h-.858V212.14h.84Z" transform="translate(-333.025 -173.204)"/>
    <path id="Trazado_102748" data-name="Trazado 102748" d="M363.009,209.68a.553.553,0,0,1-.407-.168.566.566,0,0,1-.168-.413.553.553,0,0,1,.168-.407.588.588,0,0,1,.814,0,.553.553,0,0,1,.168.407.566.566,0,0,1-.168.413A.552.552,0,0,1,363.009,209.68Zm-.439,6.027v-4.883h.858v4.883Z" transform="translate(-334.887 -171.905)"/>
    <path id="Trazado_102749" data-name="Trazado 102749" d="M370.148,207.82h.865v7.63h-.833V214.5a1.8,1.8,0,0,1-.693.769,1.94,1.94,0,0,1-1.036.286,2.2,2.2,0,0,1-.884-.185,2.079,2.079,0,0,1-.725-.509,2.314,2.314,0,0,1-.5-.8,2.981,2.981,0,0,1-.178-1.049,2.588,2.588,0,0,1,.636-1.838,2.149,2.149,0,0,1,1.621-.706,1.966,1.966,0,0,1,1.023.28,1.818,1.818,0,0,1,.693.744Zm-1.539,6.994a1.463,1.463,0,0,0,1.138-.515,1.87,1.87,0,0,0,.458-1.272,1.831,1.831,0,0,0-.464-1.272,1.45,1.45,0,0,0-1.132-.515,1.488,1.488,0,0,0-1.138.5,2.054,2.054,0,0,0,0,2.6,1.5,1.5,0,0,0,1.132.477Z" transform="translate(-336.247 -171.649)"/>
    <path id="Trazado_102750" data-name="Trazado 102750" d="M377.456,217.1a1.628,1.628,0,0,1-1.068-.336,1.2,1.2,0,0,1-.42-1,1.4,1.4,0,0,1,.134-.636,1.105,1.105,0,0,1,.395-.445,2.389,2.389,0,0,1,.573-.28,5.421,5.421,0,0,1,.744-.168l.788-.134c.292-.051.432-.2.432-.452a.845.845,0,0,0-.3-.725,1.208,1.208,0,0,0-.769-.235,1.234,1.234,0,0,0-.763.229.9.9,0,0,0-.363.68l-.776-.159a1.482,1.482,0,0,1,.636-1.049,2.251,2.251,0,0,1,1.329-.35,2.677,2.677,0,0,1,.706.089,1.794,1.794,0,0,1,.588.274,1.2,1.2,0,0,1,.426.521,1.963,1.963,0,0,1,.153.808v2.015a.871.871,0,0,0,.108.509.483.483,0,0,0,.388.133h.045v.636h-.426a.808.808,0,0,1-.924-.636h-.038a1.907,1.907,0,0,1-1.593.707Zm.2-.693a1.316,1.316,0,0,0,1.049-.47,1.952,1.952,0,0,0,.4-1.272l-1.272.252a1.818,1.818,0,0,0-.756.274.717.717,0,0,0-.007,1.068.966.966,0,0,0,.588.133Z" transform="translate(-339.815 -173.185)"/>
    <path id="Trazado_102751" data-name="Trazado 102751" d="M388.148,207.82h.865v7.63h-.833V214.5a1.8,1.8,0,0,1-.693.769,1.94,1.94,0,0,1-1.036.286,2.2,2.2,0,0,1-.884-.185,2.079,2.079,0,0,1-.725-.509,2.315,2.315,0,0,1-.5-.8,2.98,2.98,0,0,1-.178-1.049,2.588,2.588,0,0,1,.635-1.838,2.15,2.15,0,0,1,1.621-.706,1.966,1.966,0,0,1,1.023.28,1.819,1.819,0,0,1,.693.744Zm-1.539,6.994a1.463,1.463,0,0,0,1.138-.515,1.87,1.87,0,0,0,.458-1.272,1.832,1.832,0,0,0-.464-1.272,1.45,1.45,0,0,0-1.132-.515,1.488,1.488,0,0,0-1.139.5,2.054,2.054,0,0,0,0,2.6,1.5,1.5,0,0,0,1.132.477Z" transform="translate(-342.802 -171.649)"/>
    <path id="Trazado_102752" data-name="Trazado 102752" d="M323.045,228a2.028,2.028,0,0,1,1.091.292,1.964,1.964,0,0,1,.738.776,2.276,2.276,0,0,1,.252,1.081,2.1,2.1,0,0,1-.578,1.52,1.99,1.99,0,0,1-1.507.636h-1.763v2.687H320.4V228Zm-.127,3.5a1.272,1.272,0,0,0,.973-.375,1.572,1.572,0,0,0,0-1.977,1.272,1.272,0,0,0-.973-.381h-1.634V231.5Z" transform="translate(-319.58 -178.997)"/>
    <path id="Trazado_102753" data-name="Trazado 102753" d="M330.143,236.269a1.685,1.685,0,0,1-1.075-.336,1.2,1.2,0,0,1-.42-1,1.323,1.323,0,0,1,.14-.636,1.062,1.062,0,0,1,.394-.445,2.391,2.391,0,0,1,.573-.28,6.445,6.445,0,0,1,.744-.178l.788-.127c.292-.051.432-.2.432-.452a.845.845,0,0,0-.306-.725,1.208,1.208,0,0,0-.769-.235,1.309,1.309,0,0,0-.769.222.96.96,0,0,0-.363.687l-.769-.168a1.482,1.482,0,0,1,.636-1.043,2.251,2.251,0,0,1,1.329-.35,2.677,2.677,0,0,1,.706.089,1.794,1.794,0,0,1,.588.274,1.2,1.2,0,0,1,.426.521,1.963,1.963,0,0,1,.153.808v1.99a.826.826,0,0,0,.108.509.483.483,0,0,0,.388.133h.076v.636h-.427a.808.808,0,0,1-.923-.636h-.045a1.847,1.847,0,0,1-1.621.737Zm.2-.693a1.3,1.3,0,0,0,1.049-.477,1.908,1.908,0,0,0,.395-1.272l-1.272.252a1.735,1.735,0,0,0-.756.274.705.705,0,0,0-.007,1.068.954.954,0,0,0,.61.159Z" transform="translate(-322.582 -180.165)"/>
    <path id="Trazado_102754" data-name="Trazado 102754" d="M337.96,235.523h2.6v.68H336.67l2.575-4.184h-2.429v-.7h3.741Z" transform="translate(-325.505 -180.207)"/>
    <path id="Trazado_102074" data-name="Trazado 102074" d="M377.171,171.525l1.272-1.615.458.331-1.112,1.272Z" transform="translate(-346.467 -170.105)"/>
  </g>
  <g id="Grupo_57719" data-name="Grupo 57719" transform="translate(203.545 74.123)">
    <path id="Trazado_102755" data-name="Trazado 102755" d="M323.112,117.108a2.174,2.174,0,0,1,1.66.636,2.346,2.346,0,0,1,.636,1.653,2.257,2.257,0,0,1-.636,1.641,2.187,2.187,0,0,1-1.66.636h-1.5v2.543H320.13v-7.109Zm-.252,3.358a1.068,1.068,0,0,0,.82-.28,1.049,1.049,0,0,0,.274-.776,1.068,1.068,0,0,0-.274-.769,1.091,1.091,0,0,0-.82-.286h-1.272v2.111Z" transform="translate(-320.13 -116.77)"/>
    <path id="Trazado_102756" data-name="Trazado 102756" d="M331.947,125.537a3.274,3.274,0,0,1-1.443-.311,2.351,2.351,0,0,1-.992-.924,2.707,2.707,0,0,1-.363-1.427,2.543,2.543,0,0,1,.776-1.908,3.237,3.237,0,0,1,4.05,0,2.824,2.824,0,0,1,0,3.885,2.874,2.874,0,0,1-2.028.685Zm0-1.138a1.316,1.316,0,0,0,1.007-.42,1.552,1.552,0,0,0,.381-1.1,1.583,1.583,0,0,0-.381-1.107,1.335,1.335,0,0,0-1.007-.413,1.272,1.272,0,0,0-.986.42,1.8,1.8,0,0,0,0,2.2,1.272,1.272,0,0,0,.973.42Z" transform="translate(-323.415 -117.918)"/>
    <path id="Trazado_102757" data-name="Trazado 102757" d="M341.189,125.519a2.906,2.906,0,0,1-1.494-.356,1.526,1.526,0,0,1-.725-1.068l1.2-.336a.96.96,0,0,0,1.023.763,1.007,1.007,0,0,0,.521-.121.4.4,0,0,0,.2-.395.439.439,0,0,0-.084-.261.712.712,0,0,0-.26-.191l-.35-.133-.458-.133a4.737,4.737,0,0,1-.47-.146,2.754,2.754,0,0,1-.452-.191,1.7,1.7,0,0,1-.369-.26,1.06,1.06,0,0,1-.28-.4,1.469,1.469,0,0,1-.1-.547,1.31,1.31,0,0,1,.553-1.144,2.505,2.505,0,0,1,1.45-.388,2.543,2.543,0,0,1,1.335.331,1.475,1.475,0,0,1,.687,1.023l-1.112.252a.865.865,0,0,0-.909-.636,1.036,1.036,0,0,0-.5.114.375.375,0,0,0-.2.343.407.407,0,0,0,0,.153.3.3,0,0,0,.1.121l.146.1a.944.944,0,0,0,.2.084,1.841,1.841,0,0,0,.222.064l.26.07.267.07a3.936,3.936,0,0,1,.477.146,3.062,3.062,0,0,1,.445.21,1.693,1.693,0,0,1,.381.3,1.456,1.456,0,0,1,.252.426,1.578,1.578,0,0,1,.1.566,1.521,1.521,0,0,1-.168.737,1.272,1.272,0,0,1-.47.5,2.257,2.257,0,0,1-.636.267,3.458,3.458,0,0,1-.788.068Z" transform="translate(-326.991 -117.9)"/>
    <path id="Trazado_102758" data-name="Trazado 102758" d="M348.052,118.226a.827.827,0,1,1,.757-.824.819.819,0,0,1-.757.824Zm-.731,5.869v-5.087h1.443v5.087Z" transform="translate(-329.996 -116.579)"/>
    <path id="Trazado_102759" data-name="Trazado 102759" d="M353.529,124.534a1.532,1.532,0,0,1-1.157-.413,1.628,1.628,0,0,1-.407-1.183v-2.41h-1.007v-1.1h.324a.82.82,0,0,0,.636-.216,1.068,1.068,0,0,0,.2-.756v-.672h1.272v1.646h1.055v1.1h-1.055v2.257c0,.445.2.636.588.636h.464v1.091Z" transform="translate(-331.357 -117.017)"/>
    <path id="Trazado_102760" data-name="Trazado 102760" d="M358.866,118.226a.8.8,0,0,1-.588-.242.824.824,0,0,1,.588-1.405.808.808,0,0,1,.579.242.82.82,0,0,1,0,1.164A.808.808,0,0,1,358.866,118.226Zm-.731,5.869v-5.086h1.443v5.086Z" transform="translate(-333.935 -116.579)"/>
    <path id="Trazado_102761" data-name="Trazado 102761" d="M365.662,120.37h1.52L365,125.456h-1.269l-2.149-5.086h1.539l1.272,3.491Z" transform="translate(-335.226 -117.96)"/>
    <path id="Trazado_102762" data-name="Trazado 102762" d="M373.4,125.536a3.288,3.288,0,0,1-1.45-.311,2.35,2.35,0,0,1-.992-.924,2.764,2.764,0,0,1-.356-1.427,2.486,2.486,0,0,1,.776-1.908,3.224,3.224,0,0,1,4.044,0,2.823,2.823,0,0,1,0,3.885A2.855,2.855,0,0,1,373.4,125.536Zm0-1.138a1.272,1.272,0,0,0,1.008-.42,1.532,1.532,0,0,0,.388-1.1,1.557,1.557,0,0,0-.388-1.107,1.316,1.316,0,0,0-1.008-.407,1.271,1.271,0,0,0-.979.42,1.774,1.774,0,0,0,0,2.2,1.271,1.271,0,0,0,.979.413Z" transform="translate(-338.509 -117.918)"/>
  </g>
  <g id="Grupo_57720" data-name="Grupo 57720" transform="translate(274.865 95.513)">
    <path id="Trazado_102763" data-name="Trazado 102763" d="M437.6,158.214l-.6-1.672h-3.179l-.6,1.672H432.3l2.582-6.994h1.062l2.575,6.994Zm-3.478-2.454h2.6l-1.3-3.643Z" transform="translate(-432.3 -150.584)"/>
    <path id="Trazado_102764" data-name="Trazado 102764" d="M446.543,152.871a2.137,2.137,0,0,1,1.615.706,2.887,2.887,0,0,1,0,3.675,2.1,2.1,0,0,1-1.615.706,1.946,1.946,0,0,1-1.043-.286,1.818,1.818,0,0,1-.7-.769v.947H444v-7.63h.852V153.9a1.807,1.807,0,0,1,.7-.751A1.951,1.951,0,0,1,446.543,152.871Zm-.191,4.336a1.511,1.511,0,0,0,1.144-.5,1.837,1.837,0,0,0,.458-1.272,1.863,1.863,0,0,0-.458-1.272,1.511,1.511,0,0,0-1.144-.5,1.462,1.462,0,0,0-1.132.515,2.009,2.009,0,0,0,0,2.543,1.468,1.468,0,0,0,1.144.477Z" transform="translate(-436.561 -150.22)"/>
    <path id="Trazado_102765" data-name="Trazado 102765" d="M456.7,154.533h.858v4.883h-.82v-.636a1.539,1.539,0,0,1-.636.547,1.847,1.847,0,0,1-.852.191,1.7,1.7,0,0,1-1.227-.438,1.647,1.647,0,0,1-.464-1.272V154.52h.858v3.1a1.144,1.144,0,0,0,.306.871,1.03,1.03,0,0,0,.763.292,1.182,1.182,0,0,0,.871-.336,1.374,1.374,0,0,0,.336-1Z" transform="translate(-440.04 -151.786)"/>
    <path id="Trazado_102766" data-name="Trazado 102766" d="M463.44,155.38a1.512,1.512,0,0,1,.636-.636,1.806,1.806,0,0,1,.934-.252v.808a1.6,1.6,0,0,0-1.132.363,1.511,1.511,0,0,0-.388,1.157v2.6h-.89V154.54h.84Z" transform="translate(-443.334 -151.775)"/>
    <path id="Trazado_102767" data-name="Trazado 102767" d="M468.78,155.38a1.488,1.488,0,0,1,.6-.636,1.847,1.847,0,0,1,.941-.252v.808a1.621,1.621,0,0,0-1.138.363,1.538,1.538,0,0,0-.388,1.157v2.6h-.858V154.54h.84Z" transform="translate(-445.279 -151.775)"/>
    <path id="Trazado_102768" data-name="Trazado 102768" d="M473.669,152.08a.553.553,0,0,1-.407-.168.566.566,0,0,1-.168-.413.554.554,0,0,1,.168-.407.588.588,0,0,1,.814,0,.553.553,0,0,1,.168.407.566.566,0,0,1-.168.413.553.553,0,0,1-.407.168Zm-.432,6.027v-4.883h.865v4.883Z" transform="translate(-447.155 -150.476)"/>
    <path id="Trazado_102769" data-name="Trazado 102769" d="M482.381,154.389a1.571,1.571,0,0,1,1.138.42,1.532,1.532,0,0,1,.432,1.164v3.4h-.865v-3.179a1.112,1.112,0,0,0-.267-.808.928.928,0,0,0-.68-.274.979.979,0,0,0-.744.311,1.31,1.31,0,0,0-.286.924v3.022h-.871v-3.141a1.125,1.125,0,0,0-.274-.826.9.9,0,0,0-.693-.286.947.947,0,0,0-.737.318,1.374,1.374,0,0,0-.286.947v2.988h-.859v-4.882h.858v.636a1.457,1.457,0,0,1,.559-.534,1.577,1.577,0,0,1,.776-.191,1.64,1.64,0,0,1,.833.21,1.271,1.271,0,0,1,.541.588,1.539,1.539,0,0,1,.588-.588A1.679,1.679,0,0,1,482.381,154.389Z" transform="translate(-448.721 -151.737)"/>
    <path id="Trazado_102770" data-name="Trazado 102770" d="M490.669,152.079a.553.553,0,0,1-.407-.168.566.566,0,0,1-.168-.413.553.553,0,0,1,.168-.407.572.572,0,0,1,.407-.168.588.588,0,0,1,.407.168.553.553,0,0,1,.168.407A.588.588,0,0,1,490.669,152.079Zm-.438,6.027v-4.883h.865v4.883Z" transform="translate(-453.347 -150.476)"/>
    <path id="Trazado_102771" data-name="Trazado 102771" d="M498.49,156.853v.235h-3.815a1.71,1.71,0,0,0,.464,1.272,1.526,1.526,0,0,0,1.112.439,1.481,1.481,0,0,0,.808-.235,1.551,1.551,0,0,0,.559-.636l.776.168a2.213,2.213,0,0,1-.84,1.049,2.251,2.251,0,0,1-1.272.381,2.358,2.358,0,0,1-1.763-.68,2.893,2.893,0,0,1,0-3.713,2.351,2.351,0,0,1,1.735-.68,2.2,2.2,0,0,1,1.641.636A2.466,2.466,0,0,1,498.49,156.853Zm-2.257-1.78a1.5,1.5,0,0,0-1.018.35,1.583,1.583,0,0,0-.515,1.007h2.925a1.427,1.427,0,0,0-.426-1.008,1.361,1.361,0,0,0-.967-.351Z" transform="translate(-454.714 -151.76)"/>
    <path id="Trazado_102772" data-name="Trazado 102772" d="M505.571,154.389a1.723,1.723,0,0,1,1.233.445,1.653,1.653,0,0,1,.458,1.272v3.287H506.4V156.3a1.17,1.17,0,0,0-.3-.877,1.049,1.049,0,0,0-.763-.286,1.182,1.182,0,0,0-.871.336,1.343,1.343,0,0,0-.343,1v2.918h-.856v-4.883h.858v.636a1.628,1.628,0,0,1,1.443-.755Z" transform="translate(-458.146 -151.737)"/>
    <path id="Trazado_102773" data-name="Trazado 102773" d="M513.3,158.5a1.272,1.272,0,0,1-.954-.35,1.343,1.343,0,0,1-.35-.973V154.3H511v-.687h.369a.705.705,0,0,0,.541-.168.853.853,0,0,0,.159-.573V152h.8v1.628h1.125v.687h-1.125v2.771a.725.725,0,0,0,.191.534.636.636,0,0,0,.49.191h.445v.687Z" transform="translate(-460.961 -150.868)"/>
    <path id="Trazado_102774" data-name="Trazado 102774" d="M519.362,159.464a2.544,2.544,0,0,1-1.272-.3,2.175,2.175,0,0,1-.877-.884,2.728,2.728,0,0,1-.324-1.348,2.493,2.493,0,0,1,.693-1.847,2.594,2.594,0,0,1,3.526,0,2.8,2.8,0,0,1,0,3.687A2.384,2.384,0,0,1,519.362,159.464Zm0-.712a1.511,1.511,0,0,0,1.151-.5,1.907,1.907,0,0,0,.458-1.322,1.864,1.864,0,0,0-.458-1.316,1.489,1.489,0,0,0-1.151-.5,1.456,1.456,0,0,0-1.144.5,1.863,1.863,0,0,0-.458,1.316,1.907,1.907,0,0,0,.458,1.322,1.482,1.482,0,0,0,1.144.5Z" transform="translate(-463.104 -151.739)"/>
    <path id="Trazado_102775" data-name="Trazado 102775" d="M437.328,171.234h-2.849v2.289h2.543v.8h-2.543v2.283h2.842v.808H433.57V170.42h3.751Z" transform="translate(-432.762 -157.576)"/>
    <path id="Trazado_102776" data-name="Trazado 102776" d="M443.122,178.67a2.308,2.308,0,0,1-1.316-.35,1.45,1.45,0,0,1-.636-1.007l.751-.216a1.029,1.029,0,0,0,.4.68,1.271,1.271,0,0,0,.8.242,1.793,1.793,0,0,0,.47-.064.762.762,0,0,0,.356-.242.636.636,0,0,0,.146-.445.972.972,0,0,0-.038-.2.749.749,0,0,0-.084-.159.356.356,0,0,0-.14-.133,1.435,1.435,0,0,0-.168-.108l-.223-.089-.235-.084-.274-.076-.286-.084c-.2-.064-.369-.121-.5-.178a2.124,2.124,0,0,1-.413-.235.948.948,0,0,1-.318-.388,1.217,1.217,0,0,1-.108-.547,1.272,1.272,0,0,1,.235-.776,1.336,1.336,0,0,1,.636-.464,2.417,2.417,0,0,1,.865-.14,2.136,2.136,0,0,1,1.189.318,1.335,1.335,0,0,1,.588.954l-.706.178a.928.928,0,0,0-.369-.636,1.182,1.182,0,0,0-.7-.21,1.221,1.221,0,0,0-.635.168.588.588,0,0,0-.267.528.484.484,0,0,0,.07.267.68.68,0,0,0,.146.191.954.954,0,0,0,.267.153l.286.1.363.089h.07c.2.044.35.089.47.127a3.912,3.912,0,0,1,.426.178,1.387,1.387,0,0,1,.375.267,1.228,1.228,0,0,1,.242.381,1.362,1.362,0,0,1,.1.521,1.386,1.386,0,0,1-.146.636,1.183,1.183,0,0,1-.395.452,1.908,1.908,0,0,1-.573.242,2.593,2.593,0,0,1-.714.162Z" transform="translate(-435.531 -158.736)"/>
    <path id="Trazado_102777" data-name="Trazado 102777" d="M450.315,177.691a1.272,1.272,0,0,1-.954-.35,1.335,1.335,0,0,1-.343-.973v-2.874H448v-.687h.363a.706.706,0,0,0,.541-.168.821.821,0,0,0,.159-.573v-.887h.845v1.628h1.115v.687H449.9v2.785a.719.719,0,0,0,.185.534.636.636,0,0,0,.49.191h.445v.687Z" transform="translate(-438.017 -157.853)"/>
    <path id="Trazado_102778" data-name="Trazado 102778" d="M455.5,178.675a1.628,1.628,0,0,1-1.068-.336,1.2,1.2,0,0,1-.42-1,1.4,1.4,0,0,1,.134-.636,1.081,1.081,0,0,1,.4-.445,2.173,2.173,0,0,1,.573-.28,5.019,5.019,0,0,1,.744-.168l.788-.133c.286-.051.432-.2.432-.452a.846.846,0,0,0-.3-.725,1.393,1.393,0,0,0-1.539,0,.934.934,0,0,0-.363.68l-.776-.159a1.525,1.525,0,0,1,.636-1.049,2.289,2.289,0,0,1,1.335-.35,2.746,2.746,0,0,1,.706.089,1.905,1.905,0,0,1,.588.274,1.234,1.234,0,0,1,.42.521,1.966,1.966,0,0,1,.153.808v2.015a.82.82,0,0,0,.114.509.47.47,0,0,0,.381.133h.084v.636h-.426c-.528,0-.84-.216-.929-.636h-.038a1.847,1.847,0,0,1-1.625.7Zm.2-.693a1.271,1.271,0,0,0,1.043-.47,1.951,1.951,0,0,0,.4-1.272l-1.272.252a1.7,1.7,0,0,0-.756.274.711.711,0,0,0-.013,1.068.986.986,0,0,0,.6.148Z" transform="translate(-440.205 -158.741)"/>
    <path id="Trazado_102779" data-name="Trazado 102779" d="M465.283,173.589a1.7,1.7,0,0,1,1.227.445,1.653,1.653,0,0,1,.458,1.272v3.287h-.861V175.5a1.144,1.144,0,0,0-.3-.877,1.048,1.048,0,0,0-.763-.28,1.189,1.189,0,0,0-.872.331,1.393,1.393,0,0,0-.343,1v2.918H463V173.71h.858v.636A1.64,1.64,0,0,1,465.283,173.589Z" transform="translate(-443.481 -158.73)"/>
    <path id="Trazado_102780" data-name="Trazado 102780" d="M473.6,178.657a2.34,2.34,0,0,1-1.749-.7,2.785,2.785,0,0,1,0-3.662,2.543,2.543,0,0,1,3.179-.274,2.162,2.162,0,0,1,.826,1.183l-.808.133a1.462,1.462,0,0,0-.553-.763,1.5,1.5,0,0,0-.884-.267,1.417,1.417,0,0,0-1.125.5,2.169,2.169,0,0,0,0,2.632,1.437,1.437,0,0,0,1.125.5,1.5,1.5,0,0,0,.884-.267,1.463,1.463,0,0,0,.553-.763l.808.133a2.174,2.174,0,0,1-.826,1.189A2.377,2.377,0,0,1,473.6,178.657Z" transform="translate(-446.455 -158.73)"/>
    <path id="Trazado_102781" data-name="Trazado 102781" d="M481.466,178.674a1.628,1.628,0,0,1-1.068-.336,1.2,1.2,0,0,1-.42-1,1.4,1.4,0,0,1,.134-.636,1.107,1.107,0,0,1,.395-.445,2.321,2.321,0,0,1,.578-.28,5.009,5.009,0,0,1,.744-.168l.788-.133c.286-.051.432-.2.432-.452a.846.846,0,0,0-.306-.725,1.393,1.393,0,0,0-1.539,0,.935.935,0,0,0-.363.68l-.776-.159a1.482,1.482,0,0,1,.635-1.049,2.267,2.267,0,0,1,1.329-.35,2.771,2.771,0,0,1,.712.089,1.906,1.906,0,0,1,.588.274,1.233,1.233,0,0,1,.42.521,1.963,1.963,0,0,1,.153.808v2.015a.819.819,0,0,0,.114.509.464.464,0,0,0,.381.134h.038v.636H484a.814.814,0,0,1-.924-.636h-.038A1.856,1.856,0,0,1,481.466,178.674Zm.2-.693a1.271,1.271,0,0,0,1.043-.47,1.952,1.952,0,0,0,.4-1.272l-1.272.252a1.671,1.671,0,0,0-.756.274.711.711,0,0,0-.013,1.068.986.986,0,0,0,.6.149Z" transform="translate(-449.662 -158.741)"/>
    <path id="Trazado_102782" data-name="Trazado 102782" d="M493.921,173.586a1.564,1.564,0,0,1,1.138.42,1.511,1.511,0,0,1,.432,1.164v3.4h-.858v-3.179a1.113,1.113,0,0,0-.267-.808.924.924,0,0,0-.68-.267.954.954,0,0,0-.744.306,1.309,1.309,0,0,0-.286.924v3.022h-.872v-3.135a1.164,1.164,0,0,0-.274-.833.909.909,0,0,0-.693-.28.954.954,0,0,0-.744.312,1.373,1.373,0,0,0-.286.947v2.988h-.858v-4.883h.858v.636a1.52,1.52,0,0,1,.56-.541,1.583,1.583,0,0,1,.782-.191,1.64,1.64,0,0,1,.833.21,1.272,1.272,0,0,1,.541.588,1.539,1.539,0,0,1,.588-.588,1.654,1.654,0,0,1,.83-.207Z" transform="translate(-452.924 -158.728)"/>
    <path id="Trazado_102783" data-name="Trazado 102783" d="M502.225,171.278a.588.588,0,0,1-.588-.588.553.553,0,0,1,.168-.407.588.588,0,0,1,.413-.168.566.566,0,0,1,.4.168.553.553,0,0,1,.168.407.567.567,0,0,1-.168.413A.547.547,0,0,1,502.225,171.278Zm-.438,6.027v-4.883h.865v4.883Z" transform="translate(-457.552 -157.467)"/>
    <path id="Trazado_102784" data-name="Trazado 102784" d="M510.048,176.046v.235h-3.815a1.71,1.71,0,0,0,.47,1.272,1.526,1.526,0,0,0,1.112.439,1.475,1.475,0,0,0,1.361-.884l.776.168a2.169,2.169,0,0,1-.833,1.049,2.282,2.282,0,0,1-1.272.381,2.359,2.359,0,0,1-1.755-.68,2.893,2.893,0,0,1,0-3.713,2.34,2.34,0,0,1,1.73-.68,2.206,2.206,0,0,1,1.647.636,2.5,2.5,0,0,1,.578,1.777Zm-2.267-1.78a1.494,1.494,0,0,0-1.008.35,1.583,1.583,0,0,0-.515,1.007h2.922a1.457,1.457,0,0,0-.426-1.007,1.373,1.373,0,0,0-.973-.35Z" transform="translate(-458.928 -158.745)"/>
    <path id="Trazado_102785" data-name="Trazado 102785" d="M517.118,173.589a1.7,1.7,0,0,1,1.227.445,1.653,1.653,0,0,1,.464,1.272v3.287h-.865V175.5a1.17,1.17,0,0,0-.292-.877,1.074,1.074,0,0,0-.769-.28,1.175,1.175,0,0,0-.865.331,1.343,1.343,0,0,0-.343,1v2.918h-.865V173.71h.865v.636a1.621,1.621,0,0,1,1.443-.756Z" transform="translate(-462.348 -158.73)"/>
    <path id="Trazado_102786" data-name="Trazado 102786" d="M524.841,177.691a1.272,1.272,0,0,1-.954-.35,1.315,1.315,0,0,1-.35-.973v-2.874h-1v-.687h.369a.719.719,0,0,0,.541-.168.86.86,0,0,0,.153-.573v-.887h.8v1.628h1.125v.687H524.4v2.785a.744.744,0,0,0,.185.534.636.636,0,0,0,.49.191h.452v.687Z" transform="translate(-465.163 -157.853)"/>
    <path id="Trazado_102787" data-name="Trazado 102787" d="M530.927,178.663a2.544,2.544,0,0,1-1.272-.3,2.173,2.173,0,0,1-.846-.884,2.664,2.664,0,0,1-.331-1.348,2.544,2.544,0,0,1,.693-1.847,2.6,2.6,0,0,1,3.535,0,2.8,2.8,0,0,1,0,3.687A2.384,2.384,0,0,1,530.927,178.663Zm0-.712a1.511,1.511,0,0,0,1.157-.5,1.907,1.907,0,0,0,.458-1.322,1.862,1.862,0,0,0-.458-1.316,1.5,1.5,0,0,0-1.157-.5,1.475,1.475,0,0,0-1.144.5,2.154,2.154,0,0,0,0,2.639,1.5,1.5,0,0,0,1.139.5Z" transform="translate(-467.326 -158.731)"/>
    <path id="Trazado_102788" data-name="Trazado 102788" d="M433.58,196.614V189.62h.9v6.994Z" transform="translate(-432.766 -164.569)"/>
    <path id="Trazado_102789" data-name="Trazado 102789" d="M440.385,192.789a1.71,1.71,0,0,1,1.227.445,1.653,1.653,0,0,1,.458,1.272v3.287H441.2v-3.1a1.164,1.164,0,0,0-.3-.871,1.049,1.049,0,0,0-.763-.286,1.2,1.2,0,0,0-.871.336,1.392,1.392,0,0,0-.343,1v2.918h-.855v-4.883h.858v.636a1.628,1.628,0,0,1,1.457-.755Z" transform="translate(-434.401 -165.722)"/>
    <path id="Trazado_102790" data-name="Trazado 102790" d="M448.282,197.87a2.308,2.308,0,0,1-1.316-.35,1.468,1.468,0,0,1-.636-1.008l.751-.216a1.08,1.08,0,0,0,.4.68,1.317,1.317,0,0,0,.8.242,1.794,1.794,0,0,0,.47-.064.813.813,0,0,0,.363-.242.635.635,0,0,0,.14-.445.53.53,0,0,0-.038-.2.75.75,0,0,0-.076-.159.409.409,0,0,0-.14-.134,1.144,1.144,0,0,0-.39-.2l-.235-.084-.274-.076-.28-.084c-.2-.064-.375-.121-.509-.178a2.33,2.33,0,0,1-.413-.235.947.947,0,0,1-.318-.388,1.31,1.31,0,0,1-.108-.547,1.272,1.272,0,0,1,.242-.782,1.349,1.349,0,0,1,.636-.458,2.44,2.44,0,0,1,.865-.14,2.123,2.123,0,0,1,1.189.318,1.361,1.361,0,0,1,.6.954l-.706.178a.934.934,0,0,0-.375-.636,1.169,1.169,0,0,0-.7-.21,1.215,1.215,0,0,0-.635.168.578.578,0,0,0-.274.528.541.541,0,0,0,.07.267.636.636,0,0,0,.413.336,2.711,2.711,0,0,0,.292.108l.356.089h.076l.47.133a3.41,3.41,0,0,1,.42.178,1.545,1.545,0,0,1,.381.267,1.334,1.334,0,0,1,.336.9,1.468,1.468,0,0,1-.146.636,1.132,1.132,0,0,1-.4.445,1.743,1.743,0,0,1-.566.252A2.638,2.638,0,0,1,448.282,197.87Z" transform="translate(-437.41 -165.729)"/>
    <path id="Trazado_102791" data-name="Trazado 102791" d="M454.669,190.48a.553.553,0,0,1-.407-.168.566.566,0,0,1-.168-.413.553.553,0,0,1,.168-.407.588.588,0,0,1,.814,0,.553.553,0,0,1,.168.407.567.567,0,0,1-.168.413.553.553,0,0,1-.407.168Zm-.438,6.027v-4.883h.865v4.883Z" transform="translate(-440.236 -164.461)"/>
    <path id="Trazado_102792" data-name="Trazado 102792" d="M461.052,192.789a2.308,2.308,0,0,1,.884.178,2.244,2.244,0,0,1,.725.5,2.364,2.364,0,0,1,.489.808,2.989,2.989,0,0,1,.178,1.055,2.543,2.543,0,0,1-.636,1.838,2.13,2.13,0,0,1-1.621.706,1.945,1.945,0,0,1-1.023-.28,1.848,1.848,0,0,1-.7-.751v3.383h-.859v-7.349h.833v.947a1.768,1.768,0,0,1,.693-.756,1.94,1.94,0,0,1,1.036-.286Zm-.168,4.336a1.469,1.469,0,0,0,1.132-.489,2.085,2.085,0,0,0,0-2.6,1.468,1.468,0,0,0-1.132-.489,1.5,1.5,0,0,0-1.144.509,1.99,1.99,0,0,0,0,2.543,1.5,1.5,0,0,0,1.14.53Z" transform="translate(-441.838 -165.722)"/>
    <path id="Trazado_102793" data-name="Trazado 102793" d="M468.59,190.48a.553.553,0,0,1-.407-.168.566.566,0,0,1-.168-.413.553.553,0,0,1,.168-.407.588.588,0,0,1,.814,0,.554.554,0,0,1,.168.407.566.566,0,0,1-.168.413.553.553,0,0,1-.407.168Zm-.432,6.027v-4.883h.865v4.883Z" transform="translate(-445.305 -164.461)"/>
    <path id="Trazado_102794" data-name="Trazado 102794" d="M475.715,188.62h.859v7.63h-.833V195.3a1.8,1.8,0,0,1-.693.769,1.908,1.908,0,0,1-1.036.286,2.224,2.224,0,0,1-.884-.185,2.142,2.142,0,0,1-.725-.509,2.267,2.267,0,0,1-.489-.808,2.92,2.92,0,0,1-.185-1.043,2.587,2.587,0,0,1,.636-1.838,2.149,2.149,0,0,1,1.621-.706,1.945,1.945,0,0,1,1.023.28,1.831,1.831,0,0,1,.7.744Zm-1.539,6.994a1.475,1.475,0,0,0,1.132-.509,2.028,2.028,0,0,0,0-2.543,1.468,1.468,0,0,0-1.132-.515,1.494,1.494,0,0,0-1.144.5,2.054,2.054,0,0,0,0,2.6,1.494,1.494,0,0,0,1.157.464Z" transform="translate(-446.658 -164.204)"/>
    <path id="Trazado_102795" data-name="Trazado 102795" d="M486.188,195.253v.235h-3.815a1.71,1.71,0,0,0,.47,1.272,1.526,1.526,0,0,0,1.112.439,1.481,1.481,0,0,0,.808-.235,1.591,1.591,0,0,0,.559-.636l.769.168a2.168,2.168,0,0,1-.833,1.049,2.282,2.282,0,0,1-1.271.381,2.359,2.359,0,0,1-1.755-.68,2.893,2.893,0,0,1,0-3.713,2.34,2.34,0,0,1,1.73-.68,2.206,2.206,0,0,1,1.646.636A2.492,2.492,0,0,1,486.188,195.253Zm-2.267-1.78a1.494,1.494,0,0,0-1.008.35,1.583,1.583,0,0,0-.515,1.007h2.925a1.456,1.456,0,0,0-.426-1.008,1.374,1.374,0,0,0-.974-.351Z" transform="translate(-450.239 -165.745)"/>
    <path id="Trazado_102796" data-name="Trazado 102796" d="M491.053,197.13h2.6v.693h-3.9l2.575-4.184h-2.422v-.7h3.743Z" transform="translate(-453.226 -165.778)"/>
    <path id="Trazado_102797" data-name="Trazado 102797" d="M437.328,209.65h-2.849v2.289h2.543v.826h-2.543v2.289h2.842v.808H433.57v-6.994h3.751Z" transform="translate(-432.762 -171.579)"/>
    <path id="Trazado_102798" data-name="Trazado 102798" d="M444.111,212a1.723,1.723,0,0,1,1.233.445,1.653,1.653,0,0,1,.458,1.272V217h-.858v-3.1a1.164,1.164,0,0,0-.3-.872,1.068,1.068,0,0,0-.769-.286,1.175,1.175,0,0,0-.865.336,1.343,1.343,0,0,0-.343,1V217h-.858v-4.883h.858v.636a1.628,1.628,0,0,1,1.443-.756Z" transform="translate(-435.763 -172.718)"/>
    <path id="Trazado_102799" data-name="Trazado 102799" d="M454.768,214.446v.235h-3.815a1.71,1.71,0,0,0,.47,1.272,1.511,1.511,0,0,0,1.112.439,1.475,1.475,0,0,0,1.361-.884l.776.168a2.168,2.168,0,0,1-.833,1.049,2.283,2.283,0,0,1-1.272.381,2.359,2.359,0,0,1-1.755-.68,2.893,2.893,0,0,1,0-3.713,2.327,2.327,0,0,1,1.729-.68,2.187,2.187,0,0,1,1.641.636,2.467,2.467,0,0,1,.585,1.777Zm-2.267-1.78a1.511,1.511,0,0,0-1.018.35,1.545,1.545,0,0,0-.509,1.008H453.9a1.488,1.488,0,0,0-.426-1.007,1.374,1.374,0,0,0-.973-.369Z" transform="translate(-438.796 -172.73)"/>
    <path id="Trazado_102800" data-name="Trazado 102800" d="M460.383,212.98a1.512,1.512,0,0,1,.636-.636,1.806,1.806,0,0,1,.934-.252v.808a1.6,1.6,0,0,0-1.132.363,1.511,1.511,0,0,0-.388,1.157v2.6h-.865V212.14h.84Z" transform="translate(-442.231 -172.752)"/>
    <path id="Trazado_102801" data-name="Trazado 102801" d="M467.654,212.14h.924l-1.984,4.883h-.725l-1.977-4.883h.909l1.427,3.885Z" transform="translate(-443.805 -172.77)"/>
    <path id="Trazado_102802" data-name="Trazado 102802" d="M473.476,217.1a1.666,1.666,0,0,1-1.068-.336,1.2,1.2,0,0,1-.42-1,1.452,1.452,0,0,1,.134-.636,1.132,1.132,0,0,1,.395-.439,2.319,2.319,0,0,1,.578-.28,6.02,6.02,0,0,1,.738-.178l.8-.127c.286-.051.426-.2.426-.452a.846.846,0,0,0-.3-.725,1.208,1.208,0,0,0-.769-.235,1.272,1.272,0,0,0-.763.223.924.924,0,0,0-.363.687l-.776-.168a1.481,1.481,0,0,1,.635-1.043,2.25,2.25,0,0,1,1.329-.35,2.765,2.765,0,0,1,.712.089,1.906,1.906,0,0,1,.588.274,1.234,1.234,0,0,1,.42.521,1.965,1.965,0,0,1,.153.808v2.015a.871.871,0,0,0,.108.509.484.484,0,0,0,.388.133h.032v.636h-.426a.808.808,0,0,1-.924-.636h-.038a1.907,1.907,0,0,1-1.58.707Zm.2-.693a1.272,1.272,0,0,0,1.049-.477,1.908,1.908,0,0,0,.4-1.272l-1.272.252a1.736,1.736,0,0,0-.763.274.717.717,0,0,0-.007,1.068.979.979,0,0,0,.588.14Z" transform="translate(-446.752 -172.735)"/>
    <path id="Trazado_102803" data-name="Trazado 102803" d="M482.606,217.1a2.334,2.334,0,0,1-1.749-.7,2.785,2.785,0,0,1,0-3.662,2.543,2.543,0,0,1,3.18-.274,2.162,2.162,0,0,1,.827,1.183l-.808.133a1.462,1.462,0,0,0-1.436-1.03,1.418,1.418,0,0,0-1.126.5,2.162,2.162,0,0,0,0,2.626,1.417,1.417,0,0,0,1.125.5,1.463,1.463,0,0,0,1.437-1.03l.808.134a2.174,2.174,0,0,1-.827,1.189,2.39,2.39,0,0,1-1.427.426Z" transform="translate(-449.734 -172.729)"/>
    <path id="Trazado_102804" data-name="Trazado 102804" d="M489.835,209.678a.588.588,0,0,1-.588-.588.553.553,0,0,1,.168-.407.588.588,0,0,1,.413-.168.566.566,0,0,1,.4.168.553.553,0,0,1,.168.407.567.567,0,0,1-.168.413.546.546,0,0,1-.4.168Zm-.439,6.027v-4.883h.865v4.883Z" transform="translate(-453.039 -171.451)"/>
    <path id="Trazado_102805" data-name="Trazado 102805" d="M495.426,215.753a2.543,2.543,0,0,1-1.272-.3,2.174,2.174,0,0,1-.877-.884,2.726,2.726,0,0,1-.28-1.354,2.493,2.493,0,0,1,.694-1.847,2.594,2.594,0,0,1,3.526,0,2.8,2.8,0,0,1,0,3.687A2.384,2.384,0,0,1,495.426,215.753Zm0-.712a1.511,1.511,0,0,0,1.157-.5,1.908,1.908,0,0,0,.458-1.322,1.863,1.863,0,0,0-.458-1.316,1.494,1.494,0,0,0-1.157-.5,1.475,1.475,0,0,0-1.144.5,2.153,2.153,0,0,0,0,2.639,1.5,1.5,0,0,0,1.138.484Zm-.318-5.086,1.272-1.615.458.331-1.112,1.272Z" transform="translate(-454.404 -171.386)"/>
    <path id="Trazado_102806" data-name="Trazado 102806" d="M505.111,212a1.723,1.723,0,0,1,1.233.445,1.653,1.653,0,0,1,.458,1.272V217h-.858v-3.1a1.163,1.163,0,0,0-.3-.871,1.068,1.068,0,0,0-.769-.286,1.176,1.176,0,0,0-.865.336,1.343,1.343,0,0,0-.343,1V217h-.858v-4.883h.858v.636a1.628,1.628,0,0,1,1.443-.756Z" transform="translate(-457.978 -172.718)"/>
    <path id="Trazado_102807" data-name="Trazado 102807" d="M437.328,228.827h-2.849v2.289h2.543v.8h-2.543V234.2h2.842v.8H433.57V228h3.751Z" transform="translate(-432.762 -178.546)"/>
    <path id="Trazado_102808" data-name="Trazado 102808" d="M444.111,231.188a1.724,1.724,0,0,1,1.233.445,1.653,1.653,0,0,1,.458,1.272v3.249h-.858v-3.1a1.157,1.157,0,0,0-.3-.871,1.068,1.068,0,0,0-.769-.286,1.175,1.175,0,0,0-.865.336,1.343,1.343,0,0,0-.343,1v2.917h-.858v-4.883h.858v.636a1.628,1.628,0,0,1,1.443-.715Z" transform="translate(-435.763 -179.707)"/>
    <path id="Trazado_102809" data-name="Trazado 102809" d="M452.54,227.742h-.363a.832.832,0,0,0-.178,0l-.159.051a.355.355,0,0,0-.146.084l-.114.127a.535.535,0,0,0-.1.178,1.771,1.771,0,0,0-.051.242,1.476,1.476,0,0,0,0,.3v1.007h1.132v.687h-1.132v4.221h-.877v-4.2h-.946v-.687h.947v-1.025a2.547,2.547,0,0,1,.051-.566,1.816,1.816,0,0,1,.14-.432,1.091,1.091,0,0,1,.229-.311,1.821,1.821,0,0,1,.3-.21,1.478,1.478,0,0,1,.369-.121,3.455,3.455,0,0,1,.426-.064h.47Z" transform="translate(-438.604 -178.193)"/>
    <path id="Trazado_102810" data-name="Trazado 102810" d="M459.758,233.623v.235h-3.813a1.71,1.71,0,0,0,.47,1.272,1.526,1.526,0,0,0,1.112.439,1.482,1.482,0,0,0,.808-.235,1.552,1.552,0,0,0,.559-.636l.769.168a2.168,2.168,0,0,1-.833,1.049,2.282,2.282,0,0,1-1.272.381,2.359,2.359,0,0,1-1.755-.68,2.894,2.894,0,0,1,0-3.713,2.34,2.34,0,0,1,1.73-.68,2.207,2.207,0,0,1,1.646.636,2.48,2.48,0,0,1,.578,1.764Zm-2.267-1.78a1.494,1.494,0,0,0-1.008.349,1.583,1.583,0,0,0-.515,1.007h2.925a1.456,1.456,0,0,0-.426-1.008,1.373,1.373,0,0,0-.973-.331Z" transform="translate(-440.613 -179.718)"/>
    <path id="Trazado_102811" data-name="Trazado 102811" d="M465.37,232.18a1.487,1.487,0,0,1,.6-.636,1.812,1.812,0,0,1,.941-.252v.808a1.609,1.609,0,0,0-1.138.363,1.511,1.511,0,0,0-.388,1.157V236.2h-.858v-4.883h.84Z" transform="translate(-444.038 -179.745)"/>
    <path id="Trazado_102812" data-name="Trazado 102812" d="M474.847,231.185a1.564,1.564,0,0,1,1.138.42,1.511,1.511,0,0,1,.432,1.164v3.381h-.858V232.97a1.112,1.112,0,0,0-.267-.808.927.927,0,0,0-.68-.274.96.96,0,0,0-.744.311,1.31,1.31,0,0,0-.286.924v3.022h-.868v-3.141a1.157,1.157,0,0,0-.274-.827.909.909,0,0,0-.693-.286.96.96,0,0,0-.744.318,1.373,1.373,0,0,0-.286.947v2.992h-.858v-4.883h.858v.636a1.552,1.552,0,0,1,.559-.534,1.576,1.576,0,0,1,.776-.191,1.647,1.647,0,0,1,.84.21,1.271,1.271,0,0,1,.541.588,1.538,1.538,0,0,1,.588-.588,1.654,1.654,0,0,1,.826-.2Z" transform="translate(-445.978 -179.704)"/>
    <path id="Trazado_102813" data-name="Trazado 102813" d="M486.868,233.623v.235h-3.815a1.71,1.71,0,0,0,.47,1.272,1.526,1.526,0,0,0,1.112.439,1.482,1.482,0,0,0,.808-.235A1.551,1.551,0,0,0,486,234.7l.769.168a2.168,2.168,0,0,1-.833,1.049,2.283,2.283,0,0,1-1.271.381,2.359,2.359,0,0,1-1.755-.68,2.893,2.893,0,0,1,0-3.713,2.34,2.34,0,0,1,1.73-.68,2.207,2.207,0,0,1,1.646.636,2.479,2.479,0,0,1,.579,1.764Zm-2.267-1.78a1.494,1.494,0,0,0-1.008.349,1.583,1.583,0,0,0-.515,1.007H486a1.456,1.456,0,0,0-.426-1.008,1.374,1.374,0,0,0-.947-.331Z" transform="translate(-450.487 -179.718)"/>
    <path id="Trazado_102814" data-name="Trazado 102814" d="M495.024,227h.858v7.63h-.833v-.947a1.8,1.8,0,0,1-.693.769,1.939,1.939,0,0,1-1.036.286,2.2,2.2,0,0,1-.888-.182,2.231,2.231,0,0,1-.725-.509,2.267,2.267,0,0,1-.489-.808,2.789,2.789,0,0,1-.185-1.043,2.587,2.587,0,0,1,.643-1.839,2.149,2.149,0,0,1,1.621-.706,1.945,1.945,0,0,1,1.023.28,1.831,1.831,0,0,1,.7.744Zm-1.539,6.994a1.475,1.475,0,0,0,1.132-.509,2.028,2.028,0,0,0,0-2.543,1.468,1.468,0,0,0-1.132-.515,1.494,1.494,0,0,0-1.144.5,1.838,1.838,0,0,0-.464,1.3,1.812,1.812,0,0,0,.464,1.272,1.5,1.5,0,0,0,1.144.495Z" transform="translate(-453.689 -178.182)"/>
    <path id="Trazado_102815" data-name="Trazado 102815" d="M502.326,236.269a1.666,1.666,0,0,1-1.068-.336,1.2,1.2,0,0,1-.42-1,1.4,1.4,0,0,1,.133-.636,1.105,1.105,0,0,1,.395-.445,2.321,2.321,0,0,1,.578-.28,6.01,6.01,0,0,1,.737-.178l.8-.127c.286-.051.432-.2.432-.452a.845.845,0,0,0-.306-.725,1.227,1.227,0,0,0-.776-.235,1.272,1.272,0,0,0-.763.222.924.924,0,0,0-.363.687l-.763-.168a1.482,1.482,0,0,1,.636-1.043,2.267,2.267,0,0,1,1.329-.35,2.771,2.771,0,0,1,.712.089,1.908,1.908,0,0,1,.588.274,1.232,1.232,0,0,1,.42.521,1.964,1.964,0,0,1,.153.808v1.99a.869.869,0,0,0,.108.509.483.483,0,0,0,.388.133h.084v.636h-.432a.814.814,0,0,1-.924-.636h-.038a1.856,1.856,0,0,1-1.636.738Zm.2-.693a1.272,1.272,0,0,0,1.049-.477,1.907,1.907,0,0,0,.4-1.272l-1.272.252a1.672,1.672,0,0,0-.756.274.711.711,0,0,0-.013,1.068.979.979,0,0,0,.59.155Z" transform="translate(-457.259 -179.713)"/>
    <path id="Trazado_102816" data-name="Trazado 102816" d="M513.024,227h.858v7.63h-.833v-.947a1.8,1.8,0,0,1-.693.769,1.94,1.94,0,0,1-1.036.286,2.2,2.2,0,0,1-.887-.182,2.23,2.23,0,0,1-.725-.509,2.267,2.267,0,0,1-.49-.808,2.792,2.792,0,0,1-.185-1.043,2.588,2.588,0,0,1,.643-1.839,2.148,2.148,0,0,1,1.621-.706,1.946,1.946,0,0,1,1.023.28,1.831,1.831,0,0,1,.7.744Zm-1.539,6.994a1.475,1.475,0,0,0,1.132-.509,2.028,2.028,0,0,0,0-2.543,1.469,1.469,0,0,0-1.132-.515,1.494,1.494,0,0,0-1.144.5,1.838,1.838,0,0,0-.464,1.3,1.813,1.813,0,0,0,.464,1.272,1.494,1.494,0,0,0,1.144.5Z" transform="translate(-460.245 -178.182)"/>
  </g>
  <g id="Grupo_57721" data-name="Grupo 57721" transform="translate(275.487 74.123)">
    <path id="Trazado_102817" data-name="Trazado 102817" d="M438.188,117.11h1.482v7.178h-1.723l-3.179-5.131v5.131H433.28V117.11h1.73l3.179,5.086Z" transform="translate(-433.28 -116.773)"/>
    <path id="Trazado_102818" data-name="Trazado 102818" d="M450.494,122.781v.343h-3.814a1.31,1.31,0,0,0,.407.934,1.418,1.418,0,0,0,1.57.146,1.113,1.113,0,0,0,.432-.515l1.31.191a2.232,2.232,0,0,1-.9,1.2,2.687,2.687,0,0,1-1.507.426,2.76,2.76,0,0,1-1.99-.706,2.543,2.543,0,0,1-.738-1.945,2.6,2.6,0,0,1,.738-1.952,2.687,2.687,0,0,1,1.945-.712,2.333,2.333,0,0,1,2.543,2.588Zm-2.543-1.577a1.132,1.132,0,0,0-1.24.986h2.347a1.075,1.075,0,0,0-.356-.731,1.125,1.125,0,0,0-.725-.252Z" transform="translate(-437.644 -117.892)"/>
    <path id="Trazado_102819" data-name="Trazado 102819" d="M458.461,120.3h1.361v4.724a3.817,3.817,0,0,1-.191,1.272,2.1,2.1,0,0,1-.553.871,2.321,2.321,0,0,1-.852.489,3.509,3.509,0,0,1-1.112.159,2.519,2.519,0,0,1-2.632-1.583l1.189-.509a1.724,1.724,0,0,0,.547.744,1.4,1.4,0,0,0,.84.235c.884,0,1.329-.521,1.329-1.577v-.61a1.609,1.609,0,0,1-.636.5,2.156,2.156,0,0,1-.909.191,2.276,2.276,0,0,1-.9-.178,2.383,2.383,0,0,1-.744-.509,2.421,2.421,0,0,1-.5-.8,3.007,3.007,0,0,1,0-2.073,2.284,2.284,0,0,1,.509-.788,2.124,2.124,0,0,1,.744-.5,2.3,2.3,0,0,1,.9-.185,2.1,2.1,0,0,1,.947.216,1.468,1.468,0,0,1,.636.559Zm-2.194,3.376a1.233,1.233,0,0,0,.934.395,1.272,1.272,0,0,0,.941-.395,1.427,1.427,0,0,0,0-1.945,1.329,1.329,0,0,0-1.908,0,1.361,1.361,0,0,0-.375.979,1.335,1.335,0,0,0,.407.966Z" transform="translate(-441.001 -117.891)"/>
    <path id="Trazado_102820" data-name="Trazado 102820" d="M469.192,124.045a4.774,4.774,0,0,0,.121,1.272v.14h-1.335l-.114-.553a1.646,1.646,0,0,1-.712.489,2.687,2.687,0,0,1-.924.168,2.769,2.769,0,0,1-.477-.045,1.75,1.75,0,0,1-.432-.153,1.272,1.272,0,0,1-.356-.267,1.057,1.057,0,0,1-.235-.407,1.488,1.488,0,0,1-.089-.553,1.532,1.532,0,0,1,.089-.553,1.321,1.321,0,0,1,.252-.413,1.581,1.581,0,0,1,.407-.306,3.178,3.178,0,0,1,.5-.216,5.953,5.953,0,0,1,.636-.159l.84-.191a.9.9,0,0,0,.381-.159.336.336,0,0,0,.108-.252.541.541,0,0,0-.252-.5,1.272,1.272,0,0,0-.636-.146.877.877,0,0,0-1,.782L464.7,121.8a1.717,1.717,0,0,1,.737-1.17,2.956,2.956,0,0,1,1.6-.375q2.149,0,2.149,1.847Zm-2.543.515a1.144,1.144,0,0,0,.884-.369,1.545,1.545,0,0,0,.343-1.091l-1.214.343a1.361,1.361,0,0,0-.509.21.432.432,0,0,0-.178.369.471.471,0,0,0,.191.4.776.776,0,0,0,.509.121Z" transform="translate(-444.701 -117.915)"/>
    <path id="Trazado_102821" data-name="Trazado 102821" d="M475.4,124.534a1.52,1.52,0,0,1-1.151-.413,1.6,1.6,0,0,1-.407-1.183v-2.41h-1.007v-1.1h.324a.84.84,0,0,0,.636-.216,1.1,1.1,0,0,0,.2-.756v-.672h1.272v1.646h1.049v1.1h-1.03v2.257c0,.445.2.636.588.636h.458v1.091Z" transform="translate(-447.687 -117.017)"/>
    <path id="Trazado_102822" data-name="Trazado 102822" d="M480.766,118.226a.82.82,0,0,1-.588-.242.8.8,0,0,1-.242-.588.783.783,0,0,1,.252-.578.82.82,0,0,1,1.157,1.164A.8.8,0,0,1,480.766,118.226Zm-.725,5.869v-5.086h1.437V124.1Z" transform="translate(-450.272 -116.58)"/>
    <path id="Trazado_102823" data-name="Trazado 102823" d="M487.582,120.37h1.511l-2.174,5.086h-1.269L483.5,120.37h1.507l1.272,3.491Z" transform="translate(-451.569 -117.96)"/>
    <path id="Trazado_102824" data-name="Trazado 102824" d="M495.3,125.537a3.274,3.274,0,0,1-1.443-.311,2.351,2.351,0,0,1-.992-.924,2.709,2.709,0,0,1-.363-1.427,2.543,2.543,0,0,1,.776-1.908,3.237,3.237,0,0,1,4.05,0,2.823,2.823,0,0,1,0,3.885,2.874,2.874,0,0,1-2.028.68Zm0-1.138a1.316,1.316,0,0,0,1.007-.42,1.552,1.552,0,0,0,.381-1.1,1.584,1.584,0,0,0-.381-1.107,1.336,1.336,0,0,0-1.008-.413,1.272,1.272,0,0,0-.986.42,1.8,1.8,0,0,0,0,2.2,1.272,1.272,0,0,0,.973.42Z" transform="translate(-454.846 -117.919)"/>
  </g>
</svg>
