<svg id="color10" xmlns="http://www.w3.org/2000/svg" width="358.322" height="191.025" viewBox="0 0 358.322 191.025">
  <rect id="Rectángulo_5423" data-name="Rectángulo 5423" width="44.787" height="45.779" transform="translate(0 145.247)"/>
  <rect id="Rectángulo_5424" data-name="Rectángulo 5424" width="179.161" height="145.247"/>
  <rect id="Rectángulo_5425" data-name="Rectángulo 5425" width="179.161" height="191.025" transform="translate(179.161)" fill="#f2f2f2"/>
  <g id="Grupo_57739" data-name="Grupo 57739" transform="translate(44.787 145.247)" opacity="0.75">
    <rect id="Rectángulo_5426" data-name="Rectángulo 5426" width="44.787" height="45.779"/>
  </g>
  <g id="Grupo_57740" data-name="Grupo 57740" transform="translate(89.58 145.247)" opacity="0.5">
    <rect id="Rectángulo_5427" data-name="Rectángulo 5427" width="44.787" height="45.779"/>
  </g>
  <g id="Grupo_57741" data-name="Grupo 57741" transform="translate(134.367 145.247)" opacity="0.25">
    <rect id="Rectángulo_5428" data-name="Rectángulo 5428" width="44.787" height="45.779"/>
  </g>
  <g id="Grupo_57742" data-name="Grupo 57742" transform="translate(202 35.345)">
    <path id="Trazado_103023" data-name="Trazado 103023" d="M329.333,55.59h3.526V72.633h-4.088l-7.547-12.182V72.633H317.7V55.59h4.05l7.591,12.118Z" transform="translate(-317.698 -55.59)"/>
    <path id="Trazado_103024" data-name="Trazado 103024" d="M358.536,69.062l-.038.814h-8.983a3.128,3.128,0,0,0,1,2.219,3.1,3.1,0,0,0,2.137.763,2.975,2.975,0,0,0,1.6-.42,2.543,2.543,0,0,0,1.017-1.221l3.116.464a5.309,5.309,0,0,1-2.143,2.842,6.314,6.314,0,0,1-3.586,1.007,6.575,6.575,0,0,1-4.724-1.666,7,7,0,0,1,.006-9.264,6.358,6.358,0,0,1,4.618-1.691,5.566,5.566,0,0,1,5.99,6.148Zm-5.983-3.745a2.7,2.7,0,0,0-2.95,2.34h5.57a2.543,2.543,0,0,0-.845-1.735,2.651,2.651,0,0,0-1.776-.6Z" transform="translate(-328.066 -58.252)"/>
    <path id="Trazado_103025" data-name="Trazado 103025" d="M377.427,63.177h3.23V74.411a9.019,9.019,0,0,1-.452,3.022,5.017,5.017,0,0,1-1.316,2.066,5.541,5.541,0,0,1-1.984,1.151,8.621,8.621,0,0,1-2.645.375q-4.8,0-6.25-3.764l2.817-1.2a4.171,4.171,0,0,0,1.31,1.763,3.37,3.37,0,0,0,2,.566c2.1,0,3.179-1.272,3.179-3.745V73.228a3.815,3.815,0,0,1-1.526,1.2,5.037,5.037,0,0,1-2.155.452,5.4,5.4,0,0,1-2.13-.426,5.341,5.341,0,0,1-1.763-1.208,5.479,5.479,0,0,1-1.2-1.908,6.994,6.994,0,0,1,0-4.915,5.322,5.322,0,0,1,1.2-1.908,5.672,5.672,0,0,1,1.767-1.183,5.525,5.525,0,0,1,2.143-.42,4.922,4.922,0,0,1,2.251.5,3.548,3.548,0,0,1,1.5,1.336Zm-5.205,8.018a3.106,3.106,0,0,0,4.45,0,3.4,3.4,0,0,0,0-4.618,3.148,3.148,0,0,0-4.45,0,3.242,3.242,0,0,0-.89,2.333,3.18,3.18,0,0,0,.89,2.283Z" transform="translate(-336.022 -58.255)"/>
    <path id="Trazado_103026" data-name="Trazado 103026" d="M396.705,65.152a3.986,3.986,0,0,1,1.6-1.456,4.819,4.819,0,0,1,2.372-.636v3.022a4.635,4.635,0,0,0-2.906.751,3.2,3.2,0,0,0-.9,2.6v5.92h-3.42V63.231h3.255Z" transform="translate(-345.287 -58.311)"/>
    <path id="Trazado_103027" data-name="Trazado 103027" d="M412.911,75.555a7.7,7.7,0,0,1-3.433-.737,5.576,5.576,0,0,1-2.351-2.187,6.479,6.479,0,0,1-.858-3.383,5.938,5.938,0,0,1,1.847-4.6,7.7,7.7,0,0,1,9.613,0,6.712,6.712,0,0,1-.008,9.221,6.81,6.81,0,0,1-4.811,1.689Zm-.038-2.7a3.116,3.116,0,0,0,2.4-.966,4.2,4.2,0,0,0,0-5.239,3.116,3.116,0,0,0-2.4-.992,3,3,0,0,0-2.327.979,4.235,4.235,0,0,0,0,5.252,3.007,3.007,0,0,0,2.327.966Z" transform="translate(-349.952 -58.274)"/>
  </g>
  <g id="Grupo_57743" data-name="Grupo 57743" transform="translate(202.896 95.513)">
    <path id="Trazado_103028" data-name="Trazado 103028" d="M323.045,151.22a2.028,2.028,0,0,1,1.091.292,1.964,1.964,0,0,1,.738.776,2.275,2.275,0,0,1,.252,1.081,2.1,2.1,0,0,1-.578,1.52,1.99,1.99,0,0,1-1.507.636h-1.763v2.715H320.4v-6.994Zm-.127,3.5a1.272,1.272,0,0,0,.973-.375,1.572,1.572,0,0,0,0-1.977,1.272,1.272,0,0,0-.973-.381h-1.634v2.734Z" transform="translate(-319.58 -150.584)"/>
    <path id="Trazado_103029" data-name="Trazado 103029" d="M331.069,159.463a2.543,2.543,0,0,1-1.272-.3,2.187,2.187,0,0,1-.884-.884,2.728,2.728,0,0,1-.324-1.348,2.543,2.543,0,0,1,.693-1.847,2.6,2.6,0,0,1,3.535,0,2.8,2.8,0,0,1,0,3.687A2.4,2.4,0,0,1,331.069,159.463Zm0-.712a1.511,1.511,0,0,0,1.157-.5,1.908,1.908,0,0,0,.458-1.322,1.863,1.863,0,0,0-.458-1.316,1.494,1.494,0,0,0-1.157-.5,1.475,1.475,0,0,0-1.144.5,1.863,1.863,0,0,0-.452,1.316,1.907,1.907,0,0,0,.452,1.322,1.5,1.5,0,0,0,1.138.5Z" transform="translate(-322.561 -151.738)"/>
    <path id="Trazado_103030" data-name="Trazado 103030" d="M341.864,150.22h.858v7.63h-.833V156.9a1.8,1.8,0,0,1-.693.769,1.94,1.94,0,0,1-1.037.286,2.2,2.2,0,0,1-.884-.185,2.078,2.078,0,0,1-.725-.509,2.283,2.283,0,0,1-.5-.808,2.919,2.919,0,0,1-.178-1.043,2.588,2.588,0,0,1,.636-1.838,2.149,2.149,0,0,1,1.621-.706,1.945,1.945,0,0,1,1.023.28,1.831,1.831,0,0,1,.7.744Zm-1.545,6.994a1.482,1.482,0,0,0,1.138-.509,1.87,1.87,0,0,0,.458-1.272,1.831,1.831,0,0,0-.464-1.272,1.45,1.45,0,0,0-1.132-.515,1.488,1.488,0,0,0-1.138.5,1.838,1.838,0,0,0-.464,1.272,1.812,1.812,0,0,0,.464,1.272,1.488,1.488,0,0,0,1.138.521Z" transform="translate(-325.944 -150.22)"/>
    <path id="Trazado_103031" data-name="Trazado 103031" d="M352.346,156.846v.235h-3.815a1.735,1.735,0,0,0,.464,1.272,1.532,1.532,0,0,0,1.112.439,1.475,1.475,0,0,0,1.367-.884l.776.168a2.168,2.168,0,0,1-.833,1.049,2.282,2.282,0,0,1-1.272.381,2.384,2.384,0,0,1-1.763-.68,2.906,2.906,0,0,1,0-3.713,2.327,2.327,0,0,1,1.73-.68,2.2,2.2,0,0,1,1.641.636A2.467,2.467,0,0,1,352.346,156.846Zm-2.267-1.78a1.511,1.511,0,0,0-1.018.35,1.583,1.583,0,0,0-.515,1.007h2.933a1.462,1.462,0,0,0-.432-1.007,1.348,1.348,0,0,0-.986-.35Z" transform="translate(-329.527 -151.753)"/>
    <path id="Trazado_103032" data-name="Trazado 103032" d="M357.934,155.38a1.512,1.512,0,0,1,.636-.636,1.806,1.806,0,0,1,.934-.252v.808a1.6,1.6,0,0,0-1.132.363,1.511,1.511,0,0,0-.395,1.157v2.6h-.857V154.54h.84Z" transform="translate(-332.953 -151.775)"/>
    <path id="Trazado_103033" data-name="Trazado 103033" d="M364.139,159.463a2.543,2.543,0,0,1-1.272-.3,2.232,2.232,0,0,1-.884-.884,2.728,2.728,0,0,1-.324-1.348,2.543,2.543,0,0,1,.693-1.847,2.6,2.6,0,0,1,3.535,0,2.8,2.8,0,0,1,0,3.687,2.4,2.4,0,0,1-1.749.693Zm0-.712a1.511,1.511,0,0,0,1.157-.5,1.908,1.908,0,0,0,.458-1.322,1.863,1.863,0,0,0-.458-1.316,1.5,1.5,0,0,0-1.157-.5,1.475,1.475,0,0,0-1.144.5,1.863,1.863,0,0,0-.452,1.316,1.907,1.907,0,0,0,.452,1.322,1.5,1.5,0,0,0,1.138.5Z" transform="translate(-334.605 -151.738)"/>
    <path id="Trazado_103034" data-name="Trazado 103034" d="M372.882,159.47a2.334,2.334,0,0,1-1.316-.35,1.443,1.443,0,0,1-.635-1.008l.751-.216a1.042,1.042,0,0,0,.395.68,1.323,1.323,0,0,0,.808.242,1.742,1.742,0,0,0,.464-.064.813.813,0,0,0,.363-.242.636.636,0,0,0,.146-.445.681.681,0,0,0-.044-.2.634.634,0,0,0-.076-.159.408.408,0,0,0-.14-.134l-.168-.108a1.758,1.758,0,0,0-.222-.089l-.235-.084-.274-.076-.286-.084c-.2-.064-.375-.121-.509-.178a2.282,2.282,0,0,1-.407-.235.91.91,0,0,1-.324-.388,1.309,1.309,0,0,1-.108-.547,1.272,1.272,0,0,1,.242-.776,1.323,1.323,0,0,1,.636-.464,2.454,2.454,0,0,1,.871-.14,2.155,2.155,0,0,1,1.189.318,1.374,1.374,0,0,1,.588.954l-.706.178a.928.928,0,0,0-.375-.636,1.157,1.157,0,0,0-.7-.21,1.215,1.215,0,0,0-.636.168.579.579,0,0,0-.274.528.483.483,0,0,0,.076.267.678.678,0,0,0,.146.191.7.7,0,0,0,.267.146,2.285,2.285,0,0,0,.286.108l.356.089h.076l.47.134a3.4,3.4,0,0,1,.42.178,1.544,1.544,0,0,1,.381.267,1.272,1.272,0,0,1,.242.375,1.42,1.42,0,0,1,.1.528,1.469,1.469,0,0,1-.146.636,1.144,1.144,0,0,1-.4.452,1.812,1.812,0,0,1-.566.242A2.609,2.609,0,0,1,372.882,159.47Z" transform="translate(-337.982 -151.745)"/>
    <path id="Trazado_103035" data-name="Trazado 103035" d="M380.739,159.463a2.543,2.543,0,0,1-1.272-.3,2.175,2.175,0,0,1-.877-.884,2.664,2.664,0,0,1-.331-1.348,2.543,2.543,0,0,1,.693-1.847,2.6,2.6,0,0,1,3.535,0,2.8,2.8,0,0,1,0,3.687A2.385,2.385,0,0,1,380.739,159.463Zm0-.712a1.511,1.511,0,0,0,1.157-.5,1.908,1.908,0,0,0,.458-1.322,1.863,1.863,0,0,0-.458-1.316,1.494,1.494,0,0,0-1.157-.5,1.475,1.475,0,0,0-1.144.5,2.154,2.154,0,0,0,0,2.639,1.5,1.5,0,0,0,1.138.5Z" transform="translate(-340.65 -151.738)"/>
    <path id="Trazado_103036" data-name="Trazado 103036" d="M323.114,177.452a3.77,3.77,0,0,1-1.379-.252,3.574,3.574,0,0,1-1.107-.706,3.179,3.179,0,0,1-.731-1.138,4.348,4.348,0,0,1,0-3,3.236,3.236,0,0,1,.737-1.138,3.471,3.471,0,0,1,1.1-.706,3.771,3.771,0,0,1,1.379-.252,3.526,3.526,0,0,1,1.856.5,3.064,3.064,0,0,1,1.253,1.367l-.82.336a2.358,2.358,0,0,0-.916-1,2.62,2.62,0,0,0-1.354-.35,2.841,2.841,0,0,0-1.023.185,2.422,2.422,0,0,0-.82.528,2.351,2.351,0,0,0-.553.865,3.18,3.18,0,0,0-.2,1.157,3.248,3.248,0,0,0,.2,1.17,2.351,2.351,0,0,0,.553.865,2.423,2.423,0,0,0,.82.528,2.716,2.716,0,0,0,1.023.185,2.619,2.619,0,0,0,1.354-.35,2.326,2.326,0,0,0,.916-.986l.82.331a3.052,3.052,0,0,1-1.272,1.367,3.592,3.592,0,0,1-1.838.489Z" transform="translate(-319.299 -157.52)"/>
    <path id="Trazado_103037" data-name="Trazado 103037" d="M333.826,178.663a2.543,2.543,0,0,1-1.272-.306,2.149,2.149,0,0,1-.884-.884,2.728,2.728,0,0,1-.324-1.348,2.493,2.493,0,0,1,.693-1.847,2.6,2.6,0,0,1,3.535,0,2.543,2.543,0,0,1,.687,1.847,2.486,2.486,0,0,1-.693,1.847,2.372,2.372,0,0,1-1.742.693Zm0-.712a1.526,1.526,0,0,0,1.157-.5,2.13,2.13,0,0,0,0-2.639,1.5,1.5,0,0,0-1.157-.5,1.468,1.468,0,0,0-1.144.5,2.13,2.13,0,0,0,0,2.639,1.488,1.488,0,0,0,1.138.5Z" transform="translate(-323.565 -158.731)"/>
    <path id="Trazado_103038" data-name="Trazado 103038" d="M343.538,173.589a1.71,1.71,0,0,1,1.227.445,1.653,1.653,0,0,1,.458,1.272v3.287h-.858V175.5a1.169,1.169,0,0,0-.3-.877,1.05,1.05,0,0,0-.763-.286,1.2,1.2,0,0,0-.871.336,1.393,1.393,0,0,0-.343,1v2.918h-.858v-4.883h.858v.636a1.628,1.628,0,0,1,1.45-.755Z" transform="translate(-327.165 -158.73)"/>
    <path id="Trazado_103039" data-name="Trazado 103039" d="M351.276,177.691a1.272,1.272,0,0,1-.954-.35,1.316,1.316,0,0,1-.35-.973v-2.874H349v-.687h.369a.687.687,0,0,0,.534-.168.82.82,0,0,0,.159-.573v-.887h.8v1.628h1.119v.687h-1.119v2.785a.744.744,0,0,0,.185.534.636.636,0,0,0,.49.191h.445v.687Z" transform="translate(-329.995 -157.853)"/>
    <path id="Trazado_103040" data-name="Trazado 103040" d="M356.45,174.58a1.488,1.488,0,0,1,.6-.636,1.812,1.812,0,0,1,.941-.252v.808a1.621,1.621,0,0,0-1.138.363,1.511,1.511,0,0,0-.388,1.157v2.6h-.858V173.74h.84Z" transform="translate(-332.402 -158.768)"/>
    <path id="Trazado_103041" data-name="Trazado 103041" d="M362.662,178.664a2.544,2.544,0,0,1-1.272-.3,2.174,2.174,0,0,1-.877-.884,2.727,2.727,0,0,1-.324-1.348,2.492,2.492,0,0,1,.693-1.847,2.594,2.594,0,0,1,3.526,0,2.8,2.8,0,0,1,0,3.687A2.384,2.384,0,0,1,362.662,178.664Zm0-.712a1.511,1.511,0,0,0,1.151-.5,2.13,2.13,0,0,0,0-2.639,1.57,1.57,0,0,0-2.3,0,2.155,2.155,0,0,0,0,2.639,1.5,1.5,0,0,0,1.15.5Z" transform="translate(-334.069 -158.731)"/>
    <path id="Trazado_103042" data-name="Trazado 103042" d="M370.07,177.05v-7.63h.865v7.63Z" transform="translate(-337.668 -157.213)"/>
    <path id="Trazado_103043" data-name="Trazado 103043" d="M375.142,178.67a1.646,1.646,0,0,1-1.075-.336,1.2,1.2,0,0,1-.42-1,1.323,1.323,0,0,1,.14-.636,1.062,1.062,0,0,1,.394-.445,2.392,2.392,0,0,1,.573-.28,5.42,5.42,0,0,1,.744-.168l.788-.134c.292-.051.432-.2.432-.452a.845.845,0,0,0-.3-.725,1.208,1.208,0,0,0-.769-.235,1.311,1.311,0,0,0-.769.222.96.96,0,0,0-.363.687l-.776-.159a1.512,1.512,0,0,1,.636-1.049,2.251,2.251,0,0,1,1.329-.35,2.677,2.677,0,0,1,.706.089,1.793,1.793,0,0,1,.588.274,1.2,1.2,0,0,1,.426.521,2.079,2.079,0,0,1,.146.808v2.015a.82.82,0,0,0,.114.509.484.484,0,0,0,.388.133h.076v.636h-.464a.808.808,0,0,1-.924-.636h-.045a1.847,1.847,0,0,1-1.572.707Zm.2-.693a1.3,1.3,0,0,0,1.049-.477,1.907,1.907,0,0,0,.395-1.272l-1.272.252a1.736,1.736,0,0,0-.756.274.705.705,0,0,0-.007,1.068.954.954,0,0,0,.566.159Z" transform="translate(-338.97 -158.737)"/>
    <path id="Trazado_103044" data-name="Trazado 103044" d="M385.8,169.42h.858v7.63h-.824V176.1a1.818,1.818,0,0,1-.7.769,1.907,1.907,0,0,1-1.03.286,2.2,2.2,0,0,1-.884-.185,2.168,2.168,0,0,1-.731-.509,2.363,2.363,0,0,1-.489-.808,2.918,2.918,0,0,1-.178-1.043,2.543,2.543,0,0,1,.636-1.838,2.13,2.13,0,0,1,1.621-.706,1.965,1.965,0,0,1,1.036.261,1.817,1.817,0,0,1,.693.744Zm-1.539,6.994a1.468,1.468,0,0,0,1.138-.509,1.87,1.87,0,0,0,.458-1.272,1.831,1.831,0,0,0-.464-1.272,1.463,1.463,0,0,0-1.132-.515,1.511,1.511,0,0,0-1.144.5,1.863,1.863,0,0,0-.458,1.3,1.837,1.837,0,0,0,.458,1.272,1.511,1.511,0,0,0,1.144.489Z" transform="translate(-341.945 -157.213)"/>
    <path id="Trazado_103045" data-name="Trazado 103045" d="M394,178.663a2.543,2.543,0,0,1-1.272-.306,2.188,2.188,0,0,1-.884-.884,2.728,2.728,0,0,1-.324-1.348,2.543,2.543,0,0,1,.693-1.847,2.6,2.6,0,0,1,3.535,0,2.8,2.8,0,0,1,0,3.687,2.4,2.4,0,0,1-1.749.693Zm0-.712a1.511,1.511,0,0,0,1.157-.5,2.13,2.13,0,0,0,0-2.639,1.494,1.494,0,0,0-1.157-.5,1.475,1.475,0,0,0-1.144.5,2.155,2.155,0,0,0,0,2.639,1.5,1.5,0,0,0,1.138.5Z" transform="translate(-345.479 -158.73)"/>
    <path id="Trazado_103046" data-name="Trazado 103046" d="M402.24,174.58a1.511,1.511,0,0,1,.636-.636,1.806,1.806,0,0,1,.934-.252v.808a1.6,1.6,0,0,0-1.132.363,1.511,1.511,0,0,0-.395,1.157v2.6H401.4V173.74h.84Z" transform="translate(-349.078 -158.768)"/>
    <path id="Trazado_103047" data-name="Trazado 103047" d="M324.419,196.614l-.6-1.672h-3.179l-.6,1.672h-.929l2.575-6.994h1.062l2.582,6.994Zm-3.472-2.454h2.6l-1.335-3.662Z" transform="translate(-319.11 -164.569)"/>
    <path id="Trazado_103048" data-name="Trazado 103048" d="M333.738,192.933h.865v4.883h-.827v-.636a1.539,1.539,0,0,1-.636.547,1.847,1.847,0,0,1-.852.191,1.7,1.7,0,0,1-1.227-.439,1.646,1.646,0,0,1-.464-1.272V192.92h.89v3.1a1.164,1.164,0,0,0,.3.877,1.068,1.068,0,0,0,.769.286,1.175,1.175,0,0,0,.865-.336,1.373,1.373,0,0,0,.336-1Z" transform="translate(-323.292 -165.771)"/>
    <path id="Trazado_103049" data-name="Trazado 103049" d="M340.781,196.884a1.272,1.272,0,0,1-.954-.35,1.316,1.316,0,0,1-.35-.973v-2.886h-1v-.685h.369a.719.719,0,0,0,.541-.168.858.858,0,0,0,.153-.573v-.888h.8v1.629h1.125v.687h-1.124v2.785a.744.744,0,0,0,.185.534.636.636,0,0,0,.49.191h.452v.687Z" transform="translate(-326.164 -164.839)"/>
    <path id="Trazado_103050" data-name="Trazado 103050" d="M346.849,197.863a2.544,2.544,0,0,1-1.272-.306,2.174,2.174,0,0,1-.877-.884,2.664,2.664,0,0,1-.331-1.348,2.543,2.543,0,0,1,.693-1.847,2.6,2.6,0,0,1,3.535,0,2.8,2.8,0,0,1,0,3.687,2.385,2.385,0,0,1-1.749.7Zm0-.712a1.511,1.511,0,0,0,1.157-.5,1.907,1.907,0,0,0,.458-1.322,1.863,1.863,0,0,0-.458-1.316,1.494,1.494,0,0,0-1.157-.5,1.475,1.475,0,0,0-1.144.5,2.154,2.154,0,0,0,0,2.639,1.5,1.5,0,0,0,1.138.5Z" transform="translate(-328.308 -165.722)"/>
    <path id="Trazado_103051" data-name="Trazado 103051" d="M355.1,193.78a1.488,1.488,0,0,1,.6-.636,1.806,1.806,0,0,1,.934-.252v.808a1.6,1.6,0,0,0-1.132.363,1.511,1.511,0,0,0-.388,1.157v2.6h-.865V192.94h.845Z" transform="translate(-331.907 -165.76)"/>
    <path id="Trazado_103052" data-name="Trazado 103052" d="M359.945,190.478a.588.588,0,0,1-.588-.588.553.553,0,0,1,.168-.407.588.588,0,0,1,.82,0,.573.573,0,0,1,.168.407.588.588,0,0,1-.168.413A.566.566,0,0,1,359.945,190.478Zm-.439,6.027v-4.883h.895v4.883Z" transform="translate(-333.768 -164.459)"/>
    <path id="Trazado_103053" data-name="Trazado 103053" d="M364.835,196.884a1.271,1.271,0,0,1-.954-.35,1.335,1.335,0,0,1-.343-.973v-2.886h-1v-.685h.363a.705.705,0,0,0,.541-.168.82.82,0,0,0,.159-.573v-.888h.8v1.629h1.119v.687H364.4v2.785a.719.719,0,0,0,.185.534.636.636,0,0,0,.489.191h.445v.687Z" transform="translate(-334.926 -164.839)"/>
    <path id="Trazado_103054" data-name="Trazado 103054" d="M370.006,197.875a1.628,1.628,0,0,1-1.068-.336,1.2,1.2,0,0,1-.42-1,1.4,1.4,0,0,1,.133-.636,1.08,1.08,0,0,1,.4-.445,2.174,2.174,0,0,1,.573-.28,5.007,5.007,0,0,1,.744-.168l.788-.133c.286-.051.432-.2.432-.452a.845.845,0,0,0-.3-.725,1.393,1.393,0,0,0-1.539,0,.934.934,0,0,0-.363.68l-.776-.159a1.525,1.525,0,0,1,.636-1.049,2.289,2.289,0,0,1,1.335-.349,2.744,2.744,0,0,1,.706.089,1.858,1.858,0,0,1,.588.274,1.233,1.233,0,0,1,.42.521,1.964,1.964,0,0,1,.153.808v2.015a.82.82,0,0,0,.114.509.471.471,0,0,0,.381.133h.084v.636H372.6c-.528,0-.84-.216-.929-.636h-.038a1.847,1.847,0,0,1-1.625.7Zm.2-.693a1.317,1.317,0,0,0,1.049-.47,1.984,1.984,0,0,0,.395-1.272l-1.272.252a1.7,1.7,0,0,0-.756.274.711.711,0,0,0-.013,1.068.986.986,0,0,0,.6.148Z" transform="translate(-337.102 -165.734)"/>
    <path id="Trazado_103055" data-name="Trazado 103055" d="M378.323,193.78a1.506,1.506,0,0,1,.636-.636,1.806,1.806,0,0,1,.934-.252v.808a1.6,1.6,0,0,0-1.132.363,1.512,1.512,0,0,0-.388,1.157v2.6h-.865V192.94h.84Z" transform="translate(-340.378 -165.76)"/>
    <path id="Trazado_103056" data-name="Trazado 103056" d="M383.165,190.478a.588.588,0,0,1-.588-.588.553.553,0,0,1,.168-.407.588.588,0,0,1,.413-.168.566.566,0,0,1,.4.168.553.553,0,0,1,.168.407.566.566,0,0,1-.168.413A.547.547,0,0,1,383.165,190.478Zm-.439,6.027v-4.883h.865v4.883Z" transform="translate(-342.224 -164.459)"/>
    <path id="Trazado_103057" data-name="Trazado 103057" d="M388.727,197.864a2.543,2.543,0,0,1-1.272-.3,2.175,2.175,0,0,1-.877-.884,2.727,2.727,0,0,1-.324-1.348,2.492,2.492,0,0,1,.693-1.847,2.594,2.594,0,0,1,3.526,0,2.8,2.8,0,0,1,0,3.687,2.384,2.384,0,0,1-1.746.7Zm0-.712a1.511,1.511,0,0,0,1.151-.5,1.908,1.908,0,0,0,.458-1.322,1.863,1.863,0,0,0-.458-1.316,1.571,1.571,0,0,0-2.3,0,2.154,2.154,0,0,0,0,2.639,1.5,1.5,0,0,0,1.15.5Z" transform="translate(-343.563 -165.724)"/>
    <path id="Trazado_103058" data-name="Trazado 103058" d="M320.4,215.813V208.82h2.251a3.351,3.351,0,0,1,1.78.452,2.74,2.74,0,0,1,1.091,1.233,4.318,4.318,0,0,1,.356,1.806,4.712,4.712,0,0,1-.2,1.418,3.321,3.321,0,0,1-.6,1.107,2.651,2.651,0,0,1-1.018.725,3.642,3.642,0,0,1-1.405.252Zm.884-.808h1.343a2.13,2.13,0,0,0,1.742-.719,3.58,3.58,0,0,0,0-3.946,2.136,2.136,0,0,0-1.742-.712h-1.343Z" transform="translate(-319.58 -171.56)"/>
    <path id="Trazado_103059" data-name="Trazado 103059" d="M331.745,209.678a.588.588,0,0,1-.588-.588.553.553,0,0,1,.168-.407.587.587,0,0,1,.413-.168.566.566,0,0,1,.4.168.553.553,0,0,1,.168.407.566.566,0,0,1-.168.413.547.547,0,0,1-.4.168Zm-.438,6.027v-4.883h.865v4.883Z" transform="translate(-323.498 -171.451)"/>
    <path id="Trazado_103060" data-name="Trazado 103060" d="M336.812,217.092a2.308,2.308,0,0,1-1.316-.35,1.45,1.45,0,0,1-.635-1.007l.751-.216a1.031,1.031,0,0,0,.4.68,1.272,1.272,0,0,0,.8.242,1.794,1.794,0,0,0,.47-.064.763.763,0,0,0,.356-.242.636.636,0,0,0,.146-.445.966.966,0,0,0-.038-.2.919.919,0,0,0-.084-.159.357.357,0,0,0-.168-.146,1.437,1.437,0,0,0-.168-.108,1.765,1.765,0,0,0-.222-.089l-.235-.084-.274-.076-.286-.084c-.2-.064-.369-.121-.5-.178a2.125,2.125,0,0,1-.413-.235.9.9,0,0,1-.318-.388,1.215,1.215,0,0,1-.108-.547,1.272,1.272,0,0,1,.235-.776,1.335,1.335,0,0,1,.636-.464,2.416,2.416,0,0,1,.865-.14,2.136,2.136,0,0,1,1.189.318,1.335,1.335,0,0,1,.588.954l-.706.178a.924.924,0,0,0-.369-.636,1.182,1.182,0,0,0-.7-.21,1.221,1.221,0,0,0-.636.168.588.588,0,0,0-.267.528.484.484,0,0,0,.07.267.682.682,0,0,0,.146.191.954.954,0,0,0,.267.153l.286.1.363.089H337c.2.044.35.089.47.127a3.913,3.913,0,0,1,.426.178,1.388,1.388,0,0,1,.375.267,1.226,1.226,0,0,1,.242.381,1.364,1.364,0,0,1,.1.521,1.387,1.387,0,0,1-.146.636,1.182,1.182,0,0,1-.395.452,1.908,1.908,0,0,1-.573.242,2.593,2.593,0,0,1-.686.175Z" transform="translate(-324.846 -172.725)"/>
    <path id="Trazado_103061" data-name="Trazado 103061" d="M344.673,217.1a2.333,2.333,0,0,1-1.749-.7,2.771,2.771,0,0,1,0-3.662,2.34,2.34,0,0,1,1.755-.706,2.365,2.365,0,0,1,1.411.432,2.117,2.117,0,0,1,.82,1.183l-.8.133a1.462,1.462,0,0,0-1.436-1.03,1.443,1.443,0,0,0-1.132.5,2.168,2.168,0,0,0,0,2.632,1.526,1.526,0,0,0,2.569-.534l.8.133a2.111,2.111,0,0,1-.826,1.189A2.359,2.359,0,0,1,344.673,217.1Z" transform="translate(-327.531 -172.729)"/>
    <path id="Trazado_103062" data-name="Trazado 103062" d="M351.929,209.68a.553.553,0,0,1-.407-.168.566.566,0,0,1-.168-.413.553.553,0,0,1,.168-.407.588.588,0,0,1,.814,0,.553.553,0,0,1,.168.407.566.566,0,0,1-.168.413.553.553,0,0,1-.406.168Zm-.432,6.027v-4.883h.858v4.883Z" transform="translate(-330.852 -171.453)"/>
    <path id="Trazado_103063" data-name="Trazado 103063" d="M358.276,212a2.2,2.2,0,0,1,.884.185,2.136,2.136,0,0,1,.725.5,2.429,2.429,0,0,1,.489.808,3,3,0,0,1,.185,1.055,2.588,2.588,0,0,1-.636,1.847,2.143,2.143,0,0,1-1.621.7,1.965,1.965,0,0,1-1.023-.28,1.831,1.831,0,0,1-.693-.751v3.383h-.865v-7.35h.814v.954a1.749,1.749,0,0,1,.693-.763A1.938,1.938,0,0,1,358.276,212Zm-.168,4.336a1.468,1.468,0,0,0,1.132-.489,2.085,2.085,0,0,0,0-2.6,1.468,1.468,0,0,0-1.132-.489,1.488,1.488,0,0,0-1.144.515,1.824,1.824,0,0,0-.47,1.272,1.847,1.847,0,0,0,.47,1.272,1.481,1.481,0,0,0,1.144.521Z" transform="translate(-332.443 -172.719)"/>
    <path id="Trazado_103064" data-name="Trazado 103064" d="M365.46,215.45v-7.63h.873v7.63Z" transform="translate(-335.99 -171.197)"/>
    <path id="Trazado_103065" data-name="Trazado 103065" d="M369.929,209.68a.553.553,0,0,1-.407-.168.566.566,0,0,1-.168-.413.552.552,0,0,1,.168-.407.588.588,0,0,1,.814,0,.553.553,0,0,1,.168.407.566.566,0,0,1-.168.413.553.553,0,0,1-.406.168Zm-.432,6.027v-4.883h.858v4.883Z" transform="translate(-337.407 -171.453)"/>
    <path id="Trazado_103066" data-name="Trazado 103066" d="M375.988,212a1.7,1.7,0,0,1,1.227.445,1.653,1.653,0,0,1,.464,1.272V217h-.865v-3.1a1.17,1.17,0,0,0-.292-.877,1.075,1.075,0,0,0-.769-.28,1.164,1.164,0,0,0-.865.331,1.343,1.343,0,0,0-.343,1V217h-.865v-4.883h.84v.636a1.621,1.621,0,0,1,1.467-.751Z" transform="translate(-338.984 -172.717)"/>
    <path id="Trazado_103067" data-name="Trazado 103067" d="M383.492,217.1a1.615,1.615,0,0,1-1.068-.336,1.182,1.182,0,0,1-.426-1,1.4,1.4,0,0,1,.14-.636,1.061,1.061,0,0,1,.394-.445,2.391,2.391,0,0,1,.573-.28,5.414,5.414,0,0,1,.744-.168l.788-.133c.292-.051.432-.2.432-.452a.845.845,0,0,0-.3-.725,1.208,1.208,0,0,0-.769-.235,1.272,1.272,0,0,0-.769.229.934.934,0,0,0-.363.68l-.769-.159a1.481,1.481,0,0,1,.636-1.049,2.251,2.251,0,0,1,1.329-.35,2.676,2.676,0,0,1,.706.089,1.793,1.793,0,0,1,.588.274,1.2,1.2,0,0,1,.426.521,1.964,1.964,0,0,1,.153.808v2.015a.826.826,0,0,0,.108.509.483.483,0,0,0,.388.133h.076v.636h-.426a.808.808,0,0,1-.924-.636h-.045a1.847,1.847,0,0,1-1.621.712Zm.2-.693a1.316,1.316,0,0,0,1.049-.47,1.953,1.953,0,0,0,.395-1.272l-1.272.252a1.819,1.819,0,0,0-.756.274.718.718,0,0,0-.007,1.068.954.954,0,0,0,.588.134Z" transform="translate(-342.012 -172.733)"/>
    <path id="Trazado_103068" data-name="Trazado 103068" d="M394.188,207.82h.865v7.63h-.833V214.5a1.847,1.847,0,0,1-.693.769,1.94,1.94,0,0,1-1.036.286,2.2,2.2,0,0,1-.884-.185,2.078,2.078,0,0,1-.725-.509,2.316,2.316,0,0,1-.5-.8,2.982,2.982,0,0,1-.178-1.049,2.543,2.543,0,0,1,.635-1.838,2.136,2.136,0,0,1,1.621-.706,1.964,1.964,0,0,1,1.023.28,1.818,1.818,0,0,1,.693.744Zm-1.539,6.994a1.469,1.469,0,0,0,1.138-.509,1.869,1.869,0,0,0,.458-1.272,1.847,1.847,0,0,0-.464-1.272,1.462,1.462,0,0,0-1.132-.515,1.511,1.511,0,0,0-1.144.5,1.863,1.863,0,0,0-.458,1.3,1.838,1.838,0,0,0,.458,1.272,1.511,1.511,0,0,0,1.144.489Z" transform="translate(-345.001 -171.197)"/>
    <path id="Trazado_103069" data-name="Trazado 103069" d="M402.389,217.093a2.544,2.544,0,0,1-1.272-.306,2.232,2.232,0,0,1-.884-.884,2.726,2.726,0,0,1-.324-1.348,2.543,2.543,0,0,1,.693-1.847,2.6,2.6,0,0,1,3.535,0,2.8,2.8,0,0,1,0,3.687,2.4,2.4,0,0,1-1.749.693Zm0-.712a1.511,1.511,0,0,0,1.157-.5,2.13,2.13,0,0,0,0-2.639,1.494,1.494,0,0,0-1.157-.5,1.475,1.475,0,0,0-1.144.5,2.155,2.155,0,0,0,0,2.639,1.5,1.5,0,0,0,1.138.484Z" transform="translate(-348.535 -172.726)"/>
    <path id="Trazado_103070" data-name="Trazado 103070" d="M324.145,228.827h-2.836v2.289h2.5v.8h-2.5V234.2h2.836v.8H320.4V228h3.745Z" transform="translate(-319.58 -178.546)"/>
    <path id="Trazado_103071" data-name="Trazado 103071" d="M328.62,234.63V227h.877v7.63Z" transform="translate(-322.573 -178.182)"/>
    <path id="Trazado_103072" data-name="Trazado 103072" d="M336.808,233.623v.235h-3.815a1.71,1.71,0,0,0,.47,1.272,1.526,1.526,0,0,0,1.112.438,1.481,1.481,0,0,0,.808-.235,1.551,1.551,0,0,0,.559-.636l.769.168a2.169,2.169,0,0,1-.833,1.049,2.283,2.283,0,0,1-1.272.381,2.359,2.359,0,0,1-1.755-.68,2.893,2.893,0,0,1,0-3.713,2.34,2.34,0,0,1,1.73-.68,2.206,2.206,0,0,1,1.646.636,2.493,2.493,0,0,1,.578,1.767Zm-2.267-1.78a1.494,1.494,0,0,0-1.008.349,1.583,1.583,0,0,0-.515,1.008h2.925a1.457,1.457,0,0,0-.426-1.007,1.373,1.373,0,0,0-.973-.331Z" transform="translate(-323.87 -179.718)"/>
    <path id="Trazado_103073" data-name="Trazado 103073" d="M344.866,231.289h.833v4.635A2.485,2.485,0,0,1,340.943,237l.712-.35a1.615,1.615,0,0,0,1.634,1.132,1.392,1.392,0,0,0,1.144-.477,2.054,2.054,0,0,0,.394-1.335v-.9a1.723,1.723,0,0,1-.693.706,2.149,2.149,0,0,1-2.6-.426,2.429,2.429,0,0,1-.636-1.735,2.378,2.378,0,0,1,.636-1.73,2.092,2.092,0,0,1,1.583-.687,2,2,0,0,1,1.023.274,1.806,1.806,0,0,1,.693.725Zm-1.552,4.012a1.5,1.5,0,0,0,1.125-.5,1.774,1.774,0,0,0,0-2.39,1.456,1.456,0,0,0-1.125-.5,1.481,1.481,0,0,0-1.125.484,1.716,1.716,0,0,0-.458,1.214,1.692,1.692,0,0,0,.464,1.208,1.475,1.475,0,0,0,1.119.484Z" transform="translate(-327.043 -179.711)"/>
    <path id="Trazado_103074" data-name="Trazado 103074" d="M352.146,236.273a1.666,1.666,0,0,1-1.068-.336,1.2,1.2,0,0,1-.42-1,1.448,1.448,0,0,1,.133-.636,1.106,1.106,0,0,1,.4-.439,2.173,2.173,0,0,1,.573-.28,5.871,5.871,0,0,1,.744-.178l.788-.127c.286-.051.432-.2.432-.452a.845.845,0,0,0-.3-.725,1.227,1.227,0,0,0-.776-.235,1.271,1.271,0,0,0-.763.222.96.96,0,0,0-.363.687l-.776-.168a1.5,1.5,0,0,1,.636-1.043,2.289,2.289,0,0,1,1.335-.35,2.748,2.748,0,0,1,.706.089,1.909,1.909,0,0,1,.588.274,1.233,1.233,0,0,1,.42.521,1.964,1.964,0,0,1,.153.808V234.9a.82.82,0,0,0,.114.509.464.464,0,0,0,.381.133h.084v.636h-.477a.814.814,0,0,1-.924-.636h-.038A1.869,1.869,0,0,1,352.146,236.273Zm.2-.693a1.272,1.272,0,0,0,1.043-.477,1.908,1.908,0,0,0,.4-1.272l-1.272.252a1.672,1.672,0,0,0-.756.274.711.711,0,0,0-.013,1.068.986.986,0,0,0,.578.159Z" transform="translate(-330.598 -179.717)"/>
    <path id="Trazado_103075" data-name="Trazado 103075" d="M361.888,231.188a1.71,1.71,0,0,1,1.227.445,1.653,1.653,0,0,1,.458,1.272v3.249h-.858v-3.1a1.139,1.139,0,0,0-.3-.871,1.049,1.049,0,0,0-.763-.286,1.2,1.2,0,0,0-.871.336,1.393,1.393,0,0,0-.343,1v2.916h-.858v-4.883h.856v.636a1.628,1.628,0,0,1,1.452-.715Z" transform="translate(-333.849 -179.706)"/>
    <path id="Trazado_103076" data-name="Trazado 103076" d="M369.611,235.271a1.272,1.272,0,0,1-.954-.35,1.317,1.317,0,0,1-.35-.973v-2.874h-1v-.685h.369a.719.719,0,0,0,.541-.168.858.858,0,0,0,.153-.573v-.888h.8v1.629h1.119v.687h-1.119v2.785a.744.744,0,0,0,.185.534.635.635,0,0,0,.489.191h.445v.687Z" transform="translate(-336.664 -178.823)"/>
    <path id="Trazado_103077" data-name="Trazado 103077" d="M377.911,233.623v.235H374.1a1.71,1.71,0,0,0,.464,1.272,1.583,1.583,0,0,0,1.908.2,1.494,1.494,0,0,0,.553-.636l.776.168a2.206,2.206,0,0,1-.833,1.049,2.283,2.283,0,0,1-1.272.381,2.372,2.372,0,0,1-1.763-.68,2.906,2.906,0,0,1,0-3.713,2.327,2.327,0,0,1,1.73-.68,2.2,2.2,0,0,1,1.641.636,2.467,2.467,0,0,1,.612,1.765Zm-2.257-1.78a1.5,1.5,0,0,0-1.018.35,1.583,1.583,0,0,0-.515,1.007h2.925a1.427,1.427,0,0,0-.426-1.007,1.348,1.348,0,0,0-.986-.331Z" transform="translate(-338.831 -179.718)"/>
  </g>
  <g id="Grupo_57744" data-name="Grupo 57744" transform="translate(203.545 74.12)">
    <path id="Trazado_103078" data-name="Trazado 103078" d="M323.118,117.108a2.168,2.168,0,0,1,1.653.636,2.346,2.346,0,0,1,.635,1.653,2.232,2.232,0,0,1-.635,1.641,2.183,2.183,0,0,1-1.653.636h-1.5v2.543H320.13v-7.109Zm-.252,3.358a1.068,1.068,0,0,0,.82-.28,1.049,1.049,0,0,0,.274-.776,1.068,1.068,0,0,0-.274-.769,1.091,1.091,0,0,0-.82-.286h-1.272v2.111Z" transform="translate(-320.13 -116.768)"/>
    <path id="Trazado_103079" data-name="Trazado 103079" d="M331.947,125.537a3.274,3.274,0,0,1-1.443-.311,2.351,2.351,0,0,1-.992-.924,2.707,2.707,0,0,1-.363-1.427,2.543,2.543,0,0,1,.776-1.908,3.237,3.237,0,0,1,4.05,0,2.824,2.824,0,0,1,0,3.885,2.874,2.874,0,0,1-2.028.685Zm0-1.138a1.316,1.316,0,0,0,1.007-.42,1.552,1.552,0,0,0,.381-1.1,1.583,1.583,0,0,0-.381-1.107,1.335,1.335,0,0,0-1.007-.413,1.271,1.271,0,0,0-.979.42,1.774,1.774,0,0,0,0,2.2,1.272,1.272,0,0,0,.966.42Z" transform="translate(-323.415 -117.916)"/>
    <path id="Trazado_103080" data-name="Trazado 103080" d="M341.189,125.519a2.906,2.906,0,0,1-1.494-.356,1.526,1.526,0,0,1-.725-1.068l1.2-.336a.96.96,0,0,0,1.023.763,1.007,1.007,0,0,0,.521-.121.4.4,0,0,0,.2-.395.439.439,0,0,0-.084-.261.789.789,0,0,0-.26-.191l-.35-.133-.458-.133a4.737,4.737,0,0,1-.47-.146,3.02,3.02,0,0,1-.452-.191,1.7,1.7,0,0,1-.369-.26,1.06,1.06,0,0,1-.28-.4,1.469,1.469,0,0,1-.1-.547,1.31,1.31,0,0,1,.553-1.144,2.505,2.505,0,0,1,1.45-.388,2.543,2.543,0,0,1,1.335.331,1.475,1.475,0,0,1,.687,1.023l-1.112.252a.858.858,0,0,0-.9-.636.979.979,0,0,0-.5.114.388.388,0,0,0-.168.5.306.306,0,0,0,.1.121l.146.1a.944.944,0,0,0,.2.084,1.834,1.834,0,0,0,.223.064l.26.07.267.07a4.449,4.449,0,0,1,.484.146,3.353,3.353,0,0,1,.439.21,1.691,1.691,0,0,1,.381.3,1.457,1.457,0,0,1,.252.426,1.6,1.6,0,0,1,.1.566,1.519,1.519,0,0,1-.168.737,1.272,1.272,0,0,1-.47.5,2.256,2.256,0,0,1-.636.267,3.461,3.461,0,0,1-.824.068Z" transform="translate(-326.991 -117.898)"/>
    <path id="Trazado_103081" data-name="Trazado 103081" d="M348.052,118.226a.827.827,0,1,1,.757-.824.819.819,0,0,1-.757.824Zm-.731,5.869v-5.087h1.443v5.087Z" transform="translate(-329.996 -116.576)"/>
    <path id="Trazado_103082" data-name="Trazado 103082" d="M353.529,124.534a1.532,1.532,0,0,1-1.157-.413,1.628,1.628,0,0,1-.407-1.183v-2.41h-1.007v-1.1h.324a.82.82,0,0,0,.636-.216,1.068,1.068,0,0,0,.2-.756v-.672h1.272v1.646h1.055v1.1h-1.055v2.257c0,.445.2.636.588.636h.464v1.091Z" transform="translate(-331.357 -117.014)"/>
    <path id="Trazado_103083" data-name="Trazado 103083" d="M358.865,118.226a.8.8,0,0,1-.588-.242.776.776,0,0,1-.242-.588.8.8,0,0,1,.242-.578.82.82,0,0,1,.588-.242.808.808,0,0,1,.579.242.82.82,0,0,1,0,1.164.808.808,0,0,1-.578.244Zm-.731,5.869v-5.086h1.443v5.086Z" transform="translate(-333.935 -116.576)"/>
    <path id="Trazado_103084" data-name="Trazado 103084" d="M365.662,120.37h1.52L365,125.456h-1.269l-2.149-5.086h1.539l1.272,3.491Z" transform="translate(-335.226 -117.957)"/>
    <path id="Trazado_103085" data-name="Trazado 103085" d="M373.4,125.536a3.287,3.287,0,0,1-1.45-.311,2.3,2.3,0,0,1-.986-.924,2.709,2.709,0,0,1-.363-1.427,2.486,2.486,0,0,1,.776-1.908,3.224,3.224,0,0,1,4.044,0,2.823,2.823,0,0,1,0,3.885A2.855,2.855,0,0,1,373.4,125.536Zm0-1.138a1.271,1.271,0,0,0,1.008-.42,1.532,1.532,0,0,0,.388-1.1,1.557,1.557,0,0,0-.388-1.107,1.316,1.316,0,0,0-1.008-.407,1.272,1.272,0,0,0-.979.42,1.774,1.774,0,0,0,0,2.2,1.272,1.272,0,0,0,.979.415Z" transform="translate(-338.509 -117.916)"/>
  </g>
  <g id="Grupo_57745" data-name="Grupo 57745" transform="translate(274.865 95.96)">
    <path id="Trazado_103086" data-name="Trazado 103086" d="M436.292,158.252a3.714,3.714,0,0,1-1.374-.252,3.433,3.433,0,0,1-1.107-.706,3.179,3.179,0,0,1-.738-1.138,4.3,4.3,0,0,1,0-3,3.224,3.224,0,0,1,.734-1.137,3.433,3.433,0,0,1,1.107-.706,3.862,3.862,0,0,1,2.74,0,3.167,3.167,0,0,1,1.838,1.838,4.058,4.058,0,0,1,.267,1.494,4.127,4.127,0,0,1-.267,1.507,3.237,3.237,0,0,1-.738,1.138,3.4,3.4,0,0,1-1.1.706,3.726,3.726,0,0,1-1.363.257Zm0-.84a2.543,2.543,0,0,0,1.847-.738,2.728,2.728,0,0,0,.731-2.022,3.178,3.178,0,0,0-.2-1.157,2.351,2.351,0,0,0-.553-.865,2.422,2.422,0,0,0-.82-.528,2.771,2.771,0,0,0-1.008-.185,2.809,2.809,0,0,0-1.018.185,2.39,2.39,0,0,0-.826.528,2.351,2.351,0,0,0-.553.865,3.177,3.177,0,0,0-.2,1.157,3.287,3.287,0,0,0,.2,1.175,2.383,2.383,0,0,0,.553.871,2.586,2.586,0,0,0,.826.528,2.809,2.809,0,0,0,1.018.186Z" transform="translate(-432.484 -150.974)"/>
    <path id="Trazado_103087" data-name="Trazado 103087" d="M448.68,154.389a2.183,2.183,0,0,1,.884.185,2.138,2.138,0,0,1,.725.5,2.326,2.326,0,0,1,.49.808,2.992,2.992,0,0,1,.185,1.055,2.544,2.544,0,0,1-.636,1.838,2.13,2.13,0,0,1-1.621.706,1.907,1.907,0,0,1-1.018-.28,1.847,1.847,0,0,1-.7-.751v3.383h-.859v-7.348h.826v.947a1.787,1.787,0,0,1,.7-.756,1.908,1.908,0,0,1,1.023-.286Zm-.168,4.336a1.468,1.468,0,0,0,1.125-.489,2.06,2.06,0,0,0,0-2.6,1.468,1.468,0,0,0-1.125-.489,1.511,1.511,0,0,0-1.151.509,2.009,2.009,0,0,0,0,2.543,1.511,1.511,0,0,0,1.154.53Z" transform="translate(-437.336 -152.186)"/>
    <path id="Trazado_103088" data-name="Trazado 103088" d="M456.7,155.38a1.487,1.487,0,0,1,.6-.636,1.847,1.847,0,0,1,.941-.252v.808a1.6,1.6,0,0,0-1.132.363,1.511,1.511,0,0,0-.395,1.157v2.6h-.858V154.54h.84Z" transform="translate(-440.88 -152.223)"/>
    <path id="Trazado_103089" data-name="Trazado 103089" d="M465.167,156.853v.235h-3.815a1.71,1.71,0,0,0,.464,1.272,1.526,1.526,0,0,0,1.112.439,1.482,1.482,0,0,0,.808-.235,1.511,1.511,0,0,0,.559-.636l.776.168a2.244,2.244,0,0,1-.833,1.049,2.283,2.283,0,0,1-1.272.381,2.372,2.372,0,0,1-1.763-.68,2.906,2.906,0,0,1,0-3.713,2.326,2.326,0,0,1,1.729-.68,2.2,2.2,0,0,1,1.641.636,2.467,2.467,0,0,1,.594,1.764Zm-2.257-1.78a1.5,1.5,0,0,0-1.018.35,1.583,1.583,0,0,0-.515,1.007H464.3a1.428,1.428,0,0,0-.426-1.007,1.348,1.348,0,0,0-.966-.35Z" transform="translate(-442.582 -152.208)"/>
    <path id="Trazado_103090" data-name="Trazado 103090" d="M471.252,159.47a2.308,2.308,0,0,1-1.316-.35,1.469,1.469,0,0,1-.636-1.008l.751-.216a1.03,1.03,0,0,0,.4.68,1.316,1.316,0,0,0,.8.242,1.793,1.793,0,0,0,.47-.064.814.814,0,0,0,.363-.242.636.636,0,0,0,.14-.445.528.528,0,0,0-.038-.2c0-.057-.051-.114-.076-.159a.407.407,0,0,0-.14-.134,1.221,1.221,0,0,0-.395-.2l-.235-.084-.274-.076-.28-.084a5,5,0,0,1-.509-.178,2.328,2.328,0,0,1-.413-.235.947.947,0,0,1-.318-.388,1.31,1.31,0,0,1-.108-.547,1.272,1.272,0,0,1,.235-.776,1.336,1.336,0,0,1,.636-.464,2.443,2.443,0,0,1,.865-.14,2.136,2.136,0,0,1,1.189.318,1.361,1.361,0,0,1,.6.954l-.706.178a.954.954,0,0,0-.375-.636,1.17,1.17,0,0,0-.7-.21,1.2,1.2,0,0,0-.636.168.579.579,0,0,0-.274.528.54.54,0,0,0,.07.267.636.636,0,0,0,.413.336,2.709,2.709,0,0,0,.292.108l.356.089h.076l.464.133a3.443,3.443,0,0,1,.426.178,1.545,1.545,0,0,1,.381.267,1.333,1.333,0,0,1,.336.9,1.468,1.468,0,0,1-.146.636,1.271,1.271,0,0,1-.4.452,1.906,1.906,0,0,1-.573.242,2.594,2.594,0,0,1-.719.146Z" transform="translate(-445.775 -152.192)"/>
    <path id="Trazado_103091" data-name="Trazado 103091" d="M477.669,152.079a.553.553,0,0,1-.407-.168.566.566,0,0,1-.168-.413.553.553,0,0,1,.168-.407.573.573,0,0,1,.407-.168.588.588,0,0,1,.407.168.553.553,0,0,1,.168.407.588.588,0,0,1-.579.588Zm-.439,6.027v-4.883h.865v4.883Z" transform="translate(-448.612 -150.923)"/>
    <path id="Trazado_103092" data-name="Trazado 103092" d="M484.057,154.54h.924l-1.99,4.883h-.731l-1.977-4.883h.916l1.427,3.885Z" transform="translate(-449.773 -152.241)"/>
    <path id="Trazado_103093" data-name="Trazado 103093" d="M490.778,159.463a2.543,2.543,0,0,1-1.272-.3,2.187,2.187,0,0,1-.884-.884,2.727,2.727,0,0,1-.324-1.348,2.492,2.492,0,0,1,.693-1.847,2.6,2.6,0,0,1,3.536,0,2.543,2.543,0,0,1,.687,1.847,2.486,2.486,0,0,1-.693,1.847,2.372,2.372,0,0,1-1.742.693Zm0-.712a1.526,1.526,0,0,0,1.157-.5,1.908,1.908,0,0,0,.458-1.322,1.863,1.863,0,0,0-.458-1.316,1.5,1.5,0,0,0-1.157-.5,1.475,1.475,0,0,0-1.144.5,1.863,1.863,0,0,0-.458,1.316,1.907,1.907,0,0,0,.458,1.322,1.5,1.5,0,0,0,1.138.5Z" transform="translate(-452.693 -152.186)"/>
    <path id="Trazado_103094" data-name="Trazado 103094" d="M437.36,171.234h-2.881v2.283h2.543v.808h-2.543v3.09h-.909v-6.994h3.783Z" transform="translate(-432.762 -158.024)"/>
    <path id="Trazado_103095" data-name="Trazado 103095" d="M442.384,174.58a1.512,1.512,0,0,1,.636-.636,1.806,1.806,0,0,1,.934-.252v.808a1.6,1.6,0,0,0-1.132.363,1.511,1.511,0,0,0-.395,1.157v2.6h-.857V173.74h.84Z" transform="translate(-435.676 -159.215)"/>
    <path id="Trazado_103096" data-name="Trazado 103096" d="M447.225,171.278a.588.588,0,0,1-.588-.588.552.552,0,0,1,.168-.407.588.588,0,0,1,.413-.168.566.566,0,0,1,.4.168.553.553,0,0,1,.168.407.566.566,0,0,1-.168.413.547.547,0,0,1-.4.168Zm-.438,6.027v-4.883h.865v4.883Z" transform="translate(-437.522 -157.914)"/>
    <path id="Trazado_103097" data-name="Trazado 103097" d="M452.792,178.664a2.543,2.543,0,0,1-1.272-.3,2.175,2.175,0,0,1-.877-.884,2.727,2.727,0,0,1-.324-1.348,2.492,2.492,0,0,1,.693-1.847,2.594,2.594,0,0,1,3.526,0,2.8,2.8,0,0,1,0,3.687,2.384,2.384,0,0,1-1.749.693Zm0-.712a1.511,1.511,0,0,0,1.151-.5,1.908,1.908,0,0,0,.458-1.322,1.863,1.863,0,0,0-.458-1.316,1.571,1.571,0,0,0-2.3,0,2.154,2.154,0,0,0,0,2.639,1.5,1.5,0,0,0,1.151.5Z" transform="translate(-438.861 -159.179)"/>
    <path id="Trazado_103098" data-name="Trazado 103098" d="M437.6,196.618l-.6-1.666h-3.179l-.6,1.672H432.3l2.582-6.994h1.062l2.575,6.994Zm-3.478-2.454h2.6l-1.3-3.662Z" transform="translate(-432.3 -165.021)"/>
    <path id="Trazado_103099" data-name="Trazado 103099" d="M448.959,192.786a1.571,1.571,0,0,1,1.138.42,1.532,1.532,0,0,1,.432,1.164v3.4h-.858v-3.179a1.091,1.091,0,0,0-.274-.808.916.916,0,0,0-.68-.267.973.973,0,0,0-.744.3,1.343,1.343,0,0,0-.28.924v3.022h-.877v-3.135a1.157,1.157,0,0,0-.267-.833.916.916,0,0,0-.693-.28.954.954,0,0,0-.744.311,1.373,1.373,0,0,0-.286.947v2.988H444v-4.883h.858v.636a1.468,1.468,0,0,1,.559-.541,1.577,1.577,0,0,1,.776-.191,1.621,1.621,0,0,1,.833.21,1.271,1.271,0,0,1,.541.588,1.511,1.511,0,0,1,.588-.588A1.64,1.64,0,0,1,448.959,192.786Z" transform="translate(-436.561 -166.167)"/>
    <path id="Trazado_103100" data-name="Trazado 103100" d="M460.947,195.253v.235h-3.815a1.71,1.71,0,0,0,.464,1.272,1.526,1.526,0,0,0,1.112.439,1.5,1.5,0,0,0,.814-.235,1.532,1.532,0,0,0,.553-.636l.776.168a2.207,2.207,0,0,1-.833,1.049,2.282,2.282,0,0,1-1.272.381,2.384,2.384,0,0,1-1.763-.68,2.906,2.906,0,0,1,0-3.713,2.327,2.327,0,0,1,1.73-.68,2.2,2.2,0,0,1,1.641.636,2.473,2.473,0,0,1,.594,1.764Zm-2.257-1.78a1.5,1.5,0,0,0-1.018.349,1.583,1.583,0,0,0-.515,1.007h2.923a1.428,1.428,0,0,0-.426-1.007,1.348,1.348,0,0,0-.966-.349Z" transform="translate(-441.045 -166.192)"/>
    <path id="Trazado_103101" data-name="Trazado 103101" d="M468.028,192.789a1.71,1.71,0,0,1,1.227.445,1.653,1.653,0,0,1,.458,1.272v3.287h-.858V194.7a1.17,1.17,0,0,0-.3-.877,1.049,1.049,0,0,0-.763-.28,1.189,1.189,0,0,0-.872.331,1.393,1.393,0,0,0-.343,1v2.918h-.858V192.91h.858v.636a1.628,1.628,0,0,1,1.45-.756Z" transform="translate(-444.471 -166.17)"/>
    <path id="Trazado_103102" data-name="Trazado 103102" d="M475.526,197.875a1.628,1.628,0,0,1-1.068-.336,1.2,1.2,0,0,1-.42-1,1.4,1.4,0,0,1,.134-.636,1.081,1.081,0,0,1,.4-.445,2.176,2.176,0,0,1,.573-.28,5.012,5.012,0,0,1,.744-.168l.788-.134c.286-.051.432-.2.432-.452a.845.845,0,0,0-.3-.725,1.393,1.393,0,0,0-1.539,0,.935.935,0,0,0-.363.68l-.776-.159a1.526,1.526,0,0,1,.636-1.049,2.289,2.289,0,0,1,1.335-.349,2.745,2.745,0,0,1,.706.089,1.793,1.793,0,0,1,.588.274,1.233,1.233,0,0,1,.42.521,1.964,1.964,0,0,1,.153.808v2.015a.82.82,0,0,0,.114.509.47.47,0,0,0,.381.133h.084v.636h-.424c-.528,0-.84-.216-.929-.636h-.038A1.87,1.87,0,0,1,475.526,197.875Zm.2-.693a1.316,1.316,0,0,0,1.049-.47,1.984,1.984,0,0,0,.395-1.272l-1.272.252a1.7,1.7,0,0,0-.756.274.712.712,0,0,0,0,1.068.986.986,0,0,0,.584.148Z" transform="translate(-447.499 -166.182)"/>
    <path id="Trazado_103103" data-name="Trazado 103103" d="M483.31,197.13h2.6v.693H482l2.543-4.184h-2.422v-.7h3.741Z" transform="translate(-450.4 -166.226)"/>
    <path id="Trazado_103104" data-name="Trazado 103104" d="M490.672,197.87a1.634,1.634,0,0,1-1.075-.336,1.2,1.2,0,0,1-.42-1,1.4,1.4,0,0,1,.133-.636,1.082,1.082,0,0,1,.4-.445,2.174,2.174,0,0,1,.573-.28,5.21,5.21,0,0,1,.744-.168l.788-.133c.286-.051.432-.2.432-.452a.846.846,0,0,0-.306-.725,1.227,1.227,0,0,0-.776-.235,1.272,1.272,0,0,0-.763.229.934.934,0,0,0-.363.68l-.776-.159a1.526,1.526,0,0,1,.636-1.049,2.29,2.29,0,0,1,1.335-.35,2.746,2.746,0,0,1,.706.089,1.793,1.793,0,0,1,.588.274,1.233,1.233,0,0,1,.42.521,1.964,1.964,0,0,1,.153.808v2.015a.82.82,0,0,0,.114.509.477.477,0,0,0,.381.134h.084v.636h-.426c-.528,0-.84-.216-.929-.636h-.089a1.863,1.863,0,0,1-1.571.712Zm.2-.693a1.316,1.316,0,0,0,1.049-.47,1.984,1.984,0,0,0,.394-1.272l-1.272.252a1.7,1.7,0,0,0-.756.274.712.712,0,0,0,0,1.068.986.986,0,0,0,.588.153Z" transform="translate(-453.013 -166.177)"/>
    <path id="Trazado_103105" data-name="Trazado 103105" d="M500.438,192.789a1.7,1.7,0,0,1,1.227.445,1.653,1.653,0,0,1,.464,1.272v3.287h-.865V194.7a1.171,1.171,0,0,0-.292-.877,1.075,1.075,0,0,0-.769-.28,1.175,1.175,0,0,0-.865.331,1.343,1.343,0,0,0-.343,1v2.918h-.865V192.91H499v.636a1.621,1.621,0,0,1,1.443-.756Z" transform="translate(-456.274 -166.17)"/>
    <path id="Trazado_103106" data-name="Trazado 103106" d="M508.16,196.884a1.272,1.272,0,0,1-.954-.35,1.316,1.316,0,0,1-.35-.973v-2.886h-1v-.685h.369a.719.719,0,0,0,.541-.168.858.858,0,0,0,.153-.573v-.888h.8v1.629h1.125v.687h-1.125v2.785a.744.744,0,0,0,.185.534.637.637,0,0,0,.49.191h.452v.687Z" transform="translate(-459.089 -165.286)"/>
    <path id="Trazado_103107" data-name="Trazado 103107" d="M516.477,195.253v.235h-3.815a1.71,1.71,0,0,0,.464,1.272,1.532,1.532,0,0,0,1.112.439,1.5,1.5,0,0,0,.814-.235,1.533,1.533,0,0,0,.553-.636l.776.168a2.206,2.206,0,0,1-.833,1.049,2.283,2.283,0,0,1-1.272.381,2.384,2.384,0,0,1-1.763-.68,2.906,2.906,0,0,1,0-3.713,2.327,2.327,0,0,1,1.729-.68,2.2,2.2,0,0,1,1.641.636,2.473,2.473,0,0,1,.588,1.767Zm-2.258-1.78a1.5,1.5,0,0,0-1.018.35,1.583,1.583,0,0,0-.515,1.007h2.931a1.462,1.462,0,0,0-.432-1.007,1.349,1.349,0,0,0-.966-.351Z" transform="translate(-461.269 -166.192)"/>
    <path id="Trazado_103108" data-name="Trazado 103108" d="M436.232,208.82a2.06,2.06,0,0,1,1.1.292,1.953,1.953,0,0,1,.731.776,2.283,2.283,0,0,1,.26,1.081,2.136,2.136,0,0,1-.578,1.52,1.99,1.99,0,0,1-1.511.636H434.49v2.715h-.89v-6.994Zm-.127,3.5a1.272,1.272,0,0,0,.973-.375,1.551,1.551,0,0,0,0-1.977,1.272,1.272,0,0,0-.973-.381H434.49v2.734Z" transform="translate(-432.773 -172.009)"/>
    <path id="Trazado_103109" data-name="Trazado 103109" d="M446.508,214.434v.235h-3.815a1.71,1.71,0,0,0,.47,1.272,1.526,1.526,0,0,0,1.112.439,1.481,1.481,0,0,0,.808-.235,1.552,1.552,0,0,0,.56-.636l.769.168a2.168,2.168,0,0,1-.833,1.049,2.282,2.282,0,0,1-1.272.381,2.359,2.359,0,0,1-1.755-.68,2.893,2.893,0,0,1,0-3.713,2.34,2.34,0,0,1,1.694-.715,2.206,2.206,0,0,1,1.646.636,2.493,2.493,0,0,1,.615,1.8Zm-2.267-1.8a1.5,1.5,0,0,0-1.008.35,1.583,1.583,0,0,0-.515,1.008h2.925a1.456,1.456,0,0,0-.426-1.008,1.374,1.374,0,0,0-.971-.35Z" transform="translate(-435.789 -173.166)"/>
    <path id="Trazado_103110" data-name="Trazado 103110" d="M452.589,217.074a2.34,2.34,0,0,1-1.322-.35,1.462,1.462,0,0,1-.636-1.007l.751-.216a1.03,1.03,0,0,0,.4.68,1.272,1.272,0,0,0,.8.242,1.83,1.83,0,0,0,.47-.064.763.763,0,0,0,.356-.242.635.635,0,0,0,.146-.445.97.97,0,0,0-.038-.2.926.926,0,0,0-.084-.159.407.407,0,0,0-.14-.133l-.168-.108a1.772,1.772,0,0,0-.223-.089l-.235-.084-.274-.076-.286-.084a4.811,4.811,0,0,1-.5-.178,2.124,2.124,0,0,1-.413-.235.96.96,0,0,1-.331-.432,1.31,1.31,0,0,1-.1-.547,1.272,1.272,0,0,1,.235-.782,1.385,1.385,0,0,1,.635-.458,2.477,2.477,0,0,1,.872-.14,2.137,2.137,0,0,1,1.189.318,1.335,1.335,0,0,1,.588.954l-.706.178a.928.928,0,0,0-.369-.636,1.189,1.189,0,0,0-.706-.21,1.214,1.214,0,0,0-.636.168.588.588,0,0,0-.274.528.483.483,0,0,0,.076.267.68.68,0,0,0,.146.191.826.826,0,0,0,.267.146,2.286,2.286,0,0,0,.286.108l.356.089h.076l.47.133a3.414,3.414,0,0,1,.42.178,1.334,1.334,0,0,1,.381.267,1.272,1.272,0,0,1,.242.375,1.419,1.419,0,0,1,.1.528,1.386,1.386,0,0,1-.146.636,1.092,1.092,0,0,1-.4.445,1.686,1.686,0,0,1-.566.252,2.592,2.592,0,0,1-.7.2Z" transform="translate(-438.976 -173.154)"/>
    <path id="Trazado_103111" data-name="Trazado 103111" d="M459.576,217.1a1.666,1.666,0,0,1-1.068-.336,1.2,1.2,0,0,1-.42-1,1.452,1.452,0,0,1,.134-.636,1.132,1.132,0,0,1,.395-.439,2.32,2.32,0,0,1,.578-.28,6,6,0,0,1,.737-.178l.8-.127c.286-.051.432-.2.432-.452a.845.845,0,0,0-.3-.725,1.227,1.227,0,0,0-.776-.235,1.272,1.272,0,0,0-.763.222.924.924,0,0,0-.363.687l-.776-.168a1.482,1.482,0,0,1,.636-1.043,2.267,2.267,0,0,1,1.329-.35,2.766,2.766,0,0,1,.712.089,1.909,1.909,0,0,1,.588.274,1.233,1.233,0,0,1,.42.521,1.966,1.966,0,0,1,.153.808v2.015a.871.871,0,0,0,.108.509.484.484,0,0,0,.388.134h.076v.636h-.426a.808.808,0,0,1-.924-.636h-.032a1.856,1.856,0,0,1-1.63.707Zm.2-.693a1.272,1.272,0,0,0,1.049-.477,1.908,1.908,0,0,0,.4-1.272l-1.272.252a1.672,1.672,0,0,0-.756.274.711.711,0,0,0-.013,1.068.979.979,0,0,0,.588.14Z" transform="translate(-441.691 -173.183)"/>
    <path id="Trazado_103112" data-name="Trazado 103112" d="M470.274,207.82h.858v7.63H470.3V214.5a1.8,1.8,0,0,1-.693.769,1.939,1.939,0,0,1-1.036.286,2.2,2.2,0,0,1-.884-.185,2.142,2.142,0,0,1-.725-.509,2.267,2.267,0,0,1-.49-.808,2.792,2.792,0,0,1-.185-1.043,2.589,2.589,0,0,1,.636-1.838,2.148,2.148,0,0,1,1.621-.706,1.945,1.945,0,0,1,1.023.28,1.83,1.83,0,0,1,.7.744Zm-1.545,6.994a1.482,1.482,0,0,0,1.138-.509,2.028,2.028,0,0,0,0-2.543,1.534,1.534,0,0,0-2.276-.019,1.837,1.837,0,0,0-.464,1.3,1.812,1.812,0,0,0,.464,1.272,1.488,1.488,0,0,0,1.138.489Z" transform="translate(-444.677 -171.644)"/>
    <path id="Trazado_103113" data-name="Trazado 103113" d="M478.472,217.09a2.543,2.543,0,0,1-1.272-.306,2.176,2.176,0,0,1-.877-.884,2.728,2.728,0,0,1-.324-1.354,2.486,2.486,0,0,1,.693-1.847,2.594,2.594,0,0,1,3.526,0,2.8,2.8,0,0,1,0,3.687A2.384,2.384,0,0,1,478.472,217.09Zm0-.712a1.511,1.511,0,0,0,1.157-.5,2.13,2.13,0,0,0,0-2.639,1.5,1.5,0,0,0-1.157-.5,1.475,1.475,0,0,0-1.144.5,2.155,2.155,0,0,0,0,2.639,1.5,1.5,0,0,0,1.138.484Z" transform="translate(-448.214 -173.17)"/>
    <path id="Trazado_103114" data-name="Trazado 103114" d="M440.825,234.994h-.865l-.464-5.773-2.238,5.773h-.528l-2.219-5.723-.477,5.723h-.865L433.7,228h1.175l2.117,5.457,2.13-5.457H440.3Z" transform="translate(-432.617 -178.994)"/>
    <path id="Trazado_103115" data-name="Trazado 103115" d="M448.706,236.273a1.666,1.666,0,0,1-1.068-.336,1.2,1.2,0,0,1-.42-1,1.449,1.449,0,0,1,.134-.636,1.106,1.106,0,0,1,.4-.439,2.173,2.173,0,0,1,.573-.28,5.859,5.859,0,0,1,.744-.178l.788-.127c.286-.051.432-.2.432-.452a.845.845,0,0,0-.3-.725,1.228,1.228,0,0,0-.776-.235,1.271,1.271,0,0,0-.763.222.96.96,0,0,0-.363.687l-.776-.168a1.526,1.526,0,0,1,.636-1.043,2.289,2.289,0,0,1,1.335-.35,2.749,2.749,0,0,1,.706.089,1.857,1.857,0,0,1,.588.274,1.233,1.233,0,0,1,.42.521,1.967,1.967,0,0,1,.153.808V234.9a.82.82,0,0,0,.114.509.47.47,0,0,0,.381.133h.084v.636H451.3c-.528,0-.84-.216-.929-.636h-.038A1.87,1.87,0,0,1,448.706,236.273Zm.2-.693a1.3,1.3,0,0,0,1.049-.477,1.958,1.958,0,0,0,.395-1.272l-1.272.252a1.7,1.7,0,0,0-.756.274.712.712,0,0,0,0,1.068.986.986,0,0,0,.583.154Z" transform="translate(-437.732 -180.165)"/>
    <path id="Trazado_103116" data-name="Trazado 103116" d="M456.17,234.63V227h.871v7.63Z" transform="translate(-440.993 -178.63)"/>
    <path id="Trazado_103117" data-name="Trazado 103117" d="M464.348,233.623v.235h-3.815a1.71,1.71,0,0,0,.47,1.272,1.526,1.526,0,0,0,1.112.439,1.482,1.482,0,0,0,.808-.235,1.551,1.551,0,0,0,.559-.636l.776.168a2.212,2.212,0,0,1-.84,1.049,2.282,2.282,0,0,1-1.272.381,2.359,2.359,0,0,1-1.755-.68,2.893,2.893,0,0,1,0-3.713,2.351,2.351,0,0,1,1.736-.68,2.2,2.2,0,0,1,1.641.636,2.454,2.454,0,0,1,.579,1.764Zm-2.257-1.78a1.5,1.5,0,0,0-1.018.35,1.583,1.583,0,0,0-.515,1.008h2.922a1.456,1.456,0,0,0-.426-1.007,1.361,1.361,0,0,0-.96-.331Z" transform="translate(-442.285 -180.166)"/>
    <path id="Trazado_103118" data-name="Trazado 103118" d="M471.447,231.332h.924l-1.99,4.87h-.731l-1.977-4.883h.916l1.427,3.885Z" transform="translate(-445.181 -180.202)"/>
    <path id="Trazado_103119" data-name="Trazado 103119" d="M478.168,236.263a2.543,2.543,0,0,1-1.272-.306,2.183,2.183,0,0,1-.884-.884,2.727,2.727,0,0,1-.324-1.348,2.493,2.493,0,0,1,.693-1.847,2.6,2.6,0,0,1,3.536,0,2.8,2.8,0,0,1,0,3.687A2.4,2.4,0,0,1,478.168,236.263Zm0-.712a1.511,1.511,0,0,0,1.157-.5,1.908,1.908,0,0,0,.458-1.322,1.863,1.863,0,0,0-.457-1.316,1.5,1.5,0,0,0-1.157-.5,1.475,1.475,0,0,0-1.144.5,1.863,1.863,0,0,0-.458,1.316,1.907,1.907,0,0,0,.458,1.322,1.5,1.5,0,0,0,1.138.5Z" transform="translate(-448.1 -180.155)"/>
    <path id="Trazado_103120" data-name="Trazado 103120" d="M485.57,234.63V227h.871v7.63Z" transform="translate(-451.7 -178.63)"/>
    <path id="Trazado_103121" data-name="Trazado 103121" d="M491.5,236.263a2.542,2.542,0,0,1-1.272-.3,2.149,2.149,0,0,1-.884-.884,2.727,2.727,0,0,1-.324-1.348,2.493,2.493,0,0,1,.693-1.847,2.4,2.4,0,0,1,1.763-.693,2.422,2.422,0,0,1,1.774.693,2.543,2.543,0,0,1,.687,1.847,2.487,2.487,0,0,1-.693,1.847,2.384,2.384,0,0,1-1.745.688Zm0-.712a1.5,1.5,0,0,0,1.151-.5,1.907,1.907,0,0,0,.464-1.322,1.869,1.869,0,0,0-.464-1.316,1.482,1.482,0,0,0-1.151-.5,1.456,1.456,0,0,0-1.144.5,1.863,1.863,0,0,0-.458,1.316,1.908,1.908,0,0,0,.458,1.322,1.481,1.481,0,0,0,1.144.5Z" transform="translate(-452.954 -180.154)"/>
    <path id="Trazado_102074" data-name="Trazado 102074" d="M377.171,171.525l1.272-1.615.458.331-1.112,1.272Z" transform="translate(-358.022 -121.155)"/>
  </g>
  <g id="Grupo_57746" data-name="Grupo 57746" transform="translate(275.487 74.123)">
    <path id="Trazado_103122" data-name="Trazado 103122" d="M438.188,117.11h1.482v7.178h-1.723l-3.179-5.131v5.131H433.28V117.11h1.73l3.179,5.086Z" transform="translate(-433.28 -116.773)"/>
    <path id="Trazado_103123" data-name="Trazado 103123" d="M450.494,122.781v.343h-3.814a1.31,1.31,0,0,0,.407.934,1.418,1.418,0,0,0,1.57.146,1.113,1.113,0,0,0,.432-.515l1.31.191a2.267,2.267,0,0,1-.9,1.2,2.639,2.639,0,0,1-1.507.426,2.76,2.76,0,0,1-1.99-.706,2.543,2.543,0,0,1-.738-1.945,2.6,2.6,0,0,1,.738-1.952,2.687,2.687,0,0,1,1.945-.712,2.333,2.333,0,0,1,2.543,2.588Zm-2.543-1.577a1.132,1.132,0,0,0-1.24.986h2.347a1.075,1.075,0,0,0-.356-.731,1.125,1.125,0,0,0-.725-.252Z" transform="translate(-437.644 -117.892)"/>
    <path id="Trazado_103124" data-name="Trazado 103124" d="M458.461,120.3h1.361v4.724a3.817,3.817,0,0,1-.191,1.272,2.053,2.053,0,0,1-.553.871,2.321,2.321,0,0,1-.852.489,3.51,3.51,0,0,1-1.112.159,2.519,2.519,0,0,1-2.632-1.583l1.189-.509a1.724,1.724,0,0,0,.547.744,1.4,1.4,0,0,0,.84.235c.884,0,1.329-.521,1.329-1.577v-.61a1.608,1.608,0,0,1-.636.5,2.155,2.155,0,0,1-.909.191,2.276,2.276,0,0,1-.9-.178,2.383,2.383,0,0,1-.744-.509,2.421,2.421,0,0,1-.5-.8,3.007,3.007,0,0,1,0-2.073,2.284,2.284,0,0,1,.509-.788,2.124,2.124,0,0,1,.744-.5,2.267,2.267,0,0,1,.9-.185,2.1,2.1,0,0,1,.947.216,1.468,1.468,0,0,1,.636.559Zm-2.194,3.376a1.233,1.233,0,0,0,.934.395,1.272,1.272,0,0,0,.941-.395,1.427,1.427,0,0,0,0-1.945,1.329,1.329,0,0,0-1.908,0,1.361,1.361,0,0,0-.375.979A1.335,1.335,0,0,0,456.267,123.677Z" transform="translate(-441.001 -117.891)"/>
    <path id="Trazado_103125" data-name="Trazado 103125" d="M469.189,124.045a4.775,4.775,0,0,0,.121,1.272v.14h-1.335l-.114-.553a1.647,1.647,0,0,1-.712.489,2.7,2.7,0,0,1-.929.168,2.887,2.887,0,0,1-.477-.044,1.7,1.7,0,0,1-.426-.153,1.27,1.27,0,0,1-.356-.267,1.058,1.058,0,0,1-.235-.407,1.481,1.481,0,0,1-.1-.553,1.532,1.532,0,0,1,.1-.553,1.321,1.321,0,0,1,.252-.413,1.582,1.582,0,0,1,.407-.306,3.179,3.179,0,0,1,.5-.216,5.953,5.953,0,0,1,.635-.159l.84-.191a.833.833,0,0,0,.375-.159.318.318,0,0,0,.114-.252.541.541,0,0,0-.252-.5,1.272,1.272,0,0,0-.636-.146.877.877,0,0,0-1,.782L464.7,121.8a1.717,1.717,0,0,1,.737-1.17,2.956,2.956,0,0,1,1.6-.375q2.149,0,2.149,1.847Zm-2.543.515a1.144,1.144,0,0,0,.884-.369,1.545,1.545,0,0,0,.343-1.091l-1.214.343a1.361,1.361,0,0,0-.509.21.432.432,0,0,0-.178.369.471.471,0,0,0,.191.4.776.776,0,0,0,.509.121Z" transform="translate(-444.697 -117.915)"/>
    <path id="Trazado_103126" data-name="Trazado 103126" d="M475.4,124.534a1.52,1.52,0,0,1-1.151-.413,1.6,1.6,0,0,1-.407-1.183v-2.41h-1.007v-1.1h.324a.84.84,0,0,0,.636-.216,1.1,1.1,0,0,0,.2-.756v-.672h1.272v1.646h1.049v1.1h-1.03v2.257c0,.445.2.636.588.636h.458v1.091Z" transform="translate(-447.687 -117.017)"/>
    <path id="Trazado_103127" data-name="Trazado 103127" d="M480.766,118.226a.814.814,0,0,1-.588-.242.8.8,0,0,1-.242-.588.783.783,0,0,1,.252-.578.82.82,0,0,1,1.157,1.164A.8.8,0,0,1,480.766,118.226Zm-.725,5.869v-5.086h1.437V124.1Z" transform="translate(-450.272 -116.58)"/>
    <path id="Trazado_103128" data-name="Trazado 103128" d="M487.582,120.37h1.511l-2.174,5.086h-1.269L483.5,120.37h1.507l1.272,3.491Z" transform="translate(-451.569 -117.96)"/>
    <path id="Trazado_103129" data-name="Trazado 103129" d="M495.3,125.537a3.274,3.274,0,0,1-1.443-.311,2.351,2.351,0,0,1-.992-.924,2.709,2.709,0,0,1-.363-1.427,2.543,2.543,0,0,1,.776-1.908,3.237,3.237,0,0,1,4.05,0,2.823,2.823,0,0,1,0,3.885,2.874,2.874,0,0,1-2.028.68Zm0-1.138a1.316,1.316,0,0,0,1.007-.42,1.552,1.552,0,0,0,.381-1.1,1.584,1.584,0,0,0-.381-1.107,1.336,1.336,0,0,0-1.008-.413,1.272,1.272,0,0,0-.986.42,1.8,1.8,0,0,0,0,2.2,1.272,1.272,0,0,0,.973.42Z" transform="translate(-454.846 -117.919)"/>
  </g>
</svg>
